<svg viewBox="0 0 500 800" width="500" height="800" version="1.1" xmlns="http://www.w3.org/2000/svg">
<rect width="500" height="800" fill="hsl(140,80%, 20%)" /><path d="M7.5,30 L52.5,30M8.121676791052277,84.74747931324212 L51.87832320894772,95.25252068675788M9.952353205761721,139.78521375586018 L50.047646794238275,160.21478624413982M12.890865773999305,195.38741891257087 L47.10913422600069,224.61258108742913M16.774831823419355,251.79711762656368 L43.225168176580645,288.2028823734363M21.38962277178548,309.21271051849607 L38.61037722821452,350.78728948150393M26.480224536594804,367.7770123366094 L33.519775463405196,412.2229876633906M31.76532965387651,427.5693599910046 L28.23467034612349,472.4306400089954M36.95288237343632,488.60122838335906 L23.047117626563683,531.3987716166409M41.75621770610885,550.8155963020329 L18.24378229389115,589.1844036979671M45.90990257669732,614.0900974233027 L14.090097423302682,645.9099025766973M49.18440369796707,678.2437822938912 L10.815596302032926,701.7562177061088M51.39877161664096,743.0471176265637 L8.601228383359047,756.9528823734363M52.43064000899538,808.2346703461235 L7.569359991004621,811.7653296538765M67.5,30 L112.5,30M68.12167679105228,84.74747931324212 L111.87832320894772,95.25252068675788M69.95235320576172,139.78521375586018 L110.04764679423828,160.21478624413982M72.89086577399931,195.38741891257087 L107.10913422600069,224.61258108742913M76.77483182341936,251.79711762656368 L103.22516817658064,288.2028823734363M81.38962277178548,309.21271051849607 L98.61037722821452,350.78728948150393M86.4802245365948,367.7770123366094 L93.5197754634052,412.2229876633906M91.7653296538765,427.5693599910046 L88.2346703461235,472.4306400089954M96.95288237343631,488.60122838335906 L83.04711762656369,531.3987716166409M101.75621770610884,550.8155963020329 L78.24378229389116,589.1844036979671M105.90990257669732,614.0900974233027 L74.09009742330268,645.9099025766973M109.18440369796707,678.2437822938912 L70.81559630203293,701.7562177061088M111.39877161664096,743.0471176265637 L68.60122838335904,756.9528823734363M112.43064000899538,808.2346703461235 L67.56935999100462,811.7653296538765M127.5,30 L172.5,30M128.12167679105227,84.74747931324212 L171.87832320894773,95.25252068675788M129.9523532057617,139.78521375586018 L170.0476467942383,160.21478624413982M132.8908657739993,195.38741891257087 L167.1091342260007,224.61258108742913M136.77483182341936,251.79711762656368 L163.22516817658064,288.2028823734363M141.38962277178547,309.21271051849607 L158.61037722821453,350.78728948150393M146.48022453659482,367.7770123366094 L153.51977546340518,412.2229876633906M151.7653296538765,427.5693599910046 L148.2346703461235,472.4306400089954M156.95288237343632,488.60122838335906 L143.04711762656368,531.3987716166409M161.75621770610886,550.8155963020329 L138.24378229389114,589.1844036979671M165.9099025766973,614.0900974233027 L134.0900974233027,645.9099025766973M169.18440369796707,678.2437822938912 L130.81559630203293,701.7562177061088M171.39877161664094,743.0471176265637 L128.60122838335906,756.9528823734363M172.43064000899537,808.2346703461235 L127.56935999100462,811.7653296538765M187.5,30 L232.5,30M188.12167679105227,84.74747931324212 L231.87832320894773,95.25252068675788M189.9523532057617,139.78521375586018 L230.0476467942383,160.21478624413982M192.8908657739993,195.38741891257087 L227.1091342260007,224.61258108742913M196.77483182341936,251.79711762656368 L223.22516817658064,288.2028823734363M201.38962277178547,309.21271051849607 L218.61037722821453,350.78728948150393M206.48022453659482,367.7770123366094 L213.51977546340518,412.2229876633906M211.7653296538765,427.5693599910046 L208.2346703461235,472.4306400089954M216.95288237343632,488.60122838335906 L203.04711762656368,531.3987716166409M221.75621770610886,550.8155963020329 L198.24378229389114,589.1844036979671M225.9099025766973,614.0900974233027 L194.0900974233027,645.9099025766973M229.18440369796707,678.2437822938912 L190.81559630203293,701.7562177061088M231.39877161664094,743.0471176265637 L188.60122838335906,756.9528823734363M232.43064000899537,808.2346703461235 L187.56935999100463,811.7653296538765M247.5,30 L292.5,30M248.12167679105227,84.74747931324212 L291.87832320894773,95.25252068675788M249.9523532057617,139.78521375586018 L290.0476467942383,160.21478624413982M252.8908657739993,195.38741891257087 L287.1091342260007,224.61258108742913M256.77483182341933,251.79711762656368 L283.22516817658067,288.2028823734363M261.38962277178547,309.21271051849607 L278.61037722821453,350.78728948150393M266.4802245365948,367.7770123366094 L273.5197754634052,412.2229876633906M271.7653296538765,427.5693599910046 L268.2346703461235,472.4306400089954M276.9528823734363,488.60122838335906 L263.0471176265637,531.3987716166409M281.7562177061088,550.8155963020329 L258.2437822938912,589.1844036979671M285.90990257669733,614.0900974233027 L254.0900974233027,645.9099025766973M289.18440369796707,678.2437822938912 L250.81559630203293,701.7562177061088M291.39877161664094,743.0471176265637 L248.60122838335906,756.9528823734363M292.4306400089954,808.2346703461235 L247.56935999100463,811.7653296538765M307.5,30 L352.5,30M308.12167679105227,84.74747931324212 L351.87832320894773,95.25252068675788M309.9523532057617,139.78521375586018 L350.0476467942383,160.21478624413982M312.8908657739993,195.38741891257087 L347.1091342260007,224.61258108742913M316.77483182341933,251.79711762656368 L343.22516817658067,288.2028823734363M321.38962277178547,309.21271051849607 L338.61037722821453,350.78728948150393M326.4802245365948,367.7770123366094 L333.5197754634052,412.2229876633906M331.7653296538765,427.5693599910046 L328.2346703461235,472.4306400089954M336.9528823734363,488.60122838335906 L323.0471176265637,531.3987716166409M341.7562177061088,550.8155963020329 L318.2437822938912,589.1844036979671M345.90990257669733,614.0900974233027 L314.09009742330267,645.9099025766973M349.18440369796707,678.2437822938912 L310.81559630203293,701.7562177061088M351.39877161664094,743.0471176265637 L308.60122838335906,756.9528823734363M352.4306400089954,808.2346703461235 L307.5693599910046,811.7653296538765M367.5,30 L412.5,30M368.12167679105227,84.74747931324212 L411.87832320894773,95.25252068675788M369.9523532057617,139.78521375586018 L410.0476467942383,160.21478624413982M372.8908657739993,195.38741891257087 L407.1091342260007,224.61258108742913M376.77483182341933,251.79711762656368 L403.22516817658067,288.2028823734363M381.38962277178547,309.21271051849607 L398.61037722821453,350.78728948150393M386.4802245365948,367.7770123366094 L393.5197754634052,412.2229876633906M391.7653296538765,427.5693599910046 L388.2346703461235,472.4306400089954M396.9528823734363,488.60122838335906 L383.0471176265637,531.3987716166409M401.7562177061088,550.8155963020329 L378.2437822938912,589.1844036979671M405.90990257669733,614.0900974233027 L374.09009742330267,645.9099025766973M409.18440369796707,678.2437822938912 L370.81559630203293,701.7562177061088M411.39877161664094,743.0471176265637 L368.60122838335906,756.9528823734363M412.4306400089954,808.2346703461235 L367.5693599910046,811.7653296538765M427.5,30 L472.5,30M428.12167679105227,84.74747931324212 L471.87832320894773,95.25252068675788M429.9523532057617,139.78521375586018 L470.0476467942383,160.21478624413982M432.8908657739993,195.38741891257087 L467.1091342260007,224.61258108742913M436.77483182341933,251.79711762656368 L463.22516817658067,288.2028823734363M441.38962277178547,309.21271051849607 L458.61037722821453,350.78728948150393M446.4802245365948,367.7770123366094 L453.5197754634052,412.2229876633906M451.7653296538765,427.5693599910046 L448.2346703461235,472.4306400089954M456.9528823734363,488.60122838335906 L443.0471176265637,531.3987716166409M461.7562177061088,550.8155963020329 L438.2437822938912,589.1844036979671M465.90990257669733,614.0900974233027 L434.09009742330267,645.9099025766973M469.18440369796707,678.2437822938912 L430.81559630203293,701.7562177061088M471.39877161664094,743.0471176265637 L428.60122838335906,756.9528823734363M472.4306400089954,808.2346703461235 L427.5693599910046,811.7653296538765M487.5,30 L532.5,30M488.12167679105227,84.74747931324212 L531.8783232089477,95.25252068675788M489.9523532057617,139.78521375586018 L530.0476467942383,160.21478624413982M492.8908657739993,195.38741891257087 L527.1091342260007,224.61258108742913M496.77483182341933,251.79711762656368 L523.2251681765806,288.2028823734363M501.38962277178547,309.21271051849607 L518.6103772282145,350.78728948150393M506.4802245365948,367.7770123366094 L513.5197754634052,412.2229876633906M511.7653296538765,427.5693599910046 L508.2346703461235,472.4306400089954M516.9528823734363,488.60122838335906 L503.0471176265637,531.3987716166409M521.7562177061088,550.8155963020329 L498.2437822938912,589.1844036979671M525.9099025766973,614.0900974233027 L494.09009742330267,645.9099025766973M529.1844036979671,678.2437822938912 L490.81559630203293,701.7562177061088M531.3987716166409,743.0471176265637 L488.60122838335906,756.9528823734363M532.4306400089954,808.2346703461235 L487.5693599910046,811.7653296538765" stroke="hsl(140,80%, 30%)" fill="none" stroke-width="4"/></svg>