<svg viewBox="0 0 500 800" width="500" height="800" version="1.1" xmlns="http://www.w3.org/2000/svg">
<rect width="500" height="800" fill="hsl(10,100%, 10%)" /><path d="M460,400L250,610L40,400L249.99999999999997,190z" fill="hsl(11,80%, 10%  )" /><path d="M441.99986791068005,400.22521607716834L249.7747839228317,591.99986791068L58.00013208931995,399.77478392283166L250.22521607716826,208.00013208931995z" fill="hsl(11,80%, 16.666666666666668%  )" /><path d="M423.7587391727289,409.1597249469386L240.84027505306145,573.7587391727288L76.2412608272711,390.8402750530614L259.1597249469386,226.2412608272711z" fill="hsl(11,80%, 23.333333333333336%  )" /><path d="M400.7069248324003,440.2917213278514L209.70827867214862,550.7069248324003L99.29307516759965,359.70827867214865L290.2917213278514,249.29307516759968z" fill="hsl(11,80%, 30%  )" /><path d="M387.8188767199107,407.06804213782385L242.93195786217615,537.8188767199107L112.18112328008931,392.93195786217615L257.0680421378238,262.1811232800893z" fill="hsl(11,80%, 36.66666666666667%  )" /><path d="M369.9738893383704,402.5031733908091L247.4968266091909,519.9738893383704L130.02611066162962,397.4968266091909L252.50317339080902,280.0261106616296z" fill="hsl(11,80%, 43.333333333333336%  )" /><path d="M344.8071376878818,437.6245484149781L212.37545158502192,494.8071376878818L155.19286231211822,362.3754515850219L287.6245484149781,305.1928623121182z" fill="hsl(11,80%, 50%  )" /><path d="M333.1282477161785,412.07039484182957L237.92960515817043,483.1282477161785L166.8717522838215,387.92960515817043L262.0703948418295,316.8717522838215z" fill="hsl(11,80%, 56.66666666666667%  )" /><path d="M310.27353160012444,426.8905445918971L223.10945540810295,460.27353160012444L189.72646839987559,373.109455408103L276.8905445918971,339.7264683998756z" fill="hsl(11,80%, 63.333333333333336%  )" /><path d="M292.11241122974167,423.03355857042345L226.96644142957655,442.11241122974167L207.88758877025833,376.96644142957655L273.03355857042345,357.88758877025833z" fill="hsl(11,80%, 70%  )" /><path d="M274.085448531495,417.8855016434179L232.1144983565821,424.085448531495L225.91455146850498,382.1144983565821L267.8855016434179,375.914551468505z" fill="hsl(11,80%, 76.66666666666667%  )" /><path d="M257.09834914381867,409.67540383821L240.32459616179,407.09834914381867L242.90165085618133,390.32459616179L259.67540383821,392.90165085618133z" fill="hsl(11,80%, 83.33333333333334%  )" /><path d="M244.2642059507773,398.2391290152594L251.76087098474062,394.2642059507773L255.7357940492227,401.7608709847406L248.23912901525938,405.7357940492227z" fill="hsl(11,80%, 90%  )" /></svg>