<svg viewBox="0 0 500 800" width="500" height="800" version="1.1" xmlns="http://www.w3.org/2000/svg">
<rect width="500" height="800" fill="hsl(10,100%, 10%)" /><path d="M460,400L250,610L40,400L249.99999999999997,190z" fill="hsl(11,80%, 10%  )" /><path d="M441.5611247803693,412.97441609012856L237.02558390987147,591.5611247803693L58.43887521963069,387.0255839098715L262.9744160901286,208.4388752196307z" fill="hsl(11,80%, 16.666666666666668%  )" /><path d="M423.7633280987943,409.0722548482032L240.92774515179678,573.7633280987943L76.23667190120565,390.92774515179684L259.0722548482032,226.23667190120565z" fill="hsl(11,80%, 23.333333333333336%  )" /><path d="M405.9478701334728,404.03259232175805L245.96740767824195,555.9478701334729L94.0521298665272,395.967407678242L254.032592321758,244.0521298665272z" fill="hsl(11,80%, 30%  )" /><path d="M386.3437976132463,421.31592954572085L228.6840704542792,536.3437976132464L113.6562023867537,378.6840704542792L271.3159295457208,263.6562023867537z" fill="hsl(11,80%, 36.66666666666667%  )" /><path d="M360.3642124796717,447.11412318765866L202.88587681234134,510.3642124796717L139.6357875203283,352.88587681234134L297.11412318765866,289.6357875203283z" fill="hsl(11,80%, 43.333333333333336%  )" /><path d="M351.8820814391138,404.9032113592811L245.09678864071887,501.8820814391138L148.1179185608862,395.0967886407189L254.90321135928107,298.1179185608862z" fill="hsl(11,80%, 50%  )" /><path d="M329.81315684292554,426.18892885871L223.81107114129,479.81315684292554L170.1868431570745,373.81107114129003L276.18892885870997,320.18684315707446z" fill="hsl(11,80%, 56.66666666666667%  )" /><path d="M302.77539580528037,439.6327843785419L210.3672156214581,452.77539580528037L197.22460419471963,360.3672156214581L289.6327843785419,347.22460419471963z" fill="hsl(11,80%, 63.333333333333336%  )" /><path d="M284.1452218796854,433.7357943850009L216.26420561499913,434.1452218796854L215.85477812031462,366.2642056149991L283.7357943850009,365.8547781203146z" fill="hsl(11,80%, 70%  )" /><path d="M279.68376749510173,404.34441564502526L245.65558435497474,429.68376749510173L220.31623250489824,395.65558435497474L254.34441564502526,370.31623250489827z" fill="hsl(11,80%, 76.66666666666667%  )" /><path d="M261.4353367947471,403.6377290155676L246.3622709844324,411.4353367947471L238.56466320525286,396.3622709844324L253.6377290155676,388.5646632052529z" fill="hsl(11,80%, 83.33333333333334%  )" /><path d="M244.70195157774867,397.18385317934593L252.81614682065407,394.7019515777487L255.29804842225133,402.81614682065407L247.18385317934593,405.2980484222513z" fill="hsl(11,80%, 90%  )" /></svg>