<svg viewBox="0 0 500 800" width="500" height="800" version="1.1" xmlns="http://www.w3.org/2000/svg">
<rect width="500" height="800" fill="hsl(10,100%, 10%)" /><path d="M460,400L250,610L40,400L249.99999999999997,190z" fill="hsl(11,80%, 10%  )" /><path d="M441.9105812675856,405.8590782156777L244.1409217843223,591.9105812675856L58.0894187324144,394.1409217843223L255.85907821567767,208.0894187324144z" fill="hsl(11,80%, 16.666666666666668%  )" /><path d="M422.53826442283014,422.50660591820844L227.49339408179156,572.5382644228301L77.46173557716983,377.49339408179156L272.50660591820844,227.46173557716983z" fill="hsl(11,80%, 23.333333333333336%  )" /><path d="M401.5087830243697,437.16300131144493L212.83699868855507,551.5087830243697L98.4912169756303,362.83699868855507L287.1630013114449,248.49121697563027z" fill="hsl(11,80%, 30%  )" /><path d="M387.996959029301,400.9161324497112L249.08386755028883,537.996959029301L112.00304097069898,399.0838675502888L250.91613244971117,262.003040970699z" fill="hsl(11,80%, 36.66666666666667%  )" /><path d="M366.26995523068507,429.6866554305885L220.31334456941153,516.2699552306851L133.73004476931493,370.3133445694115L279.68665543058853,283.73004476931493z" fill="hsl(11,80%, 43.333333333333336%  )" /><path d="M342.8837458923287,442.14984874242504L207.85015125757496,492.8837458923287L157.1162541076713,357.85015125757496L292.14984874242504,307.1162541076713z" fill="hsl(11,80%, 50%  )" /><path d="M328.4394333293054,430.05420601142964L219.94579398857036,478.4394333293054L171.56056667069458,369.94579398857036L280.05420601142964,321.5605666706946z" fill="hsl(11,80%, 56.66666666666667%  )" /><path d="M313.2890483874842,418.721547858195L231.27845214180502,463.2890483874842L186.7109516125158,381.278452141805L268.721547858195,336.7109516125158z" fill="hsl(11,80%, 63.333333333333336%  )" /><path d="M289.67207496251535,427.0208524693164L222.97914753068358,439.67207496251535L210.32792503748465,372.9791475306836L277.0208524693164,360.32792503748465z" fill="hsl(11,80%, 70%  )" /><path d="M278.17955376216656,410.29139202271324L239.7086079772868,428.17955376216656L221.82044623783344,389.7086079772868L260.2913920227132,371.82044623783344z" fill="hsl(11,80%, 76.66666666666667%  )" /><path d="M261.9835615216085,400.6278958972823L249.37210410271769,411.9835615216085L238.01643847839148,399.3721041027177L250.62789589728231,388.0164384783915z" fill="hsl(11,80%, 83.33333333333334%  )" /><path d="M246.66631656096135,395.01135742628526L254.98864257371474,396.6663165609613L253.33368343903865,404.98864257371474L245.01135742628526,403.3336834390387z" fill="hsl(11,80%, 90%  )" /></svg>