<svg viewBox="0 0 500 800" width="500" height="800" version="1.1" xmlns="http://www.w3.org/2000/svg">
<rect width="500" height="800" fill="hsl(10,100%, 10%)" /><path d="M460,400L250,610L40,400L249.99999999999997,190z" fill="hsl(11,80%, 10%  )" /><path d="M441.7993643794139,408.7751822575277L241.22481774247228,591.7993643794139L58.20063562058613,391.22481774247234L258.7751822575277,208.20063562058616z" fill="hsl(11,80%, 16.666666666666668%  )" /><path d="M423.6243788902037,411.42694425430517L238.57305574569483,573.6243788902036L76.37562110979633,388.5730557456949L261.42694425430517,226.37562110979633z" fill="hsl(11,80%, 23.333333333333336%  )" /><path d="M403.30809227431735,428.85530875262623L221.14469124737377,553.3080922743173L96.69190772568263,371.14469124737377L278.85530875262623,246.69190772568263z" fill="hsl(11,80%, 30%  )" /><path d="M380.93160942830957,443.59946848887716L206.40053151112284,530.9316094283096L119.06839057169043,356.40053151112284L293.5994684888771,269.06839057169043z" fill="hsl(11,80%, 36.66666666666667%  )" /><path d="M359.42159607981336,449.2637220614335L200.7362779385665,509.42159607981336L140.57840392018662,350.7362779385665L299.26372206143355,290.57840392018664z" fill="hsl(11,80%, 43.333333333333336%  )" /><path d="M345.8682383885295,434.8321815033179L215.16781849668214,495.8682383885295L154.1317616114705,365.1678184966822L284.8321815033178,304.1317616114705z" fill="hsl(11,80%, 50%  )" /><path d="M331.6401298502675,419.77091798656465L230.22908201343532,481.6401298502675L168.35987014973253,380.22908201343535L269.77091798656465,318.3598701497325z" fill="hsl(11,80%, 56.66666666666667%  )" /><path d="M306.1306634704539,434.7181309745593L215.2818690254407,456.1306634704539L193.8693365295461,365.2818690254407L284.71813097455936,343.8693365295461z" fill="hsl(11,80%, 63.333333333333336%  )" /><path d="M297.9121625849266,402.90252931691657L247.09747068308346,447.9121625849266L202.0878374150734,397.0974706830835L252.90252931691654,352.0878374150734z" fill="hsl(11,80%, 70%  )" /><path d="M271.28475172695494,421.1414130067479L228.8585869932521,421.28475172695494L228.71524827304506,378.8585869932521L271.1414130067479,378.71524827304506z" fill="hsl(11,80%, 76.66666666666667%  )" /><path d="M261.14936005757255,404.437541020273L245.56245897972704,411.14936005757255L238.85063994242742,395.562458979727L254.43754102027296,388.85063994242745z" fill="hsl(11,80%, 83.33333333333334%  )" /><path d="M244.022527120692,399.48055993884077L250.51944006115923,394.02252712069196L255.977472879308,400.51944006115923L249.48055993884077,405.97747287930804z" fill="hsl(11,80%, 90%  )" /></svg>