<svg viewBox="0 0 500 800" width="500" height="800" version="1.1" xmlns="http://www.w3.org/2000/svg">
<rect width="500" height="800" fill="hsl(10,100%, 10%)" /><path d="M460,400L250,610L40,400L249.99999999999997,190z" fill="hsl(11,80%, 10%  )" /><path d="M441.94228586108585,404.7073239129257L245.2926760870743,591.9422858610858L58.05771413891415,395.2926760870743L254.70732391292574,208.05771413891415z" fill="hsl(11,80%, 16.666666666666668%  )" /><path d="M422.7941285657554,420.4496731807915L229.55032681920852,572.7941285657554L77.20587143424459,379.5503268192085L270.4496731807915,227.20587143424459z" fill="hsl(11,80%, 23.333333333333336%  )" /><path d="M404.7921091441714,419.37531797671835L230.62468202328168,554.7921091441714L95.20789085582865,380.6246820232817L269.37531797671824,245.20789085582865z" fill="hsl(11,80%, 30%  )" /><path d="M387.9952946033026,401.13959086856323L248.86040913143677,537.9952946033027L112.00470539669737,398.86040913143677L251.1395908685632,262.0047053966974z" fill="hsl(11,80%, 36.66666666666667%  )" /><path d="M367.0476224526029,426.45475530397L223.54524469602998,517.0476224526029L132.95237754739708,373.54524469603L276.45475530397,282.9523775473971z" fill="hsl(11,80%, 43.333333333333336%  )" /><path d="M348.8130616464804,425.2978032257521L224.70219677424788,498.8130616464804L151.18693835351965,374.7021967742479L275.2978032257521,301.1869383535196z" fill="hsl(11,80%, 50%  )" /><path d="M333.05170877991975,412.58624919248786L237.41375080751214,483.05170877991975L166.94829122008025,387.4137508075121L262.58624919248786,316.94829122008025z" fill="hsl(11,80%, 56.66666666666667%  )" /><path d="M313.1811362965216,419.08255790716646L230.9174420928335,463.1811362965216L186.81886370347843,380.91744209283354L269.08255790716646,336.8188637034784z" fill="hsl(11,80%, 63.333333333333336%  )" /><path d="M294.5205125969545,417.9422394952362L232.0577605047638,444.5205125969545L205.47948740304548,382.0577605047638L267.9422394952362,355.4794874030455z" fill="hsl(11,80%, 70%  )" /><path d="M273.86421241985045,418.1796415140744L231.82035848592562,423.86421241985045L226.13578758014958,381.8203584859256L268.1796415140744,376.13578758014955z" fill="hsl(11,80%, 76.66666666666667%  )" /><path d="M258.75239950612456,408.20947640749336L241.79052359250664,408.75239950612456L241.2476004938754,391.79052359250664L258.20947640749336,391.24760049387544z" fill="hsl(11,80%, 83.33333333333334%  )" /><path d="M246.74398941479365,394.96031795953115L255.03968204046885,396.74398941479365L253.25601058520635,405.03968204046885L244.96031795953115,403.25601058520635z" fill="hsl(11,80%, 90%  )" /></svg>