<svg viewBox="0 0 500 800" width="500" height="800" version="1.1" xmlns="http://www.w3.org/2000/svg">
<rect width="500" height="800" fill="hsl(10,100%, 10%)" /><path d="M460,400L250,610L40,400L249.99999999999997,190z" fill="hsl(11,80%, 10%  )" /><path d="M441.9035406844673,406.0853161598222L243.9146838401778,591.9035406844673L58.096459315532684,393.9146838401779L256.08531615982224,208.09645931553268z" fill="hsl(11,80%, 16.666666666666668%  )" /><path d="M423.82033403467096,407.9051550317121L242.09484496828787,573.820334034671L76.17966596532904,392.0948449682879L257.9051550317122,226.17966596532904z" fill="hsl(11,80%, 23.333333333333336%  )" /><path d="M401.8995561939105,435.532025386868L214.46797461313201,551.8995561939105L98.10044380608952,364.467974613132L285.532025386868,248.10044380608952z" fill="hsl(11,80%, 30%  )" /><path d="M386.1988099982093,422.22350456322476L227.77649543677524,536.1988099982093L113.80119000179064,377.7764954367753L272.2235045632247,263.80119000179064z" fill="hsl(11,80%, 36.66666666666667%  )" /><path d="M369.64082047846443,409.2776115051149L240.72238849488505,519.6408204784644L130.35917952153557,390.7223884948851L259.2776115051149,280.35917952153557z" fill="hsl(11,80%, 43.333333333333336%  )" /><path d="M343.30017662970306,441.219862213091L208.780137786909,493.30017662970306L156.69982337029694,358.780137786909L291.219862213091,306.69982337029694z" fill="hsl(11,80%, 50%  )" /><path d="M331.6466678423852,419.74390108958244L230.2560989104176,481.6466678423852L168.35333215761474,380.2560989104176L269.7439010895824,318.3533321576148z" fill="hsl(11,80%, 56.66666666666667%  )" /><path d="M315.7271825212191,405.9947875543967L244.00521244560332,465.7271825212191L184.2728174787809,394.0052124456033L255.99478755439668,334.2728174787809z" fill="hsl(11,80%, 63.333333333333336%  )" /><path d="M287.79667422894215,429.5873523187057L220.41264768129426,437.79667422894215L212.20332577105785,370.4126476812943L279.5873523187057,362.20332577105785z" fill="hsl(11,80%, 70%  )" /><path d="M278.1995124712241,410.23657639962096L239.76342360037904,428.1995124712241L221.8004875287759,389.76342360037904L260.23657639962096,371.8004875287759z" fill="hsl(11,80%, 76.66666666666667%  )" /><path d="M258.7801089419337,408.1798341650535L241.82016583494652,408.7801089419337L241.2198910580663,391.8201658349465L258.1798341650535,391.2198910580663z" fill="hsl(11,80%, 83.33333333333334%  )" /><path d="M245.18723699528445,396.417080483678L253.58291951632202,395.1872369952844L254.81276300471555,403.582919516322L246.41708048367798,404.8127630047156z" fill="hsl(11,80%, 90%  )" /></svg>