<svg viewBox="0 0 500 800" width="500" height="800" version="1.1" xmlns="http://www.w3.org/2000/svg">
<rect width="500" height="800" fill="hsl(10,100%, 10%)" /><path d="M460,400L250,610L40,400L249.99999999999997,190z" fill="hsl(11,80%, 10%  )" /><path d="M441.7195226289532,410.37422975098906L239.62577024901097,591.7195226289532L58.2804773710468,389.625770249011L260.37422975098906,208.28047737104683z" fill="hsl(11,80%, 16.666666666666668%  )" /><path d="M423.7979310238701,408.3832673715025L241.61673262849757,573.7979310238701L76.20206897612991,391.6167326284976L258.3832673715024,226.2020689761299z" fill="hsl(11,80%, 23.333333333333336%  )" /><path d="M404.71840605724276,419.9553207718176L230.04467922818242,554.7184060572429L95.28159394275718,380.0446792281824L269.9553207718176,245.28159394275718z" fill="hsl(11,80%, 30%  )" /><path d="M386.94411221428436,417.0384896584613L232.9615103415387,536.9441122142844L113.05588778571564,382.9615103415387L267.03848965846123,263.05588778571564z" fill="hsl(11,80%, 36.66666666666667%  )" /><path d="M369.93476077126417,403.9564073020392L246.04359269796078,519.9347607712642L130.06523922873583,396.0435926979608L253.95640730203925,280.06523922873583z" fill="hsl(11,80%, 43.333333333333336%  )" /><path d="M351.33995172409703,411.58508457274627L238.41491542725376,501.33995172409703L148.66004827590297,388.41491542725373L261.5850845727462,298.66004827590297z" fill="hsl(11,80%, 50%  )" /><path d="M329.2996391928807,427.7050035892244L222.29499641077555,479.2996391928807L170.7003608071193,372.2949964107755L277.7050035892245,320.7003608071193z" fill="hsl(11,80%, 56.66666666666667%  )" /><path d="M301.2249088056987,441.6174088314956L208.38259116850438,451.2249088056987L198.77509119430127,358.3825911685044L291.6174088314956,348.77509119430124z" fill="hsl(11,80%, 63.333333333333336%  )" /><path d="M290.3424867204213,426.00930151335547L223.99069848664456,440.3424867204213L209.65751327957872,373.9906984866446L276.0093015133554,359.6575132795787z" fill="hsl(11,80%, 70%  )" /><path d="M276.3851886564644,414.2766179315265L235.7233820684735,426.3851886564644L223.61481134353562,385.7233820684735L264.27661793152646,373.6148113435356z" fill="hsl(11,80%, 76.66666666666667%  )" /><path d="M260.1284135279525,406.43546730290734L243.5645326970927,410.1284135279525L239.8715864720475,393.56453269709266L256.43546730290734,389.8715864720475z" fill="hsl(11,80%, 83.33333333333334%  )" /><path d="M245.6102301885715,395.90977738959464L254.09022261040533,395.6102301885715L254.3897698114285,404.09022261040536L245.90977738959467,404.3897698114285z" fill="hsl(11,80%, 90%  )" /></svg>