<svg viewBox="0 0 500 800" width="500" height="800" version="1.1" xmlns="http://www.w3.org/2000/svg">
<rect width="500" height="800" fill="hsl(10,100%, 10%)" /><path d="M460,400L250,610L40,400L249.99999999999997,190z" fill="hsl(11,80%, 10%  )" /><path d="M441.9576427039459,404.032791532457L245.96720846754303,591.9576427039459L58.04235729605412,395.96720846754306L254.03279153245686,208.04235729605412z" fill="hsl(11,80%, 16.666666666666668%  )" /><path d="M423.8031520324788,408.2743183148255L241.7256816851745,573.8031520324788L76.1968479675212,391.7256816851745L258.2743183148255,226.1968479675212z" fill="hsl(11,80%, 23.333333333333336%  )" /><path d="M401.45259331057156,437.3913356207372L212.60866437926285,551.4525933105716L98.54740668942841,362.60866437926285L287.39133562073715,248.5474066894284z" fill="hsl(11,80%, 30%  )" /><path d="M380.15930491387337,445.85362956557907L204.14637043442096,530.1593049138734L119.84069508612666,354.146370434421L295.853629565579,269.84069508612663z" fill="hsl(11,80%, 36.66666666666667%  )" /><path d="M369.5751941389534,410.08825785909573L239.91174214090427,519.5751941389534L130.4248058610466,389.91174214090427L260.08825785909573,280.4248058610466z" fill="hsl(11,80%, 43.333333333333336%  )" /><path d="M349.64509064281265,421.7911888336928L228.20881116630724,499.64509064281265L150.35490935718735,378.20881116630727L271.79118883369273,300.35490935718735z" fill="hsl(11,80%, 50%  )" /><path d="M329.4604297705815,427.24041300484413L222.75958699515587,479.4604297705815L170.53957022941847,372.75958699515587L277.2404130048441,320.5395702294185z" fill="hsl(11,80%, 56.66666666666667%  )" /><path d="M313.3070551811705,418.66056709449725L231.33943290550278,463.3070551811705L186.6929448188295,381.33943290550275L268.66056709449725,336.6929448188295z" fill="hsl(11,80%, 63.333333333333336%  )" /><path d="M286.2329520365962,431.4829030858611L218.51709691413893,436.2329520365962L213.76704796340383,368.5170969141389L281.4829030858611,363.7670479634038z" fill="hsl(11,80%, 70%  )" /><path d="M277.57785662321174,411.80939558443094L238.19060441556906,427.57785662321174L222.42214337678828,388.19060441556906L261.80939558443094,372.42214337678826z" fill="hsl(11,80%, 76.66666666666667%  )" /><path d="M258.09744571677624,408.8561488731763L241.1438511268237,408.09744571677624L241.90255428322374,391.14385112682373L258.85614887317627,391.90255428322376z" fill="hsl(11,80%, 83.33333333333334%  )" /><path d="M244.5269667091694,397.5411574679415L252.45884253205847,394.52696670916936L255.4730332908306,402.4588425320585L247.54115746794153,405.47303329083064z" fill="hsl(11,80%, 90%  )" /></svg>