<svg viewBox="0 0 500 800" width="500" height="800" version="1.1" xmlns="http://www.w3.org/2000/svg">
<rect width="500" height="800" fill="hsl(10,100%, 10%)" /><path d="M460,400L250,610L40,400L249.99999999999997,190z" fill="hsl(11,80%, 10%  )" /><path d="M441.3204753839045,416.1392595516891L233.86074044831093,591.3204753839045L58.67952461609548,383.8607404483109L266.139259551689,208.67952461609548z" fill="hsl(11,80%, 16.666666666666668%  )" /><path d="M422.1126028985053,425.5587934672474L224.44120653275257,572.1126028985053L77.88739710149466,374.4412065327526L275.5587934672474,227.88739710149466z" fill="hsl(11,80%, 23.333333333333336%  )" /><path d="M405.93589764199396,404.47166932873733L245.52833067126267,555.935897641994L94.06410235800601,395.52833067126267L254.47166932873733,244.064102358006z" fill="hsl(11,80%, 30%  )" /><path d="M387.96235235105155,403.22324894544363L246.77675105455637,537.9623523510515L112.03764764894845,396.77675105455637L253.22324894544366,262.03764764894845z" fill="hsl(11,80%, 36.66666666666667%  )" /><path d="M366.390058150758,429.2122296934549L220.78777030654513,516.390058150758L133.60994184924198,370.7877703065451L279.21222969345484,283.609941849242z" fill="hsl(11,80%, 43.333333333333336%  )" /><path d="M351.1183832037549,413.3818002622437L236.61819973775633,501.1183832037549L148.8816167962451,386.61819973775636L263.38180026224364,298.8816167962451z" fill="hsl(11,80%, 50%  )" /><path d="M323.45842587229885,440.7413753862578L209.25862461374217,473.45842587229885L176.54157412770115,359.2586246137422L290.7413753862578,326.54157412770115z" fill="hsl(11,80%, 56.66666666666667%  )" /><path d="M308.4961432308103,430.56470557882943L219.43529442117054,458.4961432308103L191.50385676918972,369.43529442117057L280.56470557882943,341.5038567691897z" fill="hsl(11,80%, 63.333333333333336%  )" /><path d="M297.9459383377261,402.2774979505953L247.72250204940468,447.9459383377261L202.0540616622739,397.7225020494047L252.27749795059532,352.0540616622739z" fill="hsl(11,80%, 70%  )" /><path d="M279.2660543701839,406.59530602788385L243.40469397211618,429.2660543701839L220.7339456298161,393.40469397211615L256.59530602788385,370.7339456298161z" fill="hsl(11,80%, 76.66666666666667%  )" /><path d="M261.44446472716953,403.6089094070886L246.39109059291138,411.44446472716953L238.5555352728305,396.3910905929114L253.60890940708862,388.55553527283047z" fill="hsl(11,80%, 83.33333333333334%  )" /><path d="M246.4229786013272,395.1828516824332L254.81714831756682,396.4229786013272L253.5770213986728,404.8171483175668L245.18285168243318,403.5770213986728z" fill="hsl(11,80%, 90%  )" /></svg>