<svg viewBox="0 0 500 800" width="500" height="800" version="1.1" xmlns="http://www.w3.org/2000/svg">
<rect width="500" height="800" fill="hsl(10,100%, 10%)" /><path d="M460,400L250,610L40,400L249.99999999999997,190z" fill="hsl(11,80%, 10%  )" /><path d="M441.55345612916335,413.087148084006L236.91285191599403,591.5534561291634L58.44654387083668,386.912851915994L263.08714808400595,208.44654387083668z" fill="hsl(11,80%, 16.666666666666668%  )" /><path d="M423.70905397010563,410.0580598929876L239.94194010701239,573.7090539701056L76.29094602989437,389.9419401070124L260.05805989298767,226.29094602989437z" fill="hsl(11,80%, 23.333333333333336%  )" /><path d="M403.84700085699274,425.8282854117049L224.17171458829515,553.8470008569927L96.15299914300729,374.1717145882952L275.82828541170477,246.1529991430073z" fill="hsl(11,80%, 30%  )" /><path d="M387.1545997822533,415.25174608265957L234.74825391734043,537.1545997822533L112.84540021774669,384.74825391734043L265.25174608265957,262.8454002177467z" fill="hsl(11,80%, 36.66666666666667%  )" /><path d="M369.9122504046325,404.58826796260973L245.41173203739027,519.9122504046325L130.08774959536748,395.4117320373903L254.58826796260973,280.0877495953675z" fill="hsl(11,80%, 43.333333333333336%  )" /><path d="M344.31115922296135,438.85106492776265L211.14893507223735,494.31115922296135L155.68884077703862,361.14893507223735L288.85106492776265,305.68884077703865z" fill="hsl(11,80%, 50%  )" /><path d="M326.19297313768953,435.36425942161554L214.63574057838446,476.19297313768953L173.80702686231047,364.63574057838446L285.3642594216155,323.80702686231047z" fill="hsl(11,80%, 56.66666666666667%  )" /><path d="M305.43545618390374,435.8177357978207L214.18226420217928,455.43545618390374L194.56454381609626,364.1822642021793L285.8177357978207,344.56454381609626z" fill="hsl(11,80%, 63.333333333333336%  )" /><path d="M295.4706220602728,415.37603750814344L234.62396249185656,445.4706220602728L204.52937793972723,384.62396249185656L265.37603750814344,354.5293779397272z" fill="hsl(11,80%, 70%  )" /><path d="M272.91259107751324,419.3652567789498L230.6347432210502,422.91259107751324L227.0874089224868,380.6347432210502L269.3652567789498,377.08740892248676z" fill="hsl(11,80%, 76.66666666666667%  )" /><path d="M261.527152056999,403.3353808560378L246.66461914396223,411.527152056999L238.47284794300097,396.6646191439622L253.33538085603777,388.472847943001z" fill="hsl(11,80%, 83.33333333333334%  )" /><path d="M244.57611328833238,397.43456574066L252.56543425934,394.5761132883324L255.42388671166762,402.56543425934L247.43456574066,405.4238867116676z" fill="hsl(11,80%, 90%  )" /></svg>