<svg viewBox="0 0 500 800" width="500" height="800" version="1.1" xmlns="http://www.w3.org/2000/svg">
<rect width="500" height="800" fill="hsl(10,100%, 10%)" /><path d="M460,400L250,610L40,400L249.99999999999997,190z" fill="hsl(11,80%, 10%  )" /><path d="M441.42001001815606,414.9124030474314L235.08759695256862,591.4200100181561L58.57998998184394,385.0875969525686L264.91240304743127,208.57998998184394z" fill="hsl(11,80%, 16.666666666666668%  )" /><path d="M421.6031719748765,428.78109393614096L221.21890606385907,571.6031719748764L78.39682802512351,371.21890606385904L278.78109393614096,228.3968280251235z" fill="hsl(11,80%, 23.333333333333336%  )" /><path d="M405.78989910813993,408.0936602273366L241.90633977266342,555.7898991081399L94.21010089186004,391.90633977266344L258.09366022733656,244.21010089186004z" fill="hsl(11,80%, 30%  )" /><path d="M387.8239301160803,406.96880817341105L243.03119182658895,537.8239301160803L112.17606988391964,393.031191826589L256.96880817341105,262.1760698839197z" fill="hsl(11,80%, 36.66666666666667%  )" /><path d="M368.47166318694923,419.0909670189348L230.9090329810652,518.4716631869493L131.52833681305077,380.9090329810652L269.0909670189348,281.52833681305077z" fill="hsl(11,80%, 43.333333333333336%  )" /><path d="M351.8703764733739,405.14066116108415L244.85933883891587,501.8703764733739L148.12962352662615,394.85933883891585L255.14066116108415,298.1296235266261z" fill="hsl(11,80%, 50%  )" /><path d="M327.0639002091085,433.42387297367804L216.57612702632198,477.0639002091085L172.9360997908915,366.57612702632196L283.42387297367804,322.9360997908915z" fill="hsl(11,80%, 56.66666666666667%  )" /><path d="M310.8252750500466,425.6180778960127L224.3819221039873,460.8252750500466L189.17472494995337,374.38192210398734L275.61807789601266,339.1747249499534z" fill="hsl(11,80%, 63.333333333333336%  )" /><path d="M297.8994019110332,403.10600974971265L246.89399025028735,447.8994019110332L202.10059808896682,396.89399025028735L253.10600974971265,352.1005980889668z" fill="hsl(11,80%, 70%  )" /><path d="M273.37336431856863,418.8065371727882L231.19346282721185,423.37336431856863L226.62663568143137,381.1934628272119L268.8065371727881,376.62663568143137z" fill="hsl(11,80%, 76.66666666666667%  )" /><path d="M260.66866822791167,405.4935888308781L244.50641116912192,410.66866822791167L239.33133177208833,394.5064111691219L255.49358883087808,389.33133177208833z" fill="hsl(11,80%, 83.33333333333334%  )" /><path d="M246.01553567249212,395.5140169390849L254.4859830609151,396.0155356724921L253.98446432750788,404.4859830609151L245.5140169390849,403.9844643275079z" fill="hsl(11,80%, 90%  )" /></svg>