<svg viewBox="0 0 500 800" width="500" height="800" version="1.1" xmlns="http://www.w3.org/2000/svg">
<rect width="500" height="800" fill="hsl(10,100%, 10%)" /><path d="M460,400L250,610L40,400L249.99999999999997,190z" fill="hsl(11,80%, 10%  )" /><path d="M441.3197139323697,416.1482835260041L233.85171647399594,591.3197139323697L58.68028606763028,383.851716473996L266.1482835260041,208.68028606763028z" fill="hsl(11,80%, 16.666666666666668%  )" /><path d="M423.8251021425035,407.7996067303566L242.20039326964346,573.8251021425035L76.17489785749649,392.2003932696435L257.7996067303565,226.1748978574965z" fill="hsl(11,80%, 23.333333333333336%  )" /><path d="M401.46513325822184,437.34050625084103L212.659493749159,551.4651332582218L98.53486674177816,362.65949374915897L287.3405062508409,248.53486674177813z" fill="hsl(11,80%, 30%  )" /><path d="M387.9553927941943,403.50850381210546L246.49149618789457,537.9553927941943L112.04460720580568,396.4914961878946L253.50850381210543,262.0446072058057z" fill="hsl(11,80%, 36.66666666666667%  )" /><path d="M367.5047435912742,424.3441005902645L225.6558994097355,517.5047435912742L132.49525640872585,375.65589940973547L274.3441005902645,282.4952564087258z" fill="hsl(11,80%, 43.333333333333336%  )" /><path d="M341.91289125228525,444.22691964907335L205.77308035092665,491.91289125228525L158.08710874771475,355.77308035092665L294.22691964907335,308.08710874771475z" fill="hsl(11,80%, 50%  )" /><path d="M327.8832033299343,431.4675489841218L218.53245101587822,477.8832033299343L172.11679667006567,368.5324510158782L281.46754898412183,322.1167966700657z" fill="hsl(11,80%, 56.66666666666667%  )" /><path d="M313.935534414647,416.3782611749078L233.62173882509225,463.935534414647L186.06446558535302,383.6217388250922L266.3782611749077,336.064465585353z" fill="hsl(11,80%, 63.333333333333336%  )" /><path d="M297.69561707940295,405.3970465455624L244.60295345443762,447.69561707940295L202.30438292059705,394.6029534544376L255.39704654556238,352.30438292059705z" fill="hsl(11,80%, 70%  )" /><path d="M277.60484924175427,411.74616100434605L238.25383899565392,427.60484924175427L222.39515075824576,388.25383899565395L261.74616100434605,372.39515075824573z" fill="hsl(11,80%, 76.66666666666667%  )" /><path d="M261.95142658562725,401.0786114074878L248.9213885925122,411.95142658562725L238.04857341437278,398.9213885925122L251.07861140748778,388.04857341437275z" fill="hsl(11,80%, 83.33333333333334%  )" /><path d="M245.0706286392937,396.57928399479755L253.42071600520245,395.07062863929366L254.9293713607063,403.42071600520245L246.57928399479755,404.92937136070634z" fill="hsl(11,80%, 90%  )" /></svg>