<svg viewBox="0 0 500 800" width="500" height="800" version="1.1" xmlns="http://www.w3.org/2000/svg">
<rect width="500" height="800" fill="hsl(10,100%, 10%)" /><path d="M460,400L250,610L40,400L249.99999999999997,190z" fill="hsl(11,80%, 10%  )" /><path d="M441.3446375618641,415.85022638068216L234.14977361931784,591.3446375618641L58.65536243813591,384.1497736193179L265.8502263806821,208.6553624381359z" fill="hsl(11,80%, 16.666666666666668%  )" /><path d="M422.97681489967215,418.8420144136599L231.15798558634012,572.9768148996721L77.02318510032788,381.1579855863401L268.8420144136599,227.02318510032788z" fill="hsl(11,80%, 23.333333333333336%  )" /><path d="M400.8941788795013,439.58467860525184L210.4153213947482,550.8941788795013L99.10582112049875,360.4153213947482L289.5846786052518,249.10582112049875z" fill="hsl(11,80%, 30%  )" /><path d="M381.2367404799005,442.67221517816057L207.3277848218394,531.2367404799005L118.76325952009947,357.32778482183943L292.6722151781605,268.76325952009944z" fill="hsl(11,80%, 36.66666666666667%  )" /><path d="M361.6730733377874,443.92180200416595L206.07819799583405,511.6730733377874L138.3269266622126,356.07819799583405L293.92180200416595,288.3269266622126z" fill="hsl(11,80%, 43.333333333333336%  )" /><path d="M345.9028352893687,434.73681308727424L215.26318691272576,495.9028352893687L154.09716471063132,365.2631869127258L284.73681308727424,304.0971647106313z" fill="hsl(11,80%, 50%  )" /><path d="M327.9009043470043,431.42370286772206L218.57629713227797,477.90090434700437L172.0990956529957,368.57629713227794L281.423702867722,322.09909565299563z" fill="hsl(11,80%, 56.66666666666667%  )" /><path d="M314.5098236597007,413.94570368946347L236.05429631053653,464.5098236597007L185.49017634029926,386.05429631053653L263.9457036894634,335.4901763402993z" fill="hsl(11,80%, 63.333333333333336%  )" /><path d="M287.37894919370865,430.11335512981157L219.88664487018846,437.37894919370865L212.62105080629135,369.88664487018843L280.11335512981157,362.62105080629135z" fill="hsl(11,80%, 70%  )" /><path d="M273.4990304729285,418.6492779171843L231.35072208281574,423.49903047292855L226.50096952707148,381.35072208281576L268.64927791718424,376.50096952707145z" fill="hsl(11,80%, 76.66666666666667%  )" /><path d="M261.42676865910533,403.6645542718438L246.3354457281562,411.42676865910533L238.5732313408947,396.3354457281562L253.6645542718438,388.57323134089467z" fill="hsl(11,80%, 83.33333333333334%  )" /><path d="M246.9706464975386,394.8209057396949L255.17909426030508,396.9706464975386L253.0293535024614,405.1790942603051L244.82090573969492,403.0293535024614z" fill="hsl(11,80%, 90%  )" /></svg>