<svg viewBox="0 0 500 800" width="500" height="800" version="1.1" xmlns="http://www.w3.org/2000/svg">
<rect width="500" height="800" fill="hsl(10,100%, 10%)" /><path d="M460,400L250,610L40,400L249.99999999999997,190z" fill="hsl(11,80%, 10%  )" /><path d="M441.5223007121988,413.5354471631379L236.46455283686205,591.5223007121988L58.477699287801215,386.46455283686214L263.535447163138,208.47769928780122z" fill="hsl(11,80%, 16.666666666666668%  )" /><path d="M422.4324096379645,423.3037358903072L226.69626410969283,572.4324096379646L77.56759036203545,376.69626410969283L273.30373589030717,227.56759036203545z" fill="hsl(11,80%, 23.333333333333336%  )" /><path d="M401.23776187446634,438.2510049959764L211.74899500402358,551.2377618744663L98.76223812553366,361.7489950040236L288.2510049959763,248.76223812553363z" fill="hsl(11,80%, 30%  )" /><path d="M387.9663040085911,403.0494193232517L246.95058067674833,537.9663040085911L112.0336959914089,396.95058067674836L253.04941932325164,262.0336959914089z" fill="hsl(11,80%, 36.66666666666667%  )" /><path d="M360.796780494173,446.08767115103615L203.91232884896385,510.796780494173L139.203219505827,353.91232884896385L296.08767115103615,289.203219505827z" fill="hsl(11,80%, 43.333333333333336%  )" /><path d="M347.91343545773844,428.582497386745L221.417502613255,497.9134354577385L152.08656454226153,371.417502613255L278.582497386745,302.0865645422615z" fill="hsl(11,80%, 50%  )" /><path d="M333.94787130777894,402.95886851559555L247.04113148440447,483.94787130777894L166.05212869222103,397.0411314844045L252.95886851559555,316.05212869222106z" fill="hsl(11,80%, 56.66666666666667%  )" /><path d="M313.90048791481644,416.5144677252522L233.48553227474778,463.90048791481644L186.09951208518356,383.4855322747478L266.5144677252522,336.09951208518356z" fill="hsl(11,80%, 63.333333333333336%  )" /><path d="M297.98504808592634,401.1979817157777L248.8020182842223,447.98504808592634L202.01495191407366,398.8020182842223L251.1979817157777,352.01495191407366z" fill="hsl(11,80%, 70%  )" /><path d="M273.8407821136014,418.2103571687044L231.78964283129562,423.84078211360145L226.15921788639858,381.7896428312956L268.2103571687044,376.1592178863986z" fill="hsl(11,80%, 76.66666666666667%  )" /><path d="M258.4164140628212,408.55359423418867L241.44640576581133,408.4164140628212L241.5835859371788,391.44640576581133L258.55359423418867,391.5835859371788z" fill="hsl(11,80%, 83.33333333333334%  )" /><path d="M245.9626074773372,395.5615924457136L254.43840755428639,395.9626074773372L254.0373925226628,404.4384075542864L245.56159244571361,404.0373925226628z" fill="hsl(11,80%, 90%  )" /></svg>