<svg viewBox="0 0 500 800" width="500" height="800" version="1.1" xmlns="http://www.w3.org/2000/svg">
<rect width="500" height="800" fill="hsl(10,100%, 10%)" /><path d="M460,400L250,610L40,400L249.99999999999997,190z" fill="hsl(11,80%, 10%  )" /><path d="M441.94931843438064,404.41125294862474L245.5887470513753,591.9493184343806L58.050681565619385,395.58874705137526L254.41125294862474,208.05068156561939z" fill="hsl(11,80%, 16.666666666666668%  )" /><path d="M423.998479995623,400.72729582206256L249.27270417793744,573.998479995623L76.00152000437703,399.27270417793744L250.72729582206253,226.00152000437703z" fill="hsl(11,80%, 23.333333333333336%  )" /><path d="M405.9879655778115,401.9376777068167L248.0623222931833,555.9879655778116L94.01203442218849,398.0623222931833L251.9376777068167,244.0120344221885z" fill="hsl(11,80%, 30%  )" /><path d="M381.3929328119879,442.1888279887511L207.81117201124889,531.392932811988L118.60706718801208,357.8111720112489L292.18882798875103,268.607067188012z" fill="hsl(11,80%, 36.66666666666667%  )" /><path d="M360.07483634552875,447.7862993284169L202.2137006715831,510.07483634552875L139.92516365447122,352.2137006715831L297.7862993284169,289.92516365447125z" fill="hsl(11,80%, 43.333333333333336%  )" /><path d="M351.394664231521,411.09603827395665L238.90396172604335,501.394664231521L148.60533576847897,388.90396172604335L261.09603827395665,298.605335768479z" fill="hsl(11,80%, 50%  )" /><path d="M325.05249793826243,437.724296590223L212.275703409777,475.0524979382625L174.94750206173754,362.275703409777L287.724296590223,324.9475020617375z" fill="hsl(11,80%, 56.66666666666667%  )" /><path d="M314.1055271867925,415.69972560599103L234.30027439400897,464.1055271867925L185.89447281320753,384.30027439400897L265.69972560599103,335.8944728132075z" fill="hsl(11,80%, 63.333333333333336%  )" /><path d="M297.3901220265247,407.6273412347357L242.37265876526428,447.3901220265247L202.6098779734753,392.3726587652643L257.6273412347357,352.6098779734753z" fill="hsl(11,80%, 70%  )" /><path d="M272.66362243486975,419.65604787666297L230.343952123337,422.66362243486975L227.33637756513022,380.34395212333703L269.65604787666297,377.3363775651302z" fill="hsl(11,80%, 76.66666666666667%  )" /><path d="M259.91648181557184,406.75746908253626L243.24253091746377,409.91648181557184L240.08351818442816,393.24253091746374L256.75746908253626,390.08351818442816z" fill="hsl(11,80%, 83.33333333333334%  )" /><path d="M244.48284918040312,397.64181280772254L252.35818719227748,394.48284918040315L255.51715081959688,402.35818719227746L247.64181280772252,405.51715081959685z" fill="hsl(11,80%, 90%  )" /></svg>