<svg viewBox="0 0 500 800" width="500" height="800" version="1.1" xmlns="http://www.w3.org/2000/svg">
<rect width="500" height="800" fill="hsl(350,100%, 10%)" /><path d="M500,200L250.00000000000003,450L0,200.00000000000003L249.99999999999994,-50Z" fill="hsl(350,80%, 10%  )" /><path d="M500,600L250.00000000000003,850L0,600L249.99999999999994,350Z" fill="hsl(350,80%, 10%  )" /><path d="M481.8341846893988,208.76988080886662L241.23011919113338,431.8341846893988L18.165815310601204,191.23011919113338L258.7698808088665,-31.834184689398796Z" fill="hsl(350,80%, 16.666666666666668%  )" /><path d="M481.40811867262005,616.5614797768377L233.4385202231623,831.40811867262L18.59188132737995,583.4385202231624L266.5614797768377,368.59188132737995Z" fill="hsl(350,80%, 16.666666666666668%  )" /><path d="M461.3145306418295,233.7959929521725L216.20400704782753,411.3145306418295L38.68546935817048,166.20400704782756L283.7959929521725,-11.31453064182952Z" fill="hsl(350,80%, 23.333333333333336%  )" /><path d="M461.83052347191216,630.394560789978L219.605439210022,811.8305234719121L38.16947652808784,569.605439210022L280.394560789978,388.16947652808784Z" fill="hsl(350,80%, 23.333333333333336%  )" /><path d="M445.91572625747597,205.74701705284912L244.2529829471509,395.91572625747597L54.084273742524005,194.25298294715088L255.7470170528491,4.0842737425240045Z" fill="hsl(350,80%, 30%  )" /><path d="M444.65744668100547,622.9014945283382L227.0985054716619,794.6574466810055L55.342553318994504,577.098505471662L272.90149452833816,405.34255331899453Z" fill="hsl(350,80%, 30%  )" /><path d="M427.8924290190877,206.1873821353495L243.8126178646505,377.8924290190877L72.1075709809123,193.81261786465052L256.1873821353495,22.1075709809123Z" fill="hsl(350,80%, 36.66666666666667%  )" /><path d="M427.9990736406308,600.5742674266332L249.42573257336673,777.9990736406307L72.0009263593692,599.4257325733668L250.57426742663327,422.0009263593692Z" fill="hsl(350,80%, 36.66666666666667%  )" /><path d="M408.47362900398247,222.04787768262807L227.95212231737193,358.47362900398247L91.52637099601753,177.95212231737196L272.0478776826281,41.52637099601753Z" fill="hsl(350,80%, 43.333333333333336%  )" /><path d="M409.52811172417364,612.2793147088746L237.7206852911254,759.5281117241736L90.47188827582639,587.7206852911254L262.27931470887455,440.47188827582636Z" fill="hsl(350,80%, 43.333333333333336%  )" /><path d="M390.6103883655467,219.81713106607825L230.18286893392175,340.6103883655467L109.38961163445327,180.18286893392178L269.8171310660782,59.389611634453274Z" fill="hsl(350,80%, 50%  )" /><path d="M389.8573245397397,624.5749623109766L225.4250376890234,739.8573245397397L110.14267546026028,575.4250376890234L274.57496231097656,460.1426754602603Z" fill="hsl(350,80%, 50%  )" /><path d="M351.8382626150352,270.7458003527497L179.2541996472503,301.8382626150352L148.1617373849648,129.2541996472503L320.7458003527497,98.16173738496477Z" fill="hsl(350,80%, 56.66666666666667%  )" /><path d="M367.9496173123954,638.2607863988637L211.7392136011363,717.9496173123954L132.05038268760458,561.7392136011363L288.26078639886373,482.0503826876046Z" fill="hsl(350,80%, 56.66666666666667%  )" /><path d="M354.5825815465907,217.27667899368123L232.72332100631877,304.5825815465907L145.4174184534093,182.72332100631877L267.27667899368123,95.4174184534093Z" fill="hsl(350,80%, 63.333333333333336%  )" /><path d="M349.4679920789063,636.6349362192789L213.3650637807212,699.4679920789063L150.53200792109368,563.3650637807211L286.6349362192788,500.5320079210937Z" fill="hsl(350,80%, 63.333333333333336%  )" /><path d="M337.8884211186922,204.4300601873361L245.5699398126639,287.8884211186922L162.11157888130782,195.56993981266393L254.43006018733607,112.1115788813078Z" fill="hsl(350,80%, 70%  )" /><path d="M332.300285987042,631.155463829818L218.844536170182,682.300285987042L167.699714012958,568.844536170182L281.15546382981796,517.699714012958Z" fill="hsl(350,80%, 70%  )" /><path d="M305.84828000837024,242.2015357553096L207.7984642446904,255.84828000837024L194.15171999162976,157.7984642446904L292.2015357553096,144.15171999162976Z" fill="hsl(350,80%, 76.66666666666667%  )" /><path d="M319.93540234809575,603.0065758613358L246.99342413866418,669.9354023480957L180.06459765190428,596.9934241386642L253.00657586133582,530.0645976519043Z" fill="hsl(350,80%, 76.66666666666667%  )" /><path d="M285.1199993969176,238.34821563463555L211.65178436536445,235.1199993969176L214.8800006030824,161.65178436536445L288.34821563463555,164.88000060308238Z" fill="hsl(350,80%, 83.33333333333334%  )" /><path d="M289.79565579030617,633.4709692154181L216.52903078458183,639.7956557903062L210.20434420969383,566.5290307845819L283.47096921541817,560.2043442096939Z" fill="hsl(350,80%, 83.33333333333334%  )" /><path d="M277.6771125066321,219.74784654830057L230.25215345169943,227.67711250663214L222.32288749336786,180.25215345169943L269.7478465483006,172.32288749336786Z" fill="hsl(350,80%, 90%  )" /><path d="M283.90478748928047,602.542712195025L247.457287804975,633.9047874892805L216.0952125107195,597.4572878049751L252.542712195025,566.0952125107195Z" fill="hsl(350,80%, 90%  )" /></svg>