<svg viewBox="0 0 500 800" width="500" height="800" version="1.1" xmlns="http://www.w3.org/2000/svg">
<rect width="500" height="800" fill="hsl(350,100%, 10%)" /><path d="M500,200L250.00000000000003,450L0,200.00000000000003L249.99999999999994,-50Z" fill="hsl(350,80%, 10%  )" /><path d="M500,600L250.00000000000003,850L0,600L249.99999999999994,350Z" fill="hsl(350,80%, 10%  )" /><path d="M481.8023667888086,209.5740665919264L240.42593340807363,431.8023667888086L18.197633211191402,190.42593340807363L259.57406659192645,-31.802366788808598Z" fill="hsl(350,80%, 16.666666666666668%  )" /><path d="M481.6148482824742,613.3627113673253L236.63728863267463,831.6148482824742L18.385151717525787,586.6372886326745L263.3627113673254,368.3851517175258Z" fill="hsl(350,80%, 16.666666666666668%  )" /><path d="M460.96345406356227,235.92243100865034L214.07756899134966,410.96345406356227L39.036545936437705,164.0775689913497L285.92243100865016,-10.963454063562295Z" fill="hsl(350,80%, 23.333333333333336%  )" /><path d="M462.0111977147134,629.1075942594493L220.89240574055066,812.0111977147134L37.98880228528665,570.8924057405507L279.10759425944934,387.9888022852866Z" fill="hsl(350,80%, 23.333333333333336%  )" /><path d="M445.96465612579414,203.72203566603898L246.277964333961,395.96465612579414L54.03534387420589,196.27796433396102L253.7220356660389,4.035343874205893Z" fill="hsl(350,80%, 30%  )" /><path d="M445.73068553106793,610.2712580309418L239.72874196905826,795.7306855310679L54.26931446893204,589.7287419690583L260.2712580309418,404.26931446893207Z" fill="hsl(350,80%, 30%  )" /><path d="M426.21729823104835,225.12894355419186L224.87105644580816,376.21729823104835L73.78270176895165,174.87105644580816L275.1289435541918,23.782701768951625Z" fill="hsl(350,80%, 36.66666666666667%  )" /><path d="M424.81902284291107,633.5008843502636L216.49911564973635,774.8190228429111L75.18097715708893,566.4991156497364L283.5008843502637,425.18097715708893Z" fill="hsl(350,80%, 36.66666666666667%  )" /><path d="M398.4814608463705,259.609192117724L190.390807882276,348.4814608463705L101.51853915362946,140.390807882276L309.6091921177239,51.51853915362943Z" fill="hsl(350,80%, 43.333333333333336%  )" /><path d="M400.1720229340765,655.2119871756777L194.78801282432238,750.1720229340765L99.82797706592345,544.7880128243224L305.21198717567756,449.82797706592345Z" fill="hsl(350,80%, 43.333333333333336%  )" /><path d="M375.91181452329045,265.6522274066349L184.3477725933651,325.91181452329045L124.08818547670953,134.34777259336514L315.6522274066349,74.08818547670953Z" fill="hsl(350,80%, 50%  )" /><path d="M391.9864955693208,601.9583349926013L248.04166500739868,741.9864955693208L108.0135044306792,598.0416650073987L251.95833499260127,458.0135044306792Z" fill="hsl(350,80%, 50%  )" /><path d="M373.0981371053816,214.92811579485743L235.0718842051426,323.0981371053816L126.90186289461839,185.0718842051426L264.9281157948574,76.90186289461839Z" fill="hsl(350,80%, 56.66666666666667%  )" /><path d="M372.88764406775374,616.5718718157327L233.42812818426728,722.8876440677537L127.11235593224629,583.4281281842673L266.5718718157327,477.11235593224626Z" fill="hsl(350,80%, 56.66666666666667%  )" /><path d="M337.0900502260091,260.42617935656045L189.57382064343957,287.0900502260091L162.9099497739909,139.57382064343957L310.4261793565604,112.90994977399089Z" fill="hsl(350,80%, 63.333333333333336%  )" /><path d="M342.33195511332843,652.0654402166188L197.93455978338125,692.3319551133284L157.66804488667157,547.9345597833812L302.06544021661875,507.66804488667157Z" fill="hsl(350,80%, 63.333333333333336%  )" /><path d="M337.81631526280097,205.68284907985006L244.31715092014994,287.81631526280097L162.18368473719903,194.31715092014994L255.68284907985003,112.18368473719904Z" fill="hsl(350,80%, 70%  )" /><path d="M337.7809493362711,606.2052343729317L243.79476562706827,687.7809493362711L162.21905066372892,593.7947656270683L256.2052343729317,512.2190506637289Z" fill="hsl(350,80%, 70%  )" /><path d="M317.3006230144433,219.25165296455816L230.74834703544184,267.3006230144433L182.69937698555668,180.74834703544184L269.25165296455816,132.69937698555668Z" fill="hsl(350,80%, 76.66666666666667%  )" /><path d="M304.90695479676276,643.4191929329214L206.5808070670786,654.9069547967628L195.09304520323724,556.5808070670786L293.41919293292136,545.0930452032372Z" fill="hsl(350,80%, 76.66666666666667%  )" /><path d="M301.86462465468077,203.74976124961077L246.25023875038923,251.86462465468074L198.13537534531926,196.25023875038923L253.74976124961077,148.13537534531926Z" fill="hsl(350,80%, 83.33333333333334%  )" /><path d="M297.5970136887874,620.9409715130265L229.0590284869735,647.5970136887873L202.40298631121263,579.0590284869735L270.9409715130265,552.4029863112127Z" fill="hsl(350,80%, 83.33333333333334%  )" /><path d="M278.72503101864316,218.18990360001908L231.81009639998092,228.7250310186432L221.2749689813568,181.81009639998092L268.1899036000191,171.2749689813568Z" fill="hsl(350,80%, 90%  )" /><path d="M282.5087500169403,609.9589744620661L240.041025537934,632.5087500169403L217.49124998305967,590.0410255379339L259.958974462066,567.4912499830597Z" fill="hsl(350,80%, 90%  )" /></svg>