<svg viewBox="0 0 500 800" width="500" height="800" version="1.1" xmlns="http://www.w3.org/2000/svg">
<rect width="500" height="800" fill="hsl(350,100%, 10%)" /><path d="M500,200L250.00000000000003,450L0,200.00000000000003L249.99999999999994,-50Z" fill="hsl(350,80%, 10%  )" /><path d="M500,600L250.00000000000003,850L0,600L249.99999999999994,350Z" fill="hsl(350,80%, 10%  )" /><path d="M481.7676502474053,210.3805731439266L239.61942685607343,431.7676502474053L18.2323497525947,189.6194268560734L260.3805731439265,-31.7676502474053Z" fill="hsl(350,80%, 16.666666666666668%  )" /><path d="M481.19287640438876,619.3353019077808L230.66469809221917,831.1928764043887L18.807123595611245,580.6646980922192L269.3353019077808,368.80712359561124Z" fill="hsl(350,80%, 16.666666666666668%  )" /><path d="M463.60251532091047,213.03707975661004L236.96292024339,413.60251532091047L36.39748467908953,186.96292024339004L263.03707975660996,-13.60251532091047Z" fill="hsl(350,80%, 23.333333333333336%  )" /><path d="M463.60325850178583,613.0248975972656L236.97510240273434,813.6032585017858L36.39674149821417,586.9751024027344L263.0248975972656,386.39674149821417Z" fill="hsl(350,80%, 23.333333333333336%  )" /><path d="M445.7652668775588,209.58959250219672L240.41040749780325,395.7652668775588L54.23473312244121,190.4104074978033L259.58959250219675,4.234733122441213Z" fill="hsl(350,80%, 30%  )" /><path d="M443.1294002399593,633.422069998036L216.57793000196395,793.1294002399593L56.87059976004073,566.577930001964L283.4220699980361,406.8705997600407Z" fill="hsl(350,80%, 30%  )" /><path d="M422.8852393238037,242.36382919367793L207.63617080632207,372.8852393238037L77.11476067619628,157.63617080632213L292.3638291936779,27.114760676196283Z" fill="hsl(350,80%, 36.66666666666667%  )" /><path d="M427.62915180118506,611.4840946700881L238.51590532991193,777.6291518011851L72.37084819881494,588.5159053299119L261.48409467008804,422.3708481988149Z" fill="hsl(350,80%, 36.66666666666667%  )" /><path d="M403.23602170312233,246.02957367389166L203.97042632610834,353.23602170312233L96.76397829687767,153.97042632610834L296.0295736738916,46.76397829687764Z" fill="hsl(350,80%, 43.333333333333336%  )" /><path d="M403.5963252748311,644.8125971359424L205.18740286405762,753.5963252748311L96.40367472516886,555.1874028640576L294.8125971359424,446.4036747251689Z" fill="hsl(350,80%, 43.333333333333336%  )" /><path d="M387.6869623149802,234.731835662303L215.268164337697,337.6869623149802L112.3130376850198,165.26816433769704L284.73183566230296,62.31303768501979Z" fill="hsl(350,80%, 50%  )" /><path d="M375.04788702653616,667.2831773194358L182.71682268056418,725.0478870265362L124.95211297346381,532.7168226805642L317.28317731943577,474.9521129734638Z" fill="hsl(350,80%, 50%  )" /><path d="M373.7409070149549,208.01173708482003L241.98826291518,323.7409070149549L126.25909298504509,191.98826291518L258.01173708481997,76.25909298504509Z" fill="hsl(350,80%, 56.66666666666667%  )" /><path d="M366.03766834653527,643.7179542602291L206.28204573977084,716.0376683465353L133.96233165346473,556.2820457397709L293.7179542602292,483.96233165346473Z" fill="hsl(350,80%, 56.66666666666667%  )" /><path d="M355.80049636831274,206.50038215943079L243.49961784056921,305.80049636831274L144.19950363168726,193.49961784056921L256.5003821594308,94.19950363168728Z" fill="hsl(350,80%, 63.333333333333336%  )" /><path d="M352.6843678373967,626.3043836999504L223.69561630004958,702.6843678373966L147.31563216260332,573.6956163000496L276.3043836999504,497.3156321626033Z" fill="hsl(350,80%, 63.333333333333336%  )" /><path d="M337.29083268742534,211.14946315909071L238.8505368409093,287.29083268742534L162.70916731257466,188.8505368409093L261.1494631590907,112.70916731257469Z" fill="hsl(350,80%, 70%  )" /><path d="M313.57260588390375,660.8483671196676L189.15163288033244,663.5726058839037L186.4273941160962,539.1516328803324L310.84836711966756,536.4273941160963Z" fill="hsl(350,80%, 70%  )" /><path d="M314.00071002695717,228.35329109724907L221.64670890275093,264.00071002695717L185.99928997304283,171.64670890275093L278.3532910972491,135.99928997304283Z" fill="hsl(350,80%, 76.66666666666667%  )" /><path d="M312.37637468552805,631.7677175933466L218.23228240665347,662.376374685528L187.62362531447195,568.2322824066534L281.7677175933465,537.623625314472Z" fill="hsl(350,80%, 76.66666666666667%  )" /><path d="M291.96564692021644,230.7064240602472L219.2935759397528,241.96564692021644L208.03435307978356,169.2935759397528L280.7064240602472,158.03435307978356Z" fill="hsl(350,80%, 83.33333333333334%  )" /><path d="M301.95072465826047,602.2632294363598L247.73677056364022,651.9507246582605L198.0492753417395,597.7367705636402L252.26322943635978,548.0492753417395Z" fill="hsl(350,80%, 83.33333333333334%  )" /><path d="M272.91302521418714,225.11957952542247L224.88042047457753,222.91302521418714L227.08697478581286,174.88042047457753L275.11957952542247,177.08697478581286Z" fill="hsl(350,80%, 90%  )" /><path d="M283.9992150872429,600.2310269495056L249.7689730504944,633.9992150872429L216.00078491275715,599.7689730504944L250.2310269495056,566.0007849127571Z" fill="hsl(350,80%, 90%  )" /></svg>