<svg viewBox="0 0 500 800" width="500" height="800" version="1.1" xmlns="http://www.w3.org/2000/svg">
<rect width="500" height="800" fill="hsl(350,100%, 10%)" /><path d="M500,200L250.00000000000003,450L0,200.00000000000003L249.99999999999994,-50Z" fill="hsl(350,80%, 10%  )" /><path d="M500,600L250.00000000000003,850L0,600L249.99999999999994,350Z" fill="hsl(350,80%, 10%  )" /><path d="M481.9695799836281,203.75685536308958L246.24314463691044,431.9695799836281L18.03042001637192,196.2431446369105L253.7568553630895,-31.96957998362808Z" fill="hsl(350,80%, 16.666666666666668%  )" /><path d="M481.9999508889126,600.150955430942L249.84904456905807,831.9999508889126L18.000049111087378,599.8490445690582L250.15095543094185,368.0000491110874Z" fill="hsl(350,80%, 16.666666666666668%  )" /><path d="M463.6694332665145,211.89004993961365L238.10995006038638,413.6694332665145L36.33056673348548,188.10995006038635L261.89004993961356,-13.669433266514517Z" fill="hsl(350,80%, 23.333333333333336%  )" /><path d="M462.9204721879502,621.4679417564962L228.53205824350377,812.9204721879503L37.079527812049776,578.5320582435038L271.46794175649626,387.0795278120498Z" fill="hsl(350,80%, 23.333333333333336%  )" /><path d="M439.73349091364685,249.16505289045347L200.83494710954656,389.73349091364685L60.266509086353125,150.8349471095466L299.16505289045347,10.266509086353153Z" fill="hsl(350,80%, 30%  )" /><path d="M440.9608939596009,644.1580907439402L205.84190925605984,790.960893959601L59.039106040399076,555.8419092560599L294.1580907439402,409.0391060403991Z" fill="hsl(350,80%, 30%  )" /><path d="M427.7620559216325,209.2006235937792L240.7993764062208,377.7620559216325L72.23794407836752,190.79937640622086L259.2006235937792,22.23794407836752Z" fill="hsl(350,80%, 36.66666666666667%  )" /><path d="M427.98512498508046,602.3011484187906L247.69885158120934,777.9851249850805L72.01487501491957,597.6988515812094L252.30114841879063,422.01487501491954Z" fill="hsl(350,80%, 36.66666666666667%  )" /><path d="M406.5463331353054,233.0642644238455L216.9357355761545,356.5463331353054L93.45366686469458,166.9357355761545L283.0642644238455,43.45366686469458Z" fill="hsl(350,80%, 43.333333333333336%  )" /><path d="M407.62228255551673,627.4811943333773L222.51880566662274,757.6222825555167L92.37771744448327,572.5188056666227L277.48119433337723,442.37771744448327Z" fill="hsl(350,80%, 43.333333333333336%  )" /><path d="M387.559144517871,235.2346670129218L214.76533298707824,337.559144517871L112.440855482129,164.76533298707824L285.2346670129218,62.440855482128995Z" fill="hsl(350,80%, 50%  )" /><path d="M386.6195102220104,638.7183345031525L211.28166549684755,736.6195102220104L113.38048977798965,561.2816654968475L288.71833450315245,463.3804897779896Z" fill="hsl(350,80%, 50%  )" /><path d="M363.0478630715,250.952729612528L199.047270387472,313.0478630715L136.9521369285,149.04727038747203L300.95272961252795,86.95213692849997Z" fill="hsl(350,80%, 56.66666666666667%  )" /><path d="M371.5105421924942,624.7222194813916L225.2777805186085,721.5105421924942L128.48945780750583,575.2777805186084L274.7222194813915,478.4894578075058Z" fill="hsl(350,80%, 56.66666666666667%  )" /><path d="M342.0588398851347,252.54683624161527L197.45316375838473,292.0588398851347L157.94116011486528,147.45316375838473L302.54683624161527,107.9411601148653Z" fill="hsl(350,80%, 63.333333333333336%  )" /><path d="M355.20767434997765,612.9361995141176L237.06380048588244,705.2076743499777L144.79232565002235,587.0638004858824L262.93619951411756,494.79232565002235Z" fill="hsl(350,80%, 63.333333333333336%  )" /><path d="M336.33340661225174,217.04531908541486L232.95468091458514,286.33340661225174L163.66659338774826,182.95468091458517L267.0453190854148,113.66659338774826Z" fill="hsl(350,80%, 70%  )" /><path d="M320.54465969272223,652.6065679249085L197.39343207509148,670.5446596927222L179.4553403072778,547.3934320750915L302.6065679249085,529.4553403072778Z" fill="hsl(350,80%, 70%  )" /><path d="M319.6858899190723,206.62395245959252L243.37604754040748,269.6858899190723L180.31411008092772,193.37604754040748L256.6239524595925,130.31411008092772Z" fill="hsl(350,80%, 76.66666666666667%  )" /><path d="M318.52523997985907,614.2930572552805L235.7069427447195,668.5252399798591L181.47476002014093,585.7069427447195L264.2930572552805,531.4747600201409Z" fill="hsl(350,80%, 76.66666666666667%  )" /><path d="M292.8313889645136,229.48681263498213L220.51318736501787,242.8313889645136L207.16861103548638,170.51318736501787L279.48681263498213,157.16861103548638Z" fill="hsl(350,80%, 83.33333333333334%  )" /><path d="M288.1381929846318,635.347959430029L214.65204056997095,638.1381929846318L211.86180701536819,564.652040569971L285.34795943002905,561.8618070153682Z" fill="hsl(350,80%, 83.33333333333334%  )" /><path d="M281.64420916690244,212.43559512855452L237.56440487144548,231.6442091669024L218.3557908330976,187.56440487144548L262.43559512855455,168.3557908330976Z" fill="hsl(350,80%, 90%  )" /><path d="M281.3173108860899,613.2372972643208L236.7627027356792,631.3173108860899L218.6826891139101,586.7627027356792L263.23729726432083,568.6826891139101Z" fill="hsl(350,80%, 90%  )" /></svg>