<svg viewBox="0 0 500 800" width="500" height="800" version="1.1" xmlns="http://www.w3.org/2000/svg">
<rect width="500" height="800" fill="hsl(350,100%, 10%)" /><path d="M500,200L250.00000000000003,450L0,200.00000000000003L249.99999999999994,-50Z" fill="hsl(350,80%, 10%  )" /><path d="M500,600L250.00000000000003,850L0,600L249.99999999999994,350Z" fill="hsl(350,80%, 10%  )" /><path d="M481.81497531291666,209.26375845280126L240.73624154719877,431.81497531291666L18.18502468708337,190.73624154719877L259.2637584528013,-31.81497531291663Z" fill="hsl(350,80%, 16.666666666666668%  )" /><path d="M481.7487751709651,610.7937577681492L239.20624223185075,831.748775170965L18.251224829034925,589.2062422318508L260.79375776814925,368.2512248290349Z" fill="hsl(350,80%, 16.666666666666668%  )" /><path d="M461.63119888914855,231.7527267607313L218.24727323926874,411.63119888914855L38.36880111085148,168.24727323926874L281.7527267607313,-11.631198889148493Z" fill="hsl(350,80%, 23.333333333333336%  )" /><path d="M463.9517092172008,604.5460007741244L245.45399922587552,813.9517092172008L36.04829078279917,595.4539992258756L254.5460007741244,386.0482907827992Z" fill="hsl(350,80%, 23.333333333333336%  )" /><path d="M442.9174108313918,234.62473968294918L215.37526031705085,392.9174108313918L57.082589168608195,165.37526031705085L284.62473968294915,7.0825891686081945Z" fill="hsl(350,80%, 30%  )" /><path d="M445.5228677893699,613.6677785839755L236.3322214160245,795.5228677893699L54.47713221063012,586.3322214160245L263.66777858397546,404.4771322106301Z" fill="hsl(350,80%, 30%  )" /><path d="M426.90957386847117,219.6723835280813L230.3276164719187,376.90957386847117L73.0904261315288,180.32761647191867L269.67238352808124,23.090426131528773Z" fill="hsl(350,80%, 36.66666666666667%  )" /><path d="M427.86610811723267,606.9027228851293L243.0972771148707,777.8661081172327L72.1338918827673,593.0972771148707L256.90272288512926,422.13389188276733Z" fill="hsl(350,80%, 36.66666666666667%  )" /><path d="M403.69358429541626,244.4778837898993L205.52211621010073,353.69358429541626L96.30641570458377,155.52211621010073L294.47788378989935,46.30641570458377Z" fill="hsl(350,80%, 43.333333333333336%  )" /><path d="M403.48590865395033,645.1893333063368L204.8106666936632,753.4859086539503L96.51409134604964,554.8106666936632L295.18933330633683,446.51409134604967Z" fill="hsl(350,80%, 43.333333333333336%  )" /><path d="M387.6992004946003,234.6832839152794L215.31671608472064,337.6992004946003L112.30079950539974,165.31671608472064L284.6832839152794,62.30079950539974Z" fill="hsl(350,80%, 50%  )" /><path d="M389.6114103061623,625.9355761903296L224.0644238096704,739.6114103061623L110.38858969383767,574.0644238096704L275.93557619032964,460.38858969383773Z" fill="hsl(350,80%, 50%  )" /><path d="M363.5204883132209,249.89086823385503L200.10913176614497,313.5204883132209L136.47951168677915,150.10913176614494L299.89086823385503,86.47951168677915Z" fill="hsl(350,80%, 56.66666666666667%  )" /><path d="M358.6373038424664,659.7824072268727L190.21759277312734,708.6373038424664L141.3626961575336,540.2175927731273L309.78240722687264,491.3626961575336Z" fill="hsl(350,80%, 56.66666666666667%  )" /><path d="M344.28742005941547,248.4343103444174L201.56568965558262,294.28742005941547L155.71257994058453,151.56568965558262L298.43431034441744,105.71257994058455Z" fill="hsl(350,80%, 63.333333333333336%  )" /><path d="M355.97001467469914,602.521108852083L247.47889114791695,705.9700146746991L144.02998532530086,597.478891147917L252.521108852083,494.02998532530086Z" fill="hsl(350,80%, 63.333333333333336%  )" /><path d="M334.0017709822122,226.2240819067509L223.77591809324912,284.0017709822122L165.99822901778782,173.77591809324912L276.2240819067509,115.99822901778784Z" fill="hsl(350,80%, 70%  )" /><path d="M326.53322802739604,643.4357572479934L206.56424275200663,676.533228027396L173.466771972604,556.5642427520066L293.43575724799337,523.466771972604Z" fill="hsl(350,80%, 70%  )" /><path d="M319.6704393171657,206.7845328028636L243.2154671971364,269.6704393171657L180.3295606828343,193.2154671971364L256.78453280286357,130.3295606828343Z" fill="hsl(350,80%, 76.66666666666667%  )" /><path d="M315.213414932591,625.4403324040728L224.55966759592718,665.213414932591L184.78658506740902,574.5596675959272L275.4403324040729,534.786585067409Z" fill="hsl(350,80%, 76.66666666666667%  )" /><path d="M280.66336349200105,241.99712060793473L208.00287939206527,230.66336349200108L219.33663650799892,158.00287939206527L291.99712060793473,169.33663650799892Z" fill="hsl(350,80%, 83.33333333333334%  )" /><path d="M301.6143623659983,606.3212022235817L243.6787977764183,651.6143623659983L198.38563763400165,593.6787977764183L256.3212022235817,548.3856376340017Z" fill="hsl(350,80%, 83.33333333333334%  )" /><path d="M267.6905400864635,229.03523362139916L220.96476637860084,217.6905400864635L232.3094599135365,170.96476637860084L279.03523362139913,182.3094599135365Z" fill="hsl(350,80%, 90%  )" /><path d="M278.6164436676383,618.3602601238895L231.63973987611055,628.6164436676382L221.3835563323617,581.6397398761105L268.3602601238894,571.3835563323618Z" fill="hsl(350,80%, 90%  )" /></svg>