<svg viewBox="0 0 500 800" width="500" height="800" version="1.1" xmlns="http://www.w3.org/2000/svg">
<rect width="500" height="800" fill="hsl(350,100%, 10%)" /><path d="M500,200L250.00000000000003,450L0,200.00000000000003L249.99999999999994,-50Z" fill="hsl(350,80%, 10%  )" /><path d="M500,600L250.00000000000003,850L0,600L249.99999999999994,350Z" fill="hsl(350,80%, 10%  )" /><path d="M481.9981126166099,200.93581105506394L249.0641889449361,431.9981126166099L18.001887383390084,199.0641889449361L250.93581105506388,-31.998112616609916Z" fill="hsl(350,80%, 16.666666666666668%  )" /><path d="M481.99665713262993,601.2454233356365L248.75457666436358,831.9966571326299L18.003342867370066,598.7545766643635L251.24542333563633,368.00334286737007Z" fill="hsl(350,80%, 16.666666666666668%  )" /><path d="M463.3911447273815,216.13131587743885L233.86868412256115,413.3911447273815L36.608855272618484,183.8686841225612L266.13131587743885,-13.391144727381516Z" fill="hsl(350,80%, 23.333333333333336%  )" /><path d="M463.23040594162035,618.1326771871059L231.86732281289412,813.2304059416203L36.769594058379624,581.8673228128941L268.1326771871058,386.76959405837965Z" fill="hsl(350,80%, 23.333333333333336%  )" /><path d="M445.39537434346687,215.38335740911137L234.61664259088863,395.39537434346687L54.60462565653316,184.6166425908887L265.3833574091113,4.604625656533159Z" fill="hsl(350,80%, 30%  )" /><path d="M440.2579853412875,647.0945752064333L202.90542479356662,790.2579853412875L59.742014658712435,552.9054247935667L297.0945752064333,409.74201465871243Z" fill="hsl(350,80%, 30%  )" /><path d="M427.99973738665454,200.30576180601338L249.69423819398662,377.99973738665454L72.00026261334546,199.69423819398668L250.30576180601338,22.000262613345456Z" fill="hsl(350,80%, 36.66666666666667%  )" /><path d="M422.39762346336767,644.306426443383L205.69357355661703,772.3976234633676L77.60237653663233,555.693573556617L294.30642644338303,427.6023765366324Z" fill="hsl(350,80%, 36.66666666666667%  )" /><path d="M406.92519971386696,231.2166893626307L218.7833106373693,356.92519971386696L93.07480028613307,168.78331063736934L281.2166893626306,43.07480028613304Z" fill="hsl(350,80%, 43.333333333333336%  )" /><path d="M401.5663108864175,651.2606418637324L198.73935813626764,751.5663108864176L98.43368911358249,548.7393581362677L301.2606418637323,448.43368911358243Z" fill="hsl(350,80%, 43.333333333333336%  )" /><path d="M391.15348605989595,215.48203388249573L234.51796611750427,341.15348605989595L108.84651394010402,184.51796611750427L265.48203388249567,58.84651394010399Z" fill="hsl(350,80%, 50%  )" /><path d="M386.9188516744223,637.6460895201287L212.3539104798713,736.9188516744223L113.08114832557769,562.3539104798714L287.6460895201287,463.0811483255777Z" fill="hsl(350,80%, 50%  )" /><path d="M373.55068258827185,210.54650804636776L239.45349195363224,323.55068258827185L126.44931741172815,189.45349195363224L260.54650804636776,76.44931741172815Z" fill="hsl(350,80%, 56.66666666666667%  )" /><path d="M373.9397181804546,603.866038974131L246.13396102586904,723.9397181804545L126.06028181954542,596.133961025869L253.86603897413096,476.0602818195454Z" fill="hsl(350,80%, 56.66666666666667%  )" /><path d="M355.1998520884779,212.9996584786821L237.0003415213179,305.1998520884779L144.8001479115221,187.00034152131792L262.99965847868214,94.8001479115221Z" fill="hsl(350,80%, 63.333333333333336%  )" /><path d="M351.84150778682533,629.399103586776L220.60089641322392,701.8415077868253L148.15849221317467,570.600896413224L279.39910358677605,498.1584922131746Z" fill="hsl(350,80%, 63.333333333333336%  )" /><path d="M330.4454930893294,235.67243531937027L214.32756468062973,280.4454930893294L169.5545069106706,164.32756468062973L285.67243531937027,119.5545069106706Z" fill="hsl(350,80%, 70%  )" /><path d="M336.29070898924954,617.2601721350818L232.7398278649182,686.2907089892495L163.7092910107505,582.7398278649182L267.2601721350818,513.7092910107505Z" fill="hsl(350,80%, 70%  )" /><path d="M317.12222375038505,219.86471944939674L230.13528055060328,267.12222375038505L182.87777624961493,180.13528055060328L269.8647194493968,132.87777624961493Z" fill="hsl(350,80%, 76.66666666666667%  )" /><path d="M314.6740512972972,626.7818425205319L223.21815747946806,664.6740512972972L185.32594870270282,573.2181574794681L276.78184252053194,535.3259487027028Z" fill="hsl(350,80%, 76.66666666666667%  )" /><path d="M285.6394222189981,237.86596867763964L212.13403132236036,235.63942221899808L214.36057778100192,162.13403132236036L287.86596867763967,164.36057778100192Z" fill="hsl(350,80%, 83.33333333333334%  )" /><path d="M301.6263066689124,606.2228980167937L243.77710198320634,651.6263066689123L198.37369333108762,593.7771019832063L256.22289801679364,548.3736933310877Z" fill="hsl(350,80%, 83.33333333333334%  )" /><path d="M269.0448481978648,228.16547100831596L221.83452899168404,219.04484819786478L230.9551518021352,171.83452899168407L278.16547100831593,180.9551518021352Z" fill="hsl(350,80%, 90%  )" /><path d="M269.4906493917274,627.8588331824711L222.14116681752884,619.4906493917274L230.5093506082726,572.1411668175289L277.85883318247113,580.5093506082726Z" fill="hsl(350,80%, 90%  )" /></svg>