<svg viewBox="0 0 500 800" width="500" height="800" version="1.1" xmlns="http://www.w3.org/2000/svg">
<rect width="500" height="800" fill="hsl(350,100%, 10%)" /><path d="M500,200L250.00000000000003,450L0,200.00000000000003L249.99999999999994,-50Z" fill="hsl(350,80%, 10%  )" /><path d="M500,600L250.00000000000003,850L0,600L249.99999999999994,350Z" fill="hsl(350,80%, 10%  )" /><path d="M481.97825139318377,203.17661463839053L246.8233853616095,431.97825139318377L18.02174860681623,196.82338536160952L253.17661463839048,-31.97825139318377Z" fill="hsl(350,80%, 16.666666666666668%  )" /><path d="M481.8279651393156,608.9327811662594L241.06721883374067,831.8279651393157L18.17203486068439,591.0672188337406L258.9327811662594,368.1720348606844Z" fill="hsl(350,80%, 16.666666666666668%  )" /><path d="M461.52826131748895,232.43138393593617L217.56861606406386,411.52826131748895L38.47173868251102,167.56861606406383L282.4313839359361,-11.528261317488983Z" fill="hsl(350,80%, 23.333333333333336%  )" /><path d="M463.96052860920565,604.1100118332303L245.8899881667697,813.9605286092057L36.03947139079435,595.8899881667697L254.1100118332303,386.03947139079435Z" fill="hsl(350,80%, 23.333333333333336%  )" /><path d="M445.2584435646308,217.03350277300288L232.96649722699712,395.2584435646308L54.741556435369205,182.96649722699718L267.0335027730029,4.741556435369205Z" fill="hsl(350,80%, 30%  )" /><path d="M443.98510953186263,628.0317191750926L221.96828082490742,793.9851095318627L56.01489046813737,571.9682808249074L278.03171917509246,406.0148904681373Z" fill="hsl(350,80%, 30%  )" /><path d="M427.85391812924235,207.20997961694513L242.79002038305487,377.85391812924235L72.14608187075765,192.7900203830549L257.2099796169452,22.146081870757655Z" fill="hsl(350,80%, 36.66666666666667%  )" /><path d="M422.3298306397819,644.5693781835025L205.43062181649745,772.3298306397819L77.67016936021807,555.4306218164975L294.5693781835026,427.6701693602181Z" fill="hsl(350,80%, 36.66666666666667%  )" /><path d="M409.99087626972425,201.70865749808954L248.2913425019105,359.99087626972425L90.00912373027572,198.29134250191046L251.70865749808954,40.00912373027572Z" fill="hsl(350,80%, 43.333333333333336%  )" /><path d="M408.13975270987544,624.3273223528494L225.67267764715064,758.1397527098754L91.86024729012456,575.6726776471506L274.32732235284936,441.86024729012456Z" fill="hsl(350,80%, 43.333333333333336%  )" /><path d="M385.5408123434292,242.34014866864914L207.6598513313509,335.5408123434292L114.4591876565708,157.6598513313509L292.34014866864914,64.4591876565708Z" fill="hsl(350,80%, 50%  )" /><path d="M388.90337105692043,629.493279048344L220.50672095165606,738.9033710569204L111.09662894307957,570.506720951656L279.4932790483439,461.09662894307957Z" fill="hsl(350,80%, 50%  )" /><path d="M373.88585807520997,205.31922635060127L244.68077364939873,323.88585807520997L126.11414192479002,194.68077364939876L255.31922635060124,76.11414192479002Z" fill="hsl(350,80%, 56.66666666666667%  )" /><path d="M373.0338372175552,615.449106754895L234.550893245105,723.0338372175552L126.96616278244485,584.550893245105L265.449106754895,476.9661627824448Z" fill="hsl(350,80%, 56.66666666666667%  )" /><path d="M335.6381757903068,262.46681396796635L187.53318603203368,285.6381757903068L164.36182420969322,137.5331860320337L312.4668139679663,114.36182420969318Z" fill="hsl(350,80%, 63.333333333333336%  )" /><path d="M342.6482318841063,651.5005352277904L198.49946477220968,692.6482318841063L157.35176811589372,548.4994647722096L301.5005352277903,507.3517681158937Z" fill="hsl(350,80%, 63.333333333333336%  )" /><path d="M336.56193825361805,215.84395297193282L234.1560470280672,286.56193825361805L163.43806174638195,184.15604702806718L265.84395297193277,113.43806174638195Z" fill="hsl(350,80%, 70%  )" /><path d="M335.5700428723234,620.536985241966L229.46301475803398,685.5700428723235L164.42995712767657,579.463014758034L270.53698524196597,514.4299571276765Z" fill="hsl(350,80%, 70%  )" /><path d="M306.93824542484737,240.71899075296253L209.28100924703747,256.93824542484737L193.06175457515263,159.28100924703747L290.7189907529625,143.0617545751526Z" fill="hsl(350,80%, 76.66666666666667%  )" /><path d="M319.97672875648635,601.8048358765099L248.19516412349014,669.9767287564864L180.02327124351365,598.1951641234901L251.80483587650986,530.0232712435136Z" fill="hsl(350,80%, 76.66666666666667%  )" /><path d="M298.29663290159635,219.2726555089961L230.7273444910039,248.29663290159638L201.70336709840362,180.7273444910039L269.27265550899614,151.70336709840362Z" fill="hsl(350,80%, 83.33333333333334%  )" /><path d="M301.7893847775207,604.6754277201034L245.3245722798966,651.7893847775207L198.21061522247933,595.3245722798966L254.6754277201034,548.2106152224793Z" fill="hsl(350,80%, 83.33333333333334%  )" /><path d="M269.17368666600476,228.07792263743653L221.92207736256347,219.17368666600476L230.82631333399524,171.92207736256347L278.07792263743653,180.82631333399524Z" fill="hsl(350,80%, 90%  )" /><path d="M272.5974133387136,625.4038758932437L224.59612410675626,622.5974133387135L227.40258666128642,574.5961241067563L275.4038758932437,577.4025866612865Z" fill="hsl(350,80%, 90%  )" /></svg>