<svg viewBox="0 0 500 800" width="500" height="800" version="1.1" xmlns="http://www.w3.org/2000/svg">
<rect width="500" height="800" fill="hsl(350,100%, 10%)" /><path d="M500,200L250.00000000000003,450L0,200.00000000000003L249.99999999999994,-50Z" fill="hsl(350,80%, 10%  )" /><path d="M500,600L250.00000000000003,850L0,600L249.99999999999994,350Z" fill="hsl(350,80%, 10%  )" /><path d="M481.38342774487865,216.90293953815538L233.09706046184465,431.38342774487865L18.616572255121383,183.09706046184465L266.9029395381554,-31.383427744878617Z" fill="hsl(350,80%, 16.666666666666668%  )" /><path d="M481.4223979190028,616.3607378017846L233.63926219821548,831.4223979190028L18.577602080997224,583.6392621982155L266.3607378017846,368.5776020809972Z" fill="hsl(350,80%, 16.666666666666668%  )" /><path d="M462.1480449608374,228.0928286097092L221.90717139029084,412.1480449608374L37.85195503916256,171.90717139029078L278.09282860970916,-12.148044960837439Z" fill="hsl(350,80%, 23.333333333333336%  )" /><path d="M462.74672308875705,623.1264310907615L226.8735689092386,812.7467230887571L37.25327691124295,576.8735689092385L273.1264310907614,387.25327691124295Z" fill="hsl(350,80%, 23.333333333333336%  )" /><path d="M445.2629852635804,216.98135995598707L233.01864004401293,395.2629852635804L54.73701473641964,183.01864004401295L266.98135995598693,4.737014736419638Z" fill="hsl(350,80%, 30%  )" /><path d="M445.0536753725417,619.2370404081064L230.76295959189363,795.0536753725416L54.946324627458296,580.7629595918936L269.2370404081064,404.9463246274583Z" fill="hsl(350,80%, 30%  )" /><path d="M418.02266997429507,258.75697724278467L191.2430227572153,368.02266997429507L81.97733002570493,141.24302275721533L308.75697724278467,31.97733002570493Z" fill="hsl(350,80%, 36.66666666666667%  )" /><path d="M421.73282483975277,646.8170574957334L203.18294250426663,771.7328248397528L78.26717516024726,553.1829425042666L296.81705749573325,428.26717516024723Z" fill="hsl(350,80%, 36.66666666666667%  )" /><path d="M406.593372066852,232.84076467947187L217.15923532052813,356.593372066852L93.40662793314797,167.15923532052813L282.84076467947193,43.406627933148Z" fill="hsl(350,80%, 43.333333333333336%  )" /><path d="M400.8199501036884,653.4166888782985L196.58331112170157,750.8199501036884L99.18004989631157,546.5833111217016L303.4166888782985,449.18004989631163Z" fill="hsl(350,80%, 43.333333333333336%  )" /><path d="M391.829040105513,206.96587271982378L243.03412728017622,341.829040105513L108.170959894487,193.03412728017625L256.96587271982384,58.170959894487Z" fill="hsl(350,80%, 50%  )" /><path d="M389.556555067874,626.229142906078L223.77085709392207,739.556555067874L110.44344493212603,573.770857093922L276.229142906078,460.443444932126Z" fill="hsl(350,80%, 50%  )" /><path d="M371.9397829228597,222.50976100996758L227.49023899003245,321.9397829228597L128.0602170771403,177.49023899003245L272.5097610099675,78.0602170771403Z" fill="hsl(350,80%, 56.66666666666667%  )" /><path d="M373.5254269937461,610.8383064181029L239.16169358189714,723.5254269937461L126.47457300625385,589.1616935818972L260.8383064181029,476.4745730062539Z" fill="hsl(350,80%, 56.66666666666667%  )" /><path d="M354.6736423968555,216.71611759276723L233.28388240723277,304.6736423968555L145.32635760314454,183.28388240723277L266.7161175927672,95.32635760314454Z" fill="hsl(350,80%, 63.333333333333336%  )" /><path d="M344.6909302272983,647.6406101208719L202.3593898791281,694.6909302272983L155.3090697727017,552.3593898791281L297.6406101208719,505.3090697727017Z" fill="hsl(350,80%, 63.333333333333336%  )" /><path d="M337.59799270446354,208.40188515446124L241.5981148455388,287.59799270446354L162.40200729553646,191.5981148455388L258.40188515446124,112.40200729553648Z" fill="hsl(350,80%, 70%  )" /><path d="M331.8620363896893,632.2894254847184L217.71057451528162,681.8620363896894L168.1379636103107,567.7105745152816L282.2894254847184,518.1379636103106Z" fill="hsl(350,80%, 70%  )" /><path d="M302.6575514812672,246.1213862757582L203.8786137242418,252.6575514812672L197.3424485187328,153.87861372424183L296.12138627575814,147.3424485187328Z" fill="hsl(350,80%, 76.66666666666667%  )" /><path d="M319.9463024031973,602.7413099278401L247.25869007215985,669.9463024031973L180.0536975968027,597.2586900721599L252.74130992784018,530.0536975968027Z" fill="hsl(350,80%, 76.66666666666667%  )" /><path d="M292.97364490953424,229.27910249972263L220.7208975002774,242.97364490953424L207.02635509046576,170.7208975002774L279.2791024997226,157.02635509046576Z" fill="hsl(350,80%, 83.33333333333334%  )" /><path d="M288.4134087518803,635.0486808319653L214.9513191680348,638.4134087518803L211.5865912481197,564.9513191680348L285.0486808319652,561.5865912481197Z" fill="hsl(350,80%, 83.33333333333334%  )" /><path d="M272.1949673718176,225.75623076779584L224.24376923220416,222.19496737181757L227.80503262818243,174.24376923220416L275.75623076779584,177.8050326281824Z" fill="hsl(350,80%, 90%  )" /><path d="M278.23343118706674,618.9439532148167L231.05604678518324,628.2334311870668L221.76656881293323,581.0560467851833L268.9439532148167,571.7665688129332Z" fill="hsl(350,80%, 90%  )" /></svg>