<svg viewBox="0 0 500 800" width="500" height="800" version="1.1" xmlns="http://www.w3.org/2000/svg">
<rect width="500" height="800" fill="hsl(350,100%, 10%)" /><path d="M500,200L250.00000000000003,450L0,200.00000000000003L249.99999999999994,-50Z" fill="hsl(350,80%, 10%  )" /><path d="M500,600L250.00000000000003,850L0,600L249.99999999999994,350Z" fill="hsl(350,80%, 10%  )" /><path d="M481.6006489737117,213.60659380431244L236.3934061956876,431.6006489737117L18.399351026288258,186.39340619568753L263.60659380431235,-31.600648973711742Z" fill="hsl(350,80%, 16.666666666666668%  )" /><path d="M481.13579153562387,620.0061458357336L229.99385416426637,831.1357915356239L18.864208464376162,579.9938541642663L270.00614583573366,368.86420846437613Z" fill="hsl(350,80%, 16.666666666666668%  )" /><path d="M463.4255408619995,215.6696683999049L234.33033160009506,413.4255408619995L36.57445913800049,184.3303316000951L265.6696683999048,-13.425540861999508Z" fill="hsl(350,80%, 23.333333333333336%  )" /><path d="M463.4868621505627,614.8107963697654L235.1892036302346,813.4868621505627L36.51313784943733,585.1892036302346L264.81079636976546,386.5131378494373Z" fill="hsl(350,80%, 23.333333333333336%  )" /><path d="M445.928278711233,205.30184885237085L244.69815114762912,395.928278711233L54.07172128876698,194.69815114762918L255.30184885237088,4.07172128876698Z" fill="hsl(350,80%, 30%  )" /><path d="M442.58903953198694,636.4068929208025L213.5931070791975,792.5890395319869L57.41096046801309,563.5931070791975L286.4068929208025,407.41096046801306Z" fill="hsl(350,80%, 30%  )" /><path d="M418.82178894422333,256.4198863670614L193.5801136329386,368.8217889442233L81.17821105577667,143.5801136329386L306.4198863670614,31.17821105577667Z" fill="hsl(350,80%, 36.66666666666667%  )" /><path d="M424.102698980151,637.0438956891271L212.95610431087292,774.102698980151L75.89730101984898,562.956104310873L287.0438956891271,425.897301019849Z" fill="hsl(350,80%, 36.66666666666667%  )" /><path d="M406.8889012663311,231.3986091960042L218.6013908039958,356.8889012663311L93.11109873366885,168.60139080399583L281.39860919600426,43.111098733668854Z" fill="hsl(350,80%, 43.333333333333336%  )" /><path d="M409.7538278525277,608.87211848799L241.12788151201008,759.7538278525277L90.24617214747227,591.12788151201L258.8721184879899,440.2461721474723Z" fill="hsl(350,80%, 43.333333333333336%  )" /><path d="M375.83423094422403,265.8008079181075L184.19919208189248,325.83423094422403L124.16576905577594,134.19919208189248L315.80080791810747,74.1657690557759Z" fill="hsl(350,80%, 50%  )" /><path d="M383.18134965923457,649.2618321111253L200.73816788887478,733.1813496592347L116.81865034076537,550.7381678888748L299.2618321111252,466.8186503407654Z" fill="hsl(350,80%, 50%  )" /><path d="M352.63075488729936,269.5911499492793L180.40885005072067,302.63075488729936L147.36924511270064,130.40885005072067L319.59114994927927,97.36924511270064Z" fill="hsl(350,80%, 56.66666666666667%  )" /><path d="M373.90529438130324,604.8454127050829L245.15458729491704,723.9052943813033L126.09470561869675,595.1545872949171L254.845412705083,476.09470561869676Z" fill="hsl(350,80%, 56.66666666666667%  )" /><path d="M342.8018229520337,251.22325308665376L198.77674691334624,292.8018229520337L157.19817704796625,148.77674691334624L301.22325308665376,107.19817704796625Z" fill="hsl(350,80%, 63.333333333333336%  )" /><path d="M342.4739653120176,651.8127951327833L198.18720486721674,692.4739653120175L157.52603468798242,548.1872048672167L301.8127951327832,507.5260346879824Z" fill="hsl(350,80%, 63.333333333333336%  )" /><path d="M337.1624325150553,212.11240513103945L237.88759486896055,287.1624325150553L162.8375674849447,187.88759486896055L262.11240513103945,112.8375674849447Z" fill="hsl(350,80%, 70%  )" /><path d="M337.71749993400414,607.0455805529413L242.9544194470587,687.7174999340041L162.28250006599586,592.9544194470587L257.0455805529413,512.2825000659959Z" fill="hsl(350,80%, 70%  )" /><path d="M312.6747075550793,231.1750065418643L218.8249934581357,262.67470755507935L187.32529244492068,168.8249934581357L281.1750065418643,137.32529244492068Z" fill="hsl(350,80%, 76.66666666666667%  )" /><path d="M305.09332064258035,643.1824735346856L206.81752646531433,655.0933206425804L194.90667935741965,556.8175264653144L293.1824735346857,544.9066793574196Z" fill="hsl(350,80%, 76.66666666666667%  )" /><path d="M299.2980107827626,216.5440663944093L233.4559336055907,249.2980107827626L200.7019892172374,183.4559336055907L266.5440663944093,150.7019892172374Z" fill="hsl(350,80%, 83.33333333333334%  )" /><path d="M283.6026073396313,639.6845660172637L210.31543398273632,633.6026073396313L216.39739266036872,560.3154339827363L289.6845660172637,566.3973926603687Z" fill="hsl(350,80%, 83.33333333333334%  )" /><path d="M283.9445744853557,201.94058316187116L248.05941683812884,233.9445744853557L216.0554255146443,198.05941683812884L251.94058316187116,166.0554255146443Z" fill="hsl(350,80%, 90%  )" /><path d="M267.77602568246436,628.9829762263362L221.01702377366385,617.7760256824644L232.2239743175356,571.0170237736638L278.9829762263362,582.2239743175356Z" fill="hsl(350,80%, 90%  )" /></svg>