<svg viewBox="0 0 500 800" width="500" height="800" version="1.1" xmlns="http://www.w3.org/2000/svg">
<rect width="500" height="800" fill="hsl(210,80%, 20%)" /><path d="M 250 , 80C 262.55867108444613,120.17498751604894 263.38194741480623,163.8433182678951 252.97525701405092,204.62874012699592,C 242.56856661329581,245.4141619860966 221.031587239148,282.71129945848725 194.6637871249862,315.5211906265722,C 167.1290264997771,349.78315012038536 134.38145357300806,379.60935082192003 107.1868895307735,414.141952774221,C 93.58960750965328,431.40825375036985 81.45093046233552,449.9707246991344 72.80728878919857,470.17712681300037,C 64.16364711606164,490.3835289268664 59.107765566692976,512.2881131762606 59.5899421853081,534.2603395875576,C 60.08498577705196,556.8188989644624 66.5626711592946,579.3567516363729 79.01958633710319,598.1705479989348,C 91.4765015149118,616.9843443614967 109.90313740494345,631.8751854900511 131.1023022102223,639.6036446429283,C 152.30146701550177,647.3321037958052 176.1084625592809,647.7852722572669 197.52587024894152,640.6839824325974,C 218.94327793860217,633.5826926079279 237.7945393159211,618.9778923700313 250,600,C 263.21589760820433,611.7494912354306 279.8377129410196,619.6190901981081 297.2999195703682,622.4086839885973,C 314.7621261997168,625.1982777790865 332.99222797464284,622.897193436822 349.25508563277805,615.9524144861831,C 365.51794329091314,609.0076355355443 379.7465095461702,597.4665242857012 390.1325101162336,583.1542398404897,C 400.5185106862971,568.8419553952783 407.0485802892717,551.842691067395 409.47927273082064,534.326920226904,C 412.15360375064455,515.0554696335901 409.91611982581423,495.257410677338 404.16649269012225,476.6702473064885,C 398.4168655544303,458.08308393563897 389.24393029146904,440.6822442830308 378.39987329608397,424.5283815172718,C 356.71175930530995,392.22065598575267 328.7214753738563,364.7231294935288 303.8861146054944,334.767023721882,C 274.5938077701942,299.4350045884316 249.66147167849644,259.41725712880947 238.86534346750375,214.8096968790974,C 228.06921525651313,170.20213662938568 231.67971369484388,122.08037458812501 250,80M 250 , 80C 266.13925364614585,125.65159906957653 266.6933231844248,176.43972505645297 252.73535746612168,222.80478947860888,C 238.77739174782073,269.1698539007623 210.60268166576364,309.98116023248804 178.903888004411,346.5834892059112,C 155.3140735377076,373.8224484785147 129.76287042932248,399.55620689103813 109.42337943866048,429.3008762465516,C 89.08388844799742,459.0455456020645 74.32511163038237,493.9856502279692 75.41884078941433,530.0029239359379,C 76.03952762790843,550.4425799187201 81.82797191837791,570.8168078150186 92.81695086387047,588.0623037655988,C 103.80592980936304,605.3077997161791 119.98974132747816,619.2712446402526 138.84066959045234,627.1963498427191,C 157.69159785342686,635.1214550451854 179.08819064920598,636.9167675760947 198.95766033068878,632.082622002924,C 218.82713001217158,627.2484764297534 237.03419763755738,615.8130565655109 250,600,C 273.99643453768607,613.1326213271576 303.0163625686683,616.7434661826761 329.5270932385926,609.9998934804134,C 356.03782390851694,603.2563207781508 379.6573193320551,586.3029279805712 395.2446342515198,563.8233766717616,C 409.4101820982708,543.3942545757687 417.00075519572175,518.7391621303311 418.38807656107264,493.9180599219114,C 419.7753979264235,469.09695771349163 415.1610837717798,444.1795126255408 407.0380975963966,420.6842179688204,C 390.7921252456267,373.69362865535777 361.57688745092014,332.5148871231004 335.0933916057476,290.43553886926907,C 294.4759151758634,225.89885738746466 261.4393341465452,155.39167250101144 250,80M 250 , 80C 263.2612127719306,120.78201337549399 264.5149638197985,165.29157423353882 254.179577194956,206.9114272180991,C 243.84419057011374,248.53128020265927 222.02586933783147,286.65619705212526 194.99996213211594,319.9523337476854,C 165.6563482537974,356.1039038466012 130.26666560002798,386.9556833735471 100.52230725186769,422.77825785546986,C 85.65012807778382,440.68954509642884 72.25377862561135,459.99429985210173 62.5718402633508,481.1663567565119,C 52.88990190109024,502.338413660922 47.02569478441267,525.4458409807927 47.19897538817837,548.7260020164589,C 47.3838147811884,573.5590805110184 54.653183296473436,598.4853995841963 68.95912063742517,618.7845648358741,C 83.26505797837692,639.0837300875518 104.59008214040449,654.466157814633 128.5519679242952,660.9887326741444,C 152.51385370818764,667.5113075336558 178.85552432750205,665.0248357330396 201.0654887782446,653.9147757775314,C 223.27545322898717,642.8047158220232 241.0986294254538,623.183648440503 250,600,C 272.346109175925,617.1538075591657 302.243349364743,624.0190158732912 329.86236928755153,618.4700116758921,C 357.48138921036,612.921007478493 382.20199603749535,595.1774382423328 397.22972673271835,571.3495340283424,C 410.8483416558347,549.7559176336603 416.6235718648516,523.6784992320047 415.4263616323144,498.17717320601304,C 414.22915139977715,472.6758471800214 406.36215839096315,447.8094820018731 395.1361555301168,424.88072710342556,C 372.6841498084069,379.0232173064737 337.93140123122424,340.5137265602081 309.4762539552784,298.1190528474708,C 287.9878192181334,266.1039249535995 269.83552601798465,231.54859824979843 259.1322851931735,194.50589482038373,C 248.42904436836247,157.46319139096903 245.14260646062996,118.25084272950284 250,80M 250 , 80C 254.31465094076,128.40653051129104 246.9391804686006,177.6740777403329 229.7023187681289,223.11303687893954,C 212.46545706765824,268.55199601754396 185.30688931852885,309.47467989985023 156.85330696487256,348.87267553572764,C 131.99510863720695,383.292355175936 105.94978628667981,417.71059968107437 91.11762334395493,457.4931500401525,C 83.7015418725889,477.3844252196944 79.28561517612775,498.5517122358009 79.81239829041363,519.7739551005101,C 80.3391814046995,540.9961979652193 85.9524123555301,562.2299318779351 97.08181451389672,580.3074732001267,C 112.64483957654237,605.5865694772531 139.45182819923372,623.9725721780497 168.8653085381906,627.9835112250263,C 198.27878887714746,631.9944502720028 229.36334803425848,621.3393779978147 250,600,C 258.89442376507327,617.5598077833054 273.1281914457482,632.3679428456027 290.3161673011551,641.9612274495996,C 307.50414315656195,651.5545120535966 327.5648888186573,655.8891886538839 347.1884992503477,654.3492090681151,C 366.812109682038,652.8092294823462 385.90120864763657,645.4211767804443 401.6176092741712,633.5699163054741,C 417.33400990070584,621.718655830504 429.628139714304,605.4951209549533 437.2940133970087,587.3652559753087,C 448.07167419536006,561.8759845421826 449.5915918105142,532.9836812023851 444.00338385516443,505.8795696632908,C 438.41517589981464,478.77545812419646 426.05647341741235,453.4257474440104 410.8010062220822,430.3361036371409,C 380.29007183136525,384.1568160233534 339.0619666995021,346.0064104525106 306.69562692874615,301.1080388589268,C 283.7997976262845,269.3470964957495 265.2017858265159,234.16680299322053 254.97379828059445,196.37309015622856,C 244.74581073467309,158.57937731923664 242.8906660052111,118.50238732072427 250,80M 250 , 80C 236.0128292332883,157.42277391077903 198.977867502083,229.05288990181364 152.66469044364987,292.65333405789625,C 120.97947716036978,336.16565098347144 85.34572832191445,377.44825576364514 61.90989965235219,425.90479711369994,C 50.1919853175592,450.1330677887317 41.788523563201295,476.2046660701508 39.6627709980496,503.0337508903958,C 37.537018432897916,529.8628357106409 41.91910138864321,557.4318503571905 54.03839966681362,581.4618571300753,C 62.96580462661781,599.1630141380363 76.04128606680297,614.815395890004 92.15055311763116,626.3705260849401,C 108.25982016845936,637.9256562798763 127.36371304025687,645.3184720506837 147.08136343415214,647.3785161475289,C 166.79901382804735,649.438560244374 187.0606041527824,646.1457898836074 205.07484364228398,637.8683087237555,C 223.0890831317856,629.5908275639035 238.79649493979466,616.3557632993014 250,600,C 275.09794686714815,612.0718888058523 304.8251409067149,614.1165932128802 331.37861435768815,605.7171596620083,C 357.9320878086614,597.3177261111364 380.910993248443,578.6571610793496 395.4374640314183,554.895446434181,C 406.1111104567721,537.4359998575272 412.3501416937173,517.4115096471402 414.4236644372143,497.05323108021076,C 416.4971871807113,476.6949525132813 414.4864274904505,456.03589899157174 409.7315622632672,436.1323751968307,C 400.2218318088998,396.3253276073463 380.27521120287105,359.87642266472017 359.6572333544261,324.5220028484195,C 314.4393440686077,246.98519236346567 270.06148714984704,167.48800617787964 250,80M 250 , 80C 260.04098803562925,120.23111934454744 259.47866068798874,162.96279124222642 249.05825700999208,203.09730994663425,C 238.63785333199576,243.23182865104178 218.3792189360458,280.22318669998015 194.4050921683352,314.05520777724627,C 168.62550553698216,350.435073735485 138.36840704517198,383.92428542136133 117.46203885739418,423.3070926247581,C 107.00885476349693,442.99849622646025 99.07204716751043,464.22049004269337 96.11054977092196,486.31686908261827,C 93.14905237433351,508.41324812254317 95.33989814995465,531.3772041097384 103.9028679993788,551.9610808307034,C 115.16388371947316,579.0305863190001 137.93888736427073,601.3784401777491 165.7181783659114,610.7528518326375,C 193.49746936755207,620.1272634875259 225.50339451086987,616.1085356857493 250,600,C 263.54281426043326,616.3491713644321 282.3314489391096,628.279197053041 302.88323252047434,633.601547475637,C 323.4350161018391,638.9238978982329 345.6263755516717,637.6102039777002 365.4626202070524,630.0453761298215,C 385.298864862433,622.4805482819431 402.6644854787863,608.7434376599563 414.9439826289098,591.4253207837985,C 427.2234797790333,574.1072039076408 434.40146602287734,553.3494734104556 436.284942363993,532.2034161120228,C 438.29819950793257,509.60029124504837 434.360782381606,486.678832560453 426.4569736583177,465.4071550115305,C 418.5531649350293,444.1354774626081 406.79533237675037,424.46048865843926 393.4084852540022,406.1370942624266,C 366.6347910084966,369.49030547040104 333.69852365988083,337.7203127669941 306.4305455588088,301.4398055682433,C 282.77918191075054,269.97126521980414 263.3846438017268,234.892805044191 253.05895391380756,196.9054892346664,C 242.73326402588845,158.9181734251418 241.50323465359025,118.43775504269315 250,80M 250 , 80C 224.03544101240863,163.96197227378948 179.1251544567411,240.41873703576445 135.2002501434582,316.5395219278926,C 115.75937987458441,350.2300746334383 97.25652216425829,384.98725464695383 87.50633344755202,422.6427270036372,C 77.75614473084495,460.298199360321 77.76655337272095,501.52539583872056 94.07000147082991,536.8410914786007,C 107.09295669820959,565.0507512005371 130.51639166075108,588.5678681921913 159.2316357832883,600.4345029074284,C 187.9468799058255,612.3011376226654 221.42551729583968,612.2016885172264 250,600,C 261.08374802051634,620.3194826755687 279.0878226428138,636.7771162925452 300.30923692183416,646.0173772403339,C 321.5306512008545,655.2576381881224 345.8130171557532,657.2185885764629 368.2850344697468,651.6742866163775,C 390.7570517837401,646.1299846562924 411.25629332659685,633.1641538342235 426.2678567336978,615.5464408595038,C 441.2794201407988,597.9287278847842 450.7670530671855,575.8390621258379 454.1581594601781,552.9429654319378,C 457.86246128449096,527.9322335574894 454.40834663517984,502.1448948372025 446.1336154177978,478.2537378082674,C 437.8588842004158,454.36258077933223 424.92159988743236,432.3000867016709 410.0591827194359,411.8460622364074,C 380.3343483834251,370.93801330587866 343.36734282929046,335.73548988798444 313.30861899086347,295.0721481068297,C 290.52884701510914,264.2557482314896 271.6520938662946,230.27351358545673 260.37175070797616,193.64944539560648,C 249.0914075496578,157.02537720575626 245.40257660395565,118.0451338631069 250,80M 250 , 80C 244.2755935291043,127.00094791367052 231.06026838226572,172.99693626836188 211.89702112413752,216.29390947378866,C 192.73377386600967,259.5908826792137 167.3690566736967,299.78615245078254 142.9702294847002,340.36391934385983,C 124.31658158848408,371.38686033094035 106.28771240324748,403.28927948530884 96.43327491312284,438.1213266412989,C 86.57883742299737,472.9533737972894 85.84594754707311,511.3834887232408 100.63853080535043,544.4222678754866,C 112.80908056465965,571.6048159564119 135.5566367434405,594.1587762584314 163.3895843712615,604.7578435741254,C 191.2225319990825,615.3569108898195 223.52728827395003,613.6458321653572 250,600,C 258.23892654499105,619.68242058329 272.9944786754154,636.5689028302548 291.3851398443591,647.3883839823426,C 309.77580101330284,658.2078651344303 331.6808064911582,662.8937735513576 352.90350528499874,660.6859133797898,C 374.12620407883907,658.4780532082221 394.5245299927447,649.4234392110143 410.6556579733024,635.4568970224075,C 426.78678595386015,621.4903548338007 438.59427825409057,602.752178680887 444.96809814758103,582.3891727486429,C 451.6535797352904,561.0304736474219 452.4298618267517,538.0297915453721 448.59697492798176,515.9798784077351,C 444.76408802921185,493.9299652700982 436.44707408510163,472.82004763422947 425.7306671321358,453.1719354253042,C 404.2978532261989,413.8757110074506 373.8917428060923,380.37392785258317 345.9297239785684,345.4213275413898,C 315.73977430016504,307.68380754924453 288.16617069187055,267.2475989230248 270.6547876058458,222.20423160710823,C 253.14340451982198,177.16086429119213 245.70405434728605,128.13624754476555 250,80M 250 , 80C 258.10589713880415,119.22127204418628 256.4874676947495,160.3536126816374 245.77612763039232,198.94481560684613,C 235.06478756603522,237.5360185320548 215.28636513833152,273.1996338417046 191.0128542362666,305.0557230190703,C 161.01898787726978,344.4190967543837 124.15021993616067,378.12277845258365 93.95609402657655,417.33275131081837,C 78.85903107177722,436.9377377399327 65.5235416835922,458.1001573452619 56.566096824981095,481.1661709659956,C 47.60865196637,504.2321845867293 43.17149145905597,529.274058970236 45.62752383587136,553.8960960043842,C 47.99397782997487,577.6200983556055 56.90019495255608,600.8054682375042 71.89188173913139,619.3440150888673,C 86.88356852570669,637.8825619402304 107.92598907886078,651.5534227658844 131.09405997616022,657.1809340243952,C 154.2621308734604,662.8084452829056 179.3562617240959,660.288191374971 200.8564678713938,649.9843315306854,C 222.35667401869168,639.6804716863998 240.0708920941459,621.6758208209261 250,600,C 270.5673954723724,620.9899994797289 301.82910218317693,630.8331806966997 330.74639747772477,625.5998387889025,C 359.66369277227255,620.3664968811053 385.1975904884895,600.4360299258985 398.6254073841645,574.2961835588633,C 409.11465583435296,553.8768298304174 412.51050577550353,530.1742006519606 409.9075374805287,507.3663314881712,C 407.30456918555376,484.5584623243819 398.9438425743709,462.6725275240967 387.67913811520947,442.6705082964055,C 365.1497291968725,402.6664698409939 331.91239638659675,369.9640641685217 303.4394127990567,333.9475878753671,C 275.24217483045237,298.2799118938094 251.47415304129254,258.20118411598554 240.93921530623734,213.97130252105018,C 230.4042775711835,169.7414209261151 233.28574904795175,122.2835801948628 250,80M 250 , 80C 262.8817153248566,120.46685849135426 263.92787852389006,164.5284311379603 253.58690264086633,205.7178647788427,C 243.24592675784274,246.90729841972504 221.61935700784866,284.62946158257915 194.90736232909592,317.6442244342522,C 166.1408915701003,353.19822261407523 131.5613979092266,383.6911298017324 102.52001404354492,419.02092812644884,C 87.9993221107007,436.68582728880494 74.92759205542052,455.7019973522158 65.4677748477607,476.520523117083,C 56.007957640100884,497.33904888195013 50.25818906968203,520.0240501245825 50.35702682875857,542.8908248801564,C 50.46181417259272,567.1340757488648 57.33622489229557,591.4850150697473 70.98967517832097,611.5182247066875,C 84.64312546434635,631.5514343436278 105.06327475673127,647.0039588786693 128.2478718253272,654.0906119559278,C 151.43246889392447,661.1772650331859 177.15368936182517,659.7565647517172 199.32401177824033,649.9472326122277,C 221.4943341946555,640.1379004727382 239.88051765684395,622.0304850191087 250,600,C 255.15195776857013,624.3500568530758 270.00846921678976,646.4996998281633 290.565216661596,660.5313808424826,C 311.1219641064023,674.5630618568018 337.11386403859154,680.3141077274724 361.7095802436314,676.503768902867,C 386.3052964486711,672.6934300782636 409.2032320076437,659.4512729235374 425.28908127091876,640.4588167612523,C 441.3749305341938,621.4663605989671 450.5972899960071,597.0376463481047 452.4010701474685,572.2139819376611,C 454.0862800151858,549.0220845306883 449.49209315886844,525.601671598546 440.7491298233285,504.0548706817694,C 432.0061664877885,482.5080697649928 419.232911167014,462.77463843725627 404.73820102829603,444.5920254339405,C 375.7487807508515,408.22679942730963 340.2348865340311,377.58113981343394 309.9338593755658,342.30134526077813,C 279.1528495461786,306.4627019954781 253.77130132685238,265.0929588706096 242.20739522823933,219.2873370217936,C 230.64348912962706,173.4817151729776 233.1122802598603,124.12124022727315 250,80M 250 , 80C 258.24427561311734,119.36417785419114 256.7678561334648,160.66697292471332 246.17941580480309,199.4663480476171,C 235.59097547614144,238.26572317052083 215.91400832602346,274.18020099496914 191.67580879201242,306.2740674163104,C 160.6687414725454,347.33061022066073 122.15109540503916,382.25636399460427 91.15089349072265,423.31809084663786,C 75.65079253355277,443.84895427265127 62.142575658658735,466.1194920070644 53.5670162134745,490.372930173687,C 44.99145676829028,514.6263683403096 41.52944723672463,540.9384242544883 45.67479535841848,566.3271140916981,C 49.45520550872725,589.4806968417388 59.67024145347612,611.6862211815891 75.5472509927617,628.9575981723497,C 91.4242605320473,646.2289751631102 112.9137073529636,658.3610547090146 136.00006747388832,662.5323700213012,C 159.08642759481353,666.7036853335873 183.57541152042575,662.8292043838319 204.15846123576216,651.5722971938641,C 224.74151095109855,640.3153900038963 241.24218320803203,621.7642031810467 250,600,C 260.0457940029065,610.9867766573018 272.86357358316207,619.4175268513336 286.9282845449098,624.297193236319,C 300.9929955066575,629.1768596213045 316.27126195599544,630.4934600949418 330.9719016477939,628.1443259739981,C 345.6725413395924,625.7951918530543 359.7577246420643,619.7925268312223 371.72106404047895,610.9321798343715,C 383.6844034388935,602.0718328375206 393.50346142019856,590.3894403383249 400.42777257266846,577.2106257660637,C 410.46763894687524,558.1020770075703 414.31418019379373,536.0217850193877 412.7841091135966,514.490541791065,C 411.2540380333995,492.95929856274233 404.52937157382905,472.0080976273451 394.95212643122727,452.66353953091505,C 375.79763614601706,413.9744233380406 346.07095539164004,381.7517109206471 319.17815732470945,347.98013082727203,C 289.12265068297575,310.2368678439233 262.29140294816267,268.9312636810203 248.7951464709062,222.60914756763842,C 235.29888999365244,176.28703145425763 235.31892583949298,125.96034640442821 250,80M 250 , 80C 250.07546418881358,127.95327660931233 239.6037664542411,175.78916254312153 220.35768593455094,219.7108066043656,C 201.11160541486137,263.63245066560876 173.04609178887068,303.0828588307734 143.22385915659788,340.6349143436147,C 118.87758237947347,371.29166457217366 93.30821213032706,401.3058525988584 74.13248526019844,435.4360302498292,C 54.95675839006881,469.5662079007996 42.73436814685417,508.9405726081586 47.599264484941614,547.7852673695321,C 50.47220920264476,570.7248436461622 59.34568331172177,593.0205854809747 73.846648254789,611.0261398135201,C 88.34761319785623,629.0316941460655 108.44805743728578,642.5593943658167 130.7344568705716,648.7071070626127,C 153.0208563038579,654.8548197594084 177.32862466506737,653.529096426349 198.74286290754378,644.8165553735455,C 220.1571011500202,636.104014320742 238.514870687723,620.0641415411326 250,600,C 256.5532259855046,620.1819305351257 270.1430576331184,637.9998614374132 287.8629176846752,649.6729780176148,C 305.58277773623195,661.3460945978164 327.29302156021663,666.7887922899174 348.43698093341897,665.0032747273872,C 369.58094030662096,663.2177571648572 389.9907653422975,654.2562216199108 405.88775175223594,640.2012967170892,C 421.7847381621744,626.1463718142677 433.1053154312943,607.1618401217588 438.6945021575467,586.691957789884,C 444.88752696569367,564.0105740197345 444.1217317258477,539.7138547994907 438.2168463500291,516.9557561376612,C 432.3119609742105,494.19765747583165 421.4442913542517,472.9446393516057 408.2413593776748,453.49004315366295,C 381.83549542450737,414.580850757771 346.7197267070734,382.5081962933173 316.2710324903054,346.674246964399,C 285.12766237630365,310.02275909919234 258.70393440551084,268.4196531387871 245.94019554752956,222.04802350216187,C 233.17645668954935,175.6763938655368 234.2834304339417,125.45580827426006 250,80M 250 , 80C 247.2405737122425,155.80066265479093 217.45224473778418,228.38158185002143 176.79730690042578,292.41696989275533,C 151.3046108861158,332.57038712493534 122.21823573946624,370.9715115102624 104.15551499302072,414.97051814377033,C 95.12415461979042,436.9700214605297 89.06938421125092,460.3842453874173 88.43303004170588,484.1568907965039,C 87.79667587216083,507.92953620559047 92.76015367690546,532.0255463593048 104.14836551194408,552.9026210484357,C 117.71190264997422,577.7675411940272 140.605509421904,597.6042257904845 167.5059602835172,606.4698637812498,C 194.4064111451304,615.3355017720152 224.8341869790517,612.9967553080004 250,600,C 264.324604419643,610.7520048277299 281.5263420681128,617.6302372665639 299.3136188715215,619.7308761012288,C 317.10089567493014,621.8315149358937 335.4184297505933,619.1479441722915 351.8920365561764,612.1179954946817,C 368.3656433617594,605.0880468170719 382.9430667857994,593.7473527199403 394.0086487179212,579.6635749562051,C 405.074230650043,565.5797971924701 412.61338614314366,548.8180323116011 416.29715691905017,531.2900623074803,C 420.8363732501561,509.6917456548216 419.53682932196733,487.0733309782377 414.0185449264894,465.7041872317111,C 408.50026053101146,444.3350434851844 398.8861496716155,424.18600845592573 387.3557725554894,405.367342969526,C 364.29501832322876,367.7300119967233 334.05077118406865,335.053815462812 308.5541196066614,299.02205410068433,C 286.12050338098663,267.31896148559196 267.2814970516522,232.70674611370202 256.636661818307,195.35650245750998,C 245.99182658496196,158.00625880131795 243.53304436775082,118.29532221006238 250,80M 250 , 80C 263.02652880933755,121.19873735980119 263.9032075561306,166.028693582382 253.31520754949733,207.92046686451835,C 242.72720754286473,249.81224014665406 220.7608064338744,288.0443738247832 194.88296674155143,322.6473191578144,C 169.8927853198988,356.06331878828183 141.16245478967474,386.918177228601 120.35496864157751,423.08704117243053,C 109.95122556752442,441.1714731443462 101.6649226894324,460.6311400001849 97.5946178213696,481.0937197001831,C 93.5243129533068,501.55629940018133 93.80029604735383,523.0320730577881 99.74043057591336,543.0320568447908,C 104.19910834730422,558.0440877525918 111.83353056059504,572.1428047262019 122.23544096930058,583.8492618886031,C 132.63735137800614,595.5557190510043 145.79243838998298,604.8267132913737 160.3817325188764,610.5182312142575,C 174.97102664776978,616.2097491371413 190.95798976618048,618.2997415427068 206.51261810121235,616.4846887046622,C 222.06724643624423,614.6696358666176 237.1524442874522,608.9543951029005 250,600,C 273.1687887790591,615.0360497577994 302.42909119293813,620.3124780210467 329.41802458008056,614.4411033581534,C 356.4069579672229,608.5697286952602 380.65342277826636,591.7187916805058 396.38759108985465,569.0183178231106,C 408.5174807781443,551.5179175280847 415.7099717416278,530.7943502049163 418.1247109150343,509.6385644936591,C 420.53945008844084,488.4827787824019 418.2870178530785,466.9439117328685 412.95963628463346,446.3279654785631,C 402.30487314774246,405.09607296994716 380.0402882008037,367.93965827426905 357.6070420555294,331.7410063003233,C 333.3755511462871,292.6406772372353 308.80204198289914,253.57161290245875 289.77400412917984,211.6916097987831,C 270.74596627546094,169.81160669510817 257.0549911662803,125.455780536364 250,80M 250 , 80C 245.3155499978692,156.0603695100927 213.47309667846457,228.5326439592214 168.75336968577463,290.2357224847989,C 136.68132037463053,334.4878749508728 98.5922129161508,374.6030585235302 71.52878273356059,422.08400303445137,C 57.997067642247785,445.82447528991554 47.461724944438565,471.54230550380845 43.20426722479255,498.5347375911613,C 38.94680950514654,525.5271696785142 41.22184321370887,553.8083978626275 51.79026940773089,579.0081142103652,C 59.754199660802804,597.9975814882666 72.39293343572959,615.0792940717978 88.57927162300868,627.8082574491242,C 104.76560981028777,640.5372208264506 124.45453960364517,648.8258166666369 144.90673376103157,651.2199358622612,C 165.35892791841792,653.6140550578854 186.48350547683592,650.0849691872696 205.00124775412078,641.0784563478661,C 223.51899003140565,632.0719435084626 239.35163644477652,617.6248803164751 250,600,C 264.3862357731077,615.0018213137901 283.22828791635004,625.6728426783848 303.489048141906,630.3118099700201,C 323.7498083674619,634.9507772616555 345.33733216272896,633.5381958334608 364.86604698491016,626.4214746892644,C 384.39476180709124,619.3047535450681 401.77613891021355,606.54036244592 414.6954527672346,590.258171195535,C 427.61476662425565,573.9759799451501 436.05161734314174,554.2825919148927 439.6268288333058,533.8073315929596,C 443.61435725578576,510.9707294182344 441.6156464209127,487.29486298631167 435.37369163721235,464.9688964387019,C 429.13173685351194,442.6429298910922 418.76364846087193,421.6304484239273 406.4722114211439,401.9751347071445,C 381.88933734168,362.66450727357704 350.10896420359967,328.40513502448505 322.9249666766645,290.8462025891361,C 300.7149563321028,260.15960923238424 281.45150796002287,227.10071370674154 268.6006670612431,191.46635585448843,C 255.74982616246342,155.83199800223534 249.27814152622258,117.87387611127247 250,80M 250 , 80C 250.2728405509441,128.20470928142964 240.34327903068285,176.33157777032426 221.95959604557643,220.89399061766116,C 203.57591306047073,265.45640346499664 176.62783351384377,305.89548754469024 148.68022221681025,345.17270055252925,C 123.15299383642568,381.04833857897256 96.55770755018332,417.0800480054949 81.8108504131524,458.5677690464089,C 74.43742184463304,479.311629566869 70.2358488909694,501.3474423878699 71.20955931143455,523.3412389260858,C 72.18326973189968,545.3350354643018 78.48381071502621,567.2376416358014 90.47683354857219,585.6995646521452,C 107.35865962367424,611.6872558038685 136.0024513265752,630.0563260996582 166.84642614429043,633.0572193785838,C 197.69040096200564,636.0581126575094 229.69150912262998,623.4077196948172 250,600,C 256.72516581992875,619.6783001804647 270.1987251540188,636.9769762835981 287.62185528682454,648.3302969288249,C 305.0449854196303,659.6836175740515 326.28877797529833,665.0130410268116 347.0192116529437,663.3660823646828,C 367.74964533058875,661.7191237025543 387.8113372696381,653.1422775713536 403.5758838408498,639.5797400247844,C 419.34043041206155,626.0172024782154 430.7453589777386,607.6191315747997 436.6028991508192,587.6653706155532,C 443.4883028482502,564.210183723647 442.75914703075455,538.8598851570447 436.4351131600477,515.247151901172,C 430.11107928934086,491.6344186452992 418.40754022882675,469.71807758369 404.2890777013951,449.7625371983144,C 376.05215264650957,409.85145642755174 338.8100847589908,377.24769281375393 307.42701945667864,339.76007463019397,C 277.46580355685336,303.9708803259129 252.73529637013024,262.9223218461997 241.60829611563065,217.5931838389323,C 230.48129586113188,172.26404583166487 233.15816175289888,123.5303729780023 250,80M 250 , 80C 264.293596733394,126.86001660780477 263.18156534848737,178.0737263078332 248.05222833966772,224.6706277684903,C 232.92289133085018,271.2675292291448 204.03529519196545,312.16859359540973 171.9430049746566,349.1855217860139,C 148.62616250868584,376.0803889752963 123.61197685880802,401.7032277481923 103.62187647742068,431.1549664142557,C 83.63177609603254,460.60670508031865 68.99395029029007,494.9447160656956 69.34362261793183,530.5380687172136,C 69.55438767823105,551.9919686252309 75.30613802656819,573.4985397724535 86.71482931542376,591.6687353203681,C 98.1235206042793,609.8389308682828 115.18641547912038,624.4910968155192 135.0729515628725,632.5434210615672,C 154.95948764662523,640.595745307615 177.52409951643943,641.9395766412191 198.17551164829877,636.1229263909478,C 218.8269237801581,630.3062761406763 237.40364980742916,617.3679649066898 250,600,C 270.32770774929304,622.1607458796999 301.72046429870886,633.5594272070437 331.5553869196577,629.7922329610159,C 361.39030954060644,626.0250387149881 388.65882512907535,607.3978520765988 404.2987458641811,581.71308539117,C 415.49175435510546,563.3312907218333 420.97852907244874,541.7290383408275 421.23916081393634,520.2091432333023,C 421.499792555424,498.68924812577706 416.6883524924736,477.2952348306545 408.84935388894485,457.25218328560703,C 393.17135668188394,417.1660801955021 366.203418533582,382.7128325383526 340.7343556496065,348.0138110364827,C 312.0880801934223,308.98615884013896 285.0508400772511,268.1544019863201 268.2172774517312,222.76279590322298,C 251.38371482621307,177.3711898201273 244.7187677043275,128.12354225230428 250,80M 250 , 80C 259.28827733678895,119.43083703883106 258.2398805310014,161.16583743630562 247.56992482663418,200.2454363433415,C 236.89996912226718,239.3250352503772 216.64368860105265,275.2554700891782 192.3504493949123,307.6730815733882,C 166.5456670790743,342.1077405520064 136.14638091139304,373.0534518877034 112.20663357877886,408.8098642775407,C 100.23675991246829,426.68807047245866 89.98147170695442,445.85969789912275 83.48703059220861,466.3714108198551,C 76.99258947746279,486.8831237405874 74.36476300595824,508.7715216496059 77.28768791440812,530.0873524407104,C 79.89343471077794,549.0901183466176 86.95668187855688,567.5419227679048 98.23372439800958,583.0571843015031,C 109.51076691746229,598.5724458351013 124.9873272219231,611.0557856985736 142.6677466112162,618.4920346629513,C 160.3481660005093,625.9282836273288 180.15644394638923,628.2637314656577 199.06176353645213,625.0258433207272,C 217.96708312651504,621.7879551757967 235.88738978026367,612.9895827965063 250,600,C 256.3046053637825,625.619235132749 273.3364155171266,648.4096775988374 296.0999923072898,661.7480744027439,C 318.863569097453,675.0864712066503 347.0057452860078,678.7920174413173 372.52552046275036,672.0961730204369,C 398.04529563949404,665.4003285995605 420.5834416662014,648.5148038496538 434.89815936441806,626.352175061523,C 449.21287706263473,604.1895462733921 455.30821235423,577.1480568209646 453.56169990314305,550.8223478687195,C 450.7143635823751,507.90358870220496 427.8513313581074,468.648552713194 399.93067442485835,435.9290764195146,C 372.01001749160616,403.20960012583663 339.1215220745152,375.05351128071027 310.5845963185372,342.8701136832732,C 279.0506328599989,307.30671444091627 252.92079348486712,265.9663032406058 241.14418163000244,219.91787622843128,C 229.3675697751387,173.86944921625678 232.20886080334188,124.07518103378379 250,80M 250 , 80C 227.91785322176756,164.41134767154955 183.59990819631764,241.04540816631274 135.62210996163714,313.9222062478346,C 108.3996392010229,355.2723010395412 80.61006190782783,397.41166218448427 67.30728520396819,445.09739784582086,C 60.655896852033386,468.9402656764954 57.89390295383738,494.06153599381133 61.20500004705108,518.5923319335802,C 64.51609714026478,543.1231278733492 74.08217027471186,566.9755319438277 89.81138650263935,586.088749105111,C 108.8796770277246,609.2594126918447 137.14556021475502,624.889132396894 167.02595232648724,627.653462668004,C 196.90634443821946,630.417792939114 227.78693205704593,620.1757023957123 250,600,C 260.8889112324168,615.084467653623 275.72080873018365,627.2948055708988 292.6120537100193,635.0919457679088,C 309.503298689855,642.8890859649189 328.4082684993705,646.2516836532488 346.9577627269289,644.8283719788673,C 365.5072569544873,643.4050603044857 383.646653704465,637.2090522045463 399.2972349235988,627.1507790066287,C 414.9478161427326,617.092505808711 428.075310846018,603.220245436116 437.58714433533106,587.2316690175528,C 451.4054752642132,564.0042397020948 457.43929543847946,536.5468127947934 456.59934866834226,509.53284915211333,C 455.759401898205,482.51888550943335 448.2972891272598,455.99097187350714 437.23886605652353,431.3298481875656,C 415.12201991503713,382.0076008156561 379.79552040381645,340.0419116192662 348.22167906948346,296.1678701772429,C 301.5678719516091,231.33917083579857 263.97241722369336,158.63910944194527 250,80M 250 , 80C 260.6759126091523,120.43442901826663 260.50251814140915,163.58554175385063 250.15021569645972,204.10403128838033,C 239.7979132515106,244.62252082290985 219.30260977518358,281.96125455410095 194.70172530180884,315.7801049662475,C 165.69497270588656,355.65570488808476 130.64935609649046,391.47524312899833 107.32156842955325,434.91795814375956,C 95.65767459606182,456.6393156511565 87.18589260171841,480.3645390825815 85.15332329135153,504.9355067745887,C 83.12075398098466,529.5064744665959 87.82241410986055,554.8787196024513 100.27821338889905,576.1558635753489,C 114.98098476460919,601.2713119181685 140.78048725662393,619.903907660102 169.48812151583024,624.6818744689956,C 198.19575577503653,629.4598412778892 228.94678663201978,620.0927708011997 250,600,C 259.316514236092,613.2136014331768 272.17584184136217,623.9028670745058 286.86603203909294,630.6552749635962,C 301.5562222368237,637.4076828526865 318.0337110874212,640.2031458136479 334.1349243580294,638.7376658374814,C 350.2361376286376,637.2721858613148 365.90952129872335,631.5592059983304 379.27724821885033,622.4652202200775,C 392.6449751389774,613.3712344418246 403.6761307065973,600.9427811289186 411.42491710507824,586.7528900195101,C 422.05505464487055,567.2865521427481 426.41723449942117,544.6846926552756 425.28007185579247,522.5341848604395,C 424.1429092121638,500.38367706560337 417.68763124541834,478.71733454501594 408.25371800705005,458.64398366734486,C 389.38589153030694,418.4972819119896 359.4708932075718,384.80684053188753 332.0611006325029,349.92911398926964,C 301.95032439406896,311.6145073845738 274.523973610987,270.3713727427184 259.0057402266249,224.17773294694013,C 243.48750684226476,177.98409315116294 239.96114772198024,127.68531608255918 250,80M 250 , 80C 254.46406110133069,118.50627934892512 250.42070171375502,157.92306104198636 238.66584680856596,194.8619941204041,C 226.91099190337698,231.8009271988218 207.4373689869445,265.9368418410348 184.36236428655528,297.0849645596013,C 156.99286566657756,334.0300708696477 124.45767028538268,367.03344015212764 98.54889814689443,405.0171980131594,C 85.59451207764612,424.0090769436741 74.40237248180057,444.36084626592026 67.19058486443727,466.18967360740857,C 59.97879724707397,488.0185009488969 56.861539679681364,511.37038586664136 59.723522138879304,534.180836106514,C 62.38087057337783,555.3603209912783 70.2682671048454,575.9626706169117 83.0915044508898,593.0271560956276,C 95.91474179693418,610.0916415743434 113.65467476880009,623.4863482314098 133.7220210014263,630.7619029089718,C 153.78936723405266,638.0374575865335 176.07483140364897,639.1226239201483 196.7165255377195,633.6863987627645,C 217.35821967178998,628.2501736053807 236.24146282396111,616.3197651779016 250,600,C 258.569006011283,615.1362900367852 271.52804669147343,627.7514656044299 286.88430594941354,635.919723784851,C 302.2405652073536,644.0879819652722 319.933042024725,647.7776435022552 337.280248535094,646.5089566276882,C 354.62745504546297,645.2402697531213 371.55626119038317,639.032059684646 385.7407124404978,628.9654573366735,C 399.92516369061246,618.8988549887009 411.3248630765063,605.0407382289583 418.86311912463293,589.3656039120866,C 428.71251553326795,568.8846583644972 431.9087902666774,545.5067739227225 429.5136410575786,522.9071500231106,C 427.1184918484798,500.3075261234988 419.32644484499485,478.50346633258147 408.6623686633075,458.4346542270053,C 387.33421629992307,418.2970300158391 355.37197685615547,385.0493824221711 326.6604059566853,349.81353906576436,C 295.8888234554001,312.0495774685205 268.5222531128976,270.606660277143 253.89502586842914,224.1410675413327,C 239.26779862396256,177.67547480552304 237.5275508019866,127.089755745325 250,80M 250 , 80C 264.9100440738081,122.47153589271556 266.40578267339856,169.3786182527935 255.1994377628855,212.9740149033086,C 243.9930928523736,256.56941155382253 220.23280528311236,295.9676630337733 192.68176117083914,331.5637406785444,C 168.11692985355694,363.3016174478361 140.45890176620634,392.94295044830693 120.42722364935753,427.7201790798733,C 110.4113845909299,445.10879339565696 102.42976000612168,463.8105112590037 98.40541052005842,483.46974702953725,C 94.38106103399517,503.1289828000708 94.4279086379557,523.7553055789978 99.78311097753316,543.0944562265724,C 103.99062687686875,558.2889864552279 111.46879830186366,572.6099712366413 121.81894988309612,584.5033013488596,C 132.16910146432858,596.396631461078 145.3765571626241,605.8149170137643 160.0637097879831,611.5476726052839,C 174.75086241334208,617.2804281968034 190.87787878840098,619.3032745562062 206.51723486897836,617.3064069347565,C 222.15659094955575,615.3095393133068 237.26760500217543,609.2985513136218 250,600,C 257.1741061057248,618.4500674485553 270.4216068256304,634.4776295376747 287.18318333595926,645.0095970727949,C 303.94475984628815,655.5415646079151 324.11383739972916,660.5147140464792 343.85913801003164,659.1019539531776,C 363.6044386203339,657.689193859876 382.7971201712619,649.9268119545659 398.1829875269398,637.4709750502905,C 413.56885488261776,625.015138146015 425.090390774594,607.9883242214764 431.55017256648733,589.2761889485165,C 439.32336844996274,566.7594697216618 439.784090155673,542.0439128777676 434.651224816428,518.782809886012,C 429.51835947718297,495.5217068942564 419.0012822098559,473.69287158631255 405.9274764387932,453.7805432030116,C 379.77986489665005,413.9558864363969 344.13844395964213,381.4287297087121 313.4275036588833,345.0070463074645,C 282.64987172870144,308.50626987327996 256.62646690808515,267.0467245853425 244.3437984702725,220.9088294927525,C 232.06113003246108,174.77093440016267 233.73426998262877,124.88869940786904 250,80M 250 , 80C 245.7989578906503,126.56859221083516 232.93679895720248,172.25873470906973 212.99895342077005,214.55252681463705,C 193.06110788433807,256.84631892020366 165.93792237203292,295.3034141173505 137.7939290942279,332.6423773820473,C 114.57011369569139,363.4536834206935 90.60771296154473,394.0712839752523 73.28224078960598,428.54606019630694,C 55.956768617666356,463.02083641736135 45.87944059348813,502.3468865074074 52.29353645311829,540.393457388052,C 55.93250903126696,561.9787955490596 64.86990880872558,582.7555542386536 78.71172427695443,599.7135343510688,C 92.55353974518326,616.671514463484 111.27549013983347,629.6748147695555 132.13502847277672,636.3117271153711,C 152.99456680572013,642.9486394611865 175.87591168855312,643.1494213211807 196.80295444377057,636.7285314707883,C 217.72999719898803,630.3076416203959 236.5853647988871,617.297875805157 250,600,C 272.65073504582574,617.02966027589 302.1489404476831,624.6236098214177 330.22310238049243,620.7627085019295,C 358.2972643133017,616.9018071824413 384.4840172377229,601.7067098961954 402.4654730137973,579.8039161154582,C 419.0136473364219,559.6469691947083 428.6344530744789,534.2189706443588 431.30851110668647,508.27684281686004,C 433.982569138894,482.33471498936126 429.9485266913359,455.9826018594896 421.88571442419493,431.1806736900359,C 405.7600898899125,381.5768173510972 374.7973539264379,338.41686853850473 346.23550493656296,294.7728642241169,C 302.9981005794351,228.7038410676106 266.1919626084735,157.28136452782482 250,80M 250 , 80C 260.24136907376374,119.7559487328667 259.88701582532036,162.11685602140415 249.48671615096725,201.83152417863568,C 239.08641647661426,241.54619233586715 218.69191484129308,278.1535370046694 193.47194884490904,310.5475860769387,C 163.68438232136728,348.80853741388523 127.20947798312261,381.4234353832897 96.97419242513708,419.33157466537114,C 81.85654964613839,438.28564430640887 68.37792509118759,458.7369335950998 59.0255626223007,481.1050626049494,C 49.673200153413816,503.473191614799 44.5745760205652,527.8309499571983 46.078367816391506,552.0288525395612,C 47.582924524204095,576.2390635183548 55.86670547759332,600.1539928703378 70.62148527581978,619.4074206075114,C 85.37626507404624,638.6608483446851 106.57266713914288,653.0047905252455 130.08649555231978,658.9628002500106,C 153.60032396549772,664.9208099747752 179.20907817055596,662.3717631777247 200.9920601458729,651.699382806515,C 222.77504212118984,641.0270024353053 240.51578622138376,622.3259422091492 250,600,C 260.3411505337937,617.8511862284068 276.00530458656016,632.5711892829949 294.457856913052,641.7965649805979,C 312.9104092395438,651.0219406782008 334.06940214265524,654.7131519180738 354.5680586103887,652.3873558948395,C 375.066715078122,650.0615598716053 394.8096232249988,641.748737392156 410.9829957416137,628.9414634604154,C 427.1563682582286,616.1341895286748 439.71366573886206,598.924449924937 447.51494866367597,579.8261717603787,C 457.92567695762347,554.3397246247376 459.80463024943055,525.7866129353224 455.0526230941369,498.6690784012933,C 450.30061593884324,471.5515438672641 439.18717339565757,445.8475097422482 425.13063058219535,422.17567298754045,C 397.0175449552388,374.831999478099 358.0684752471933,334.9530990272205 325.8729734198199,290.28522839383606,C 281.5882067644092,228.84477504725237 251.43776128567288,155.7231979491313 250,80M 250 , 80C 266.42488321467494,122.11521124316744 268.8043652321846,169.40492022791616 257.6192400469154,213.20401589508933,C 246.43411486164732,257.0031115622616 221.90722443830927,296.3714846064287 192.8954616547621,331.03826159627033,C 167.6171254514024,361.2438871687036 138.93977302089738,388.6591787721223 115.92732738401357,420.62480786403273,C 104.42110456557005,436.60762240998736 94.41115345984524,453.78579592457527 87.59130811193101,472.2610018446342,C 80.77146276401679,490.7362077646932 77.21846570118754,510.54078090169145 78.43280550253426,530.1970497033973,C 79.65021815130446,549.9030580548095 85.74853642002736,569.3843369265754 96.64525227761222,585.8485539508488,C 107.54196813519708,602.3127709751221 123.22735455344392,615.6314219110462 141.39911756976846,623.3512591879488,C 159.57088058609318,631.0710964648512 180.12732231730953,633.1169199420638 199.43454549565212,628.9889674417327,C 218.7417686739947,624.8610149414017 236.6873487966936,614.5801981002462 250,600,C 262.8891357577855,616.1439516747118 281.1760908708833,627.8958223286586 301.210416596069,632.9339558119256,C 321.24474232125476,637.9720892951925 342.886317606952,636.2662275954888 361.9482578582939,628.3038516867334,C 381.0101981096357,620.3414757779785 397.36648350357564,606.2164405465334 408.4075310525544,588.7564214950193,C 419.4485786015332,571.2964024435051 425.1682424931925,550.6595941781377 425.5898361867038,530.005799005927,C 426.0000282322751,509.9105684061858 421.50483002623724,489.870888030686 413.75484219885817,471.32569353058705,C 406.00485437147904,452.7804990304881 395.078139116669,435.689423926831 382.73648145732284,419.82531233523764,C 358.05316613862664,388.09708915205124 327.99272472973155,360.9689005872973 301.86684363722634,330.41755792245607,C 272.5205484043527,296.1002953417706 248.19646703960484,256.4888392619396 237.9019285314003,212.5240575403185,C 227.60739002319696,168.55927581869742 231.60826410082774,121.23861789078006 250,80M 250 , 80C 244.55458297039567,156.20339871547412 211.91539199579788,228.51312308647044 166.63290571785643,290.04447264833095,C 135.7445584237213,332.0165870564884 99.60470236079512,370.2816235213317 72.86827997332958,415.01317954583857,C 59.50006877958741,437.378957558092 48.66987907863292,461.47808973021114 43.19854414577793,486.9535993554652,C 37.72720921292294,512.4291089807193 37.80060565229959,539.31373563453 45.30488297462222,564.266148713901,C 51.60609360887494,585.2182542788322 63.168126627118234,604.6561002345808 79.06784699290208,619.6858998124567,C 94.9675673586859,634.7156993903326 115.16225178602475,645.220708570834 136.66576640228377,649.2573956047238,C 158.1692810185428,653.2940826386134 180.8696818140889,650.8159103333119 200.94387860956718,642.114036622573,C 221.01807540504547,633.4121629118342 238.36411972485516,618.5284179919315 250,600,C 262.4902300711911,617.3070436421294 280.9726197074307,630.1962678393369 301.52337603531464,635.9587344304589,C 322.07413236319866,641.7212010215809 344.53020541828647,640.31786025044 364.2739265766111,632.210759555112,C 384.01764773493557,624.1036588597846 400.9026079549384,609.4021142693105 412.0821298630795,591.2208630261413,C 423.2616517712206,573.0396117829721 428.73323333188495,551.5612607742574 428.61196112676214,530.2182314692569,C 428.49882121601553,510.30642704404056 423.6398391134668,490.5690580114855 415.66046551368913,472.325638566035,C 407.6810919139115,454.08221912058457 396.65259043738143,437.2926248532483 384.26664950378057,421.7015625643336,C 359.4947676365756,390.51943798650467 329.55758424891513,363.83969301785095 303.3778857221817,333.82978782840803,C 273.21347812711485,299.25219286109314 248.1002878016944,259.2003732379202 237.46886185855408,214.56323240541917,C 226.83743591541523,169.92609157291815 230.98877561712322,121.7621228716751 250,80M 250 , 80C 231.08522776523833,155.46411232836005 194.82638504887166,225.33152423051138 154.5356737522124,291.88420593012063,C 130.27096347551492,331.9649463193375 105.06077797715722,372.26290851934607 91.72952932540039,417.1797174481302,C 85.06390499951885,439.63812191252526 81.57224572803713,463.1893560829528 83.18666065036265,486.56036682700744,C 84.80107557268816,509.93137757106206 91.65607370380923,533.0747368811337 104.14627785470383,552.8940526869106,C 118.99036296751486,576.4484803923618 141.9294845462677,594.9579188965718 168.38002559410495,603.6485348496778,C 194.8305666419422,612.3391508027839 224.44693744274463,611.0543620943363 250,600,C 258.0778951029217,617.1072477379364 271.43949144170307,631.6722348806696 287.7820089560954,641.2028400950679,C 304.12452647048775,650.7334453094662 323.3661858412852,655.183887626723 342.24074449877935,653.8949539799635,C 361.11530315627334,652.6060203332039 379.5241499843157,645.6035164356076 394.6471817454229,634.2367128033866,C 409.7702135065302,622.8699091711655 421.55726555657094,607.2301773887939 428.80995142035886,589.7570877300603,C 438.8778444254755,565.5016325156989 440.11211503413153,538.0597294051905 434.54465345919647,512.3947153036944,C 428.9771918842614,486.72970120219827 416.9282746803766,462.8132671244291 402.0677203124275,441.1602419063308,C 372.3466115764822,397.8541914700911 332.2001482531281,362.7479960498133 300.0253269249259,321.23246664962033,C 273.7362708172072,287.31140550025214 252.6709950877306,248.73760597384094 243.17866040057044,206.88490662575956,C 233.68632571341053,165.03220727767817 235.8614037308968,120.51978474860462 250,80M 250 , 80C 229.6304270255842,165.1597597312811 185.17492387088816,242.4097342133382 135.5046525777263,314.52054013251563,C 106.95862312565605,355.96338181606313 77.26115092817014,397.71663654519296 61.627835392882346,445.54951613298454,C 53.811177625232254,469.46595592688607 49.781839146612406,494.82240780520385 51.89638224798342,519.8948017584012,C 54.01092534935442,544.9671957115985 62.46272344682146,569.6822869639198 77.4398831248653,589.9006182266688,C 97.13462942921376,616.487428641779 128.4586984919424,634.4799183134244 161.47493862225855,636.6407995454596,C 194.49117875257468,638.8016807774948 228.22270553815616,624.9096560787941 250,600,C 263.170089508358,611.5310609223511 279.65478137687694,619.2290838884023 296.9486375501139,621.9381727227757,C 314.24249372335095,624.6472615571489 332.2759180603549,622.3572861559927 348.3839999463866,615.5055475732656,C 364.4920818324182,608.6538089905386 378.6102351381393,597.2855844005568 388.9677829598159,583.1739641259458,C 399.32533078149254,569.0623438513347 405.90868738124624,552.2882415118052 408.46128973738575,534.9705960348773,C 411.2834825767004,515.8239651696255 409.22563874369325,496.11129661104314 403.6550648203922,477.5768165245252,C 398.0844908970912,459.0423364380072 389.0896128453005,441.66315764727335 378.40633294678736,425.5254447819842,C 357.0397731497573,393.2500190514048 329.3080688555748,365.7801059650509 304.6088289890901,335.97774811088,C 275.17363502586375,300.46093914262195 250.00782589201359,260.3166437176651 239.05467305242777,215.50701522318678,C 228.1015202128442,170.6973867287089 231.6368394664514,122.31629353050106 250,80M 250 , 80C 266.34281642007653,122.57512249041147 268.74417379909346,170.23197670123352 257.5633238099296,214.44416164083674,C 246.38247382076636,258.6563465804396 221.8301292344672,298.57589124473674 192.00204549037846,333.07247257926105,C 163.9052042597334,365.56684858651045 131.20801620656133,393.8781447062613 103.5194020280702,426.72106790312733,C 89.67509493882307,443.142529501559 77.14010091107788,460.7989245890615 67.74492359899337,480.1136827569661,C 58.34974628690885,499.4284409248707 52.16675501171933,520.4541705159133 51.071686057657644,541.9048130190179,C 49.79614094686561,566.890693649411 55.67332939024587,592.4061365952415 69.00987971728944,613.5735094029413,C 82.346430044333,634.7408822106412 103.14547836682591,651.2414465759683 127.02176870355021,658.7143312908803,C 150.8980590402769,666.1872160057924 177.57525141426996,664.4538392426081 200.17061576285823,653.7127612631601,C 222.7659801114465,642.9716832837122 240.993429911774,623.341014147888 250,600,C 259.4599664279677,621.966614629216 276.879535906355,640.3975896683497 298.26550909113695,651.1056835242397,C 319.6514822759189,661.8137773801296 344.80557134587286,664.7099140866669 368.11401194424076,659.3489701437483,C 391.4224525426085,653.9880262008305 412.67712522399387,640.4777280339746 427.88138886532886,622.0155101224798,C 443.08565250666385,603.553292210985 452.2045681933419,580.3685502950485 454.8059616207582,556.5934398784271,C 459.2496679044819,515.9807411450665 444.88162892494046,475.23095307840623 423.4642965835877,440.439636642796,C 402.04696424223334,405.6483202071858 374.1493138438767,375.4043327798249 348.1967114930183,343.85119893925366,C 317.5518223107507,306.593190018786 289.51392017882375,266.5647682131405 271.59624923608385,221.77385920585638,C 253.67857829334488,176.98295019857272 245.90528234497313,128.0676788397011 250,80M 250 , 80C 242.5764954083494,156.09142009350785 209.63091636085483,227.91958040474637 165.0099131023863,290.0000016378267,C 132.67624263221694,334.98527171731035 94.69882915102762,376.3475499483991 69.01289390579313,425.4329194669757,C 56.1699262831554,449.9756042262718 46.68149933197831,476.55945988466874 43.93227944327185,504.1226052522397,C 41.18305955456542,531.6857506198106 45.456230013808906,560.213324338209 58.160547913218,584.8280658412405,C 67.06859104154839,602.0874874518745 80.05494134939241,617.2835705059274 95.98005062117898,628.4025525362877,C 111.90515989296554,639.5215345666479 130.72919329114603,646.4997125364015 150.07580632358187,648.2171032557776,C 169.4224193560177,649.9344939751537 189.22209102753925,646.3724586185369 206.72059306406825,637.9437402588214,C 224.21909510059726,629.5150218991059 239.35780987205612,616.2476046231593 250,600,C 261.97961277197027,609.1535472387362 276.2583570654524,615.2717789143219 291.14768147764437,617.6395981149012,C 306.03700588983634,620.0074173154806 321.50107436915084,618.6186586805441 335.750401440885,613.6936990643776,C 349.9997285126192,608.7687394482111 362.9980878498444,600.327387178048 373.4150648123444,589.4285275963821,C 383.8320417748444,578.5296680147162 391.65201793181524,565.2143835383719 396.4107061713999,550.9086701532741,C 402.68013836716494,532.061312317589 403.6066645209188,511.62713448740993 400.2960594680086,492.042227757295,C 396.9854544150984,472.45732102718006 389.5590928389054,453.7211893618401 379.94878904320984,436.338130413597,C 360.72818145181384,401.57201251710586 333.3359338165491,372.1744295676008 308.6359747499668,341.061301600707,C 279.4648655556837,304.3161211390118 253.89844009592056,263.64921129727696 242.18868452467188,218.21746553235016,C 230.47892895342605,172.7857197674243 232.85429608263763,123.67134914294871 250,80M 250 , 80C 234.69142927938165,156.3952748063234 198.54184676452118,227.12510771351526 154.979300236399,291.7230557476985,C 124.65534232704692,336.6897900949324 91.05697542325899,380.52776984853307 72.73282106934653,431.57456199414054,C 63.570743892375546,457.09795806696184 58.5799509876451,484.3928729294754 60.77623266951667,511.4218157882103,C 62.972514351388234,538.4507586469452 72.6369599900201,565.1028964407692 89.81333191968184,586.0876445360124,C 108.8319866043338,609.3231496416275 137.11600392646136,624.9943928367184 167.0152853449008,627.7568001542701,C 196.91456676334022,630.5192074718218 227.81363167562458,620.2327206302625 250,600,C 262.9369303215877,609.474338643841 278.32510360044427,615.5690727371855 294.23967037480554,617.5321884414143,C 310.15423714916676,619.4953041456431 326.55160576281713,617.3210743173609 341.433217394009,611.34906509582,C 356.31482902520077,605.3770558742792 369.63838283182025,595.6342262259091 380.001772778155,583.3979111063969,C 390.36516272448966,571.1615959868848 397.75410767110714,556.4830738855591 401.808995515643,540.9690433502009,C 410.7666727321557,506.69690483714027 402.9922370838186,469.7901581644868 387.51233397544223,437.9280794637974,C 372.0324308670646,406.0660007631072 349.64497025552356,378.17241393557765 328.238965343855,349.9482680123552,C 298.8423620850424,311.1883955631263 271.2701334656845,270.13800811038675 256.1344320929088,223.90600037342293,C 240.99873072013693,177.67399263646206 238.39573330545284,127.24223735089144 250,80M 250 , 80C 238.31837480058238,155.12808513563778 205.39977990740675,225.35318405248591 165.38529741474403,290.0024743370025,C 140.92113408742713,329.5279335705574 114.35442435713266,368.3787864434396 98.65733685828508,412.1321709866103,C 90.80879310885723,434.0088632581985 85.87570615314954,457.0886793156858 85.93801168049313,480.3305686914167,C 86.00031720783672,503.5724580671477 91.19954757613414,526.9439848573876 102.22720943404082,547.4032120588271,C 115.88860854116002,572.7487179170444 138.72571194769594,593.2179430809833 165.79424819294425,603.0323629982583,C 192.86278443819253,612.8467829155334 223.7282975354903,611.7824506105139 250,600,C 256.8997480997159,620.3159537584817 270.8420375054996,638.1614025269388 288.87489650973635,649.787257209052,C 306.9077555139731,661.4131118911652 328.8922649866991,666.7359133772139 350.25967843537114,664.7921686743774,C 371.62709188404284,662.8484239715411 392.21151253169654,653.6903923175487 408.23288439546866,639.4194377398404,C 424.2542562592408,625.1484831621322 435.6493809639084,605.9267585511739 441.2530781054183,585.2158174981334,C 447.97129394037427,560.3856797112988 446.4222108159964,533.7077652061635 438.9955078944573,509.08025517706284,C 431.56880497291826,484.4527451479623 418.5082952975772,461.8125549271717 403.09924636898455,441.2156770658432,C 372.28114851176457,400.0219213431718 332.65269354922026,366.176069535666 300.59399203574736,325.94026056720656,C 273.2592569912985,291.63334464328733 251.40842718914732,252.3009387900567 241.7591941333606,209.51023277115354,C 232.10996107757418,166.71952675225037 234.78302969333095,121.14117201596267 250,80M 250 , 80C 229.27278394044373,156.83563246198156 190.89940748887716,227.62419544630922 148.47970159707214,294.9584397315539,C 121.60693608635802,337.61449590822076 93.55914761043222,380.6166146349686 79.91346716346823,429.149902797632,C 73.09062693998052,453.4165468789718 70.14700366057163,478.97537423796433 73.37467716846308,503.97543998612025,C 76.60235067635452,528.9755057342762 86.19191146459622,553.324920986089 102.0917783073311,572.8854781885044,C 119.36046036990008,594.1299984499717 144.0943811072827,609.3417847128608 171.0006271355842,614.4005341613407,C 197.90687316388573,619.4592836098207 226.62855578912516,614.2587733278832 250,600,C 259.6100922375733,617.065579915693 274.22255498196967,631.2722452145266 291.54622163875814,640.4089001953193,C 308.8698882955466,649.5455551761121 328.83303276281094,653.5754089313375 348.35239620187843,651.968442345759,C 367.8717596409458,650.3614757601804 386.86190745000664,643.1408463838559 402.67216190894186,631.5812726625941,C 418.482416367877,620.0216989413323 431.06711103331946,604.2024030124272 439.24121333586606,586.4043148504625,C 450.9227399301066,560.9692477941257 453.4642201889034,531.8399785394278 448.79057213134206,504.2436433920509,C 444.1169240737807,476.6473082446741 432.5594848544287,450.5673312727088 417.925705631186,426.708303518467,C 388.6581471846523,378.9902480099352 348.07635941933745,339.2822783862091 315.63324756165343,293.66378112987246,C 293.5807808004944,262.6556460640084 275.08840672811954,228.87918927500476 263.4891617307519,192.6400771721133,C 251.8899167333843,156.40096506922185 247.16170855570883,117.944167301341 250,80M 250 , 80C 257.4833798687231,128.38278518379448 252.02940850911673,178.5693625523195 235.2631618926023,224.5670565248985,C 218.49691527608874,270.5647504974766 190.48721711605134,311.6442753486482 159.41066570536054,349.4747237839944,C 131.279059080048,383.72019973073026 100.46088673794131,416.1905941162111 78.08730568358213,454.44713322972495,C 66.90051515639966,473.5754027864816 57.96961794616289,494.17469764165355 53.36491808233072,515.8502995410017,C 48.760218218498544,537.5259014403499 48.60154503325101,560.2957627135848 54.29635600111274,581.7108066447872,C 59.92332223654731,602.8707239469082 71.35618932446279,622.5731248345661 87.52665719679253,637.3352662116588,C 103.69712506912225,652.0974075887515 124.54567387557972,661.752222529318 146.3143722840557,664.1035240514833,C 168.08307069253192,666.4548255736481 190.60453256919092,661.4450085042631 209.24121769916914,649.9524536702248,C 227.87790282914736,638.4598988361865 242.48735773032809,620.5661142507589 250,600,C 258.0508213022173,623.1047139511448 274.80500500498687,643.0538197629635 296.15720644744823,655.0006613524805,C 317.5094078899096,666.9475029419975 343.2340032676708,670.7785675953414 367.1865782351909,665.7868060996573,C 391.1391532027107,660.7950446039742 413.077429858924,647.0982966520392 428.55302251791295,628.1470549445022,C 444.02861517690184,609.1958132369653 453.00094437046937,585.2515230761078 454.98752375217515,560.86511225441,C 457.0288912894541,535.8061451370497 451.87388681957026,510.4524591140068 442.10702419672026,487.28508099481576,C 432.34016157387026,464.11770287562473 418.11345085666443,443.0511736397346 402.17907676430906,423.60342989666583,C 370.3103285795794,384.70794241052965 331.9149935318541,351.4374310575866 301.1907830184768,311.63166582218935,C 276.04950915726937,279.0590584771459 256.1090820208836,242.0050116015716 246.61258911848597,201.96908994147586,C 237.11609621608852,161.93316828138012 238.12425894500956,119.39575072280542 250,80M 250 , 80C 239.476709023789,155.16186227467074 207.03253506886801,225.58803469260369 167.00087094335078,290.066799110886,C 142.37390543756194,329.7333066586635 115.4344247902707,368.5823456686222 99.41114839538363,412.43635192385796,C 91.39951019793563,434.36335505147906 86.31912094059004,457.5236704802997 86.3032994180663,480.8684678117168,C 86.28747789554255,504.2132651431339 91.48343908218828,527.7093731059291 102.59826875447696,548.2383860905205,C 116.26060692192328,573.4726295210402 139.0916978700099,593.8108382157271 166.10987414512093,603.4775168841952,C 193.12805042023192,613.1441955526633 223.89558984659948,611.9158002775905 250,600,C 259.28275383031183,614.198267824753 272.4371962901134,625.8364152663463 287.6568061525143,633.3279974446243,C 302.87641601491526,640.8195796229024 320.1130709548316,644.1409858881182 337.0319680569132,642.9116573125286,C 353.9508651589947,641.682328736939 370.49428050833046,635.9164701705208 384.62030662940816,626.5241480974541,C 398.74633275048586,617.1318260243875 410.42039655894376,604.1647275015857 418.6174953354213,589.3131989760011,C 429.4892898048419,569.615648648777 434.1695761915621,546.7767948473054 433.3883199475192,524.2917099562048,C 432.60706370347634,501.80662506510436 426.53521133434253,479.7077158426081 417.43742835370534,459.13055013116764,C 399.24186239242516,417.976218708276 369.7993727674273,383.0339340350171 342.4739487748401,347.28370579599965,C 313.0636649909223,308.8058268018948 285.7794866516519,268.07468844223126 268.7330800894706,222.7433307805378,C 251.68667352729068,177.41197311884522 244.86940478396005,128.15795839593466 250,80M 250 , 80C 230.86539716385352,169.89135735148446 184.09802655252358,250.8710959280529 136.55105615194134,329.5214281455045,C 117.8408776542269,360.4710710416803 99.80816298356018,392.26365259382425 89.29677895815274,426.86801620143234,C 78.78539493274474,461.47237980904055 76.56016662496005,499.50214879323426 88.99325383265904,533.4634431929315,C 100.31547670830011,564.3903833740084 124.12942973121233,590.8960815128934 154.45369176244444,603.7454975335057,C 184.77795379367655,616.5949135541181 220.81672602089378,615.2644973605428 250,600,C 260.53102024149916,616.3653977029072 275.62526576200264,629.7585513220564 293.1227007469331,638.2772600416523,C 310.62013573186357,646.7959687612482 330.46049295128626,650.411230749889 349.845824486825,648.6973023504411,C 369.2311560223637,646.9833739509932 388.0899766554535,639.9594962678839 404.0102949136566,628.7669944984532,C 419.93061317185976,617.5744927290225 432.8718602211831,602.2790175115955 441.68848717016544,584.9297893286571,C 454.2624318214324,560.1869669117863 458.31150754478256,531.5585867074112 455.3105512547172,503.966819700004,C 452.30959496465186,476.37505269259674 442.5478062284794,449.8310233007355 429.4660744727763,425.35287713894945,C 403.30261096134217,376.3965848153423 364.97460403070556,335.20925067406563 332.6076080696371,290.11354185998005,C 288.14276301312435,228.16235839073215 255.92834302470132,156.02582671777776 250,80M 250 , 80C 222.69390070364878,161.1377059190244 179.1912942127446,235.55846210298537 136.74902409581557,309.9063207668764,C 116.48905834175717,345.39653055697875 97.18152071261201,382.03703733648 87.56963808509967,421.7564647701179,C 77.95775545758607,461.47589220375664 79.28386545117355,505.03553921129696 98.35942779964309,541.1761552048138,C 112.22791413693123,567.4514298190611 135.31531559013538,588.9464051045372 162.94959519820586,599.858396668163,C 190.5838748062763,610.7703882317888 222.3498962689697,610.8718320905413 250,600,C 278.3573427540278,612.0182449179644 311.5108247190473,612.1230141182765 340.0083902392497,600.4411538897273,C 368.5059557594521,588.759293661178 391.83938074971206,565.5893639590181 404.92364872412554,537.7078462357784,C 413.9359606712787,518.503337754808 418.27582409450645,497.2454567276731 418.53289037911384,476.0329879992628,C 418.7899566637213,454.82051927085246 415.04616277303006,433.67174714398334 408.774796113588,413.40589229274883,C 396.23206279470253,372.8741825902777 374.12309128551885,336.07383683823343 352.15704123081025,299.7746316746475,C 310.1657734405083,230.38347391970217 270.94174133239306,158.357149100613 250,80M 250 , 80C 260.8451598611499,120.40058726729197 260.8575020731854,163.57385034865752 250.5959150747202,204.1265910233505,C 240.33432807625513,244.6793316980434 219.8459446221608,282.11170676071407 194.6624857923144,315.5125801822489,C 162.6925607980733,357.9143576840376 122.90447610623168,394.31166924310116 94.12768475180623,438.9421870396993,C 79.73928907455988,461.2574459380086 68.3347098701694,485.8314544191556 63.61826439367039,511.96097511760667,C 58.90181891717137,538.0904958160577 61.204252790212294,565.7870161486734 72.35623515368978,589.8832814034439,C 80.10703744864071,606.6305629134698 92.06604357232501,621.4734106687978 107.06226239189964,632.227935079803,C 122.05848121147426,642.9824594908082 140.04666375940414,649.5726840542235 158.45898748263164,650.8107104281529,C 176.8713112058591,652.0487368020823 195.62456252349168,647.9135538588349 211.7663561652196,638.9699040323188,C 227.9081498069475,630.0262542058027 241.36938520835315,616.3113108764953 250,600,C 260.8328907198067,621.0701405586492 279.5601061758295,637.9561333821755 301.62413927031173,646.5863586465646,C 323.68817236479396,655.2165839109537 348.8574666055952,655.5127800495112 371.1963842413419,647.6213224292845,C 393.53530187708867,639.7298648090592 412.8276163096801,623.7993774957818 425.3472675198479,603.6856837006522,C 437.86691873001575,583.5719899055227 443.6140584276932,559.5325822269403 442.8044817217961,535.8545981475099,C 442.059085359953,514.0537199107795 435.9228970186549,492.62170450727456 426.403828292566,472.9946507748115,C 416.8847595664771,453.3675970423484 404.066456636018,435.4863769867438 389.9233565730649,418.87895008676037,C 361.63715644715296,385.66409628679526 328.2671991586606,357.04245779642923 300.2198926979814,323.6256322317988,C 272.1170599969821,290.1426502007757 249.4824100512074,251.29532018176147 239.76315340405887,208.67589571665363,C 230.0438967569108,166.05647125154573 233.42146681865657,120.44788658342071 250,80M 250 , 80C 264.52358035168555,122.62805622249829 266.1067457725378,169.45305417555727 255.21166594707208,213.14953915017588,C 244.3165861216067,256.84602412479427 221.07586744372907,296.7042260889801 192.65186827969612,331.6350410674968,C 161.15857112935169,370.33777707144867 123.2228495129387,403.65059870313416 93.87350280391304,444.0033605335825,C 79.19882944938722,464.1797414488053 66.81754668894813,486.27594053613416 59.72312150724023,510.19458423178185,C 52.62869632553232,534.1132279274295 51.02958650023448,559.9086032010871 57.132935290130455,584.0991285870119,C 62.466828068859016,605.2399273699676 73.74603211121402,624.9642830195075 89.8426351341576,639.6708515002293,C 105.93923815710117,654.3774199809511 126.7896340208948,663.8921732851052 148.4919334322849,665.9883568683756,C 170.19423284367522,668.0845404516456 192.57191240734574,662.7045414717718 210.8655334727196,650.8416913221276,C 229.15915453809345,638.9788411724835 243.22032887996144,620.7224478491446 250,600,C 265.33368646557733,612.1932438168257 283.89214647539427,620.2901439077526 303.25802679932804,623.249842318108,C 322.62390712326186,626.2095407284634 342.7394320036899,624.0229747531797 361.0530324141945,617.0653044961502,C 379.366632824699,610.1076342391208 395.82172294109154,598.4141738064619 408.6260910193865,583.5869929039193,C 421.4304590976814,568.7598120013766 430.5655431318399,550.866954998166 435.5916627844181,531.9319277565919,C 446.6641271933978,490.2183535268492 437.2687164608173,445.28412411212537 418.9117015736169,406.224659861582,C 400.55468668641413,367.16519561103746 374.2204245858239,332.51142945889654 349.45660678670026,297.1649293334194,C 303.3835767281639,231.4028414374677 264.72753366089734,158.93336465321119 250,80M 250 , 80C 266.50621340084354,125.18290071330925 267.76084568194915,175.60716413914764 254.51223853179144,221.85026098920451,C 241.26363138163492,268.0933578392604 213.7957299235094,309.1388821793656 181.66988650156944,344.9422309351989,C 155.13331209110675,374.5164966104783 125.44242235016414,401.2636206469095 100.53589876094097,432.22314348518177,C 75.62937517171643,463.18266632345285 55.67543553571947,499.85888719122613 53.08835402853586,539.5090319696404,C 51.466295508939204,564.3690353991916 56.916271161965724,589.8607455705187 69.86520090566921,611.1439798841967,C 82.81413064937271,632.4272141978747 103.27289766647851,649.1797536263781 126.93866275087076,656.9632237604925,C 150.6044278352656,664.7466938946072 177.20074023013143,663.3748099759358 199.827147776199,652.9490473698876,C 222.45355532226662,642.5232847638393 240.81880728417642,623.1593727176132 250,600,C 257.46502340150846,618.3468060867137 270.8937538499233,634.2085523558039 287.74954997088406,644.6111484306858,C 304.6053460918448,655.0137445055676 324.7861025687426,659.8974899658851 344.541821271044,658.4679982645866,C 364.29753997334524,657.0385065632883 383.5050250064442,649.3300102965692 398.9684324787353,636.9520097587429,C 414.43183995102635,624.5740092209165 426.09455125230045,607.6430191254451 432.74102554529276,588.9840736182325,C 441.3489297980766,564.818717776363 441.5178086120425,538.0723195198078 435.3679582022589,513.1677059205857,C 429.2181077924753,488.26309232136356 417.02783338968885,465.16013266188673 402.216662318181,444.2152132282912,C 372.59432017512745,402.32537436107344 333.21878681685456,368.3081345082119 301.1578108907538,328.25397645904576,C 273.45661417676376,293.64654236560614 251.13494049111054,254.02364050872 241.31463091152676,210.7964232297871,C 231.49432133194338,167.5692059508542 234.3114187766351,121.4596094182858 250,80M 250.72777549394732 , 576.6858154492352C 250.58595907413556,584.4599201915562 250.34334005440957,592.2321860186701 250,600,C 247.77119949584448,650.4249576925921 241.28829920098298,700.6612074800889 230.64276198277736,750M 250.5884565355401 , 576.8085288527815C 250.57269894623585,584.5421929399458 250.37647558424933,592.2754887113047 250,600,C 247.50487436787685,651.1948899700321 237.03150726731135,701.9931507030631 219.07364460092026,750M 249.0899951249254 , 576.4145975486426C 249.91632968937077,584.244581270509 250.22056137950705,592.1296234794669 250,600,C 249.14314186854114,630.5755982046095 240.20688304108504,660.8887136604263 224.340853292909,687.0396316454065,C 208.47482354473294,713.1905496303867 185.71642116380798,735.1176290423119 158.9934638778912,750M 250.1757027234929 , 575.0155567294368C 249.55052130954496,583.3268610296633 249.4917728860113,591.6807250212584 250,600,C 251.8847365914583,630.8516439506336 261.7139079880501,661.1848775208367 278.2817355122808,687.2786173371834,C 294.84956303651154,713.3723571535301 318.1206472735155,735.1708503950902 345.2402432968904,750M 249.64698825621954 , 576.9356188907633C 249.30002825486923,584.6214986722784 249.41798524672217,592.3283386359011 250,600,C 254.63052918551222,661.0359989119884 290.59271508813094,718.8588597495708 343.29057413027067,750M 249.48804310815774 , 576.8590111413102C 250.05866502297775,584.5569024052444 250.22962349112797,592.2844046027965 250,600,C 248.3441808578764,655.6372977730337 224.96851248786678,710.3451556122396 185.90773987519125,750M 250.36225994535855 , 576.9320771062465C 250.54729535128737,584.6221335813955 250.42641476171147,592.3195457723243 250,600,C 247.0299817961843,653.4950731494712 228.88294282550717,706.0645883915867 198.21987927671003,750M 250.38184096452568 , 575.0757719557328C 249.6964955571801,583.3627877525028 249.56883199840078,591.6958791375798 250,600,C 253.15466629779274,660.7575936069221 288.3133044760569,718.9472215277011 340.6311986376596,750M 250.79533012875024 , 575.3938234693572C 250.31726715203766,583.5871531357908 250.05203789738033,591.7929001900916 250,600,C 249.67776899155908,650.820309452418 257.5980532193637,701.6838614307214 273.3574453211106,750M 250.3435865169884 , 575.0608789719404C 249.94653936628615,583.3668247457987 249.83192230748702,591.686268495589 250,600,C 251.0461942188142,651.7485557223284 263.2007945434396,703.2451078965256 285.40411875588313,750M 250.3423052033596 , 575.0604111815518C 250.02379425840155,583.3691257275518 249.90964652148557,591.6856736365542 250,600,C 250.55254979252268,650.8456274470337 258.8086267724615,701.6006329827266 274.39979138845575,750M 249.8386215358655 , 575.0131074063944C 250.18229725796067,583.336835425179 250.2361335300055,591.6725272688129 250,600,C 248.52746284983863,651.9304181974644 235.61025463624708,703.5058235467383 212.4320697255361,750M 250.00772537486895 , 575.0000298411537C 250.27849183249862,583.3304488713123 250.2759148603581,591.6697499027676 250,600,C 248.28538110044292,651.766708890612 235.87596223862687,703.1555157056289 213.77785466058987,750M 250.92126490998731 , 575.6110643168516C 251.0316705258096,583.7493309709371 250.7240429053602,591.893253710384 250,600,C 244.96320627998745,656.3944601887362 219.00151589006845,710.6796903238725 178.26311044839292,750M 250.51466340320658 , 575.1426076852457C 250.0843306134087,583.4203507018719 249.9126645330068,591.7115388475613 250,600,C 250.54137232341597,651.3782501671108 261.15386197649724,702.6312532913063 281.0591253375883,750M 250.20177373881276 , 575.0205678388344C 249.9677936576548,583.3445855226078 249.90051776533952,591.6732887426584 250,600,C 250.60418106491758,650.5702479632839 257.38842383826716,701.0637187106325 270.1538218890582,750M 249.35604650282724 , 576.7650646335304C 250.04002465826736,584.4875354692512 250.25520201795968,592.251499896386 250,600,C 248.0642847933675,658.7726131598574 217.37332624693377,715.9240930661473 169.4483889216242,750M 249.03182037198067 , 575.7497437155868C 249.13748848946847,583.8398837882794 249.46037006265493,591.9271856408336 250,600,C 253.44868958932048,651.5920798870927 265.83288276088206,702.5749618896634 286.436327307675,750M 249.31668841747924 , 576.7301268938979C 249.08099660439808,584.491130604092 249.309308740124,592.2661992006563 250,600,C 255.44978255435706,661.0222470206213 291.52682877651046,718.5343663227643 344.0942013437741,750M 250.58393418603058 , 575.1881989982854C 250.06516794173675,583.4469318324476 249.87032377652255,591.7260063742259 250,600,C 250.81993151322254,652.3157440280877 264.8655706843719,704.3721443713101 290.47236961797944,750M 250.60674558156626 , 576.7948960933668C 249.93813628221838,584.5083455911296 249.7353969874178,592.2621497303551 250,600,C 252.0081783249071,658.7256473055081 282.6044026242057,715.8119333046932 330.3946791171578,750M 250.0838763992045 , 576.9964761661256C 249.72102836213224,584.6582197794886 249.69303400051254,592.3358140830173 250,600,C 252.16230819840325,653.9875167609717 271.4340958705732,707.1628730100156 304.3629296489663,750M 249.53804331448015 , 575.113097513419C 250.12737104938068,583.3930264088477 250.28163956341646,591.7039039995431 250,600,C 248.13471135122361,654.9447439524976 226.4405312324238,709.0068780996373 189.80764782678978,750M 249.05615722511152 , 576.3303949398687C 249.4025219694093,584.2189545569083 249.71713962470363,592.1089080999036 250,600,C 251.7914159346771,649.9759917133069 252.3087900933939,699.9976464994409 251.5514505495534,750M 249.5549138937968 , 575.1045122233861C 249.24831319698853,583.4028287634577 249.39697239056287,591.717945961975 250,600,C 254.12323213140832,656.6289682084692 280.38526253966694,711.3545010137083 321.98293665332164,750M 250.52149292407753 , 575.1467443934336C 250.50371413058943,583.433457314277 250.32984204590574,591.7198350654878 250,600,C 247.98117242699033,650.6794857913234 240.09450378250207,701.1228406216522 226.54794569765681,750M 249.10622646923102 , 576.448518534396C 249.65309067311443,584.2869277687537 249.9512150715503,592.1426887669186 250,600,C 250.31912002528892,651.3975409842075 239.82209431251474,702.8370307474815 219.39017349973201,750M 249.23320661701825 , 576.6418940004513C 249.05021922770845,584.434091493651 249.30635715138743,592.2365802795262 250,600,C 255.28085065398017,659.1045668386703 287.28673030075197,715.3037494424739 335.42618815048115,750M 249.9166188902403 , 575.0034822678269C 249.63899239052645,583.3329417867321 249.66681099024353,591.6725779839015 250,600,C 252.09264723237473,652.3017150161759 266.43242661033145,704.0745672919171 291.5462315121737,750M 249.93611822460332 , 576.9979574734286C 249.49245877470034,584.6571965722972 249.51380490947162,592.3433433134905 250,600,C 253.84749080841115,660.590731577501 288.74904810050555,718.3864451825284 340.58169312678507,750M 249.58787489131655 , 576.9111272659693C 249.3797800433772,584.6084159333101 249.5173395388371,592.3150409777709 250,600,C 253.4359688591511,654.707774945169 274.910248000085,708.1330299342682 310.2924940984807,750M 249.0008558063846 , 576.0413627896139C 249.87113218420538,583.99307763509 250.2051871726277,592.0034352261895 250,600,C 249.21965711736607,630.4115619258841 240.48689879072236,660.5846103254303 224.90363481295753,686.711874200273,C 209.3203708351927,712.8391380751157 186.92189261842645,734.8614470205001 160.5344666834619,750M 249.69249204568968 , 576.9515455102285C 250.23792050331565,584.6199346955914 250.34065044658703,592.3197889238759 250,600,C 247.41935014686914,658.1826202906474 217.94893694421003,714.6266046908687 171.68231872054855,750M 250.98036609841267 , 576.1971859860212C 250.15934218268993,584.1008013976787 249.83170647900204,592.0556375878006 250,600,C 251.23604681136035,658.3480800072433 280.88999336351475,715.4366983761479 327.91556548241795,750M 249.06369705870148 , 576.3511933970275C 248.94967486780573,584.2433191847676 249.2623830927714,592.1415922854753 250,600,C 255.44579083601158,658.0182535107443 285.1444340439182,713.377022710652 330.47137870965184,750M 249.52806320656038 , 575.1183676145932C 249.13985994300202,583.4106340990056 249.29762566273124,591.728418802146 250,600,C 255.2563352840561,661.9017549449238 293.1176662558199,720.1045445207427 347.57607302252177,750M 249.38025065636026 , 576.7847998159136C 249.21820804742168,584.5271872830621 249.42510346063,592.2772857447923 250,600,C 254.1409365432245,655.6261300638807 278.058517395345,709.57823237584 316.4967067839881,750M 250.1567839106568 , 576.9876329304752C 250.58451074571303,584.651680381044 250.53211302788063,592.3424919656877 250,600,C 247.84012258515384,631.0822659674195 237.62382080638602,661.5704809346098 220.61975905041453,687.6786063348693,C 203.61569729444304,713.7867317351288 179.86113430075608,735.457560304877 152.30592107657142,750M 249.5176817312205 , 575.1240039454418C 249.22952868811123,583.416606289279 249.3906154467056,591.7247999253509 250,600,C 254.1577868355041,656.4610929921568 280.0411649608141,711.0480924348532 321.125116940568,750M 250.54084960794327 , 576.8411193147156C 249.90043400779987,584.5408425332055 249.71972329798493,592.2787750484416 250,600,C 252.12588149034008,658.5650148202038 282.38095266398443,715.4794847017159 329.738257871762,750" stroke="hsl(210,80%, 90%)" fill="none" stroke-width="1"/></svg>