<svg viewBox="0 0 500 800" width="500" height="800" version="1.1" xmlns="http://www.w3.org/2000/svg">
<rect width="500" height="800" fill="hsl(210,80%, 20%)" /><path d="M 250 , 80C 250.3938268217489,128.22652135217314 240.71229095201684,176.38993151622992 222.77514030858347,221.15834770545777,C 204.83798966515087,265.9267638946831 178.47562119881624,306.723445770981 152.0133633113257,347.0434329831917,C 130.61114421822845,379.65354523497183 109.10154214871801,412.8960572923266 97.46911279474952,450.12724033164955,C 91.65289811776393,468.742831851312 88.44691035391706,488.28335395090244 89.31075638261883,507.7672542492105,C 90.1746024113206,527.2511545475186 95.20011177920473,546.6488693558275 104.77863516306566,563.6377036472244,C 118.58305233207504,588.1217442842955 142.232947241575,607.1187678364705 169.45109052426065,614.1332425521556,C 196.66923380694627,621.1477172678407 226.82933552537799,615.910703538759 250,600,C 260.130338480556,615.7700696103909 274.59924996093554,628.72039468183 291.3870155546489,637.0564476817661,C 308.1747811483623,645.3925006817024 327.22663508739674,649.0872621023366 345.9193948573261,647.7090076153415,C 364.6121546272554,646.3307531283465 382.88022551180313,639.8957126218692 398.43106722394856,629.4319573069257,C 413.981908936094,618.9682019919823 426.7766035643746,604.534579704878 435.67335943175675,588.0371075262861,C 449.0260217586636,563.2769389286627 453.4084822263394,534.1923096786766 450.3191774274267,506.2313415971071,C 447.22987262851404,478.2703735155376 437.0047310740216,451.4494750158405 423.38684413547304,426.8341810804019,C 396.15107025833765,377.6035932094708 356.5087604924243,336.5275135457244 324.0033594638967,290.6054375388787,C 280.308291534612,228.8751352788806 250.7492162194103,155.6262378643292 250,80M 250 , 80C 243.76156441481518,126.14359924270116 229.92808578711137,171.17297180910649 210.0071500162997,213.2598598817201,C 190.0862142454885,255.3467479543327 163.89160104320723,294.09049153505094 137.8010867191991,332.65776901130187,C 117.80850733596218,362.2110138022548 97.90400064490943,392.1926306916539 84.59579680567582,425.2983585743395,C 71.28759296644166,458.40408645702496 65.18051167316182,495.32916043215783 73.43962758631599,530.0406068497606,C 77.80068804268589,548.369289719328 86.10690207541641,565.8093264293512 98.02409810770251,580.4017869060958,C 109.9412941399886,594.9942473828404 125.4538043608959,606.6708590840163 142.8828606753308,613.825400301002,C 160.31191698976565,620.9799415179875 179.60251125256363,623.5754278060432 198.28997664260663,621.1799943727723,C 216.97744203264963,618.7845609395014 235.00438749150499,611.4057472149946 250,600,C 255.68842264822544,622.4426173060457 269.80326968382815,642.6382662010661 288.9098751380344,655.7136955166857,C 308.0164805922406,668.7891248323052 331.91691954930184,674.6205542541051 354.9211458173178,672.0062096745996,C 377.9253720853333,669.3918650950951 399.8000875124644,658.4164841117478 416.03166549632886,641.9069383904334,C 432.26324348019324,625.3973926691191 442.7871589442534,603.5891247540295 446.65485129458494,580.7621630715447,C 450.5868977284035,557.5553862267282 447.78610882184006,533.4670519455211 440.3041946842596,511.15032186424145,C 432.82228054667917,488.8335917829618 420.80864352920537,468.23688090518596 406.773818702611,449.34140068451865,C 378.7041690494103,411.5504402431819 343.03801258468366,380.11588629228805 312.45108841189534,344.3317837832101,C 281.50429404532207,308.12666372323315 255.69384979039512,266.61633262867366 243.6518982901951,220.5348156810823,C 231.60994678999597,174.45329873349098 233.55035134620965,124.69814156417632 250,80M 250 , 80C 233.63501430589594,159.48988783151 193.54759747311581,232.23866323451296 145.22426491219082,297.44073800549336,C 116.72390332893343,335.89592328495735 85.86511635815653,373.082991960227 64.23906764078842,415.7841149212024,C 53.42604328210141,437.1346764016902 45.08660474441818,459.8857273874307 41.32824637430297,483.52135121409185,C 37.56988800418775,507.156975040753 38.51315502015987,531.6883127390485 45.493621480637714,554.5802558480943,C 51.789182454933716,575.2261001450372 63.027820532570445,594.4276009911282 78.421229692937,609.557965465794,C 93.81463885330353,624.6883299404599 113.32806252218879,635.6476291836453 134.33932480174755,640.5884623253611,C 155.35058708130634,645.5292954670767 177.76713321181873,644.4084860004143 198.14032964133423,637.2798225942025,C 218.51352607084974,630.1511591879907 236.75636488978995,617.043799569999 250,600,C 256.03358061468333,622.5874480764503 270.5298173476278,642.8025411247161 289.97384802676737,655.7843197620562,C 309.41787870590696,668.7660983993962 333.60993424830986,674.3927091536912 356.81171504694987,671.5162054752509,C 380.0134958455895,668.6397017968116 401.991920258185,657.3472226594615 418.22961079772614,640.5265713170701,C 434.4673013372672,623.7059199746786 444.9013475254216,601.5937312125527 448.60877918970726,578.5101470867102,C 452.564630947367,553.8798247757218 449.0124714071064,528.3596096315661 440.4016282846083,504.9469010955704,C 431.7907851621103,481.53419255957476 418.30267334655065,460.15540676704416 402.8217435936173,440.5941605322947,C 371.8598840877291,401.47166806279324 333.35703094911196,368.88133051918135 301.8005827829612,330.23683880010697,C 273.49720476998874,295.5761047565948 250.81649541641752,255.60973377571773 240.8900197783092,211.97588484181853,C 230.9635441402013,168.3420359079193 233.93860817896763,121.76696522554116 250,80M 250 , 80C 256.02265316743757,128.53991877354434 249.09532382301742,178.47107758374483 231.1518705707562,223.97303964145664,C 213.20841731849623,269.4750016991664 184.29919585161923,309.76524805171016 153.36252234409005,347.650842913159,C 130.84282000947047,375.22886673793016 107.24776296083397,402.1875781141631 88.99324782336673,432.75646864711337,C 70.73873268589895,463.3253591800634 58.20921369371263,498.3994330465572 60.11545163534697,533.9529230050605,C 61.30133609643225,556.0710071950012 68.15382325633198,577.9935327416874 80.6498342614149,596.2819356011281,C 93.14584526649782,614.5703384605688 111.27521200484054,629.0436016608637 132.06506215011052,636.6854666901331,C 152.85491229538104,644.3273317194022 176.15677241360396,645.0346019461003 197.3160053951257,638.4845767688929,C 218.47523837664747,631.9345515916855 237.33257755670047,618.1700957298348 250,600,C 263.6802920110179,615.0969449054636 282.1127455919889,625.8190064445209 301.99474298852766,630.2658384077675,C 321.8767403850664,634.7126703710142 343.0966109797197,632.8622282882363 361.96385404225794,625.1748832195909,C 380.8310971047961,617.4875381509457 397.24304664330214,604.0363436700038 408.8152251239947,587.2687314310382,C 420.3874036046873,570.5011191920726 427.1068622338899,550.5450950407474 428.81609624528716,530.2436996680249,C 430.6539526709386,508.4145939477665 426.7885015779742,486.3045300068252 419.1072812025656,465.78901328576904,C 411.426060827157,445.2734965647129 400.03527356352913,426.3037430981486 387.05637504527965,408.6562003218721,C 361.0985780087726,373.3611147693189 329.1244150532887,342.8808496656395 302.4510178259032,308.12340195294564,C 277.7413668690587,275.9248636936376 257.6010567198068,239.68982757121373 247.78352568160923,200.30799418627294,C 237.96599464341188,160.92616080133217 238.53656376882503,118.93459061321934 250,80M 250 , 80C 264.97373153758133,123.4221710122618 266.4147011176266,171.26225117651975 254.92964509597078,215.73461405232268,C 243.44458907431564,260.20697692812513 219.19033125598776,300.4937774097546 190.26638959119984,336.17434873575155,C 159.4211879074591,374.2249862144355 123.00010719354296,408.07035632723023 97.34241488480257,449.7951727418638,C 84.51356873041355,470.6575809491872 74.60316960458903,493.59259437711717 70.76822177671797,517.7816940920608,C 66.93327394884692,541.9707938070044 69.44116110211071,567.4096696420157 79.76323397767138,589.619446349889,C 87.19931980235226,605.6195083275132 98.63780852743582,619.7999208072982 112.96685897105463,630.0943692657667,C 127.29590941467345,640.3888177242351 144.47305534129845,646.7262415122802 162.07218834924785,647.978388887129,C 179.6713213571972,649.2305362619776 197.61467246378368,645.3775632708891 213.10892588045462,636.9380451128535,C 228.60317929712556,628.4985269548179 241.58353769807263,615.5067894162546 250,600,C 256.27346540426277,625.6227991367887 273.2736571730094,648.4305344764606 296.0160305350957,661.7972340557197,C 318.758403897182,675.1639336349789 346.890254961291,678.9084653313945 372.4162299894272,672.2519795734539,C 397.94220501756456,665.5954938155172 420.50301524724904,648.7491645290273 434.85401180748255,626.6147320422688,C 449.20500836771606,604.4802995555102 455.3497584181884,577.4557993902016 453.6588681075524,551.1304296161585,C 450.93084906898895,508.6580649163892 428.60882505251396,469.68843552542205 401.194555391949,437.13384030381314,C 373.78028573138135,404.57924508220543 341.3873711699909,376.55950862037525 313.0832997621392,344.7754970295726,C 281.21120902150204,308.9847838517277 254.59692542634923,267.50583391037617 242.3547263435328,221.17081605589752,C 230.11252726071748,174.83579820141884 232.51206940716486,124.62037204616658 250,80M 250 , 80C 236.75477566140344,157.5510249363295 199.6441742075155,229.30451636921111 152.86793143388485,292.5625636710155,C 122.2817965237334,333.9258509766913 88.03208326536145,373.0425930859713 64.08312464285484,418.5714912317791,C 52.10864533159471,441.3359403046838 42.91535165227092,465.7602973865782 39.110940277138184,491.19914072619235,C 35.30652890200544,516.6379840658066 37.0640102230555,543.1021043936794 45.892072327518875,567.2614424609445,C 53.20914001189859,587.2857138985564 65.38583307979621,605.5925600053553 81.44022789655715,619.6199379917258,C 97.49462271331808,633.6473159780963 117.38586603333704,643.3007725968214 138.39518283998896,646.9228622454476,C 159.40449964664086,650.5449518940737 181.4391274903179,648.0998918891545 201.0991237803843,639.8539551940588,C 220.75912007045073,631.6080184989632 237.9612635279752,617.5948785236526 250,600,C 261.92622533466556,619.5098797877988 280.3846815599553,634.9433924571399 301.6901222095887,643.2469133243701,C 322.99556285922205,651.5504341916002 346.99990439777343,652.6716504140288 369.03326363932865,646.5559868686603,C 391.06662288088364,640.4403233232922 410.97904595023766,627.1707022539147 425.47502884192636,609.4863379715484,C 439.97101173361506,591.8019736891822 449.0197840531993,569.8728367700693 452.1419958400187,547.2206392248904,C 455.52171397591906,522.7001876704376 452.06855847630766,497.49907977667294 444.004818843319,474.09713237386535,C 435.9410792103304,450.69518497105776 423.41084053958116,429.0305193020324 409.00479975466897,408.902403940284,C 380.1927181848301,368.6461732167859 344.32799023326834,333.88330476837723 314.886372401513,294.0851729541899,C 292.1668696146801,263.37375716750904 273.2016129315641,229.60831705088412 261.65923732706875,193.1921059367656,C 250.11686172257347,156.7758948226471 245.9891189475349,117.99052118208266 250,80M 250 , 80C 265.0339038727921,123.66813261209771 266.5011152167872,171.76855299713407 254.94831160938094,216.48383897735346,C 243.39550800197517,261.19912495757245 218.98327887980662,301.74392405081943 189.509516390018,337.2998152107888,C 158.35300486068277,374.88570310837764 121.43365693649478,407.6800654321878 93.09701460383553,447.4350887756429,C 78.92869343749527,467.3126004473694 67.05618789592663,489.06288245093333 60.32756768616154,512.5273761596186,C 53.59894747639646,535.9918698683039 52.2087609390042,561.2176179365978 58.22836930327324,584.8739302035808,C 63.577636080774795,605.8958833988931 74.84517271910889,625.4954023557538 90.8986247367218,640.0838858108968,C 106.95207675433471,654.6723692660398 127.72747322403195,664.0759824073871 149.326064789472,666.0854633334184,C 170.92465635491232,668.0949442594491 193.16973007253193,662.6532547872974 211.3171840963102,650.770196104549,C 229.46463812008847,638.8871374218005 243.36643305003133,620.6526744205944 250,600,C 274.93061985589003,612.7741972258057 304.93154944332866,615.21672402517 331.6423751845461,606.7758882025163,C 358.35320092576353,598.3350523798625 381.3223770491411,579.2224939268663 395.4172369062218,555.0140068454327,C 405.40951965372744,537.8518604842893 411.088279253214,518.3160175375059 412.76627262700623,498.52790695400364,C 414.44426600079845,478.7397963705013 412.1987098427061,458.72840160062 407.3342316646512,439.4742634926019,C 397.6052753085407,400.9659872765637 377.9094792760208,365.80123303902997 357.65055889158936,331.63815247291205,C 334.2242881690438,292.1338966255448 310.01663795981847,252.94970876644248 290.9878453566445,211.14921305065417,C 271.95905275347104,169.34871733486673 257.875637921196,125.24765979975507 250,80M 250 , 80C 226.610882561608,166.52870810316566 181.15905242878932,245.03480333321096 135.06061741477396,321.90614018777813,C 112.13227089827966,360.14025047919716 89.85521950446349,399.7110667411263 80.22479810679796,443.2404964118699,C 75.40958740796337,465.0052112472441 73.94185590464942,487.64497249292515 77.42140336105419,509.66273385592376,C 80.90095081745898,531.6804952189224 89.44314179545887,553.0154312020617 103.03267278836486,570.6850014665637,C 119.72012197033249,592.3825902950502 144.13936224348242,608.1786488449269 170.95625396483968,613.6659650902163,C 197.77314568619695,619.1532813355058 226.6030929264224,614.2070778332911 250,600,C 258.0344170043272,620.9243392085608 273.31661384809263,638.9820830987893 292.61333878466723,650.3845492634625,C 311.91006372124184,661.7870154281358 335.0712634985529,666.4522849352206 357.2996734938888,663.5752001270182,C 379.5280834892244,660.6981153188162 400.65076905379897,650.343208931966 416.86067212143473,634.8635813378612,C 433.07057518907055,619.3839537437564 444.31105259657426,598.9554897071221 449.59779069040576,577.1740703722497,C 454.78761873016214,555.7919215304686 454.3424892652408,533.2269743748742 449.6461458642637,511.7310453920546,C 444.94980246328663,490.23511640923505 436.10988424917576,469.7895082353625 425.09156055930316,450.7441112261239,C 403.0549131795538,412.65331720764516 372.84929714029204,380.07852058729384 345.1074201789121,345.9184462408108,C 314.5751759074425,308.32244162546044 286.83268143723365,267.82605986486345 269.43253990233734,222.62746942383632,C 252.03239836744203,177.42887898280955 245.0020853602592,128.1736271474749 250,80M 250 , 80C 261.1137565381563,120.63801721148417 261.10446718725376,164.15325923795842 250.69215199216603,204.97663145962136,C 240.27983679707873,245.8000036812839 219.50268792472625,283.332439630099 194.89828327456848,317.53166914015594,C 168.6753785161025,353.980555061457 137.90832054475896,387.483243778163 116.8729660749308,427.15282760764467,C 106.35528884000716,446.98761952239033 98.46123867320705,468.41991275140435 95.7358245334719,490.70471973926544,C 93.01041039373675,512.9895267271265 95.64479632576966,536.1138145636634 104.8078109339825,556.6096597038123,C 116.5991911627594,582.9846370983518 139.6477725705805,604.3834078551077 167.2657130479187,612.864294840103,C 194.88365352525685,621.3451818250982 226.2999779231911,616.5222587384662 250,600,C 271.5197872781083,619.3927289834697 301.87888630865314,628.5020063331388 330.54348713884605,624.316335399221,C 359.20808796903896,620.1306644653032 385.4535349241786,602.871643366052 401.68260060605496,578.8758810523708,C 413.7861248132165,560.980008564944 420.4945638044462,539.6738447539981 422.0644901089593,518.1263882517104,C 423.6344164134725,496.5789317494227 420.20354007125934,474.8422213857622 413.6271717896875,454.2628887788791,C 400.4744352265421,413.104223565105 375.53324244581523,376.907986862975 351.275937229046,341.1502835684464,C 324.65713199320487,301.9114921539734 298.6306553424174,261.90222617782734 280.3578520270843,218.1489611242189,C 262.08504871175205,174.3956960706116 251.41783901964374,127.39444351784718 250,80M 250 , 80C 252.91835347174353,118.32777565603902 247.87163350062542,157.19966732864046 235.64828752671832,193.64311649207536,C 223.42494155281125,230.08656565551024 204.01042396840487,263.8221562915994 181.09084612573372,294.6803501019868,C 152.22723262393654,333.54140529334046 117.66111341024455,368.0093183866021 90.15816009941743,407.84494759148635,C 76.40668344399819,427.76276219392685 64.5375974197066,449.15863854273164 56.990890452550914,472.1558049484786,C 49.44418348539524,495.15297135422554 46.352168257331094,519.8044601828426 49.77230204121102,543.765368630606,C 52.951515442668736,566.0384275405083 61.845571156603974,587.584593308344 76.00883879611078,605.0659662758111,C 90.17210643561758,622.5473392432782 109.57670113084525,635.8076160014533 131.14300669861967,642.2178433931588,C 152.70931226639433,648.628070784864 176.3014106991887,648.1101758660968 197.5112668404826,640.6042746196365,C 218.72112298177646,633.0983733731762 237.41260848463918,618.6481668239808 250,600,C 277.7610310949092,613.0961531373591 311.0008279682876,613.9397368128233 339.4581655553972,602.4347808414624,C 367.91550314250685,590.9298248701015 391.00692770512285,567.4238065817676 403.2913063339427,539.2941404594428,C 412.33922015844627,518.5755674915156 415.75260882973004,495.5978819369196 414.4548817568731,473.02710625580164,C 413.15715468401606,450.4563305746837 407.27357779037084,428.30646426837905 398.80692831361995,407.3436434409998,C 381.8736293601137,365.41800178623544 355.29494103218207,328.2416247381011 331.13473284016015,290.0214679915533,C 290.6603466903063,225.99315455265315 258.6469998189385,155.25310791036344 250,80M 250 , 80C 242.98822548646163,126.51747340906482 229.04423885172892,171.90775422686224 209.6214251740594,214.7539281871389,C 190.19861149639016,257.6001021474141 165.0389543977182,297.53414447127415 140.9613697262755,337.9483774911042,C 122.50704739720508,368.9239629996747 104.75243426562504,400.79854679558065 94.99068832273319,435.50815967689095,C 85.22894237984063,470.21777255820155 84.34932804559894,508.3959996931185 98.62217173162026,541.5069471778768,C 110.63496805660631,569.3749093731925 133.4957266075036,592.682212465844 161.71645147107046,603.8411228355891,C 189.9371763346373,615.0000332053341 222.88764943496332,613.6327194390443 250,600,C 258.0797823445935,616.4448280321822 271.16797412122577,630.3850556773432 287.06530549247293,639.4949462923181,C 302.96263686372015,648.604836907293 321.5936514480041,652.8427234554425 339.8737928036281,651.5970574639119,C 358.1539341592519,650.3513914723815 375.9922948725353,643.6456265208228 390.7176782825547,632.7424923305099,C 405.4430616925741,621.839358140197 417.00806249550556,606.822607756934 424.24661942946943,589.9905388033618,C 434.2881370763343,566.6406475235837 435.9059416329611,540.1170809722006 430.91690914398293,515.1940182740955,C 425.92787665500475,490.2709555759904 414.63235585586835,466.93312050934105 400.49772275889876,445.8082146718276,C 372.22845656492296,403.5584029967627 333.45840904487955,369.4907116435573 301.65672734686245,329.8315255840538,C 273.7240093918224,294.9972401193309 251.0280482654911,255.20684370941444 241.05383800913657,211.68467342856042,C 231.0796277527826,168.1625031477064 233.97623986084605,121.6761716955441 250,80M 250 , 80C 260.16556764003263,119.99898733309362 259.64021021027156,162.5663604987998 249.15861484495136,202.48369898365826,C 238.67701947963147,242.40103746851642 218.2705475865837,279.11669011298477 194.05709249703068,312.53773656194016,C 169.06124238440657,347.03869747625254 139.91668717487053,378.6740408341594 118.40898400175391,415.4507662332592,C 107.65513241519098,433.83912893280956 98.94056130446225,453.5763143161002 94.3922818426396,474.38713747745544,C 89.84400238081697,495.19796063881074 89.5893939374224,517.099503998332 95.05483337148354,537.6884859670611,C 99.24683969811838,553.4802889342544 106.7952482009979,568.4146216235431 117.32712005026347,580.905963959251,C 127.85899189952906,593.397306294959 141.36033554384613,603.3974169040366 156.45667957018443,609.6467652729182,C 171.5530235965227,615.8961136417996 188.20465593522823,618.3692263100077 204.4583732916396,616.7047053293368,C 220.71209064805092,615.0401843486659 236.52683829555093,609.2427199288396 250,600,C 271.7379985175181,618.5585957674616 302.0314389271591,626.5922661813084 330.1375102602483,621.3950736096435,C 358.2435815933374,616.1978810379786 383.43132219663755,598.023019190572 398.25081582469426,573.5823836625083,C 411.40109554179327,551.8946525075639 416.54431673449176,525.8281656516094 414.6886124714885,500.53302973627257,C 412.8329082084853,475.23789382093565 404.29426110556506,450.76474100350885 392.48081421914316,428.3208106001953,C 368.8539204462777,383.4329497935067 333.2253335436311,346.1708395630746 304.32498762607065,304.4824699259652,C 281.73522472345593,271.8970334545535 263.02702083580783,236.22681740429914 253.05645451308374,197.85109766860018,C 243.0858881903598,159.47537793290127 241.8496621336395,118.80309331345786 250,80M 250 , 80C 225.1417623624148,162.9649840484745 180.75981149642436,238.36592954508728 135.95627952648007,312.4858599257107,C 115.79270153590997,345.8431184089906 96.23672870620248,380.05700312373017 84.98225602639735,417.3747390625793,C 73.72778334659135,454.6924750014287 71.70117724010015,495.8543037297717 86.03207240662198,532.1020900708485,C 98.26193039940839,563.0356273239717 122.6040420367463,589.3192724033523 153.23118008484428,602.2973912384082,C 183.8583181329422,615.2755100734641 220.05967446542698,614.492413891339 250,600,C 260.73407250504494,620.8019218928484 278.7236873819322,637.7647631243066 300.1094515264131,647.282607362177,C 321.495215670894,656.8004516000476 346.10391916631846,658.8039753716394 368.79668367098793,653.0612664189462,C 391.4894481756572,647.3185574662535 412.0879600421508,633.9259368230676 426.96667729920915,615.8548538515291,C 441.8453945562675,597.7837708799907 450.97235304104885,575.2340849490356 453.91695626902987,552.0119063516371,C 459.0004128247575,511.9219767789564 445.7864676567277,471.3304574400006 425.40995608223847,436.43286784199006,C 405.03344450774773,401.53527824397946 378.0893252156068,371.0270036980018 352.7737596386242,339.5283351036941,C 322.94667322336267,302.4162466033928 295.2771439178321,263.0431657562428 276.71602293723817,219.19744778035113,C 258.154901956645,175.35172980445995 248.68009247859467,127.59432782393866 250,80M 250 , 80C 231.4492002760127,167.46372454383572 185.25919556535925,246.17488706636863 135.00024526225562,320.1213081826716,C 113.5266782782192,351.7155499544231 92.00339554982149,383.6867790246979 77.69168547041237,419.10549084137364,C 63.37997539100249,454.5242026580493 56.999502048329745,494.22496337749715 66.6053949922923,531.1984270088495,C 71.48543900786561,549.98191033328 80.41369159158013,567.7636516694496 92.99145204405147,582.5431651050583,C 105.5692124965228,597.322678540667 121.77887449569616,609.0315237397282 139.8666777478072,616.0646915115087,C 157.95448099991822,623.0978592832892 177.86416009608837,625.4193051394715 197.0703612578389,622.6343612751426,C 216.27656241958942,619.8494174108138 234.72150941981909,611.9666954914217 250,600,C 277.8627071574237,611.61729532059 310.28280251302556,611.7479904516318 338.2985036368474,600.5046594840387,C 366.31420476066927,589.2613285164456 389.4530138760616,566.9134888130089 402.790615958956,539.8321230537913,C 420.89345483420755,503.07517095596074 420.72468998630717,459.34834261170374 409.8492151241754,419.84504718728795,C 398.97374026204267,380.34175176287073 378.64084133377764,344.17747950952526 357.8576910378798,308.8667592302137,C 314.9329317096317,235.93728760936182 273.0515012777161,161.4240203080646 250,80M 250 , 80C 266.4095276519266,122.16786493592173 268.75878952154284,169.50244272134063 257.5440332304644,213.33885078980808,C 246.32927693938697,257.1752588582746 221.77277344931335,296.56829558427876 192.78549937206014,331.3122068866002,C 167.63071363854675,361.46252878388697 139.14073148032136,388.9006415377012 116.38445761460119,420.8999720862817,C 105.00632068173948,436.8996373605714 95.1434233676003,454.09480523552077 88.48720454248055,472.564944376967,C 81.83098571736083,491.0350835184133 78.45888604128639,510.8113083072472 79.85101258316976,530.3948032109575,C 81.23272849892652,549.8318484654496 87.39057207089289,569.0027092848214 98.21988083830576,585.2025222071074,C 109.04918960571862,601.4023351293935 124.53962571367393,614.5092533247285 142.46199908588855,622.157547239319,C 160.38437245810331,629.8058411539092 180.64236183602605,631.9244465453462 199.73199208412072,628.0137069620882,C 218.82162233221538,624.1029673788303 236.63657519920844,614.1819161149198 250,600,C 280.3097268750206,616.277559348427 318.0187567029083,617.8981799413073 349.71167123668323,604.5117072940881,C 381.4045857704581,591.1252346468688 406.22403277137414,563.2949075429214 417.7668913267259,530.8850186515498,C 431.8068026047347,491.4639374364459 426.6072887591523,447.24650677735605 411.7933675005032,408.10971475495444,C 396.97944624185254,368.97292273255147 373.64802520053655,333.73854466621515 350.9843874702889,298.560422520563,C 307.27152306687753,230.71004026408627 268.24473146406206,158.62327047703687 250,80M 250 , 80C 258.72347630555294,128.38238880734383 253.67679502424943,179.0121056999673 236.59411342718644,225.11130932662334,C 219.5114318301246,271.210512953278 190.51711011905022,311.95090859120774 158.54533072286844,349.29739313527494,C 133.80749313975602,378.19385390159886 107.263801936733,405.7518618284553 86.05448638121663,437.32924276441446,C 64.84517082569944,468.90662370037313 49.3156770202116,505.6468220606728 49.82588297815956,543.6824072801567,C 50.151371095249075,567.947374834155 57.163773972997504,592.2680343778418 70.91978177918357,612.2597036965132,C 84.67578958536963,632.2513730151844 105.16527659722641,647.647298472882 128.39739077935397,654.6589647184718,C 151.62950496148312,661.6706309640614 177.37351445333815,660.1533664873609 199.52322757540404,650.2394973374675,C 221.67294069746993,640.325628187574 239.99230058569526,622.1074771365697 250,600,C 271.6546177953056,621.2057241345113 302.8782580639142,632.1875965388327 333.05465750931455,629.3609157217957,C 363.23105695471486,626.5342349047586 391.6289590698416,610.0769397021382 410.05348011467385,586.0115655683688,C 424.57420069094564,567.045179820289 433.04304928468713,543.7556558622204 435.53789925443215,519.9995863635093,C 438.03274922417717,496.24351686479815 434.72820635927326,472.09555551267584 427.7767766962954,449.2427057989137,C 413.8739173703381,403.5370063713755 386.38233158684534,363.3835252836351 359.7698523499881,323.7088935088389,C 309.71439119949434,249.0848056217996 265.36988070113523,168.53287779799115 250,80M 250 , 80C 235.60388103786093,156.27444671367715 199.4366261217804,226.73692910110648 156.32174323420136,291.2826209499044,C 132.14604577985503,327.4751608249821 106.33486151177664,363.0057645528762 88.9249484626057,402.89635514305775,C 80.21999193801855,422.84165043814875 73.75125269227827,443.8753292733677 71.22483026090624,465.49033013391806,C 68.69840782953423,487.10533099446843 70.20405480615828,509.3033811082269 76.76765344509501,530.0521219232808,C 87.60882540402426,564.3230576524711 113.21657817074649,594.0885475009978 146.41400577946948,607.871103336581,C 179.61143338819244,621.6536591721641 219.3238626207796,618.7350644698267 250,600,C 271.70706793305715,618.868719886324 301.8982271677829,627.5214802629357 330.326757204085,623.1575292579419,C 358.75528724038713,618.793578252948 384.7429246188253,601.6194195732758 400.83956554305047,577.7840773404595,C 415.6027495704362,555.9232713875103 422.14301368555584,529.0333251193986 421.23242188622754,502.67014507385113,C 420.3218300868992,476.3069650283037 412.3001367289149,450.54387060250565 400.7093005714646,426.8479013944294,C 377.5276282565453,379.45596297820344 341.3212481901808,339.87344907072776 311.8335137063322,296.1257717246823,C 290.44021179221807,264.38690517943314 272.3059338608657,230.17884900262592 261.25848954135387,193.53211667390576,C 250.21104522184208,156.88538434518566 246.21531802311577,118.0881241163098 250,80M 250 , 80C 222.70737852191007,163.10833284334737 178.22243415318687,239.17386582454648 135.35119581828982,315.4230566319207,C 115.14006571758284,351.36982130064814 96.05897299748148,388.62393986296144 87.32023708984859,428.9264728458054,C 82.95086913603144,449.07773933722797 81.2913127357281,469.90709129259227 83.58332813896364,490.3988355549899,C 85.87534354219918,510.8905798173875 92.19048417921249,531.014854267632 102.79084423278559,548.7009302670951,C 117.35084881860628,572.9934398003484 140.224498335429,592.3725884381415 166.91804606399043,601.8369564902266,C 193.61159379255187,611.3013245423117 223.76796518435546,610.6770830470278 250,600,C 265.31560819252917,612.2249996608736 283.87183252606644,620.3488431556335 303.24126162611867,623.3226769360383,C 322.6106907261709,626.2965107164431 342.73507075404825,624.1111828882034 361.050773035731,617.1431472292686,C 379.36647531741374,610.1751115703338 395.81650265277784,598.4599996804584 408.6016241011363,583.6087660426036,C 421.3867455494947,568.7575324047489 430.48839618199474,550.8387539434377 435.46824819094195,531.8856659368777,C 441.00335464562374,510.81930501434886 441.4748496413563,488.5703254054129 438.02293510395924,467.0642041370527,C 434.5710205665622,445.55808286869245 427.28186965935214,424.78601503180425 417.8662865767702,405.14483988371535,C 399.03512041160366,365.86248958753623 372.2148405648087,331.07151621311624 347.19032413502043,295.41356560757674,C 301.5351365371093,230.35854531095168 263.74949622388715,158.27836977086372 250,80M 250 , 80C 254.0345263260639,118.46357636630097 249.71959350827362,157.7286829529056 237.87055590501998,194.54341393710064,C 226.0215183017664,231.35814492129563 206.62416393473734,265.39983482975026 183.79932869411027,296.6208374690024,C 157.14317799924152,333.08251363985465 125.69916633719043,365.9998901470866 101.00573948926488,403.81838918607275,C 88.65902606529824,422.72763870556497 78.11007484360502,442.96187156051656 71.50805318375636,464.5584999956882,C 64.9060315239077,486.1551284308598 62.36243956651479,509.1534298320681 65.64005855428015,531.4975177198073,C 68.60471596078132,551.7080931085552 76.38702918662361,571.2799175290908 88.68872398754394,587.5871201128326,C 100.99041878846427,603.8943226965745 117.79403258469574,616.8282003227315 136.84079507586927,624.2090803303602,C 155.88755756704282,631.5899603379887 177.08887191224377,633.3583634041609 197.0681177453352,629.1055658515979,C 217.04736357842663,624.8527682990349 235.71071206191414,614.5970134378462 250,600,C 272.10862132056997,617.7056457801381 302.1459516937618,625.0417207781003 329.9551488554922,619.6630980540114,C 357.7643460172226,614.2844753299224 382.6861708611119,596.4215736092667 397.67797080984496,572.389782925149,C 411.18483625982446,550.7383358405792 416.76065945685843,524.6109819741628 415.3249029987106,499.1323796080072,C 413.8891465405628,473.6537772418517 405.75195761204077,448.88047658073873 394.2777541177251,426.08654692148923,C 371.3293471290748,380.4986876029305 336.16025646945917,342.3849191064299 307.50685629225654,300.1490935687359,C 285.6724510645692,267.96463642883754 267.37494962280675,233.05047286984166 256.9600735562104,195.57900519703423,C 246.5451974896141,158.10753752422684 243.9897832738041,118.42470335527605 250,80M 250 , 80C 264.08644530984645,127.00920475083467 262.814580055006,178.2859454403549 247.56143518579745,224.92964645530577,C 232.30829031659084,271.5733474702545 203.33256720357343,312.5303543202799 170.95007524141135,349.4040236127905,C 147.04726973160322,376.6219457715204 121.28321410507444,402.377649342947 100.41894993011115,431.98916531757646,C 79.55468575514715,461.6006812922055 63.8774031924363,496.1571476567423 63.29833464575106,532.3762597040667,C 62.93716290406191,554.9665382737933 68.58781214789784,577.779402096611 80.46753044465349,596.9971913574644,C 92.34724874140915,616.2149806183179 110.45742201333896,631.6169240222201 131.55337917619653,639.7046753949891,C 152.64933633905514,647.7924267677578 176.55083043510396,648.4343727960774 197.98333481171804,641.286024243348,C 219.41583918833211,634.1376756906188 238.18139702046574,619.2554344146538 250,600,C 271.65028985115754,620.5487124255312 302.5120390361292,630.9487108410742 332.1997264282296,627.846155395117,C 361.88741382033,624.7435999491597 389.69571404547753,608.3177012790479 407.69767576138065,584.5077452235347,C 421.78779440767994,565.8717148241931 430.01361550574313,543.0938113554841 432.4649780615552,519.8597007821926,C 434.91634061736727,496.6255902089011 431.7573465874924,473.0058145824783 425.04869343554526,450.62664915123753,C 411.63138713164943,405.8683182887438 384.96273050731867,366.4512218531616 359.0252895319495,327.5850225831241,C 333.7640563187293,289.7320931131673 308.8981180664814,251.40427481682437 289.7178593459776,210.13574142484686,C 270.53760062547417,168.86720803286974 256.8820145005927,124.98457568238041 250,80M 250 , 80C 227.47972136665385,156.23165979370242 189.1288699497386,226.65167831191638 148.4781828579175,294.9594417329887,C 125.00149836361672,334.4087087706056 101.31183684615738,374.5277147729117 89.36510689043486,418.85236962791527,C 83.3917419125714,441.01469705541916 80.54019971325592,464.15294385139777 82.55281699603891,487.01774688653677,C 84.56543427882193,509.8825499216757 91.55878970519207,532.4290951041579 103.85980200279936,551.8078190718699,C 118.80445658342042,575.3512745943838 141.7253730874551,593.889357825126 168.16489165338973,602.7543934413131,C 194.60441021932436,611.6194290575002 224.232081338084,610.6607394822099 250,600,C 272.74728367324934,616.6915952432761 302.12999613771603,624.0213569374226 330.0679995111828,620.0822918477354,C 358.0060028846495,616.1432267580482 384.0539936191964,601.0519883454355 402.0530616179629,579.324544467878,C 418.1496279647559,559.8936916067581 427.8458263728978,535.520596185997 431.0521550494958,510.4930723874902,C 434.2584837260938,485.4655485889834 431.175196389836,459.87965816482864 424.15244682651763,435.6445910174467,C 410.10694769988095,387.1744567226621 381.452354826125,344.4783290248913 354.06774181429876,302.0906782942442,C 309.4664805683583,233.05400127338044 269.56927914000414,159.82717953649802 250,80M 250 , 80C 264.60234410141203,125.13089452381519 265.01408915623244,174.57226326061596 252.16168734853736,220.23233182768374,C 239.3092855408434,265.8924003947504 213.36756594716155,306.85505191633183 183.44429086182444,343.66026488872046,C 154.12065147481886,379.7279342760558 120.67107048879546,413.03321606738467 98.18855087889713,453.7184580345134,C 86.94729107393557,474.06107901808383 78.67949798016315,496.28694156672793 76.17593495695964,519.3936575314143,C 73.67237193375612,542.5003734961007 77.16390630912105,566.4641986245224 87.73871928804272,587.1610940667059,C 95.22066967243771,601.8046764277329 106.1920156332877,614.6982927388281 119.66447792156139,624.1273354160978,C 133.13694020983507,633.5563780933676 149.07656333509064,639.4676216344913 165.45696172094804,640.9155976837864,C 181.83736010680542,642.3635737330815 198.59994142193506,639.3329202833028 213.40663656639566,632.1791894512307,C 228.21333171085627,625.0254586191588 241.01464711804252,613.7723461873941 250,600,C 262.9688292426065,617.9397311092878 281.5568844423986,631.7508902755449 302.4698436210872,639.0084809630896,C 323.3828027997758,646.2660716506343 346.5066041342862,646.9334492739259 367.8429263760551,641.035497307961,C 389.1792486178239,635.1375453419963 408.61157185226455,622.7366341663999 423.2533863721117,606.1341719464816,C 437.8952008919589,589.5317097265633 447.7148475072049,568.8590651762787 452.1154365123282,547.1643814817555,C 457.0070164538579,523.0491370282484 455.27603164839184,497.8328551697268 448.82451983552573,474.0873173845928,C 442.37300802265963,450.3417795994587 431.34138121648823,428.02565568433334 418.1923519505455,407.2272038491567,C 391.89429341864917,365.6303001788006 357.69987827502695,329.6591356919793 328.5112933700262,290.03696022480574,C 283.4468601233899,228.86404323554694 252.0850570852207,155.95117809334266 250,80M 250 , 80C 244.40844539345002,126.919223058464 231.21842211018622,172.84433478531304 211.92592613894075,215.97760007473215,C 192.63343016769568,259.11086536415 167.02430926571873,299.05279100599205 141.77954199558954,338.9950080301486,C 119.34895497185562,374.4846350603538 97.10230530638488,410.94972387500894 86.36464926668863,451.53725402585144,C 80.9958212468387,471.83101910127453 78.67471581512018,493.0586129129049 80.98035172072223,513.9235418203799,C 83.28598762632427,534.7884707278549 90.32845417234185,555.2424031301686 102.26801578524766,572.5082099093149,C 118.16151440177288,595.4918072183566 142.97736032929834,612.354253116686 170.41838510163518,617.6305399722003,C 197.859409873972,622.9068268277146 227.38481001242806,616.4134769431618 250,600,C 263.1589242009328,611.026874979576 279.4140991167453,618.3152941119881 296.3990832727276,620.8172076121166,C 313.3840674287098,623.3191211122449 331.03622476420566,621.0257431462737 346.8550492923383,614.353858218516,C 362.673873820471,607.6819732907585 376.60072855507605,596.671860092588 386.95175205950966,582.9749418132175,C 397.30277556394327,569.278023533847 404.0638708227882,552.9672805153732 406.9437587262948,536.0422841016564,C 410.25868832803894,516.5605634579713 408.4667292344256,496.3766996226319 402.97915130382086,477.3921615466437,C 397.4915733732161,458.4076234706555 388.40663996869864,440.5992331999631 377.5648652517151,424.0770626860965,C 355.88131581774337,391.0327216583614 327.58298134499904,362.94353291020207 302.63314940175906,332.2904633083362,C 274.0104654162619,297.12497095569097 249.75734114064642,257.3948167295404 239.25129514747232,213.28707490877957,C 228.74524915430004,169.17933308801904 232.22405279525367,121.71193584469066 250,80M 250 , 80C 250.05220733137932,156.14595815850853 220.92380758656216,229.89574517776737 179.04226267706946,293.48934442703876,C 150.5208253429867,336.79674533014537 116.77343594125401,377.27057077785366 96.2625091570808,424.8972990198681,C 86.00704576497499,448.71066314089444 79.36976596128075,474.3624986853535 79.51882914124327,500.2898707140761,C 79.66789232120578,526.2172427427987 86.89249095747752,552.3407941770454 101.74317002038069,573.5942214657924,C 117.7894450043088,596.5587160307437 142.8145831987863,613.2790585175022 170.3679747997039,618.3447828260287,C 197.92136640062145,623.4105071345551 227.46825190787695,616.648461772687 250,600,C 273.41890463421765,617.0473503431032 304.94982421427073,622.2963826875681 332.68209691845755,613.9310794266158,C 360.41436962264436,605.5657761656636 383.52874803872277,583.993922869703 395.10916880141366,557.4430075757604,C 404.14757735602655,536.7202700480601 406.4462185981975,513.3654700118609 403.27289282992484,490.9812192222885,C 400.0995670616522,468.59696843271604 391.65882015052097,447.1925010460115 380.613207267483,427.4663986463958,C 358.5219815013935,388.01419384714427 326.77217688666656,354.9778885726103 300.03689969146893,318.5125122182331,C 275.00926568331533,284.3762626965355 254.224802094505,246.47954673130488 244.61025103708113,205.25787277914864,C 234.99569997965784,164.03619882699257 236.62534192540866,120.15948850323457 250,80M 250 , 80C 249.72722716850723,156.11067211074072 220.5716093178345,229.70650353419404 179.04411076794239,293.49032341318053,C 151.38338039028287,335.9755947571832 118.93030038533819,375.9383570143373 99.19585386716147,422.6359576681218,C 89.32863060805774,445.9847579950288 82.92761305780225,471.0551981755337 82.96703605679969,496.403314819141,C 83.00645905579714,521.7514314627482 89.74591015744795,547.3088930828407 103.7984861945686,568.4051884512628,C 119.1631528436456,591.4712473012426 143.36513307529071,608.6876176957618 170.42191096272657,614.6915182993653,C 197.47868885016243,620.6954189029688 226.89623134504518,615.3079040383168 250,600,C 260.2438201119696,617.7702896078088 275.7751048901822,632.4457312056662 294.0907001013548,641.6792579041851,C 312.40629531252733,650.9127846027039 333.425570363818,654.6651314743686 353.8164371956849,652.4444124293613,C 374.2073040275517,650.2236933843539 393.8755733062269,642.0589202881667 410.0250753715813,629.4132638689492,C 426.17457743693575,616.7676074497317 438.7587540948583,599.7313926328256 446.62841129651605,580.7897047787778,C 457.2253879675965,555.2835589382767 459.20334648280857,526.6257716007281 454.46829425955036,499.4147688509697,C 449.73324203629215,472.20376610121133 438.56251713272655,446.41808428959604 424.4269876262371,422.6894898142482,C 396.1559286132242,375.2323008635242 356.97218723968234,335.31376816740885 324.7175753519964,290.46872861121346,C 280.5178139405712,229.01580969924817 250.72148234745336,155.6938545381975 250,80M 250 , 80C 261.95227026230896,120.97127174535612 262.339725346817,165.1332490386035 251.87079055880739,206.5084019357167,C 241.40185577079828,247.88355483282942 220.1317779611314,285.8222469037242 194.9983367553392,320.31589858066366,C 168.94913458362487,356.0663594433887 138.57143893676752,388.9925464759969 117.68302721590804,427.9839640119104,C 107.23882135546981,447.4796727798712 99.34972308589833,468.54229780704503 96.48159313224305,490.47259481801365,C 93.61346317858778,512.4028918289823 95.94739153069838,535.190958881541 104.6633343359543,555.518192767042,C 116.11738365712155,582.23121104739 139.08504564829695,604.0669373198815 166.8106896347772,612.7887064656966,C 194.53633362125737,621.5104756115117 226.2149071720774,616.7047882556183 250,600,C 255.7910480472868,622.1333014405203 269.8112964969287,642.0073011937233 288.7064740448357,654.9065854985208,C 307.6016515927427,667.8058698033184 331.1830362159502,673.6123822386129 353.92806330573563,671.146005781571,C 376.67309039552066,668.67962932453 398.35840598646973,658.0194331180911 414.5686956574267,641.8749052858327,C 430.77898532838367,625.7303774535743 441.4489112488125,604.3257504462667 445.5840764559679,581.8242020806001,C 449.8821005512654,558.4364552283564 447.2581481897358,534.0502917318054 439.8044561597864,511.4692778247404,C 432.35076412983705,488.88826391767543 420.2273200680885,468.0595845649348 406.0357690770089,448.97923880244974,C 377.652667094836,410.81854727747685 341.50098403250564,379.16845291238036 310.67849248248416,342.9494955772579,C 279.9976845544907,306.8970281267234 254.53757792202882,265.4998162593506 242.82254542934712,219.63206726202478,C 231.10751293666624,173.76431826469897 233.34817296397554,124.31488509235442 250,80M 250 , 80C 267.193613609795,123.92005936415254 269.40671323601777,173.37664003002502 257.14798602488565,218.92129471832692,C 244.88925881375457,264.46594940662806 218.43810256344372,305.1004051199303 187.06861942910322,340.32181184081304,C 160.26604004797633,370.41553526968113 129.9149121635827,397.2951926818644 104.37385703030908,428.4667334518342,C 78.83280189703366,459.6382742218025 58.25491826889328,496.7518995742606 55.76949443290377,536.9741958743266,C 54.26594339140885,561.3065751722269 59.60898140554493,586.220832948323 72.1912145391623,607.1017514482973,C 84.7734476727797,627.9826699482715 104.60441768602792,644.5325061614936 127.64270199239765,652.5051346019857,C 150.68098629876954,660.4777630424778 176.67449757266652,659.6987946764424 199.09384983383796,650.1228878149032,C 221.5132020950094,640.546980953364 240.08882921633096,622.273168650381 250,600,C 259.85600610049784,614.9654269266258 273.7525217316495,627.2404965001474 289.81601100717654,635.1821066419419,C 305.8795002827036,643.1237167837364 324.06128827550543,646.7077935430497 341.9417238365821,645.5267416833033,C 359.82215939765877,644.3456898235568 377.34268142303824,638.4131365535719 392.3685853742962,628.6495782986734,C 407.3944893255541,618.886020043775 419.8896576349951,605.3429905143787 428.74612418852837,589.7651902994777,C 442.6613146529805,565.289508525345 447.3528635765369,536.1350537169478 444.2843278014046,508.1479922033247,C 441.21579202627225,480.16093068970156 430.7604316590861,453.36549968062013 416.86788861357087,428.87695599792846,C 389.0828025224945,379.89986863247134 348.73740831221784,339.3553871165011 316.3858200373701,293.2669847576985,C 294.5640241642013,262.17943196585264 276.132590122582,228.4805854725923 264.4110296068097,192.35259448511647,C 252.68946909103744,156.2246034976406 247.6499175436311,117.90915227440881 250,80M 250 , 80C 266.63943352706235,123.26096092272114 268.6657184975046,171.80420006685193 256.749335241658,216.59684788051118,C 244.832951985813,261.3894956941688 219.21703707805537,301.3960077264651 189.65330321131225,337.09428678743575,C 165.4360471355314,366.33668118121966 138.54584566503658,393.5577896834698 117.7124847553764,425.2999413895119,C 107.2958043005449,441.1710172425327 98.48284702465628,458.2047425304601 92.8748419966632,476.3416816337491,C 87.26683696867013,494.478620737038 84.93939927259456,513.7409003499894 87.1951889790555,532.5905606448231,C 89.3594750354707,550.6756050208131 95.79904273893872,568.3074467346501 106.31406990611207,583.1798092870198,C 116.82909707328541,598.0521718393895 131.4070698316005,610.0713579093621 148.13883488016756,617.268649245349,C 164.87059992873466,624.4659405813359 183.68203495257856,626.7878509512753 201.64294269440578,623.7615070671317,C 219.603850436233,620.7351631829879 236.63343190818827,612.3728663478793 250,600,C 263.3274749486616,616.9521193410055 282.17803063579396,629.4844590007691 302.9611553321321,635.2340386823943,C 323.74428002847014,640.9836183640194 346.3279755941974,639.9181206287612 366.5346371024786,632.38905897749,C 386.74129861075966,624.8599973262191 404.44703478738387,610.9510172199795 416.91327369782516,593.3558807872408,C 429.37951260826645,575.7607443545022 436.5905573948272,554.6301546545691 438.3601334015451,533.1391207237566,C 440.2346349561231,510.3737936850381 436.1091811847226,487.32902308055554 428.007688735335,465.9715960035306,C 419.9061962859475,444.6141689265056 407.94157739828404,424.8887240123959 394.35939483868236,406.5230443850155,C 367.19502971946946,369.7916851302547 333.9064093191458,337.9497156721271 306.40936773084053,301.46673074869705,C 282.7103019618182,270.02288773110314 263.31039448453356,234.93064607405876 252.993736883103,196.93159927056143,C 242.6770792816726,158.93255246706408 241.47144350472647,118.43988431494638 250,80M 250 , 80C 256.758102241046,118.936010680962 254.29906804692178,159.38596984392865 243.2984814808142,197.34215470028624,C 232.29789491470666,235.2983395566438 212.76884032784403,270.4122147172533 188.97090892205264,301.96127705599264,C 158.9308007287338,341.7856311098433 122.03726418805903,376.05384683564785 92.06186726469191,415.9269311828531,C 77.07416880300053,435.8634733564528 63.917959446574514,457.3811887812401 55.25619997845231,480.7707322127546,C 46.5944405103301,504.16027564426906 42.57570693719131,529.4917914277142 45.55521025381458,554.2550581549564,C 48.372392365481375,577.6692398613542 57.569564349252154,600.4227105648824 72.62965597996707,618.5708250703891,C 87.68974761068199,636.7189395758958 108.57642768715402,650.056647160398 131.5050600864924,655.5737330149523,C 154.43369248583133,661.090818869506 179.21860903472933,658.6915424222029 200.58296296728864,648.7053118483142,C 221.94731689984795,638.7190812744254 239.71295875896098,621.2211498872161 250,600,C 263.1492663014551,611.850182362367 279.7559067827237,619.8141657557945 297.22627211493443,622.6630886131261,C 314.6966374471452,625.5120114704575 332.9562956134187,623.2347588897126 349.234513978439,616.2813688425015,C 365.51273234345916,609.3279787952905 379.74080814901737,597.7473367611016 390.0964052578065,583.3914447718042,C 400.45200236659565,569.0355527825069 406.92214121653063,551.9909011856521 409.28125500313456,534.4476800324605,C 411.7338986321843,516.2089372305177 409.79818499500783,497.5059790102564 404.6662561764395,479.8331041346826,C 399.5343273578712,462.1602292591089 391.27712607196173,445.4998603209876 381.40347562918373,429.96994639011314,C 361.65617474362557,398.9101185283637 335.80266142566194,372.29917676334173 312.14224660583136,344.1060291983781,C 281.430592708375,307.5108047744409 254.36184990107262,266.6626260297893 241.90439396174386,220.5407448097527,C 229.4469380224187,174.41886358971723 231.91284283592438,124.21844503685443 250,80M 250 , 80C 228.68937510785355,156.97770872502622 189.71337684852136,227.7130845720751 147.58471440165744,295.5723961975768,C 125.16390568682597,331.6870164372889 102.41946546782391,368.1463926409175 88.82808770998774,408.4233452208916,C 75.23670995214943,448.70029780086657 72.03562601530318,493.92985063869 88.40334612329578,533.1606573720753,C 100.9494067496349,563.2315576837713 125.02585496682727,588.6113083742171 155.0399262314534,601.2927203191733,C 185.0539974960795,613.9741322641296 220.37349798620494,613.5621923457209 250,600,C 271.356960535893,620.7010299923863 302.2141678430476,631.1246657617045 331.7679779949525,627.7743356910199,C 361.3217881468574,624.4240056203354 388.81220440943025,607.5049373371156 406.14357039316644,583.3331322904262,C 419.2933517953589,564.9933226782668 426.7640215640195,542.8503556367511 428.73737089710426,520.3698916747838,C 430.710720230189,497.8894277128165 427.340075956869,475.1327812139283 420.60685146429086,453.5937688069435,C 407.1404024791327,410.51574399296373 381.1026488995107,372.66146816024184 355.8213971638842,335.27270272430366,C 329.7028900260984,296.64570960214957 304.11752171915487,257.3702878653843 285.27914139690796,214.7166076068194,C 266.4407610746616,172.06292734825516 254.19252996674834,126.43967813457957 250,80M 250 , 80C 263.9850005642551,125.90922162790577 263.756597749478,175.88234977315264 250.3053558270251,221.9507875804631,C 236.85411390457318,268.0192253877727 210.3541396565263,309.30256288674707 179.6444652123157,346.18281189340206,C 149.60042991518335,382.263673152152 115.28853193067883,415.1990927264936 90.76999288200788,455.24049441308915,C 78.51072335766297,475.2611952563885 68.89192143447946,497.1215180694535 64.60906718459509,520.2034441373029,C 60.32621293471072,543.2853702051524 61.57804464862965,567.5994123715399 69.87728314466024,589.5593939724754,C 76.72366432598838,607.6750807124969 88.36715112936133,624.0350064872927 103.61980641058041,635.968469866167,C 118.87246169179949,647.9019332450413 137.68028154647683,655.3008352070107 156.9992692384956,656.6527804345487,C 176.31825693051437,658.0047256620866 196.03379074217145,653.2781734206405 212.5821767627333,643.2182548594836,C 229.13056278329515,633.1583362983267 242.41690532586827,617.8198685883424 250,600,C 260.5668588314817,616.3658540724207 275.6962843185111,629.7498630653374 293.2237466649484,638.2520832917521,C 310.75120901138575,646.7543035181667 330.6160766771936,650.3456703532224 350.01908814147424,648.6070412377336,C 369.42209960575485,646.8684121222449 388.29129288536996,639.8195584576445 404.22354308539514,628.6096035671006,C 420.1557932854203,617.3996486765568 433.11070585437744,602.0951652846304 441.9646239520029,584.7427066863577,C 453.1239695189809,562.87192814519 457.7219771418117,537.9265235403036 456.66440726648415,513.3960630179483,C 455.60683739115666,488.86560249559307 449.06122287998573,464.7726605194627 439.3788350399902,442.2091210543004,C 420.0140593599924,397.0820421239671 388.9871658356957,358.1489672219168 359.9642979476537,318.53683613213036,C 307.6713029301976,247.16425566558308 263.93838204144566,167.3746191775172 250,80M 250 , 80C 260.3818694569867,119.62949366654078 260.0380682695031,161.93580801177166 249.5479536060631,201.53678623246955,C 239.0578389426232,241.1377644531674 218.47998849141132,277.5454413061288 193.20877677662662,309.7889808164684,C 164.75177421508042,346.0972709291358 130.38532344456445,377.43848249470574 101.85066268984836,413.68577289422024,C 87.5833323124863,431.80941809397535 74.8485450629065,451.30398232382 65.87875350765195,472.55406634432893,C 56.9089619523974,493.8041503648379 51.81075050321734,516.8720164766759 52.711072081622575,539.9200674241825,C 53.62224335552335,563.2458683895048 60.830727528820006,586.4423610163907 74.22735218545661,605.5592036315667,C 87.62397684209321,624.6760462467427 107.19265552691067,639.4972051870482 129.40377859524236,646.6797698966512,C 151.6149016635748,653.862334606254 176.28417876391725,653.2897487568674 198.06551819853647,644.8935307869631,C 219.84685763315568,636.4973128170587 238.54940039982736,620.3422464973947 250,600,C 274.28946932440726,613.2739594221015 303.83599258709023,616.5307106919995 330.4675019159381,608.9849151959363,C 357.0990112447859,601.439119699873 380.38142555898276,583.2744261509582 395.0008800203161,559.7702165268522,C 408.0002602674974,538.8706570308856 414.2492471568766,514.1057035392479 414.3959834216206,489.49363449975294,C 414.5427196863646,464.881565460258 408.79671951002985,440.4763823350724 399.7789008271864,417.57541248356574,C 381.7432634614927,371.77347278052855 351.63569154647143,331.94936692272546 325.28157614934094,290.3733822996021,C 284.95009974690066,226.74685500139827 254.8181484004757,155.1781112480266 250,80M 250 , 80C 229.00508839124373,161.2999836785665 186.80526954771307,235.42557150129977 139.2412206343451,304.6219219148975,C 109.65313728882207,347.66677259555775 78.43063573210772,390.741249627239 61.97644706802735,440.31516939952246,C 53.74935273597879,465.10212928567273 49.517827133485326,491.4413564733127 51.85471618904907,517.4532270536465,C 54.191605244612816,543.4650976339803 63.31842358320499,569.062295407292 79.3444513506956,589.6837622693189,C 99.25745582196872,615.3067904947267 130.05651403429513,632.4887198264403 162.43520714604074,634.6537960117931,C 194.81390025778632,636.818872197146 227.91900860319308,623.7801837975892 250,600,C 256.7032592628418,620.2307138563906 270.4383981725485,638.0527507209574 288.28367795723943,649.7044225876953,C 306.1289577419304,661.3560944544331 327.945590724168,666.7529652976514 349.1781207806803,664.9103760099007,C 370.4106508371922,663.0677867221502 390.8926575763926,654.0374128673672 406.8438254690132,639.9032092907433,C 422.79499336163383,625.7690057141195 434.15163277022515,606.6931772299862 439.7430926349673,586.1274036130033,C 446.35508133062194,561.8080548271274 444.96621351906794,535.6811343991313 437.84219572816806,511.5068197160739,C 430.71817793726814,487.3325050330165 418.08971538636956,465.0548402884016 403.1087056894563,444.7886500114518,C 373.14668629560066,404.25626945753953 334.3762503367726,371.0566380589359 302.5071423011992,332.0059475075269,C 273.996574781781,297.0706318280355 250.9671435871044,256.9073011261568 240.86054506390704,212.9620464540546,C 230.7539465407101,169.01679178195232 233.72721456595843,122.05383687753897 250,80M 250 , 80C 263.36039999381194,121.52595874664478 264.6248619395591,166.76773758476403 254.2258007361308,209.1324052207794,C 243.82673953270273,251.4970728567946 221.862243920385,290.37751751164075 194.66329029386236,324.4820987206946,C 163.21620576847997,363.91338209690696 124.76237866289128,397.40862689625743 94.1456992725721,437.4881001581669,C 78.83735957740076,457.5278367891187 65.60752592410937,479.39900753653103 57.40010398002787,503.24380851058993,C 49.19268203594638,527.0886094846488 46.197513325298566,552.9769523281949 50.82645255546167,577.766249011726,C 55.05808810611986,600.427870585421 65.76874033332271,621.9805115864842 81.99471806556816,638.3565147134877,C 98.22069579781362,654.7325178404913 119.9007267218795,665.7190036092127 142.77036771551985,668.6233714586697,C 165.64000870916075,671.5277393081262 189.48959826909265,666.2718451748186 208.92261788777972,653.8696848677309,C 228.3556375064668,641.4675245606434 243.19133846868613,622.0249394990084 250,600,C 272.14378824219517,619.331834619559 302.54272636419773,628.8247681001093 331.7668854493007,625.6600069334881,C 360.9910445344036,622.495245766867 388.45468129212077,606.814946827013 406.8384256137261,583.877965068486,C 423.7261081922287,562.8075856903483 432.98799371689677,536.1175786438865 434.75595473662383,509.1726528907204,C 436.5239157563509,482.2277271375543 431.0907279593519,455.13632751578496 421.5725505142845,429.8666023859954,C 402.53619562414616,379.3271521263667 368.5670078268585,336.10507277628176 338.51426448586034,291.23357338380697,C 295.6550841356442,227.24089014606682 261.5154239249479,156.1535807436974 250,80M 250 , 80C 246.1581057761942,156.168196061716 214.16389685683671,228.86017325110384 168.92339186401892,290.2576565099293,C 138.37420086948282,331.7170399309469 102.47125076461795,369.3208197720707 75.47714145468713,413.177992579208,C 61.98008679971318,435.1065789827761 50.882617544749145,458.7205605138329 44.9337180247837,483.7733843171382,C 38.98481850481825,508.82620812044354 38.3587881475556,535.3563194078272 45.00091520909898,560.2343324739147,C 50.709391736565934,581.6153678443237 61.82279653103358,601.6259057617108 77.49655226169166,617.2486058827201,C 93.17030799234975,632.8713060037294 113.3633327385142,643.9801259864244 135.0306015312494,648.4817746664841,C 156.69787032398463,652.9834233465435 179.72093220727535,650.8252008674068 200.12060845062558,642.246821828112,C 220.52028469397578,633.6684427888173 238.18685716151816,618.7132315235222 250,600,C 256.24737938031706,620.8797201304438 269.9506415774478,639.4404878198627 288.05373142831957,651.5759976854816,C 306.1568212791913,663.7115075511006 328.5040246640248,669.3251365145286 350.2082013267104,667.3449402509718,C 371.9123779893957,665.3647439874155 392.78703817208543,655.8510333349908 408.82215066707636,641.0906935990552,C 424.8572631620672,626.3303538631195 435.98746790163176,606.5070150286449 441.0920187758593,585.3189046310735,C 446.70893815835734,562.0040409137741 445.126960785267,537.2542087880871 438.37243076755766,514.2431467146934,C 431.61790074984833,491.2320846412996 419.87377820782814,469.9140256515892 405.8825935087535,450.4363614122073,C 377.9002241105875,411.4810329334374 341.5126614967465,379.4099053197249 310.5135177548611,342.8095815329849,C 279.94148458358814,306.71354216477096 254.51159083091758,265.35401940163274 242.8117318979761,219.5207719578138,C 231.1118729650355,173.6875245139949 233.35217769084065,124.27666747463833 250,80M 250 , 80C 267.38495486369584,123.57965446573857 269.80012994785267,172.796094494039 257.72089141346055,218.133881552906,C 245.64165287906954,263.47166861177215 219.3524492748283,303.91771473985 188.20825821273354,339.0099119075046,C 161.7666217447916,368.8034332264051 131.86306325400741,395.48911347858456 106.82063504629006,426.4679908169243,C 81.77820683857088,457.4468681552627 61.777927285220464,494.35419083127044 59.79349012368927,534.139565792863,C 58.620137511559285,557.6637541827788 63.93550138248798,581.6545854109642 76.06676319065184,601.8436092283365,C 88.19802499881573,622.0326330457088 107.15183629411496,638.1573478084107 129.2586743849733,646.2845801405899,C 151.3655124758332,654.4118124727692 176.40713169538606,654.3857081436513 198.41348363645488,645.9901932694742,C 220.4198355775237,637.594678395297 239.15349858445933,620.9073576235589 250,600,C 259.3613289746597,618.3393617460428 274.3941395096942,633.7308216416576 292.50036551438956,643.5354761124134,C 310.60659151908493,653.3401305831693 331.6938127037011,657.5102220371573 352.1812736041517,655.4533760836334,C 372.6687345046022,653.3965301301096 392.44760971660634,645.1467245303193 408.53038419615825,632.2893906517934,C 424.61315867571017,619.4320567732676 436.949617786677,602.0726222774985 444.4047171340823,582.8791816494003,C 452.6936081726111,561.5391121738476 454.97804483936886,538.0854512559149 452.3778431290617,515.3402708667483,C 449.77764141875457,492.59509047758155 442.4257875589453,470.5597716744428 432.4282248720417,449.96479606893524,C 412.4330994982295,408.77484485791604 382.55283016528097,373.3683451122949 354.6984910128257,337.02893248824984,C 326.03273177455446,299.6309225250741 299.25295037181877,260.3721267861576 280.54634834669156,217.12400610345247,C 261.8397463215649,173.87588542074766 251.1396658469937,127.10666687072506 250,80M 250 , 80C 241.3704862598004,155.3805017408103 209.14720312162964,226.2016766293758 168.37868257959965,290.1908654264115,C 144.29577793919003,327.9907539513691 117.83131707933829,364.7315363405137 100.69367852794103,406.14553413473715,C 92.12485925223929,426.85253303185016 86.05148290179777,448.73039267420717 84.43039644680077,471.0816017200307,C 82.80930999180379,493.4328107658542 85.75921639571084,516.247757094146 94.2470983977615,536.9880638957326,C 106.15385640795886,566.0824615421659 129.45425774598607,590.6203183178087 158.50624185547363,602.6301925896014,C 187.55822596496117,614.6400668613941 221.71764640395517,613.724552298362 250,600,C 258.9614024761989,621.1274344060868 275.24726680687286,639.0607328983224 295.40507594684993,650.0305984216631,C 315.562885086827,661.0004639450037 339.43459407465986,664.9279527311384 362.0741408269766,661.1694767403161,C 384.71368757929304,657.4110007494943 405.9449092146427,646.0408272456581 421.974630834293,629.6175741050522,C 438.0043524539433,613.1943209644463 448.78233689847224,591.9025999016607 453.47658963292844,569.4384237496413,C 457.8911471626598,548.3127188524153 457.03583008124536,526.2462780442781 452.23681372773285,505.2045773614268,C 447.43779737422034,484.16287667857546 438.78576484235464,464.1272057616277 428.0800235259206,445.3876532468641,C 406.6685408930495,407.90854821733615 377.534771520189,375.551461844746 350.50561863554225,341.89793607566025,C 320.5091657422015,304.54987693612554 292.9358341451023,264.71241938403386 274.7516924484325,220.39536060947137,C 256.56755075176346,176.0783018349092 247.76112655202525,127.8503098564313 250,80M 250 , 80C 260.3559329417788,120.03635585491241 259.9314888920454,162.70934172216153 249.45502975816055,202.71432817700037,C 238.978570624276,242.7193146318389 218.48540296764003,279.49593212628395 194.15656138776458,312.93636580494746,C 169.15997647437118,347.29462479746957 140.02792366656467,378.7775774720315 118.44662351008517,415.37766902773194,C 107.65597343184098,433.6777148055826 98.88076589027443,453.3209216974471 94.2332696166448,474.05086581143684,C 89.58577334301518,494.78080992542664 89.1913130953066,516.6156140862633 94.4857917067527,537.1898285503803,C 98.58473401301539,553.1182181566228 106.08728732281949,568.2052445966567 116.62638565263669,580.8322921483517,C 127.16548398245389,593.4593397000467 140.72708203218366,603.576421559253 155.91331176801214,609.8925398204133,C 171.09954150384058,616.2086580815735 187.86940088993634,618.6972881592897 204.22781250939153,616.9892797381176,C 220.5862241288467,615.2812713169455 236.49065959353857,609.3815054900944 250,600,C 279.21293100158704,615.884658198775 315.70273624026294,617.5255353434842 346.3175040165508,604.5465639744056,C 376.9322717928386,591.5675926053269 400.82947038794777,564.5227829479659 411.7140514006955,533.1023501060662,C 418.9919748313071,512.0932268231211 420.77023068944965,489.36299945779604 418.16568792463926,467.28206225925067,C 415.5611451598289,445.2011250607053 408.68679478914646,423.7688639655261 399.4946993699383,403.5239433091243,C 381.11050853151727,363.0341019963168 354.0616779365752,327.2180816528345 329.7241654991741,290.0012681046656,C 288.28883291473824,226.6385455968519 256.5349575193035,155.42556410266954 250,80M 250 , 80C 245.69365496003712,156.0430727014275 214.06957741847896,228.6085640099766 169.44407122998643,290.33098871039334,C 137.28119459693045,334.81610273346973 98.97656924694282,375.08578860128927 71.87474459602373,422.82326971990426,C 58.32383227054507,446.6920102792161 47.81978289732233,472.56699114058785 43.70125430550337,499.70334540896584,C 39.58272571368441,526.8396996773438 42.11363056825811,555.2487155719763 53.0321173074077,580.4306664111698,C 61.14555013738845,599.1431557462341 73.84933254996271,615.9163552957453 90.00444990307062,628.3661437561498,C 106.15956725617852,640.8159322165542 125.72132858942898,648.8582095993034 145.99413477142218,651.093915060415,C 166.26694095341537,653.3296205215266 187.16277108970448,649.7318007968485 205.4759381547913,640.7533286858641,C 223.7891052198781,631.7748565748798 239.44419682321208,617.4516494548343 250,600,C 279.892573711552,617.9690519787022 318.44948769114154,620.5146979047838 350.5599103627923,606.8995024246665,C 382.67033303444305,593.2843069445491 407.28630002346046,564.2267603419241 417.6320853141432,530.9188405805075,C 428.5845560213408,495.65771682288045 424.1896321843116,457.0084737902916 411.7414186109506,422.2472102621241,C 399.293205037589,387.4859467339562 379.5434271925654,355.87070124039025 359.61558351704565,324.78719259534176,C 335.3010033588928,286.8612395994778 310.7306787601504,248.92674955220906 291.42967090924355,208.21989736672373,C 272.1286630583371,167.513045181239 257.9027964616175,124.35225503847465 250,80M 250 , 80C 255.88170602072478,128.30728746709912 249.53037796474754,177.90446674187413 232.76075424679166,223.58781391019522,C 215.99113052883695,269.27116107851396 188.77188851816885,310.3029811565526 160.0530361981498,349.5893147798861,C 135.14930613607308,383.6567014839912 108.91948054917053,417.58993808670533 93.7160532257741,456.9553849338329,C 86.11433956407218,476.63810835739946 81.46449711014097,497.6191045772364 81.72461811965105,518.7171610996636,C 81.98473912916114,539.8152176220908 87.29926721006585,560.989210469343 98.14319356957833,579.089069945941,C 113.32950022628648,604.4369012887598 139.8316388001906,623.0346803691593 169.07310354073317,627.2859394159797,C 198.31456828127568,631.5371984628 229.35284597328314,621.1383891120538 250,600,C 261.13982971955176,616.6137934970343 276.9158572916017,630.0814342473983 295.06666966418675,638.4875005544127,C 313.2174820367718,646.8935668614271 333.6800208354311,650.209222266012 353.5666260555309,648.0558822179453,C 373.45323127563057,645.9025421698785 392.6900930554918,638.3019946527902 408.8277893564823,626.4829972909282,C 424.96548565747287,614.6639999290662 437.9637282915721,598.6960005787907 446.70859127182115,580.7059668934588,C 458.268044973834,556.9257244868107 462.3240479265461,529.8370863716217 460.1073724656173,503.48927339390303,C 457.8906970046885,477.1414604161844 449.6151976012508,451.548475637666 438.1175773811409,427.73827555278547,C 415.1223369409078,380.1178753830088 380.2440219061123,339.46651411262553 349.01159059292564,296.7931169019409,C 301.6374757804348,232.06506551758184 263.6765295933018,159.03783858739328 250,80M 250.871624590821 , 576.4901740228491C 250.74004405625666,584.3316003682144 250.44942286676576,592.1703576292597 250,600,C 247.07406237986152,650.9743648106796 237.37952544632046,701.5560807131097 221.25086577062336,750M 250.99296086319575 , 575.881557084798C 250.12436325547446,583.886874952702 249.79238745768376,591.9503743563694 250,600,C 250.77828219094624,630.1758275888689 259.28217070781227,660.1208644364824 274.47987160256974,686.2018188161704,C 289.6775724973272,712.2827731958585 311.53734225227373,734.445169681188 337.4068909069149,750M 249.5729503282429 , 576.9042281669203C 249.27519515870446,584.6025712138888 249.41785503721331,592.3179266436659 250,600,C 254.4879844512719,659.2241245405942 286.5848260077632,715.7794122089452 335.12955078058866,750M 249.2325613800995 , 575.3588775743392C 249.73595750405684,583.56238242883 249.99192543510367,591.78106853924 250,600,C 250.05028637565553,651.1854546009115 240.37756848664793,702.3636038718079 221.6498602622148,750M 249.72955568203315 , 575.0372643816294C 249.45400512113318,583.3567811807316 249.54426928866172,591.6884058447914 250,600,C 252.94125057438237,653.6423823868527 271.4853816709253,706.3378467998313 302.7866998700622,750M 250.94827555919028 , 575.6825516359431C 251.00143877603705,583.7971573951004 250.68491007778172,591.9141759146314 250,600,C 245.35817652965,654.7998477962926 223.3024047408701,707.9936437974454 187.80542061248474,750M 250.76676256423414 , 575.3580691859015C 250.02797080758606,583.5475125313706 249.77179276725386,591.7804673473937 250,600,C 251.57151267778286,656.6024994632403 277.2515677369986,712.1404240749426 319.35815995671356,750M 250.67709969483028 , 576.7358912985358C 250.07767687630422,584.4737017664502 249.8516271271072,592.2404250088472 250,600,C 251.03991320933247,654.3851741546837 271.12289880608273,708.2210936721322 305.95609523370706,750M 249.59101416458932 , 576.9125407313833C 249.52678752984693,584.6101709849507 249.66317784944934,592.3094741779157 250,600,C 252.25216293557236,651.4227380332457 263.55247652843525,702.4366079153733 283.2271800364489,750M 249.00073549790972 , 576.0383465104311C 249.73547199943457,584.0020597624144 250.06912257294982,592.0027636926 250,600,C 249.5308624855343,654.2775450007058 229.838118511931,708.1963162602755 195.21552463018654,750M 250.11756390940016 , 576.9930653187009C 249.75003735980917,584.655678564266 249.7108014887677,592.3340309329567 250,600,C 252.0283046954097,653.7655639625979 270.66602271784916,706.7897662707369 302.7241821973963,750M 249.77947813605422 , 575.0246179684237C 250.31914494914957,583.336923199905 250.39280596780557,591.6794614355726 250,600,C 247.34913242095973,656.1515041225462 222.5365921977422,710.9588108998041 182.0915174940324,750M 249.01263731625565 , 575.8415230908014C 248.95738231860273,583.9039394211219 249.28700253601272,591.9689823300821 250,600,C 254.92737156302806,655.5006295080376 278.76961525893836,709.1494489317249 316.6619805021749,750M 249.1893546206851 , 575.414462581046C 249.93568816701722,583.584698603001 250.20651224763697,591.798346318674 250,600,C 248.58143930939565,656.3382736056035 223.55338086890634,711.7112446795223 182.20142077870798,750M 250.07097842342324 , 576.9974778510866C 250.4949574541223,584.6576542582997 250.47124421375912,592.3425859652822 250,600,C 246.35101567512774,659.2936379183332 214.2582692102432,716.1994878929663 165.40567495470927,750M 249.00130956635329 , 575.9488392949372C 248.88380582717468,583.9761573633123 249.21740216319037,592.0100573765889 250,600,C 255.74522262215635,658.6559238355266 286.89782126415776,714.3822791274722 333.85421533167454,750M 249.1992342923125 , 575.4010223030932C 249.86558192065047,583.5811786594741 250.13292659086372,591.7938250263554 250,600,C 249.12736297073693,653.8719311469824 230.4560151696302,707.3078683418225 197.58766633110628,750M 249.5446055649744 , 575.1097102109158C 249.93574723142717,583.3997912070132 250.0876296280303,591.7011593717325 250,600,C 249.45970531140998,651.1678482916567 239.7221227724981,702.2249946321967 221.39210697177134,750M 249.0682976229701 , 575.6367773676698C 249.7861303417651,583.7354490309016 250.0972192611028,591.8701589845632 250,600,C 249.35242152399286,654.1529527712665 229.96148638282506,707.9052741026848 195.88809935776533,750M 250.94789669990095 , 575.6814221503041C 250.38482023091467,583.7754658462094 250.068658748395,591.886684744359 250,600,C 249.56697128421297,651.1704417580323 259.095763336883,702.406640104967 277.8966600570593,750M 250.61394259111648 , 576.7893506792378C 250.20231314227254,584.5189109066063 249.99756791659624,592.2594874719666 250,600,C 250.01604207772627,651.0565975756984 259.1361184640839,702.0971991460425 276.8024164266217,750M 250.77283645201706 , 576.6346052461441C 250.91402594547722,584.4294532564668 250.65596394137316,592.2315187272728 250,600,C 245.19541908720572,656.8999216118679 218.14396134779048,711.6276612703606 175.85627167807573,750M 249.0088774255612 , 576.1329512784362C 249.81037629859247,584.0597365593464 250.14152432157346,592.0340539670715 250,600,C 248.98741408474973,656.995184042626 222.46787143667,713.0622004165206 179.0504176165843,750M 250.98602457777483 , 575.8334000839617C 250.8605614869387,583.8955141510985 250.53174727834784,591.9544627866961 250,600,C 246.6009097209148,651.42952008467 234.8409625952284,702.2971977282938 215.32194606540926,750M 249.0876061407953 , 575.5906866167769C 249.94178092451543,583.6941275325072 250.24684066544012,591.8554043119526 250,600,C 249.0822488637008,630.2815256719351 240.39127433225147,660.2954876369658 224.98679870072937,686.3821737945844,C 209.58232306920726,712.468859952203 187.4968517910057,734.573223991106 161.42334711404175,750M 250.05608095872694 , 576.9984262246497C 250.38752405477436,584.6611409019223 250.36880441021503,592.338992621188 250,600,C 247.37150866454013,654.6004628967444 226.37936029100115,708.1564260662606 191.20501117561557,750M 249.4088802439938 , 576.806583804734C 249.68906270392375,584.535305225981 249.88611781775447,592.2670401613184 250,600,C 250.73797401564107,650.1107663412953 247.97780405381053,700.2727342704222 241.74622704476917,750M 250.90395324063834 , 576.427631311692C 250.76470427296172,584.290187189833 250.46330110764552,592.1498708739574 250,600,C 246.98951808834005,651.0093141331932 237.1038954417013,701.6084845409298 220.69431405600506,750M 249.82871659201834 , 575.0147782005304C 249.75075073331655,583.3433812818084 249.80785521208654,591.6732486322051 250,600,C 251.1638816986771,650.4377643112294 257.2979471649897,700.759588165494 268.2845085784568,750M 250.99984010104467 , 575.9821178205196C 250.90601046326725,583.9956570862216 250.5725318256548,592.0063886213749 250,600,C 246.2742456099461,652.0184753960799 232.30382386936233,703.2833582594233 209.12283138003644,750M 249.57630326490872 , 576.905804105021C 249.8118768214639,584.6017529924229 249.9531232098576,592.300589194971 250,600,C 250.30556830054,650.18892862982 246.5929301262133,700.4017769496428 238.90929822180277,750M 250.47253254135038 , 575.1186867768126C 250.7780400686034,583.412636092817 250.6202021106808,591.7236312644031 250,600,C 245.72721722820177,657.0187123479624 218.53880913731325,711.995382893431 175.81833033594978,750M 249.09688906756304 , 575.57059268321C 249.9341332206719,583.6820978278981 250.23604204883134,591.8488174087804 250,600,C 248.2753857695721,659.5556832404835 215.88216173489792,717.4059108836896 166.00752835115645,750M 249.53560885730786 , 575.1143697912847C 249.83104992907639,583.4061599746558 249.98587664948298,591.7029601421407 250,600,C 250.0856993903182,650.3457912772042 244.97303693560568,700.6989296114268 234.76958152803633,750M 249.09722135330748 , 576.4301054697117C 248.93118363502492,584.2953695782998 249.23281764364168,592.1704802667196 250,600,C 255.9613347466979,660.8387140933708 291.7575471478954,718.0407082655477 343.8679138356214,750M 250.9319255141805 , 575.6373502571083C 251.08403016866308,583.7671431448466 250.77271672891166,591.9055835861814 250,600,C 244.40665670505675,658.5917815426079 213.42876823933784,714.3197589917478 166.61848352385235,750M 250.19855148677965 , 575.01990954137C 250.62549900674662,583.3407912310782 250.55916043674887,591.6869562803446 250,600,C 246.10943514070172,657.8410660767621 217.1586030609941,713.5643006257377 172.06796954438502,750M 250.99649754964773 , 575.916378031917C 250.58335512967707,583.9406286768493 250.25116674232282,591.9690473579141 250,600,C 248.43521227144925,650.0334400434153 250.01921965687595,700.1651498974786 254.73953728100793,750M 249.2281964630518 , 575.36413892999C 249.32934807487612,583.5799935981918 249.58667788395806,591.7939251523047 250,600,C 252.5569688545792,650.7659207903923 261.11048109752466,701.2272210981106 275.42595669587945,750M 249.39462904019484 , 576.7959434659726C 249.13458469580894,584.533486910442 249.3368542514502,592.2865416749503 250,600,C 255.2376336371929,660.9221560580245 291.06747103572,718.4399509138485 343.4402235560474,750" stroke="hsl(210,80%, 90%)" fill="none" stroke-width="1"/></svg>