<svg viewBox="0 0 500 800" width="500" height="800" version="1.1" xmlns="http://www.w3.org/2000/svg">
<rect width="500" height="800" fill="hsl(210,80%, 20%)" /><path d="M 250 , 80C 249.20616142922916,127.74521931056358 238.2048790686833,175.19078234086837 218.77585556627923,218.81129577701773,C 199.3468320638758,262.43180921316605 171.42299772958228,301.68256724017147 142.07673810768634,339.35262422041,C 118.85964452130429,369.15503343994766 94.72332072325275,398.5646719285444 76.75587219967288,431.79700292473115,C 58.78842367609229,465.02933392091757 47.51258742247942,503.0643907593976 52.15353710758372,540.5567715308016,C 54.90650617361983,562.7969101832391 63.29163090670835,584.438205560327 77.0192040004759,602.1513741902888,C 90.74677709424344,619.8645428202507 109.79476300886856,633.4859710658378 131.14849614137455,640.2845508634066,C 152.50222927388089,647.083130660975 176.02266888349132,646.9730602160707 197.25559316073637,639.8060850804237,C 218.48851743798141,632.6391099447767 237.29176910884124,618.4581546633244 250,600,C 278.56844137204143,615.155638797633 313.96573982286696,616.6361856468418 343.7866173131384,604.1236121504618,C 373.60749480340974,591.6110386540818 397.0752818438196,565.6055808041393 408.1094886242664,535.2066415049068,C 415.76062478266874,514.127969673091 417.7357815354108,491.1876882837745 415.17142681621044,468.91047177044163,C 412.60707209701013,446.6332552571088 405.6265449901278,425.019953425006 396.27872013622203,404.6369099523423,C 377.58307042840505,363.8708230070098 350.0520068152307,327.92165500653476 325.6013638710695,290.32421862519425,C 284.47597843254897,227.08624708333198 253.9615637133121,155.33023553090504 250,80M 250 , 80C 243.92522499137755,126.81506201099141 230.50414954814417,172.591034517539 211.2114467146678,215.6763515046232,C 191.9187438811918,258.76166849170613 166.524233717236,298.76945030160374 141.741915016266,338.9489177234323,C 120.2951824445076,373.7204136060156 99.24996747311174,409.53009219896927 89.14412435095771,449.1140687388198,C 84.09120278987933,468.9060570087464 81.92514158983793,489.549125090743 84.09957966465726,509.8598768010589,C 86.27401773947658,530.1706285113747 92.88488425481725,550.1079158064638 104.13338979310383,567.1586031572558,C 119.37745039841562,590.2658248635503 143.39314798362648,607.6420286102848 170.36310951018942,613.8827219994829,C 197.33307103675236,620.123415388681 226.75954951398765,615.0401642254822 250,600,C 264.95071224422134,613.3038540207345 283.61208345143694,622.3898651221933 303.3025012869273,625.9681012628536,C 322.9929191224176,629.5463374035138 343.6412034157147,627.6042885948489 362.3592724166397,620.5226065000968,C 381.07734141756475,613.4409244053448 397.79635241383335,601.2634878768515 410.5189714886437,585.8151451731246,C 423.241590563454,570.3668024693977 431.94860540246543,551.7308118611969 436.23032763986913,532.1813059058986,C 441.091752404125,509.98499164015055 440.28719057786094,486.7323726173372 435.30112579539554,464.56372413107556,C 430.31506101293013,442.39507564481397 421.25494936042315,421.2875160347796 410.15205883129886,401.46238956303546,C 387.94627777304476,361.8121366195451 358.1028550382472,327.0654723158591 331.7377000851086,290.0503689769938,C 287.5445428479099,228.0058149088149 254.97356801047263,156.0120086391364 250,80M 250 , 80C 246.57756149107138,127.46858805821216 234.41595754729855,174.19155663971935 215.23809014388277,217.74829365530218,C 196.06022274046757,261.30503067088296 169.66227292262096,301.2103685553274 143.6191449947798,341.0442162896543,C 124.80572509004125,369.81998031937246 106.23864280100435,399.1363238053396 94.33522966102804,431.389976615914,C 82.43181652105125,463.6436294264885 77.82520177412171,499.470950442634 87.1386814654981,532.5654886633793,C 91.77402485680811,549.0367275679986 99.7792891113532,564.5973088016334 110.82084490444919,577.6691168279301,C 121.86240069754518,590.7409248542268 135.92678654662032,601.2752969003232 151.6645072602245,607.9918634449946,C 183.13994868743282,621.4249965343375 221.1702141691724,618.4389784582073 250,600,C 259.6083218630287,612.3332128002065 272.4197850755084,622.1475119355791 286.8263369991121,628.2203406563027,C 301.2328889227158,634.2931693770263 317.19656127212176,636.608251307211 332.7410921061547,634.9362620283778,C 348.2856229401876,633.2642727495445 363.36653853484603,627.6173088328788 376.27759278049416,618.8006958060605,C 389.1886470261423,609.9840827792422 399.90266664659293,598.0381017309353 407.5440043542355,584.3985289723591,C 418.2449283149072,565.2976808578212 422.82116263799463,543.0455898893376 421.9694999102654,521.1680479134911,C 421.1178371825362,499.2905059376447 415.01415035605044,477.8236400305308 405.93273877973206,457.90178931107613,C 387.76991562708963,418.05808787215415 358.5545933078428,384.5105312761522 331.66123465392565,349.95396967723303,C 301.74881738295096,311.5180753994298 274.37691334706426,270.2849216641306 258.90270238008765,224.1046285633189,C 243.4284914131132,177.92433546250845 239.93030026453286,127.65156684900012 250,80M 250 , 80C 265.8388631978206,122.2900567346012 268.10450307177393,169.41508361010585 257.1501036006627,213.22512376350426,C 246.1957041295519,257.0351639169024 222.20743658527402,296.73638534858435 192.88032586950277,331.0764357719591,C 164.28809082179194,364.55599680922626 130.7113905447262,393.52124415861783 102.2807723063877,427.1381574443063,C 88.06546318721645,443.9466140871489 75.19455340506128,462.03258026320214 65.6020042808044,481.84626819267737,C 56.009455156547546,501.6599561221526 49.77435311174493,523.258565641178 48.8743639904159,545.2537752934956,C 47.84067653006763,570.5164944381678 54.09883444622807,596.2435852460034 67.88163802859391,617.4404674166952,C 81.66444161095976,638.6373495873871 102.96978740869785,654.9765372646804 127.23517665000075,662.0803653394815,C 151.50056589130614,669.1841934142828 178.43816319339467,666.874624585233 201.0203930658862,655.5028884673685,C 223.60262293837775,644.131152349504 241.537503979859,623.8256091098946 250,600,C 262.06750449982843,619.3085269919449 280.5467420253907,634.5288923714603 301.8019314574097,642.6934990160594,C 323.0571208894287,650.8581056606585 346.9448825262841,651.9169198972902 368.88482737940393,645.8273633211425,C 390.8247722325235,639.737806744995 410.6715828020248,626.579946647892 425.18384053968964,609.0346266220955,C 439.6960982773545,591.489306596299 448.8427940267919,569.7211835533136 452.1275483490347,547.1899991970811,C 455.6994857154348,522.6889341505084 452.44616528825463,497.4528429666511 444.5588282266444,473.98263122831304,C 436.6714911650341,450.512419489975 424.29462575194634,428.7483693189161 410.01293470774874,408.5222914518664,C 381.4495526193392,368.07013571776554 345.73372708289054,333.1366286164852 316.3106821864851,293.30538298082206,C 293.6697046721213,262.65531464215275 274.6735798582452,229.0462021473578 262.90724883520215,192.8026647064953,C 251.1409178121591,156.5591272656328 246.59246500966168,117.95298746160367 250,80M 250 , 80C 244.0666014488578,155.55871440785327 213.03188744403036,227.22628416653373 171.7045905553797,290.7587882350147,C 143.33992281753987,334.3638266509269 110.64825149489229,375.9230756381974 91.66853624344397,424.35575221202686,C 82.17867861770443,448.5720904989586 76.43158658210592,474.5200253762157 77.42983509757418,500.51025311060243,C 78.42808361304246,526.5004808449892 86.44182468019329,552.4449420690955 101.8365161518926,573.4090044682373,C 118.29301604411272,595.8190080234216 143.22765429626287,612.0349729004813 170.5677676657807,617.0889662708693,C 197.90788103529854,622.1429596412573 227.18219971006926,615.8862405236371 250,600,C 259.1003243855956,616.4313753228618 272.99189311286096,630.1699568222122 289.51763952594973,639.0977619508035,C 306.0433859390385,648.0255670793948 325.1364770329328,652.10738849137 343.8743323049977,650.8040164313007,C 362.6121875770625,649.5006443712315 380.91449548457,642.8323801495992 396.23878020751215,631.9708748831079,C 411.56306493045423,621.1093696166165 423.86489035975086,606.1277840472602 431.9640262699331,589.1805129857527,C 443.93233944565577,564.1370701064959 446.55420018094605,535.1715360124313 441.7630843982264,507.8318256797422,C 436.97196861550674,480.49211534705313 425.1309981277524,454.7639823258191 410.2114961688822,431.3583630685116,C 380.37249225108405,384.54712455383327 339.19066859561656,346.0393652684371 306.84796244519123,300.92165738171354,C 284.06037460823137,269.13323106111426 265.49817161297017,233.9948776763701 255.24258292577127,196.25098932280576,C 244.98699423857235,158.5071009692415 243.03838537823023,118.4878439149985 250,80M 250 , 80C 227.06657570934124,167.11603587095146 181.02100660678587,245.87177226881946 135.1967285501657,323.4300161643193,C 116.22791425255403,355.53500478814044 98.06939123475676,388.58581986266796 87.9119257125449,424.4657878748895,C 77.75446019033242,460.3457558871112 76.44949735972244,499.68589526696434 90.41376120644705,534.2625571303087,C 102.50748481309009,564.2076080406512 126.24460807143775,589.5844323159765 156.00455239025658,602.126758210231,C 185.7644967090754,614.6690841044854 220.87237651136311,613.9479666833947 250,600,C 273.5429807610737,615.4104239495655 303.78853863489735,620.0886606602537 330.926508790578,612.6533607166729,C 358.06447894625865,605.218060773092 381.49804636249587,585.9310056330739 395.02640518732034,561.2584172620006,C 406.7370359623509,539.9009432018239 411.1946973970636,514.9394972853992 409.43601202260714,490.64572036344055,C 407.6773266481507,466.3519434414819 399.9477198120037,442.7610445840368 389.1975529565631,420.90436405014964,C 367.6972192456668,377.19100298234105 335.07162799185863,340.08794432520085 308.0390581678911,299.5618730347732,C 286.52484231322813,267.3086817488074 268.3335872489801,232.51504999452592 257.82706289587543,195.19558083983736,C 247.32053854277095,157.87611168514883 244.46691372461814,118.3733603980588 250,80M 250 , 80C 258.80644036579895,119.25415152524738 257.52868957293265,160.65790654550923 246.81379705630994,199.43461195275955,C 236.09890453968734,238.21131736000982 215.98413904938388,273.92996074163506 191.421675235127,305.7910212270735,C 163.000981292008,342.65676301940357 128.63479853684603,374.62457679507736 100.31653569360972,411.5690588140281,C 86.1574042719871,430.04129982350133 73.59223819227151,449.90292810364 64.90158688934767,471.49406680584457,C 56.21093558642386,493.0852055080491 51.50692057584905,516.4669289307319 52.91222039525675,539.6990149960085,C 54.30254613115924,562.6835530348443 61.807937003270396,585.406643705609 75.24732062966505,604.1043698308147,C 88.68670425605973,622.8020959560204 108.04144922552726,637.2766137083984 129.94500982796302,644.379854338282,C 151.84857043039935,651.4830949681653 176.13243228357067,651.1092950915397 197.741131884893,643.1540392156777,C 219.34983148621535,635.1987833398158 238.1092014652889,619.7187957217863 250,600,C 261.19538053374856,617.9815568539112 277.75806819711823,632.5711935361979 297.0019933432541,641.4224237984721,C 316.2459184893901,650.2736540607463 338.08440504665407,653.3481798337892 359.0415635429553,650.2707718421851,C 379.99872203925645,647.193363850581 399.97609868846473,637.9995551953833 416.1560311637048,624.3290498176533,C 432.33596363894486,610.6585444399233 444.67443882655476,592.6099583626184 452.13852461642256,572.7867306862946,C 460.55192963964987,550.4422871732042 462.7974041916723,525.9951766706796 460.05772880507675,502.27696175533157,C 457.3180534184812,478.55874683998354 449.7265116797989,455.5686478630744 439.43888093820806,434.0227852969288,C 418.8636194550212,390.93106016463383 388.22564451561715,353.60862615598194 359.63884634280873,315.35901007678586,C 307.2632873379329,245.27963246479362 263.87629957810174,166.38151803236735 250,80M 250 , 80C 257.72459452120245,119.36793104880309 255.97860896176053,160.5022483184696 245.39049165174814,199.19843840754325,C 234.8023743417358,237.89462849661683 215.38475190970155,273.78462605833045 191.56990551136815,306.0701715331104,C 159.43899497576052,349.6297207274332 119.08579504729198,386.80554351512575 88.72010609652624,431.61351905972265,C 73.53726162111532,454.01750683202357 61.04322982467457,478.5575996870254 54.84323980310965,504.9018126796054,C 48.64324978154471,531.2460256721855 49.028886052262855,559.4407420412114 58.24696437803176,584.8864581137827,C 65.25709580293427,604.2373257854513 77.35432424055595,621.805976028867 93.34259126861329,634.7664289407204,C 109.33085829667063,647.7268818525738 129.1558704719175,655.9651581991287 149.6528327935613,657.8286382301321,C 170.14979511520505,659.6921182611354 191.19985025625658,655.1453294741617 209.04157488831305,644.8851694171888,C 226.8832995203695,634.6250093602158 241.4165227667338,618.7062005983801 250,600,C 262.09904297043823,618.3291035439449 280.72208265506646,632.2483535940147 301.71932208026533,638.6872055138867,C 322.7165615054642,645.1260574337588 345.9033209626049,644.0363763572112 366.28088684600164,635.8450586248197,C 386.65845272939833,627.653740892429 404.06093986466846,612.4852133032521 415.4411349635179,593.7013362530456,C 426.82133006236745,574.9174592028392 432.1811922065358,552.7240325004695 431.73692381151926,530.766220607698,C 431.00160779217885,494.4234804634546 414.71623453420284,459.9157613515907 393.27386860119884,430.5634123138144,C 371.8315026681938,401.2110632760384 345.51054915989835,375.8324883348993 321.3061878819949,348.7126736974603,C 288.7223940260808,312.20411065747305 259.96956886447805,271.0543371687219 245.9376729001904,224.17486732384378,C 231.9057769359059,177.2953974789664 232.93601426245885,125.86283013550585 250,80M 250 , 80C 264.9348264145213,124.9376923099262 265.78678769703345,174.30050212245945 253.26237047413906,219.96869897103613,C 240.7379532512453,265.63689581961233 215.02012345823738,306.77373785339887 184.39214964874103,342.88983468705777,C 154.06714947745897,378.64866906111445 118.85312521963073,410.2842021414554 91.20593031528124,448.1515031424561,C 77.38233286310108,467.0851536429549 65.57286661167055,487.68180551559084 58.2308047749373,509.9454327084035,C 50.88874293820403,532.209059901216 48.15735083015882,556.1888935486628 52.03935585481886,579.3082578302228,C 55.89085110494901,602.2459204944108 66.39618238064638,624.176408923689 82.63318903996428,640.8296368060884,C 98.87019569928219,657.4828646884877 120.77609765981931,668.6242936793811 143.86792486052641,671.406001911842,C 166.95975206123427,674.1877101443024 191.006320737782,668.5236965517076 210.3211901469386,655.5658339245181,C 229.63605955609518,642.6079712973285 244.02164887387073,622.4773152749744 250,600,C 273.72072926759915,613.4211547932077 302.50295754417266,617.5831517249205 329.0776474958271,611.5344951018828,C 355.65233744748144,605.4858384788452 379.6569473237067,589.3511145496698 395.9542352752601,567.5062341793374,C 410.85276749270037,547.5362456173754 419.34936588570594,523.1204580237534 421.6173246957947,498.30870540055605,C 423.8852835058834,473.4969527773587 420.11771782911575,448.36852314620575 412.6866828669265,424.58730314407546,C 397.8246129425464,377.02486313979506 369.3877939928095,335.0954063557146 342.8754325841712,292.9034460535945,C 301.4346945593571,226.95436114622436 265.84204876005805,156.26038328807908 250,80M 250 , 80C 264.98551092692895,123.97374960602798 266.09795143882945,172.39871442471267 254.11614658381566,217.2840410312009,C 242.1343417288029,262.1693676376881 217.22300869981157,302.6168953253079 188.2630225659021,338.9428556743256,C 159.45933901439264,375.072757869707 126.35427716336756,408.35189240553836 104.33853695061981,448.97613641903513,C 93.33066684423257,469.2882584257915 85.33227021512924,491.4757379155388 83.15752306742813,514.476302681214,C 80.98277591972702,537.4768674468892 84.86986794971281,561.258162518164 95.81478634060329,581.6042743362289,C 103.06940923272973,595.0902925311044 113.35918573399951,606.969410697221 125.84796429132217,615.8312756367038,C 138.33674284864483,624.6931405761867 152.9989497857472,630.4988455323455 168.18919308861416,632.4375947320058,C 183.37943639148108,634.376343931666 199.05530144903793,632.4358427302236 213.2939036376014,626.7998470084977,C 227.53250582616488,621.1638512867719 240.2970981429397,611.847191043101 250,600,C 262.2052168786383,617.7685185189881 279.6952433229858,631.8548120646298 299.6506450893754,640.0076955886472,C 319.6060468557651,648.1605791126647 341.9377280642102,650.3451869969883 363.1178597182981,646.3340035644181,C 384.2979913723859,642.322820131848 404.2286071363209,632.1561570982791 420.1378319952698,617.610225233953,C 436.0470568542187,603.0642933696269 447.89475120959594,584.2408674111192 454.75760886832586,563.8058789313028,C 462.6198796070256,540.3950171649724 463.96825406655125,515.0328965014423 460.2150627569239,490.6239369823604,C 456.4618714472965,466.21497746327844 447.75104984826584,442.74829711791955 436.4163006889303,420.8073032638165,C 413.7468023702519,376.9253155556059 381.31684427432185,339.0072100919819 351.8084640337044,299.3992500988284,C 303.1556104357388,234.0944023522611 263.87511315481555,160.24527735243038 250,80M 250 , 80C 256.87820952850126,128.20299379873416 251.18539928728978,177.988750062455 234.7082710800967,223.80733388520636,C 218.23114287290488,269.62591770795535 190.9614910584745,310.7093638637991 161.99779203915293,349.8494011222977,C 136.80907566958373,383.88812305974756 110.12967724620117,417.65303193313616 94.44937087530393,456.98792758059443,C 86.60921768985128,476.6553754043265 81.71687571955981,497.66029154354544 81.77679935907736,518.8327480620511,C 81.8367229985949,540.0052045805568 86.99781178849844,561.3048915448707 97.77082163990968,579.5317608485109,C 112.88415276723526,605.102025333532 139.53552306009982,623.8791405950678 168.9421669748382,628.0625001624373,C 198.3488108895765,632.2458597298069 229.52694365673753,621.5198784281816 250,600,C 264.56547118711745,610.1046673664624 281.73176327225184,616.4237497597691 299.3713096749911,618.1854694296393,C 317.01085607773035,619.9471890995096 335.0760572422632,617.146360580345 351.38744015882077,610.2040237375354,C 367.6988230753783,603.2616868947258 382.21085716063976,592.2082419044054 393.41906247518,578.473854873427,C 404.62726778972024,564.7394678424484 412.5171468060369,548.3804637521791 416.73259234806324,531.1616579755927,C 422.0280120203193,509.53148817905355 421.52651899642416,486.6846562817124 416.73197088653,464.9379778375375,C 411.93742277663586,443.19129939336256 402.9716180801215,422.52288988151804 391.97861441428506,403.15643472484726,C 369.9926070826046,364.42352441150206 340.4263320708515,330.6043121467519 315.1545343029453,293.93062815797873,C 293.5596707555262,262.592802143691 274.9796411172884,228.89761715546348 263.3498060569121,192.66028271428442,C 251.71997099653584,156.42294827310542 247.0039182217482,117.93970169771293 250,80M 250 , 80C 232.2525102778214,155.51423608773746 196.3765749412728,225.46171057474783 155.6626485232131,291.49010930573485,C 130.03140955729884,333.0579416251423 102.95798264850136,374.63814397002676 88.92359792649656,421.41293568668686,C 81.90640556548931,444.8003315450226 78.39383075740884,469.42064854995925 80.57409693521672,493.74055218997773,C 82.7543631130246,518.0604558299963 90.79599835216065,542.012243815517 104.93869551788544,561.9169013243634,C 120.71465971987422,584.1202449039283 144.1496761632249,600.9266548230395 170.46130185596311,607.9670998387951,C 196.7729275487013,615.0075448545507 225.62452110971594,612.1534168645676 250,600,C 272.6023807164059,616.9430897053522 302.84844665972946,623.182360969971 330.3458076050826,616.7146686571025,C 357.8431685504357,610.2469763442341 381.9181861793733,591.3424400182868 395.7622659013002,566.719739933489,C 407.8092847973674,545.2932428927404 412.28531669809485,520.0233617613554 410.2593447527392,495.5259970582688,C 408.23337280738355,471.02863235518214 399.98001583271594,447.3421498410479 388.6433520819202,425.5314759697344,C 365.9700245803104,381.910128227063 331.95816241674447,345.38359314534864 304.084852140965,304.886922502536,C 281.5723975435933,272.17895024625636 262.85144180892524,236.45784216876794 252.89935015448702,198.0185662544386,C 242.94725850004897,159.5792903401093 241.75870353057087,118.84202741386252 250,80M 250 , 80C 257.2361304153157,119.15749757234502 255.1593053478388,159.94913290721098 244.40741287943547,198.29059881376645,C 233.65552041103223,236.63206472032192 214.24115287008738,272.1727266002104 190.43666802253483,304.0947832485265,C 159.01997018125536,346.22489505791776 119.84838967269289,382.1454190207495 88.89457440617126,424.61678048666107,C 73.41766677289513,445.8524612196141 60.12952443817066,468.9406236524696 52.17281336470345,493.98417681439605,C 44.21610229123627,519.0277299763225 41.800704345520444,546.0981189606281 47.40554806013428,571.7705659226071,C 52.26549640501667,594.0310913671117 63.22465066141169,615.0494193941954 79.3401839347879,631.156550681146,C 95.45571720816412,647.2636819680964 116.67373521086822,658.2829415051337 139.19275092764667,661.7533913503037,C 161.71176664442538,665.2238411954733 185.3603788577289,661.0775622410351 205.2759014689417,650.008594353168,C 225.1914240801545,638.9396264653006 241.22182376898672,621.0260246608254 250,600,C 263.2279597678891,612.2464623099645 280.0805054538353,620.5250571723655 297.8557219209455,623.524463493231,C 315.63093838805565,626.5238698140965 334.2488293319843,624.231893237946 350.8114873053142,617.1161979389069,C 367.37414527864394,610.0005026398679 381.80816156793554,598.1141369834735 392.2274304346721,583.4038142469417,C 402.64669930140866,568.6934915104099 409.03892881621135,551.2520744090989 411.21072685604145,533.3568780702917,C 415.53154932888754,497.7541355138231 403.05021202445323,461.84203960450793 384.11376576365006,431.3849256999413,C 365.17731950284536,400.9278117953743 340.33902242192227,374.6747134466657 317.3079985693757,347.1829560512655,C 286.2331769688701,310.08944852784566 258.4049580869928,269.0862119831228 245.00926894968785,222.58752006141452,C 231.61357981238692,176.08882813970786 232.94810684518242,125.28582314289625 250,80M 250 , 80C 255.48996675810386,128.5697515496393 248.4136250229315,178.37385304330712 230.54583865278377,223.87003651873215,C 212.67805228263686,269.3662199941562 184.07101860595276,309.85237429671565 152.7686677566566,347.3933296908745,C 127.12244648596818,378.15088056578827 99.6088985317389,407.6217092733561 78.24700288558388,441.4953718401764,C 56.88510723942757,475.36903440699604 42.17192375929721,514.9678430415339 45.439928177942036,554.8811960503673,C 47.416423421720594,579.0208673234843 56.07378001263297,602.7458695288741 71.09431619253868,621.7462315120304,C 86.1148523724444,640.7465934951866 107.46808807005495,654.773329075187 131.02354754458975,660.4098698198613,C 154.5790070191257,666.0464105645352 180.11224205322065,663.1725510665586 201.72452572484136,652.2391409342956,C 223.33680939646203,641.3057308020326 240.81222469899603,622.4101550115374 250,600,C 256.89664391774556,625.1552631140123 274.18660940357466,647.2814223067741 296.9093407095435,660.088781193762,C 319.6320720155124,672.89614008075 347.45056689630087,676.2190147700054 372.63042619159955,669.4127202177305,C 397.8102854868992,662.6064256654589 420.0120656332182,645.8747587333329 434.1955697690516,623.9845972425588,C 448.379073904885,602.0944357517849 454.5478889897463,575.4250441360255 453.058891876132,549.3840409437709,C 450.71774398512343,508.4398113373352 430.1506350457753,470.50257800811113 404.4317922071011,438.5580630712448,C 378.71294936842514,406.61354813437924 348.0180954076204,379.0542654712242 320.6541975349378,348.5071215011975,C 288.13482127688235,312.2047616183949 260.3466571030778,270.6275478827151 246.726793721393,223.83149584049966,C 233.10693033970958,177.03544379828435 233.9235305195411,126.00998037727595 250,80M 250 , 80C 266.7588782556735,125.3062275591873 267.9052163187737,176.0209746720737 254.3098985400115,222.37484819444313,C 240.71458076125106,268.728721716811 212.69169897849247,309.6157976551322 180.53540814887748,345.6641986753491,C 155.62205961667638,373.5929913151413 128.23108489643175,399.41475064358553 105.70857913681846,429.30503548183395,C 83.1860733772041,459.1953203200816 65.78496436327681,494.45225599766883 64.60256925746366,531.8593988345281,C 63.88828641291407,554.4569893190036 69.2430407592255,577.3745059021668 80.92806081685426,596.7296499713514,C 92.61308087448302,616.0847940405358 110.63220126009179,631.6505033737855 131.70447450754136,639.8432193990665,C 152.7767477549921,648.0359354243473 176.71701790717515,648.7191346585316 198.15420451990826,641.5352411586963,C 219.5913911326414,634.3513476588611 238.32098917818837,619.3587706714586 250,600,C 271.04164681394514,625.2696752732228 304.60357356670363,639.4966570690325 337.40971909452935,637.2462782866822,C 370.21586462235507,634.9958995043319 401.18861669117297,616.5238884815398 420.05198486754136,589.5891389913421,C 433.95906201458416,569.7314107429098 441.5184599088611,545.7434187910412 443.03298326482377,521.5475020907666,C 444.54750662078646,497.3515853904919 440.20107647885294,473.0107305792227 432.2869075865224,450.0956242799699,C 416.4585698018575,404.26541168145025 387.36881881087265,364.4193420547882 359.63813003246446,324.6455622026541,C 333.82659153254883,287.62439557588664 308.8518559913716,249.79635069444487 289.6252102407464,208.96574463331132,C 270.3985644901215,168.13513857217796 256.7863331073792,124.61779892705567 250,80M 250 , 80C 265.0931399859509,126.344838005256 264.69673233850284,177.3732375333079 250.09059918915486,223.87385859144484,C 235.48446603980912,270.374479649579 206.9391022279991,311.2367408174541 175.1883599905186,348.21696866609875,C 152.06885029991992,375.14436235385926 127.24142001749956,400.8213916904688 107.62060887856137,430.3953672331558,C 87.99979773962224,459.9693427758424 73.96066395690401,494.53403145115294 75.25786227054964,530.0011082363127,C 76.00371027459077,550.3935556756111 81.87846069393515,570.689048144127 92.90388321375563,587.860194293092,C 103.92930573357611,605.0313404420571 120.09922417112348,618.9276260526851 138.9132071451636,626.8296667044541,C 157.72719011920407,634.7317073562228 179.06607853987543,636.5498824390431 198.90796083527837,631.7846008329819,C 218.7498431306813,627.0193192269207 236.96217175435086,615.6978736281907 250,600,C 280.07803082923647,615.3957879238467 316.994823463039,616.6038344283493 348.10783018470727,603.4243413767182,C 379.2208369063755,590.2448483250871 403.7462896869371,563.1869817117687 415.55116592659033,531.5268629291893,C 430.07963347529926,492.56220129420336 425.6515362789859,448.5456092020035 411.50408153462416,409.44099630404645,C 397.35662679026103,370.33638340608803 374.5960869634991,335.0283256682837 352.29609064231454,299.92802097276666,C 308.71307739078145,231.32814218155897 269.19339373314915,158.9749077318613 250,80M 250 , 80C 246.2531372159027,127.43607160996773 233.97224225696436,174.08586386562985 214.85543367883878,217.66071326635804,C 195.73862510071368,261.2355626670842 169.56838270957675,301.2633439192611 143.91264908819835,341.3383136991314,C 125.28842781001578,370.42986554915785 107.00072788436353,400.1355366377247 95.62016579619869,432.7493805359669,C 84.23960370803333,465.3632244342092 80.44692403626647,501.5184640071654 90.77323588638997,534.4812807987489,C 100.66762833322926,566.0653594342663 124.06950908036468,593.5878679923293 154.54911052079274,606.4892989664218,C 185.02871196122072,619.3907299405142 221.6007894181842,616.9981723569416 250,600,C 264.42146486071385,614.1624184524558 283.0220764091478,624.0126232705326 302.83778982075904,627.9988805552739,C 322.65350323237027,631.9851378400152 343.5963262357419,630.0911384065095 362.4219083666697,622.7324562838088,C 381.2474904975974,615.3737741611083 397.87265318704567,602.6061884082802 410.11908483164535,586.5258383770961,C 422.36551647624503,570.4454883459119 430.21574148184595,551.1545419748829 433.3565846955006,531.1873726948248,C 436.89621658986516,508.6849985181677 434.5145087357134,485.4571091724753 427.99093898843864,463.63214925759047,C 421.4673692411639,441.8071893427056 410.91806437783225,421.34576016258245 398.53966030642226,402.2234969550333,C 373.7828521635939,363.97897053993324 342.1637082947813,330.6743042664625 315.48254241898303,293.7465540284066,C 293.15157674866174,262.8396466358605 274.19168473831263,229.20506436629154 262.50601422463404,192.90969197549998,C 250.82034371095557,156.61431958470843 246.39013317039155,117.95889637243134 250,80M 250 , 80C 238.74789874724857,156.34211195666904 204.04047040128583,227.59791211676082 159.3836792874169,290.5304064898511,C 127.18223390181024,335.9102295803126 90.1682116310857,378.60564402413456 66.91523889284937,429.1581977428007,C 55.28875252371067,454.4344746021469 47.42808364755704,481.73502516059307 46.69029136948234,509.54727101950385,C 45.95249909140765,537.3595168784146 52.637173004139555,565.6274769197805 67.61161092811182,589.075964419472,C 77.2528927828813,604.1732574330823 90.24004160283008,617.1641562402219 105.51445551783688,626.5222998432536,C 120.78886943284368,635.8804434462852 138.31938811509434,641.5651164844087 156.19141879193916,642.7788263458798,C 174.06344946878397,643.9925362073509 192.22968144193652,640.7247055672624 208.53234260597645,633.3013767241882,C 224.83500377001639,625.8780478811141 239.23479413934322,614.3175736393983 250,600,C 272.1560266565813,619.8465689823926 302.82965795903317,629.7950815272774 332.4303437942421,626.8667346104545,C 362.0310296294511,623.9383876936316 389.95249670917406,608.2762046626552 408.7165765231666,585.19623225552,C 424.4944361464304,565.7893352289456 433.8863022674804,541.5451624830789 436.85049058751355,516.7100644543845,C 439.8146789075467,491.87496642569 436.5489284054289,466.5394217223462 429.3832480729944,442.57650178622725,C 415.05188740812446,394.65066191397034 386.2457096328907,352.59049122678175 358.58922300802976,310.90844744847493,C 311.26629729895586,239.58643580330607 269.00092105770915,163.45809512407308 250,80M 250 , 80C 231.27933000119117,162.82387077274876 188.35539210670547,238.17397183982868 138.13644817136299,306.6452411796344,C 108.51685531787277,347.0302226443563 76.86284937538227,386.6699586715566 56.65430000707622,432.4944231107751,C 46.55002532291829,455.4066553303859 39.52460515467253,479.85669812545575 37.93854953825312,504.84772010855824,C 36.352493921833705,529.8387420916607 40.36776266558083,555.3559665342021 51.01555695569401,578.0207239547817,C 59.637897292126894,596.3741262462129 72.58970652965584,612.7415716094671 88.78558778076346,624.9434386407213,C 104.98146903187109,637.1453056719756 124.38134501518293,645.1091032933073 144.5123684944212,647.545088150967,C 164.64339197365942,649.9810730086267 185.42979711964267,646.8655223642372 203.9229287228713,638.5470963079418,C 222.4160603260999,630.2286702516463 238.5506349422535,616.7363128652294 250,600,C 260.3260093240517,617.3779416876608 275.7349605700372,631.6918750385443 293.8195609305452,640.7232955060485,C 311.90416129105324,649.7547159735528 332.58935129419797,653.4672320746664 352.69685159474045,651.3917182771153,C 372.8043518952829,649.316204479564 392.24598991477797,641.4793640866861 408.3459641522831,629.2560193966347,C 424.4459383897882,617.0326747065832 437.1595116942525,600.507032156011 445.36189852326834,582.0316383532438,C 455.0215590748938,560.2738212187223 458.42073052724857,535.9761372814877 456.5861872450058,512.2412241917483,C 454.751643962763,488.50631110200885 447.8297528498323,465.3444943333117 438.0266715429753,443.65091820296703,C 418.4205089292557,400.26376594227213 388.07085084287667,362.80090612212246 359.64413656338826,324.6070779688636,C 332.63469981883577,288.31748869747065 307.07689115927894,250.67752821553466 287.8304730056519,209.7383128957448,C 268.58405485202513,168.79909757595513 255.55039466571918,124.89584704400966 250,80M 250 , 80C 265.1567260605302,125.80122537843741 265.1282260370249,176.27068271256866 251.14502299572578,222.4437118935329,C 237.16181995442892,268.6167410744939 209.46045492143503,309.3924107116968 178.79786415119634,346.6386738571035,C 156.15024815312353,374.1490388944585 131.86809707851185,400.59783236178976 113.47558429580172,431.11750091212843,C 95.0830715130902,461.6371694624669 83.12923996547693,497.4040293900468 87.5685661632738,532.7597513851395,C 89.82761264020672,550.75126983946 96.30733635746188,568.2716636704947 106.8144436659071,583.0499830365767,C 117.32155097435235,597.8283024026587 131.84372752607806,609.7721711720602 148.50026697465987,616.9386013067183,C 165.15680642324173,624.1050314413762 183.87478740446826,626.4412231578252 201.76325303604503,623.4746047757285,C 219.65171866762176,620.5079863936318 236.63124130582798,612.2504823682211 250,600,C 256.27361677294465,621.116161840741 270.1285263744712,639.8890775536527 288.4452422443893,652.1262536183675,C 306.76195811430733,664.3634296830825 329.3794369959234,669.9655193699493 351.3067693593611,667.8577590132018,C 373.23410172279847,665.7499986564546 394.2792195967901,655.9962959662042 410.3766999421886,640.9589529552987,C 426.4741802875872,625.9216099443933 437.55922803975443,605.7909754575427 442.545410158608,584.3343087505319,C 447.79394677141585,561.7486714600784 446.3929706762661,537.8748375484075 440.1625480500085,515.5401116201557,C 433.93212542375096,493.2053856919039 423.02681107170423,472.37311440291165 409.9164769021202,453.2478095333483,C 383.6958085629414,414.9971997942178 349.2305001686293,383.2466942224629 319.13519796329956,347.96347755024954,C 287.7413077239096,311.15781851605493 260.9536199334791,269.489498056769 247.6986295900777,222.96490120412994,C 234.4436392466774,176.44030435149108 234.92559935436836,125.9673289030284 250,80M 250 , 80C 255.6015261606953,118.92276497034179 252.54616570165817,159.01547052593793 241.53670120356844,196.7666350077221,C 230.52723670547877,234.51779948950622 211.55383268647577,269.6045296218032 188.69771646750587,301.603852734181,C 156.70542299015358,346.3941279620494 116.6663211516628,385.44970568832184 88.85751814104796,432.9507169622523,C 74.95311663569967,456.701222599237 64.38823818200824,482.7628790762115 61.07027161868685,510.08338414326795,C 57.752305055365454,537.4038892103245 62.05174403620533,565.9622391103693 75.45973797344354,589.9964771430875,C 84.01116482230047,605.3251705603441 96.17222048815762,618.6736298586692 110.84955274714821,628.3002419725331,C 125.52688500613878,637.9268540863969 142.68441541071945,643.7795785988887 160.19877120670742,644.9384936445838,C 177.71312700269536,646.0974086902788 195.52529587794612,642.548727827663 211.22719155911412,634.7035882464119,C 226.9290872402821,626.8584486651607 240.47163615917992,614.7413033870329 250,600,C 258.4333465440716,623.3219919602234 275.7925520285553,643.2834882814599 297.7041384326143,654.8989531530259,C 319.6157248366733,666.5144180245919 345.8337478536508,669.667822594983 369.9314275254554,663.8079183841427,C 394.0291071972598,657.9480141733039 415.75122024762976,643.2119706401942 430.6290527864811,623.3704298262604,C 445.50688532533246,603.5288890123267 453.51232599573854,578.8637929148028 454.41011696514937,554.0801165470734,C 455.29435280444693,529.6706319113414 449.47649631660363,505.2782254519738 439.43737570056925,483.0111899407467,C 429.39825508453487,460.7441544295196 415.26583809284716,440.5210153596238 399.57374668045975,421.80302721167334,C 368.1895638556709,384.36705091577494 330.82187030442634,352.17592188869276 300.65834540668226,313.7496155537091,C 274.97839084791775,281.035076921725 254.61095551928514,243.63772249537567 245.1451137999746,203.13958741993366,C 235.67927208066422,162.64145234449165 237.19315424449942,119.56874784269274 250,80M 250 , 80C 230.7572414608104,156.22400837456888 193.50841822150008,226.6006020481925 151.6396456505592,293.1392306205243,C 124.78526672081091,335.8167068259611 96.46778876830628,378.61905892706073 82.34718204743004,427.02497911046885,C 75.28687868698583,451.2279392021812 72.05479541472995,476.751523439043 74.98944761404208,501.7918704256882,C 77.92409981335422,526.8322174123334 87.21933476201636,551.3002321351254 102.89106885851993,571.049356448649,C 119.8540462783397,592.4256730533416 144.3119177116404,607.8910143792052 171.06303142767615,613.2824362214559,C 197.81414514371187,618.6738580637066 226.50526044191642,613.8811644910359 250,600,C 263.5697571507215,616.88110352052 282.1593720975891,629.6713384460222 302.77019722029536,636.3274523994705,C 323.38102234300163,642.9835663529188 345.9199360915149,643.4770953201631 366.8368553376686,637.8563787777681,C 387.75377458382223,632.2356622353732 406.95229491890444,620.5503334453074 421.8181555070317,604.7986302302761,C 436.6840160951589,589.0469270152447 447.1857758077741,569.3364007015686 452.6582835554406,548.380217266797,C 458.41173819829186,526.3481879963698 458.6636218167631,503.04859313048587 454.6867700087829,480.6276831623853,C 450.70991820080263,458.2067731942848 442.60285184871753,436.6516867875658 432.2444687711352,416.3732141104049,C 411.5277026159671,375.81626875608157 382.3723754648023,340.3077190911704 355.2165346859832,303.7480346286793,C 305.5836290406979,236.9276631245225 264.5687788503995,161.95204728105017 250,80M 250 , 80C 246.09989056385268,155.99199735902232 214.84029787522334,228.63689475340254 170.56360994083042,290.5204096971092,C 138.1528561180412,335.8194476807386 99.35918433449372,376.84900504990236 72.68164120223386,425.7444905064367,C 59.34286963607943,450.1922332347128 49.311717629372964,476.7466114638804 46.119112422263676,504.41287654237567,C 42.92650721515439,532.0791416208709 46.87362912448502,560.8480956886674 59.487110576804284,585.6778165299097,C 68.25708866691173,602.9415758325252 81.14699959025134,618.1545622905742 97.00549963178342,629.265722328677,C 112.86399967331549,640.37688236678 131.65017812823177,647.320283515481 150.9442763646863,648.9596962767012,C 170.23837460114075,650.5991090379212 189.9683979040633,646.9154188374241 207.33343223982163,638.3477188264795,C 224.69846657557997,629.780018815535 239.63795327944177,616.3578081881582 250,600,C 274.0103490291289,612.8454390359211 302.82437164827326,616.3927613866097 329.2590328680514,609.8574074771635,C 355.69369408782956,603.3220535677174 379.3958858018074,586.832393808549 395.3849227515736,564.7903235349751,C 409.82933066074975,544.8776386625517 418.0280969547361,520.7423461569073 420.19832163780046,496.2383451876751,C 422.3685463208648,471.73434421844297 418.6906967000103,446.9343271010614 411.444357351136,423.4258923442328,C 396.9516786533855,376.4090228305588 369.20959765507695,334.80828397620616 343.1869680926756,293.05368536287835,C 301.95516006613775,226.89520625448364 266.2586231094215,156.2408258458613 250,80M 250 , 80C 252.9050060626497,128.33172393314658 244.75409873223313,177.152927408089 227.44512514756656,222.37232625437224,C 210.1361515629009,267.5917251006522 183.53219592761596,308.54841632153295 156.63745232002435,348.8108971797154,C 136.08079606518038,379.5850139009947 115.3524861062808,410.8249139060814 103.27130845121572,445.8058733386283,C 97.23071962368226,463.2963530549022 93.46861961337777,481.6666084496827 93.31246396409985,500.17015431262234,C 93.15630831482193,518.673700175562 96.68077292203955,537.2938184835997 104.41494951067833,554.1041756060544,C 116.48510789527074,580.3388588517961 139.34980331239868,601.6934479281032 166.82330904347515,610.5902906983256,C 194.2968147745516,619.4871334685479 225.66992717627141,615.5561847773035 250,600,C 261.139458102931,619.3468731974496 278.48234566242826,635.0541680632715 298.8267491346162,644.24624490727,C 319.1711526068041,653.4383217512685 342.39749163077454,656.0647137978459 364.3090810826577,651.7902223617489,C 386.2206705345407,647.515730925652 406.68726907446586,636.3968504865888 422.4833307445897,620.6211265710666,C 438.2793924147135,604.8454026555444 449.3609231714736,584.5503997619251 454.85822017034576,562.913192108179,C 461.30468705679425,537.5400782517321 460.1286455521439,510.54696105745705 453.47946700775094,485.2262133043775,C 446.83028846335804,459.90546555129794 434.8989138411718,436.2072908348389 420.62002593611277,414.26497549928104,C 392.06225012597406,370.38034482815794 354.7756829322181,332.88087491626754 323.8392089513996,290.639403043271,C 279.0735963077636,229.51526302210806 249.3618368341932,155.76089569468274 250,80M 250 , 80C 235.68305732583605,157.14835653849536 198.35799230789604,228.21035538151278 153.2347151560817,292.403295984095,C 127.77761355950268,328.6188883313674 100.37982578093076,363.86450262719444 81.10955843241388,403.71785815817884,C 71.4744247581537,423.64453592367107 64.0054273127596,444.7351323672265 60.474351845370535,466.5855281012682,C 56.9432763779815,488.4359238353099 57.44096433540707,511.0555589055234 63.14435408061299,532.4419946325188,C 68.22456415522018,551.4916459966951 77.45638204447667,569.4829509299352 90.38556793788686,584.3669659672981,C 103.31475383129707,599.2509810046611 119.92222673065697,610.9586840698047 138.38456114606956,617.8753277235052,C 156.8468955614821,624.7919713772056 177.10642809159052,626.8819484989541 196.57631729068126,623.7801480421339,C 216.04620648977203,620.6783475853135 234.66772853581512,612.3943214113295 250,600,C 274.925903733251,611.6703699986398 304.1801851341325,613.7384367528507 330.5335648890134,605.8013347427036,C 356.8869446438943,597.8642327325565 379.9861415469678,580.0724127223115 395.1407182580951,557.0977088606508,C 407.0066311280209,539.1086987133305 414.1053383533105,518.1471183251639 416.6424790858726,496.74694797022886,C 419.1796198184347,475.3467776152939 417.25062585682923,453.55023112883504 412.33211736116374,432.5689859680938,C 402.49510036983196,390.60649564660764 381.3284037315923,352.27176109423925 359.5897320654951,315.0555327595169,C 315.82929869516676,240.13843086149973 272.84346667970175,163.70020140722596 250,80M 250 , 80C 247.11185566971199,156.067787415517 215.33307017890297,228.67520632939738 171.09846976993464,290.6263950720176,C 144.6775587635796,327.62925774905483 114.51720514993664,362.1283762739238 91.85386798552115,401.5447375122907,C 80.52219940331022,421.25291813147385 71.19538041910556,442.25509615118847 65.93560974188509,464.3719202586064,C 60.67583906466463,486.4887443660243 59.59222238808146,509.7458690168426 64.2211714591394,532.0032706323269,C 68.30423763329165,551.6359004724037 76.86486371116942,570.3945848823267 89.50875513218276,585.9587614925301,C 102.1526465531961,601.5229381027335 118.86078804023505,613.8061189471249 137.60302167924698,620.9363547104547,C 156.34525531825892,628.0665904737843 177.05028310200214,629.9980150487228 196.76727033079626,626.3439764009324,C 216.4842575595904,622.6899377531421 235.13918664085844,613.4635734530152 250,600,C 261.20469211402565,619.7165916847904 278.89321277840315,635.6728179037392 299.6476454613593,644.8129840424643,C 320.40207814431534,653.9531501811895 344.0873131283302,656.2224853711006 366.2357736688779,651.3506470405878,C 388.3842342094255,646.4788087100753 408.8520680962308,634.5348843375458 424.3250059556138,617.9554601305803,C 439.79794381499676,601.3760359236147 450.2362212336908,580.3176581936372 454.9418671620667,558.1332941181988,C 463.79718843737055,516.3856415819768 452.1965437427896,472.4866736062137 432.0918120286459,434.84251111219237,C 411.9870803145001,397.1983486181705 384.224182950736,364.3123781782812 358.06850280692913,330.5905217141277,C 329.7266727537801,294.05011749871295 303.1147187812753,255.80033005600376 283.94032263817974,213.71941985274032,C 264.76592649508456,171.63850964947716 252.95499251018532,126.1489814649488 250,80M 250 , 80C 266.04288853725564,123.27465828136731 267.7741771005221,171.53272556705127 255.9344021133164,216.14090923597306,C 244.09462712611224,260.74909290489313 218.8931897555567,300.70480930148 189.9517407611962,336.65564868103496,C 165.92517061479964,366.501264370249 139.27706075849426,394.493467994567 119.28157980829802,427.17706618139937,C 109.28383933319812,443.5188652748155 101.0521421062121,461.05853260062474 96.2639725865985,479.60799741415696,C 91.4758030669849,498.15746222768917 90.21759244536732,517.7331084037191 93.7306011609807,536.5657391806725,C 96.8449861831881,553.2614174349857 103.73552575651546,569.2971190033927 114.10005075390829,582.7515490551086,C 124.46457575130111,596.2059791068245 138.28895153902025,607.0105772778957 153.9479814678498,613.5862786189024,C 169.6070113966793,620.161979959909 187.04549834729835,622.4711823451313 203.86381708541717,620.1070289530825,C 220.682135823536,617.7428755610335 236.82164487450495,610.7133572060504 250,600,C 261.2045763862433,616.8153111626539 277.1439210732199,630.4365627631137 295.49506490487,638.8942658533222,C 313.84620873652005,647.3519689435307 334.54314395056065,650.6161940243494 354.61761973443777,648.3112767818958,C 374.6920955183149,646.0063595394422 394.0672243388084,638.1557692689762 410.2416506150833,626.04440451824,C 426.4160768913582,613.9330397675037 439.3488876557488,597.6339773930687 447.9326741343296,579.3414698781827,C 459.1145016105122,555.5123982151551 462.8569888783256,528.5215499438167 460.43158615728856,502.3113354527141,C 458.00618343625155,476.10112096161157 449.6203175347065,450.6817092136588 438.07383248014025,427.0271831158167,C 414.98086237099494,379.71813092011826 380.22337978773726,339.30100052336394 349.0847093145352,296.8532103655886,C 301.6191354489058,232.1488190557222 263.6159192138512,159.0837891172123 250,80M 250 , 80C 256.9401873305096,128.24645752553812 251.254219646418,178.10108870714274 234.70166421605782,223.94756919006502,C 218.14910878569881,269.79404967298524 190.73663772376415,310.87108874287355 161.37777392273543,349.780521792695,C 135.20760990262488,384.4639568106279 107.24297451146974,418.6352480445761 90.50404792107734,458.73046579038856,C 82.13458462587623,478.7780746632982 76.7812012906244,500.25976661149843 76.58200934315886,521.9833680610498,C 76.38281739569334,543.7069695106011 81.50041730821845,565.6322562029491 92.50537333304644,584.3631259174734,C 100.36165139425671,597.7348214039037 111.16845515714999,609.3994427089597 124.07094604269062,618.0046198777001,C 136.97343692823125,626.6097970464406 151.9460983649281,632.1190449910981 167.36603393118892,633.7770354281139,C 182.78596949744974,635.4350258651297 198.6125489481334,633.2308895848058 212.97173409501553,627.371098882534,C 227.33091924189767,621.5113081802624 240.18808371748815,612.0103973298908 250,600,C 275.8155916438902,612.9876077212346 306.9672593563205,614.8473949159827 334.1957509759514,605.1658676416085,C 361.4242425955823,595.4843403672344 384.21539011765066,574.5310047894935 397.20322532249327,548.7155275919554,C 407.7765756204304,527.6992397184993 412.03500574824017,503.77337929054244 410.9073810041762,480.2742611168867,C 409.77975626011226,456.7751429432309 403.43652089988,433.7284544281265 394.2610767626732,412.06532175097516,C 375.9101884882521,368.7390563966586 347.05653597507757,330.8560458929923 321.8409306572152,291.13081941828574,C 281.47930339050276,227.5442124799961 252.205040568229,155.28250350269997 250,80M 250 , 80C 226.98732273003858,168.24901077787717 180.87554732655323,248.20245223907182 135.97431184369563,327.5834970200411,C 117.01465643198345,361.1023354013027 99.12135873074622,395.7982069205286 90.42661061624881,433.3133027485476,C 81.73186250175043,470.82839857656717 83.36016156306965,511.8123524634687 101.43527637986075,545.8163417017902,C 115.05796783507334,571.4441652777533 137.8970549395792,592.2590418136492 165.1005431529898,602.375033744619,C 192.30403136640035,612.4910256755888 223.4265946935804,611.6712121969126 250,600,C 265.22587859984026,611.8882193927885 283.60494969940737,619.6965212267278 302.72981928887674,622.416172427514,C 321.8546888783461,625.1358236283002 341.66734259144744,622.758368376397 359.64366517859116,615.6866666214377,C 377.6199877657348,608.6149648664783 393.7036985689765,596.8854055138767 406.14783006410653,582.1104019335029,C 418.59196155923655,567.3353983531291 427.3792335330748,549.5836561476108 432.12093025038564,530.8573791094702,C 441.64974953024745,493.22542575622737 434.51688059024644,452.91907407284026 419.3853000139228,417.16998206603347,C 404.2537194375983,381.4208900592263 381.8751976539285,349.29074122754224 359.87866593356136,317.30457386845023,C 310.05559323421824,244.85455483977518 265.72362081127324,166.51075990327854 250,80M 250 , 80C 261.1298422640949,127.48294354022033 258.41796731328463,177.9706556061922 243.24692046615638,224.32087301269016,C 228.0758736190292,270.671090419187 200.57385395464067,312.05234618328893 169.51985090948668,349.65756139260293,C 140.43491251923373,384.87831428313086 108.00087242042008,417.832048359326 85.11072563648247,457.36021876411746,C 73.66565224450774,477.124303966514 64.78641434782288,498.5652685819191 60.88772690974444,521.0688017510782,C 56.98903947166598,543.5723349202374 58.236406259736626,567.1466590646228 66.01065400349486,588.6215243925811,C 72.78434284956388,607.3325380542593 84.53506548236896,624.3044181900029 100.07937466113992,636.7285618218854,C 115.62368383991088,649.1527054537678 134.90584830144266,656.9116558821546 154.7504084460611,658.3875710211408,C 174.5949685906795,659.863486160127 194.87868632134894,655.0211450686074 211.85419686652446,644.637651698768,C 228.82970741169999,634.2541583289285 242.39472701364545,618.3887116360524 250,600,C 261.2293501259791,619.7029993480453 278.924513144045,635.6459536904113 299.6793305548915,644.7861966742342,C 320.434147965738,653.9264396580572 344.115428368573,656.2097791076567 366.26848530004946,651.3570936499268,C 388.42154223152573,646.5044081921972 408.90436688376394,634.5824770218603 424.3847727914896,618.0095014141747,C 439.8651786992152,601.436525806489 450.30199483864175,580.3659706611785 454.9439991347797,558.1678111952334,C 460.2245006092567,532.9163451661891 458.0889821570227,506.41431132957376 450.76779617118956,481.67728506935464,C 443.44661018535646,456.94025880913546 431.1155882018452,433.9107455377419 416.61886957291546,412.5714535759271,C 387.6254323150367,369.89286965229275 350.5459949284832,333.30286356392713 320.0147242226763,291.7105272645319,C 297.5694028087276,261.1335700984511 278.5407053335503,227.81609737822416 266.21084636314094,191.94525489185904,C 253.8809873927316,156.07441240549394 248.22908793457563,117.88940001330627 250,80M 250 , 80C 246.0315945869867,127.48920698460087 233.81567123689263,174.18474231300866 214.97327878832635,217.9561629932026,C 196.13088633976056,261.72758367339475 170.43708010199774,302.1279274433434 145.25336336891002,342.5847369203118,C 124.4511808686474,376.0027563110928 103.97505441248454,410.33625246633756 93.63805454040124,448.3183699747309,C 88.46955460435849,467.3094287289285 85.97227402266608,487.13128006901303 87.52404066132706,506.7518234991374,C 89.07580729998806,526.3723669292618 94.76244316856932,545.759321933473 104.88367416704236,562.6393215563937,C 119.20612397824526,586.5260352821113 142.7287089140463,604.960515029189 169.6559689530316,612.0760141685099,C 196.5832289920168,619.191513307831 226.3827419526824,614.7625466480287 250,600,C 270.5169459297147,621.7468906250915 301.7478710793487,632.7965808251038 331.4002835972378,628.9747024895904,C 361.05269611512676,625.152824154077 388.16575617197293,606.7510542829383 403.9073016900122,581.3330278676947,C 415.2301222484617,563.0499595552523 420.9071379123661,541.5212604962727 421.38041624812126,520.0211939863015,C 421.85369458387635,498.5211274763302 417.27414971663734,477.0945957200924 409.6511479900014,456.98572461821334,C 394.4051445367265,416.7679824144458 367.8002603867323,382.06836901802404 342.55380737375395,347.2470534264291,C 314.2025131758471,308.1433677646078 287.28673483531367,267.41836164625937 270.1943420038308,222.24376455531598,C 253.10194917234955,177.069167464374 245.77637686668425,128.11501972006596 250,80M 250 , 80C 245.24047888510609,155.92100369417204 213.79676579173062,228.26935409230722 169.9126260861479,290.4049648600023,C 137.52910315024963,336.2568373116735 98.894890632903,378.15264226631865 73.48412919083917,428.20641303335174,C 60.77874846977883,453.2332984168841 51.69749866267285,480.42062810433583 49.87692445863484,508.42879121502824,C 48.05635025459683,536.4369543257206 53.828890765659665,565.2236519332038 68.33666502236753,589.2506404541142,C 77.64896052026826,604.6731589653606 90.4665282547601,618.0115149996448 105.7021075182896,627.626609860054,C 120.93768678181908,637.2417047204632 138.5576030477672,643.0875114112557 156.5324983362944,644.3024451693021,C 174.50739362482156,645.5173789273485 192.78444619889882,642.0893370568922 209.06877623094604,634.3826179055723,C 225.35310626299326,626.6758987542523 239.6008022813377,614.711546875775 250,600,C 275.80272581301585,614.7178483971973 308.16583327920176,617.2748216248291 336.02836712855344,606.9755532858504,C 363.8909009779051,596.6762849468718 386.5565502977084,573.9232238425784 398.16819078035434,546.5815793030425,C 412.37179891320295,513.1366922237696 410.19430076971463,474.46796327789457 398.87588989466656,439.93976420814244,C 387.5574790196177,405.4115651383894 368.1032651049208,374.20675758833767 348.5300400966208,343.59316879983754,C 322.88171666745546,303.4777955671699 297.0801250489327,263.1062884817545 279.1292087191343,219.0058999659617,C 261.17829238933723,174.9055114501709 250.8850031108464,127.60563447552045 250,80M 250 , 80C 254.0558731164432,128.53444369784935 246.24817344019937,177.897976670547 228.2988486845539,223.17340126947005,C 210.34952392890912,268.44882586839225 182.27206981309425,308.9988304633054 151.632419909145,346.8571741349416,C 124.31296007793301,380.6130917924785 94.80769308025995,413.0271611473258 73.34867174740468,450.78064132873,C 62.61916108097518,469.65738141943183 54.032437531210384,489.8833640205676 49.46450893642578,511.1104161933467,C 44.896580341641176,532.3374683661257 44.44712582568009,554.5828288090412 49.44413873172152,575.7129868209868,C 54.63108220407688,597.6462772148041 65.7990692448127,618.2590331083733 81.99466189567616,633.9331005055815,C 98.19025454653962,649.6071679027896 119.35801579200407,660.1645647600832 141.68963597327573,663.2096181527754,C 164.0212561545477,666.2546715454672 187.34281147139922,661.7208012390997 206.82224426940178,650.3839009593478,C 226.30167706740434,639.0470006795958 241.78711448204797,620.9886188577036 250,600,C 272.0738217687564,618.408382888372 302.05277822344533,626.942963065829 330.5303451823715,623.0506182527879,C 359.00791214129765,619.1582734397468 385.4010296579685,602.9993287375512 402.63965155526296,580.0003704323182,C 418.7501257827046,558.5065336719323 426.9071508132546,531.5675651764474 427.5120884921207,504.7130227502606,C 428.11702617098683,477.8584803240738 421.4902985366567,451.1852087519894 410.99150845152127,426.4605691132922,C 389.9939282812415,377.01128983583413 354.8796262246301,335.1465012959495 325.1600534076362,290.39299209675073,C 283.41657422748904,227.5331659815589 253.3898950354633,155.3815919501842 250,80M 250 , 80C 258.9648726115128,119.90616102875356 257.86443635766227,161.95023726779917 247.4249589068008,201.49626032380843,C 236.98548145593955,241.0422833798175 217.21479885574877,277.61258547618957 193.62633338175615,311.02597987986695,C 165.46977750576266,350.9101388376009 131.54133589945855,387.0662151787751 109.12958386755895,430.4396073152495,C 97.92370785158967,452.1263033835009 89.85090549233308,475.70372379636575 88.01951698845224,500.0456723582587,C 86.1881284845714,524.3876209201516 90.87179358632498,549.4513546867307 103.06553201287382,570.5983919928617,C 117.2795624215209,595.2491283632094 141.94997936679,613.8980748010493 169.81416091758632,619.667377233977,C 197.67834246838262,625.4366796669046 228.00509790662295,618.053302910024 250,600,C 271.3426644473049,619.6497358249044 301.83117079881686,628.8629136828127 330.5079393675518,624.4737921130678,C 359.1847079362867,620.0846705433229 385.2841919050289,602.3318380936041 400.92353340082343,577.8975907903475,C 414.9736314159667,555.9463104484407 420.72076263191656,529.2027158457851 419.1055779678908,503.1901200240449,C 417.490393303865,477.1775242023047 408.8570632589604,451.9568518822952 396.79278057499766,428.85453498105005,C 372.6642152070486,382.649901178485 335.9947604649737,344.37498253894785 306.4222091494326,301.45039680729263,C 284.2225637643032,269.22759088912295 265.7753928460307,234.07234239671754 255.52504817202822,196.309081010422,C 245.27470349802587,158.54581962412652 243.20759174803666,118.53565448521908 250,80M 250 , 80C 261.0393019174002,120.07524126237132 261.1543912175379,163.02529311894335 250.85290820436722,203.29650612265283,C 240.55142519119664,243.56771912636225 219.89477254433353,280.6716625309308 194.26441701654315,313.39743256892746,C 164.1171897552187,351.89050870154625 127.14382064140304,384.5770788128602 96.51372139090634,422.6870413109033,C 81.19867176565161,441.7420225599216 67.54894363045368,462.3322729608705 58.1090415357298,484.8829116184891,C 48.669139441005925,507.4335502761077 43.57196322314118,532.0198019129292 45.21542720479983,556.4112365071766,C 46.86022346433027,580.8224440740985 55.433836205015055,604.8959455448286 70.5626201628585,624.1243699620192,C 85.69140412070193,643.3527943792097 107.34115491688945,657.4761556629828 131.18098629532247,662.9784142409297,C 155.02081767375665,668.4806728188762 180.81367358023158,665.2393260716829 202.44783753198865,653.8123684836257,C 224.08200148374573,642.3854108955686 241.33176212550023,622.879555541178 250,600,C 273.27450014003466,617.2689030318116 304.8249147210107,622.7217388317304 332.5988988812202,614.4438663659927,C 360.37288304142965,606.165993900255 383.53195172428457,584.572519813775 395.06768122570026,557.9859759699289,C 404.0104136377823,537.3755457991776 406.25931900269273,514.1645300173477 403.073467707579,491.9246413858159,C 399.8876164124653,469.6847527542841 391.4691092730126,448.4251551596668 380.45524742380155,428.8430934197986,C 358.4275237253663,389.67896994004263 326.7749596708177,356.94381200391587 300.0120316798965,320.84956225932433,C 274.5214061813274,286.47122356621105 253.31339489952296,248.22406154397072 243.644289429481,206.53292868558086,C 233.9751839594398,164.84179582719113 235.9358286157231,120.42080210585104 250,80M 250 , 80C 266.62352715982985,123.38010273031205 268.8829805198541,171.97735757940777 257.20121095072477,216.9408008178853,C 245.51944138159615,261.9042440563624 220.12881151796535,302.3383476426173 189.51993514836917,337.28504499038894,C 161.510521133548,369.26389003667896 129.199514528521,397.3153681590343 101.84742924850403,429.8582204431068,C 74.49534396848443,462.4010727271771 52.21656706105506,501.3814508744732 49.73725635980012,543.8199572383278,C 48.25473309560433,569.1963947095885 54.11298766433431,595.1760174484207 67.66345393547364,616.6829074559602,C 81.21392020661297,638.1897974634996 102.4616720630224,654.8826994674008 126.79860040453987,662.2226839947367,C 151.1355287460602,669.562668522073 178.26295865555173,667.3600036269003 200.97291223676334,655.9398695514594,C 223.68286581797494,644.5197354760186 241.66936065519408,624.0158677142551 250,600,C 258.415571952619,616.497016250535 271.78430086984,630.424962521265 287.91704029986124,639.5193627182632,C 304.04977972988246,648.6137629152614 322.8739020528364,652.8350124101278 341.35157532320136,651.5904293579521,C 359.8292485935662,650.3458463057764 377.87298168501616,643.6576999735622 392.84497553780284,632.7575716930219,C 407.8169693905896,621.8574434124815 419.67054289415586,606.825517610082 427.2260391163308,589.9172985052555,C 438.0967891239761,565.5899720718701 439.93474738641675,537.7372464660142 434.7092668230379,511.6089788233448,C 429.4837862596591,485.4807111806754 417.5375592189461,461.0563042146566 402.67258201895606,438.94240654895805,C 372.9426276189239,394.7146112175072 332.4132785576497,358.822070257909 300.2226609773788,316.35170166627256,C 274.8823212781224,282.9191785224841 254.59709674054574,245.12348686338777 245.16568787561044,204.24666033959707,C 235.7342790106754,163.36983381580643 237.223979759634,119.95797450636617 250,80M 250 , 80C 229.20861096735482,168.46014385503634 182.73733412906594,248.19583427030818 135.58043865678317,325.87276854411124,C 116.564328315523,357.196144231335 98.20857338882139,389.3571422405775 87.43895421785105,424.38258470553734,C 76.66933504688011,459.4080271704973 74.25999568608876,497.9300747201224 86.72810782804899,532.3874759072327,C 98.10670374429141,563.8338440476398 122.23104145079716,590.8243990741954 153.01179762374417,603.8969490805532,C 183.79255379669115,616.969499086911 220.41067694015376,615.582633766703 250,600,C 273.72941136334555,618.1679763964482 306.64058034562436,623.5257124056993 334.9784998863123,614.0324176089351,C 349.1474596566563,609.285770210553 362.1210502320606,601.0719767736708 372.58750815246407,590.4069244485007,C 383.0539660728675,579.7418721233306 390.9975813151297,566.6645653653486 395.93679508986276,552.5615781007411,C 402.6600392341584,533.3646307993515 403.77273407025,512.4130088260029 400.42375970332074,492.35037768734645,C 397.07478533639147,472.28774654869005 389.3997398200215,453.11460111805803 379.4642970302337,435.3660300745349,C 359.593411450652,399.8688879874819 331.281648204779,369.98871764220644 306.05567534442935,338.07399559556853,C 277.3357745080516,301.73891914581975 252.4603396223829,261.3439494873735 241.27421048502814,216.40019575470353,C 230.08808134767577,171.4564420220343 232.80794773467298,123.00585801453806 250,80M 250 , 80C 244.61291369930183,156.0015890025765 212.6692811504138,228.2562905622758 168.2756463569331,290.1793671941001,C 135.88933762625916,335.35385868777587 97.42193541084816,376.52123365787486 71.12778413703013,425.4929120414088,C 57.98070850009836,449.9787512331841 48.156551131905985,476.5437610596581 45.12512025702046,504.1700591391959,C 42.09368938213494,531.7963572187338 46.148277362789436,560.4728170963875 58.772493588566846,585.2322816183336,C 67.59001000017555,602.5257896555936 80.52012310930834,617.7644748255814 96.41598506456378,628.906089995889,C 112.31184701981923,640.0477051661967 131.13290198298438,647.0269109956469 150.4715590459265,648.7092780500334,C 169.81021610886862,650.3916451044198 189.5952061480342,646.7581206055136 207.03683202743431,638.2373399730359,C 224.47845790683442,629.7165593405583 239.51669201135294,616.3375111176376 250,600,C 273.32565320410373,614.403064283174 302.15760161328234,619.5813614230631 329.0580782888874,614.2994382156899,C 355.9585549644924,609.0175150083166 380.54714228691336,593.3941657260635 397.4092692025789,571.7792858045061,C 412.96539027290584,551.8385220644383 421.97233366660873,527.1462369452883 424.51092064403133,501.9831183498134,C 427.0495076214539,476.8199997543386 423.3264530104123,451.2750508765492 415.798522324361,427.13054382260674,C 400.74266095225744,378.8415297146987 371.61304914925586,336.41488950456517 344.48045793817965,293.7261282278266,C 302.44782908719577,227.5945580842258 266.28831133939605,156.64735723750337 250,80M 250 , 80C 236.6976245881056,155.10894049254432 203.10473026196456,225.1132150562713 163.10211552104658,290.0600929442901,C 138.76371773972204,329.5750836250578 112.59000959005893,368.61168761672064 97.3802258735287,412.45749214075136,C 89.77533401525987,434.38039440276947 85.10793186033558,457.4755898478458 85.40859738926147,480.67812470948707,C 85.70926291818735,503.8806595711283 91.11535905913318,527.1566675487626 102.27296044568078,547.5025751241172,C 116.08517035268007,572.6891664391601 138.93123188018038,592.9901652631728 165.9422240237734,602.7650221933154,C 192.9532161673664,612.539879123458 223.7097536945197,611.5743023022201 250,600,C 273.7165431637553,615.3031101878894 304.1163603436688,619.7352093009114 331.2598409687312,611.9962778102071,C 358.40332159379363,604.2573463195027 381.67303792992595,584.6322413892826 395.00102474478354,559.7520410580165,C 404.12785109528085,542.7144140597729 408.7844610929915,523.4310840675519 409.4053848913653,504.1128505406472,C 410.02630868973915,484.79461701374254 406.69841342030276,465.4672737636332 400.84774778208674,447.04583504258846,C 389.1464165056535,410.20295760049623 367.89070861506275,377.25145433565933 346.77110390282746,344.87428539436996,C 320.658286584283,304.84232886036557 294.70183270121925,264.3096221322191 277.01167467283904,219.90810097378323,C 259.32151664446013,175.50657981534943 249.72825569822496,127.79500943912782 250,80M 250 , 80C 237.5444889303364,157.3901549419703 200.62183242300347,229.00117955801443 154.06548644842383,292.06370795201343,C 125.53525279689032,330.7091091765777 93.914198054404,367.42874429871404 70.99386253101575,409.6436644989697,C 59.53369476931816,430.7511245990974 50.40740796554073,453.27887860042216 45.798692972003444,476.85047301219413,C 41.18997797846619,500.4220674239661 41.22193217405042,525.0570510242368 47.3883263306669,548.2698901463688,C 52.93480332118569,569.1491065580063 63.48265726791292,588.7650673048864 78.35134277384826,604.4375679444123,C 93.2200282797836,620.1100685839382 112.3781178033511,631.734677578787 133.2398253824374,637.346650659179,C 154.1015329615237,642.9586237395708 176.5730078696859,642.5099769444439 197.15561427831344,635.9478585061746,C 217.73822068694096,629.3857400679053 236.3413639569792,616.7375848441358 250,600,C 264.2844859463682,613.9309494688973 282.7088152008495,623.5591415871703 302.29845031012286,627.3491400228539,C 321.88808541939625,631.1391384585377 342.5527897362139,629.0750848520881 361.05668395228196,621.6102479015898,C 379.5605781683499,614.1454109510915 395.81938421775885,601.3389448544867 407.7111974301437,585.3170014524302,C 419.60301064252866,569.2950580503737 427.1130863541352,550.1630062622105 430.020620403614,530.423093962302,C 435.15159568508784,495.58773164300135 425.9172423723732,459.8618861013817 410.2625049044021,428.322092664123,C 394.6077674364304,396.78229922686415 373.0357789185516,368.6278762456573 352.01538474388894,340.3794709101719,C 323.61175978532333,302.2090586828965 296.2393526386835,262.77521593345193 277.6754811220631,218.96735185973344,C 259.1116096054441,175.1594877860162 249.27334676931335,127.57329351084658 250,80M 250.20913149047107 , 576.9778875291635C 250.11684517875284,584.6516978016892 250.04713427971816,592.3257795691205 250,600,C 249.69286601567023,650.0063629200481 250.34445436951907,700.0186124142987 251.95428628117526,750M 249.9211987261886 , 576.9968903446446C 249.57195770743078,584.6597496852789 249.59826679873515,592.3397132561156 250,600,C 252.912919986978,655.5438342959692 276.32370736515185,709.7822055119929 314.74416594738443,750M 249.20596481719986 , 575.3921281973347C 249.1629874463217,583.6008317465484 249.42791389229555,591.811143028563 250,600,C 253.69750379571792,652.9261754947598 270.46173434822686,704.8911356275731 298.39096530526297,750M 249.1203662541829 , 575.5243483698969C 249.77539689532193,583.6645334114246 250.06899305990487,591.8337941730063 250,600,C 249.55214762741383,653.0090223522292 233.4285084816692,705.7898345136799 204.17755481928492,750M 249.23336812817487 , 575.3579131109407C 249.72906438372536,583.5621265221254 249.98475406250319,591.7808394567681 250,600,C 250.09479030061698,651.1019213396846 240.79649348054062,702.2064628347213 222.7080121999154,750M 249.01480358806512 , 576.1714293729518C 249.68513813048153,584.0952273009004 250.01394320506765,592.0479104891385 250,600,C 249.9072984413246,652.8695582404761 234.273228224683,705.6185010466289 205.54203728567057,750M 249.77388397227426 , 575.0258996242658C 249.48048090735432,583.3484935004077 249.55595150945211,591.6840830256825 250,600,C 252.86607493197133,653.6744109793918 271.476366002387,706.4137212205821 302.93098540341,750M 249.00238923170926 , 576.069085128576C 248.88888324044788,584.0563340417084 249.22211237974116,592.0499107136691 250,600,C 255.73957223836,658.6590023699389 286.89740143892914,714.3893385887538 333.86230367846787,750M 249.0446673404451 , 576.2955325863381C 248.9594598109189,584.2064131038882 249.2784574035305,592.1216329631376 250,600,C 255.20502521700217,656.8325408594238 282.21027648732263,711.3945963053457 324.2418454994411,750M 249.42722341083316 , 575.1802884782422C 250.19328623137514,583.4268998104451 250.3848277458732,591.7268290048229 250,600,C 248.55764542650599,631.0082787692862 238.85512150772502,661.5945516628537 222.1595810176871,687.7642415099832,C 205.46404052764916,713.9339313571127 181.81608192054398,735.6234014666137 154.3041362685316,750M 249.6566608747126 , 576.9392115017646C 249.42911788579875,584.6261614640237 249.5437152326601,592.3232311650556 250,600,C 253.242462275102,654.5528475278759 274.27132654740143,707.9055500778123 309.1222091869209,750M 250.97664583479227 , 576.2148555640027C 250.53612899921043,584.1379594350738 250.2105347324715,592.0674527949319 250,600,C 248.66874821247785,650.1590285003489 251.95045148508885,700.4395423467877 259.79018417343633,750M 250.9653581429106 , 575.7390715501978C 250.19539297756316,583.7999079912382 249.87294694314312,591.9034706197164 250,600,C 250.87115493874776,655.5148512821374 273.8081150370608,710.3822198972392 312.7065613239555,750M 249.45827223829585 , 576.8405540031425C 249.3490027626397,584.5635214950046 249.52974830208112,592.290588217038 250,600,C 253.24283080997688,653.1636954576187 270.54169689802603,705.4069534249663 299.6682254163621,750M 250.96566729015464 , 575.7402180053864C 250.20635776799298,583.8014879703687 249.88383975780982,591.9038817204226 250,600,C 250.79114675149822,655.1412217800496 272.7795408857094,709.713552788412 310.43830379219594,750M 250.74867325142105 , 576.6629391846969C 250.92132107516076,584.4478652950886 250.67127370446997,592.2421476277912 250,600,C 244.97037142331106,658.1269841573868 215.13526470838514,713.6947083525745 169.46285236517826,750M 250.74922631923323 , 576.6623140664128C 250.9677241249629,584.4471804823914 250.7173794450736,592.2451787165966 250,600,C 244.32382466167218,661.3590556912015 207.50769123734662,719.0264779847864 154.23674591289708,750M 250.32499279167317 , 576.9457164931207C 250.09923443373026,584.6282239722585 249.99088663730467,592.314181569292 250,600,C 250.0596918262216,650.3415208495294 255.17500947719518,700.6757021446665 265.24406730978586,750M 250.8617782909476 , 575.4927148954962C 251.09588807839697,583.6690516762096 250.80784954580594,591.8603028523435 250,600,C 243.83327271795005,662.1344565069986 205.33697673162195,720.1620461703267 150.48795010352615,750M 250.98975905855633 , 576.1427480507947C 250.76920291057647,584.0992004919348 250.4392416425146,592.0526201020704 250,600,C 247.20893835362617,650.4998276012428 239.99461480057698,700.7544011867227 228.46666570323765,750M 249.92435427186217 , 575.0028652429012C 250.07859161792697,583.3341870696817 250.10381089136007,591.6678972738483 250,600,C 249.37265760755398,650.3519543069845 244.01989810218723,700.6440059731535 234.03497373432617,750M 249.94060506205898 , 575.0017654377117C 249.5594917612574,583.3290326463931 249.57932062958417,591.6746378228852 250,600,C 252.74558409833386,654.3358757615389 273.0844323410113,707.6441842080485 307.2298638862808,750M 249.2267872588343 , 576.6341467155943C 249.1021034110373,584.4291593532125 249.36025484790545,592.2302835172125 250,600,C 254.62481929087514,656.1685142225455 279.9513875567605,710.3992931686921 320.05219754736237,750M 250.58595821109057 , 575.189658729389C 250.8365862230667,583.4622898559019 250.64088845168536,591.7484242627099 250,600,C 245.60722114045134,656.5579663066363 219.44132889050786,711.149457277515 178.10447621617044,750M 250.89573553793485 , 575.5554127238881C 250.0478422747704,583.6710948107064 249.74835733042443,591.8440270545524 250,600,C 251.86471864805353,660.4372655481994 286.1902875131042,718.9119664472194 338.05235855159196,750M 250.99876397105265 , 575.9502955723588C 250.94296811825237,583.9751764734638 250.60978179483138,591.9981256685198 250,600,C 245.98410678467945,652.6986425472502 229.77644799482243,704.4306857727031 203.00497202703966,750M 250.82263094205848 , 575.431424294251C 250.03763405576402,583.593197957707 249.76271142645433,591.8039970974968 250,600,C 251.67679006896807,657.9167216811071 280.4116729499639,714.4864929202031 326.19320951346754,750M 250.47418967205712 , 576.8804227137656C 250.37262996722407,584.587969242916 250.21456107909967,592.2947711639433 250,600,C 248.60372012057132,650.1426262177852 244.8132841423459,700.2185150589158 238.64592501717485,750M 249.83062144250542 , 576.9855510662878C 249.5815872429407,584.6552273959642 249.63810644541448,592.3348198918943 250,600,C 252.51996099030515,653.3746860405194 270.20255601506494,705.9504269462426 300.4489182277074,750M 250.19051084833723 , 576.9816850903757C 249.93637646458964,584.6512998369521 249.8728467108557,592.3272295298917 250,600,C 250.84624157798015,651.0644862889529 260.2125995770275,701.9776451025281 277.59509982481165,750M 250.72926672620514 , 575.3157704756078C 250.40492406819857,583.5411786841831 250.1618193523938,591.7697902302133 250,600,C 249.01571327188356,650.0612944383925 251.04236876499846,700.1816151117315 256.06537068963615,750M 249.06199837335635 , 576.3466308532342C 249.1103014881795,584.2386139609824 249.42320285035902,592.1289749325738 250,600,C 253.8537814006124,652.5890428333104 269.6738986428991,704.2660683015665 295.92016597009217,750M 249.13568222718996 , 575.497053891948C 249.03237076503487,583.6722551566962 249.32091737037018,591.8523969316436 250,600,C 254.60473776658677,655.247438115846 277.7435744725186,708.7883436400026 314.8256780850262,750M 250.78374271330927 , 576.6210856296314C 250.3505162479803,584.4070245631212 250.0891838109174,592.202527557332 250,600,C 249.42117792496046,650.607269782498 256.14183706423705,701.292363978391 269.8894544221479,750M 249.74253726606062 , 576.966288228549C 249.94444161072383,584.6423094367315 250.03027560218194,592.3213835659819 250,600,C 249.80148205906445,650.3488952772507 244.59497311567986,700.6767500601206 234.48222470683353,750M 249.32215324282288 , 575.2647967806215C 249.3588006616546,583.5136028852636 249.58482895353262,591.7615670065562 250,600,C 252.57259524298297,651.0492090161509 262.4545790769026,701.724500987416 279.2508936293542,750M 250.80621652006397 , 575.4083794097769C 250.51648768906364,583.6048801970821 250.24774767426274,591.8021228942057 250,600,C 248.4894194792587,649.9845397309789 247.75932259045265,699.9926656298175 247.81006523734877,750M 250.5634126738631 , 575.1738243776712C 250.883449159539,583.4503547094193 250.69517374292704,591.7465091535971 250,600,C 244.98340308281752,659.5598397628268 212.0625494684194,716.1778577655008 162.781686530841,750M 250.9940702062295 , 576.1087401723689C 250.99435847807294,584.0816856796281 250.66261903713738,592.0546368140626 250,600,C 245.48873335261382,654.0939060503604 225.25982130780108,706.7847859002281 192.41248551233792,750M 249.83856506107347 , 576.9868833570862C 249.89482163849667,584.6579048273215 249.94863328844977,592.3289442277963 250,600,C 250.3348049233509,649.99944832602 250.56574019468673,699.9995921808834 250.6928038207435,750" stroke="hsl(210,80%, 90%)" fill="none" stroke-width="1"/></svg>