<svg viewBox="0 0 500 800" width="500" height="800" version="1.1" xmlns="http://www.w3.org/2000/svg">
<rect width="500" height="800" fill="hsl(210,80%, 20%)" /><path d="M 250 , 80C 264.52096021880834,125.87558744402699 264.6368146177372,176.04639224614044 251.2189916682508,222.25667071648746,C 237.80116871876518,268.466949186834 211.04816464498384,309.85007612538703 179.55580650197496,346.23220343541624,C 150.46626199608227,379.8384359950148 117.30290190278134,409.936004603306 90.44427967194981,445.350618511573,C 77.01496855653184,463.0579254657052 65.25319513104185,482.1767175113735 57.17344881814484,502.8796838718199,C 49.09370250524784,523.5826502322664 44.790479671619906,545.9167460832037 46.11447724832074,568.1010231058934,C 47.60906280830911,593.1435916727116 56.51258908633595,617.8943401923939 72.39686203798355,637.3122159572008,C 88.28113498963116,656.7300917220077 111.10239338406154,670.4973750018091 135.81527253525437,674.8145072071577,C 160.52815168644926,679.1316394125058 186.83186840576758,673.8607671801111 207.8376374986994,660.1450210744686,C 228.84340659163124,646.429274968826 244.28105030487245,624.426576526493 250,600,C 273.6013597895762,616.6135099561939 304.9741460871832,621.5586331889626 332.5937102289046,613.180532353874,C 360.213274370626,604.8024315187854 383.30662205946516,583.4839386203967 395.13503947692413,557.1567390279613,C 404.5426314261454,536.2177120905317 407.09382096574694,512.5170090757044 404.05234876992546,489.7640953666539,C 401.0108765741039,467.0111816576034 392.58874734415997,445.21742441748717 381.51295858513276,425.110894663826,C 359.36138106706375,384.8978351564812 327.37865081568725,351.1081753139306 300.6521239192546,313.77889322152305,C 276.55815206868556,280.12653444622146 256.5803782178241,242.96521384276434 246.97962660930085,202.70572677165188,C 237.37887500077807,162.4462397005395 238.19766640211174,119.66995906629822 250,80M 250 , 80C 263.33001383529023,127.31781073144802 261.4859844792589,178.59216476322027 245.91614535862274,225.2209604910071,C 230.34630623798836,271.849756218792 201.29052092066593,312.8148886921123 168.85091531958503,349.7518142505862,C 144.75894056306512,377.18382094885874 118.79477825928106,403.14096759914054 97.72281968599464,432.9555747749623,C 76.65086111270755,462.7701819507836 60.75045001040485,497.5315898402367 59.976512509947504,534.0328125582258,C 59.48594392222848,557.1695041750812 65.22833838790284,580.5737233608305 77.44612934612604,600.2275459054115,C 89.66392030434923,619.8813684499925 108.35927123563384,635.5454973970885 130.0737640821819,643.5472445144331,C 151.78825692873124,651.5489916317777 176.32419890987646,651.747050674865 198.08873008529199,643.882424858773,C 219.8532612607075,636.017799042681 238.63153408554012,620.1570121611447 250,600,C 260.5361946861897,621.4659844023939 278.905718367578,638.9736607676815 300.84177343320243,648.4925563436926,C 322.77782849882686,658.0114519197037 348.0719927899719,659.4615084088695 371.0134861429886,652.7170464167901,C 393.95497949600514,645.9725844247117 414.33744709750357,631.1566767674695 428.3154438864845,611.7552466501733,C 442.29344067546543,592.353816532877 449.8465769603855,568.603472342956 450.81152106104634,544.7106121602217,C 451.77795741357534,520.7808025156061 446.3012824029925,496.8338440663868 436.72725625927995,474.881445285148,C 427.1532301155674,452.92904650390926 413.6024055203972,432.89725836537895 398.5046664192671,414.3061835474661,C 368.3091882169946,377.12403391164224 332.20223551261506,344.9898010139882 302.9241715967854,307.08104043354575,C 278.2471259137236,275.12960336715963 258.47837283018936,238.93724296658053 248.70700493629474,199.7661913629624,C 238.9356370424003,160.5951397593442 239.21479990207612,118.9041176882203 250,80M 250 , 80C 266.7810551027773,124.5651550440277 268.5273178620748,174.4706791680746 255.84752494786136,220.37143848764728,C 243.1677320336489,266.27219780721924 216.33530616222885,307.18089374168085 184.61554528916676,342.698686812427,C 157.56664861872773,372.98633994377525 127.00162810288559,400.0859873022706 101.25052293827964,431.4844797198113,C 75.49941777367206,462.8829721373506 54.708272483374515,500.2161306262086 52.00414775258856,540.7336879653832,C 50.330600464819504,565.8094721627895 55.83990019619025,591.5380273029324 68.95678475401839,612.9749826169666,C 82.07366931184652,634.4119379310008 102.80851786450884,651.225334363539 126.73826148322647,658.9040767072911,C 150.66800510194685,666.5828190510437 177.50597868863565,664.9368003901583 200.20029443369017,654.1403312218052,C 222.89461017874473,643.3438620534522 241.14564842450233,623.5201226998694 250,600,C 258.65549373117864,619.8886282092905 273.8884562779071,636.8454556884857 292.7299692095349,647.591268557932,C 311.5714821411626,658.3370814273784 333.8989208218283,662.806282329407 355.4415744317648,660.278599750414,C 376.9842280417011,657.7509171714211 397.59952322786,648.2747698972174 413.8015734332909,633.8536509073977,C 430.00362363872176,619.4325319175779 441.7362059677904,600.2078097689174 447.8786973015776,579.405288191181,C 455.5737893832284,553.344637817822 454.5184423159948,525.1260302993031 447.2105105831494,498.9541737771607,C 439.90257885030405,472.78231725501826 426.6091125323174,448.59016662152123 410.8601122487526,426.446523513491,C 379.3621116815785,382.15923729741075 338.68616403333755,345.06440826303765 306.6492552116431,301.1653851159886,C 283.5467761237309,269.5088894821565 264.8568197684806,234.31045653614262 254.63898732397917,196.47589355520756,C 244.4211548794778,158.64133057427247 242.68287450914906,118.50088220253386 250,80M 250 , 80C 241.98725973183585,156.45353730063914 207.91530418659644,228.30093979273224 162.2339313026243,290.12779111010707,C 131.9002805525623,331.18247043423213 97.0225228452022,369.1192536560914 71.38263427625148,413.25782155770406,C 58.56268999176906,435.3271055085103 48.23296469786516,459.03925247331284 43.02069483675887,484.02397797617857,C 37.808424975652585,509.00870347904436 37.87912566828383,535.2943171801203 45.00064512434709,559.8032589401282,C 51.108149136151155,580.8224334362033 62.42932387266398,600.3944038348036 78.10771880039087,615.668409014876,C 93.78611372811777,630.9424141949485 113.78211605556746,641.8043018674111 135.20600092857083,646.2903311471805,C 156.62988580157423,650.7763604269497 179.374095072829,648.8390640714127 199.68207014180302,640.672458267985,C 219.99004521077705,632.5058524645573 237.7622287187531,618.1478443848998 250,600,C 272.8509829596418,617.4814152872423 304.0499688640392,623.4145869715142 331.77383399976037,615.7233839054645,C 359.49769913548147,608.0321808394149 382.9135028632728,587.1121418280985 395.0170388232179,561.0109594806802,C 403.1750133518394,543.4183500596139 406.4501863421665,523.7334395163931 405.51242439107455,504.36405498371073,C 404.5746624399826,484.99467045102836 399.52996960995705,465.9601788540392 392.0459433850306,448.0704665557253,C 377.0778909351754,412.29104195909355 352.94197968331923,381.26029894428837 329.98542708433666,349.99999646050196,C 301.25460629614594,310.87678122276907 274.21853181139363,269.70705933024516 258.91257508199396,223.6439100425678,C 243.60661835259742,177.580760754893 240.0669261223374,127.51231500402471 250,80M 250 , 80C 233.158568535063,159.21054279084174 193.47596177562673,231.86185919475167 145.5630930354057,297.14815876893715,C 114.77196863021916,339.10428924073886 81.0056951008499,379.5637323350901 58.89817199757536,426.67708127719675,C 47.84441044593058,450.2337557482524 39.94269328776439,475.4757087163326 37.835309786149885,501.4114271631585,C 35.7279262845354,527.3471456099845 39.60492371481459,553.9644080691559 50.650822884763954,577.5247702926705,C 59.270170153256664,595.9094160921092 72.22466237729246,612.3088298443538 88.42718533778203,624.546746260987,C 104.6297082982716,636.7846626776201 124.0404204777076,644.7892417180249 144.19299858612118,647.2715680644144,C 164.34557669453474,649.7538944108039 185.1649140627005,646.690392188859 203.709860622733,638.4215769417256,C 222.2548071827655,630.1527616945921 238.46052920837738,616.7071530296151 250,600,C 257.3386120233044,619.0296959151644 270.9941325766803,635.5585484032804 288.28846058529604,646.3701519745653,C 305.5827885939118,657.1817555458501 326.40201180866177,662.209140488276 346.73497690396084,660.6106776374218,C 367.0679419992597,659.0122147865676 386.77764548716266,650.8284687618519 402.49317972440093,637.8282173531139,C 418.20871396163926,624.8279659443759 429.87166098818136,607.1431063196375 436.30476583234184,587.7885276593762,C 443.5024367048522,566.1336828453469 444.20143715699226,542.5755139824612 439.8611306723787,520.1723778286032,C 435.52082418776513,497.7692416747452 426.3012793196588,476.50719762000585 414.60002751467914,456.9158863799398,C 391.19752390471064,417.7332638998018 358.55452075464933,385.07317006901405 329.3595188943169,349.993162286649,C 298.1215128186244,312.4583300751803 270.5832901678898,270.9809611658675 255.58961214178788,224.5065997181004,C 240.59593411568736,178.0322382703337 238.2890674433009,127.40812916980039 250,80M 250 , 80C 225.81384990930164,167.27549744496986 179.93134843326482,246.48728724222224 135.48965633139375,325.3981123145735,C 116.33713779402164,359.40539170738276 98.29153235413605,394.6293409289631 89.68036098431307,432.69719804838223,C 81.06918961448908,470.76505516780213 83.06909807765862,512.3384093013416 101.82423770877622,546.5664497863347,C 115.68082754872427,571.8546602371251 138.5237596814794,592.3007762200111 165.58971108167142,602.2472803595799,C 192.65566248186343,612.1937844991487 223.52235473531118,611.4207255038075 250,600,C 273.2016279923827,617.7329569871174 305.0901714085714,623.3916273864679 333.03415127163873,614.911810500688,C 360.978131134706,606.431993614908 384.0714862504938,584.2742440900125 395.1267255273696,557.245463327002,C 403.3644791865061,537.1051088709734 405.23317906359136,514.6336934663804 401.9631156872169,493.12087987825146,C 398.69305231084246,471.6080662901226 390.4654413064954,451.0600592035486 379.7407671213211,432.12660134226655,C 358.29141875096184,394.25968561968784 327.56485310103545,362.6441752096448 301.11071741545953,328.0876048216123,C 274.19997181536394,292.9345729638645 251.55305133189023,253.6817998572594 241.50127984673972,210.56700230983716,C 231.4495083615904,167.4522047624152 234.13863416479245,121.33208138222119 250,80M 250 , 80C 257.0772364365785,119.27259088567367 254.821190986029,160.12188155912366 244.0320284608518,198.54085659045478,C 233.24286593567476,236.95983162178572 213.90760053389522,272.5226978377302 191.15504434142596,305.30599933653053,C 166.20418839115794,341.2567481821263 136.9994786115982,374.4300104766702 115.96601105688018,412.80441337540924,C 105.4492772795158,431.9916148247799 97.12054267193398,452.5415219868689 93.19492996433422,474.0668548222194,C 89.26931725673448,495.5921876575699 89.88519359170839,518.1037548101406 96.41238597719693,538.9878671533911,C 105.92030943790559,569.4089931103628 128.74984026749428,595.7805007857019 158.26090697616942,607.8197056905432,C 187.7719736848445,619.8589105953845 223.00162022552615,616.9390968642932 250,600,C 264.5447253860205,611.8491647167831 282.3662601666199,619.6302791695415 300.9419573337727,622.2561534609805,C 319.5176545009254,624.8820277524195 338.78232760723625,622.3437373594425 356.08434397835543,615.0917051936472,C 373.3863603494746,607.8396730278519 388.66433454023667,595.9159658094575 400.129597987239,581.0667410778078,C 411.5948614342413,566.2175163461582 419.2320498819394,548.5192557295088 422.72298846613285,530.0865378387149,C 426.8705612509167,508.1866856271585 425.1970718492312,485.3873905010686 419.36476614015766,463.87483377228807,C 413.53246043108413,442.36227704350756 403.6594211169924,422.10409497164613 391.9082008602664,403.1643296781953,C 368.40576034680623,365.2847990912911 337.8613358295921,332.3080981947574 312.05071024974455,295.96205088903434,C 289.82405947408097,264.662890857399 271.02036732073606,230.61049083352242 259.8558341305173,193.88155643523464,C 248.6913009402986,157.15262203694692 245.14885051825055,118.08054322216191 250,80M 250 , 80C 266.0345681546467,122.4890600885447 268.3362459393937,169.90433767523967 257.26375473274425,213.94781098959857,C 246.1912635260953,257.9912843039572 221.93981982327435,297.8489521262129 192.3590866135613,332.30773657792736,C 163.85850664117288,365.50824364632166 130.49756103677868,394.2964788806265 102.2435914153394,427.70710486985024,C 88.11660660461793,444.41241786446056 75.32407143196497,462.3838600930132 65.76851746929121,482.0645757953621,C 56.212963506617456,501.745291497711 49.971254643799575,523.1911549525565 48.99212582188247,545.0470577900131,C 47.8585834644903,570.3497463339543 54.0358593784727,596.1479463671743 67.78150848099736,617.421594304892,C 81.52715758352204,638.6952422426097 102.84050773880622,655.113177954671 127.13986383700883,662.2582643110728,C 151.43921993521403,669.4033506674748 178.43364882566019,667.0948233105186 201.04591925271288,655.6844687164815,C 223.65818967976557,644.2741141224444 241.59273989884534,623.8920267750427 250,600,C 257.4685898040604,618.1432444798154 270.80714428402115,633.813081266072 287.51707884931835,644.0958455218133,C 304.22701341461556,654.3786097775546 324.2088728829239,659.2162457345509 343.7800213535331,657.8279729022024,C 363.35116982414206,656.439700069854 382.3915138337816,648.8585575086274 397.7560468288514,636.6565789904088,C 413.1205798239213,624.4546004721902 424.75343202780294,607.7450568140787 431.4423158498549,589.3001120559411,C 440.10746353118,565.4055170001525 440.44743521498526,538.908915917329 434.51088503881596,514.1946724689626,C 428.57433486264665,489.48042902059626 416.6349271991185,466.512921561165 402.0574614617436,445.69144347014185,C 372.90252998695854,404.0484872880695 333.94133170418536,370.28476836096814 301.99070623572004,330.74613711183076,C 273.8109637363891,295.8739419344 250.98775783717414,255.91972187585225 240.96620461928808,212.21919150238313,C 230.94465140140255,168.518661128914 233.8766871543557,121.83547139333908 250,80M 250 , 80C 236.98042858956583,157.49374357078597 199.98708619909294,229.22849806984658 153.24862905871598,292.39736822329536,C 122.76711969001485,333.59433160635075 88.61674356469666,372.5218465634282 64.61329791440032,417.80039338521004,C 52.61157508924557,440.4396667961017 43.348290132483605,464.7247691115591 39.40666881686499,490.043569887844,C 35.46504750124639,515.3623706641289 37.01434790935175,541.727449356116 45.58122521243861,565.8767074113607,C 52.73807482691026,586.0512239928064 64.79894521259632,604.5455476127432 80.80156882493242,618.7634114896092,C 96.80419243726853,632.9812753664753 116.70801814666673,642.826002348487 137.7790482504215,646.6000328287362,C 158.85007835417622,650.3740633089852 180.9940505145407,648.0401555088949 200.7708067206963,639.847992811446,C 220.5475629268519,631.6558301139971 237.87208745395665,617.6393127126515 250,600,C 271.7059466485214,620.6602638480485 302.64631626982793,631.1792739111655 332.46246518775695,628.1806265688933,C 362.27861410568596,625.181979226621 390.2696081241919,608.84007982091 408.48319798081195,585.0438665357198,C 422.85741207454737,566.2638310197015 431.2797419175955,543.2297833540124 433.82041260167017,519.7169622287086,C 436.3610832857448,496.20414110340477 433.1892987126094,472.28599578177455 426.40761712708047,449.6295053283096,C 412.84425395602113,404.3165244213668 385.816225643507,364.43074415867693 359.5660640391245,325.0840787989947,C 309.4718783178637,249.99733488687528 264.97602037524916,169.01216415816717 250,80M 250 , 80C 265.0765197896852,123.94024896609703 266.4552914423395,172.3372105594251 254.7108116969488,217.28289025927464,C 242.96633195155863,262.22856995912383 218.26508748754003,302.9237394672336 188.5276695188942,338.61313426077663,C 157.51358856958782,375.8347175309089 120.9197536916538,408.4046385073746 92.72565684857183,447.80530324121423,C 78.62860842702146,467.5056356081328 66.77651462485203,489.040189070508 59.94153006627709,512.2805172878684,C 53.10654550770214,535.5208455052289 51.47296551945839,560.5146211613447 57.10194847053273,584.0761240952221,C 62.20676871971238,605.4436141592705 73.364934760996,625.4527899994789 89.47093454689494,640.393526002443,C 105.5769343327939,655.334262005407 126.56633539315473,665.0225708313272 148.43245995761754,667.1442253614146,C 170.29858452208066,669.2658798915014 192.85542613284946,663.7594034332069 211.19586636614466,651.6657243626105,C 229.53630659943988,639.5720452920141 243.50412733156872,620.9864827850972 250,600,C 257.2322517682197,621.8154750680679 272.32817232244474,640.9264663929234 291.8633051415769,653.0342739493425,C 311.3984379607091,665.1420815057616 335.1971727364234,670.1469986786434 357.9795906729554,667.1168417438302,C 380.76200860948705,664.0866848090176 402.3259270725038,653.0993749238321 418.53437330749625,636.8049989391019,C 434.7428195424887,620.5106229543717 445.53782184770495,599.1162396519765 450.0073852237965,576.5719849224118,C 454.2746855775265,555.0479347888644 452.90050365437503,532.5902426390575 447.3857485908746,511.3515500462916,C 441.87099352737414,490.1128574535258 432.32111657839687,470.0675303922204 420.71846139637574,451.4430041113314,C 397.5131510323291,414.19395154955225 366.60388787896096,382.48821865857434 338.5200057388213,348.7647267014733,C 307.28115029587497,311.25270165370836 279.3678570847063,270.2192480195971 262.94921151737185,224.2470152012567,C 246.53056595003852,178.2747823829167 241.69499512283474,128.10452168517668 250,80M 250 , 80C 265.60196025806664,123.11890388069531 267.1908802685041,171.00243153703565 255.52177359314973,215.34758894081688,C 243.85266691779677,259.69274634459646 219.1093913834124,299.53441138750975 190.67863650494462,335.51153207284585,C 166.53410308114715,366.0647409690659 139.66920402165047,394.76178167053536 119.93680545221896,428.3339355306324,C 110.07060616750093,445.1200124606811 102.10190866631993,463.14785047469263 97.80001371531338,482.13753101065186,C 93.49811876430684,501.1272115466111 92.96054756413302,521.0911113705127 97.40372646826921,540.0482321501333,C 101.11694099380902,555.8909109528574 108.31756222259062,570.9534241302925 118.647539035649,583.526013871497,C 128.97751584870738,596.0986036127014 142.4222553901268,606.1252138480686 157.50163752314091,612.2400047885258,C 172.58101965615504,618.3547957289828 189.24896403837423,620.5280236755777 205.38200314439928,618.4058825486901,C 221.51504225042433,616.2837414218025 237.06523143576814,609.8726995269136 250,600,C 257.87986074277393,618.2672249277158 271.6058474139793,633.9566377410575 288.6561927479245,644.2069760710095,C 305.70653808186967,654.4573144009614 325.98369423778695,659.212831485049 345.82223645586913,657.7242232267622,C 365.66077867395114,656.2356149684755 384.9434169992152,648.5355074974034 400.54467028870636,636.1910914446935,C 416.14592357819754,623.8466753919836 428.0106411842006,606.9686909140731 434.91956641750926,588.312580279597,C 444.1548927545787,563.3745090063395 444.4834395876927,535.6073876052928 438.15677970315295,509.7777142413574,C 431.8301198186132,483.94804087742193 419.1565806979903,460.00990870839945 403.8055541249907,438.2948302020412,C 373.1035009789416,394.8646731892893 332.43139858468055,359.3854012863118 300.13807147011863,317.1250696571467,C 274.5717636253765,283.6679828658084 254.18878060452482,245.71837651206107 244.77631443708717,204.6767119013011,C 235.3638482696497,163.63504729054114 236.99344532712024,120.04799981168412 250,80M 250 , 80C 233.99427430019912,155.91939082479843 198.21323647313181,226.24539728878403 156.0381152943975,291.36986513263537,C 127.64822743781052,335.2079451934246 96.7400730341802,378.47307054137997 80.57605085227293,428.13681368291697,C 72.49403976130935,452.9686852536987 68.41680490827594,479.3443857297271 71.03345568186931,505.3269546502805,C 73.6501064554627,531.309523570834 83.1990754734696,556.7957560640074 99.68569748376594,577.047473118911,C 117.29803236014014,598.681985171752 142.8394656357377,613.8920596485755 170.39635862798943,618.2353418378488,C 197.95325162024116,622.578624027122 227.1046571734933,615.938937493409 250,600,C 262.90893493543354,617.5645363253474 281.09628882831265,631.1935065340494 301.5729353922576,638.6674936217414,C 322.04958195620253,646.1414807094334 344.7198023724164,647.427376272939 365.9407704403595,642.445002165042,C 387.16173850830245,637.462628057145 406.8318922475657,626.2600762981264 422.20240763333857,610.8036603401038,C 437.57292301911144,595.3472443820812 448.6080939197406,575.7471930987869 454.54097277844915,554.7721010622882,C 460.8596502937189,532.4330569678351 461.44569117867184,508.6556859351264 457.59365175035026,485.762010633014,C 453.7416123220287,462.8683353309015 445.55943168616835,440.84639168024717 435.0211562701052,420.16056735896143,C 413.94460543797493,378.78891871638797 384.04998880115,342.7000879251475 356.2637427752197,305.5011788259495,C 306.0338086699405,238.25572396682526 264.59247475049466,162.6562590496775 250,80M 250 , 80C 230.2757998018247,156.8304352840485 192.21477560004635,227.61643985543716 149.38713664600317,294.38284758429575,C 121.61263445830856,337.6820763724993 92.24404630693822,381.0816315496053 77.68726223973373,430.4207258162031,C 70.40887020612422,455.09027294951227 67.13444677061852,481.1606522819247 70.32192283645243,506.6832215626066,C 73.50939890228634,532.2057908432885 83.37093946272905,557.0796111992092 99.81728667609549,576.8553339342919,C 117.58648575037502,598.221704810357 143.05677403929087,613.2154448562983 170.50218488606953,617.5761401685693,C 197.94759573284819,621.9368354808403 226.9726522722836,615.5565901399302 250,600,C 262.14032435824555,618.4555464690366 280.0104718171118,633.0800487499522 300.495945923425,641.3468511326,C 320.98142002973816,649.6136535152478 343.97485240387897,651.4820458341857 365.5561350493105,646.765806827077,C 387.1374176947419,642.0495678199683 407.19156222980223,630.8012736013337 422.7398286405691,615.1090435936519,C 438.288095051336,599.4168135859702 449.29113417579947,579.4040161514215 454.9363562448805,558.0469063566733,C 461.4492273326138,533.4072905545609 460.88130230036,507.1699415347721 455.10849634228686,482.3465076858547,C 449.3356903842137,457.52307383693733 438.5229153146645,434.0781661894182 425.3248818707472,412.275871129164,C 398.9288149828992,368.6712810086501 363.6744422788232,331.20160999474876 333.4015963235943,290.19347147936696,C 287.98732762425266,228.6744909331606 255.24334027344142,156.2859630057681 250,80M 250 , 80C 256.8803575031627,128.40319549307748 251.06054233530082,178.41846845837273 234.2058075309141,224.31102306133855,C 217.35107272652823,270.2035776643033 189.5078468358805,311.2525841011285 158.89602563322296,349.3724615401864,C 130.70459563819657,384.4783067340318 99.93159896826293,418.1018310281163 78.87769993427806,457.9002031984134,C 68.35075041728123,477.7993892835627 60.43135480687816,499.2494264119962 57.349020964860834,521.5495046869968,C 54.2666871228435,543.8495829619974 56.1694804280964,567.0004052628562 64.25583368854107,588.0100498084475,C 71.39443281684511,606.5572768969187 83.37236093202594,623.3025715053559 99.01509508842088,635.56079724558,C 114.65782924481582,647.8190229858042 133.91205664488226,655.481388958799 153.72719900039638,657.0043346625744,C 173.5423413559105,658.5272803663496 193.80409147110248,653.8780708029651 210.91419555142062,643.7684927431934,C 228.02429963173876,633.6589146834216 241.88757614858596,618.1424311888167 250,600,C 273.05670025654945,615.1984446262676 302.14113991745853,620.9136181443399 329.25720448465376,615.6864594356542,C 356.373269051849,610.4593007269685 381.0836899174498,594.4304613986742 397.65556732576744,572.3402593864295,C 411.0839230199241,554.4403508445456 419.2621655226395,532.8346109336337 422.2398483551862,510.65667443346865,C 425.2175311877329,488.4787379333036 423.1221070348003,465.7902915715302 417.6831852746821,444.08440314133895,C 406.805341754445,400.6726262809493 383.3449168263823,361.61214614921397 359.78805300327673,323.5597609855125,C 312.626032906107,247.3769818468317 268.3395688139483,167.70252101654387 250,80M 250 , 80C 231.2015523538547,161.7485702974492 189.04495330996983,236.2555858865968 139.60895955041016,304.0220444083953,C 109.46987699368259,345.3364538627534 77.0903683517436,385.81334359115147 56.75234213555821,432.73465448027036,C 46.58332902745927,456.19530992483226 39.6619002203914,481.25899437092806 38.483128671524916,506.80154082026866,C 37.304357122658416,532.3440872696093 42.04867499352665,558.3427087545022 53.68522902720501,581.1111472539343,C 62.701301092209405,598.7522703668664 75.81908301250296,614.3405390180935 91.93902062126601,625.8577605431215,C 108.05895823002908,637.3749820681494 127.14260688403229,644.7573844203024 146.84355912242972,646.8481405197467,C 166.5445113608271,648.9388966191909 186.79445071097385,645.7182484753417 204.83872405647782,637.5388243146986,C 222.8829974019818,629.3594001540554 238.66339003101658,616.2474630197494 250,600,C 279.12685350503614,614.1798498742813 314.38308774494067,615.0229513164885 344.23635258455954,602.4442265807864,C 374.0896174241784,589.8655018450843 397.85371465456217,564.299267022803 409.74759851527665,534.1666059343955,C 417.80198783868383,513.7611448925273 420.67316297118185,491.4750367975214 419.2534388014326,469.5834765290972,C 417.83371463168334,447.69191626067305 412.22354681431233,426.2034636155178 404.18631051922546,405.79124030591345,C 388.1118379290488,364.9667936867016 362.92827710791903,328.4985539257796 339.35320836297217,291.49530752106193,C 297.93112841340485,226.47952972832852 263.22935208120003,155.94619353762295 250,80M 250 , 80C 236.4735701172089,157.2067610984085 199.84314775813414,228.74260196606863 153.79330512189736,292.17177709753804,C 121.96136769299592,336.01717196459776 86.01703245232306,377.5281979030866 62.48016820883138,426.3309325919268,C 50.71173608707245,450.7322999363521 42.3184507822467,477.0098912962844 40.33203342780032,504.02797540630206,C 38.345616073353945,531.0460595163197 43.00655896188523,558.7832956278294 55.51709436366748,582.8126365851421,C 64.57173277582308,600.2041379608294 77.68155962224998,615.5259387665301 93.72893239302742,626.7923767143079,C 109.77630516380486,638.0588146620858 128.72272560386287,645.2080112353258 148.23663074359493,647.1206803318909,C 167.75053588332696,649.033349428456 187.76483025885813,645.6908892824891 205.56302679478378,637.4644078387624,C 223.36122333070944,629.2379263950357 238.88642592391852,616.1536147078871 250,600,C 265.30834462356245,610.8764042009751 283.396014798111,617.8038068754914 302.05200039120393,619.9475850839477,C 320.70798598429684,622.091363292404 339.88314621636874,619.4453413813578 357.29525674051007,612.4125616640747,C 374.7073672646514,605.3797819467916 390.30862725986947,593.9909078314461 402.50192353763407,579.7092724440196,C 414.6952198153986,565.4276370565931 423.4642527602676,548.3114293092457 428.40226293056133,530.1935475617892,C 434.1880824829695,508.96499783273583 434.72821063804406,486.46730947277285 431.2161388852871,464.74652717803485,C 427.7040671325301,443.0257448832968 420.2347474085875,422.07242332677527 410.6219751668476,402.2804643201394,C 391.3964306833644,362.69654630686586 364.1359516039708,327.6831315161304 339.1789687731766,291.43872320324164,C 295.3620509871084,227.80449826435398 260.44175181959304,156.55198682452362 250,80M 250 , 80C 240.30253564340757,156.4163119426741 205.39721860588952,227.66656520893264 160.5935682885499,290.32537515700784,C 134.1599340603239,327.2933465524622 104.85882404579483,362.5108009796724 83.48774404245702,402.61871624708203,C 72.80220404078563,422.6726738807867 64.23675493551583,443.9882067234122 59.74884985818759,466.2637693407432,C 55.26094478085935,488.5393319580742 54.953424415445866,511.7927688545189 60.20865208710143,533.8998845420257,C 64.8941832963094,553.6104636018109 74.03170778563776,572.318301761972 87.16524015169861,587.744625276476,C 100.29877251775946,603.17094879098 117.40760459426053,615.2332596848031 136.4568950771245,622.1314958132621,C 155.50618555998844,629.0297319417209 176.4267773295096,630.7213510942257 196.31580628047217,626.8628984286773,C 216.20483523143474,623.004445763129 234.9916940258523,613.6092571939422 250,600,C 258.96654446576235,616.5507438100365 272.8004047563538,630.4241991843498 289.3199101453201,639.4481662734893,C 305.83941553428633,648.4721333626287 324.975614237995,652.6099751553478 343.75392300015153,651.3056897743556,C 362.53223176230796,650.0014043933635 380.86976624862575,643.2760635954745 396.1817910140116,632.3276418870198,C 411.49381577939744,621.3792201785651 423.7350167438967,606.2834304093277 431.72034790471145,589.2375943613636,C 443.44411333283495,564.2115335345773 445.8334585137286,535.3538035813162 440.8632309376672,508.16838038869645,C 435.8930033616058,480.98295719607665 423.92429277771623,455.45196597629734 408.91886212612815,432.24447909641196,C 378.9080008228935,385.82950533657925 337.69443523522204,347.7104287142342 305.3647401010495,302.8797205130535,C 282.2922158471258,270.8856791835511 263.59478824406574,235.39200572396777 253.55440688488275,197.24556685735823,C 243.51402552569988,159.0991279907487 242.13815476831525,118.65425520683124 250,80M 250 , 80C 264.42555721799516,121.08987862642594 266.20840455685914,166.40942895235878 255.73138790786007,208.67888540404107,C 245.25437125886134,250.94834185572319 222.65792479333777,289.47748686972125 194.85043261755757,322.991934582282,C 166.41460336992876,357.26367352438643 132.62152413462147,386.78537208898865 104.12290786942954,421.0049183467256,C 89.87359973683098,438.1146914755923 77.00817962274982,456.5254512851854 67.55386840114525,476.6848936907696,C 58.09955717954068,496.84433609635386 52.143619440105915,518.812190434468 51.72286194099937,541.0744922450618,C 51.26249556327464,565.4325019447033 57.63971262330491,590.0641610061535 70.98571021353497,610.4457439194392,C 84.33170780376506,630.8273268327249 104.64062467308945,646.6820933293753 127.8615044889023,654.0519857511913,C 151.08238430471678,661.421878173007 176.97701257440673,660.1540596232595 199.27073217775146,650.3298731441113,C 221.56445178109615,640.5056866649629 240.0103092153214,622.2200506695224 250,600,C 279.6650108305794,614.2439208722808 315.4566147566077,614.9717152743409 345.7607443723581,602.1435479217537,C 376.0648739881085,589.3153805691665 400.1915915881485,563.3701777130501 412.35729765991664,532.7940801011977,C 427.7447383418314,494.1207893352275 424.17063177556855,449.94541897526324 410.62096500703075,410.59058090076087,C 397.0712982384916,371.2357428262571 374.69811586891774,335.6154273196063 352.64128048394156,300.31822116658435,C 309.50291387519115,231.28457274343316 269.9077314849845,158.93190429353618 250,80M 250 , 80C 228.92136657952847,162.51666707583888 185.8864330375411,237.60657507508995 137.60751161833412,307.7667837319739,C 108.33965499652297,350.29960897253744 77.62735485990282,392.9778719929376 61.459040893083824,442.01086371942296,C 53.37488390966679,466.52735958267306 49.21906459249208,492.5567681734367 51.488071218727896,518.2718177062567,C 53.757077844963725,543.9868672390767 62.66228201288617,569.3053234221546 78.34135566354256,589.8133416833758,C 98.22500143618745,615.8208839457867 129.27594099294402,633.3101157494057 161.9426221733225,635.4640805593813,C 194.60930335370094,637.6180453693568 227.99385491863913,624.2380115191243 250,600,C 258.322967438725,616.4582660538978 271.6033573612651,630.36697121994 287.65379747299767,639.4515560044333,C 303.7042375847302,648.5361407889267 322.4516158955283,652.7566088732657 340.85293503816393,651.5165434323184,C 359.2542541807995,650.276477991371 377.2214315292585,643.59833982069 392.1131951449487,632.7180050417705,C 407.0049587606389,621.8376702628511 418.7745223826622,606.8359343856376 426.24614250859014,589.9741076405668,C 436.9236486267972,565.8772912606946 438.6959444809112,538.3326280454268 433.50203362438623,512.4929495148393,C 428.3081227678613,486.65327098425195 416.4822161597475,462.49907214988366 401.75710029751644,440.639596872707,C 372.3068685730057,396.92064631830334 332.12908103743706,361.5244371111212 300.00118143587787,319.7337580857943,C 274.02679623574454,285.94732298604026 253.20097726839032,247.61730859558733 243.7356038831683,206.0649489760287,C 234.27023049794653,164.51258935647007 236.25138438729746,120.3381637163734 250,80M 250 , 80C 231.41998812833765,165.19502745299428 186.45324684561035,242.0861556516625 135.81123667068454,313.07063528848363,C 111.99407386048907,346.4549520379056 87.55680868428516,379.8347444929866 70.78310225200822,417.2568318435993,C 54.00939581972993,454.6789191942119 45.72899644925796,497.2562392064833 55.69563485705255,537.0360829467672,C 60.721964729945505,557.0976732994789 70.3075431022283,576.0769139336659 83.9612155173715,591.6110257219564,C 97.6148879325147,607.1451375102469 115.31384012175367,619.146176366766 134.90551314278864,625.7717139078262,C 154.49718616382359,632.3972514488863 175.90679124278358,633.6029687192542 196.09284329046875,629.102446282993,C 216.27889533815392,624.6019238467318 235.16612947621658,614.4113734513674 250,600,C 261.62567298030564,617.7871329060532 278.50908930914414,632.0885501743419 297.96002282688386,640.6442239964952,C 317.41095634462357,649.1998978186484 339.34502487437874,651.9740686361514 360.33187538432196,648.643832167685,C 381.3187258942651,645.3135956992187 401.2633719243557,635.9141111946474 417.39742801884216,622.0854958191816,C 433.53148411332864,608.2568804437158 445.81240313210276,590.0947682046103 453.2205295411022,570.1784926398645,C 462.28039327104784,545.8216265899761 464.04911700401624,519.0509506939377 460.0953091998115,493.3662186839516,C 456.1415013956067,467.6814866739655 446.6513131719276,443.0703815508907 434.35167760905466,420.17808984390103,C 409.75240648329566,374.39350642991235 374.76101996051926,335.20278160591477 343.87450383003704,293.4011627421369,C 297.1800992950293,230.20524601271146 261.0210005861681,157.79864299736278 250,80M 250 , 80C 263.6176520467777,121.86539072115718 264.67902802673,167.58686416089506 253.88948158688,210.26867615528658,C 243.0999351470308,252.95048814967734 220.55740815706915,291.82193811151564 194.15897616350588,327.0536592699177,C 168.39852866642278,361.43391728502104 138.80959232027345,393.31762989013896 118.38998984712347,431.115019102538,C 108.18018861054172,450.01371370874045 100.43478433750114,470.4275302714643 97.4719232552337,491.7024486806192,C 94.50906217296628,512.9773670897741 96.49311478300966,535.1061867812922 104.58132344832451,555.0054726904734,C 115.60306995755488,582.1220932032585 138.52658183488063,604.4633177063324 166.4184419844115,613.342176954408,C 194.31030213394232,622.2210362024836 226.302505860646,617.1819316627499 250,600,C 272.9112927436162,615.8858337228914 302.0461031885336,622.4842029888349 329.5836172520083,618.1284748684208,C 357.121131315483,613.7727467480067 382.64261025333866,598.5787230666779 400.26302782776384,576.9729846447233,C 416.4434596518736,557.1329226218237 425.9840982331945,532.2586269604515 428.857221832068,506.8189022002902,C 431.7303454309415,481.37917744012896 428.15238477145215,455.47221403138195 420.62665750915363,431.00186739998617,C 405.5752029845564,382.0611741371693 375.9341730367167,339.1643788760466 348.17993844457743,296.13601378328894,C 305.0385229543328,229.2523614826137 267.52197952903964,157.6375225581256 250,80M 250 , 80C 266.61212438607635,123.16719686046073 268.6652409075162,171.60172350396746 256.8171754670307,216.31182199106786,C 244.96911002654684,261.02192047816663 219.46010925789034,300.97947488901184 189.97682247687095,336.6180124852184,C 165.71101629465406,365.94981162790737 138.72946183327352,393.2228950250992 117.8158646684166,425.03178127165074,C 107.35906608598668,440.93622439492617 98.50906464538551,458.0081459186489 92.87801292681375,476.1902031234259,C 87.246961208242,494.37226032820286 84.9112621031971,513.6868758559506 87.18256609585904,532.5849478694637,C 89.35565524975513,550.6658368454732 95.80173148628995,568.291455291337 106.31960423059121,583.1580357847877,C 116.83747697489247,598.0246162782383 131.41459950697575,610.0386893002484 148.1436728821735,617.2344496242735,C 164.8727462573713,624.4302099482983 183.6798187781096,626.7543205852413 201.63864941409787,623.734177406276,C 219.59748005008615,620.7140342273107 236.6274712640563,612.3618905447315 250,600,C 279.67381295608766,614.262498180253 315.48545630426577,614.9971223459856 345.8039688512098,602.1619430860222,C 376.12248139815375,589.3267638260588 400.2564012786329,563.3618734228098 412.4168448172108,532.7664874530324,C 427.7784517742099,494.11705065622556 424.2096798629247,449.97938280381163 410.6776502561566,410.6520118297275,C 397.1456206493871,371.32464085564186 374.79900139076267,335.72559192747246 352.75944436346344,300.4549829300046,C 309.591445001342,231.3718509587732 269.94499451559705,158.98197570114016 250,80M 250 , 80C 256.35609466042644,119.14906239512096 253.76249135339447,159.66396453277605 242.94866445588931,197.8229762283136,C 232.13483755838425,235.98198792385105 213.0888260718762,271.4213889560469 190.3047734514048,303.885769004601,C 159.91852928531623,347.1823060732398 122.41503278634876,385.7577218652692 97.71815321997106,432.53354998558154,C 85.36971343674784,455.92146404576397 76.52859550800046,481.4984809093911 74.87016565393317,507.8940884906821,C 73.21173579986586,534.2896960719731 79.0934192719487,561.4421719246847 93.46327195631595,583.645455983489,C 109.92528633108228,609.0814009003176 137.76252016399116,627.1553137056715 167.87431214667922,630.5116799965093,C 197.98610412936725,633.8680462873472 229.43264261046636,622.2478992513483 250,600,C 271.77029210686624,618.6651257969227 301.9014291382448,627.1227036476251 330.22895874336206,622.6635999367395,C 358.55648834847926,618.2044962258539 384.40240849138183,601.0420604720639 400.4958411501125,577.3074030131468,C 412.55113100901855,559.5282143567188 419.300856892296,538.3826774480673 420.9859293557701,516.9679606940231,C 422.6710018192442,495.5532439399788 419.42412004977217,473.9207808613128 413.0526129129912,453.4065550736051,C 400.3095986394277,412.3781034981822 375.84216545147456,376.1645886403695 351.92711660705965,340.4744122577526,C 325.59441286748677,301.17619266344025 299.7166004959151,261.22737693851946 281.36048277808374,217.62904793558602,C 263.00436506025324,174.03071893265366 252.01103454292596,127.26221629997838 250,80M 250 , 80C 239.58831586341665,156.86754637647041 204.0690707449261,228.50735915137173 157.9118079485929,290.849399089515,C 128.11685032495288,331.0917862155517 94.42501086221432,368.7622853898857 69.89123475995224,412.41183351538615,C 57.62434670881575,434.23660757813633 47.82275943282701,457.62694767655296 42.947887635854705,482.18367649600873,C 38.073015838882405,506.74040531546456 38.27456667604495,532.4870367495378 45.19947639143993,556.5461915722417,C 51.23276353327814,577.507589684409 62.40005019072961,597.0578107389049 77.89128391645684,612.4136709299698,C 93.38251764218407,627.7695311210349 113.16058114792109,638.8211231439627 134.43862360437015,643.619630596723,C 155.7166660608192,648.4181380494831 178.39238685706104,646.9165734165117 198.80669852496456,639.2330427386045,C 219.22101019286805,631.5495120606973 237.27814775275502,617.7182177419713 250,600,C 271.3619785439947,626.4215264708267 305.97754722864255,641.4701922497376 339.88378204272783,639.2796605574762,C 373.7900168568131,637.0891288652148 405.8283918965665,617.9321583721127 425.17258954293925,589.9995035433866,C 439.4954339010472,569.3175877082465 447.1112677678772,544.3313998740649 448.39120677328657,519.206765165062,C 449.6711457786959,494.0821304560592 444.81630387098903,468.88300913430527 436.29254636055407,445.213808239013,C 419.24503133967914,397.8754064484116 388.60241028784594,356.8858903059817 359.69126985784806,315.7071577913411,C 309.46836235623886,244.17363668643318 266.25524421568383,165.8787058301997 250,80M 250 , 80C 245.88659768330828,126.56966597096925 233.11263018221516,172.28239360991316 213.21122497012638,214.5859151873287,C 193.30981975803795,256.8894367647438 166.18834492686912,295.36005236672446 137.69315648549434,332.4232160600346,C 112.40947747843992,365.30922892973405 85.93942025469164,397.69899301103595 66.91548374956457,434.5614957264878,C 47.89154724443587,471.4239984419393 37.0962585051352,514.0605301965047 45.47408976767309,554.6876911843744,C 50.038001057472215,576.8197624680373 60.257301000161824,597.8750055499496 75.49206244748986,614.5651196660754,C 90.72682389481788,631.2552337822011 110.94036755112167,643.427763595573 132.92698655077015,648.6475768614465,C 154.91360555041882,653.8673901273197 178.5351091007078,652.0651284629987 199.41298133371538,643.4180297247797,C 220.29085356672294,634.7709309865606 238.29345929521963,619.3291171628096 250,600,C 259.53043954733215,622.7608077526263 278.02272490179666,641.618687013208 300.57873604163797,651.6241859501288,C 323.13474718147927,661.6296848870495 349.47192927381116,662.6747572447174 372.8359485397565,654.7371095290587,C 396.1999678057023,646.7994618134022 416.3249551903129,630.0605934111605 429.01600546388164,608.89881441054,C 441.7070557374504,587.7370354099195 446.97465434057074,562.4641923204648 445.233242391079,537.850148931791,C 442.2449955515142,495.612677558929 419.34648783433687,457.15748460855644 391.5944991661863,425.1768540314346,C 363.8425104980322,393.1962234543142 331.2951622089609,365.6577708076376 303.374865961507,333.823973286732,C 273.16565548549386,299.38043153356415 248.5002757073328,259.12070607054824 238.02589237260386,214.51979509505998,C 227.55150903787575,169.91888411957166 231.52937766250423,121.92600716204521 250,80M 250 , 80C 225.22479016020677,157.2949722526725 185.2094086659843,228.60633340614416 144.02555433767662,298.55069630131914,C 120.84405651672677,337.920860228102 97.88438443009726,378.2556338105161 86.93122526299992,422.6112417209561,C 81.45464567944938,444.7890456761782 79.16234973661165,467.8838534511441 81.7190355757725,490.5843219425885,C 84.27572141493334,513.2847904340329 91.79343437290323,535.5424340672055 104.49682973000522,554.5285252555567,C 119.82535013609898,577.4380449572999 142.82582063379056,595.2682694422275 169.09611887228772,603.615787712049,C 195.36641711078488,611.9633059818707 224.59413144849853,610.6935248607941 250,600,C 260.0624970848218,621.1704267947779 277.5203405992608,638.7320237364805 298.6203671654169,648.941318382175,C 319.720393731573,659.1506130278696 344.29261809754996,661.9327836612858 367.18142311153053,656.8787334748434,C 390.0702281255108,651.8246832884016 411.09516238945696,639.022191167 426.47707748659343,621.334978096548,C 441.8589925837299,603.647765026096 451.55678439301187,581.2720311193559 454.93830906236553,558.0770724178269,C 458.6370720801261,532.7060744708837 454.9064652513294,506.5563212634594 446.2222505066804,482.43262339281415,C 437.53803576203137,458.30892552216886 424.06968912609614,436.13571135212595 408.68072435192937,415.62844074229565,C 377.90279480357435,374.6138995226333 339.87572682682264,339.44279194777926 309.3402230224752,298.24744577666945,C 286.24679808999645,267.09218334948866 267.40089872518854,232.4783649500888 256.7458044303365,195.18995364595378,C 246.09071013548447,157.90154234181878 243.6324642447082,118.25455711968982 250,80M 250 , 80C 246.17832281477732,127.40082042589599 233.83877203290905,174.00331236783865 214.67617515529633,217.5261555017861,C 195.51357827768413,261.04899863573155 169.3124631593267,301.0214220802569 143.60153969274467,341.02631438171744,C 124.94263240595845,370.0586273377663 106.606363668095,399.69179235491004 95.1165421243199,432.2342879200484,C 83.62672058054429,464.77678348518685 79.65104887278854,500.8604716493309 89.73229776409329,533.8665080291574,C 99.4895736251844,565.8118558240059 123.00035522281941,593.7318463332558 153.74512750891432,606.7882108747134,C 184.4898997950092,619.844575416171 221.44795259021993,617.3346550779912 250,600,C 260.4344485982601,619.0963168290012 276.8880383754788,634.8426790250438 296.416519854515,644.4440041995324,C 315.9450013335512,654.045329374021 338.4412594568263,657.4518508005071 359.9569470843559,654.1926760740007,C 381.4726347118853,650.9335013474944 401.88678453060317,641.0538563527894 418.03709856832717,626.4691249371542,C 434.18741260605117,611.8843935215191 446.02549131473086,592.7171610146476 452.5184137590225,571.9472550900716,C 460.5605105034702,546.221767953633 460.41771822358595,518.3067669775162 454.2512740078381,492.0684176737168,C 448.0848297920902,465.83006836991734 436.12515563864866,441.2227921710686 421.5926315087744,418.52297387072207,C 392.5275832489975,373.1233372700147 353.92841296840527,334.6359521441977 322.2528786211382,291.0175551351998,C 277.75250655951317,229.73887631787542 248.61353495409566,155.719464511421 250,80M 250 , 80C 249.86653296298377,128.13654610233974 239.6689846655187,176.1150135821424 221.13102338763537,220.5389809395537,C 202.59306210975268,264.96294829696376 175.60791728228455,305.2889414489021 147.53212974607976,344.390028880512,C 121.51864946467258,380.6189455430311 94.31582441115593,416.90951981831245 79.012876268211,458.80290040552757,C 71.36140219673436,479.74959069913825 66.89848110725673,502.02965924551256 67.68206496255458,524.3163118892955,C 68.46564881785244,546.6029645330785 74.65170824022537,568.8486986742596 86.65337687231701,587.6441459891918,C 95.24917771307152,601.1057676007067 106.77606749127256,612.7224856543146 120.3309783746622,621.170410810759,C 133.88588925805183,629.6183359672034 149.44268685789413,634.8627985227475 165.35908162859099,636.193747811359,C 197.19187116998464,638.8556463885819 229.9970584735784,624.9057126842947 250,600,C 269.96402199818476,624.46940530316 302.47352158268984,638.0426521644428 333.92802363634297,635.2269336431681,C 365.3825256899961,632.4112151218933 394.6408791792986,613.5035923484122 411.42646847521513,586.7536771668059,C 425.8500775029516,563.7678700376835 431.2968609781321,535.7392345517254 428.92303520968676,508.70679518744896,C 426.54920944124143,481.67435582317245 416.7467281504815,455.68932221568343 403.45707853297466,432.02979897859933,C 376.87777929792236,384.7107525043366 337.5639486200455,345.93483550047995 306.3610270458896,301.52842839185473,C 283.83703136152826,269.4734261160227 265.3068429124512,234.2709396151277 255.08965502501127,196.44948242260966,C 244.8724671375714,158.62802523009162 242.9628331705087,118.54000305535314 250,80M 250 , 80C 261.5457170752163,120.70020039989812 261.8770644212734,164.42820460239864 251.5724015271246,205.46018990668,C 241.26773863297603,246.49217521096122 220.38395773728524,284.2720783695747 194.93786017057633,318.0700962700126,C 163.73007167422475,359.5209077929828 125.34263553912385,395.6973839377321 98.73561316861637,440.2413195442895,C 85.4321019833293,462.5132873475856 75.33826447052567,487.0359931167261 72.0955630725389,512.775240334382,C 68.8528616745521,538.514487552038 72.8032931542847,565.445203573806 85.31773587335074,588.1699188221722,C 93.28428215520202,602.6362038842998 104.63233354314018,615.270315897382 118.35686720083545,624.4559807638141,C 132.08140085853074,633.6416456302461 148.1499553909437,639.3316570790212 164.61157894366025,640.6561242051746,C 181.07320249637675,641.980591331328 197.87472302113363,638.9264730976216 212.7899944030661,631.8360610670751,C 227.70526578499857,624.7456490365286 240.68959007094327,613.6402173777595 250,600,C 259.45398825631105,615.5553511781663 273.2625847855569,628.4307484325684 289.4357689272205,636.7838890961984,C 305.60895306888415,645.1370297598286 324.0906081687651,648.9392815046091 342.2530575414639,647.7259072792762,C 360.4155069141626,646.5125330539432 378.19125720009754,640.2997864276143 393.27488537481673,630.1100364153046,C 408.3585135495359,619.920286402995 420.71029312589275,605.8138516132544 429.18893761364114,589.7061071443065,C 442.2073337838727,564.9737340381303 445.87981945577536,535.8864566890817 441.91300088672085,508.21999199356236,C 437.94618231766634,480.55352729804304 426.7162448901271,454.313218571629 412.22938012036946,430.411342757146,C 383.2556505807998,382.6075911281068 342.3336695744062,343.23350395219387 310.02254318596846,297.6191774225453,C 287.7242894748221,266.140243089093 269.326278694499,231.6153592797354 258.59216976266606,194.56250067508793,C 247.85806083083318,157.5096420704405 244.77562518169597,118.220954110204 250,80M 250 , 80C 249.43769728179885,156.07020936602828 220.05698204244894,229.43312165076705 178.93394904586694,293.43225519568546,C 154.1632137475589,331.9825634011627 125.87680708699483,368.6761434710858 107.31352780527811,410.57029881840265,C 98.03188816441416,431.51737649206376 91.36489508049367,453.79131180643907 89.5650755605941,476.63183603827395,C 87.76525604069454,499.4723602701089 90.98390726518261,522.865767808068 100.25981441981261,543.81538460523,C 112.35938888087887,571.1422480744727 135.15945603542468,593.8163096012743 163.06507331834965,604.5136781218238,C 190.9706906012746,615.2110466423733 223.38172822299188,613.5876700287745 250,600,C 263.05128588650865,610.9234012614479 279.16263293058006,618.1477673501159 295.9986254775702,620.6389745610222,C 312.83461802456037,623.1301817719285 330.3334941576128,620.8795055573199 346.02819260347565,614.2967098667785,C 361.72289104933844,607.7139141762372 375.55546428357405,596.838806415701 385.8658335257131,583.2980145444428,C 396.1762027678521,569.7572226731846 402.95043814322946,553.6229191025187 405.90466705890873,536.8619737257286,C 409.0561926917857,518.9816569006327 407.9018581040487,500.46413574199204 403.5236238368866,482.8440078116297,C 399.14538956972444,465.22387988126735 391.6135059279833,448.48899841563525 382.3895608541596,432.8506902956508,C 363.94167070651025,401.57407405568114 339.1021705959069,374.6620050387825 316.08458110073167,346.5774550485536,C 285.5495307446137,309.3205933619565 258.1579870399338,268.3336044091671 244.99587505791467,221.99547916485372,C 231.83376307589958,175.65735392054205 233.1720410957373,125.13626969634359 250,80M 250 , 80C 267.41452908028214,124.27330531748852 269.46105482472325,174.23178332602092 256.7618980573949,220.08069611817302,C 244.06274129006795,265.9296089103239 216.92758455843767,306.5905983968718 185.27685848748536,342.1099301192585,C 159.68457483451405,370.83030798880503 131.15658266420488,396.97905111228533 107.51488414237842,427.3253058819723,C 83.87318562055047,457.6715606516583 65.34699121736348,493.676127044268 63.92678041373355,532.1183966028794,C 63.08617931154235,554.8717893239797 68.39659044612958,577.9825190951256 80.13076157370041,597.4948925664003,C 91.86493270127123,617.007266037675 110.02721644103207,632.6881269692443 131.26843385932187,640.887771664142,C 152.50965127761287,649.0874163590395 176.63904817565975,649.6659140318499 198.17853030265474,642.2852500891863,C 219.71801242964972,634.9045861465228 238.45729040226635,619.6262412518561 250,600,C 263.0146430891268,614.9739674154876 280.89760123296446,625.6424918529842 300.2522168395457,630.0013322514067,C 319.606832446127,634.3601726498291 340.31036992208755,632.3855743502587 358.55298842203695,624.5876576308558,C 376.79560692198623,616.7897409114532 392.46719227971874,603.2515130474071 403.1910243792014,586.5601961431142,C 413.91485647868404,569.8688792388213 419.68393069281734,550.1640755640036 420.48923350195173,530.3410555548569,C 421.959012676984,494.1615443632609 407.04563274248557,458.9785746699633 386.425103138803,429.2143169142282,C 365.80457353511906,399.4500591584932 339.8690870923501,373.8358956059312 316.0531879036989,346.5609945662897,C 284.2019459460268,310.0837041014721 256.12042560908174,269.06440801289216 242.9498376586097,222.4636575152905,C 229.7792497081413,175.86290701768974 231.87183468136905,124.90505490566787 250,80M 250 , 80C 266.121944766048,121.73796825191508 268.484906419888,168.50654557666124 257.5233716238811,211.88649315331588,C 246.56183682787508,255.26644072996987 222.48411187548706,294.36829564574646 193.72693621813477,328.64656784621604,C 167.91629890498305,359.41259515118134 138.35905902665365,387.02070146699157 114.30170570813847,419.1762793027117,C 102.27302904887917,435.25406822057096 91.69440943557899,452.5388137221415 84.30359887285626,471.20858281247024,C 76.91278831013354,489.87835190279895 72.78682276720264,509.97046042031207 73.52057222136706,530.0365006474909,C 74.27315665488703,550.617626032477 80.24786029435019,571.0959843045216 91.42701632932658,588.3926769302159,C 102.60617236430298,605.6893695559102 118.98192604651058,619.6535758990541 138.0022230778567,627.551512736068,C 157.02252010920313,635.4494495730818 178.56716099401564,637.1923514064243 198.57192473785733,632.2976059589898,C 218.576688481699,627.4028605115552 236.90857851234375,615.8985467535443 250,600,C 271.84243355247503,624.0067268769419 304.9621042538381,637.2291036215302 337.34446193426356,635.0387269654817,C 369.726819614689,632.8483503094332 400.4827332157844,615.4423977567956 420.11952590117954,589.6003542642777,C 436.4231932598143,568.1447078295756 445.2116365168801,541.4276555111173 446.7402637121544,514.5237964539147,C 448.2688909074287,487.6199373967121 442.80480290300113,460.620131759913 433.3089034733403,435.4014437033602,C 414.3171046140124,384.96406759021863 380.5321320374556,341.75626455362897 349.8131045787163,297.47355139057976,C 303.99962388066905,231.43157699940093 265.8268854475017,158.80309062585764 250,80M 250 , 80C 260.78911471803355,120.3676352509261 260.7850636359609,163.487652007457 250.53417043187486,203.9953075884595,C 240.28327722778897,244.5029631694619 219.83265280675138,281.90877278213725 194.61804394738303,315.2280535699897,C 162.53420489383004,357.62452492276293 122.53262256092013,393.82107741308835 92.96622445034787,438.01000831606405,C 78.18302539503136,460.10447376755764 66.21632652277951,484.4076485600496 60.70139047680617,510.41329906729857,C 55.18645443083282,536.4189495745476 56.43310579235631,564.1572383187274 66.48691409230263,588.766775424579,C 73.84015643656775,606.7659141509508 85.86098574609895,622.9099307032053 101.34048539792344,634.6753146065821,C 116.81998504974794,646.4406985099589 135.7068723519592,653.7316697687033 155.09925866231126,655.1368462895516,C 174.4916449726633,656.5420228103998 194.28691157031932,652.0337906337512 211.10689019972213,642.2804585481969,C 227.92686882912494,632.5271264626425 241.68621602239836,617.5761248242736 250,600,C 275.3022795640707,611.1014478224256 304.6541067730054,612.6149309122997 330.99815582181935,604.2819497767089,C 357.34220487063334,595.9489686411181 380.3433222653455,577.9159033693264 395.4567240726828,554.785132074309,C 407.7894760027852,535.9100920290631 414.96460813485663,513.8610272330415 417.24647669944227,491.42986625700115,C 419.5283452640279,468.9987052809608 417.028605509696,446.2314328457322 411.4156222579641,424.39434682458784,C 400.1896557544993,380.7201747822939 377.22870379481407,341.10042603350064 354.2307769921334,302.31188403595513,C 312.34892603990755,231.67351960712406 272.4375282283599,158.99636254516003 250,80M 250 , 80C 223.37096770248922,161.75125389222546 179.77526502596373,236.62679543211465 136.4213944144853,310.875127245403,C 113.73123697293322,349.734548903825 91.82626212349744,389.95388261463313 82.38112996098167,433.95032991191005,C 77.65856387972217,455.9485535605506 76.22975011099383,478.7818885987901 79.65480653182617,501.0190975648808,C 83.07986295265852,523.2563065309714 91.4670692378861,544.8413981812852 104.85731152529644,562.9224901165616,C 120.99580279633523,584.7145935083449 144.50331894376092,601.097232491527 170.74553153749247,607.9304563960227,C 196.98774413122402,614.7636803005183 225.64834076908664,611.9307737990897 250,600,C 259.0787343441595,613.3413104127574 271.81892298058244,624.1625883949337 286.4498392926061,630.9706915589529,C 301.08075560462976,637.7787947229722 317.5551924832777,640.5518839256595 333.6152581355363,638.9744581535502,C 349.6753237877948,637.3970323814411 365.2655264717856,631.4841129008913 378.4378400155792,622.1618740750855,C 391.61015355937275,612.8396352492797 402.3324218838835,600.1587503528963 409.6541191506938,585.7779739498452,C 420.05620857500514,565.3469022072775 423.48124420507304,541.7077269287729 420.9942994757085,518.9163412127966,C 418.5073547463439,496.1249554968204 410.33454826128184,474.2057242311295 399.2180681586437,454.15438943593523,C 376.98510795335477,414.0517198455245 343.89229762879313,381.28814713738655 314.78683049930993,345.8565170458682,C 284.39138985978997,308.8545337271654 258.02451650032333,267.53674021248446 245.36770370058395,221.35411717155603,C 232.71089090084647,175.1714941306282 233.97958513243188,125.12622174145582 250,80M 250 , 80C 224.52346418602357,162.47859581438146 180.7180183334656,237.78370589635102 136.164857513495,311.72143987260137,C 112.15795618845684,351.56184291240385 88.63193910300869,392.70551805253075 78.46723290956703,438.0956907070276,C 73.38487981284386,460.79077703427924 71.85149058581942,484.4294068292071 75.60211142252301,507.3821866116313,C 79.35273225922661,530.3349663940555 88.51747085019682,552.5315221479174 103.02273814674379,570.7110292110063,C 120.01488306438145,592.0073495222301 144.41156306861117,607.4370934663394 171.10585838218233,612.8851064446733,C 197.80015369575352,618.3331194230071 226.44489574767908,613.6902633781287 250,600,C 259.86661393883725,622.0042555494479 277.8290445871762,640.2623820145496 299.6567761269825,650.5135999290029,C 321.4845076667888,660.7648178434563 346.9629306613744,662.9198176478687 370.26179419610753,656.6988618617096,C 393.5606577308406,650.4779060755517 414.4626835845071,636.0053855610618 428.98754009334374,616.7552978651278,C 443.5123966021804,597.5052101691938 451.63652937879635,573.7232938831268 453.1604347150634,549.6564069753952,C 455.65612013364,510.24229292462775 440.75484074781826,471.4254941276164 419.4949804196179,438.1430787864665,C 398.2351200914162,404.86066344531673 371.06874742908747,375.84497604588364 345.7613557359299,345.5260585552386,C 314.6737784550635,308.28232747498146 286.318936637795,268.05765446997003 268.7047274768136,222.85508151659104,C 251.0905183158334,177.65250856321256 244.27323344111852,128.1740294220064 250,80M 250 , 80C 248.14404325815283,127.89522846239743 236.99136261690137,175.30021691861305 218.33981421558212,219.45355458549955,C 199.68826581426353,263.6068922523835 173.33328939627322,303.98199099306396 147.35973014817318,344.26563165373466,C 128.6352253770391,373.30636552252747 110.17281417325677,402.93227042026945 98.76619697444772,435.54914314961167,C 87.35957977563803,468.166015878954 83.73547204600145,504.4401016211165 94.56110531371444,537.2543815448827,C 104.62439540216427,567.7578735577982 127.62876791989933,594.1458287592876 157.2965289565424,606.4566690010802,C 186.96428999318545,618.7675092428727 222.37498176039742,616.3887522297434 250,600,C 264.5381821136142,615.1419337170094 283.4441368331718,626.037972880651 303.83036985826203,631.0418112978698,C 324.21660288335227,636.0456497150886 346.00020466180007,635.1379256176793 365.9384490902,628.5726148883768,C 385.87669351859984,622.0073041590744 403.8871199478541,609.8325587390929 417.6688141183631,593.9989930746738,C 431.4505082888721,578.1654274102548 440.9791559004212,558.7693033776583 445.74143230076345,538.3252915564512,C 450.9622475274187,515.9128149932668 450.503882885,492.35878763052483 445.7953795372251,469.83311308901204,C 441.08687618945015,447.3074385474992 432.2338142291961,425.79033499026394 421.236347830835,405.5756930161135,C 399.24141503410794,365.146409067811 369.228808723798,329.7607759409693 342.1278917886773,292.5607171966515,C 296.14173978159295,229.4378509045518 260.2043423436289,157.42799120914208 250,80M 250 , 80C 259.53192610944296,120.09628465503572 258.7307653271228,162.51568303973227 248.32388936678575,202.39382982766227,C 237.91701340644897,242.27197661559205 217.91831706644942,279.10064493425756 194.10849428071577,312.7408291995892,C 166.5793415099713,351.63594321241555 133.66384956333033,387.0660710649704 111.76851937430413,429.3895711832175,C 100.82085427977508,450.5513212423519 92.86352461632616,473.5115174395345 90.83253119878131,497.2506434201837,C 88.80153778123648,520.9897694008329 92.94465896866839,545.4738886351172 104.30575809866022,566.4165833792456,C 117.83331673411648,591.3528618056448 141.8842825261154,610.6158460676116 169.484565623977,617.1761202472862,C 197.08484872183857,623.7363944269608 227.51619710348342,617.3000413787136 250,600,C 265.2369217466402,611.8417794496548 283.60703695895614,619.61099942617 302.7150714874494,622.3081351857145,C 321.82310601594264,625.005270945259 341.6119705005648,622.6220425563804 359.56967260053256,615.5571674593729,C 377.5273747005003,608.4922923623652 393.59852524320905,596.7812213163492 406.0334243764168,582.0243649982016,C 418.46832350962455,567.2675086800541 427.2494411478682,549.5321484629877 431.9650575932317,530.8197331622384,C 437.40205100588236,509.244764140958 437.4579496243611,486.4814825287315 433.4234076800768,464.6008368129801,C 429.38886573579254,442.7201910972288 421.3625360532793,421.70830852966344 411.2275704860445,401.90117197261964,C 390.9576393515709,362.2868988585301 362.7919957766708,327.3695051476726 337.29394610714854,290.9002001693137,C 293.2101043430644,227.84804164151862 258.8851333685012,156.4199856367361 250,80M 250 , 80C 264.56193932390835,124.67138432381148 265.01119240329876,173.6415139072035 252.38355684208847,218.8977341914044,C 239.75592128087982,264.1539544756031 214.20480252971865,304.72660709226807 185.4880441879535,341.9143798760646,C 160.5839132582571,374.16485715380395 133.1456384958374,405.0037753743396 114.86439039061638,441.4194998586994,C 105.72376633800172,459.62736210088127 99.03723178116195,479.2243244390394 96.82953487669586,499.47780142151134,C 94.62183797222978,519.7312784039833 97.03087075867782,540.6277956149006 104.99360747218051,559.3807175081135,C 116.35547040754719,586.138870622348 139.62818900303563,607.8969383841925 167.5556132400074,615.9684724970534,C 195.48303747697912,624.0400066099144 227.15271656312535,617.9747691779891 250,600,C 262.3343345957928,618.6266933442286 281.1636211764546,632.8549540576253 302.4426044060186,639.6589519689151,C 323.72158763558247,646.4629498802049 347.2761806859948,645.7946553810488 368.20632053687604,637.9832047677854,C 389.1364603877572,630.1717541545229 407.2813129362782,615.3311004132499 419.5560395581387,596.6650724153208,C 431.83076617999916,577.9990444173916 438.2292071275411,555.704114490446 438.8175898405575,533.3715525988066,C 439.76134635803385,497.5504783711952 426.0193038327831,462.65652020575 406.7593176493933,432.4390919994986,C 387.49933146600284,402.22166379324733 363.07193516758184,375.7135195470915 340.0238923951705,348.275812654105,C 308.55490978991537,310.81333788045305 279.6468565157055,270.3278235367954 262.71292763130344,224.4260160025123,C 245.77899874690362,178.5242084682303 240.9425095167604,128.08009721831064 250,80M 250 , 80C 238.1748154442812,155.15708941080882 205.09161899531978,225.35918040509384 164.96699845011443,290.0000181517104,C 140.82549960118797,328.8920173494463 114.69226336849678,367.13146246386094 98.93428749178888,410.10919814803236,C 91.05529955343148,431.5980659901202 85.95426194743912,454.25230726968994 85.62661540596864,477.13772926298867,C 85.29896886449814,500.0231512562874 89.87454695711814,523.1147139429349 100.11117050318072,543.5857039151786,C 113.30865871232167,569.9777703589983 136.20962132619877,591.5967929212916 163.76032344876944,602.1643696898223,C 191.31102557134008,612.7319464583529 223.03673539917915,611.98737787306 250,600,C 273.659959094019,614.4507618096183 303.25462193367906,618.7675207245724 330.0915496355189,611.810690071524,C 356.92847733735874,604.8538594184757 380.511120297896,586.8274828736361 395.18245818011974,563.3036646046008,C 405.9078626441999,546.1067008716192 412.0175462584385,526.196953922008 413.7865042695089,506.0068412401366,C 415.5554622805793,485.8167285582652 413.07735878403145,465.3829769123959 407.8076022704534,445.81260315921486,C 397.26808924329634,406.67185565284944 376.1531124316331,371.32117144579786 354.8167431876484,336.85613412257703,C 330.2375441416606,297.1528930130957 305.2852477376674,257.4567942466569 286.5776259576244,214.67234300938196,C 267.870004177582,171.88789177210816 255.19115391250003,126.40620972883382 250,80M 250 , 80C 243.06572480319628,124.85383178245495 228.88198875868,168.51915907569162 208.7580609796605,209.20057902163967,C 188.6341332006413,249.8819989675874 162.45767391255194,287.24111226283156 135.20938227207165,323.5382333711105,C 109.78481374458102,357.40599488600435 83.29524573452343,390.9263595457676 64.6764496106074,428.9628471035698,C 46.057653486689546,466.9993346613718 36.188219125761535,510.880273532552 46.06973554437026,552.0602393910567,C 51.22577957877006,573.5473986798522 61.69007969496572,593.8385526232217 76.79689210328097,609.9651462885532,C 91.90370451159622,626.0917399538847 111.61864414870192,637.926776636067 133.05600729870588,643.2860924097072,C 154.49337044870992,648.6454081833472 177.53852797016762,647.4710897903199 198.26970989062463,639.822501648208,C 219.00089181108166,632.1739135060961 237.30834511040166,618.0888004176637 250,600,C 257.90552764721315,620.524030765767 272.8276207644597,638.2674236677035 291.6821880527347,649.5916675111974,C 310.5367553410097,660.9159113546913 333.1852835901231,665.7435151289478 355.03638071988803,663.240964334143,C 376.8874778496526,660.7384135393385 397.7794023614382,650.9611023327884 413.9820055938212,636.0880106989365,C 430.18460882620417,621.2149190650846 441.6384408047292,601.4069952760308 447.2369082664909,580.1375249409571,C 454.05226035638026,554.2449159208851 452.244441100111,526.4955732772272 444.39403535930876,500.89777345614385,C 436.54362961850654,475.29997363506055 422.9060203516945,451.7788942921936 406.9394235140018,430.28601148420216,C 375.0062298385736,387.3002458682038 334.3208533598737,351.4186067707341 302.2891162198011,308.50622254781706,C 278.0704995202969,276.060945521067 258.7682678122114,239.53849480162535 249.16432147680337,200.20655344391125,C 239.5603751413955,160.87461208619715 239.68958818318416,119.15268578715538 250,80M 249.02861228648368 , 575.7625007157284C 249.51743619915212,583.8339270786013 249.84132222165076,591.9153420782611 250,600,C 250.9895660778405,650.4185482902853 245.52017724593267,700.960332077634 233.76772121383783,750M 250.99851526883143 , 576.054472542721C 250.79194426828377,584.0409136124113 250.4590503399917,592.0240871793095 250,600,C 247.08594568438633,650.6311424941149 239.0716354617357,700.9673681304047 226.11766638834126,750M 249.2484244281877 , 576.6596469963965C 250.0237622353519,584.4110318412978 250.27504872991005,592.2147919793266 250,600,C 248.8909893269244,631.390360500353 239.03490638178184,662.4263365951141 221.82995113581498,688.7051141922437,C 204.62499588984812,714.9838917893734 180.12082240571337,736.4296294786099 151.79363262403345,750M 250.98225646799617 , 576.1875426113705C 250.1102062591706,584.0900571503366 249.78175750274872,592.0525112256968 250,600,C 250.8522067175655,631.0338426591559 260.21993436745043,661.7915852674934 276.8113944077322,688.0318044017621,C 293.40285444801407,714.2720235360308 317.1728954358381,735.9233099440096 344.84368226148314,750M 249.00650298703314 , 575.8861418196793C 249.02848960006727,583.932865690878 249.35998160900076,591.9787391932656 250,600,C 254.25777926786964,653.3621509090813 272.44830330966346,705.552091858236 302.281695603514,750M 250.29538628754614 , 576.9553779048783C 250.62749867671673,584.6343935420759 250.52883039415428,592.3320199394113 250,600,C 245.9660733723606,658.4914734261507 215.54932042558687,714.6580646030917 168.76820639438796,750M 249.74828229841108 , 576.9678007019561C 250.3104432843159,584.6300345830684 250.39456640583603,592.3273100952583 250,600,C 246.87004601611653,660.8647010471226 211.48694231576656,719.1438318594726 158.93025546071132,750M 250.79578124888485 , 576.6055841840102C 250.9375767733185,584.4104853973961 250.67183499417752,592.22277513106 250,600,C 245.0515100125348,657.2841839555124 217.09894796716102,712.254979197019 173.72523831272227,750M 249.00079678541255 , 576.0399116017979C 249.49793950270245,584.0186391563731 249.8311010083445,592.0075837569537 250,600,C 251.0656184603844,650.4257971476674 245.55704511786598,700.9867338274438 233.6576207713283,750M 250.1730416736391 , 575.0150854965104C 249.5381589688301,583.3260489937878 249.4802935866578,591.681039996137 250,600,C 251.95636855575415,631.3156646720429 262.26216947296945,662.0713556872823 279.56908215799416,688.2432682098839,C 296.8759948430189,714.4151807324855 321.141780145342,735.9394397448583 349.1917155657545,750M 249.8626414292754 , 575.0094786105043C 249.37624383818607,583.3312436633709 249.4221546160477,591.6840844807097 250,600,C 254.16064901632848,659.8769267456182 287.59550343998455,717.0300808260205 337.7506805047549,750M 250.56029486556216 , 576.8282932232155C 250.1066604744841,584.5426652428675 249.91974678714578,592.2727185090624 250,600,C 250.53980287568876,651.9755985052267 263.3746180377439,703.7834397153443 287.16082796231797,750M 250.84101928332385 , 576.5410051433004C 250.85559432991562,584.3675336753928 250.57498894914926,592.194607696983 250,600,C 246.07254165309777,653.314682302482 228.12606864760443,705.5345961603937 198.44934141123355,750M 249.61674440024868 , 576.923642325394C 249.95548004054083,584.6103272911606 250.08329600384536,592.306305869565 250,600,C 249.44533123951175,651.2323711810534 239.42924696230565,702.3471892912875 220.60710187130434,750M 250.85295786600037 , 576.5219797686003C 250.68421146293034,584.3516158076691 250.39985085071987,592.1787599992065 250,600,C 247.4155797702688,650.5522767883148 239.99221680323734,700.8560496573024 227.86439502351527,750M 249.09936773157105 , 575.5654179973071C 249.27620079097312,583.714202637731 249.576457454867,591.8603088044222 250,600,C 252.6300235915173,650.5441073583617 260.0273671707039,700.83909549338 272.0618709343212,750M 249.63521845392577 , 575.068906866289C 249.45044566664376,583.3799892845892 249.57214965565728,591.6978812325078 250,600,C 252.70560557797577,652.5002705814152 267.8629986980246,704.3178311865156 293.87719030879157,750M 249.02987876912837 , 576.2426206862824C 249.48326796683708,584.1557249602037 249.80669984722806,592.0762751142225 250,600,C 251.22549047039797,650.2350836164708 247.20215318249518,700.5966414962952 238.01664168877528,750M 249.05371071475633 , 576.3233211849431C 249.3592103224745,584.2159401652624 249.67464041711935,592.1081747662129 250,600,C 252.06213630535106,650.0185646477399 254.52315363016103,700.0206844066653 257.3827389818929,750M 250.9406494191215 , 575.6606201680913C 251.13972873948373,583.7827601969269 250.82534553133303,591.9174511459739 250,600,C 243.65123596746665,662.1729851408488 205.042786180526,720.1610060280336 150.12993408918084,750M 250.23831209072023 , 575.0288113739255C 250.0670645102522,583.3513271159651 249.9876207032999,591.675731818152 250,600,C 250.07458342697333,650.1524814445002 253.4870011580923,700.2997384477532 260.2071915844698,750M 250.76804312591642 , 575.3596018763827C 250.9017128231731,583.5790507708225 250.6453145791954,591.8048321060426 250,600,C 245.6720531729539,654.9627298487292 223.30948644951127,708.3573497395946 187.1774718993691,750M 250.74699808105885 , 575.3351738070033C 250.23492685602358,583.5460046801965 249.98575741593743,591.7732292048162 250,600,C 250.08894303075564,651.3750822632104 260.5815674242553,702.710449145412 280.65905153919596,750M 250.9269609707709 , 575.6248422216354C 250.40863142011648,583.7401319768228 250.099507589342,591.8687828971675 250,600,C 249.3786538283388,650.7730179295834 256.9983934266929,701.63784886734 272.4705541860891,750M 250.1681179422971 , 576.9857668880003C 249.70106201043055,584.6468313105954 249.64491540458448,592.3329298776688 250,600,C 252.62867321841205,656.758930560405 278.8639504660964,712.0600894095066 321.1611052833586,750M 250.1501565957779 , 576.9886622258105C 249.64780013890254,584.6472616295554 249.59763185849198,592.3354969687849 250,600,C 253.10568775460828,659.1586429283133 284.8156024450398,716.1628035636318 333.4410532591497,750M 250.46083358519314 , 576.887486567086C 250.02376262727313,584.5825260450448 249.87001272011773,592.2936541151677 250,600,C 250.88341153860685,652.373392852921 265.13146874430265,704.4673359990077 291.0260474017299,750M 250.58447816511594 , 575.1885905629691C 250.77386145360546,583.4621617584079 250.57875525736375,591.7445237140413 250,600,C 246.18047547178614,654.4824323668979 225.16897004187098,707.6330927339787 190.70203845596404,750M 249.13953898804962 , 575.4904837128086C 249.37829187727428,583.6619156176594 249.66511883271733,591.831942891879 250,600,C 252.05476801267315,650.117665939955 255.91945387412963,700.1611045561567 261.583993731214,750M 250.0703305231319 , 576.9975237428332C 249.6388124719058,584.6565264808775 249.61532468162414,592.3385017346909 250,600,C 252.85059282304078,656.7746640492544 279.1661769103151,712.0146217478232 321.4580129592208,750M 250.63170375058806 , 575.2247901113292C 250.34132138795204,583.4809010088455 250.13074035676766,591.7398186443801 250,600,C 249.2075327795211,650.0681130247484 251.35170236293877,700.182549272631 256.41782012515887,750M 250.09430026727355 , 575.004456199059C 249.75060181605105,583.3312241936391 249.71913895306704,591.6708757403163 250,600,C 251.7642418540301,652.3197851279784 266.06748388288077,704.1742871353616 291.3751211808402,750M 250.81516882700726 , 575.4207765686062C 250.02563027403147,583.5857385775336 249.75318253694365,591.8006672909443 250,600,C 251.75422810369852,658.2758597859687 281.31100567819976,715.1037708632282 328.0165336386844,750M 249.06953976398427 , 576.3663928891143C 249.47474120350876,584.2401368894474 249.78492472447624,592.1187706913685 250,600,C 251.36697683429492,650.0915684726182 248.88459329430708,700.2877222691548 242.5819509497186,750M 250.65572316872723 , 575.2449985920581C 250.27087862823504,583.4911434924903 250.052245052585,591.7450450338144 250,600,C 249.68057796320332,650.4701287202963 255.61121940736686,700.9767202230394 267.6134676713676,750M 249.0514174472229 , 576.3165298415108C 249.70338030893592,584.1927975704326 250.01995629761691,592.096820218615 250,600,C 249.86656505733444,652.8434863644508 234.30415706173847,705.5570492025658 205.71611794656542,750M 250.4457920115273 , 576.8951365719589C 249.90596577610833,584.5825767055986 249.75711259445166,592.2974579598052 250,600,C 251.74755564751473,655.4191799783664 274.60402670188466,709.9150607210298 312.91247359309904,750M 250.18021957185047 , 576.9836264056653C 250.3442736880789,584.6553234501325 250.28416632264643,592.3318125481825 250,600,C 248.08415132539102,651.6989016481648 235.85786795150338,702.9951064625302 214.24798846776372,750M 250.99343206803243 , 576.1144234512888C 251.15467601760682,584.0866083078921 250.82268889663771,592.0687381849746 250,600,C 243.55261603433004,662.1570200627647 204.95801252942715,720.0985877557979 150.08571123919518,750M 249.81996370225949 , 576.9836599674155C 249.9007935542713,584.655591642291 249.9608059480902,592.327742645399 250,600,C 250.25545730661088,650.0059091604837 249.62643734267726,700.0163354060603 248.1133335251589,750" stroke="hsl(210,80%, 90%)" fill="none" stroke-width="1"/></svg>