<svg viewBox="0 0 500 800" width="500" height="800" version="1.1" xmlns="http://www.w3.org/2000/svg">
<rect width="500" height="800" fill="hsl(210,80%, 20%)" /><path d="M 250 , 80C 261.299108051725,127.39106509189443 258.7247995640179,177.84567694366388 243.65865524854664,224.17702905834025,C 228.59251093307645,270.50838117301544 201.16265662164446,311.87323786819366 170.25761025942876,349.53569932065176,C 141.2340094994612,384.9053354642881 108.88832963190728,418.11043965241265 86.54288752176339,458.0361428886667,C 75.3701664666846,477.99899450679527 66.89102279906082,499.6682485546184 63.57562821046515,522.3034710899489,C 60.260233621869475,544.9386936252793 62.28621071546904,568.5391890019041 70.92530544960455,589.7219929399255,C 78.10787983099596,607.3334521927096 89.85899530514932,623.1352958074716 105.00731212873681,634.6366596035139,C 120.1556289523243,646.1380233995561 138.65032836854832,653.2421320117234 157.62495425948936,654.5522633240453,C 176.59958015043037,655.8623946363671 195.95084122648223,651.3506136454471 212.33653411954506,641.6933914687067,C 228.7222270126079,632.0361692919664 242.05677495289322,617.2817258283919 250,600,C 258.7753808501385,615.98275852864 272.21509069266745,629.3664700861494 288.2291467528228,638.084605652427,C 304.2432028129782,646.8027412187045 322.7667703959701,650.8208781696118 340.9595586489454,649.6050102359121,C 359.15234690192057,648.3891423022123 376.93632071388515,641.9586332421056 391.833021788938,631.4446341775105,C 406.72972286399096,620.9306351129153 418.69567314382533,606.4038925174743 426.5707298802171,589.9588519079653,C 438.2830230938355,565.5007249412909 440.77256044070947,537.1673996706886 435.9338579368454,510.4847321668794,C 431.0951554329814,483.80206466307015 419.29194368050963,458.75819229808275 404.4529044959857,436.0605998460208,C 374.77482612688163,390.66541494183184 333.89308367992254,353.6993079792137 301.69664473855175,310.0541425234296,C 277.5114669414994,277.26896126619357 258.09263216379645,240.52606198673493 248.53207128417736,200.9232008424697,C 238.97151040455836,161.3203396982045 239.30518779643364,119.31172760227284 250,80M 250 , 80C 254.4566068356627,118.7858435185335 250.65509520829167,158.44150521850602 239.4177255708133,195.83033410578895,C 228.18035593333505,233.21916299307173 209.46660517422825,267.9964956856811 187.74225702822812,300.43498670427215,C 162.77681966716167,337.713026540936 133.62571796429015,372.44389912514214 113.40275355743519,412.49333142189647,C 103.29127135400151,432.5180475702758 95.57778188286905,453.92581564466195 92.5618473813435,476.15497370915074,C 89.54591287981793,498.3841317736395 91.3793687908066,521.4343881589582 99.30866998335006,542.4190852444881,C 110.13385988193029,571.0676792881252 132.8786132572646,595.307600809307 161.3973371216756,606.4704439132352,C 189.91606098608656,617.6332870171632 223.4439577330993,615.2546155682803 250,600,C 261.1726164987469,617.6004530672353 277.49612877296016,631.8851123736938 296.4170860858562,640.6372939282314,C 315.33804339875235,649.389475482769 336.77769842715963,652.5738800088487 357.440168919645,649.8051942651797,C 378.1026394121302,647.0365085215108 397.8976004851495,638.3451372867376 414.106448507665,625.2349674410409,C 430.3152965301805,612.1247975953443 442.89449880067224,594.6843302855516 450.7590905863579,575.3775567683493,C 460.83576884546835,550.6403357839799 463.1369053825433,523.0807894734079 459.27651614763954,496.6503724936818,C 455.4161269127358,470.21995551395577 445.61293318382735,444.9089608714162 432.85351661957014,421.44266939391787,C 407.33468349103765,374.51008643890617 370.9164966827577,334.58410113784254 339.34234505368255,291.4917452498766,C 293.5705313584931,229.0224409733004 259.05263673433984,156.91243510579204 250,80M 250 , 80C 266.5582846945235,122.83474118449999 268.72282474486127,170.90745739638174 257.09976864926784,215.33601140578742,C 245.4767125536758,259.7645654151917 220.29959843030426,299.54562825803197 191.0226741957029,334.92717078700105,C 166.53442756877806,364.52153433924815 139.15868127983248,391.8877382089791 117.80470289146938,423.8174764464434,C 107.1277136972863,439.78234556517515 98.04503460340938,456.92711716155895 92.1987221245085,475.2218096878078,C 86.35240964560764,493.5165022140567 83.8202252045002,512.9855012379419 85.95674340887658,532.0724191188704,C 88.00553023870488,550.3755751117995 94.40673951799037,568.2519632857062 104.97291133394808,583.337024105313,C 115.53908314990576,598.4220849249199 130.25793661395653,610.6183180905703 147.1749579999327,617.8996252673073,C 164.09197938590893,625.1809324440443 183.1300967975934,627.4914493055649 201.277917192042,624.3514394797182,C 219.42573758649058,621.2114296538716 236.59904224143614,612.6339771223777 250,600,C 272.30559656913624,619.304430473762 302.75007249424254,628.8356766532075 332.0953097587244,625.82607134476,C 361.44054702320625,622.8164660363122 389.1218751479319,607.398249791885 407.91158959885337,584.6573767859029,C 424.6496276272204,564.399612988235 434.3805353840492,538.778368087364 437.0700355768653,512.6382552369189,C 439.7595357696813,486.4981423864738 435.6508687785755,459.94435987720084 427.451179684043,434.9783027220518,C 411.0518014949771,385.0461884117221 379.5888270310375,341.72355151538403 350.4090540485997,298.0120370920512,C 305.699450772324,231.03672273138332 267.3050852798224,158.64588598452127 250,80M 250 , 80C 255.85559678672564,128.44461423253384 249.0064171839539,178.20168867242023 231.4510728030176,223.73166281621326,C 213.89572842208287,269.2616369600029 185.6254404746561,309.7655707579977 156.172670528579,348.6719070590532,C 135.7827894770723,375.606404927363 114.85561418865377,402.44738752459045 99.65746707469755,432.6174181678483,C 84.45931996074084,462.7874488111061 75.47696932750263,497.05408626791996 80.35532072673331,530.4818608324674,C 83.06897169051766,549.0765263743031 90.05460432635044,567.109929941894 101.11474577424566,582.3019923206011,C 112.17488722214088,597.4940546993082 127.29668555504864,609.7522033381915 144.58250664623526,617.1228123611602,C 161.8683277374219,624.4934213841286 181.24522872413425,626.92370038054 199.79687124975226,623.9300324350827,C 218.34851377537026,620.9363644896255 235.99591403688765,612.5304056001287 250,600,C 276.94913112727187,612.4724238101604 308.9689576588569,613.4224383633116 336.6713366695564,602.7268681885756,C 364.373715680256,592.0312980138397 387.2369919231099,569.9855092696464 400.1236366588943,543.2319784434391,C 416.69039695107625,508.83828316785525 416.6981003382662,468.2118896688429 406.8363059107006,431.33196515757567,C 396.97451148313434,394.4520406463074 378.3199017305397,360.5914640048195 359.00492797868526,327.6625160979459,C 313.11194231901163,249.42229928516193 268.2329989016776,168.85524976455739 250,80M 250 , 80C 237.07907079725044,155.1412890293745 203.64834135264059,225.2425380128496 163.4668052683813,290.0392037169414,C 137.96204221445757,331.1681342287485 110.24215157397435,371.69234596019425 94.77516959452078,417.5492356489761,C 87.04167860478833,440.47768049337253 82.60832607051178,464.70299082210556 83.7518522662265,488.8734855152333,C 84.89537846194123,513.0439802083611 91.787704868025,537.1042849354732 104.89115961834699,557.4468496576774,C 119.83118033402792,580.6406061250124 142.9571078534428,598.6126158637485 169.391193539837,606.5115823768683,C 195.82527922623117,614.4105488899881 225.1949531779837,612.077425644921 250,600,C 275.24452851703757,613.0260200502833 305.78313663118826,615.3139865236604 332.7318786302404,606.3290701041032,C 359.68062062929243,597.344153684546 382.5526429342151,577.3261113671497 396.00356722958395,552.3053988673395,C 407.3036562205406,531.2855587688905 412.11192457095837,507.06554252937906 411.29543756037344,483.2147765473514,C 410.4789505497885,459.36401056532367 404.22250091068634,435.91580705455726 395.00750234841337,413.9019593566828,C 376.57750522385953,369.87426396091684 347.19685857353693,331.4922073614855 321.62015935409056,291.194127842588,C 281.2605018984634,227.6043474902513 252.07746156058732,155.287756432625 250,80M 250 , 80C 264.6686102976462,122.86173760555549 266.22636723030456,169.98819267562803 255.17371721591599,213.92150129552527,C 244.12106720152784,257.8548099154222 220.597279200042,297.8542498751734 192.03020206401513,333.01415292589235,C 160.50406436785903,371.81602053322047 122.68340349248896,405.50421907137047 94.3691812351139,446.7084313052378,C 80.21207010640975,467.31053742217256 68.61104136241775,489.93924827853783 62.702961426289484,514.2284467715355,C 56.79488149016123,538.517645264533 56.81992385772824,564.5032473275403 64.77123215887174,588.2023457969776,C 71.21131934896351,607.3972071567784 82.85779933312675,624.9095102376318 98.5045698215782,637.7584790258142,C 114.15134031002965,650.6074478139965 133.73983669396233,658.6654719985335 153.9276039712762,660.2054323860027,C 174.1153712485901,661.7453927734717 194.76882224935122,656.7288390040308 211.9353644777574,645.9944431869245,C 229.10190670616356,635.2600473698183 242.67062819099888,618.8732014910926 250,600,C 258.6630443503035,615.5757901312753 271.8538875165466,628.596494641307 287.53584143592525,637.0658450827129,C 303.2177953553039,645.5351955241189 321.3283441420191,649.4202240802158 339.1099432454027,648.2084860906295,C 356.89154234878623,646.9967481010432 374.26905282796173,640.7068707596749 388.8352888347484,630.4366057083995,C 403.4015248415351,620.1663406571241 415.1143827194453,605.9837032648301 422.8395861450723,589.9221090830081,C 434.32627806561607,566.0399439212003 436.82573001721863,538.3576740470851 432.1428227794834,512.2737271851527,C 427.4599155417482,486.1897803232202 415.9469701411303,461.6973933076547 401.41709410284466,439.5347083077409,C 372.35734202622365,395.20933830785236 332.16511215458496,359.3433410400734 300.1394202466231,317.11109418772133,C 274.7027202583002,283.5677441766212 254.28464819129118,245.66801726641262 244.8390780570809,204.64408228812422,C 235.39350792287084,163.6201473098359 236.99187904402314,120.03711809630892 250,80M 250 , 80C 250.20926689365618,128.19681415189712 240.24464633130586,176.3026393041418 221.8539569384143,220.85327600755463,C 203.46326754552348,265.40391271096604 176.53417425189318,305.84192258399554 148.6322912722581,345.1415614273219,C 123.17793347460264,380.99387537927964 96.6825523340489,417.0237170982869 82.03624644137368,458.4821115474089,C 74.71309349503223,479.21130877197305 70.56136760139006,501.22468303483276 71.5751842823689,523.1860209355108,C 72.58900096334774,545.1473588361888 78.91910905989182,567.0072070507467 90.92279746549724,585.4256665767637,C 107.7784426441711,611.2889685901058 136.29342994499189,629.5765885862729 167.01367386685314,632.6245024308632,C 197.73391778871436,635.6724162754535 229.63546390297773,623.2014834649807 250,600,C 271.7599539160602,618.8077910226611 301.91439030522235,627.4584964319904 330.3569983787361,623.1868874192587,C 358.7996064522498,618.9152784065269 384.86827199970975,601.9193352318046 401.1687962376816,578.2228901999342,C 416.18971710480486,556.3866338648958 423.00215285033886,529.4303835204714 422.32099931095195,502.93536164311365,C 421.63984577156504,476.4403397657559 413.80442570454414,450.4841470086892 402.34706098957355,426.5847966364713,C 379.432331559615,378.78609589196213 343.3070330292352,338.7846166866264 313.76255815427004,294.7741108718337,C 292.533742621984,263.1509084497828 274.41540585862714,229.1862184887796 263.0744595723991,192.82590389081815,C 251.7335132861712,156.46558929285675 247.12987178163561,117.97962485781002 250,80M 250 , 80C 256.9502804702839,118.9425901500466 254.50245696185704,159.46123039150996 243.43130177761233,197.4383451989369,C 232.36014659336777,235.41546000636373 212.67328688091789,270.44374726524654 189.22340258102292,302.3017863218433,C 163.2187062895191,337.63068686202087 132.51669151973525,369.45531096950765 108.41107580554784,406.10629640825175,C 96.35826794845042,424.43178912762306 86.0590064874495,444.0583367823365 79.60362291972591,465.0207289082701,C 73.14823935200234,485.9831210342037 70.64538214382804,508.3184516859146 73.8024045475976,530.0239134453413,C 76.60956324109466,549.3239588303604 83.9371596052884,568.0277640930356 95.52042843376103,583.7185185376633,C 107.10369726223365,599.409272982291 122.92746530659088,611.990544977423 140.95466464555003,619.4331235485704,C 158.9818639845092,626.8757021197176 179.13523093282268,629.1257531258464 198.33921435667716,625.7229730197284,C 217.54319778053164,622.3201929136104 235.71488302262907,613.278076846332 250,600,C 271.5614194889127,618.9645254729747 301.9512454546229,627.3777658691876 330.2234796373269,622.3549368744558,C 358.49571382003086,617.332107879724 383.89235430332667,599.1310355188922 398.7792559729439,574.5764393000348,C 411.95148610807513,552.8500385050245 417.05859202572964,526.7172432750392 415.1231481084548,501.3835069718136,C 413.18770419118,476.04977066858794 404.5308486420992,451.5654683678819 392.5946283275028,429.13622890597185,C 368.72218769828737,384.2777499820882 332.8328688389777,347.1306662102579 303.7638479639456,305.4513118687272,C 280.9800198002004,272.78370839576223 262.1591695195107,236.94410767875456 252.26437806610147,198.3647317823578,C 242.36958661269236,159.78535588596108 241.40275438577078,118.8891052906923 250,80M 250 , 80C 229.81796077390902,161.4628742503249 187.02958279523799,235.33549964509837 139.36678782675895,304.41351759755884,C 115.79829169694133,338.5715018249783 91.63073077406307,372.77002458104226 75.41702613132698,410.9715648387333,C 59.20332148858936,449.17310509642437 51.85370760518991,492.51167656941664 63.11627761409979,532.4540902808628,C 68.43898362971986,551.3309297208914 77.81472438411176,569.11253331326 90.78876034066396,583.8210566100232,C 103.76279629721617,598.5295799067865 120.31636047551761,610.0996902079133 138.68433719706442,616.9760044626614,C 157.0523139186112,623.8523187174095 177.1800596112615,626.0012634982265 196.57117384706078,623.0600128683893,C 215.96228808286008,620.1187622385521 234.56137422254767,612.0960779047227 250,600,C 271.8740079366748,623.7136983609664 304.8078725053287,636.7145363925998 336.9938338694551,634.5064593478445,C 369.1797952335815,632.298382303089 399.7544143526753,615.072508969787 419.38348915631065,589.469557274291,C 435.66043150289204,568.2389199254172 444.55493710565725,541.7860155696113 446.2792155062726,515.0894675082889,C 448.0034939068879,488.39291944696635 442.8157863021996,461.54410896197305 433.59887938507876,436.4298213695594,C 415.16506555083174,386.20124618469896 381.92850800245697,343.0577308359841 351.4830525802854,299.0601229269918,C 305.34966732416996,232.3914340252524 266.51212553599066,159.3747631514562 250,80M 250 , 80C 227.09766374764988,165.83073577215595 181.97990917561953,243.6912710759081 135.0136769674084,319.09422354575344,C 110.33803309977372,358.7102692499433 85.89624761559392,399.5339024374584 75.05734865806646,444.93034224177904,C 69.6378991792999,467.6285621439432 67.84046654061633,491.35056962001863 71.4912411965138,514.3994625173307,C 75.14201585241129,537.4483554146427 84.38293663545272,559.7487910817778 99.11242444184342,577.8491172761118,C 116.80422503406929,599.589680552549 142.51901857609528,614.839307901498 170.23031447407965,619.0507185233932,C 197.941610372064,623.2621291452883 227.20698570336663,616.3135035797134 250,600,C 260.8569385551635,617.8174628672158 276.99608382759374,632.3683821535495 295.8327531532217,641.3413965039312,C 314.66942247884964,650.3144108543128 336.12109695476994,653.6716087095941 356.813312287594,650.9944231659216,C 377.505527620418,648.3172376222491 397.343269939539,639.6377684017003 413.54959227632173,626.4966035320435,C 429.7559146131044,613.3554386623867 442.28613459394165,595.8460291776754 450.0645136650966,576.4854528215692,C 458.9744861956681,554.3083125805339 461.66423606265136,529.8596985901327 459.2633012905818,506.0805339288929,C 456.86236651851226,482.3013692676532 449.5093100498444,459.1948212897791 439.38473513388584,437.5451990635778,C 419.1355853019633,394.24595461117065 388.54648233854886,356.787699485705 359.96129628318084,318.4766073941846,C 307.02130750756896,247.5241643567913 263.1837094462003,167.5390278091699 250,80M 250 , 80C 242.0506481945395,125.83315943249823 227.48132015058647,170.44317981457513 207.6752947954467,212.53346440999383,C 187.86926944030722,254.62374900541133 162.58813814183765,293.84576287998016 138.18229735738828,333.44659157453873,C 119.55052972176993,363.6784301303764 101.4855657673018,394.67449169002435 90.65917645514695,428.49602509931213,C 79.83278714299158,462.31755850860003 76.96375057949975,499.57619866178106 88.44449700704016,533.181247228335,C 99.20686639646101,564.6835496531215 123.01637730987248,591.8918034461338 153.6573495318862,604.9054299286652,C 184.29832175389993,617.9190564111964 220.8868240071967,616.144554393018 250,600,C 271.49111979163035,626.1581795198173 305.97992347443784,641.0017946836275 339.76442909044647,638.8279119887528,C 373.54893470645504,636.654029293878 405.51588611318675,617.7186969685145 424.9527160578749,589.9999627371238,C 440.8727195134407,567.2965514296517 448.6026477153335,539.3484558043242 448.7426658934433,511.619918339624,C 448.8826840715531,483.8913808749238 441.7421971971395,456.4595150240715 430.67301784434324,431.0358122355886,C 408.53465913873595,380.1884066585735 372.055149550837,337.2077236095446 340.22283955415645,291.7955047651979,C 295.7378282178218,228.3328446469389 261.0360111833652,156.71135457049448 250,80M 250 , 80C 261.2923462393587,120.65582698619369 261.437856980286,164.24978374721104 251.08396279554023,205.154676201928,C 240.73006861079475,246.0595686566447 219.9244638515544,283.7005371746339 194.91027255447318,317.6814669040258,C 165.57989743323964,357.525785838599 130.13414567143533,393.20041759428995 106.44629464907032,436.63688119406413,C 94.60236913786386,458.35511299396796 85.96247376586138,482.1160915579989 83.81787134354423,506.76078357229585,C 81.67326892122708,531.4054755865928 86.32545850005393,556.8900551497316 98.81571705834139,578.2431253078256,C 113.6972129126936,603.6842019318275 140.02675396507382,622.4356073515006 169.1691916402235,626.8430584291023,C 198.31162931537312,631.2505095067039 229.33124709504892,621.0121382064156 250,600,C 263.83683079670203,616.5042295614328 282.5409983140392,628.8731200275242 303.1399887813492,635.160334962669,C 323.7389792486592,641.4475498978138 346.1424010442382,641.6269288932646 366.8748121693258,635.7947244341102,C 387.60722329441336,629.962519974956 406.57581823016983,618.1677785716688 421.239455933937,602.3935841641661,C 435.90309363770416,586.6193897566634 446.23192336150976,566.9702168269264 451.5910111733209,546.1105030767733,C 457.2942476938553,523.9112248702158 457.42365350653637,500.45331750681675 453.29088739231753,477.90880367425746,C 449.1581212780987,455.36428984169817 440.86433971613087,433.7188953731622 430.32791079168,413.36407959847907,C 409.2550529427744,372.65444804911135 379.78372697573155,337.0248084060298 352.5166961617961,300.1758129055097,C 303.88186773369756,234.45011705893893 264.0604080881394,160.54513365276327 250,80M 250 , 80C 251.81999055302356,156.33043686419018 222.94109324464628,230.97034729941123 179.34245466144785,293.6505409109729,C 147.51042826278308,339.41429965562213 108.5772399856363,380.594121740045 83.12639786811852,430.1910385251934,C 70.40097680932277,454.9894969177931 61.37821602705981,482.03695576413514 59.88492413032822,509.8698492372237,C 58.39163223359665,537.7027427103124 64.8000043705291,566.2594605569633 80.08847643385057,589.565307500213,C 89.19331561314276,603.4447839761006 101.34100002349652,615.3538442926553 115.55206508928504,623.9319322743338,C 129.76313015507355,632.5100202560124 146.01003136901826,637.7225154407452 162.57007330280695,638.863994690076,C 195.69015717038425,641.1469531887376 229.56663010057605,626.1654208728864 250,600,C 256.4317842339539,622.082519077689 270.97788362312394,641.6983583008259 290.2274014653849,654.2865098763796,C 309.4769193076459,666.8746614519332 333.24480999910713,672.3243897964836 356.07911161308266,669.5675497484154,C 378.9134132270578,666.8107097003481 400.5981556824514,655.9275816774807 416.8269600964524,639.6293791833184,C 433.05576451045334,623.3311766891561 443.7672059407971,601.837147164485 448.02276432914243,579.2341447079086,C 452.1568689398989,557.2762326913329 450.3313389842515,534.4022160477032 444.2045277026468,512.9149429638529,C 438.0777164210421,491.4276698800026 427.7677736507696,471.29467662770867 415.4123711589541,452.6778898392858,C 390.70156617531717,415.44431626243875 358.31968076172745,384.05690594377097 329.39437049241553,349.99388625869517,C 297.74767205100244,312.7261058289932 270.0844877086252,271.2077899618771 255.11020887769547,224.66563752033454,C 240.13593004676696,178.12348507879233 238.00713972912885,127.39801982067931 250,80M 250 , 80C 260.42344208233817,120.04198781078613 260.2300099667135,162.72461731405195 249.94495593499607,202.80237419049973,C 239.65990190327875,242.88013106694746 219.331111135594,279.8962906735512 194.09462701089768,312.6854474438457,C 162.9614427351068,353.1360448778356 124.35925256105884,387.3622440690068 93.14913784718875,427.7535146044101,C 77.54408049024255,447.94914987210814 63.89258160510621,469.89031040040413 55.110322048540375,493.85389560922835,C 46.32806249197455,517.8174808180526 42.59310646247406,543.8810872206683 46.41824080854235,569.1149899353496,C 49.96283567919183,592.4982110294278 60.122476961844214,614.9867646289828 76.1156715633838,632.4096492342617,C 92.10886616492337,649.8325338395406 113.88316165904921,661.9676756770516 137.20743573690737,665.8814232765438,C 160.53170981476617,669.7951708760355 185.19390451333555,665.3972768144324 205.6312538918918,653.4954310789832,C 226.06860327044802,641.593585343534 242.09098965343696,622.2887132169975 250,600,C 270.79924804298355,625.7953456177922 304.6095032122898,640.4463156087066 337.6688757415256,638.1909968578175,C 370.7282482707614,635.9356781069283 401.88584962867435,617.0514274781309 420.54356314919227,589.6671564292024,C 434.0408248111489,569.856975971513 441.2513713303461,546.0688121287143 442.52832767731445,522.1316296582254,C 443.80528402428274,498.1944471877364 439.3278487313108,474.16659390427026 431.35990302529683,451.5583838167033,C 415.42401161326507,406.3419636415564 386.50594743388376,367.07310522674913 358.9588274440292,327.8349418036727,C 332.7430427057586,290.4931345220667 307.4341579700985,252.26398457148088 288.25472012722076,210.86558962033416,C 269.0752822843434,169.46719466918773 255.89345192084508,125.2431781040699 250,80M 250 , 80C 249.59803135780547,156.08771689516226 220.3123033697484,229.662932289752 178.34614730294066,293.13216882276856,C 149.45628324134452,336.82493907823635 115.22303465077945,377.6074074035379 94.46612365934085,425.69933046955896,C 84.0876681636009,449.7452920025905 77.39716949862094,475.67199462919535 77.63338860772585,501.86101532599844,C 77.86960771683074,528.0500360228016 85.33292015296094,554.4170932042289 100.53865722298696,575.7409334934996,C 116.92044554942024,598.7140150558394 142.35705210612136,615.257084242091 170.18261906036233,619.9329038405178,C 198.00818601460327,624.6087234389447 227.66901920790616,617.2468188981363 250,600,C 270.2458677982524,622.7562197053659 301.8860843022697,634.7632679985296 332.1527852767876,631.3474942498285,C 362.4194862513055,627.9317205011274 390.29385463307113,609.3797974243531 406.3392160087009,583.4898944405903,C 420.257888977651,561.0314976246634 425.48576154934176,533.7456535102941 423.1437864015819,507.4278991006661,C 420.801811253822,481.11014469103804 411.2625037147052,455.811461408413 398.3193133826544,432.77707691942504,C 372.43293271851957,386.70830794136333 334.0994580994012,349.01124097753916 303.50765947045807,305.9232143844274,C 280.38462199172267,273.35481048371287 261.4617026606001,237.397543706659 251.6252434135884,198.68553181932668,C 241.78878416657687,159.9735199319944 241.04922800690838,118.92633396058204 250,80M 250 , 80C 263.94543967334454,126.009158088848 263.68059206522616,176.06566888692305 250.17193712827944,222.2049597085428,C 236.6632821913336,268.34425053016184 210.08724612652773,309.7032475720247 179.1140436122255,346.4725097584683,C 149.0443362325234,382.1692044739513 114.65696815766833,414.4928510773662 89.01847873556783,453.49425074025197,C 76.19923402451077,472.9949505716946 65.7262650514707,494.2410301155566 60.14031915359887,516.8995282410732,C 54.55437325572704,539.5580263665898 54.02290190122284,563.6583809923579 60.280447691282006,586.1406729031775,C 65.98025596539343,606.6191092987572 77.37686699678568,625.5913787492611 93.3212863297524,639.6494605424485,C 109.26570566271911,653.7075423356359 129.69529754181534,662.6905496867598 150.8722145720193,664.5323848219682,C 172.0491316022234,666.3742199571763 193.80879485446553,661.0232197425499 211.63613541019967,649.4456509010654,C 229.4634759659338,637.8680820595808 243.22115588872353,620.146995907193 250,600,C 258.82645211009884,615.1520352539692 271.98060874983787,627.748808886246 287.495750856464,635.9201487152209,C 303.0108929630901,644.0914885441957 320.82912654239567,647.8074620173052 338.3225553042693,646.5948700238285,C 355.8159840661429,645.3822780303519 372.9151314408322,639.2581640258969 387.32102918257993,629.2601372483923,C 401.72692692432764,619.2621104708877 413.39971121503714,605.4526780679942 421.22872820366007,589.7620145325906,C 433.0914507268427,565.9871283628964 435.9380315682805,538.2472188427303 431.50493516225004,512.0495652398066,C 427.07183875621956,485.851911636883 415.71932401816804,461.1961931836756 401.2941973268727,438.88285372083374,C 372.44394394423216,394.25617479508384 332.2703671815956,358.1400231991882 300.31214919874617,315.6835761558332,C 275.1638660645666,282.2741178534074 254.95960051316712,244.61177872978828 245.5089583253424,203.87710785967943,C 236.0583161375179,163.14243698957057 237.42487876908388,119.88100267904687 250,80M 250 , 80C 264.40371485593295,120.97091237282838 266.16979283196605,166.17346553517467 255.69165181354623,208.3195356142593,C 245.21351079512672,250.46560569334372 222.63325864582276,288.85796902026954 194.91253535992445,322.28915450358187,C 166.85763810187203,356.12335371534374 133.62191069094285,385.3870109914245 105.66635974167139,419.3033413882076,C 91.68858426703319,436.2615065865975 79.0923816312001,454.5030142523297 69.86479544229012,474.4481697353415,C 60.63720925338016,494.3933252183533 54.86371616862542,516.09908035999 54.525702252862736,538.0727764693847,C 54.15905951944681,561.9075821657455 60.38217923837598,585.9795249856456 73.32475127612237,605.9975723061258,C 86.26732331386874,626.0156196266059 105.92447883162606,641.7247515715279 128.5138305740481,649.3374762699766,C 151.10318231647145,656.9502009684251 176.40849693854597,656.3229055230938 198.50796081854222,647.387241826757,C 220.60742469853847,638.45157813042 239.27305418546936,621.2876730285255 250,600,C 256.63504354216093,625.0612733764768 273.50094197292685,647.2437544637944 295.85767279512413,660.3688378159371,C 318.2144036173214,673.4939211680799 345.7458379958417,677.3980183844035 370.9377267432293,671.2775635486802,C 396.1296154906172,665.1571087129598 418.6535859503681,649.1937410478469 433.41655252989057,627.883038482498,C 448.17951910941304,606.5723359171491 455.16751942238227,580.2751126449579 454.46505347341673,554.3599092375483,C 453.8372823557969,531.2003294311455 447.2857455354549,508.414066453326 437.05553744387174,487.6269772923067,C 426.8253293522885,466.8398881312875 413.01239389915787,447.9815436444136 397.79985245172156,430.50759686369776,C 367.3747695568416,395.55970330226853 331.567393737178,365.55147020097496 301.74650368001903,330.0866221152981,C 272.87838205032324,295.754865210861 249.7545547074616,255.83103612818175 239.7889553538865,212.09632670767343,C 229.82335600031183,168.36161728716513 233.19286293468875,121.58795645664868 250,80M 250 , 80C 243.81306712260886,155.6476983758355 212.38528906153823,227.35220129342787 170.20959739832279,290.4557942237841,C 140.14019424560115,335.4458655511277 105.07355263117616,377.88858720573563 84.48516026729291,427.9325041574608,C 74.19096408532948,452.9544626333472 67.8677495201033,479.9123314136972 68.83961658771665,506.95164271048543,C 69.81148365533,533.9909540072737 78.39607383774566,561.0092091777036 94.90125343588107,582.4486104621385,C 112.70347846496213,605.5728087711997 139.76912901119704,621.5850742377439 168.74829023025555,625.0283253849366,C 197.72745144931406,628.4715765321293 228.01382978951787,619.1899995544173 250,600,C 263.7343772729572,613.9119639353762 281.73410108888885,623.550543615369 300.92280802620627,627.2881077537988,C 320.11151496352375,631.0256718922287 340.39026506297023,628.8452177763759 358.4005583912405,621.2422450784902,C 376.4108517195107,613.6392723806048 392.0623320844778,600.6802370424108 403.20971608519466,584.6206078575359,C 414.3571000859115,568.5609786726609 420.9891771398629,549.5153383837353 422.98253926473063,530.0679126658089,C 426.4747873039898,495.99721698798476 415.7636697237369,461.71491223532144 399.0983890108926,431.79374048185036,C 382.4331082980477,401.87256872837924 360.25961070063005,375.45893414501415 338.9762238091129,348.6256424579207,C 308.65095402578805,310.392685751669 280.15787246017504,269.8749353329826 263.336497944096,224.06639545968642,C 246.5151234280199,178.25785558639237 241.4397159143334,128.04271539272054 250,80M 250 , 80C 262.73986083108554,120.21237580565312 263.62839594560074,163.99563512508314 253.19080705173647,204.86611297906944,C 242.7532181578725,245.73659083305557 221.09369886396337,283.0626772366207 194.73108353299622,315.9921736621954,C 167.88574581327305,349.52463777422736 136.20054053044458,379.0106053557091 110.17241924757994,413.1812829784194,C 97.15835860614486,430.26662178977324 85.63406487368499,448.6286129753182 77.57662723574747,468.53721100201136,C 69.51918959780994,488.4458090287045 65.02015942252503,509.94918632729224 65.91809367046773,531.4077112244997,C 66.81618785997026,552.870058350214 73.22920594292857,574.1964549724705 85.10750103160059,592.0946398833576,C 96.9857961202726,609.9928247942446 114.31927625746461,624.2980548913528 134.32312683826555,632.1265208495633,C 154.32697741906688,639.9549868077737 176.86758897588922,641.2118458856278 197.57261807703557,635.4898980320934,C 218.27764717818195,629.767950178559 237.00170138877718,617.1021387706734 250,600,C 259.14763226478954,622.4726705844726 276.6284385425509,641.4352579534419 298.27095163116365,652.4034723231222,C 319.9134647197764,663.3716866928024 345.4994134196831,666.2469578993033 369.0905462334134,660.5761068331076,C 392.6816790471436,654.9052557669131 414.05133305857396,640.8100377867689 429.0480238567261,621.736512565808,C 444.04471465487825,602.662987344847 452.63842908162457,578.8627025362554 454.5232413122481,554.6728785992088,C 457.66168019520836,514.3939145822354 442.4945629293098,474.5366846561497 420.68963340845403,440.52507208789257,C 398.8847038875968,406.5134595196356 370.9353652905972,376.96510167001964 345.02670811026815,345.96532386412315,C 313.88723519494977,308.70686100173384 285.6078137496012,268.3582079026726 268.13092104045114,223.0545871914673,C 250.65402833130227,177.75096648026246 244.03921178750244,128.19054712490367 250,80M 250 , 80C 233.39261824211104,156.49838597676558 196.6883760555407,227.18784466761582 153.32946510061169,292.363093241787,C 123.68884831385884,336.9175925228341 91.2736396326025,380.74163694867633 74.12310676923252,431.4321566953354,C 65.54784033753528,456.7774165686806 61.13082119835284,483.78919877840286 63.730989794869586,510.4191915626994,C 66.33115839138632,537.049184346996 76.21091118639937,563.1857528582028 93.3341795441362,583.7456914079876,C 112.01846224211242,606.179942632196 139.35648644292962,621.4306968155503 168.3804879070672,624.5938261108096,C 197.40448937120476,627.7569554060689 227.5846842634945,618.7069951719018 250,600,C 263.034992563352,610.4754888272997 278.9384881418014,617.3419828359512 295.50006715122305,619.6573657442854,C 312.0616461606447,621.9727486526195 329.2253950272013,619.7293512001005 344.67006845784994,613.3177242678673,C 360.11474188849854,606.9060973356343 373.7874004401045,596.3619387268241 384.1082768250601,583.2041878573181,C 394.4291532100157,570.0464369878121 401.3840943299597,554.3406349083629 404.6654776427396,537.9430917737304,C 411.6891594911262,502.8447460168357 401.553425723327,466.11806873114455 384.1947152370957,434.81469588039425,C 366.8360047508628,403.5113230296432 342.96721576358493,376.41363362236274 320.58156671901077,348.4832075885346,C 290.26162623548214,310.6532186818436 262.60828961275394,269.59747076624177 248.6794932067,223.16046523957397,C 234.75069680065022,176.72345971290844 234.76617095137806,126.02539846782548 250,80M 250 , 80C 260.5115119982752,119.65824162566548 260.1626293521997,162.04760136700713 249.6092389387908,201.69471934690222,C 239.05584852538217,241.34183732679713 218.3557818573294,277.7084995521366 193.3721408226676,310.25209637210554,C 167.19057342562118,344.35610756495805 136.29457235958344,374.7429409740808 111.5396841717985,409.8962276144301,C 99.1622400779028,427.47287093460375 88.41039212857146,446.3385896923994 81.3088461878374,466.6291677510394,C 74.20730024710336,486.9197458096794 70.8567049812784,508.67668559447657 73.00786048594733,530.0662167416722,C 75.0092826968672,549.9669085448359 81.8421224242855,569.4531498467554 93.32237019194461,585.8314017774112,C 104.80261795960372,602.209653708067 120.9168418418898,615.3627346949072 139.4094237144623,622.9829473426668,C 157.9020055870349,630.6031599904261 178.67927453393145,632.623817675445 198.2663687353711,628.5754889023831,C 217.85346293681073,624.5271601293211 236.14863913146556,614.4285490330977 250,600,C 260.38934743905145,619.3858578874828 276.9819854081413,635.3820903833733 296.72674155647803,645.0720145773865,C 316.47149770481474,654.7619387713999 339.25301830407557,658.0924693207496 360.96870566764926,654.6026342858906,C 382.6843930312227,651.1127992510317 403.2049602273709,640.853818828209 419.30059337084424,625.8644686103471,C 435.3962265143175,610.8751183924852 447.01943006130625,591.2887486103504 453.2178514663519,570.1859147170444,C 459.53574527076444,548.6763310992642 460.2889884684166,525.7102817527208 456.6956498384581,503.5818862613039,C 453.1023112084996,481.4534907698869 445.2669612493008,460.1531155221852 435.08914724113544,440.1783796904074,C 414.7335192248012,400.2289080268501 385.59080579912074,365.57140019798 358.2797674769302,330.012729470567,C 330.1831173096927,293.4312007841072 303.81441675595096,255.17839139343158 284.6547803385829,213.21962205956436,C 265.4951439212152,171.26085272569733 253.46525635153517,125.99589101296472 250,80M 250 , 80C 265.6455316531607,125.59927450046698 265.972884720966,176.08949823155896 252.13184740383537,222.26852140945638,C 238.29081008670695,268.4475445873508 210.53964602616247,309.19964689587243 179.62692008282443,346.1926174501646,C 156.69476866647298,373.63530896972094 132.00510360524814,399.8667748644409 113.0213085356345,430.1751963207773,C 94.03751346601952,460.4836177771133 81.26032550723001,496.0620787426472 84.8079990849244,531.6485775674284,C 86.65943266848971,550.2201957286744 92.95180144983256,568.4147229679704 103.54033052781632,583.7840384831834,C 114.12885960580009,599.1533539983964 129.002347318529,611.5925398526414 146.14259201652249,618.977986293743,C 163.28283671451607,626.3634327348445 182.6072310893088,628.6343688157385 200.9705125014455,625.2992971193353,C 219.33379391358224,621.964225422932 236.64523097347626,613.037751021157 250,600,C 279.6470253769892,618.6062801278692 318.4736884197804,621.521987160043 350.6877946440195,607.832899021163,C 382.90190086825856,594.1438108822831 407.37549857758665,564.6347030267281 417.1856923150354,531.0355977896194,C 427.3069349337821,496.3711757630247 422.53622817333775,458.67113204930394 410.0353747237526,424.79207702090343,C 397.53452127416693,390.91302199250265 378.0051607829831,360.13759900332064 358.3359747455344,329.8525395315339,C 333.37674026626496,291.4222812007724 308.2287371146642,252.89755968082858 289.01576532669145,211.2957585631512,C 269.80279353871924,169.6939574454747 256.33003935917037,125.3847853676921 250,80M 250 , 80C 229.03758027283166,164.32397214931746 184.94301186612068,240.87822320371913 135.9218993053326,312.6200230358908,C 107.37866884064437,354.39269239385226 77.71773917703611,396.5355824138311 62.395591078351195,444.752837502563,C 54.73451702900235,468.8614650469354 50.936399809634935,494.40334797382343 53.3696863058641,519.5826469015169,C 55.80297280209326,544.7619458292104 64.66500832329822,569.4988784347718 80.06227753273383,589.569804635499,C 99.76800799041595,615.2569739879095 130.45316770676362,632.5427609392317 162.75379453294414,634.737297073832,C 195.05442135912463,636.9318332084323 228.0959666925894,623.8402979653796 250,600,C 257.8506919032649,624.4488577999095 275.6261567158774,645.5424079274162 298.3735574524428,657.456087913478,C 321.12095818900826,669.3697678995397 348.52383445712894,671.9590988787264 373.18063711921,664.7881788845151,C 397.8374397812917,657.6172588903067 419.4356310611145,640.8797800488984 433.19940284985955,619.2017128558223,C 446.96317463860464,597.5236456627462 452.895940081492,571.2589201579743 451.33341459244934,545.6281081307235,C 449.9805135741171,523.4358610695066 443.2138150082247,501.7589909633319 433.10090344954557,481.9586073660924,C 422.98799189086645,462.15822376885296 409.60841234949885,444.1718891206997 394.93476322140157,427.4682909437504,C 365.58746496520195,394.06109458985384 331.2606567746812,365.2727334311277 302.3030121092222,331.5272226393919,C 272.8420754175496,297.1952053586639 249.08035005009535,257.1338663549633 238.9283462148683,213.04791599155976,C 228.7763423796418,168.9619656281562 232.44519531407317,121.6948801863478 250,80M 250 , 80C 263.38506885117135,126.64104351573914 262.45664167652836,177.13367243796895 248.28338222281923,223.5412766084658,C 234.110122769111,269.948880778962 206.8739241425301,311.41531138177106 175.23048841817635,348.20172169789566,C 146.23866298718448,381.9055582663464 113.47507611853152,412.4846126538487 87.52930279050958,448.58573988922535,C 74.55641612649617,466.6363035069126 63.39330688447024,486.13750116764413 56.09095185280481,507.1326016986019,C 48.7885968211394,528.1277022295596 45.449395884140166,550.658140548247 47.84757018837996,572.7571766204379,C 50.47198677283067,596.9410220838953 60.16902868648019,620.48996263562 76.28124446278767,638.7147382607637,C 92.39346023909516,656.9395138859076 114.86740614520821,669.5613961929271 138.91657986286899,673.2197000768193,C 162.96575358053119,676.878003960711 188.32242803504988,671.459525375973 208.6527077738556,658.1019181968749,C 228.9829875126613,644.7443110177767 244.0513112834171,623.5872644951123 250,600,C 260.44797015926815,621.6669831671594 279.02885841624953,639.2859239741539 301.20849083373736,648.5962486645205,C 323.3881232512252,657.9065733548872 348.9326613486631,658.8226966356859 371.79536750358204,651.3450695194973,C 394.658073658501,643.8674424033101 414.6151099437353,628.1416042222162 427.77216680458764,608.0043230061432,C 440.92922366543996,587.8670417900701 447.27972319329575,563.5802377594965 446.9296492811279,539.5283004514348,C 446.5987595223657,516.7944163858843 440.4569233769827,494.3530252470112 430.680094511848,473.8261504220357,C 420.9032656467133,453.2992755970602 407.5876670014457,434.6198382010369 392.88890436736887,417.27379110766685,C 363.4913790992073,382.58169692092895 328.7816539871331,352.6209793697125 300.12008798852315,317.31842244445534,C 273.3983306712197,284.405135051747 252.04843725111516,246.4987751696986 242.5209380292342,205.18820074017833,C 232.9934388073535,163.8776263106581 235.4112027896454,119.80582616998447 250,80M 250 , 80C 248.38159449558205,127.76528915305816 237.22280260660833,175.09579404773734 218.15208039689563,218.91872912347088,C 199.08135818718347,262.7416641992037 172.0040793846237,302.56944311257126 143.5323721928368,340.9556903091526,C 116.2348428006917,377.7588824761852 87.38049395312592,414.22167268545434 69.80525402540586,456.5388205818051,C 61.0176340615417,477.69739452998243 55.253562746086615,500.2798181527693 54.654170877853716,523.1828364153932,C 54.05477900962081,546.0858546780172 58.77251110572133,569.2823241537335 69.5488381917545,589.500590416809,C 78.15858375282409,605.653972438462 90.60689615537666,619.8025821919199 105.78421311790154,630.0353002659643,C 120.96153008042643,640.2680183400088 138.828334561328,646.5231294000972 157.0906594346719,647.7668977001703,C 175.35298430801575,649.0106660002433 193.94262661276412,645.2260652366581 210.22776076810015,636.8682021780452,C 226.51289492343622,628.5103391194323 240.4369208819037,615.6079142471008 250,600,C 257.3830038953964,619.1435762883868 271.13100181158495,635.7668096985816 288.53992716307107,646.6256575994922,C 305.94885251455713,657.484505500403 326.9032743643316,662.5113083245543 347.35493579969983,660.8636420471184,C 367.80659723506784,659.2159757696827 387.6168828632816,650.9353320968333 403.39174118031787,637.8151528028545,C 419.1665994973541,624.6949735088758 430.8474979374739,606.8690576779854 437.26203547504207,587.3795998146213,C 444.37188447037323,565.7775588883904 445.0638355082082,542.3130075684765 440.77763408285153,519.9785811765532,C 436.4914326574949,497.64415478463013 427.38214533224186,476.42622509790584 415.80445600323003,456.8518736471975,C 392.6490773451978,417.70317074577537 360.29785673866024,384.9838614752094 331.26232284401976,349.9734305850609,C 300.07541744459115,312.36892156771296 272.4663352832056,270.9576393738007 257.1701652209213,224.55990938348336,C 241.8739951586384,178.16217939316647 239.0189396490437,127.6039754684132 250,80M 250 , 80C 266.05414246553096,124.03347315542193 267.445465017349,173.07298677475205 255.03809764056976,218.26966235172853,C 242.6307302637923,263.4663379287027 216.64788915748835,303.7709552140775 187.17109737063083,340.20995896537164,C 163.56066166281875,369.3970143799368 137.66657359111213,397.0233270012376 118.33115970913455,429.20218105321175,C 108.66345276814432,445.2916080791988 100.73506291107346,462.5355006624635 96.13383780599713,480.73338370016455,C 91.53261270092082,498.9312667378656 90.33808972821662,518.0975992125526 93.72379144776856,536.5602979152791,C 96.7915773220156,553.2893576412426 103.64993663952731,569.3685415682892 114.00361345710877,582.8620261383387,C 124.35729027469023,596.3555107083881 138.19223620526324,607.1935617123593 153.87268362326736,613.78114990959,C 169.5531310412715,620.3687381068207 187.02301582924122,622.6675283325607 203.86099735082075,620.2685435964626,C 220.6989788724003,617.8695588603645 236.84542337079927,610.7809954638508 250,600,C 272.2029049745168,618.110304980383 303.07004949698774,624.9926772626661 330.90727107772,618.2073084108553,C 358.74449265845226,611.4219395590444 382.7167947407121,591.3303547979627 395.5488372663241,565.7121811626156,C 404.43850867835283,547.9646444520738 408.2301565084155,527.8549831319591 407.55704143222613,508.01693299591807,C 406.88392635603674,488.17888285987704 401.86433936801205,468.6374074245175 394.266302525048,450.29970982534127,C 379.07022883911725,413.6243146269836 354.206099027231,381.9458663071347 330.6472211255215,349.99301760101304,C 301.83199662672865,310.91099881029334 274.77910944218416,269.73636460591337 259.386784327094,223.68424540141456,C 243.99445921200677,177.6321261969181 240.29756270510353,127.57713806243812 250,80M 250 , 80C 253.5870830102418,118.47753059433697 249.16309113403327,157.64173767449753 237.44758760716684,194.46746919842633,C 225.7320840803005,231.29320072235512 206.7111629181138,265.5122194524436 183.94402098264044,296.73792638199944,C 152.1384621567532,340.36004906400706 112.74703207998347,378.20640218865225 82.77380788754218,423.10728181278375,C 67.78719579130187,445.5577216248493 55.33512658705095,469.97704250509605 48.762667105134675,496.15763772821737,C 42.19020762321839,522.3382329513387 41.74302453267382,550.3330182457938 49.702580933761965,576.1257740461392,C 56.1018019053711,596.8622994899745 67.94614076471812,615.9886680331347 84.15198561272875,630.4221052290529,C 100.3578304607394,644.8555424249712 120.87292737285559,654.4656181779587 142.38703304702852,657.311101189124,C 163.90113872120148,660.1565842002889 186.28387202106944,656.1913155300763 205.44837147864936,646.0091999804114,C 224.61287093622926,635.8270844307465 240.44549057648598,619.4849907929743 250,600,C 259.5954304289619,616.927420121975 274.12989826626745,631.014097612091 291.3435925029909,640.0859534215429,C 308.5572867397143,649.1578092309949 328.38018634972696,653.1788972955308 347.77585392644914,651.6239322296274,C 367.1715215031713,650.0689671637239 386.05643087013686,642.9602794699956 401.8135921535613,631.5444262215065,C 417.5707534369857,620.1285729730173 430.15501664327786,604.4826940535494 438.38242325787985,586.8497811489583,C 450.2254859179561,561.4678227517506 452.90021563028535,532.3178782681542 448.3098525425845,504.68763194331757,C 443.71948945488367,477.0573856184809 432.20005913367726,450.93244065251434 417.5815297421948,427.04100821997827,C 388.34447095918074,379.2581433548557 347.71350313478473,339.53101993532084 315.265453889463,293.8677756224913,C 293.212176489364,262.83280688811953 274.7373597796824,229.01626856456207 263.19590949485473,192.73526453005385,C 251.65445921002706,156.45426049554567 247.02467854942375,117.95607712468305 250,80M 250 , 80C 228.04423683021247,164.67622358584802 182.95597616904516,241.14322934904806 135.4864409900613,314.6194949524355,C 114.5343580646817,347.0504173148471 93.7964302220818,380.0625720441702 80.72549757502085,416.39307195711865,C 67.65456492795913,452.7235718700672 63.05764659178387,493.17412286694685 74.65341372096421,530.0020021009537,C 85.5881883163293,564.7305848469607 111.5354074494092,594.9214070066027 145.21017961069353,608.7653036720392,C 178.8849517719778,622.6092003374755 219.15560262513605,619.3459790545522 250,600,C 272.15239750562444,617.590024993454 302.02265663926005,625.0202628452313 329.8610434910764,620.0040977755635,C 357.6994303428927,614.9879327058958 382.8802983908695,597.7355175883389 398.57455528572103,574.2019671754509,C 410.3037563035617,556.6140211321565 416.89458215020255,535.8145312616144 418.5943859811652,514.7427332966804,C 420.29418981212785,493.67093533174636 417.2261517819866,472.37489803187225 411.1132101630876,452.1377552665833,C 398.88732692528833,411.6634697359992 375.2122735624122,375.7684699598762 351.91921345050326,340.48287288715323,C 325.8731314971506,301.02684827237016 300.12128187173994,261.0455977138454 281.76687056750336,217.476206517754,C 263.4124592632677,173.90681532166386 252.2852484132804,127.22238773307204 250,80M 250 , 80C 247.92445199098557,155.98204698569515 216.89919519925306,228.7281968315009 173.7511384654537,291.30474646289986,C 148.50727705689837,327.9152885335745 119.8301377875645,362.37976755231585 98.8843529602016,401.6080536159307,C 88.41146054651706,421.2221966477382 80.00580697827354,442.0767365435369 75.66682080875884,463.8842875615117,C 71.32783463924414,485.6918385794865 71.16420175599171,508.4694477457603 76.55749690022826,530.0404572230186,C 81.02209583552138,547.8970557160997 89.30227806619017,564.8422232450996 101.02452712538128,579.0330523396387,C 112.7467761845724,593.2238814341779 127.8956415361526,604.600701954227 144.8883064756161,611.6746041058866,C 161.88097141507959,618.7485062575462 180.66897891836973,621.4875012549803 198.96433570549902,619.4699102588249,C 217.25969249262832,617.4523192626696 235.01198913645715,610.6841136155717 250,600,C 276.9813741123918,611.1745238212789 308.23296265084934,611.551332498032 335.52737113118826,601.1648125161721,C 362.8217796115272,590.7782925343121 385.74005333352363,569.852017884785 399.5483077978124,544.1188361873224,C 409.2703930990579,526.0006744615082 414.626450806991,505.66908220627124 416.0136584222797,485.1541514981373,C 417.4008660375685,464.6392207900034 414.8926446086095,443.96519504583114 409.7982551393549,424.0445042228953,C 399.60947620084494,384.2031225770219 379.57802222795345,347.6541295704655 358.937267043779,312.0857990904311,C 315.9017761882435,237.9266635616194 273.3898056805509,162.48968326877983 250,80M 250 , 80C 260.12759868108583,127.40606753535539 256.7611335314997,177.43772308247958 241.55262699606973,223.46602766969625,C 226.3441204606414,269.49433225690984 199.3434766954234,310.6385997453606 170.38345493296293,349.5130210751925,C 146.2307020586727,381.9344156173586 120.5605015520124,413.93850666018955 104.85014064351807,451.19017582534485,C 96.99496018926779,469.8160104079245 91.80206129422571,489.71022272307573 91.13757421377409,509.91378752700007,C 90.47308713332247,530.1173523309244 94.4663552084983,550.6022849756015 103.75376082863878,568.556940937592,C 116.9500295311936,594.0683134593738 141.33977491965015,613.8357592961064 169.37319114042464,620.088695455062,C 197.40660736119906,626.3416316140174 228.22281183611344,618.7276723404119 250,600,C 258.0822010706922,617.3461242929422 271.5511295665817,632.1336139030361 288.06258900992884,641.8073778645974,C 304.57404845327596,651.4811418261585 324.0436880156624,655.9938145417386 343.13450644181955,654.6706917383696,C 362.22532486797655,653.3475689350005 380.8356513269845,646.2155248785909 396.08992634962414,634.6605650921199,C 411.3442013722638,623.1056053056489 423.1913123510539,607.2222341325663 430.42490474298046,589.5054301532716,C 440.4303572461974,564.9996754577923 441.51791403816793,537.3376426162503 435.78072582594956,511.4972524410473,C 430.0435376137312,485.6568622658443 417.80417983696805,461.6055869873951 402.7698201114526,439.8200615029607,C 372.70110066037194,396.24901053404875 332.2600249325588,360.84328350134575 300.0219752262556,318.85194483374374,C 274.17524883427194,285.18555833508645 253.51057554747953,246.97641797214993 244.07217957542173,205.59531689286882,C 234.63378360336415,164.2142158135877 236.50248538906214,120.24047644333442 250,80M 250 , 80C 256.63721391253694,119.22217941231983 254.21234237213991,159.88738152587757 243.45479009334642,198.18499287883276,C 232.69723781455303,236.4826042317879 213.59658337148534,272.0381741078886 190.74561025754346,304.5998846606049,C 160.5870303735219,347.57463868827165 123.43900484307099,385.9315989169243 99.01654409619995,432.4064613204528,C 86.8053137227316,455.6438925222425 78.07772885029628,481.0436414657619 76.4579389606162,507.2441879639767,C 74.83814907093611,533.4447344621915 80.67651844065647,560.3845379178629 94.90819062031576,582.4424585601749,C 111.15808311128964,607.6284545897763 138.57524731531296,625.6125308214893 168.33453481036332,629.1871930094788,C 198.09382230541368,632.7618551974684 229.2944722855392,621.6719755453212 250,600,C 256.43322915157495,620.5468807784857 270.1145245978849,638.740814825174 288.05706763204995,650.6414827269817,C 305.99961066621495,662.5421506287895 328.05570065422455,668.0586642225207 349.50233904999845,666.1606524831216,C 370.948977445772,664.2626407437227 391.60907502775717,655.0065608860397 407.5911389846669,640.5796977925182,C 423.5732029415766,626.1528346989968 434.8129378980863,606.7290030231557 440.17738130795107,585.8775403899416,C 446.0100202755575,563.2062128739434 444.98704251604426,539.0460466114329 438.93644036715983,516.4319142535463,C 432.88583821827547,493.8177818956597 421.97605438788446,472.71450845220807 408.7808313195339,453.37814744915045,C 382.39038518281995,414.7054254430299 347.4675708171307,382.7507217232608 317.12332457313914,347.0959633516005,C 285.89262908636,310.39961926030975 259.35562875512494,268.76960110660826 246.44618000592763,222.34413241488494,C 233.53673125673149,175.9186637231617 234.46393300854191,125.61368909320122 250,80M 250 , 80C 251.48650290089543,118.24758266199095 245.77566534105273,156.72242488966273 233.62952425251203,193.02061392186465,C 221.48338316397138,229.3188029540665 202.86026379599477,263.19012429520075 181.24030110753642,294.7759515553797,C 150.41277213591255,339.8136335804131 112.86501283000388,380.7043442187212 89.03199506590478,429.80339318039114,C 77.11548618382176,454.35291766125493 68.96702900884382,481.0709414297777 68.28537301603174,508.351294823397,C 67.60371702321964,535.6316482170163 74.75248534824773,563.3929192642986 90.44203434850431,585.7204894039677,C 108.03206538126693,610.7526080222916 136.51707405273075,628.1331451159535 166.97125827840787,631.0586907751272,C 197.42544250408494,633.9842364343007 228.98789400148493,622.2375258462481 250,600,C 264.13648381273134,609.6771004866172 280.74811931846085,615.7036342828492 297.80007154358873,617.352080135056,C 314.8520237687166,619.0005259872628 332.29945827894926,616.2660941602674 348.06089384341135,609.5531516338478,C 363.8223294078734,602.8402091074283 377.85482501441635,592.1772345208652 388.714939947684,578.9279193667934,C 399.5750548809516,565.6786042127216 407.24871724597836,549.8958981813569 411.3798723103426,533.2700145582264,C 416.7076804603624,511.8281860893095 416.1360271281748,489.1335862959983 411.20682911001506,467.59662841723457,C 406.2776310918553,446.0596705384708 397.12064712656263,425.65734380077186 385.94523190640786,406.5982870971727,C 363.5944014660895,368.4801736899698 333.69065466471073,335.4039539269969 308.43320328861967,299.1463844954887,C 286.24404466650003,267.2934098073922 267.5441265545362,232.65070027555672 256.92313053779884,195.3121786062331,C 246.30213452106162,157.97365693690952 243.74531150857518,118.31252574176403 250,80M 250 , 80C 231.57954444040183,157.7648038071424 192.44955035326586,228.96191883215548 147.93009944563897,295.32980553250087,C 124.17841570333891,330.7379029688812 99.44400989462669,365.9478369081415 83.03128497538786,405.2988001159696,C 66.6185600561468,444.649763323798 59.57725988995334,489.43537439168716 72.33448897260907,530.1186504494383,C 83.37131503717916,565.3154975607503 109.76761974905915,595.8734251249116 143.95669108670086,609.7203373159487,C 178.1457624243425,623.5672495069857 218.96162898932772,619.9311088793498 250,600,C 278.38107046710326,612.0279712985727 311.56384455543315,612.1274967210253 340.081661712889,600.4274386445932,C 368.59947887034485,588.727380568161 391.9428763174499,565.5274083382076 405.02530989047034,537.616708127975,C 413.98239087932916,518.5072358082091 418.31931142961014,497.3684525948921 418.615208830637,476.2659959391152,C 418.9111062316639,455.1635392833383 415.24588512882946,434.11546882395993 409.0672952669824,413.9356209677456,C 396.710115543287,373.57592525531504 374.83338853180413,336.8932873222192 353.0173048884358,300.75932236970874,C 310.88315765025453,230.97256208328065 271.297467044104,158.6886025563386 250,80M 250 , 80C 261.48271116249236,127.38084934884165 259.0445162779888,177.89421747475845 244.01787856196256,224.27306717599782,C 228.99124084593726,270.6519168772362 201.51389102360648,312.0633986911152 170.31469353115654,349.52548107431755,C 141.1174909066308,384.58369083576093 108.45433409679299,417.17828877497914 84.8465937698801,456.2196682259159,C 73.04272360641835,475.74035795138445 63.66885276185578,496.91557549478136 59.097573160201684,519.2648949698208,C 54.526293558547586,541.6142144448602 54.91264743988399,565.1546377487263 61.75312050374913,586.9169125943487,C 67.97637464903589,606.7155677281901 79.59145850152633,624.8921712001378 95.43278847523247,638.2999264906318,C 111.27411844893862,651.7076817811259 131.28198481086577,660.2051986541388 151.96469395054194,661.920185508073,C 172.6474030902182,663.635172362007 193.85914434234664,658.523233565044 211.4175110392421,647.4589036620193,C 228.97587773613756,636.3945737589946 242.75931091981803,619.4496287602038 250,600,C 273.01620628813015,615.4276146990361 302.03892420156745,621.582519410645 329.3547027395105,616.9343703095808,C 356.6704812774536,612.2862212085166 381.8692420255584,596.9537826292766 399.2289921116697,575.3575763849514,C 414.21829554691317,556.7102982363289 423.4201937505495,533.7015779827055 426.77754170283805,510.0134287398212,C 430.1348896551266,486.3252794969369 427.8066492833327,462.037529435643 421.79276326634266,438.88081605052406,C 409.7649912323623,392.5673892802739 383.9583298710519,351.20799619327516 358.51641014013956,310.6825780003615,C 313.1140792247299,238.36301773368015 270.9385040774387,162.78326821718025 250,80M 250 , 80C 248.8047390622714,127.9257686334785 237.82359854880877,175.4693922658211 218.9066926111394,219.52002923697444,C 199.98978667347075,263.57066620812543 172.97434902728017,303.57014802105215 145.89780321941083,343.13235997808374,C 126.659365503067,371.24211799732666 107.44328099390106,399.72138675862976 94.52506399939126,431.23956645462096,C 81.606847004881,462.75774615061215 75.55880304820167,497.97775380467056 83.2581665161075,531.1590103187799,C 87.28920396210322,548.5312110300599 95.02998628412251,565.0885947051819 106.18080481597823,579.0062764989879,C 117.33162334783397,592.9239582927938 131.87848822511367,604.1394208871853 148.2793998696447,611.1431854229405,C 164.6803115141757,618.1469499586957 182.88545166642737,620.9046869265319 200.61479548179568,618.9777753249072,C 218.344139297164,617.0508637232824 235.54528372243908,610.445276338098 250,600,C 257.0051873604621,619.3119150501789 270.5236457795186,636.1926539855184 287.82872111392726,647.2632041313306,C 305.13379644833594,658.3337542771427 326.10519566092114,663.5218684187464 346.586386569894,661.9270230310336,C 367.0675774788666,660.332177643321 386.9136082028255,651.9968293599786 402.6255497885948,638.7621172563526,C 418.33749137436405,625.5274051527266 429.8544482753074,607.5325451030249 435.97231587073793,587.921466373254,C 443.4773527389892,563.863758912726 442.88159186212613,537.6632557379148 436.3400290135164,513.3259012771719,C 429.7984661649067,488.9885468164289 417.5576834183896,466.46787168212137 402.83776414980434,446.0124850229431,C 373.3979256126029,405.1017117045692 334.709060802117,371.7645633600848 302.8316457539594,332.7232278750971,C 274.22089539575813,297.68268580087397 251.0242331474139,257.44682832796053 240.83336548420488,213.37233637189058,C 230.6424978209964,169.29784441582066 233.6197987895879,122.16756612873353 250,80M 250 , 80C 263.3368513411043,121.72538753576207 264.33896600996695,167.18119008170794 253.66833342624162,209.6666837115033,C 242.9977008425169,252.1521773412981 220.7455110302772,290.94072875348826 194.40564990393582,325.9420327941841,C 166.63599354164813,362.8432974128507 134.066789279121,396.5647206350379 112.26133257810939,437.2756430391877,C 101.35860422758982,457.6311042412714 93.37322110382483,479.7905413120464 91.11827258393542,502.7716094640581,C 88.86332406404601,525.7526776160698 92.573300754538,549.5253794818811 103.29189983008663,569.978396865446,C 116.65311236264294,595.4739966418244 141.29509657385938,615.0836239920086 169.4521375321706,621.0609689518878,C 197.6091784904818,627.0383139117671 228.4164385752536,619.044618256127 250,600,C 275.29415812854944,611.1086784005905 304.6408266415202,612.6318366906452 330.9832428448319,604.3087194974709,C 357.3256590481436,595.9856023042965 380.3285128431656,577.9625592754282 395.44700003116145,554.8405239760388,C 407.7311771813839,536.0532488896185 414.90543844511456,514.1174158532006 417.2267937144004,491.7908840324132,C 419.54814898368625,469.4643522116258 417.1260145956542,446.792611767292 411.6037083507583,425.0356164056053,C 400.55909586096544,381.5216256822269 377.8205758475675,342.00521442075643 354.9653216778468,303.3647148049205,C 312.9448424999077,232.32230602333274 272.7032613845025,159.3555696743511 250,80M 250 , 80C 241.3590470778331,155.35746016439202 209.21094700645628,226.17140352473928 168.5642662094166,290.21248572995034,C 144.46221106949451,328.18659983381815 117.97140601668987,365.11546335218316 100.94972825855014,406.74724076126654,C 92.43888937947702,427.56312946580965 86.46248947151282,449.5557538096942 84.99556051413421,471.99642493199957,C 83.52863155675561,494.43709605430496 86.69261411128302,517.3142094585858 95.43334994546089,538.0346133654257,C 107.51455187677331,566.6737792715711 130.70956549588448,590.7260062964002 159.4746365934949,602.5042892211006,C 188.2397076911053,614.282572145801 221.96017834505457,613.4136372943257 250,600,C 264.56417258638595,610.1533549194156 281.7477772824902,616.5124820904706 299.41186968230323,618.2973011111343,C 317.0759620821163,620.082120131798 335.1724689332268,617.2873596677647 351.5087567363564,610.3352779608962,C 367.84504453948597,603.3831962540277 382.37515856119535,592.3045122965378 393.58677655672915,578.5384176735928,C 404.79839455226295,564.7723230506477 412.67698980427633,548.3756908989596 416.86756541029877,531.1233051121803,C 422.1232313132398,509.48599695965544 421.5802599581086,486.6428246255118 416.74846987924286,464.9069341950641,C 411.9166798003771,443.17104376461634 402.9178228438104,422.52017053301046 391.8972849201831,403.17222821232565,C 369.8562090729208,364.47634357095234 340.25487904804197,330.6949481661142 314.96759317549527,294.03797494295594,C 293.34847565544464,262.6984545201112 274.7630121066043,228.9842623655009 263.1615685296198,192.72190875173635,C 251.56012495263536,156.45955513797185 246.90709388985675,117.9471436932148 250,80M 250 , 80C 224.3774131883571,157.70769145821424 183.7275217066931,229.36917782531606 142.5643907767315,300.08409081209726,C 120.61810143979449,337.78603198573666 99.14817529288739,376.47168656841836 88.44970154073388,418.7637501654528,C 83.10046466465593,439.90978196397094 80.59340317516983,461.88209528371897 82.39641763271015,483.6195775400943,C 84.19943209025047,505.3570597964697 90.40093348492525,526.8275100158614 101.36402137128138,545.6843310622723,C 115.80779375366716,570.5280278266373 138.73207184566326,590.5108548746601 165.67016950309107,600.5193874420634,C 192.6082671605189,610.5279200094665 223.2037657001535,610.3823724120076 250,600,C 262.6480110128788,617.6833228344829 280.59288149104003,631.5232628958514 300.9033634139057,639.2793194397011,C 321.2138453367714,647.0353759835508 343.79640892957934,648.6735629970057 365.0412730026936,644.0553555996115,C 386.2861370758077,639.4371482022175 406.0926930428372,628.6077872696424 421.69446676946444,613.4665605811088,C 437.2962404960917,598.3253338925751 448.6556565249874,578.9796596824478 454.9440054267152,558.1679140290776,C 461.8323074613155,535.3705800757552 462.68216325427795,510.95139784598024 458.84081802031363,487.4479681581096,C 454.9994727863493,463.944538470239 446.5879646509533,441.3449058546197 435.7182807535953,420.1548819690576,C 413.97891295887416,377.77483419793066 383.06181544500055,340.9426125398504 354.56413589714674,302.77782744173936,C 304.9912287009554,236.38858523503453 264.4269388173607,161.58963197013975 250,80M 250 , 80C 242.698637120407,156.29602422660886 208.82126878421784,227.98784789368165 163.81060038128794,290.023587130095,C 136.51801158208656,327.6394675848652 105.74614226121815,362.9609242157934 82.82407635160394,403.38886950349206,C 71.36304339679371,423.6028421473411 62.00359490415092,445.15225262128763 56.8390867171426,467.8081088537024,C 51.674578530134276,490.4639650861171 50.81685712130766,514.2509214101747 55.80227370302124,536.9468591071349,C 60.290853448479005,557.3809641775824 69.55665841684394,576.8286572058452 83.11763842980223,592.759753189787,C 96.67861844276051,608.690849173729 114.5114390766148,621.007577065752 134.3245509811719,627.726252144882,C 154.137662885729,634.4449272240118 175.8480052067057,635.5159117224823 196.19763864134364,630.6587091080871,C 216.54727207598162,625.8015064936919 235.45199600925,615.0351447630725 250,600,C 273.01811175592303,615.3282918591714 302.08606144137474,621.2433260129756 329.2844428795734,616.239522732435,C 356.4828243177721,611.2357194518945 381.3860211647743,595.4436955304295 398.2045312487333,573.4908433539157,C 413.9542265020448,552.9330929946341 422.6383578553555,527.3745015244253 424.4531334557867,501.54079118450704,C 426.2679090562179,475.70708084458875 421.459258384788,449.69141744529463 412.81705806726296,425.27858528516845,C 395.5326574322104,376.45292096488123 364.15956064861365,334.1407430675216 336.0745721379401,290.6214436477733,C 294.6071771263619,226.36533832733465 261.2602029853586,155.64125692190794 250,80M 250 , 80C 253.01550375796472,118.4402887120493 248.28025926230615,157.4306562012235 236.5271441201384,194.15412749187018,C 224.77402897797063,230.87759878251683 205.97853092045824,265.06985547076494 183.69347103683887,296.53610985802084,C 151.47803875237253,342.02393859854635 111.46040349226331,382.0667150946881 83.8181700611459,430.47005766255245,C 69.99705334554888,454.67172894650236 59.558761132887355,481.1542448666385 56.3805202845606,508.8425627157342,C 53.20227943623385,536.5308805648299 57.646158459973094,565.4043853231603 71.19764301985438,589.7580590999403,C 79.94599069906667,605.4799089477191 92.39666622684204,619.1766286011845 107.43323059598465,629.0565011573013,C 122.46979496512726,638.9363737134182 140.0551246880836,644.9454271641252 158.00770995999045,646.1348941907355,C 175.96029523189725,647.3243612173458 194.21911132099004,643.6798814178509 210.30705973360347,635.6245685359346,C 226.39500814621692,627.5692556540182 240.26136506955083,615.1284215780734 250,600,C 264.2375752236606,615.6163301835884 283.14474026792567,626.9163983780992 303.637301547966,632.0771394911601,C 324.1298628280063,637.237880604221 346.1120401845704,636.2369572868828 366.0965146650169,629.3667974348396,C 386.0809891454634,622.4966375827964 403.97424243060703,609.8152934703174 417.3756878039437,593.4757837298843,C 430.77713317728035,577.1362739894511 439.66477825329747,557.250074632022 443.642199667752,536.4953538306218,C 451.0205723592085,497.994011070375 441.3715759371954,457.8205238611954 424.17748669301227,422.5904646364495,C 406.98339744882816,387.36040541170337 382.9162370532164,356.02632422687526 359.6661288379226,324.4632723165607,C 332.8412839852703,288.0473570558523 307.0207272803996,250.6032896994315 287.65930785846245,209.7275435458529,C 268.2978884365257,168.8517973922747 255.2796999371589,124.9201063469075 250,80M 249.11350079213594 , 576.4627301097361C 249.63407461082778,584.297852644815 249.92973659652307,592.1479171365464 250,600,C 250.45721944931768,651.0952334383275 241.26327730884896,702.2603676451964 223.04626788440703,750M 250.09345691213286 , 576.9956233251459C 250.4170556325765,584.6597192755028 250.3858588781655,592.3387862714651 250,600,C 247.24039485431683,654.7918579143751 225.72893863358044,708.467395975052 189.8847491856933,750M 249.0851494798428 , 576.4037926767144C 249.0073421340218,584.277823773737 249.31277321965993,592.155630104825 250,600,C 254.90956365725395,656.0403558958376 280.0169642845091,710.0967990954501 319.6699573847519,750M 249.33542202054696 , 575.2527810834661C 249.73855421267183,583.4956428462013 249.9601518151757,591.7473823712681 250,600,C 250.24422395179587,650.579139271586 243.62135020434184,701.1869779899928 230.37001604344783,750M 249.01060223862032 , 576.1452310909443C 249.23970814500487,584.1005714501415 249.56954264437806,592.0530108712794 250,600,C 252.7319140466949,650.4358700023039 259.5252235417135,700.651188414465 270.2925413295003,750M 249.40267592212766 , 576.8019999663304C 250.07646353548043,584.512712062273 250.27607241111775,592.2648300084456 250,600,C 247.8829674469354,659.3163460604699 215.96840862773564,716.8222088697464 166.75311717768508,750M 250.99112191559138 , 575.8670438100935C 251.14564566717883,583.9215312690109 250.8144725507975,591.9853084725823 250,600,C 243.83146126375374,660.7005541163204 208.27824509171313,717.7345049559989 156.49459931686977,750M 250.87667015622955 , 576.4810919217535C 250.95095756125508,584.3286759691832 250.6583088081808,592.1797235654301 250,600,C 245.3311007301586,655.4634580026659 221.6539487976343,709.1509163770644 183.84725413687585,750M 249.76241108291805 , 575.028634205626C 249.2849619994727,583.3453110462398 249.36439439324653,591.6939132672992 250,600,C 254.7398848076141,661.9407599567076 292.6005332646655,720.367900402307 347.1996442962228,750M 249.2449862247959 , 575.3442910712427C 249.84421786462795,583.5473088058052 250.09618947983242,591.7756868921658 250,600,C 249.38353073838965,652.7088433960985 234.13603042122898,705.1716375745082 206.40481824516823,750M 250.28487004089473 , 576.9585661478483C 249.718525585406,584.6235635921582 249.6233302650321,592.3233437113349 250,600,C 252.9533907984815,660.1911009600509 286.8751684682627,718.0363248083971 337.9634706541575,750M 250.99624154444123 , 575.9133813811623C 250.8830239933395,583.9493158968615 250.55077908574066,591.9821633745008 250,600,C 246.45037310593617,651.6728562411004 233.73500952768543,702.702988587857 212.62395472978156,750M 249.06379145217875 , 575.6485550470039C 249.1454316873647,583.7723801566117 249.45766875002676,591.8938864827343 250,600,C 253.46193707702915,651.7448606131662 266.39749173783287,702.8410670748406 287.97411458668546,750M 249.82211388978976 , 576.9840510819029C 249.61840089135808,584.6550614594921 249.67774271410156,592.3330547516956 250,600,C 252.2026252807986,652.4034930143835 266.90108919187753,704.2400162172866 292.5331301258716,750M 249.765485626507 , 576.9721126522297C 249.47072692718774,584.6458339122087 249.54902137546185,592.3338732761005 250,600,C 253.2702613827454,655.5907460272123 276.8794754386028,709.7613424195969 315.3746191518111,750M 250.22566823654017 , 575.0257957878264C 249.68480803376377,583.3376358637685 249.6094283062113,591.6797434559386 250,600,C 252.6347502828763,656.127462977203 277.3867944422194,710.9205780238489 317.76045896899126,750M 250.82122288972485 , 576.570607540602C 250.44198385064317,584.3762314400973 250.16820957541972,592.1869793134875 250,600,C 248.92013422434582,650.157748884337 252.20157353405185,700.4086377778222 259.79516795213783,750M 250.15817924982707 , 575.0125895863805C 250.64845182929196,583.3333633408206 250.59557601680478,591.6861000557524 250,600,C 245.65487675612508,660.6554308361987 210.53827173957887,718.3101323147521 158.63727298212896,750M 250.99043988038395 , 576.1379450736526C 250.25139433158836,584.0679610698853 249.92066510602373,592.0360155701874 250,600,C 250.5439179040233,654.6008635246048 271.10286840950954,708.7822854382731 306.91697387965706,750M 250.1382142713391 , 576.9904023501579C 250.49706874563637,584.6555745328826 250.45091171573554,592.3396919285741 250,600,C 246.65041831837738,656.9043267145497 219.9321826600748,712.0834432277692 177.36862055801055,750M 250.934785871385 , 575.6447882678473C 250.15976363469258,583.7365593761025 249.84749031165546,591.872628965605 250,600,C 251.0508399217882,656.0001533989961 275.20651062978044,711.2186167899042 315.61846135681185,750M 249.07857459658484 , 576.388555306155C 249.06562344305405,584.2671864523451 249.37310360957346,592.1463386000054 250,600,C 254.30467106385413,653.9282559130107 274.0337074207508,706.5387586539936 306.2502789244247,750M 249.50924330869526 , 576.871296660122C 249.22523029821497,584.581700924875 249.38918323905128,592.308582692339 250,600,C 254.7481093625679,659.7882914561789 288.1016177152683,716.6657282300519 337.96152809760986,750M 250.79189193812797 , 576.6106612467873C 250.11505243714006,584.3858221279851 249.8505942616952,592.1968649656715 250,600,C 251.06238728966312,655.4861652173216 273.95990075650275,710.263893555826 312.7011583759248,750M 249.2684722989117 , 575.3181882792585C 249.13577241812627,583.5508738073248 249.37995523869904,591.789624566661 250,600,C 254.11592146708716,654.5013241108941 275.26343075523914,707.594295644665 309.7466350363363,750M 249.58012632920563 , 576.9075825585442C 249.26725211566242,584.6044100859527 249.4075327622866,592.3196336785014 250,600,C 254.63891829368862,660.1359696589069 288.70940151446723,717.3051990155241 339.39376200503665,750M 250.99361314399104 , 575.8871597585598C 251.14526593502146,583.9349982223068 250.8132658043491,591.991922750181 250,600,C 243.84444553836852,660.6126009240802 208.47612155386895,717.5896060294405 156.88789998939708,750M 249.23538807937734 , 576.6444909703338C 249.70632696829838,584.4205846460999 249.96132857488095,592.2097547655887 250,600,C 250.2535404899906,651.0749885166965 241.10918848909085,702.1817732748528 223.16104296864322,750M 250.86189761277424 , 575.4929176545234C 250.77561709435963,583.667364790525 250.48820197437377,591.8396881714385 250,600,C 246.93187218573811,651.2838558802944 235.8730626610452,702.0818529745602 217.34474736030108,750M 250.8957928679468 , 575.555528248664C 250.10405527321532,583.6756347658151 249.80472724186217,591.8437234709262 250,600,C 251.36882758829455,657.1740596959021 278.3555735912257,713.2559053454702 322.18043296459973,750M 250.99956061136834 , 575.9703590789454C 250.19028337637968,583.9509686950904 249.85631028838176,591.9797498321342 250,600,C 251.02010128541332,656.9384363948956 277.4076731434639,712.9554256843386 320.6595593393225,750M 250.9104244235975 , 575.5863245608969C 250.55013482923366,583.7219652360405 250.24665015841123,591.860121531238 250,600,C 248.485037926476,649.9963480368374 249.11549448765032,700.057660257673 251.8890532425314,750M 249.17238722227617 , 575.4387005343417C 249.82950380562335,583.6070224173261 250.1057740155192,591.8059719035268 250,600,C 249.31028059761692,653.4307044510853 231.90838587439967,706.5263960000893 200.83811638325759,750M 250.62633630657032 , 576.7795529687403C 250.30431115534873,584.5160944708374 250.09550258310705,592.257348395523 250,600,C 249.38027478307876,650.2427922787324 253.54563618259994,700.5435192362348 262.42137535022215,750M 250.96446920069152 , 576.2641953082805C 251.1095241461348,584.1859146603385 250.78729018732454,592.1161651088503 250,600,C 243.96474928357836,660.4363180705402 208.9879867133933,717.330934908278 157.78539909161,750M 249.1701136557254 , 576.557932483C 249.80118755866064,584.3540346359968 250.07819624928436,592.178788559467 250,600,C 249.46470505262081,653.5403552576668 231.7820049102673,706.7786672100846 200.17864158195616,750M 250.92435845815754 , 576.3815251509831C 250.0960930591753,584.2224972880808 249.78707512384457,592.1182787017677 250,600,C 250.82068723460378,630.3789213029389 259.5465059966488,660.5104972392278 275.0863280893671,686.6268966157472,C 290.6261501820854,712.7432959922667 312.9454333937083,734.7864667803309 339.2532420071452,750M 249.71626575903682 , 575.0410970432285C 250.2127131977224,583.3496880777651 250.307438471055,591.6822703443142 250,600,C 248.00038448005697,654.0994796556325 228.4684778681425,707.4127138321182 195.04580265964458,750M 250.20044769656354 , 576.9797044048805C 249.98754639272192,584.6509369966234 249.92071434725474,592.3262232097185 250,600,C 250.52274980086435,650.5950969702684 257.42971300607775,701.1208918183733 270.5052584308007,750M 249.98039209680104 , 576.9998077465854C 250.06421676704358,584.6662128877508 250.07075317760518,592.333463079611 250,600,C 249.53693416262027,650.1759985770942 245.7585273812244,700.3211470601267 238.69759020852933,750" stroke="hsl(210,80%, 90%)" fill="none" stroke-width="1"/></svg>