<svg viewBox="0 0 500 800" width="500" height="800" version="1.1" xmlns="http://www.w3.org/2000/svg">
<rect width="500" height="800" fill="hsl(210,80%, 20%)" /><path d="M 250 , 80C 262.2505259072604,126.97690523111673 260.07167597493833,177.4060444997764 245.07317406514468,223.57908804857982,C 230.07467215535314,269.7521315973791 202.38501313257933,310.6638771076039 172.61932265970106,349.0163044202284,C 151.0789569325321,376.7705845230639 128.44077144093083,404.0391452005482 112.25532413099035,435.22117071307684,C 96.06987682104858,466.40319622560554 87.02165019551906,502.5564317803321 94.19898070181706,536.9479037827087,C 97.62977647897604,553.3871797520237 104.69812336902281,569.1105440646903 115.09955918461881,582.2950155002051,C 125.5009950002148,595.4794869357197 139.22157662564715,606.061422281388 154.71255153098193,612.5460078920615,C 170.20352643631668,619.030593502735 187.41365963745145,621.3831002338225 204.06527320061053,619.2050461015564,C 220.71688676376962,617.0269919692903 236.755912991241,610.3254207354609 250,600,C 257.85241312523374,623.115241369176 274.4260478875701,643.1446014693068 295.6485681941766,655.2102306398178,C 316.8710885007831,667.2758598103288 342.51567571038544,671.2621537591127 366.44562391440905,666.431796174279,C 390.37557211843244,661.6014385894467 412.3462463907808,648.0737270664087 427.92353021927045,629.276838920461,C 443.50081404776006,610.4799507745136 452.6452186416985,586.6779939033937 454.9062125826733,562.3703267622742,C 458.7683861844456,520.8485744692639 442.8401994341804,479.60416047774186 419.9344040954169,444.75739824204754,C 397.0286087566511,409.9106360063533 367.6890653405228,379.8603317005257 340.7951628452041,347.99043513676634,C 309.3215749715507,310.6935054628964 281.0938787519651,269.9027283084929 264.2841063098345,224.08701869724746,C 247.4743338677051,178.2713090860024 242.1738964015806,128.17052832598907 250,80M 250 , 80C 235.91787402444248,157.98199807045555 198.02018167977693,229.9071364479419 150.8224429520786,293.5614509446351,C 120.92029067559025,333.88967548346403 87.76728303336101,372.262931184672 64.43118829801642,416.71437759222465,C 52.76314093033899,438.94010079600133 43.738501874828636,462.73175493473616 39.78330655642237,487.52051309843847,C 35.8281112380161,512.3092712621408 37.094223075348694,538.1081310880633 45.06103380111031,561.9126690622637,C 51.89579636681683,582.3346886935079 63.67893307382526,601.1618599336588 79.50697504547985,615.7648032154787,C 95.33501701713443,630.3677464972985 115.16914836729903,640.6473717371942 136.29293137010148,644.8376768333682,C 157.4167143729039,649.0279819295421 179.73529569536927,647.0891269035405 199.7763731965107,639.2069902806603,C 219.8174506976521,631.3248536577801 237.49422436923953,617.532211526832 250,600,C 260.4500689436401,615.6948371403895 275.166283543268,628.5172554737159 292.1393268616836,636.729907560671,C 309.1123701800993,644.9425596476261 328.2889620564132,648.5197185045138 347.08783057564074,647.0587612200671,C 365.8866990948683,645.5978039356205 384.2440652536003,639.1149687308839 399.91513286224694,628.6292883144586,C 415.5862004708936,618.1436078980332 428.5331551359483,603.7127298822402 437.6448840135013,587.204905959865,C 449.5081134872749,565.712156786189 454.80088717849856,540.8782699461851 454.30698706355184,516.3338094048244,C 453.81308694860513,491.78934886346354 447.70667856929686,467.5655650068567 438.3525836691824,444.8680896144344,C 419.6443938689472,399.47313882957974 388.867518500893,360.29984330735857 359.99423730726687,320.587986696583,C 307.5856573249863,248.50605047762969 263.59463396073573,168.0775267154225 250,80M 250 , 80C 231.82091825007862,166.97535226571082 186.7327530531737,245.8211899744101 135.059843640972,318.1060524830516,C 106.29541613286268,358.34440389804837 76.09359127659552,398.4871519127038 58.54246824241654,444.7308033116273,C 49.76690672532179,467.8526290110921 44.39242906021651,492.4515747231068 44.73409943567654,517.1803548177916,C 45.075769811136595,541.9091349124764 51.30720386942777,566.7263406912778 64.04158654965472,587.9269256211867,C 73.53415028245372,603.7304324478026 86.59023179483077,617.4289128191436 102.13166501576372,627.3447308731133,C 117.67309823669667,637.260548927083 135.66578495023793,643.3455839213643 154.05113472172496,644.7014998554221,C 172.43648449321194,646.0574157894798 191.16010693478327,642.6711059376601 207.87566750238872,634.896169979669,C 224.5912280699942,627.121234021678 239.25344413594848,614.9790230422738 250,600,C 263.5357725789126,609.5540571652845 279.5338221104978,615.5857953540573 296.0069098090251,617.3562555490894,C 312.4799975075524,619.1267157441215 329.38381337232636,616.6307586096283 344.67181425242836,610.2452925565069,C 359.9598151325303,603.8598265033855 373.5894436529869,593.6125865163523 384.13235219532066,580.8319673179899,C 394.6752607376544,568.0513481196275 402.1173006466402,552.789376600285 406.09519332641696,536.70604617858,C 411.2836170946626,515.7283224062018 410.5676008380973,493.5078772610389 405.49563194587023,472.50169323286804,C 400.42366305364317,451.4955092046971 391.12995040180374,431.680433933499 379.8369658009672,413.2561799547249,C 357.25099659928486,376.4076719971717 327.17309713039157,344.7901800467334 301.7815267113304,309.81580807051245,C 277.8496211381373,276.85197976832393 258.0179459074573,240.37595857264162 248.27128005859336,200.8240612030971,C 238.52461420972975,161.27216383355267 238.9043676939147,119.19485966843784 250,80M 250 , 80C 261.1741191911631,127.02880176843584 258.594477232989,177.05426434924297 243.82695555201772,223.08131551347896,C 229.05943387104816,269.1083666777118 202.1790546795507,310.2238977705093 173.14715513055552,348.872545147227,C 148.97124877621627,381.05666310769715 123.15180816930283,412.6895870203267 107.0770055417506,449.59341632613825,C 99.0396042279713,468.04533097904596 93.6074234303203,487.7773233427586 92.65278783835592,507.88109525559844,C 91.69815224639156,527.9848671684382 95.34951378270964,548.43555046796 104.29519672233002,566.4646306158963,C 117.06660850074032,592.2040636037783 141.15568770802994,612.3768950912107 169.10620524806123,619.0399228260912,C 197.0567227880925,625.7029505609717 228.00111014528838,618.4844857789349 250,600,C 262.8685850978289,609.9268281945522 278.3764803003508,616.3969863320187 294.4830466825205,618.5697541063057,C 310.58961306469024,620.7425218805927 327.2464749963481,618.6112447719872 342.31655371168796,612.525595428024,C 357.3866324270278,606.4399460840607 370.8234342294264,596.4297768818875 381.13421605968523,583.8667287456658,C 391.444997889944,571.3036806094441 398.6149859922251,556.2441506571362 402.2791526716884,540.4101277011932,C 406.8191471093128,520.7913760357459 405.9828274180182,500.11383418406933 401.1431992914636,480.5668403998371,C 396.303571164909,461.0198466156049 387.5746526879998,442.58588177445955 376.91980302340096,425.4984259945914,C 355.61010369419745,391.3235144348517 327.0715315709667,362.3517302598779 302.0184232019341,330.81810334087925,C 274.0512201908862,295.61658931204437 250.36177726197147,256.0658703434364 240.0178362860279,212.31299707470555,C 229.67389531008598,168.56012380597502 232.87905689408768,121.57143660432578 250,80M 250 , 80C 234.9089713814738,155.74136669259633 199.37049752518163,225.84151101788598 157.74115176968468,290.8914252776051,C 134.1948660568474,327.6847939687924 109.24971619250195,364.07339718465266 93.29559688835451,404.7384390233774,C 85.31853723627903,425.0709599427404 79.7341666725562,446.4574803829069 78.25151021694336,468.2484559797849,C 76.76885376133053,490.03943157666293 79.48276096455662,512.2277283471949 87.28172242093329,532.629225543015,C 99.10746905568237,563.5644902134155 123.25010680606763,589.9189471183461 153.74538122690493,602.8370399224266,C 184.2406556477422,615.7551327265071 220.35546717156794,614.766196432427 250,600,C 271.2178815184324,619.8417074747538 302.37787348795564,628.3940349229812 330.79117667510224,622.3462209675738,C 359.2044798622488,616.2984070121664 383.8982028474736,596.03972353705 396.7031491923663,569.9643481658621,C 406.5920782679922,549.8270097717153 409.68159174510527,526.6787174831321 407.06198240243157,504.3977623250848,C 404.44237305975787,482.1168071670375 396.332362493765,460.726131267084 385.42412833218935,441.12220963544684,C 363.607660009026,401.9143663721492 331.45121465350167,369.6656115709004 303.69053068578455,334.41567981069073,C 275.50535937283627,298.6267429607709 251.61874817066345,258.5264702241957 241.007044828849,214.2247362290899,C 230.3953414870361,169.9230022339844 233.24448679983584,122.36159416484291 250,80M 250 , 80C 229.16384244280292,158.47001500251406 189.22200103321362,230.4303318789968 144.44052622449263,298.152619423047,C 115.57420030824157,341.80668915591593 85.09732100326855,385.593763026761 69.90590111758034,435.67532987527454,C 62.31019117472792,460.71611329954254 58.853143810436485,487.2437011712525 62.09095568826245,513.2100682309867,C 65.32876756608839,539.176435290721 75.48818499905771,564.4745984561719 92.431277296719,584.4161948674417,C 111.40785298853403,606.7511504390517 138.94095142792662,621.8420131173418 168.09149990070233,624.8761833678928,C 197.242048373478,627.910353618444 227.48938937841984,618.7678734761447 250,600,C 264.93890383262124,612.2380073719181 283.22516060072394,620.3446726101978 302.3229069310292,623.210986839088,C 321.42065326133445,626.0773010679783 341.2648883042057,623.6936678799434 359.18213014804047,616.488661504862,C 377.09937199187516,609.2836551297805 393.02746949054455,597.2989575943304 405.151938611803,582.2677593492444,C 417.27640773306143,567.2365611041586 425.5807993686474,549.235764315709 429.731751201146,530.3755079272158,C 437.6309422168252,494.48475953283696 430.28431104889347,456.5739781896708 415.65115848296585,422.86323976712833,C 401.0180059170376,389.15250134458563 379.7297907521781,358.8260475707166 358.71821882792244,328.6754773558324,C 332.5464244080466,291.1202421668327 306.795051060168,252.99625343301835 287.50145805297456,211.48582363362817,C 268.20786504578166,169.97539383423867 255.21916570321642,125.47657443805123 250,80M 250 , 80C 261.85126957658025,120.77023884680511 262.4132386780502,164.67524943323428 252.17400051016497,205.87989684033676,C 241.9347623422799,247.0845442474391 220.96032274830753,285.061103010811 194.96886397398254,318.6335476192226,C 163.07704559002198,359.82732267638414 123.54794223357726,394.76716342415256 92.96435644245948,436.9413197696313,C 77.6725635468811,458.0283979423695 64.77049228885689,481.131653871524 57.55900035131638,506.1615995338546,C 50.34750841377586,531.1915451961852 49.0704531611975,558.209077379707 56.093473203937904,583.2925577064818,C 61.90930775139027,604.0644436710162 73.45033093257477,623.3099317082914 89.56668583881344,637.6472355881399,C 105.68304074505212,651.9845394679883 126.31395887590415,661.2585882221671 147.77816561113423,663.3993841569222,C 169.24237234636442,665.540180091677 191.3820441356613,660.4966251064963 209.7254032997736,649.1468959210337,C 228.06876246388592,637.7971667355711 242.48240151186386,620.2183305685246 250,600,C 263.48064907469626,612.84182404673 280.8153913428605,621.58116717956 299.15360389117296,624.7983561474633,C 317.49181643948543,628.0155451153666 336.7462717796662,625.6969338251607 353.8463852950575,618.3330719251102,C 370.94649881044865,610.9692100250597 385.8126304873729,598.6186118728136 396.4700457338662,583.3523142016004,C 407.1274609803595,568.0860165303872 413.56467709673325,550.0052825381201 415.6275306767585,531.5016348050472,C 419.45658228575917,497.1553182216664 408.1902782670014,462.539275764795 390.7863093840569,432.68240107584427,C 373.3823405011115,402.8255263868934 350.32969900393675,376.7406036663895 328.4843165327205,349.96168726268627,C 297.5505376553352,312.0418623431798 269.03193963985547,271.10972319392783 253.7826323088549,224.6095035870734,C 238.53332497785829,178.10928398022128 236.7477198105415,127.10826750519217 250,80M 250 , 80C 229.02763427678704,155.82867529843733 191.57112588657657,225.90621924560338 151.13599640204774,293.39568823976145,C 127.99454859823659,332.020617699498 104.42726825414282,371.09395343335893 91.76212509457622,414.30281746579817,C 85.42955351479098,435.9072494820193 81.99337562615044,458.48590241355424 83.15280113778006,480.969422556975,C 84.31222664940968,503.4529427003958 90.17439954558621,525.8082369804298 101.22150257342891,545.4249252903575,C 115.38849326691039,570.5816962576598 138.3013256251307,590.8835401073541 165.3512371463001,600.9765593537147,C 192.40114866746947,611.0695786000754 223.20786131840447,610.7586270349266 250,600,C 264.56111132489696,614.1952851132335 283.2629386589491,624.0884032534008 303.18795206596667,628.1536121277637,C 323.11296547298423,632.2188210021267 344.17638328236694,630.4399982121776 363.1820920009178,623.2070791218221,C 382.18780071946856,615.9741600314667 399.0548167339828,603.3400845900021 411.611022535577,587.3440295035117,C 424.16722833717114,571.3479744170212 432.3938206313464,552.0885341688257 435.9342911886543,532.0636209182056,C 439.92753886870213,509.47779875506336 438.0141556545908,486.0500779244087 431.9040308680989,463.9427993738319,C 425.793906081607,441.83552082325514 415.6024737185384,421.01374888989017 403.50336795444497,401.52844597901463,C 379.30515642625045,362.5578401572617 347.9652948718651,328.56614542568116 321.18101114630645,291.32552641113654,C 299.0583550487414,260.56639110025804 279.9269680185327,227.40653811982554 267.3503759400172,191.6662856084808,C 254.77378386150176,155.92603309713607 248.71943869530028,117.86682559482597 250,80M 250 , 80C 233.8997321664604,155.18354731232276 199.0735227646851,224.99209444265057 158.99348862600993,290.6074529665405,C 134.51460427996005,330.6820389080981 108.5911859490688,370.6154574379335 94.29118992009026,415.34462388205327,C 87.14119190559734,437.7092071041164 83.10394731691058,461.22540826474096 84.1986581725179,484.6795904599584,C 85.29336902812523,508.13377265517585 91.66099587802454,531.482037685035 103.79511924296241,551.5832840262027,C 118.29847953573267,575.6093804529146 141.19678674016018,594.6272921280987 167.7912088431784,603.5904100172074,C 194.38563094619659,612.5535279063162 224.30599212472237,611.2879904585685 250,600,C 263.3779622885284,616.789168475566 282.2090652292517,629.1560769436119 302.9258103240297,634.7830233421678,C 323.6425554188078,640.4099697407237 346.1135849593681,639.2655749379228 366.21188000176267,631.7220618648852,C 386.31017504415706,624.1785487918479 403.91290792445216,610.320853873428 416.34837309406544,592.822132231275,C 428.7838382636787,575.323410589122 436.03840738992005,554.3344238693799 437.9843709974787,532.9554791168371,C 441.2367483951225,497.2238773394079 429.7747444553813,461.43471491984843 412.241394620038,430.1312491713255,C 394.70804478469415,398.8277834228026 371.54522948017785,371.117049190671 349.32829994010655,342.9437752217301,C 319.563993900098,305.19967799856835 291.49151146983354,265.5047178009544 273.2700289780733,221.02429103774483,C 255.04854648631462,176.54386427453633 246.66475408780093,127.9521315891148 250,80M 250 , 80C 264.22464011232034,126.20422309030721 263.5037387324193,176.6678644137443 249.2075745624506,222.8500071501875,C 234.91141039248407,269.0321498866271 207.23888374346112,309.8616144946573 176.93060173799842,347.5256379066729,C 154.70450257824297,375.1459536659063 131.04219619795097,401.93180850609644 113.52707834334403,432.75553269767113,C 96.0119604887357,463.5792568892457 85.2584453030268,499.5818288037927 90.92861632794813,534.5779784069593,C 93.72369846124738,551.8291533821292 100.46241938396415,568.4923240226707 110.894911954212,582.5129738267111,C 121.32740452445987,596.5336236307515 135.44033303834988,607.8338067448468 151.5157381367699,614.6892332871932,C 167.59114323518992,621.5446598295395 185.56706338698814,623.9116627107885 202.85440101456098,621.3497337683472,C 220.1417386421338,618.7878048259059 236.6738976284351,611.3062158894294 250,600,C 260.4488970554792,621.4353702464979 279.1386996919277,638.7163738820183 301.3137836299116,647.4867900422594,C 323.4888675678955,656.2572062025005 348.89345611265406,656.430518598293 371.27293515442295,648.1956254539056,C 393.6524141961922,639.9607323095199 412.7722124779456,623.4861673887585 424.82020784665565,602.9070431392678,C 436.86820321536567,582.327918889777 441.8561150320869,557.9254935659797 440.201298043071,534.1365018258217,C 437.4154490325702,494.0882429911892 416.41935411356377,457.3507716395029 390.57669151444344,426.62975635382173,C 364.73402891532066,395.9087410681415 334.16774135475856,369.4977313172267 307.3267816040774,339.64497817689795,C 275.84812749474025,304.6341402990869 249.5792742583248,263.8245678270588 238.21979652191408,218.13401410971318,C 226.86031878550475,172.44346039236757 230.7399630346003,122.96179011090042 250,80M 250 , 80C 226.4356546469079,162.8978705042418 182.19913085499385,238.06400899615167 136.36665233549348,311.04838553536297,C 115.55008333537039,344.19702508609214 95.07183578188375,378.02742803827357 82.62665208243786,415.13914117157015,C 70.1814683829911,452.250854304867 66.65193595477167,493.44623700670945 79.6605530288644,530.3642235555546,C 91.28280598395192,563.3477586861015 116.49250251387566,591.707101731433 148.7401231958406,605.2378561010966,C 180.98774387780549,618.7686104707601 219.3688245294342,616.873690845558 250,600,C 257.3046437761152,618.0850999697228 270.48962765684803,633.7374620447438 287.063070204926,644.0209275946626,C 303.63651275300396,654.3043931445815 323.49780828386696,659.1598378149178 342.95471662880055,657.7969807909927,C 362.411624973734,656.4341237670678 381.34250255269245,648.8866160860674 396.5985046794127,636.7341241309042,C 411.854506806133,624.581632175741 423.37971683463564,607.9391615930776 429.9771416467272,589.5842535993121,C 438.09342730402517,567.003673943779 438.7528560640095,542.0838109422457 433.6795628412472,518.6313405749984,C 428.60626961848493,495.17887020775106 418.02127147894316,473.1730494105878 404.83350942969435,453.12711210191765,C 378.4579853311772,413.03523748456223 342.4260136709118,380.38598636376713 311.5450209131599,343.65192903135585,C 281.0000706824484,307.3176064338634 255.30012038652416,265.96654752958284 243.35697874788124,220.02595163646657,C 231.4138371092394,174.08535574335045 233.44263956778258,124.4862990001742 250,80M 250 , 80C 261.7255822755425,120.85654451062372 262.0659893605015,164.81161288409922 251.67536472217296,206.0278891432963,C 241.28474008384484,247.24416540249308 220.21772027681817,285.11468672221633 194.99243351119446,319.32625518437703,C 166.2497400274529,358.30827489508926 131.80211747608857,393.44882612806083 108.80978685654259,436.0762002215722,C 97.31362154674943,457.38988726834185 88.93395209753426,480.66189003305135 86.80491754602953,504.78454088730507,C 84.67588299452477,528.9071917415588 89.07649134900043,553.8404386348805 101.04133069271123,574.8945995499328,C 115.38786457799888,600.13975531983 140.9336664908821,619.0356084465842 169.53169262161515,624.0649051960304,C 198.12971875234817,629.0942019454766 228.90339818596442,619.9517998252817 250,600,C 271.5201572985394,621.5658931431848 302.8923870076629,632.833755978606 333.23051978941083,630.0404395743699,C 363.5686525711588,627.2471231701337 392.1148317367635,610.5745186062624 410.4118924227988,586.2142540865843,C 426.97844596588993,564.1579449660097 435.22475332884767,536.4096285358498 435.5990481580126,508.82718173178057,C 435.97334298717743,481.2447349277113 428.822246966198,453.92608920543574 417.6971510999203,428.68398726671876,C 395.44695936735195,378.1997833892121 358.73969485211586,335.74070956969774 327.77041519815236,290.0829655277905,C 285.31154523882935,227.48621679579463 254.55795664991481,155.50055378086196 250,80M 250 , 80C 237.48856254954845,157.15891360866613 201.14519795479592,228.76949355439908 154.86578431539712,291.76354001547026,C 123.54476567590643,334.3967012468921 88.11955194089286,374.5110153671367 63.762633003919774,421.47199007058015,C 51.5841735354235,444.95247742230396 42.40470509702331,470.21080273268524 39.06218030814529,496.44962300601316,C 35.71965551926727,522.6884432793411 38.41794467335182,549.9109050180273 48.63278326921555,574.3097827332158,C 56.66230542224376,593.4888747261429 69.31478326109098,610.7850148555584 85.52084767349564,623.8109225759486,C 101.72691208590031,636.8368302963388 121.44470053654032,645.5087759518744 142.03954812893596,648.3658808370906,C 162.63439572133154,651.2229857223066 184.0208943632243,648.2362721332925 203.00264445536314,639.7507574689533,C 221.98439454750198,631.2652428046142 238.4867256211703,617.3134430070079 250,600,C 256.97789012505154,620.3674948324389 271.01934602014927,638.235689581786 289.1486495065624,649.8483616017928,C 307.2779529929755,661.4610336217996 329.354455771909,666.734455984787 350.7897937986449,664.721478084688,C 372.2251318253805,662.7085001845893 392.8518180597562,653.4635829196818 408.902380853961,639.1141846627515,C 424.9529436481658,624.7647864058213 436.365575089533,605.475962661493 442.0226475839893,584.7028231024574,C 447.96836758654456,562.8697510474192 447.64361423979074,539.5614264270373 442.59768738446655,517.5030211383499,C 437.5517605291423,495.4446158496625 427.9253708440661,474.6135910463646 415.99822902644826,455.3839808118407,C 392.1439453912049,416.9247603427894 359.6971671226558,384.69131834918136 330.6425039814394,349.9931190214328,C 299.26654418290775,312.52273769580285 271.63518690076904,271.0681768963988 256.4500579480157,224.61505871628694,C 241.26492899526366,178.1619405361754 238.66473021873153,127.53937303912389 250,80M 250 , 80C 251.39559417630466,128.33286289469572 242.10579572161092,176.83059496070692 223.88539690332118,221.61932552549135,C 205.6649980850322,266.4080560902745 178.4361102674722,306.90308618102245 149.79883602832572,345.8635769743141,C 123.30741196011846,381.9046776353429 95.34781260077517,417.74808982619845 79.03582160458991,459.3975248254919,C 70.87982610649279,480.2222423251416 65.8486290747117,502.44310908420675 66.06212763798008,524.8069982779199,C 66.27562620124847,547.170887471633 71.8933526956928,569.636404817139 83.44580215308568,588.7866015012355,C 91.9599084202325,602.9002152596379 103.649583973951,615.1284441654664 117.54869102203361,623.988405910055,C 131.44779807011622,632.8483676546437 147.52638007973067,638.2983785929047 163.96196484905877,639.5456364410918,C 180.39754961838685,640.7928942892789 197.14280228788482,637.8260590066645 212.12355703553524,630.951389120744,C 227.10431178318564,624.0767192348234 240.28106201152363,613.3126384772435 250,600,C 280.1371565506525,616.5692753279907 317.9034314356187,618.3568183962624 349.57374270098563,604.948594270448,C 381.2440539663525,591.5403701446336 405.92299876493223,563.5325617321652 417.18290049458335,531.0363511393607,C 429.8756541751468,494.404912738791 426.0038368192634,453.61017013317195 413.3470060086852,416.9663042191805,C 400.69017519810615,380.3224383051884 380.13006064366607,346.9956697867781 359.4364364291848,314.2124089337134,C 313.18194259589893,240.93509794910648 269.7423621750837,164.37583564419435 250,80M 250 , 80C 249.22745567385923,156.04593477282768 219.74035378860734,229.5086981088976 177.40246027905863,292.6837231851342,C 147.52602251246898,337.2642289362586 111.88574574650784,378.60406167128303 90.16124552896564,427.67614250086416,C 79.2989954201692,452.21218291568016 72.25503711902309,478.7506510821391 72.46540848871912,505.5827494076585,C 72.67577985841513,532.414847733178 80.47041529400374,559.4485709505587 96.34007545633106,581.0855680387818,C 113.53041167079543,604.5232000241551 140.26970830348978,620.9755821091366 169.09685977302183,624.6938599901961,C 197.92401124255392,628.4121378712556 228.19702254010872,619.2213533896964 250,600,C 263.02988285134285,614.8919837010521 280.88896810643996,625.4851510641155 300.2007017698068,629.798614705704,C 319.51243543317366,634.1120783472926 340.15548940542413,632.12253151669 358.348430058549,624.3401195471268,C 376.5413707116738,616.5577075775641 392.1753062781045,603.0644701986295 402.88901478497684,586.4282003131689,C 413.6027232918492,569.7919304277083 419.3890027415431,550.1507177103298 420.23315692559936,530.3811342704681,C 421.77655828858275,494.2356023250006 406.94442012695646,459.05103570976667 386.38821959523256,429.27983843643517,C 365.8320190635072,399.50864116310373 339.9478971229823,373.8856591659788 316.1675452774285,346.6207286967883,C 284.3314439913296,310.11962502880624 256.2436862906758,269.10017851307913 243.05191473452132,222.49711984425613,C 229.86014317837044,175.89406117543408 231.91510279044962,124.93110734223384 250,80M 250 , 80C 267.02622509137666,123.17240658466523 269.2917467192638,171.82121012922903 257.39319401849593,216.67846678632876,C 245.4946413177296,261.535723443427 219.69577191167411,301.55568437830146 189.72572747346382,336.9893614037726,C 165.13485628297303,366.063225119098 137.72626472081572,392.8907364746565 115.99343387423905,424.1586842908901,C 105.1270184509495,439.7926581990065 95.76056657549147,456.57690028843535 89.4691228642611,474.54681571226496,C 83.17767915303071,492.51673113609456 80.03131128096449,511.6988504539555 81.39452578508832,530.6894210227119,C 82.77655523047764,549.9420974220217 88.8776400072968,568.9285795816718 99.59696980878161,584.9807296722814,C 110.31629961026641,601.0328797628911 125.64377839429432,614.0307282555316 143.38399566940907,621.6373204594149,C 161.12421294452398,629.2439126632981 181.18250616131013,631.3891433940234 200.10343128785337,627.5715333720062,C 219.0243564143966,623.753923349989 236.70330463509745,613.9919064568571 250,600,C 261.13838033066173,620.5414550446095 279.90655019316273,636.824364055741 301.8039015213323,644.9803984199951,C 323.7012528495019,653.1364327842493 348.5048098056311,653.0940743145079 370.4524642997536,645.074388912523,C 392.4001187938762,637.0547035105394 411.285801406174,621.2024513268975 423.52166279247723,601.2952016957872,C 435.75752417878044,581.3879520646768 441.3448291466832,557.6733294587344 440.51132478994305,534.3212382841209,C 439.74691302186227,512.9048975550123 433.7427685504679,491.8516378584297 424.4331917177835,472.5494163600425,C 415.1236148850991,453.2471948616554 402.5885863510901,435.64048051423913 388.7374715165897,419.2883982793084,C 361.03524184758396,386.5842338094485 328.2888656250267,358.4383343243146 300.5578701250719,325.75855784271243,C 271.9788353747849,292.0794038541348 248.84672547862382,252.94550181855155 238.99922806828616,209.8865487960055,C 229.15173065794906,166.82759577345948 232.79424423563106,120.68179702546715 250,80M 250 , 80C 243.0311418219255,125.36589607833804 228.90841851684965,169.56693040909255 208.9112228117794,210.87966059277568,C 188.9140271067094,252.1923907764585 162.9192359871589,290.2847544640921 135.92912155919183,327.40837544133365,C 107.92685102676813,365.92416908579105 78.52821951886607,404.2580316303232 60.775256630888066,448.44429446993826,C 51.89877518689501,470.53742588974757 46.144029163543415,494.05369696907087 45.68452608462663,517.858890429301,C 45.22502300570984,541.6640838895312 50.21356329758498,565.7312156185292 61.408760886332146,586.7446858152251,C 70.36880770255192,603.5627611766486 83.27593860628488,618.3204717581681 99.01283985854161,629.0666355754606,C 114.74974111079834,639.8127993927532 133.27710349895122,646.4852132729225 152.27210961489013,648.0083155238597,C 171.26711573082895,649.5314177747969 190.66165843954147,645.8873644796328 207.77126757593433,637.497407804463,C 224.88087671232722,629.1074511292933 239.64856956562107,615.9993120406341 250,600,C 270.66538664412246,623.5952689484469 302.9076788769437,636.4675998166464 334.1578496149096,633.7802682873044,C 365.4080203528755,631.0929367579623 394.67004805828486,613.0995273844019 412.39912934622555,587.2253201774901,C 425.3556575888361,568.3162807869641 432.37670541907704,545.6226790163641 433.7625080350881,522.7424922626794,C 435.14831065109917,499.8623055089947 431.063597583665,476.85280805241547 423.619800709866,455.17301831921804,C 408.7322069622651,411.81343885281194 381.32019724957877,374.0727287142764 355.05688578820684,336.4970444200395,C 328.2135623411926,298.0915200924396 302.26376594033627,258.73067882392684 283.5169050435058,215.78765239269146,C 264.7700441466759,172.84462596145673 253.09305156146655,126.75447940675764 250,80M 250 , 80C 264.21836871569013,122.32298682476917 265.5673748337946,168.7396888070882 254.65972899499045,212.0342668158888,C 243.7520831561869,255.32884482468884 220.70938117294708,294.73138708252515 193.29454050141385,329.97090656930715,C 163.79278256090055,367.8929863032427 128.9266067415912,402.0755359693969 105.44730746950577,443.99403258627785,C 93.70765783344365,464.95328089473037 85.0655901664921,487.9245355205089 82.63357472324321,511.8242167760542,C 80.20155927999431,535.7238980315994 84.25621611317278,560.5172649189632 95.88062720773839,581.5406454734174,C 103.2535374361256,594.8749551656741 113.59540745965172,606.5921285153825 126.07696990000201,615.33136299287,C 138.5585323403523,624.0705974703576 153.15517679292364,629.7954765137247 168.26915700888782,631.7271137043776,C 183.383137224852,633.6587508950305 198.9744493474048,631.7857142706449 213.18174426829697,626.27968201178,C 227.38903918918913,620.7736497529152 240.17766646214304,611.6484069329655 250,600,C 271.43148324019245,625.6869070280653 305.52456868400174,640.1950493776875 338.9072798058628,638.0224323618529,C 372.28999092772386,635.8498153460183 403.8913799179171,617.2413328806178 423.2357300595903,589.9480775940187,C 439.32074289046227,567.2534738329209 447.1295278377819,539.2073485493596 447.25241762005675,511.3908502840502,C 447.37530740233154,483.57435201874074 440.13219819255386,456.06774158256525 428.9428773907968,430.60066916271455,C 406.5642357872674,379.66652432295894 369.79505011149683,336.6892354308602 337.94885887777787,291.0722340554758,C 293.8625670781247,227.92231390017554 259.92574090061163,156.37403490610464 250,80M 250 , 80C 258.56004860923315,128.02728361188568 253.97112837922444,178.17418150233848 237.89937862425836,224.23493771782722,C 221.8276288692935,270.2956939333141 194.32465224785898,311.46907565163707 164.39588656474214,349.99391683254026,C 137.23948522360763,384.95012116749626 107.8110059085308,418.94410780373437 89.49970076813503,459.2442623861089,C 80.34404819793116,479.3943396772996 74.18254165804649,501.09214917330945 73.29660020840448,523.2070015710771,C 72.4106587587625,545.3218539688447 76.97537597702572,567.8196049161629 87.71170226268777,587.1737488320028,C 95.58359119740658,601.3642332936621 106.72600616539972,613.7715036172245 120.18801747582759,622.8330010726704,C 133.65002878625546,631.8944985281163 149.40074047974485,637.5642514482462 165.5659839504817,638.9860067678916,C 181.73122742121853,640.407762087537 198.25988590630845,637.5683783192443 212.9971299180302,630.7749900927323,C 227.73437392975194,623.9816018662203 240.63711556979146,613.2541646211181 250,600,C 259.47237306075533,613.4006605865326 272.4974694538342,624.2643377689498 287.37714922507246,631.1852253899833,C 302.2568289963107,638.1061130110169 318.94875559995984,641.0643688176029 335.3059087536258,639.742591126352,C 351.66306190729165,638.420813435101 367.6349395883122,632.8315480195706 381.34486594465125,623.8125971459197,C 395.05479230099036,614.7936462722687 406.47172096974623,602.3900256980436 414.62798090267023,588.1499772618847,C 425.718484522487,568.7870204622762 430.6920044277302,546.1970890488167 430.20423745065165,523.8882242202168,C 429.7164704735731,501.5793593916169 423.93812900530634,479.5885216181666 415.10666044668454,459.0963638581174,C 397.44372332943567,418.1120483380077 368.4315633295771,383.2733092103704 341.43819559711676,347.7338724573778,C 312.12402511438984,309.1388694861654 284.8642980374319,268.34231970316654 267.9572927428791,222.92153131934128,C 251.05028744832777,177.50074293551705 244.48797405851798,128.1509336924899 250,80M 250 , 80C 264.0133413798062,125.98739819727949 263.3588300759625,176.11475411728355 249.3813522977052,222.1130654399882,C 235.40387451945003,268.11137676268925 208.2745294562375,308.93761323850475 178.58365062844325,346.7485408126199,C 156.22994144342454,375.21568332833147 132.38998936970276,402.8922698369386 115.32760072895988,434.8131315297324,C 106.79640640858742,450.7735623761293 100.05869367232002,467.788177055096 96.5422762732274,485.54068217437236,C 93.02585887413478,503.2931872936487 92.80129730210986,521.7899720586191 96.8386858059025,539.431290699923,C 100.49153581635754,555.3923731973788 107.65434887294023,570.5894706447365 117.98910591108638,583.2895598039495,C 128.32386294923253,595.9896489631624 141.81620939774456,606.1345828131533 156.97359873577219,612.3275640132633,C 172.13098807379978,618.5205452133733 188.90596354002255,620.7304568982843 205.13952737668603,618.5924969242809,C 221.37309121334954,616.4545369502775 237.01570445231803,609.9753464511222 250,600,C 260.5712927478794,621.4290066469321 278.95703330544836,638.8897996365076 300.8916763318324,648.367457128775,C 322.8263193582165,657.8451146210423 348.1019501178614,659.2601328031176 371.01888079027873,652.4948652702517,C 393.9358114626958,645.7295977373868 414.28841378554273,630.906998806493 428.242230708912,611.5099487858146,C 442.19604763228136,592.1128987651363 449.7309120236231,568.3773813184883 450.6867153656207,544.5018499902219,C 451.64386386029184,520.5927173619734 446.1684934154875,496.66849776161007 436.6022523502678,474.73565051921736,C 427.0360112850481,452.8028032768247 413.4990929666375,432.78758479714594 398.4169111761381,414.21097184660096,C 368.25254759512717,377.0577459455127 332.18315302643776,344.9462845420075 302.9280286405657,307.0729598625993,C 278.24895586564537,275.1237353895321 258.47617244322595,238.93397460468313 248.70327220218914,199.76383293607296,C 238.93037196115253,160.59369126746276 239.21064639620772,118.9024347088017 250,80M 250 , 80C 258.11170704898234,119.50627733624262 256.452715943252,160.90076793498025 245.80579055775723,199.8004944128404,C 235.1588651722627,238.70022089070036 215.52346744415468,274.6413640865958 192.33505988445154,307.6389927144489,C 167.3546311675102,343.18670799605536 138.12277607167056,375.91068247975005 116.93279153322334,413.84017543555836,C 106.33779926399447,432.8049219134635 97.89472578832479,453.13434145953147 93.80326577261972,474.4691820986392,C 89.71180575691466,495.80402273774695 90.10842041876234,518.1567290203413 96.38033241050846,538.9552527690123,C 105.61739987638938,569.5866403442678 128.42043794864531,596.2426754281565 158.04017992186218,608.3371454700729,C 187.65992189507898,620.4316155119891 223.09004836945357,617.3049074945925 250,600,C 276.8081935332735,611.9665828586712 308.35915986108415,612.7876497953489 335.80690257245,602.3713277054003,C 363.2546452838159,591.9550056154517 386.1307928787024,570.5556300991608 399.39594428085064,544.3656682032555,C 409.75583954474837,523.911679101924 414.4262883848561,500.78958117821486 414.15533466946476,477.8631840753024,C 413.88438095407344,454.93678697239 408.80395906748976,432.23230464666295 400.924883690326,410.70062400540115,C 385.1667329359946,367.63726272287033 358.95927726502475,329.34324226999485 334.7758262023368,290.38258140747115,C 294.6008387396237,225.65881400001572 261.56183080364184,155.2962134075247 250,80M 250 , 80C 252.3588938358578,118.35315717421318 247.19984377937755,157.11342769414517 235.26829750467905,193.63968193480713,C 223.33675122998062,230.1659361754691 204.60175216124009,264.2011345699455 182.5667612358799,295.6810999491838,C 150.67282376957027,341.24590415754335 111.28730483228836,381.80306084818216 85.0044004896206,430.81921705167474,C 71.86294831824762,455.32729515344545 62.31513758136118,482.11611412758515 60.2393923847462,509.8475933397315,C 58.16364718813122,537.5790725518779 63.93564843557151,566.2038656957473 78.69787469274758,589.7712230645087,C 87.65572709083956,604.0721086521037 99.81902345504832,616.3929466088808 114.17206050941624,625.2669972900198,C 128.52509756378416,634.1410479711589 145.03790574361136,639.5291172532105 161.8742495721603,640.6675260823947,C 178.71059340070923,641.8059349115788 195.82481858433664,638.6845548206106 211.1507518788603,631.6223868229421,C 226.47668517338397,624.5602188252735 239.97632984961317,613.5751421683799 250,600,C 271.38657965224496,622.990792757786 303.5731558104594,635.4207933698816 334.8753659047706,632.9441052456143,C 366.1775759990818,630.467417121347 395.73099707087823,613.2886098765978 414.46493228737506,588.089363614906,C 428.8687224771386,568.7146485911255 437.05356596511916,545.0345878181039 439.1783397969224,520.9860101003444,C 441.3031136287256,496.9374323825849 437.5495475873137,472.5918993451477 430.15281194851156,449.61066665468684,C 415.3593406709047,403.6482012737506 387.01220771653493,363.47764265051296 359.7828046723222,323.6034075331974,C 309.0980509909775,249.38158996813996 264.76657541462333,168.65534788676595 250,80M 250 , 80C 262.1738971511598,126.61763861100107 260.37522614206364,176.60246177584105 246.05084221687423,222.6048533079852,C 231.7264582916865,268.6072448401265 204.98024872849598,309.69123577035236 175.76319315343295,348.00274402878927,C 150.88414333277365,380.62594660364914 124.03329734046137,412.43780241342733 107.15239485067924,449.83132588139785,C 98.71194360578421,468.5280876153856 92.9440313648458,488.58911227729476 91.84407244523837,509.07325753478926,C 90.74411352563094,529.5574027922837 94.45397388100021,550.4379596418934 103.69489582031329,568.7523113439461,C 116.68534076227127,594.4977487576052 141.1291032403924,614.5055617681948 169.2823205359349,620.7486029598455,C 197.43553783147735,626.9916441514962 228.39443417989196,619.0991814747035 250,600,C 275.8668943752379,617.213017233947 310.2202958125032,620.7892013273239 339.16944207475836,609.5050922529473,C 368.1185883370135,598.2209831785707 390.67053337303304,572.7100444541402 400.1901709313042,543.1336909318578,C 411.0239676539418,509.47440507187554 405.53804488468654,472.24069126042417 391.8895715760386,439.62109818548595,C 378.24109826738965,407.0015051105469 357.29305219826534,378.0549584763762 336.8418207702581,349.2094075350334,C 308.806183797108,309.66639041507005 281.7224665445874,268.77497359306625 265.3312677304014,223.1572605325258,C 248.94006891621825,177.53954747198839 243.19848310769743,127.99360906832626 250,80M 250 , 80C 249.27769783060447,128.07391442910372 238.80801989103978,175.872474712596 220.32747879995551,220.25819955675559,C 201.8469377088719,264.6439244009136 175.21257159299114,305.0813279834152 148.00339322313025,344.7207475225258,C 123.71922699987223,380.09889235278246 98.79543121065703,415.93966808481514 85.5597726253014,456.75818352329406,C 78.94194333262058,477.1674412425362 75.44180584620615,498.738100274612 76.8995005972556,520.1439076924664,C 78.35719534830503,541.5497151103209 84.90864321797848,562.7405257215953 96.82701393296635,580.5810947903675,C 113.1454652659737,605.0081297487402 139.886982683265,622.507227794578 169.00394865651182,626.4026332007043,C 198.12091462975863,630.2980386068306 228.8159439692509,620.3520922966503 250,600,C 263.4668335606743,614.2971349907564 281.41648981274585,624.3051229839986 300.6543525101384,628.263445094576,C 319.8922152075309,632.2217672051535 340.3108392406905,630.1111616296798 358.38959460723345,622.4350767231987,C 376.4683499737763,614.7589918167178 392.10984649641523,601.589922298351 403.08797823556984,585.3035998585682,C 414.06610997472444,569.0172774187854 420.3712139979872,549.7373487726926 421.9248477060709,530.1580255618175,C 424.6500684998685,495.8140367148077 412.8301691745499,461.6303630549165 395.1930507498272,432.0352882624652,C 377.55593232510375,402.44021347001393 354.527351167901,376.50303701895007 332.6582754586152,349.8819941032409,C 301.54472228017545,312.0077260987737 272.78320602849385,271.20983052257833 256.88674982096677,224.843721689682,C 240.99029361344333,178.47761285678774 238.12819900407123,127.55600602841423 250,80M 250 , 80C 242.35025652513696,125.77513782115659 227.96898977779196,170.35636637558565 208.1634238669432,212.32803987960637,C 188.35785795609468,254.2997133836264 162.93849284305543,293.32445921675344 137.59403293667646,332.2029901796251,C 112.85059379592936,370.1595522178378 87.944739855968,409.023564222447 75.96344777122978,452.720097520327,C 69.97280172885762,474.5683641692704 67.42766642624665,497.5194854092113 70.18746908150933,520.005438466005,C 72.94727173677202,542.4913915227987 81.15498282167736,564.4463223177468 94.85796790298161,582.4869097646642,C 112.55664746354492,605.7880061617467 139.6473070756224,621.990613827334 168.70294114736748,625.4481389801676,C 197.75857521911257,628.9056641330013 228.13767333465205,619.4479568148237 250,600,C 260.2779976081215,619.5518211216954 276.8620101128211,635.7216237962856 296.65899021218564,645.5190991319365,C 316.4559703115502,655.3165744675874 339.3468224536486,658.6865889939057 361.1514684842424,655.1555331337083,C 382.956114514836,651.624477273511 403.5412389061936,641.2456346257234 419.6263570836753,626.1069452100652,C 435.71147526115703,610.968255794407 447.2487870361099,591.2075748777146 453.29728156026596,569.9631248260289,C 459.40351364472406,548.5158800605436 459.9911989083901,525.6725301124078 456.2861251688517,503.6829233200051,C 452.5810514293132,481.69331652760235 444.6856804813425,460.54689873074693 434.4818050222743,440.7188553599116,C 414.07405410413446,401.0627686182393 385.00347821783413,366.6660865640206 357.77175278085775,331.34591325010547,C 329.4823643009803,294.65392667854155 302.9717761009112,256.22986763309837 283.8654652773968,214.0215714598517,C 264.75915445388284,171.81327528660532 252.98188517546893,126.23526511153074 250,80M 250 , 80C 258.74280076606476,127.79351781698591 254.37656897347154,177.74647126026213 238.63810885992388,223.7133917989704,C 222.8996487463777,269.6803123376757 195.8071747295741,310.82528131355303 166.97820167530224,349.9347075838705,C 142.82248588808437,382.7043863306109 117.28891975623232,415.2060870005617 101.98493887464524,452.9305965339331,C 94.33294843384857,471.792851300621 89.4148186465695,491.91056775663293 89.0931818414719,512.2633111185262,C 88.7715450363743,532.6160544804194 93.17714413965598,553.1720978844288 102.88568884989782,571.0629271608686,C 116.6045365195894,596.3439109594964 141.39394913565778,615.6602695133865 169.5738242471807,621.4247783311134,C 197.7536993587036,627.1892871488403 228.4676841537596,619.0707707633546 250,600,C 256.05879107305486,623.2956021205188 271.0345642557252,644.147529899183 291.158734649694,657.3540356209459,C 311.2829050436628,670.5605413427087 336.3306198584265,675.9881126411328 360.1490223380206,672.5128096695186,C 383.96742481761436,669.0375066979055 406.299604159554,656.7654601377968 422.4554145576206,638.9221471660939,C 438.6112249556872,621.0788341943909 448.53518108990806,597.9305934313421 451.50949296727396,574.0444573628906,C 454.2368600128331,552.1414885267649 451.2813851203377,529.7185160943519 444.35093250214294,508.762672008645,C 437.42047988394813,487.80682792293806 426.6169098665042,468.28031278747073 413.96166675185276,450.19652456302595,C 388.6511805225451,414.02894811413614 356.37190641837043,383.3885717294168 327.6053278937153,349.90427303084596,C 295.75016011319565,312.82485629930795 268.0950298639741,271.24405643743046 253.41270735581568,224.617194380859,C 238.7303848476584,177.99033232428778 237.1970106481656,127.17751925581587 250,80M 250 , 80C 224.87598364763775,165.43812048714182 179.67825533381108,243.1872905045072 135.00084419416913,320.22505763147245,C 113.28561336337869,357.66887662586316 92.50813443453664,396.5030963323477 83.59462241065638,438.8603877273289,C 79.13786639871499,460.039033424821 77.80742554720436,481.9920192776321 81.04653885053472,503.3907541172918,C 84.28565215386509,524.7894889569515 92.19099995759568,545.5847585068775 104.83413303760597,563.1503183798512,C 120.73409721797917,585.2407109289924 144.26615230568095,601.8890838573176 170.6137965218727,608.7152063415159,C 196.96144073806443,615.5413288257142 225.7788902070566,612.414996750321 250,600,C 263.5286452305875,609.926797254919 279.66979780152064,616.256960470367 296.3387106996093,618.183846121177,C 313.00762359769794,620.110731771987 330.1558480921159,617.6285176124829 345.6256997506496,611.1285764451856,C 361.0955514091832,604.6286352778882 374.84083579717293,594.141565555225 385.36998932541786,581.0762499641645,C 395.89914285366274,568.010934373104 403.1978990530809,552.4242037275379 406.91786014954243,536.0618250815044,C 411.65851448423285,515.2098916223216 410.58723184775266,493.2476177227686 405.2690023683154,472.5354626511386,C 399.9507728888782,451.82330757950854 390.5144081879405,432.33587773587016 379.13808340247357,414.229078822678,C 356.385433831531,378.0154809962893 326.3535926897111,346.9957166515348 300.9248485662991,312.6084122742565,C 276.3725377220815,279.40630909258414 256.0633196976015,242.47503908194574 246.38986819814647,202.33005235177987,C 236.71641669869194,162.18506562161406 237.74221219358762,119.43275620053024 250,80M 250 , 80C 238.7186482996666,157.04919013872768 202.72177990642928,228.68847089487474 156.3765143796395,291.26612633570903,C 126.34806386449324,331.81201615638014 92.49097867611712,369.8745914987665 68.08544919798042,414.0339297250397,C 55.88268445890629,436.11359883817636 46.22627097789148,459.7847415218359 41.6157343208682,484.58720525342994,C 37.00519766384493,509.389668985024 37.59601466928751,535.3440570456578 45.00487934605344,559.4589482878791,C 51.38514519363464,580.225884076742 62.845440034510496,599.4966751097714 78.52505691759151,614.5340628065877,C 94.20467380067252,629.571450503404 114.0651364745984,640.2690293315613 135.3230843700979,644.7493268235578,C 156.58103226559734,649.229624315554 179.1360226780825,647.4485372645838 199.38194471080138,639.569701348687,C 219.62786674352026,631.69086543279 237.47180338968982,617.7487380970584 250,600,C 260.4384055466858,614.6364931595658 274.68859548229034,626.5281436146947 290.95336920744995,634.1861053563368,C 307.21814293260957,641.8440670979788 325.4543743857125,645.2477410956008 343.39107616789374,644.0386209426828,C 361.3277779500749,642.8295007897648 378.91306388397675,637.0194132816927 394.13720579089926,627.4584119970478,C 409.36134769782177,617.8974107124031 422.1910863184351,604.6306051122741 431.54378643165575,589.2776170331002,C 446.15654167451936,565.289949906851 452.0511236177786,536.5060610280426 450.3404979202296,508.4701100067117,C 448.6298722226806,480.4341589853808 439.6458878481759,453.1905281907635 427.01555964684167,428.10237163285433,C 401.75490324414494,377.926058516981 363.1918748027234,335.9039690064101 330.795023309342,290.01053621790476,C 286.96458949743857,227.92027202514493 255.33924256426317,155.8142488224102 250,80M 250 , 80C 233.69787605687998,159.39419157813126 193.7894589977734,232.1238953633423 145.48957205366605,297.2108973114141,C 116.2614275703589,336.59757950230545 84.44985699531468,374.5793887805626 62.37161833049874,418.37603866845683,C 51.33249899808696,440.27436361240416 42.9071367908963,463.6521044594221 39.344294581644185,487.91534716063387,C 35.78145237239207,512.1785898618457 37.216965449840394,537.3363468106447 45.00580240675711,560.590009099508,C 51.83716140340469,580.9851099291504 63.57733336117509,599.7969675230697 79.34364402482622,614.4274511668048,C 95.10995468847734,629.0579348105397 114.86463531145857,639.4097028935942 135.93605809594814,643.7251108035894,C 157.0074808804377,648.0405187135844 179.3029507127003,646.2799534023757 199.39347424189128,638.5989073853688,C 219.48399777108227,630.9178613683619 237.2843968526524,617.3476522962479 250,600,C 273.99759996716006,616.3701270778671 305.6504785714177,620.863009253398 333.31557649356927,612.002522715565,C 360.98067441572084,603.1420361777319 383.8697042391039,581.342588128681 395.4700917990257,554.7099601474064,C 402.9306074575298,537.5818136044513 405.96892694580816,518.6662770450782 405.20787539585825,499.9993678626226,C 404.44682384590834,481.3324586801669 399.9698450698682,462.92909635793484 393.21975908963276,445.5087336422174,C 379.71958712916035,410.66800821078033 357.6250304450373,379.9463927382013 336.1632400686689,349.36008296745695,C 308.343785783044,309.71313685945006 281.5267431225245,268.7073386038188 265.2871517561849,223.07754521511842,C 249.047560389848,177.44775182642076 243.33385698888858,127.97254329088933 250,80M 250 , 80C 266.02029043227515,123.25623825444497 267.7486245932152,171.4844550806729 255.9247442888916,216.07086229193834,C 244.10086398456946,260.65726950320203 218.9326986255993,300.60178456411455 190.02406781215143,336.5467830750526,C 165.98907189801173,366.43190277924225 139.32387598812772,394.45977415946123 119.3327205322669,427.1882802644771,C 109.33714280433466,443.5525333169849 101.11347519284193,461.1170000333087 96.34423604737853,479.6899564499654,C 91.57499690191513,498.26291286662206 90.34716561318821,517.8606111085975 93.90197132065617,536.7037453612584,C 97.04426112383001,553.3602361780573 103.94900432054835,569.3509865973783 114.31126697879195,582.7650159748179,C 124.67352963703554,596.1790453522574 138.47914728275632,606.9484307241746 154.1102144626098,613.5045279135204,C 169.74128164246326,620.0606251028661 187.14307154667202,622.3662330184878 203.92975037589406,620.0167468147005,C 220.7164292051161,617.6672606109131 236.82990660250033,610.6705815885721 250,600,C 264.33909691580027,613.9785517491514 282.81706857914656,623.6544248103351 302.47078495541825,627.4938312703869,C 322.12450133168994,631.3332377304387 342.8655723534726,629.320357417718 361.46160832721625,621.8908853350159,C 380.0576443009598,614.461413252314 396.4256955216638,601.6719836607269 408.4122998040167,585.6304461052839,C 420.3989040863696,569.5889085498409 427.98763043342757,550.3978333667741 430.8931670721398,530.5845179903533,C 434.1704405636692,508.2362700290967 431.55100671785624,485.22956130331005 424.8388784770045,463.66264119508753,C 418.1267502361529,442.09572108686496 407.4375999958611,421.9273106484699 394.9662735967258,403.0951380090126,C 370.0236207984466,365.43079273009647 338.3834086560722,332.6747418100394 311.8393523298965,296.1213300998074,C 289.241905226075,265.00273324948853 270.2704671765361,230.9211003358371 259.13965786722184,194.10918963206672,C 248.0088485579077,157.29727892829635 244.71136038782407,118.09254489523116 250,80M 250 , 80C 250.46499505151286,128.13584946500896 240.28070872350145,176.21987005892484 221.36367690149126,220.48523045688148,C 202.446645079482,264.750590854836 174.69497057378828,304.5839778266009 146.25395495996005,343.4219084482199,C 125.93581382805971,371.1675616399201 105.29773711333614,398.9986008517399 90.52967138940471,430.0558442075751,C 75.76160566547283,461.1130875634102 67.35544450560705,496.11860657452354 72.72608471723753,530.0863023133745,C 75.77892704185521,549.3946184796162 83.26723462616883,568.0674462525438 94.96408307912827,583.7299701776022,C 106.66093153208772,599.3924941026606 122.55189863764916,611.9476035202838 140.63253027088317,619.378732585091,C 158.71316190411721,626.8098616498982 178.90616053401303,629.0624120825366 198.15805621804682,625.6719206718992,C 217.40995190208062,622.2814292612617 235.63792960801715,613.2612915468387 250,600,C 275.9269270152628,613.741773664559 307.7171142835089,615.8378572959373 335.28132299843116,605.775239056983,C 362.8455317133534,595.7126208180287 385.5947971421951,573.8145229721848 397.88291237957776,547.167870052624,C 407.65020806170764,525.9875887013666 411.0287946730458,502.1301802925476 409.1025492859764,478.88595602565994,C 407.176303898907,455.64173175877227 400.11833563909056,433.0269043901633 390.36873614749186,411.8384713944462,C 370.8695371642852,369.4616054029979 341.3883234536592,332.6124218722309 316.09589009151864,293.41662685713356,C 295.5643880430983,261.59886799939414 277.59086836242824,227.89609120448588 265.8614778515742,191.89145603986532,C 254.13208734072023,155.88682087524484 248.58651778699425,117.8406451203868 250,80M 250 , 80C 247.97085144046855,127.82745130676372 236.7305079582654,175.1475210294683 217.9581882238597,219.18367156702942,C 199.1858684894546,263.2198221045891 172.72402959580478,303.47497495583127 145.8330431148437,343.0787296826008,C 121.55021240040199,378.8413177292421 96.732372275735,415.15900796562437 83.7876656757355,456.4028334712675,C 77.3153123757328,477.02474622409187 74.00883628370455,498.79102036619116 75.70153309330236,520.3383965483608,C 77.39422990290016,541.8857727305306 84.22215476271126,563.1617920198313 96.41920050061364,581.0051862623142,C 112.99295975650821,605.2513952901182 139.81947241387252,622.5247264235719 168.94189612416582,626.326382027446,C 198.0643198344591,630.1280376313201 228.7115317970362,620.2328759612597 250,600,C 259.03768781251176,615.0575255918882 272.32054709126066,627.53402505194 287.9091512154063,635.621317516508,C 303.497755339552,643.7086099810762 321.3362495384007,647.3781482158121 338.85682907850946,646.1789107391158,C 356.3774086186182,644.9796732624196 373.51284989169443,638.9284060727214 388.0236570403847,629.0367250305371,C 402.534464189075,619.1450439883528 414.38195132539784,605.4737540276196 422.48742942078434,589.894597991685,C 432.92138140111325,569.8399924446644 437.0971615045019,546.8023355757633 435.8506671447124,524.230210966294,C 434.6041727849229,501.6580863568245 428.1054256354489,479.5771949370688 418.64463285846364,459.04556184066496,C 399.72304730448667,417.9822956478472 369.7924905440226,383.20300604524493 342.1344620809158,347.4363778587265,C 312.48052231346776,309.0886901577548 285.11614299464577,268.32820461909625 268.1274249360915,222.9268306919821,C 251.13870687753843,177.52545676486878 244.5290438467697,128.16606621379833 250,80M 250 , 80C 257.72617550716086,119.42107724496924 255.97432908327048,160.60453998352867 245.3995543218009,199.35875598470034,C 234.82477956033142,238.11297198587198 215.43540284799974,274.0555526235786 191.81537997514792,306.54877712665365,C 159.8310827898584,350.5484360012092 119.73100329073641,388.5825938653581 91.3945223393026,435.0154388654569,C 77.22628186354606,458.2318613655226 66.26075223175758,483.75492250235726 62.363778220891426,510.67248007058873,C 58.466804210025266,537.5900376388203 61.99898311264176,565.8943718578445 74.60011372125685,589.997334731007,C 82.86554009396629,605.8071276122599 94.94552476356105,619.6592310873974 109.71639487586314,629.6636411247908,C 124.48726498816525,639.6680511621843 141.90977680120972,645.765078311582 159.71063308498242,646.9467464694285,C 177.51148936875506,648.128414627275 195.62388105493173,644.3786718492099 211.45768612520163,636.1593384779752,C 227.29149119547154,627.9400051067405 240.79116763045656,615.2795363300214 250,600,C 275.4653663450297,611.458451002485 305.2291360476773,612.9705739635029 331.7623026703858,604.265859641108,C 358.29546929309436,595.5611453187131 381.22784912895935,576.8097410454291 395.826822200909,553.0053093633366,C 408.10638218063536,532.9828087954581 414.59599528359615,509.648045681577 415.7684482207956,486.1892844952645,C 416.9409011579951,462.7305233089519 412.93974197227425,439.1935990767311 405.799197575253,416.8172555863268,C 391.51810878120784,372.0645686055086 365.51787990853285,332.1490609934341 340.9894313960582,292.08526558264737,C 300.5950627140137,226.10670514486662 265.6288220306367,155.7668488231991 250,80M 250 , 80C 262.80797542201765,126.65485097412753 261.47388381308696,176.92715718864216 247.22766028764303,223.1631222925755,C 232.9814367622003,269.39908739650764 205.9751620265916,310.7092171930645 175.34547820946383,348.15974219728423,C 146.2310160498803,383.75762494402494 113.55629434480224,417.0554808026549 91.44678021038638,457.379549888408,C 80.39202314316945,477.5415844312879 72.19224284029116,499.48560656997694 69.45078618488208,522.3154052140732,C 66.709329529473,545.1452038581693 69.62759639499524,568.8476394369937 79.35599760195319,589.6820700910798,C 86.83718703732151,605.7038520041934 98.31212659727038,619.9028437810296 112.6788496090051,630.2112365240004,C 127.04557262073983,640.5196292669712 144.26159840278513,646.8655529391759 161.8997221321698,648.1154658746075,C 179.53784586155444,649.3653788100389 197.51972609333257,645.4990783078789 213.04495674291047,637.0354558968396,C 228.57018739248838,628.5718334858003 241.5735595545788,615.54544281965 250,600,C 258.17182130911607,616.9270940200963 271.5340148222057,631.3023800149103 287.8133391554063,640.6985906728173,C 304.092663488607,650.0948013307243 323.2093385410347,654.4677130197217 341.9618180086367,653.1833107110712,C 360.71429747623864,651.8989084024206 379.00632533649707,644.9828712248914 394.08380293395544,633.7590196234383,C 409.16128053141387,622.5351680219853 420.9754552570055,607.0932114318076 428.3657487621911,589.8105977006468,C 437.3029922833233,568.9103550392875 439.75921736674275,545.5109043914501 436.90478984905343,522.9599241775885,C 434.0503623313641,500.40894396372687 426.0575520700028,478.7122621220464 415.3274889776496,458.67329480599346,C 393.86736279293444,418.59536017387853 362.23994638039,385.09570158820776 333.609035821043,349.78212316881434,C 302.8711505627794,311.8697864562187 275.28492073878124,270.5984434883839 259.592170839839,224.38264028462413,C 243.89942094089827,178.16683708086498 240.19716401915983,127.81283584867188 250,80M 250 , 80C 263.52028884100775,127.1711402121767 261.7973352396813,178.37715306355722 246.32760093096132,224.9454040472341,C 230.85786662224345,271.51365503090824 201.87838897749057,312.3872032944197 169.89057615971433,349.5986868767186,C 146.8597007825943,376.3905480728481 122.26487223543134,402.05089954638163 102.72633625462142,431.48677321637314,C 83.18780027381081,460.9226468863643 69.04476016605315,495.1506985357728 69.68159623459456,530.475187021962,C 70.06582921101652,551.7881025776101 75.91834873503504,573.1067102385149 87.33067915371204,591.1107853016026,C 98.74300957238906,609.1148603646903 115.71134438517578,623.628949915223 135.46324003031265,631.6445985406294,C 155.21513567545006,639.6602471660357 177.61021452691236,641.0727995686528 198.16461733672057,635.4243900938959,C 218.71902014652878,629.7759806191389 237.27717418506032,617.1031490593131 250,600,C 263.1522645216688,614.1472001575312 280.7822278715853,624.0642306676599 299.6984342055277,627.9760681229891,C 318.6146405394701,631.8879055783183 338.7082377614345,629.7750261636116 356.453580935753,622.1442902901282,C 374.1989241100714,614.513554416645 389.4979066799843,601.438386630231 400.12838808106926,585.3102063383823,C 410.75886948215424,569.1820260465336 416.71196041883366,550.1254656367821 417.92190839925615,530.8469449406846,C 420.16889717754555,495.0448936400728 406.1425074131246,459.8584457098245 386.2316478509499,430.0189834593624,C 366.32078828877394,400.1795212089002 340.9586473030933,374.46025044782283 317.5374242040594,347.28890258933905,C 285.85452974868804,310.53305329955185 257.6952089315266,269.5085663382003 244.25589921626343,222.88042877662724,C 230.81658950100407,176.25229121505538 232.43021492233567,125.23384695566159 250,80M 250 , 80C 225.4893166839857,166.48511678131374 179.9460994065502,245.07649852581116 135.15155660401305,323.0117149328186,C 114.11896440208105,359.6050033627 94.09376403578447,397.5672303876929 85.39875101178094,438.86899114141465,C 81.05124449977815,459.51987151827666 79.68284422359186,480.9051801384354 82.65735631750385,501.79804856320044,C 85.63186841141584,522.6909169879655 93.03694853603957,543.0485535441929 104.99683258896104,560.4359296157008,C 120.49265529351794,582.9638818691932 143.80255349061545,600.1726443679381 170.1441112565128,607.5041850308949,C 196.48566902241012,614.8357256938516 225.50379916918564,612.1476458164989 250,600,C 258.97677070367075,613.6556084811127 271.7378434935931,624.7940295347433 286.477718047862,631.850526780554,C 301.21759260213094,638.9070240263646 317.8870708060981,641.8582588790683 334.15997929962316,640.3580907494653,C 350.43288779314815,638.8579226198623 366.2511878799225,632.9216879804569 379.6004974108504,623.4954485233249,C 392.94980694177826,614.0692090661928 403.79652079782426,601.205705947842 411.1572261374817,586.6153642054957,C 422.0231148901103,565.0770709415316 425.1439292271894,540.0464459267913 421.8246182392652,516.1519321281289,C 418.505307251341,492.2574183294666 409.02406578423444,469.5173287270849 396.5492578559263,448.86921059828586,C 371.5996419992879,407.5729743406512 335.6315201414187,374.2687146687182 305.1770359093972,336.84697164942844,C 276.0909538733754,301.1066885732983 251.78832913487824,260.5595742119929 240.97790204603757,215.76557161426825,C 230.167474957198,170.9715690165437 233.0479668704468,122.84853060890887 250,80M 250 , 80C 230.0454591174626,164.88651071236507 185.79097934612372,241.92077038460525 135.75003405375188,313.33370476626453,C 106.70476120614336,354.7839242184507 76.25673278211327,396.30004420242597 59.50397726523194,444.060841411204,C 51.127599506784804,467.9412400155981 46.44191139468499,493.3188976523552 47.85838394127431,518.5860848203348,C 49.27485648786364,543.8532719883144 56.98723253759054,568.9475598174786 71.35818804635525,589.7781330122339,C 91.04754416480694,618.3176809589739 123.72736157063821,637.9134381381676 158.32718490530027,640.1559292916978,C 192.92700823996228,642.398420445228 228.2536700392478,627.0050675726163 250,600,C 260.4658257989728,618.689532153978 276.71746319714146,634.0825238452751 295.93964910442986,643.534491404184,C 315.16183501171827,652.9864589630929 337.2554760674144,656.4511279224141 358.4665753397469,653.4642584160115,C 379.6776746120792,650.477388909609 399.89326147233373,641.0799799123198 416.0834261659658,627.0546211296689,C 432.2735908595979,613.0292623470181 444.3909885897328,594.4896166965615 451.4003576419446,574.2485478690784,C 458.93368820468845,552.4944268797481 460.61393546664164,528.9125499899937 457.61605639552573,506.0870035461306,C 454.6181773244098,483.2614571022674 447.06149419314465,461.1882597317814 436.9661693826732,440.4982315453078,C 416.775519761726,399.11817517235795 387.08393576985844,363.2769096377683 359.2682631535009,326.58549709417736,C 331.73189453171835,290.26251202783084 305.7946847870931,252.4257622545207 286.5545160726529,211.10474158894903,C 267.314347358213,169.7837209233775 254.68212567911226,125.33970158845003 250,80M 250 , 80C 258.43793455534535,128.2892865428076 253.16121394505947,178.7160168434052 236.09559429680675,224.67054393698805,C 219.0299746485558,270.62507103056765 190.25327394115595,311.21751822913905 159.66094340964312,349.521085256558,C 138.35462806838527,376.1979635329782 116.18178060525563,402.46236131335183 99.41671794885345,432.20370597231044,C 82.65165529245073,461.9450506312688 71.71731295573147,495.9966631362401 74.77163420946934,530.0008691948298,C 76.55488974433737,549.8541143597099 83.13041732042322,569.355974873443 94.40366387252612,585.7951128087172,C 105.67691042462903,602.2342507439914 121.63733616882473,615.4864243384598 140.02956858386554,623.1712880763926,C 158.4218009989065,630.8561518143251 179.14763521896336,632.9013624688563 198.65737827395898,628.8146437597297,C 218.16712132895464,624.7279250506032 236.35306608048944,614.5290240028705 250,600,C 272.698602181999,616.7994802348428 302.11791430553,624.1937086647914 330.07832661926545,620.2358783976581,C 358.03873893300084,616.2780481305248 384.0861409559747,601.087832645298 401.99095536529205,579.2505549270148,C 418.4793418025896,559.1407975440916 428.0838725192947,533.7974271452698 430.784759424017,507.93288695539604,C 433.4856463287393,482.06834676552234 429.5181421566143,455.78587323932345 421.5353958814559,431.0362269547371,C 405.5699033311386,381.536934385534 374.8098079584728,338.4197174799349 346.38056877727115,294.8668154319217,C 303.1982856306531,228.71260933072202 266.34062088776864,157.29212554741213 250,80M 250 , 80C 250.42863529269027,118.11127512874822 243.99497638097247,156.24628427857985 231.51836809022885,192.2599936919773,C 219.0417597994853,228.27370310537464 200.45980179676138,261.9068674509642 179.47252595713456,293.7217581938961,C 154.9027465098976,330.96741383138703 126.80965133603567,366.1809458459704 107.31427781062362,406.3162586896134,C 97.56659104791339,426.38391511143595 90.12328066383833,447.72130741896774 87.0940308570143,469.82451707494505,C 84.06478105019028,491.9277267309224 85.57774271892377,514.7999436481055 92.8527683914306,535.8902787083315,C 103.38833781536378,566.4329460752153 126.68761547133741,592.693593422049 156.49580586627192,605.1565199784387,C 186.3039962612064,617.6194465348284 221.78548422586263,615.7414692008587 250,600,C 261.9146399294632,619.4085976177987 280.74669871349585,634.4656621706536 302.29289348119164,641.8422329980028,C 323.83908824888744,649.2188038253521 347.91029091482096,648.8587302159223 369.296649683329,641.030833642574,C 390.683008451837,633.2029370692264 409.2087645424569,618.0287159099402 421.568047090958,598.9001916327074,C 433.92732963945906,579.7716673554747 440.1133646460442,556.9009344615816 440.1853056014487,534.1271089015818,C 440.2552621661331,511.981467493878 434.6913753266504,490.0153094762963 425.54168456316097,469.8480715342264,C 416.3919937996715,449.6808335921565 403.75096984779753,431.2524861577533 389.7028982656663,414.1327311331373,C 361.6067551013966,379.8932210839069 328.12803571406135,350.34908593921995 300.2805134212518,315.9070649289777,C 273.78190869026434,283.1333951105067 252.47646337655297,245.5170404134761 242.90095092500567,204.47317305975892,C 233.32543847345866,163.42930570604176 235.60294036169415,119.61078337814497 250,80M 250 , 80C 258.0514528756036,128.3564145466336 252.91853483656647,178.70391323212553 236.20626788927842,224.78936489202061,C 219.4940009419912,270.8748165519148 191.29113378117518,311.95252727963646 159.8358562486752,349.5521846792357,C 132.1685889821849,382.6238932129892 101.86883246480907,413.80580482290475 78.86244112132538,450.27389417081855,C 67.3592454495818,468.50793884477497 57.79546410487325,488.0957338372468 52.035455335211424,508.87134922663245,C 46.27544656554961,529.6469646160181 44.4121890945225,551.6367719378641 47.91937528583018,572.9089025517391,C 51.74375547496372,596.1049093967567 62.11551585785258,618.3356129234452 78.24300021266586,635.4407251934771,C 94.37048456747914,652.545837463509 116.19933461925922,664.2981871015622 139.44614597392444,667.8005262093233,C 162.6929573285904,671.3028653170837 187.13924204702565,666.465003902137 207.19637615242914,654.201562751178,C 227.25351025783263,641.9381216002189 242.7286665068485,622.3563934170194 250,600,C 262.46787231465987,618.4901361768428 281.320760435276,632.5806412877149 302.577528650953,639.3247335852623,C 323.83429686663004,646.0688258828095 347.32840215626175,645.4204431954082 368.2463966385672,637.6893059743333,C 389.1643911208725,629.9581687532589 407.3512022546426,615.2508671182906 419.71952295369414,596.6939918700638,C 432.0878436527457,578.137116621837 438.6270589992395,555.9186295154767 439.3006737390668,533.627841752925,C 439.9779663228815,511.21534934985175 434.85926973068354,488.83324676180905 426.0077578639827,468.2315653101518,C 417.15624599728187,447.6298838584945 404.6738471257622,428.7488418392834 390.7176716477297,411.19880745218694,C 362.80532069165633,376.09873867799513 329.2721047259131,345.7647067992854 301.53531171597047,310.52574430928576,C 276.1299595126796,278.2488241542997 255.65208102412498,241.5414405762981 245.9749486288883,201.62171357485607,C 236.29781623365193,161.70198657341405 237.5058449066852,119.129625397757 250,80M 250.22874529419303 , 576.9734863072404C 249.73496076810395,584.6372669822454 249.6585618299162,592.3279222260984 250,600,C 252.5353911380338,656.9699573819846 279.24221688386075,712.471057619256 322.17917923695177,750M 250.59753248475243 , 576.8018447042075C 250.8349477362354,584.5375928137322 250.63534727184393,592.2867322968917 250,600,C 245.13569702900452,659.0538004443174 213.3285606585046,715.3551501774189 165.25832900645514,750M 249.37211250795008 , 575.2216958837786C 249.27415159053604,583.4851060815881 249.4836404129704,591.752156814325 250,600,C 253.3015472419262,652.7358155159887 269.3709901576282,704.6276426088771 296.45079143273506,750M 250.48906962648843 , 576.8722447480188C 250.68374655518528,584.5835286453835 250.52048948941936,592.3038393244602 250,600,C 246.2686044245104,655.173870897954 223.5557351322732,708.8870909726368 186.5718460167053,750M 250.98716399957925 , 575.8402901445287C 250.48857892089862,583.8854074504504 250.15942698119446,591.9410247187132 250,600,C 249.00193823471542,650.4516552679055 254.69299722824707,701.0315872874634 266.87742183401235,750M 249.03032826586175 , 575.7555890182227C 248.91765581057538,583.8466534431493 249.24150584261974,591.9437784772442 250,600,C 255.4120867157772,657.4835930618851 283.92744041211154,712.4631124168409 327.79811654654986,750M 250.66104287070263 , 576.7503481345971C 250.02299283736093,584.4808361820601 249.8022179569787,592.2457472596984 250,600,C 251.42914343288282,656.0310694106946 275.7217429932907,711.1441442269632 316.1166147272472,750M 249.87250577740753 , 575.0081606868017C 250.26545112647642,583.3320704604814 250.30799935204766,591.6725144030834 250,600,C 248.03932962450756,653.0113268215193 231.55442377501961,705.413629868915 202.81245797180492,750M 250.81389594668698 , 576.5810106608028C 250.51748526604405,584.3864407431208 250.24618474535046,592.1928243818452 250,600,C 248.42392087843385,649.9816772670335 247.87737474699253,699.9958165396097 248.36082514047877,750M 250.97102732470762 , 575.7610315195028C 250.11704809658107,583.8077989698962 249.79244085019084,591.9107066982268 250,600,C 251.5276288227981,659.5369446021459 283.8586023839873,717.4532797947738 333.73537479622297,750M 250.67737093520776 , 576.7356416356731C 250.5939567322774,584.493701437274 250.36811569769063,592.2502296390422 250,600,C 247.58808408747547,650.7769556399466 239.03993369065375,701.2596069026056 224.60072861760145,750M 249.25615162013852 , 575.3316515970114C 249.60183526764777,583.5510996612204 249.8498080855752,591.7746570859795 250,600,C 250.91497044550073,650.1088603821356 248.1948744951533,700.283728574504 241.8681521795373,750M 249.00094468706104 , 576.0434566644878C 249.61732702087832,584.0137929111644 249.95062530867855,592.0060179380746 250,600,C 250.31950238476122,651.7288567111259 238.55019767495372,703.494338686052 215.89627606816742,750M 249.0464840870854 , 576.3013426684336C 249.84695985892853,584.1716124659383 250.16559094860838,592.090860490258 250,600,C 248.78646759176056,657.9620878859596 220.00959985138928,714.7470110524326 173.9845733628771,750M 249.0006509304184 , 575.9639245633931C 249.0638191815706,583.9841389419121 249.39718742649546,592.002222439541 250,600,C 253.96176714256583,652.5624941237871 269.7409914766481,704.2007634655371 295.8358438476693,750M 250.53005126570358 , 575.1520344018028C 250.74150917675607,583.4369067167214 250.56456688556537,591.7316816731349 250,600,C 246.27765599561238,654.5152858541361 225.2107339652081,707.7157397688188 190.60129055236303,750M 250.30594012948524 , 576.9520507534636C 250.2945062441104,584.6355466700506 250.19251675815184,592.3189077904392 250,600,C 248.73938154176213,650.2965389182509 243.58967792749905,700.4951274513813 234.6120067374075,750M 249.61991220914587 , 576.9249504155595C 250.08205093500607,584.6062276375937 250.20890760706297,592.3076694314797 250,600,C 248.5419793021344,653.6867821206093 230.2560361584106,706.7956262319466 198.3533954192568,750M 250.91609700748202 , 576.4009566970167C 251.0569625497928,584.2761869577894 250.75094260823437,592.1593890569459 250,600,C 244.3216155617785,659.2881568804154 211.8352386945601,715.4887355359901 163.29348119444327,750M 250.99778542960527 , 575.9334850658317C 251.07462868786598,583.9656627767658 250.74145667047875,592.0017485865866 250,600,C 244.75281447619324,656.6025105757446 218.25720937871822,710.9832129285371 176.91633993915917,750M 249.30674946801432 , 576.720696676766C 250.0535301416434,584.4536544891374 250.28529516124286,592.2363072849711 250,600,C 248.8560487553331,631.1301667573974 239.2214817307928,661.9068654670175 222.4103570949397,688.1324635587933,C 205.59923245908664,714.3580616505692 181.6562692664734,735.9627967512423 153.84704720352076,750M 249.51749863739482 , 575.1241047807619C 250.26083610300077,583.3911092353259 250.42219968376872,591.7103883886771 250,600,C 248.40298492324268,631.3563350061563 238.28124593140757,662.2371827620794 221.00728324037772,688.455123473024,C 203.73332054934787,714.6730641839684 179.3525344384222,736.1591905672101 151.17094121839853,750M 249.74622807654725 , 575.0327359146195C 250.2786463057459,583.3425676602585 250.363400325678,591.6810629876823 250,600,C 247.5766266685397,655.4757073047123 224.4418885874105,709.8067150066145 186.1283572870693,750M 250.26483900947744 , 576.9642926418153C 249.68459848921526,584.6266897725952 249.5960770494657,592.3262880493747 250,600,C 251.63436577213471,631.0496151326216 261.4936830026098,661.6292328484834 278.3035119489817,687.7860560912775,C 295.11334089535353,713.9428793340716 318.83366625115866,735.6146425506199 346.3983400641138,750M 250.7150544958905 , 575.3009312852754C 250.79979647896494,583.539080736094 250.56120042330946,591.7805510122274 250,600,C 246.37092088397662,653.1521884656478 228.9804108704167,705.3065334473815 199.98352480608094,750M 250.32395637137847 , 575.0539279787229C 250.2610635684375,583.3697893846274 250.15307599439234,591.6853097371691 250,600,C 249.078275815706,650.0656626833502 246.52123172604152,700.1012034488091 242.33431661611104,750M 250.1836018557405 , 576.9830006910316C 249.83174339427782,584.6493435348414 249.77048420197517,592.3290196536432 250,600,C 251.57852213038018,652.7580774074887 267.2054537410837,705.031739182685 294.841697749932,750M 249.68636793330626 , 575.0504554108725C 249.42710511009497,583.366239069862 249.5317824731533,591.6933612440307 250,600,C 253.02342463351468,653.6385222604612 271.5806389352465,706.3115432398477 302.84644953911265,750M 250.93019141372437 , 576.3670748341053C 250.90998677434618,584.252567872888 250.59964335407105,592.1373136562584 250,600,C 245.94652784379056,653.1502266321945 228.41800838611144,705.2189670866251 199.5037157475903,750M 250.7998347058531 , 575.3997796710266C 250.06668322474886,583.5758142754402 249.79949547384498,591.7936091439778 250,600,C 251.36725264536418,655.9598819136567 275.47718624529176,711.0345865961258 315.6651735282079,750M 249.5537007309078 , 576.8948837703343C 250.15842098694938,584.5787718818685 250.30753535812815,592.298490725699 250,600,C 247.6598466474831,658.6037093666023 217.28796222682902,715.4669910586146 169.88181955847142,750M 249.153359039949 , 576.5321645279084C 248.98433864638946,584.3623779632082 249.26717758922052,592.2023220347306 250,600,C 255.62309121502904,659.833124395709 289.2494836068123,716.4410257363455 339.1034420869199,750M 250.22538276765 , 575.0257297048322C 249.86761442024286,583.3447358663019 249.7924290803886,591.6758918785068 250,600,C 251.29160841563734,651.7966973529976 263.68644514766083,703.2892125685158 286.10671380145004,750M 250.68005564379723 , 576.733160501759C 250.47449102485743,584.4893718042171 250.24780468955893,592.2450233129448 250,600,C 248.40105927997558,650.0383912420825 245.92279370540845,700.0486830191379 242.56673330677052,750M 250.68577415507713 , 576.7278144050706C 250.65442865260246,584.4893494882724 250.42573878611057,592.2500867182724 250,600,C 247.17398038233338,651.4432973548468 235.5866252118741,702.3941991785264 215.88670242611676,750M 250.67793191062157 , 576.7351247000074C 250.17579358280284,584.4787524318197 249.94962508416464,592.2402721879558 250,600,C 250.33781218438156,652.0364264420784 263.3373129156619,703.9459511258093 287.5639176350075,750M 250.92891755004698 , 575.6297133742427C 250.50846619766128,583.7484136648505 250.1987885890559,591.8728506322758 250,600,C 248.773745226435,650.1334395247599 251.7767378659269,700.3696554439323 258.96661676605044,750M 250.59497852995443 , 576.8037415933578C 250.04263544184045,584.5213357906729 249.84403184092145,592.2642377870845 250,600,C 251.08727086599816,653.9268330798011 269.9520307102467,707.3485799489613 302.96932695907105,750M 250.61400855250744 , 576.789299371245C 250.6521803531761,584.5300823695221 250.44737647837218,592.2720615427281 250,600,C 246.97938138496673,652.177876773501 232.7432848205852,703.6785921069448 208.53621700530968,750M 250.9915782887169 , 576.1295086767179C 250.50309007103283,584.0787296679348 250.1724770806534,592.0376519315802 250,600,C 248.9084188770006,650.3924858497757 254.18323630580116,700.9195340393044 265.6593872523916,750" stroke="hsl(210,80%, 90%)" fill="none" stroke-width="1"/></svg>