<svg viewBox="0 0 500 800" width="500" height="800" version="1.1" xmlns="http://www.w3.org/2000/svg">
<rect width="500" height="800" fill="hsl(210,80%, 20%)" /><path d="M 250 , 80C 256.67470676036424,128.54775126820365 250.27833601972577,178.6854879214531 232.6115146351301,224.39456016866694,C 214.94469325053547,270.1036324158796 186.0857648216576,310.6260112342405 154.5202195824998,348.11003739593707,C 129.74599455983312,377.52938345346627 103.2718923669934,405.75527408423255 82.40924383608602,438.0664183567929,C 61.54659530517781,470.3775626293528 46.694279393147305,507.9318158179433 48.28001519980532,546.3602634821135,C 49.275395520943725,570.4821382712086 56.88105226806842,594.4691545094095 71.01775864705783,614.0397742767733,C 85.15446502604725,633.610394044137 105.80497356504542,648.5118514060739 129.01837103159656,655.1446338828634,C 152.231768498149,661.7774163596526 177.78736702516548,660.0088967567821 199.77062584931844,650.0293197720173,C 221.75388467347142,640.0497427872525 239.9427407298164,621.9478281681093 250,600,C 262.08074380978854,617.7618464493424 279.4300781776766,631.889072272293 299.2651985088414,640.1350144098523,C 319.10031884000625,648.3809565474115 341.3336636076608,650.7106800000251 362.4690403072396,646.8735701430279,C 383.60441700681827,643.0364602860307 403.54495461212605,633.0713373535508 419.52421425966526,618.7154736942551,C 435.5034739072044,604.3596100349596 447.48073243967576,585.7128409822877 454.5074759229373,565.4137662174567,C 462.6644064703353,541.8497719678315 464.17240477077723,516.2309372194736 460.45835017030527,491.57321754842224,C 456.7442955698333,466.9154978773708 447.959253128903,443.2085864605019 436.50183400441466,421.0607900022253,C 413.58699575542994,376.7651970856668 380.74181730443814,338.55243065674426 350.967518903902,298.54392507902446,C 302.5739030128598,233.51615430648766 263.66084999459287,159.8995257062303 250,80M 250 , 80C 253.36360010207792,118.53082827386201 248.8855363002182,157.68368372531066 237.3174872684327,194.59057704776126,C 225.74943823664725,231.49747037021183 207.06133215666134,265.8752941364968 185.02210274249933,297.6591091993,C 153.92763500423553,342.5019117082757 115.59435553637911,382.6403313982589 90.58913591734593,431.1427215722374,C 78.086526107792,455.3939166592552 69.24241364316082,481.8806599871054 67.85417667250273,509.1296693876661,C 66.46593970184462,536.3786787882269 72.90767619231869,564.3217332155258 88.08060809723014,586.9981053373506,C 105.52209416400092,613.0648952554586 134.7416833942931,631.2458406621615 165.98644435683985,633.974922054398,C 197.23120531938656,636.7040034466345 229.48794713511145,623.7263284163427 250,600,C 259.7212074731652,612.6238901745883 272.68178109455204,622.7305847376235 287.2913244850958,629.0887070859437,C 301.90086787563956,635.4468294342639 318.12289617057905,638.0401713395077 333.991571675348,636.6085234775189,C 349.86024718011686,635.1768756155301 365.3324390917939,629.7307959746441 378.6822927622607,621.0333316974245,C 392.03214643272753,612.3358674202049 403.2320515408573,600.4248230858622 411.3486945562942,586.7140760589366,C 424.93003269272623,563.7722895196487 429.5937792918859,536.1209399704826 426.6407713468146,509.6245617412472,C 423.68776340174327,483.12818351201173 413.5002714247857,457.82458584522385 399.9686863216203,434.8534187049554,C 372.9055161152484,388.9110844243314 333.59642774270344,351.5230894165662 302.37650642063164,308.29775224708544,C 278.7267380383505,275.5536206473318 259.51731412256237,239.166900974058 249.83785634119005,199.952135950968,C 240.1583985598179,160.737370927878 240.03288969965183,119.14264185026634 250,80M 250 , 80C 235.32888855473396,156.81858992633306 198.86943694473814,227.93638571757344 154.08960796040338,292.05427858253955,C 122.49776376184636,337.28898643366585 87.07172946891706,380.81285071200574 66.38891492183662,431.96404421375826,C 56.047507648278945,457.5396409646498 49.73771607606567,485.0286064549217 50.64606632793177,512.6008887939255,C 51.554416579797866,540.1731711329294 59.97283560473865,567.7421286189667 76.31042587905706,589.9713660685578,C 96.0586852286495,616.8412250212524 127.63688940053311,635.0250320388438 160.91404903828183,637.1729877926365,C 194.1912086760305,639.3209435464291 228.17299282279276,625.2104110470775 250,600,C 258.3240379422111,616.6188015261317 271.6718073927419,630.6778978256821 287.83052649040917,639.8632105014167,C 303.98924558807647,649.0485231771513 322.88430190798897,653.3191012439762 341.4290474366685,652.0674682686795,C 359.9737929653479,650.8158352933827 378.0783224571362,644.0650144732833 393.0657338970106,633.0717588062734,C 408.053145336885,622.0785031392634 419.8759865072267,606.9254178668482 427.35082530066296,589.9077518447268,C 438.0107850833883,565.6386484694192 439.702393406387,537.932312533409 434.4044861177148,511.96009084231514,C 429.1065788290426,485.98786915122133 417.15557606636884,461.7275818236969 402.31312969188605,439.7656623531385,C 372.62823694287005,395.84182341197106 332.23962683054276,360.22480866265533 300.06061025672284,318.0939722457027,C 274.3892657496668,284.48339830073917 253.83407699343178,246.40724286426172 244.39553721491586,205.18100635692105,C 234.9569974364002,163.9547698495804 236.7118667634813,120.1511410148994 250,80M 250 , 80C 254.94331256154132,128.5554483059168 247.69225492666953,178.1806581134424 229.96190592904117,223.65265635073067,C 212.23155693141354,269.1246545880181 184.05306147305484,309.7806735576127 153.15823882777153,347.5639745381522,C 125.91845246218863,380.8772923944542 96.4355350466032,412.7402943759304 74.61517530507528,449.8301178938161,C 63.70499543430967,468.37502965275866 54.8331271340445,488.2455495787622 49.82781108120673,509.17143279000635,C 44.822495028368955,530.0973160012504 43.77678863077067,552.0989263541791 48.05314098890575,573.1858556580985,C 52.625562532780705,595.7327184440782 63.41715912133185,617.1210148736523 79.56004131988598,633.5123361928228,C 95.7029235184401,649.9036575119932 117.14299507194714,661.1006101629251 139.89858104455942,664.4845970582511,C 162.65416701717217,667.8685839535766 186.53472279653212,663.362704847521 206.40100854414422,651.7610346721139,C 226.26729429175631,640.1593644967068 241.9511539166135,621.551894046479 250,600,C 258.27849825300297,617.2710937587518 271.8758852206229,631.9450243682254 288.46061891915997,641.5247331893315,C 305.04535261769706,651.1044420104377 324.5347022569917,655.5441113856355 343.63990603940516,654.1967430688695,C 362.7451098218185,652.8493747521036 381.3664664579117,645.7420380748955 396.6844417997621,634.2449147662139,C 412.00241714161257,622.7477914575323 423.96725396989467,606.954271802391 431.4104670508241,589.3070966182305,C 440.2248893868942,568.4089101199363 442.6976713107362,545.0939665034342 439.97212762519365,522.5773137403281,C 437.2465839396511,500.06066097722197 429.4844502759721,478.3476487726312 419.00381539492577,458.23336199615585,C 398.0425456328256,418.00478844319764 366.96865277212277,384.14678752784266 338.618125825791,348.7354816777244,C 308.18210660756273,310.7192858081669 280.59024348018465,269.70490580948956 264.14041035641975,223.86839847695808,C 247.69057723265618,178.03189114442725 242.43701179757912,128.1080411542069 250,80M 250 , 80C 240.82220287236112,156.50081722984208 206.41695212480857,228.20301529948557 160.79788949978092,290.2957533786169,C 129.4832835814828,332.91849728106075 93.40178859121451,372.3761763012053 67.73039481371379,418.6177418360369,C 54.89469792495307,441.738524603454 44.87776563621737,466.64955158009377 40.568584098414696,492.7408655537612,C 36.259402560612024,518.8321795274286 37.86058004696999,546.1205899320989 47.056117637687514,570.9151013976619,C 54.44477057751876,590.8375951316294 66.72969536231139,609.002602018462 82.87905688360881,622.8118768473473,C 99.02841840490623,636.6211516762327 118.99901818802323,645.9779999850357 139.99600968309335,649.2374933507602,C 160.99300117816344,652.4969867164846 182.92006981241462,649.6238542827814 202.32188779946895,640.959709336945,C 221.72370578652328,632.2955643911087 238.51490805760548,617.8770974131706 250,600,C 261.64755520443833,619.3624193564648 280.3630096481048,634.3596739885803 301.7893704956339,641.5346225185359,C 323.21573134316293,648.7095710484915 347.1467982218408,648.0034657455606 368.193487322209,639.7811969900114,C 389.24017642257735,631.5589282344633 407.2162423942506,615.9586397864538 418.84210790959577,596.5831894279426,C 430.4679734249409,577.2077390694313 435.7485955842026,554.285829083997 434.9657016903905,531.7036258538634,C 433.6950744386939,495.052985129355 416.85547948502045,460.4674259473556 394.96224235534584,431.0468527525046,C 373.06900522567014,401.6262795576539 346.37486776999697,376.176570215285 321.8832137412847,348.88109729269877,C 289.1732684467557,312.426498308104 260.3919192509911,271.23853471501167 246.288670718868,224.3346256120396,C 232.18542218674776,177.43071650906813 233.0972208911822,125.96927633427647 250,80M 250 , 80C 251.50642573469918,118.23181521999987 245.7549419672075,156.69918057870257 233.49006430466952,192.94161136684585,C 221.22518664213158,229.1840421549891 202.41434994962577,262.9617525954742 180.3872439718526,294.24669491209556,C 148.1693306611547,340.0055685700406 108.4965015971863,380.71592304597374 81.61449794228186,429.79979347238907,C 68.17349611479261,454.3417286856162 58.235844268069954,481.14883197377264 55.65192726582715,509.0108219791963,C 53.06801026358434,536.87281198462 58.20048065615559,565.756191472381 72.37051424780749,589.8845412325338,C 81.33903736188257,605.1558997038006 93.82988670437697,618.3910488318588 108.75560724847057,627.923711767537,C 123.68132779256415,637.4563747032154 141.007465071947,643.2387012477469 158.67973204532694,644.3961883652632,C 176.35199901870683,645.5536754827796 194.31561807224324,642.0737886302461 210.24793727532466,634.3400960311862,C 226.18025647840608,626.6064034321264 240.03576531705667,614.6411346414429 250,600,C 261.8980933162686,618.7182774506523 280.54062527079077,633.0416401586884 301.6840490493132,639.7419510622244,C 322.82747282783566,646.4422619657605 346.2776484776324,645.4672564019202 366.870480406522,637.228700191592,C 387.46331233541173,628.9901439812647 405.0244616398042,613.618745804452 416.4156433872126,594.5877312839455,C 427.8068251346209,575.556716763439 433.03180835875816,553.081703457015 432.3436162561671,530.9126952042277,C 431.1980273443706,494.00938006262135 414.05649832221627,459.21054616273494 391.8178873008723,429.7383351456276,C 369.5792762795271,400.26612412852063 342.4989465396033,374.85194965309586 317.8010809607254,347.40777944805495,C 285.23317789512345,311.2184548240638 256.8128788006404,270.05246663263296 243.39723162758722,223.25122799775062,C 229.98158445453694,176.4499893628688 231.93394551665656,125.2101006660657 250,80M 250 , 80C 247.20309247380678,155.83107696571392 216.6754270815594,228.29989806060706 175.0060768505927,291.7178779781284,C 150.55427534100946,328.93189375919457 122.96554893141985,364.41324787551815 103.96698879409047,404.685177061066,C 94.46770872542223,424.82114165384075 87.26865960270307,446.18449627375213 84.39905256487859,468.26296423131083,C 81.52944552705412,490.34143218886953 83.10921574778448,513.1374639764374 90.31462302419666,534.2034436091415,C 100.95305481164311,565.3063332531198 124.56263691239467,592.1007580174471 154.84473309120662,604.8898403191147,C 185.12682927001853,617.6789226207821 221.23178062029487,615.9045757196725 250,600,C 259.36894985088486,622.9329827609927 277.8134354659533,642.0049267313818 300.4057567255501,652.167895772344,C 322.99807798514684,662.3308648133061 349.44920059859936,663.4730873035071 372.92215715766065,655.5535399679073,C 396.3951137167226,647.6339926323101 416.61796800489554,630.8394750621975 429.36595770917904,609.5982962313544,C 442.1139474134626,588.3571174005114 447.40044659435506,562.9881382021393 445.6881594827095,538.2744377007642,C 443.0216133107165,499.7877709382637 423.96999820365573,464.10298190945633 400.04370308381965,433.83969740804037,C 376.1174079639824,403.57641290662497 347.496180852795,377.39400059966795 321.59846757005516,348.7995529970273,C 288.75602244757954,312.53721717052076 260.3146226673318,271.15228512221177 246.39146038000206,224.25101911437525,C 232.46829809267436,177.349753106539 233.37570147094868,126.01321440232212 250,80M 250 , 80C 258.88874000577033,119.35288550838632 257.71588728781944,160.8692296118126 247.09617348412243,199.79070151941022,C 236.47645968042553,238.71217342700783 216.44591445472958,274.62081436240567 191.83580909863565,306.5895805426682,C 162.38523455469135,344.8461632694306 126.3916697660709,377.66498760623523 96.68623025022602,415.7240118458097,C 81.8335104922978,434.7535239655942 68.63649602238277,455.26120033071214 59.557188668549166,477.6284038595219,C 50.477881314715546,499.9956073883316 45.64265848849097,524.2917836263952 47.345437827039476,548.3713633205839,C 49.02705591290315,572.1516945689721 57.23726231351693,595.5882383264714 71.67539765272551,614.5585372591837,C 86.1135329919341,633.5288361918961 106.7525778091074,647.807186728036 129.75199183492742,654.0808577537339,C 152.75140586074826,660.3545287794313 177.91156044273788,658.5107451714115 199.66702746153697,648.7623274298626,C 221.42249448033604,639.0139096883137 239.57572796802413,621.4398355001424 250,600,C 259.89597349720026,621.2343135541082 277.23141736563804,638.9069875404259 298.26009304741535,649.2327399412005,C 319.28876872919267,659.5584923419751 343.83831638157,662.4606063623492 366.73656768663733,657.5112174362838,C 389.6348189917044,652.5618285102191 410.6982949524421,639.8510083545711 426.15380449343064,622.245509543124,C 441.6093140344192,604.6400107316767 451.4169232666972,582.3398838616613 454.9889755174075,559.1867673049285,C 461.33622519965303,518.0455405273756 448.0602815208247,475.9282844114011 427.1108543829048,439.95593917393035,C 406.1614272449829,403.9835939364594 378.22461362548495,372.69015870280265 352.12553378446364,340.2598310642651,C 322.21734317387956,303.09635915317284 294.5931452208335,263.565656788398 276.1507014067833,219.57134151640886,C 257.7082575927339,175.57702624442013 248.429569515685,127.67763897446521 250,80M 250 , 80C 243.63849991864745,125.80298970149106 229.82788213107287,170.5001996959746 209.90164381146337,212.2294169820689,C 189.97540549185413,253.95863426816283 163.80944206830407,292.36858916062124 136.64217302653736,329.7894662440378,C 108.81464973098333,368.1197940800048 79.61807171019527,406.303742783277 62.14300468501044,450.3288165168053,C 53.4054711724139,472.34135338357146 47.80999956118865,495.7706890943752 47.52394272157095,519.4522102169508,C 47.23788588195325,543.1337313395263 52.415313988863815,567.0378684979077 63.77301779774815,587.8200444038165,C 72.7717041906275,604.2857215059595 85.6178609556017,618.6895988048781 101.20042221646801,629.1432423697207,C 116.78298347733433,639.5968859345633 135.063498749043,646.0410364963769 153.7749798564971,647.446509368692,C 172.4864609639512,648.851982241007 191.56346985167377,645.202138774958 208.39876398357293,636.9155381014691,C 225.2340581154721,628.6289374279802 239.77308211846744,615.7322925816238 250,600,C 274.5766683866746,612.3558667929373 303.8462916318572,615.0109368194794 330.278656367282,607.3944962015235,C 356.71102110270687,599.7780555835675 379.92428498393315,582.0501912762097 395.0150051323208,559.0512730712935,C 406.5765711236907,541.4309403143662 413.4831038948157,520.9226874195236 415.93871043497967,499.99146836382727,C 418.3943169751436,479.0602493081309 416.49104333641196,457.7466328894478 411.6629310919585,437.2323630561683,C 402.0067066030509,396.203823389606 381.25422948360233,358.7394615203051 359.90406410275966,322.39727973712746,C 314.75819520645035,245.5501291449657 270.649890117862,166.70188043322565 250,80M 250 , 80C 242.11542403987676,126.02652346475566 227.6947192747902,170.8623445472739 208.07016682671366,213.23550045446768,C 188.4456143786374,255.60865636166048 163.38652225492785,295.182391656811 139.0349619736493,335.02720201135804,C 117.15408024271083,370.82940823096493 95.75972992633727,407.7715861892528 85.85863461870784,448.54583378775317,C 80.90808696489161,468.932957587005 78.99328711937076,490.17780968871836 81.61270789119379,510.99322161591465,C 84.23212866301684,531.808633543111 91.48797415568852,552.1471627050983 103.50848592162049,569.3416396021665,C 119.3298949128141,591.9730264079367 143.61628700972005,608.7380225777608 170.61173297138026,614.5468562429721,C 197.60717893304047,620.3556899081834 226.8436463608855,615.0426040750688 250,600,C 278.1391325230393,615.6818662186059 313.5131359867963,617.5388988454994 343.23456805364333,605.1143995339287,C 372.9560001204903,592.6899002223579 396.1811643531825,566.5397835118529 406.8223745410732,536.1342518936661,C 418.596526962561,502.4915216583132 415.41377058628086,464.9931244939695 404.0877451942645,431.1968952405075,C 392.7617198022476,397.4006659870451 374.0733196013356,366.6151387688669 355.0892435825379,336.447791841341,C 330.2237979833891,296.93443743029115 304.9286582953907,257.44931007457916 286.11348910634234,214.7224453400243,C 267.2983199172948,171.99558060547082 254.74753008126356,126.44412255371836 250,80M 250 , 80C 257.10679226210806,128.2077967903511 251.317788948035,178.07931842769125 234.58060170980767,223.84354824737756,C 217.84341447158187,269.60777806705977 190.14168004268979,310.43352829243975 161.39966616578764,349.7831763967886,C 141.24280715282433,377.37920054617797 120.60106560824107,404.99629228409515 106.37911777382607,436.07000647981596,C 92.15716993941028,467.14372067553677 85.00133383218697,502.5079658846477 92.7262237006139,535.7970870902737,C 96.52571829322495,552.170373721905 103.85487816065341,567.7661055906563 114.40346263024907,580.8522830297957,C 124.95204709984472,593.9384604689351 138.70633923869278,604.4567590742498 154.19310526061957,610.9898098518674,C 169.67987128254634,617.522860629485 186.85221928874847,620.0389486548179 203.55263841285782,618.1371927924847,C 220.25305753696713,616.2354369301515 236.43235615080928,609.9216790243563 250,600,C 259.5499464862421,616.3261690588413 273.77434537281647,629.8805261205024 290.53654298369173,638.6426038011624,C 307.298740594567,647.4046814818224 326.53484265990545,651.3417620809179 345.398418423007,649.9594511688285,C 364.26199418610844,648.5771402567392 382.6763220500098,641.8954847955779 398.17971542654544,631.0608150802456,C 413.6831088030811,620.2261453649131 426.2330126569951,605.3089396936889 434.6914312707041,588.3914804109476,C 445.09870849993706,567.5761605727461 449.27909624703307,543.9027932224666 448.10524596888877,520.6603528424799,C 446.9313956907445,497.4179124624933 440.5597716924928,474.62716023927607 431.2114386135309,453.31524742185115,C 412.51477245560136,410.6914217869938 382.7276754807772,374.08317809779965 354.8441666466503,336.8156886160951,C 326.6658993834092,299.154242020811 300.1301287370364,259.87284891210874 281.41260453970426,216.7213298944616,C 262.6950803423727,173.56981087681487 251.71175607469405,127.0049911897531 250,80M 250 , 80C 229.31900235361834,156.11912840329205 191.71147498868268,226.42109576627422 150.55097768934473,293.7088274459623,C 125.23592666219247,335.0929814950445 99.07122822510571,376.90477369550365 86.12419958828939,423.6581100934865,C 79.65068526987723,447.0347782924829 76.71898797530714,471.56437260520346 79.39358495070535,495.6729091583799,C 82.06818192610356,519.7814457115563 90.50645568101292,543.3995160306482 104.85383080341953,562.957834741969,C 120.91072031813731,584.846560725776 144.42905060583823,601.305712455152 170.70161859843265,608.138881350807,C 196.97418659102706,614.9720502464618 225.6795444311576,612.0604919885552 250,600,C 280.51442913718563,617.799814848381 319.4445305304058,620.199238242276 352.023488314457,606.5399811647488,C 384.60244609850804,592.8807240872217 409.8323366152174,563.8315203886318 420.8957282919088,530.2820768937976,C 433.27965226692436,492.72815402948873 428.49628490692186,451.1743778766247 414.8861084092099,414.0472746874645,C 401.275931911497,376.92017149830355 379.7390728752587,343.2985936725763 358.3077692683409,310.0667125758702,C 312.1022472119385,238.419348367283 269.4698498406485,163.00132537330495 250,80M 250 , 80C 258.7430087634968,127.98823397485907 254.2843766061847,178.15537593261314 238.28098571479046,224.23359510655303,C 222.27759482339744,270.31181428049103 194.78468527839306,311.4941272738022 164.84071874577455,349.9995771550542,C 137.6742196479536,384.9334349764857 108.21502968128752,418.88572934307274 89.86678800374425,459.1565019065879,C 80.6926671649666,479.29188818834893 74.51135369359285,500.9786473504492 73.60882497639746,523.0871008421537,C 72.70629625920206,545.1955543338584 77.25821307609365,567.69153706295 87.98779474873083,587.0428768359589,C 95.84166064033539,601.2077186757493 106.95801647586731,613.5945272886006 120.38940425342349,622.6457026906411,C 133.82079203097965,631.6968780926816 149.53647608084367,637.3666688742713 165.66936067178955,638.8005407530695,C 181.8022452627354,640.2344126318677 198.30148084600856,637.419254311748 213.01953257220387,630.658713861856,C 227.7375842983992,623.898173411964 240.63156129131343,613.2120516934793 250,600,C 275.14151934813776,612.9573664039611 305.51381873787517,615.3013080081838 332.38914198688053,606.486188070216,C 359.2644652358859,597.6710681322483 382.1687178784199,577.9261338754695 395.79471079456056,553.1406208424785,C 407.33183121127547,532.1547411189576 412.36540452661444,507.88652167482104 411.725817332894,483.94694725292516,C 411.0862301391735,460.0073728310293 404.9598721449736,436.43255745587174 395.8320359136447,414.29221190721546,C 377.5763634509794,370.0115208098852 348.21360039770184,331.39222412973436 322.5817977281247,290.93162758162157,C 282.2859781878497,227.32342499001115 252.85439874619766,155.24366363459097 250,80M 250 , 80C 261.3336835036677,127.8826478356799 257.9724323634656,178.94790092941778 241.6167212210956,225.35577804682538,C 225.2610100787274,271.7636551642305 196.09321211077108,312.5405918380096 164.17385531634898,349.98862259193766,C 141.21829554263567,376.92025890015543 116.83687660741093,402.8557924233126 97.49784639108186,432.49145791363947,C 78.15881617475222,462.12712340396604 64.19408183104595,496.4280929564564 64.73335265722484,531.8114215977625,C 65.06861241148788,553.8089143034816 71.11317326754443,575.832801840892 82.97562146705579,594.3607376988041,C 94.83806966656715,612.8886735567162 112.51473108090258,627.7282550714601 133.02084276325917,635.6970359137041,C 153.52695444561647,643.6658167559477 176.70664742713961,644.6501762339971 197.75792150088142,638.259093046209,C 218.80919557462323,631.8680098584211 237.56112609000633,618.1459775237461 250,600,C 265.26241991108924,612.3547003689597 283.8247234654179,620.5906254373658 303.22433973452445,623.6295350050567,C 322.62395600363106,626.6684445727475 342.80069361971726,624.5007794713647 361.1495438189384,617.5079417701356,C 379.49839401815944,610.5151040689066 395.96058927209145,598.7342160288574 408.7189955565418,583.8076239251627,C 421.47740184099223,568.881031821468 430.51358395331414,550.8797580030586 435.4081550348803,531.8633635846447,C 445.47232401715655,492.7620401650462 437.65112253943977,450.79644366740445 421.4617396040214,413.8085419880953,C 405.2723566686018,376.82064030878564 381.5412785093936,343.7245561071222 358.4829293307204,310.5807252539707,C 309.5755531620002,240.2817723390392 266.59379224258095,164.0150003490717 250,80M 250 , 80C 261.69764489822927,120.21341438387356 261.97999908743407,163.57267805545138 251.50885320669923,204.12275446128035,C 241.03770732596482,244.672830867109 219.88259488944485,281.794234824304 194.61207584895166,315.19115773642625,C 169.39681509672369,348.51505259595865 140.04466739784357,378.75879997348915 117.42013733659374,413.89314190442076,C 106.1078723059654,431.46031286988625 96.58368697935094,450.3220483452296 90.84269382895063,470.4121910400968,C 85.10170067855032,490.502333734964 83.25131219099008,511.84934569526075 86.83653674446076,532.4337815814895,C 89.89523124872846,549.9951644124909 96.93492305789951,566.9113279359168 107.66826978415541,581.143441168371,C 118.40161651041133,595.3755544008253 132.81453898204683,606.8495130890142 149.19926393571134,613.8708069299093,C 165.58398888937583,620.8921007708044 183.8813950575046,623.4195423897706 201.54288416660316,621.0050897692746,C 219.20437327570173,618.5906371487786 236.16663837855407,611.2425924616049 250,600,C 271.18947738685904,620.495530411165 301.9355243132996,630.6094235230485 331.1759149444236,626.8597202677929,C 360.4163055755476,623.1100170125372 387.35733392919116,605.727511021894 403.90278427023827,581.3285603933292,C 416.18240387575605,563.2202692125634 422.92434962832243,541.6075647389291 424.3987149747093,519.7781003852398,C 425.87308032109615,497.94863603155045 422.22534299872916,475.9559615543955 415.38310337446836,455.1741660576678,C 401.69862412594466,413.6105750642033 376.0618593067614,377.21349028214576 351.2715929082372,341.1546528013634,C 324.3940126243468,302.0596998164636 298.25635467966947,262.0741808786985 279.9845659890377,218.29106302656962,C 261.7127772984069,174.50794517444177 251.16925987183274,127.42839341745092 250,80M 250 , 80C 228.1679656816725,165.17177168555799 182.83852154971015,242.04451376542818 135.26913065383184,315.99058508993176,C 114.53089521369998,348.22793368993683 94.05470455302947,381.073266431343 81.1972038705954,417.1842859424257,C 68.3397031881606,453.2953054535085 63.89535734747096,493.45079781767294 75.43843582732836,530.0032039373317,C 86.35121201383855,564.5596896926953 112.1588571118077,594.6008996738781 145.65489603760258,608.4303887511776,C 179.1509349633974,622.2598778284771 219.22014229281444,619.1269378464749 250,600,C 259.3692923420771,612.5617493043691 272.0950679707124,622.5942930400545 286.4936298544889,628.7799700649388,C 300.8921917382654,634.965647089823 316.9214985140749,637.2863152530974 332.4901927701722,635.4983153265632,C 348.0588870262694,633.710315400029 363.11810497621576,627.8274543980372 375.8734487083662,618.7234777475941,C 388.6287924405166,609.619501097151 399.05153081983593,597.3392274671204 406.252114038847,583.4204349231094,C 416.8609315445856,562.9134946505789 420.33938919640883,539.0803447221365 417.76985300167973,516.1352125160415,C 415.20031680695064,493.19008030994655 406.82303869499395,471.15954495722275 395.48191054360876,451.04834358920255,C 372.7996542408242,410.8259408531354 339.19565153649535,378.0964972815787 309.9763803188116,342.33953121404124,C 280.12259305852444,305.80607868195057 254.54641487403285,264.7772326546122 242.7537810009628,219.09489959211714,C 230.9611471278945,173.4125665296225 233.17257164922802,124.07697157015852 250,80M 250 , 80C 251.23574213720744,118.18885761148337 245.2020154336784,156.56422687968717 232.64558254359605,192.6509543203499,C 220.08914965351374,228.73768176101262 200.98391204934177,262.30422352410255 178.55296394992448,293.23589777010915,C 146.61787236788803,337.2735303059179 107.56960904485112,376.0715195810671 78.54950697862206,422.0823534115643,C 64.03945594548786,445.0877703268144 52.240979654773724,470.0804838099095 46.50944889216761,496.66883358092633,C 40.777918129561485,523.2571833519432 41.366415742207366,551.4802279021895 50.3800916540369,577.1423485274445,C 57.424555254305105,597.198081218334 69.6053555398513,615.5124180005521 85.81287137579966,629.2664469234313,C 102.02038721174802,643.0204758463105 122.20503155347204,652.1024382817466 143.29307886986442,654.7766001252992,C 164.38112618625678,657.4507619688516 186.2594099642498,653.6786748726895 205.17909575955173,643.988351318186,C 224.09878155485367,634.2980277636825 239.96163949423402,618.7373477189327 250,600,C 274.1517833971747,615.1495641433817 304.9823341804386,619.0995278839825 332.22413135677465,610.6910546812036,C 359.4659285331107,602.2825814784246 382.47574158063924,581.8333967805193 395.2249700215375,556.3329044487961,C 403.70009022968384,539.3813109558928 407.84455583533406,520.4013033276067 408.13705201233984,501.45140542609784,C 408.4295481893456,482.50150752458904 404.9500549940513,463.6028909077163 399.06817506381145,445.58657405389147,C 387.3044152033306,409.55394034623976 366.42993640017863,377.2963878904164 345.679580997276,345.57637073061505,C 319.46563607433814,305.5044410389732 293.4242469221574,264.9001040534596 275.87360756060167,220.34782559729848,C 258.32296819904747,175.79554714113954 249.09897076114655,127.876075486042 250,80M 250 , 80C 263.48498148833994,126.38652886011332 262.76390591470147,176.6464192200446 248.88304658524422,222.91602619597228,C 235.00218725578782,269.18563317189927 208.133895599936,310.6067999773354 176.96334091400752,347.51142443013873,C 147.15658499534186,382.8013685590856 113.25482552943097,414.8939155533602 87.80481631737712,453.4441410536796,C 75.07981171134462,472.71925380383874 64.61780164955731,493.67921959330926 58.85257252206869,516.0447700417658,C 53.08734339458009,538.4103204902223 52.172175393021156,562.212632473367 57.83522007879271,584.6042746338217,C 63.169503861775695,605.6959983051651 74.42541921526436,625.3765906123853 90.49470456099839,640.0426555032508,C 106.5639899067324,654.7087203941164 127.38320049915045,664.1836009951294 149.04236509139008,666.2320101515179,C 170.70152968362999,668.280419307906 193.0217770029067,662.8437044820414 211.2262894787851,650.9310592501334,C 229.4308019546635,639.0184140182254 243.36952956564306,620.7208168932799 250,600,C 276.8172981449329,615.6170603476507 310.87869070982936,618.0029518741701 339.6973539402905,606.490145817189,C 368.5160171707516,594.9773397602081 391.26730591078984,570.0881645246584 401.85258072258364,540.9160543703485,C 413.9323276312012,507.6253072031849 410.5644294017113,470.235805055901 398.868083504208,436.8084266817265,C 387.171737606704,403.38104830755134 367.99074925609136,373.1551905827578 348.72023050544226,343.4425461463363,C 322.8014095540689,303.479080652523 296.7975452489166,263.199216182091 278.7924519975275,219.1006847916542,C 260.7873587461398,175.00215340121952 250.59693614411555,127.62885177100293 250,80M 250 , 80C 260.1290462955267,128.07730829537076 255.94678602050823,178.8872780590333 239.27611707032523,225.10539083463732,C 222.60544812014408,271.3235036102384 193.5832253112818,312.00453338191613 162.28265635335492,349.8766805971821,C 140.23825497106972,376.54932081482457 117.06851200222583,402.54469591372145 99.11436899981456,432.12567151514577,C 81.16022599740273,461.7066471165698 68.8013590937684,495.7651438188244 70.62936036548952,530.3200823925462,C 71.72867450269081,551.1005561656503 78.01645100849575,571.6998615926009 89.48739468331918,589.0622932487933,C 100.95833835814263,606.4247249049856 117.60467133969094,620.3982824035028 136.87265833997137,628.2583879221295,C 156.14064534025215,636.118493440756 177.9092031709057,637.7756963845967 198.10490057801672,632.7586865134342,C 218.30059798512772,627.7416766422718 236.7900914790342,616.0790204513411 250,600,C 259.55422598803995,612.5311773099323 272.38021275338,622.5439741057999 286.85242088174164,628.7784613255225,C 301.3246290101032,635.012948545245 317.40445135386193,637.4522661450025 333.0804236496026,635.8467968719643,C 348.7563959453433,634.2413275989262 363.9832739211983,628.6029143081463 377.0125379258739,619.7399622886461,C 390.0418019305495,610.8770102691459 400.84549042422725,598.8299760690932 408.5104974559131,585.0618496094871,C 420.9232713000583,562.7656352297473 424.86756151751405,536.2638402325464 421.6660205813158,510.94688413970107,C 418.4644796451176,485.6299280468557 408.46080067614605,461.52723337247323 395.2758773627382,439.6787568262065,C 368.90603073588903,395.9818037336068 330.8577555342139,360.67141794150893 300.00000623085384,320.01933523186915,C 274.20528516336054,286.03729966606045 253.24236247762883,247.75946042245138 243.70322156105476,206.17639696243904,C 234.16408064448103,164.59333350242673 236.13744639840925,120.3481843927169 250,80M 250 , 80C 259.49074963865195,128.09885888071642 255.40959091715686,178.65657501157585 239.26609622824893,224.94871401551308,C 223.12260153934187,271.24085301944945 195.03197998467112,312.48623408684443 163.4183681315344,349.95827833225155,C 135.4211788066958,383.14372775198547 104.54834643461218,414.18406471833197 80.90838061763255,450.60203664776003,C 69.08839770914082,468.81102261247344 59.19206239704312,488.40408826904275 53.13369595550057,509.2505594783424,C 47.07532951395804,530.097030687642 44.95114651723818,552.2261603253946 48.29831865359003,573.6755333817289,C 51.94028164749703,597.0139873755446 62.22777528978669,619.4324964403472 78.37590669201965,636.671556202604,C 94.52403809425263,653.9106159648609 116.47751531493466,665.7337772868145 139.84657405490708,669.1738968891194,C 163.21563279488035,672.6140164914237 187.77234120724967,667.5776393446666 207.79321475652395,655.0432086996612,C 227.8140883057982,642.508778054656 243.09880773938303,622.590282748396 250,600,C 260.0543836988982,610.9726450013704 272.87470178490975,619.3894651063644 286.93819098936257,624.2585349648701,C 301.0016801938154,629.1276048233759 316.2752121688665,630.4370594446482 330.97051325892147,628.08382852453,C 345.6658143489764,625.7305976044117 359.745396535181,619.726667235814 371.7016433544739,610.8645155847239,C 383.65789017376676,602.0023639336338 393.4684106877018,590.3171266244703 400.37412722553887,577.1337792123062,C 411.1793462952165,556.5060925588489 414.70415825608893,532.4455694567246 412.05808929288503,509.31004407131536,C 409.4120203296811,486.17451868590615 400.8500238626764,463.9927795251994 389.32747828028477,443.757039876779,C 366.2823871154857,403.28556057990517 332.3332324281042,370.3298580018732 303.3862085940448,333.84579744905665,C 275.13565758642386,298.23955276148956 251.4018166511994,258.14851595461465 240.8946014957363,213.9275172926453,C 230.3873863402745,169.70651863067616 233.28969331162043,122.26894774376741 250,80M 250 , 80C 243.14402860878283,156.2016429363855 209.56894745677113,227.90272933624067 164.87452813118531,290.0002623876452,C 138.0423446494428,327.28036191105514 107.82532062039259,362.3562058393052 85.37401807267226,402.4275285624694,C 74.14836679880912,422.4631899240512 65.0005952398694,443.8027793249084 59.97803559752987,466.212974936672,C 54.955475955190316,488.62317054843567 54.16658648763916,512.1271111855217 59.10734064500217,534.5554843114278,C 63.52375694016924,554.6036448538155 72.55415638473119,573.6949495930913 85.75009926136094,589.4207425976522,C 98.9460421379907,605.146535602213 116.28617154885835,617.4161151211764 135.61912028569418,624.3205026511785,C 154.95206902253003,631.2248901811804 176.20173726245883,632.7172186640138 196.28562435966364,628.4662242988918,C 216.36951145686845,624.2152299337698 235.20976077118902,614.2366533138975 250,600,C 255.0994454740873,624.891417162194 270.29015286993007,647.555794233139 291.35701085780534,661.7605289017012,C 312.4238688456806,675.9652635702633 339.0774880275565,681.5359783574316 364.1156344385256,677.2141480983362,C 389.1537808494947,672.8923178392432 412.2528242520474,658.8261079654966 428.1516814733643,639.0065890121589,C 444.0505386946812,619.1870700588212 452.70674469420265,593.9550881287798 453.7504290875459,568.5681285752487,C 454.68242525768505,545.8979140675549 449.7465976902443,523.1887643202474 440.95912328573013,502.2701712443253,C 432.17164888121596,481.35157816840325 419.63341027498404,462.1678717230537 405.47222659653954,444.4402627610035,C 377.14985923964434,408.9850448369042 342.67033181064375,378.9343726886833 312.9234249474477,344.6655748863583,C 281.61940438665977,308.60296320268867 255.57469325916395,267.04869785814105 243.44789174876357,220.86001580458242,C 231.32109023836404,174.6713337510238 233.33838653284295,124.75314850810395 250,80M 250 , 80C 251.9834711005003,118.25013816853834 246.37472475944824,156.8315343692993 234.0138629604631,193.08365600521438,C 221.653001161478,229.3357776411294 202.50327680202764,262.9710107107387 180.4288432330334,294.27159553158265,C 154.79150637787546,330.62422194472686 125.04857655287066,364.18227001152246 102.57872562921447,402.5735748555511,C 91.34380016738285,421.76922727756516 82.05147746901365,442.2455301871839 76.77524888650154,463.85242802062515,C 71.49902030398944,485.45932585406644 70.350454923318,508.222954898725 74.87207513699906,530.000272747416,C 78.71156846544851,548.4922872555169 86.66019325231755,566.1807769536478 98.3755929177961,580.9944773780902,C 110.09099258327463,595.8081778025327 125.55726583995872,607.6738703247808 143.00883066010684,614.8946178563864,C 160.46039548025496,622.1153653879919 179.83817114940288,624.6513120263238 198.5464200950381,622.0633145427165,C 217.2546690406733,619.4753170591092 235.23114121791588,611.7718783489245 250,600,C 273.6634854641082,613.4466573175534 302.34096969038484,617.7707534305624 328.9394496545365,612.0006580307967,C 355.53792961868805,606.2305626310309 379.7078170098823,590.481282236139 396.36924302616404,568.9598970476866,C 411.0622301436463,549.9811232611393 419.9640519359717,526.7978685442266 423.09756028805606,503.00167451486857,C 426.23106864014045,479.2054804855106 423.7515188811749,454.87125936680786 417.65900493404666,431.6557688770619,C 405.4739770397898,385.22478789755826 379.78300580840175,343.6619514223526 354.5832337343669,302.8050990360082,C 311.33289153989654,232.68252643865955 271.24631075455903,159.60126611386232 250,80M 250 , 80C 226.91866138366635,158.98230630013938 185.9717731585157,231.38036773817493 141.89454725197498,300.8652657894398,C 115.00174117912347,343.26003655488466 87.44455016112896,386.3872008567121 74.5971773480347,434.92053598348855,C 68.17349094148251,459.1872035468841 65.70292121232771,484.6969743059391 69.38864105940733,509.5274066600267,C 73.07436090648697,534.3578390141143 83.1006577762231,558.4134940813746 99.30647323169443,577.583951746889,C 117.28063791978568,598.846255033801 142.8869368270518,613.6898861190007 170.4062199733909,617.9142431601219,C 197.92550311973,622.1386002012432 226.9659349226501,615.6393089141325 250,600,C 273.50584560782016,617.5173702502392 305.57476288810074,622.8196010053234 333.5313167259925,613.9983689070447,C 361.4878705638842,605.1771368087658 384.42091797407306,582.7152168648188 395.33811087048525,555.5086379272683,C 402.42775162583683,537.8406464683342 404.73657636349395,518.4137058499972 403.0455166458391,499.45160561652534,C 401.35445692818416,480.4895053830534 395.7623849494367,462.00358374931494 387.9029750359178,444.66430452426664,C 372.18415520887766,409.9857460741669 347.93874722902115,380.01532902837386 325.04971906256225,349.5887600051175,C 295.9114887034442,310.85507630348866 268.8348469669836,269.6637666190445 254.27649544661196,223.43186072529892,C 239.7181439262439,177.19995483155594 237.7766741925404,126.90335838469568 250,80M 250 , 80C 262.27722665799126,120.91502102143411 262.81566191517265,165.1606656241897 252.31606595308295,206.5675216293123,C 241.8164699909938,247.97437763443435 220.34542264237774,285.8701511300909 194.99891549076727,320.2550870004599,C 169.8707111650906,354.3438744261865 140.8258022720788,385.78448932969644 119.97759700931488,422.6467249931908,C 109.5534943779277,441.07784282493924 101.32300811534937,460.91412746223796 97.46011835551137,481.73349591809716,C 93.59722859567339,502.5528643739564 94.24120946122926,524.3630190786641 100.70239498893395,544.5278672500258,C 110.12236402900903,573.9268443661342 132.6803015512694,599.2112191903859 161.5189639914179,610.2278984020454,C 190.3576264315664,621.2445776137048 224.48581572807734,617.379933058784 250,600,C 276.46103304374753,611.8932897527252 307.5991749481935,612.88604406189 334.8140950271294,602.8369278827572,C 362.0290151060653,592.7878117036245 384.87017767767094,571.934265214907 398.3414170870317,546.2406411096886,C 409.0765125059403,525.7656500531546 414.0220385187131,502.47929572613555 413.9019707702268,479.3610536616101,C 413.7819030217405,456.2428115970846 408.73485380235536,433.32230221008285 400.8238730146821,411.5994130054838,C 385.0019114393315,368.1536345962774 358.498688898515,329.57718530079995 334.1264511632585,290.28514848098274,C 294.02454047553977,225.63430400774132 261.2073726031942,155.24818756117782 250,80M 250 , 80C 266.0512647294537,125.88485297510397 266.46079535295286,176.8740014954035 252.30063898952037,223.3772573354525,C 238.1404826260899,269.8805131754994 209.71346465206446,310.78111428326827 177.56346203921646,347.24260306191695,C 153.4577963737023,374.58096656841667 127.25450996867465,400.2262000292314 106.01928990437654,429.849411624396,C 84.78406984007745,459.47262321956003 68.81676246346593,494.26061247081805 68.52271657741986,530.707598263994,C 68.3470548027568,552.4808741688628 73.87902538052964,574.4135425683354 85.28843155246621,592.9589423076884,C 96.69783772440277,611.5043420470414 113.98439199730757,626.466602166116 134.18324983253217,634.5975641535445,C 154.3821076677575,642.7285261409727 177.33566975082476,643.9104377256594 198.2075967114927,637.7080941655855,C 219.07952367216063,631.5057506055116 237.69471221800615,617.9634710813629 250,600,C 271.14036499285874,626.3521042859983 305.5612730535769,641.3903713889359 339.27409937842776,639.2009026127585,C 372.98692570327864,637.0114338365809 404.8302604602593,617.86464371605 423.9036132172206,589.9799589062851,C 439.72656542057257,566.8472647977776 446.9874729859122,538.3961067584632 446.4458414580747,510.3747936479862,C 445.90420993023724,482.3534805375093 437.9004689413297,454.8342389453836 426.0296050948921,429.44585686446567,C 402.28787740199573,378.6690927025669 364.46302794242797,336.06735239860643 332.39215984030596,290.09552589831367,C 288.82636891229794,227.64635939890957 256.69100462592337,155.84923857725317 250,80M 250 , 80C 252.89691493775146,118.52277048571233 248.17048179635268,157.55506728487487 236.61103075913712,194.41663336351093,C 225.05157972192166,231.2781994421469 206.61158539979377,265.67673377540865 185.24777335143418,297.8634312887261,C 157.45179906667545,339.74081788837884 124.24756587859588,378.4990364152665 103.30900889486347,424.1926741156591,C 92.8397304029794,447.03949296587086 85.7136888006722,471.68472153173036 85.00429069100879,496.80602082211385,C 84.29489258134535,521.9273201124973 90.27255067155265,547.4655046211446 103.70998176540937,568.7026976869165,C 118.64343070487986,592.3042727238369 142.92694647678215,610.025017500914 170.20320962355794,616.0289920344209,C 197.4794727703337,622.0329665679277 227.18707618152746,616.1125028565932 250,600,C 262.3889317716473,617.6743371495741 280.9473091596772,630.927862290761 301.6785715108661,636.934740468777,C 322.409833862055,642.9416186467929 345.14464976054546,641.659920012243 365.14083982332767,633.5346380422167,C 385.13702988610976,625.409356072191 402.2422226906727,610.5536953832267 413.53256036242766,592.1581497436682,C 424.8228980341827,573.7626041041096 430.29637099268103,552.0165341404971 430.0822678106119,530.4336246066377,C 429.8824081329245,510.2865473829708 424.8532161218316,490.33961640761544 416.66973368045814,471.9283350921041,C 408.48625123908465,453.5170537765928 397.2214838857325,436.5989325273979 384.60465925442963,420.89032339832113,C 359.3710099918204,389.47310514016823 328.9877524691245,362.5754168772644 302.56944070272476,332.14760950305316,C 272.7169010778,297.76436301212294 248.001051331055,257.895724278127 237.56392459196633,213.5736288093208,C 227.1267978528789,169.25153334051464 231.25180113397823,121.49562387281149 250,80M 250 , 80C 264.3396314368476,124.98498390501975 264.5360187247131,174.1781920810799 251.67464689988768,219.6079061618784,C 238.8132750750639,265.0376202426747 213.04484296346834,305.7356248141632 184.15999368987724,343.08451086343103,C 158.91552155878162,375.7262914753935 131.11522226534763,406.9833593314771 112.86192966724963,443.9912844830629,C 103.73528336819598,462.4952470588583 97.17117350595316,482.4280334763047 95.25854116852908,502.9715030278752,C 93.34590883110499,523.5149725794457 96.23221438901551,544.6503514034625 104.80471322294748,563.4174653908796,C 116.80890559091391,589.6973227417712 140.52183060079648,610.6767670037966 168.48057249134064,617.9596434058984,C 196.43931438188477,625.2425198080003 227.73682089377593,618.4141899869244 250,600,C 258.72201297903524,621.4551986076518 274.97626207871025,639.756821159986 295.2404101878396,650.9712475435116,C 315.5045582969689,662.1856739270372 339.61342450932614,666.2289467663908 362.45699252542573,662.4118198371316,C 385.30056054152504,658.5946929078727 406.69469034265967,646.9938264881418 422.7082998880287,630.2617206126492,C 438.7219094333977,613.5296147371566 449.3027171070546,591.8583544385248 453.58722973217255,569.0978182131756,C 458.4611003409401,543.2064466022738 455.29919879334733,516.155638752817 446.7087299811698,491.24938282801315,C 438.1182611689923,466.3431269032093 424.3044079646689,443.50037416470764 408.41762839728017,422.4830486073961,C 376.64406926247204,380.4483974927676 337.04773099766896,344.77589850741225 305.67568181463173,302.44074190585025,C 282.1942050627373,270.7535546989103 263.2938227616659,235.3281444670257 253.20923989535643,197.19995578791386,C 243.124657029047,159.07176710880202 241.8726802155505,118.59280058066153 250,80M 250 , 80C 254.84852968501104,128.38427233055634 247.8184118916883,177.77171758912527 230.73622498911615,223.2991262534614,C 213.65403808654509,268.8265349177953 186.46913926328986,309.78930493209924 157.9193587152341,349.15243590159264,C 133.04070753413595,383.45398169237416 106.92678443712663,417.70884024550367 91.9645478965437,457.35319426888867,C 84.48342962624862,477.175371280584 79.98664309856089,498.28164883071344 80.4226510269717,519.4640879995978,C 80.85865895538252,540.6465271684823 86.37151346121206,561.8624389464433 97.4062971774909,579.9488808406378,C 112.84771725125277,605.2579719935409 139.56473477137195,623.7168547576279 168.93003694498643,627.7993266966182,C 198.29533911860088,631.8817986356084 229.3695133914581,621.2925003504779 250,600,C 273.1671909267004,617.4779611986681 304.77444486429835,623.0953398168559 332.59925743612973,614.8504827265971,C 360.42407000796106,606.6056256363382 383.60612953378933,584.924343971587 395.05075465620746,558.2556653597087,C 403.8351095000505,537.7860445868749 406.0024942765732,514.773839636438 402.80136918325843,492.7301769928769,C 399.60024408994366,470.68651434931587 391.22805408240106,449.6201341398889 380.27985929631603,430.2214925500219,C 358.3834697241334,391.42420937026947 326.93072982956966,359.0388757234425 300.19378961064467,323.40438279655615,C 274.19800832246597,288.7576926047263 252.50456664362292,250.1404584011097 242.7382674631239,207.94101306887285,C 232.9719682826257,165.74156773663617 235.2424530523726,120.72331757261438 250,80M 250 , 80C 241.11023549159816,125.6701757621747 226.19176682652048,170.10204433082538 206.51233928176518,212.26260645555868,C 186.83291173701014,254.423168580291 162.14376163489666,294.0020672511723 138.5090547458483,334.0794111929987,C 117.96381908539351,368.91794250186246 98.1906195373076,404.95085467022693 89.05676024562501,444.3513951048713,C 84.48983059978275,464.0516653221944 82.71938424834822,484.5021841531907 85.07502846224108,504.58721423440227,C 87.43067267613392,524.6722443156139 93.99560131219187,544.3551203521266 104.97001412595765,561.3409896680809,C 119.92783492896172,584.4922592369248 143.314269634449,602.2588983824685 169.90651151853095,609.5094402520492,C 196.49875340261286,616.75998212163 225.8675196607139,613.3169470411966 250,600,C 276.7022133697574,611.6994095830069 307.9782350161531,612.457215804752 335.26901988531614,602.2055113289067,C 362.55980475447916,591.9538068530615 385.4146406625017,570.934696344465 398.9526326252916,545.1159597942301,C 417.3332277050939,510.0617402832175 418.27269858072935,467.8089377624994 408.5813636668936,429.4328695871147,C 398.8900287530571,391.0568014117286 379.78846888902365,355.78549710426336 359.96101746782045,321.5288663424115,C 315.46075861918746,244.64410168958875 271.3581168978443,166.22859685680442 250,80M 250 , 80C 254.92565411500635,128.45730732381674 247.86415384629413,177.95282260687998 230.58607879280413,223.49226511534147,C 213.30800373931507,269.0317076238014 185.7962992246309,309.9267201762817 156.35248881291773,348.72665226352154,C 129.44840034242085,384.1798354938104 100.66324436078642,419.03875919628484 83.16470762328439,459.9601397892591,C 74.41543925452828,480.4208300857491 68.69959039390515,502.3570345990793 68.2146473575393,524.6046046832229,C 67.72970432117344,546.8521747673665 72.64112996761024,569.3758942178025 83.60859613304363,588.7383380281141,C 91.81048336614852,603.2183079951034 103.35497946122675,615.8375472065912 117.25085035893973,624.9942527508125,C 131.1467212566527,634.1509582950339 147.3615308019953,639.797613059927 163.9543280994024,641.0702333004698,C 180.5471253968095,642.3428535410126 197.4646684029385,639.2283026355742 212.48771691759063,632.0694970259849,C 227.51076543224275,624.9106914163955 240.59481478543225,613.728910208358 250,600,C 274.6499065193822,612.0250427098354 303.7859920226309,614.5056731216715 330.14487162172094,606.927480073964,C 356.50375122081095,599.3492870262565 379.73070013226294,581.8575243249759 395.0139922991032,559.083843811483,C 408.44189439875345,539.0748857253852 415.812560013647,515.276071572877 417.4793459270634,491.23675412816056,C 419.14613184047977,467.1974366834441 415.2729118375634,442.97695895015073 408.03715023332506,419.99194834550576,C 393.56562702484587,374.0219271362025 366.5816928612413,333.2099999326947 341.270608676192,292.1976011814062,C 300.5973770416896,226.2933996030747 265.5530407190543,155.86684705233688 250,80M 250 , 80C 234.73763811371782,158.5511542139812 195.7296166314876,230.63679981630315 148.29450026156715,295.08160762630905,C 120.54197066877674,332.7858776422462 90.42313581389462,369.17037373042115 68.98473200529114,410.790197352977,C 58.265530100986894,431.60010916425483 49.86848281462099,453.74365487779767 45.80074713458203,476.79592690238866,C 41.73301145454307,499.84819892697965 42.10385218842625,523.8231268745595 48.25528323024585,546.4088217984742,C 53.883387586968624,567.073061897514 64.38875192214309,586.4718894577328 79.11304990267563,602.0244270803014,C 93.83734788320815,617.57696470287 112.75080046443213,629.1849272776326 133.37888277445418,634.9441457777315,C 154.00696508447626,640.7033642778302 176.26193600646647,640.5681496538491 196.78337285608683,634.4397724503824,C 217.30480970570716,628.3113952469157 236.00759265986915,616.2141578365569 250,600,C 277.6839265828989,611.8512131650602 310.06560559549536,612.1656019165395 338.0356943939627,601.0065169568804,C 366.00578319242993,589.8474319972214 389.0762849120964,567.4941085778888 402.26787210035184,540.4232188255056,C 419.6959838823843,504.65841767529565 419.73840240603914,462.2860991706077 409.46578055925164,423.85000517038463,C 399.1931587124634,385.4139111701604 379.7610685284558,350.1234353881968 359.69977742172426,315.76641746271093,C 315.82843469024994,240.63224486029713 272.5336041280285,164.0361546640081 250,80M 250 , 80C 246.1129344575447,127.52422962835828 233.95800054270404,174.26621512935986 215.16920321022695,218.0913537497838,C 196.38040587775032,261.9164923702058 170.72660707842132,302.3747507031422 145.67540471431138,342.9468955862082,C 125.4702841752195,375.6704777112049 105.66129440268418,409.29583115585604 95.47659261118974,446.3815638910868,C 90.38424171544163,464.92443025870284 87.82208987319788,484.25705486298665 89.08980184831024,503.44462472268617,C 90.35751382342261,522.6321945823858 95.53199594874881,541.6479367525529 104.95776880342113,558.4087463053405,C 118.70957536347844,582.8620632177699 141.8688312715418,602.0969182791705 168.7853753280231,610.0074522523256,C 195.70191938450438,617.9179862254806 225.8374743108311,614.2565509154631 250,600,C 258.7520571888061,615.0497441527727 271.81528344910976,627.5579007012043 287.225803943489,635.6578489845186,C 302.6363244378682,643.757797267833 320.3356206012775,647.4193925503961 337.70089797247243,646.1782455319023,C 355.0661753436673,644.9370985134086 372.0271838130391,638.8110697382209 386.3039925505753,628.847835505711,C 400.58080128811145,618.8846012732012 412.1339153152412,605.1481268749567 419.8896521933375,589.5615348940975,C 429.94192676270586,569.359624404482 433.55663126567083,546.2408649841178 431.684999630416,523.7539264092402,C 429.8133679951611,501.26698783436257 422.63704790242343,479.43320477947225 412.55842843375837,459.24442470106607,C 392.4011894964202,418.8668645442419 361.4795022903265,385.08802865856995 333.3289001458243,349.8147350117208,C 302.90735104043364,311.69589729456214 275.3911220860167,270.4539188374561 259.71181646199136,224.27301570610555,C 244.03251083796766,178.09211257475582 240.27726443892195,127.7910541010344 250,80M 250 , 80C 243.9995485670311,125.61052114349181 230.29679449514293,170.13442621221515 210.25559575533322,211.5430655215644,C 190.21439701552384,252.95170483091331 163.73085165149195,290.8862414995815 135.97081467466637,327.5700990315474,C 109.22560530733313,362.9128995801524 81.11023536063698,397.7476977806173 61.7769909824071,437.6305943220247,C 52.11036879329059,457.5720425927284 44.77985028706383,478.7674554838608 41.57046739113721,500.69471717125816,C 38.361084495210584,522.6219788586556 39.36819116263901,545.2877664281831 45.71702185685304,566.5197539116118,C 52.00298183749202,587.5414868981067 63.590979852137934,607.0519740320317 79.5718737775228,622.0865202499684,C 95.55276770290764,637.1210664679052 115.88245390310489,647.5549389596896 137.4852887194372,651.3947408467587,C 159.08812353576954,655.2345427338278 181.84452597207112,652.4308462675956 201.81167334755912,643.3347165236208,C 221.77882072304712,634.2385867796461 238.84861264949734,618.8963782453868 250,600,C 258.78602390450067,622.7499757930631 276.0594651788664,642.1021110878008 297.6560575911908,653.4309596970525,C 319.25265000351527,664.7598083063041 344.95151217980555,667.9615068207115 368.717545136604,662.4905569825405,C 392.4835780934021,657.0196071443706 414.0846112352556,642.995296596935 429.23025197066346,623.8807685789759,C 444.37589270607134,604.7662405610168 453.030950244768,580.8159232945502 454.7942092360255,556.4921379730765,C 456.59853587834533,531.6018330801298 451.3625718233091,506.4819140468952 441.6247510901281,483.50458348687454,C 431.88693035694706,460.52725292685386 417.79190967355373,439.60930717397457 402.0253058737996,420.26513293681444,C 370.4920982742738,381.5767844624958 332.5723864530033,348.3568948308596 302.18400767633744,308.7629821104553,C 277.4482213344894,276.5339983700549 257.7580409686877,239.9930751221449 248.12968376920634,200.52332396346964,C 238.50132656972517,161.0535728047944 238.9857358608832,119.10565821415504 250,80M 250 , 80C 241.9813323893656,125.95700749105876 227.43207627929874,170.70005023564931 207.73036593583413,212.9870243213567,C 188.0286555923698,255.27399840706283 162.92371564005,294.761054888687 138.8653989125288,334.7303301388241,C 120.45087596675074,365.3232907584598 102.71220979155902,396.7634514662457 92.52731276861238,430.98759159316694,C 82.34241574566516,465.2117317200883 80.49383103330183,502.8265049114044 93.23970497640377,536.181663316391,C 104.62698038953744,565.981453970356 127.93445387066399,591.3661252956736 157.37642220754825,603.6489614829965,C 186.81839054443248,615.9317976703194 221.65439796962082,614.6364070006974 250,600,C 263.3408425518004,617.1407505225208 281.7934755080414,630.2472669105198 302.366266614333,637.2145959944739,C 322.93905772062453,644.1819250784282 345.5383576954728,644.9800061073267 366.58398753989076,639.6074021838119,C 387.62961738430863,634.2347982602972 407.0236735336643,622.740142500071 422.10009693929044,607.1041306760314,C 437.1765203449166,591.4681188519919 447.90210841084615,571.7986490527227 453.5638192800061,550.8289461816457,C 459.7508707692328,527.913499883628 459.9421833761806,503.57809801269406 455.5653873444757,480.24912586078545,C 451.1885913127708,456.92015370887685 442.3613732442158,434.5805853023509 431.1948833331711,413.63525674836995,C 408.8619035110763,371.7445996404056 377.7966326901345,335.28931291713025 349.4815626978648,297.18621655995736,C 301.49149856271026,232.60682338069978 262.9810861681054,159.40425480409476 250,80M 250 , 80C 264.3090928028846,121.62820055001711 266.01639894619615,167.3896618819535 255.50186491665892,210.134273144845,C 244.987330887122,252.8788844077364 222.3793206550465,291.94312385175095 194.40767398163277,325.9320073322611,C 164.5133472848556,362.2571761250873 128.583002028456,393.2391703665711 98.49073672292404,429.40053407512664,C 83.4446040701541,447.48121592940186 69.92605702410901,467.00751769216333 60.22720989752107,488.43715904556313,C 50.52836277093313,509.86680039896294 44.75766132963647,533.2691987942865 45.17246508083193,556.7878106148906,C 45.61866089031558,582.0862945578758 53.455548984204704,607.4079148104098 68.52079427948532,627.7364849693488,C 83.58603957476592,648.0650551282878 105.85298188422682,663.0838138669594 130.5120264778056,668.7533729543817,C 155.17107107138645,674.4229320418036 181.93258011711004,670.5903624095855 203.88369998356993,658.0062169430753,C 225.83481985002985,645.4220714765652 242.7001426434519,624.2265239580099 250,600,C 256.05562754770807,625.6200029968361 272.80207568020893,648.5274179851923 295.3567307879482,662.104704589127,C 317.9113858956875,675.6819911930617 345.92860862987567,679.7467861666892 371.4859517008318,673.431931163769,C 397.04329477178885,667.1170761608527 419.78354908012193,650.6256635884283 434.4279397929974,628.7488036857114,C 449.07233050587286,606.8719437829945 455.6175284601493,580.0025135417471 454.3327462266078,553.7079416082314,C 452.2649266052597,511.3875931791957 430.6728002402943,472.22520509675496 403.7909129114493,439.4738401972473,C 376.9090255826017,406.7224752977407 344.9013345951161,378.55497251160637 316.730274755663,346.905657247869,C 284.5858739712278,310.79241620587356 257.48104513684046,269.1872945621289 244.59361795657034,222.58962400853898,C 231.7061907763013,175.9919534549491 233.29770403186592,125.37027650059545 250,80M 250 , 80C 256.44587327826935,119.00434150852419 253.88768880170355,159.4169240945417 242.98429910348494,197.41697714610822,C 232.0809094052664,235.4170301976747 212.83723554034754,270.6751303305614 189.34803481516673,302.473642687671,C 157.63628669729187,345.4034309844171 118.0199963168528,382.111406449511 87.25112847601281,425.72193801801984,C 71.86669455557386,447.5272038022726 58.84938663573831,471.27774013005995 51.50450690929474,496.933210595018,C 44.15962718285117,522.5886810599761 42.722978288428834,550.2138386690264 49.61882996659334,575.9936302237891,C 55.338825394879976,597.3775428595537 66.82808723002586,617.2969278403829 83.03234883796567,632.3771126222442,C 99.23661044590548,647.4572974041056 120.10067824069523,657.5455535057307 142.0413670238716,660.4774885379977,C 163.98205580704806,663.4094235702644 186.8479614745702,659.1299831712536 206.1714518661864,648.3321692073646,C 225.49494225780262,637.5343552434756 241.14401350690875,620.2869803210784 250,600,C 271.2925352667694,619.781475591 302.5445577699102,628.1687517780342 330.9224225841599,621.8937519192202,C 359.3002873984095,615.6187520604062 383.8139079721172,595.0902190316763 396.3395738309091,568.8645344946077,C 405.58780131759016,549.5010052956789 408.5987454603021,527.4356713176982 406.34590063567526,506.0955526470037,C 404.09305581104843,484.7554339763092 396.7583995015849,464.1624039596731 386.7234414048391,445.194652625376,C 366.65352521133957,407.25914995676726 336.5728371355939,375.7761143218933 309.8311380915722,342.20848957760904,C 280.47693352137856,305.3615068164481 254.88528303291469,264.4897537079023 243.02546432514035,218.89683578451434,C 231.16564561736845,173.30391786112716 233.25275782284854,124.03293476489812 250,80M 250 , 80C 255.01495413869694,128.5400629816752 247.45549545243767,178.17864722683777 229.25353865358582,223.45531061948364,C 211.05158185473516,268.73197401212775 182.2380471474648,308.902951806118 151.45846286533566,346.769885543844,C 128.77274736606728,374.6792451287441 105.0143460611983,401.98138004332253 86.6875299702467,432.9281383892534,C 68.36071387929456,463.87489673518394 55.86250859856455,499.3753904036248 58.00553731106047,535.2777784591626,C 59.33796119597325,557.6000175834706 66.40935748984184,579.6893441526008 79.16783095378541,598.0545032262849,C 91.92630441772897,616.4196622999689 110.36004234925416,630.8763664082911 131.42210912217755,638.3894920018632,C 152.48417589510152,645.9026175954351 176.02223319976508,646.368458785667 197.30649825790402,639.5100497962018,C 218.59076331604297,632.6516408067365 237.45926954153057,618.5145292270668 250,600,C 272.0157229940271,621.4877067006677 303.57278365769986,632.7671711164438 334.23363250504934,630.2520277480376,C 364.8944813523988,627.7368843796313 393.95805089833146,611.585019505042 413.2005681137648,587.5821211505224,C 429.28658030361555,567.5166114669519 438.6155528180406,542.4214400504094 441.21105574380084,516.8353533704213,C 443.80655866956107,491.2492666904333 439.88873929952223,465.2653111363957 431.9903125123745,440.7908485003835,C 416.193458938077,391.84192322833525 385.68118097548404,349.24028948858904 356.8603024791698,306.6387069964204,C 309.74957797324174,237.00198802682584 268.49008559681914,162.01713069198436 250,80M 250 , 80C 263.8240012833356,122.09642616071167 264.95503239756533,168.12925573466805 254.08892799204207,211.08434719114365,C 243.22282358651958,254.03943864761848 220.46421823051026,293.13650313348467 193.77034305173643,328.5010211554495,C 167.03696602247823,363.9178719276791 136.14689224642225,396.63563411154496 115.30486352805137,435.81007226850454,C 104.8838491688564,455.39729134698973 97.1753386210871,476.63800623049906 94.7207652365294,498.68866973532226,C 92.26619185197168,520.7393332401455 95.26247764459734,543.5799832665579 104.78061185777253,563.621485520708,C 117.11209085279488,589.5868016783095 140.8469608309365,610.1771946337151 168.67636710567626,617.3735245152832,C 196.50577338041597,624.5698543968513 227.5835130304422,617.9934468435738 250,600,C 280.07371242931146,619.348927118453 319.7781768943926,622.6377983666991 352.74375210819,608.7785050679917,C 369.2265397150887,601.8488584186379 383.98714750496714,590.9277095093444 395.60176632854285,577.3334857520983,C 407.21638515211856,563.7392619948523 415.6704679731673,547.5212420152659 420.57801512708306,530.3276888364978,C 426.66540663876555,509.00056015214443 427.29248547753195,486.2919383459094 423.71215252023023,464.40395147524606,C 420.1318195629285,442.5159646045827 412.45053799041045,421.4385669202391 402.60673432068927,401.56390257974124,C 382.91912698124224,361.81457389874276 355.14249026923767,326.7471092163879 330.2955989427811,290.0014563475987,C 287.80103879399417,227.15696061075042 255.75204259510974,155.64477703478053 250,80M 250 , 80C 232.95517866231177,166.23668822879546 187.8527107258911,244.25187842207916 135.44899796948275,314.82909302033335,C 109.25511889013653,350.1069565094555 81.8644867503457,384.9858613053824 62.89187844528818,424.6177561337073,C 53.40557429275816,444.4337035478697 46.15520371803276,465.43092047297 42.82472201449995,487.1465745045112,C 39.49424031096715,508.8622285360524 40.16852635779554,531.3039863967847 45.95305121280656,552.498349104753,C 51.69093364461571,573.5218150736248 62.51802806687811,593.2261071900695 77.71679626352272,608.8436249649991,C 92.91556446016735,624.4611427399287 112.45189270042515,635.8805620286788 133.60938501084047,641.102624387584,C 154.7668773212558,646.3246867464891 177.44418854232364,645.2996259966349 198.00003720934103,638.0631557435172,C 218.5558858763584,630.8266854903994 236.8938761223227,617.4108854757176 250,600,C 262.6405091656346,618.3644521573184 281.1165552515576,632.642750628546 302.0681318883689,640.262921980737,C 323.0197085251802,647.8830933329281 346.32576106235877,648.8046176066133 367.8549545828349,643.0141598213585,C 389.38414810331085,637.2237020361039 409.01234635281963,624.7878704667329 423.7708290113644,608.0779104242207,C 438.5293116699092,591.3679503817086 448.38625109220624,570.5239045307399 452.7766954186658,548.6661925365448,C 460.9937333012469,507.7578848282703 449.92508510500573,464.93997643411086 430.69305072481023,427.91109304941205,C 411.4610163446131,390.8822096647128 384.8451376354519,358.3080438774402 359.5605199009648,325.11621570935637,C 332.05907482497247,289.01429599983527 305.99527771473123,251.50591037079516 286.6660916948816,210.4442414350276,C 267.3369056750323,169.38257249926028 254.65028693196885,125.14479947270621 250,80M 250 , 80C 237.75174587125406,157.32303422196628 201.1085019872363,229.00118940064684 154.4959219585148,291.8990330326804,C 124.63780016022976,332.1888319422787 91.19417413568995,370.20346316475445 67.21851077644553,414.24824605650315,C 55.23067909681801,436.2706375023776 45.79218451240252,459.8597580083115 41.34788463132027,484.5365088467306,C 36.903584750238025,509.21325968514975 37.6041637680567,534.9962111384035 45.01842557752661,558.9487173787752,C 51.432243283233475,579.6691899717755 62.894077326834925,598.8910910093477 78.54940806903167,613.9039408850957,C 94.20473881122841,628.9167907608437 114.01561564713143,639.6159129562475 135.22921102190307,644.1390107127397,C 156.44280639667468,648.6621084692318 178.96045143674388,646.9656439369246 199.21247748631012,639.1983739579033,C 219.46450353587633,631.4311039788819 237.3595051940512,617.6264838552701 250,600,C 260.49991327709597,621.4928637845999 278.88407562819174,639.0181296517954 300.8426119100989,648.5057034642127,C 322.80114819200617,657.99327727663 348.11981626800775,659.3618572947341 371.0393821027414,652.5146042369589,C 393.95894793747505,645.6673511791848 414.2689349664139,630.7340210911645 428.15544757209557,611.2569540598549,C 442.04196017777724,591.7798870285453 449.4895762321687,568.0024419239628 450.44044579450036,544.1008265064787,C 451.9656353249973,505.7627672806007 437.1034938420355,468.32202580633174 416.2712488275841,436.1016819849395,C 395.4390038131317,403.8813381635474 369.03212749600175,375.7226067168764 344.35562693271,346.3422849306747,C 313.066422932843,309.0887497467696 284.50850783570075,268.79274913869307 267.0545282121379,223.38131042613963,C 249.60054858857646,177.96987171358683 243.32653426516896,128.1903001207678 250,80M 249.01702293833827 , 576.183728321842C 249.43613539744564,584.1183590690133 249.7638234159594,592.0578188783883 250,600,C 251.48887043511357,650.0679553407865 249.3347418751035,700.2438709631731 243.5602712976234,750M 249.2409408939372 , 576.6510217150781C 249.29257941216287,584.4388234203749 249.54571198548467,592.2252881508408 250,600,C 253.0100261688046,651.5137652175374 264.93382902906876,702.4948574820603 285.0830150864435,750M 249.00139186016202 , 575.9472573886758C 249.79884705796078,583.936544299868 250.13246292570744,591.9721052750327 250,600,C 249.06947624018335,656.3942457332336 223.9832088941415,711.9885078838768 182.31423610390092,750M 249.95999740489722 , 576.9991995758531C 250.4626919212968,584.6548668021386 250.47606234729273,592.3426305366706 250,600,C 248.05311480304337,631.3152664573507 237.7535645554873,662.0728236921422 220.44984324820692,688.2456627468756,C 203.14612194092652,714.4185018016091 178.88052520665562,735.9426481838269 150.83008608030065,750M 249.2926538403766 , 575.293132678315C 249.9664330091858,583.5084350292321 250.20266019804725,591.7596055962453 250,600,C 248.64834966490272,654.9596416291482 227.0195645421723,709.1935030217887 190.1791116269324,750M 249.1655650005964 , 575.4488936293507C 249.95571912934602,583.604485571885 250.23459118165846,591.8095793479333 250,600,C 248.33890039771018,657.9949527154101 219.4288063838012,714.6335990868706 173.43542122024553,750M 250.84147957607544 , 575.4597110744722C 250.75128625944674,583.6448560113366 250.47069191506037,591.8279022526075 250,600,C 247.05417180070836,651.145123214084 236.6119941743056,701.8523580267891 219.11039125391318,750M 249.00575765106643 , 576.1071548019785C 249.08736286314448,584.0792174535025 249.41899417610713,592.0487186841954 250,600,C 253.81725176451437,652.2405135796047 268.5432555110712,703.6589048495798 292.95934795753476,750M 249.4388718267102 , 575.1722710750853C 249.48871649475302,583.4505231432593 249.67579348124454,591.7279487472359 250,600,C 251.9810074803629,650.5449288082687 259.0988040257661,700.8871135730352 271.2082468569723,750M 249.00100069128592 , 575.955274378833C 249.72799227671862,583.9473366489009 250.06152931559456,591.9751766226755 250,600,C 249.58604942548186,653.988577889279 230.68226816004224,707.6662542789454 197.17418151204072,750M 249.26057167611938 , 575.3267647113801C 249.18840503732258,583.5566097918053 249.43512762964482,591.7892462418629 250,600,C 253.65220491034657,653.0869569249054 270.8645623356557,705.185767159856 299.5568632403111,750M 250.01593933099562 , 576.9998729607943C 250.3971248441351,584.6603540707458 250.3918027305598,592.3400545790666 250,600,C 247.13970287170656,655.9202838098558 222.83335892901204,710.4763354449956 183.1705377840098,750M 249.37780743281547 , 575.2171357657037C 250.14934278956198,583.451058996045 250.35738604715084,591.7377343432223 250,600,C 248.67822889886853,630.5574995500332 239.47547966635886,660.7412129904964 223.523800676506,686.8381820673595,C 207.57212168665313,712.9351511442227 184.90579025137004,734.8892981273863 158.31303660472688,750M 249.21124354392325 , 575.3852941736105C 249.58489483252046,583.586148985908 249.84784558600617,591.7920475164536 250,600,C 250.92966359225287,650.1505962962349 247.71395405843782,700.3774190994484 240.39643753772543,750M 249.01855528371757 , 575.8082546770288C 249.09575337377242,583.8797253684098 249.42311099106539,591.9488014719359 250,600,C 253.7349866211586,652.1263506859774 268.0627145014404,703.4712546924001 291.8573025625568,750M 250.85883233310236 , 576.512256794604C 250.79958601384521,584.3476099774919 250.51314819173783,592.1812437971087 250,600,C 246.59240376855965,651.9209939750423 233.06994148872226,703.1591876304675 210.41294204053509,750M 249.90862843838835 , 575.0041831304258C 250.21383598743748,583.3320972262553 250.24431525719598,591.6700771377753 250,600,C 248.48242231999214,651.7417747748724 236.22112366052832,703.1443194666838 214.21977141508006,750M 249.323680482658 , 576.7366083833776C 250.02883753783868,584.4672106962922 250.25485339852793,592.2414880074739 250,600,C 248.05114434127444,659.3290891440422 216.12935925276247,716.9117979624921 166.8453888063251,750M 250.5725163439922 , 576.8198933076088C 250.25433555835116,584.5427501740672 250.06346221046275,592.2708519395733 250,600,C 249.58665603380658,650.3417181862576 254.59856158215672,700.7262022916291 264.92097905935236,750M 249.00070208250725 , 576.0374656121618C 249.89533527887892,583.988347729506 250.22953461640802,592.0022372590939 250,600,C 249.09462452130782,631.5463453109079 239.216382492628,662.7859239890903 221.82016006479734,689.117711859911,C 204.42393763696666,715.4494997307316 179.5640042425411,736.7913518807268 150.9017778444806,750M 249.77657827588968 , 576.9747218747907C 250.0731818815521,584.6455155321304 250.14769738682332,592.3248951463644 250,600,C 249.0094653184698,651.4732027791492 237.90393294122563,702.7323987779858 217.5018340782318,750M 250.9977037519436 , 576.0677290436793C 251.09186076948552,584.0553301862046 250.7586592779417,592.0479516062829 250,600,C 244.5033027543366,657.6147999161295 215.67620182504214,712.6648731481473 171.4521455553806,750M 250.6514393570926 , 576.7587007078096C 249.9812858700495,584.4842545632051 249.76364377666908,592.249037233704 250,600,C 251.76165387983227,657.7709079847783 280.1772108378219,714.1913339392188 325.54592989319644,750M 250.67652182114452 , 575.2635774137661C 250.80889119728567,583.5136612141242 250.5831009044793,591.7694837525302 250,600,C 246.18047635690183,653.9128839633462 226.64661424228106,706.6196567415143 194.40791642612572,750M 249.01268050206517 , 575.8412542630565C 249.55384445804594,583.8836372415233 249.88310321457882,591.9402780729641 250,600,C 250.7369053298558,650.8076592849746 242.95983299521654,701.7285527330453 227.0907230568223,750M 249.16642175619566 , 576.552401404285C 249.24532380794514,584.3736512950258 249.52330318808322,592.1928919863568 250,600,C 253.14356453770807,651.4837676280279 265.00643616672045,702.4242695869705 284.9315510433339,750M 249.03088949021551 , 575.753373116175C 249.67960953345408,583.8181780985783 250.0029964805867,591.9091466383452 250,600,C 249.9806128828895,652.3475180659514 236.00473517673913,704.6260654638578 209.899772272431,750M 250.99893970581843 , 576.0460376382907C 250.6040300929907,584.0279487116223 250.271036834078,592.0129231242306 250,600,C 248.30340682429747,649.9962308345985 249.03631832025798,700.0748313453931 252.1952834798244,750M 250.999397111193 , 575.9652809254287C 250.8144792309851,583.9821017916444 250.48127088770994,591.9955019048004 250,600,C 246.94425470103357,650.8231601985731 237.8930781013311,701.28326480058 223.09406112682984,750M 249.2435152948223 , 575.3459886156708C 249.01868300562202,583.5694000584377 249.27141037366923,591.8058433947293 250,600,C 255.20110766649162,658.4947811496272 285.87671390106556,714.2770754267814 332.48748092583526,750M 249.9720881507965 , 575.0003896115616C 250.3340002948925,583.3282252546735 250.34331535177228,591.6713769764764 250,600,C 247.81039300996818,653.1185427494167 230.95058504141687,705.5581358854591 201.77363049477015,750M 250.23895234166352 , 576.97103129631C 249.8498958214569,584.6399846739312 249.77015873962543,592.3246248378941 250,600,C 251.5916388850129,653.1515775068428 268.39203167400086,705.7628396946491 297.8996095807842,750M 249.81217112802412 , 576.9822017689112C 249.4241496187297,584.6496563685772 249.48690321148587,592.3398986680834 250,600,C 253.99888704158568,659.7000032725624 287.02727710303196,716.7814394614356 336.7928146170693,750M 250.00885843041812 , 575.0000392366645C 249.46072772886413,583.3212739589933 249.45776649090465,591.6783789204453 250,600,C 253.93699907562478,660.4208591840198 288.4922401920583,718.0576221555863 339.93020947449924,750M 250.41398498555122 , 576.9102837094764C 250.12911152769965,584.6032875015658 249.99108302029111,592.3017287187602 250,600,C 250.05853453242935,650.5344550142984 256.4812755685642,701.058227935423 269.068472121515,750M 250.94716619080972 , 576.3207432103521C 251.06291103841778,584.2232228362311 250.74656081674854,592.1320124520894 250,600,C 244.47100842034837,658.2699170988693 214.20420117299557,713.7855580985273 168.22086523091957,750M 249.16073295542463 , 575.45628056142C 248.92376665211563,583.644311003711 249.20426544492057,591.8472825345999 250,600,C 256.0083847523606,661.5590500585016 293.2985027611475,719.2464253235889 346.9625966793337,750M 250.4901234085382 , 575.1283469472302C 249.8755549360817,583.4018109672871 249.71185758047312,591.7087470642499 250,600,C 251.92671336987138,655.4408750732559 274.87217024052995,709.8978262074435 313.20255649490537,750M 249.00367724739579 , 576.0856794762072C 249.05856737452336,584.0654528681149 249.3909424877271,592.0433144300533 250,600,C 254.03889240127495,652.7638133349095 270.4478890486841,704.5411858674726 297.53716491819694,750M 250.25845700995453 , 575.0339772393958C 249.69551662506743,583.3419369264898 249.60917564692835,591.6821666063595 250,600,C 252.65601641468572,656.527444757467 278.3563811049121,711.6345637669406 319.9556567795031,750" stroke="hsl(210,80%, 90%)" fill="none" stroke-width="1"/></svg>