<svg viewBox="0 0 500 800" width="500" height="800" version="1.1" xmlns="http://www.w3.org/2000/svg">
<rect width="500" height="800" fill="hsl(210,80%, 20%)" /><path d="M 250 , 80C 248.50399109843073,156.15846014329998 217.6204395592318,229.56948549496764 172.5238571948886,290.95879525723973,C 141.59098632735132,333.06725430146787 104.73141646081713,370.83069361799136 76.86989132631933,415.03137506485285,C 62.939128759059884,437.131715788283 51.432352852389286,460.9840927551825 45.24467299673647,486.3652634098432,C 39.05699314108365,511.7464340645039 38.37809578592627,538.6994067878381 45.25492001191464,563.9025909986065,C 51.08514971890893,585.2700636091408 62.37952623963217,605.219820526712 78.23913325106793,620.6805232805028,C 94.0987402625037,636.1412260342937 114.4796331492924,646.9832665912247 136.23897193081203,651.1174702617415,C 157.99831071233166,655.251673932258 181.01260670105358,652.6256441045255 201.22448952427146,643.5680364215461,C 221.43637234748934,634.5104287385667 238.73301159760246,619.0687030638818 250,600,C 271.24490038914934,625.4047078454665 305.02110332033163,639.7171720692891 338.0645669116812,637.5093479944271,C 371.1080305030307,635.301523919565 402.34940200222513,616.8238305238216 421.4827407918086,589.793101343472,C 435.7447267557455,569.6444025510269 443.50872085947015,545.2252602095979 445.0717545185087,520.5892858540965,C 446.6347881775473,495.9533114985951 442.18903240459787,471.16642821699503 434.10038345880525,447.84373401379594,C 417.9230855672161,401.1983456073821 388.2235665607406,360.6809434455483 359.99950159917114,320.1729271561331,C 309.2047012044903,247.2707210208058 265.30563593528046,167.5247445877443 250,80M 250 , 80C 261.7600503974348,127.33775228530148 259.5142901971939,177.91357788975253 244.54906145259005,224.3377472996241,C 229.58383270798717,270.76191670949487 202.04776232607648,312.20419827318705 170.58366515583637,349.4757982661623,C 141.52094908578295,383.90278093823974 108.95825079742431,415.6698368173872 84.42567706299033,453.45887527084113,C 72.15939019576972,472.3533944975675 62.03802283263695,492.80683506947975 56.27275876281113,514.5835745068532,C 50.50749469298531,536.3603139442267 49.22646926179855,559.490074996919 54.06791458322896,581.4906444785865,C 58.89278708341696,603.4159034938294 69.91427584005663,624.0744974953203 86.11067446022399,639.6203345350298,C 102.30707308039133,655.1661715747392 123.61592190139673,665.4017189380886 145.93189543836348,667.8499228973124,C 168.24786897533068,670.2981268565356 191.37421627112684,664.889556641365 210.1952932151037,652.651769251584,C 229.01637015908057,640.4139818618032 243.36504978145422,621.4470000961905 250,600,C 270.38597739550755,621.4864063259093 301.6222079284826,632.0372679659243 330.89159371731824,627.5033086899128,C 360.1609795061538,622.9693494139013 386.43644984982234,603.6974443649531 400.8806779141642,577.8397954618239,C 411.2019192827978,559.3630008303803 415.7522098835267,537.9148861668757 415.1601886693611,516.7590483407788,C 414.5681674551955,495.60321051468185 408.9914420228237,474.7755929364154 400.53336620060935,455.3750538555597,C 383.61721455617635,416.573975693838 355.97551313868587,383.63901388823825 330.28493987718105,349.9986467905869,C 300.76290541904905,311.3411958052799 273.5217989037922,270.11296949255234 258.2257952130972,223.93958639879594,C 242.9297915224047,177.76620330504113 239.65004966418877,127.52712450037936 250,80M 250 , 80C 255.2667794332285,128.43702635748227 248.43418486238883,178.0049083809288 231.27324612526627,223.605200809974,C 214.11230738814464,269.2054932390176 186.6098833568054,310.1377889848657 157.1699748564357,348.9601572207602,C 130.3627844309992,384.31076362814616 101.68288769515563,419.0789205134958 84.3053258661163,459.8993954832147,C 75.61654495159152,480.30963296807715 69.96558985460625,502.191538859621 69.54514023969007,524.3702658314382,C 69.12469062477388,546.5489928032555 74.1005122923304,568.9880725850466 85.11355401746096,588.2438670357991,C 93.27768062334745,602.5184650729684 104.71368209996719,614.9532466080659 118.45111365160737,623.9920566361449,C 132.18854520324754,633.0308666642238 148.19615263949765,638.6282825304583 164.58792559186358,639.9423950970922,C 180.97969854422945,641.2565076637262 197.70470549654823,638.274667572306 212.60510188307734,631.3179945252232,C 227.50549826960648,624.3613214781403 240.53861035358682,613.4498780038499 250,600,C 277.2219129901108,613.340482071295 310.08663671732194,614.5278119423588 338.27035671894936,603.3618397229068,C 366.4540767205768,592.1958675034548 389.3521451394434,569.0364169654465 401.55319516265496,541.2851037160381,C 416.4891308510577,507.31328742372347 415.4963539061128,467.93863112230565 405.2618552975853,432.2676132601963,C 395.0273566890573,396.5965953980862 376.51807722533624,363.92176368742037 357.4610898626718,332.07843299249794,C 333.83500642397917,292.60035738448886 309.4159688978493,253.4414016747377 290.3751381256139,211.5587437377485,C 271.33430735337896,169.6760858007603 257.4362971672265,125.40277256737028 250,80M 250 , 80C 222.42095931337275,161.24618604035777 178.9099166570441,235.85704772578924 136.55312737450657,310.47238551215713,C 115.44148378720374,347.66246635101425 95.34600551070852,386.1693758613129 86.28516550596741,427.9629732916193,C 81.7547455035959,448.8597720067734 80.1245841100043,470.4875023872962 82.74702267930206,491.7083345549991,C 85.36946124859982,512.929166722702 92.32720534248219,533.7062457436966 103.83663038100235,551.7266241310181,C 118.84052563843758,575.2183162805212 141.75673978413815,593.7179829008228 168.1803838907066,602.5930888197698,C 194.60402799727504,611.4681947387169 224.20712581064703,610.5690166995482 250,600,C 258.8839015714617,616.7503973328611 272.74244766759375,630.820291560882 289.3504155533335,639.9676912267093,C 305.95838343907326,649.1150908925366 325.2432948663247,653.3013325195495 344.15621028897755,651.9592639088895,C 363.06912571163036,650.6171952982295 381.5228262534231,643.7699856768762 396.8904331101093,632.6643034628712,C 412.2580399667956,621.5586212488662 424.49353444621045,606.2753620859322 432.44327554905504,589.0619622376198,C 442.0041964959673,568.3599100514904 445.3502679272361,545.0397359642128 443.4683957147382,522.3143155930478,C 441.58652350224037,499.58889522188286 434.63291299219685,477.47183735825195 424.8456414286832,456.87583072074165,C 405.2710983016498,415.68381744571377 375.1436530998477,380.62623532015647 347.2490996303912,344.5452350149848,C 317.81061383977334,306.4671917167391 290.5612730259057,266.14207424986336 272.8595784595992,221.38481968092577,C 255.15788389329367,176.6275651119887 246.97830017679127,128.0357279245962 250,80M 250 , 80C 262.3627857824316,120.42058708317256 263.1652801880514,164.21779693096522 252.865679873679,205.2126815608164,C 242.5660795593068,246.20756619066748 221.2517264977783,283.84304858954033 194.83296911368774,316.8386784627702,C 165.374299844389,353.6309974063178 129.65209155432657,384.99474539071764 99.73113170948486,421.4121051292411,C 84.7706517870597,439.62078499850026 71.32838566476134,459.2513350643394 61.716447855441935,480.76836631031347,C 52.1045100461225,502.28539755628753 46.43296523267826,525.7587803955018 46.96576873678573,549.3190881718544,C 47.52293608640691,573.9567531622075 55.065792847402705,598.5760134364659 69.47172343719438,618.5708661609663,C 83.87765402698608,638.5657188854666 105.12567881481013,653.6601404423974 128.9257094828625,660.054162011967,C 152.72574015091632,666.4481835815365 178.832380937715,664.0013885315082 200.9263309630502,653.0843218966281,C 223.02028098838542,642.167255261748 240.85900858072623,622.8859617998717 250,600,C 264.643302645769,614.2197154189116 283.4019684787619,624.1480355828128 303.39167512545663,628.2757767507526,C 323.38138177215137,632.4035179186924 344.5195168382091,630.7146544934393 363.6435344211959,623.5803310878158,C 382.7675520041826,616.4460076821923 399.7979549294397,603.9172297938502 412.566984959304,587.9930817454667,C 425.33601498916835,572.0689336970833 433.8239857960992,552.845562517747 437.6443320982282,532.7948375158369,C 441.9475504643378,510.20980431244635 440.38005379243185,486.70466377877165 434.59153636078526,464.4539451600798,C 428.80301892913866,442.20322654138795 418.90745662193314,421.1755462058855 407.0488001393805,401.47849872324264,C 383.3314871742682,362.084403757955 352.2726155065661,327.68846169234365 325.43644328357857,290.34913238881524,C 303.3281016445233,259.58801482121146 283.9514236683028,226.63746086353927 270.6968449846628,191.15026221450074,C 257.4422663010228,155.66306356546227 250.26907294105615,117.88076984156359 250,80M 250 , 80C 230.60142425575458,162.1859572494315 188.06433024370045,237.03561590094108 138.70734547851345,305.553674577466,C 108.54675173731374,347.4230339297404 76.30067973071198,388.6970228452221 56.943261127173045,436.5300136820802,C 47.26455182539644,460.44650910051314 41.06634561032775,485.9778574525655 40.897956036060556,511.7780088435845,C 40.729566461793354,537.5781602346034 46.78660004171392,563.6075503765857 59.818517276281284,585.8751344404127,C 69.3558670785902,602.1715653220957 82.57397417111699,616.3503053329634 98.38445312321691,626.6732630505112,C 114.19493207531686,636.996220768059 132.5631171083742,643.4132238188851 151.38027336553085,644.9782577248512,C 170.19742962268748,646.5432916308174 189.40743688081062,643.2422277223525 206.59207169362824,635.4177132273076,C 223.77670650644586,627.5931987322626 238.8889355766354,615.2669233348738 250,600,C 272.6898869949895,616.9130011141805 302.1482843994843,624.4210700598992 330.18165999816244,620.5467403014638,C 358.2150355968406,616.6724105430286 384.3661070655644,601.5350601488904 402.3883646931565,579.715829902652,C 418.20622475958464,560.5654250020043 427.81093164503966,536.62308967131 431.1081557113423,512.0045800008112,C 434.40537977764495,487.3860703303123 431.58270059817096,462.18313060274033 424.8790799108376,438.2665218418769,C 411.471838536171,390.4333043201324 383.6359003826283,348.1468564740974 356.732916869336,306.38562687241273,C 311.31276466091913,235.88038331897616 270.14865770650744,161.41259845866097 250,80M 250 , 80C 253.4133135753067,118.60068402666545 249.00525192248304,157.8265514535692 237.55876645679993,194.84872706999866,C 226.1122809911169,231.87090268642805 207.58589597001776,266.38898335106626 185.98625014920552,298.5622458108371,C 157.46281150663992,341.0486868069293 123.09302218418543,380.0650003791437 101.35527167375831,426.3916063767457,C 90.4863964185229,449.554909375566 83.06856851542872,474.62522115340516 82.3516373716445,500.2017155352414,C 81.63470622786029,525.7782099170777 87.91586034620809,551.7944373651881 101.94333204856476,573.1930609837439,C 117.41410770910866,596.7934155217001 142.43404591143982,614.1617355787281 170.17124227966664,619.3549591909497,C 197.90843864789346,624.5481828031712 227.75303006419344,617.3607016716327 250,600,C 278.6626976166473,614.6182575339188 313.77966275809905,615.8140496603656 343.45350829333114,603.3759397097937,C 373.12735382856323,590.9378297592217 396.63208231034,565.3278970231429 408.0504824837589,535.2469424925599,C 415.9826081662121,514.350327523661 418.3640657224106,491.5369955379461 416.243672012783,469.28635362547953,C 414.1232783031554,447.0357117130129 407.6186754945244,425.35232391240305 398.7023333088043,404.8563248631302,C 380.86964893735956,363.8643267645799 354.02525777473716,327.5724289737366 329.80316778835675,290.00064572227495,C 288.8002274393794,226.39946232601176 257.08771623905824,155.3400021580932 250,80M 250 , 80C 261.44747531909877,127.89085200042219 258.22200290148925,179.0040644242622 241.94020781889557,225.4742865605523,C 225.65841273630346,271.94450869684056 196.51196007859332,312.8261788724351 164.2093270158063,349.98957879384216,C 140.10683822975525,377.71891058286906 114.23805900656106,404.0981013064136 93.35682223315268,434.327553136715,C 72.47558545974366,464.5570049670159 56.87710069041221,499.70498305500377 56.42470392369708,536.4424454648263,C 56.134706412845276,559.9920670309484 62.22752170945351,583.7600872049474 74.90795684210634,603.6063800403977,C 87.58839197475916,623.452672875848 106.85596466914437,639.1281420936003 129.08846781818139,646.8988935496644,C 151.3209709672198,654.6696450057283 176.30991666142856,654.3916658413095 198.28083658985906,645.9094814550551,C 220.2517565182896,637.4272970688007 238.98175842266824,620.8150697094072 250,600,C 264.30340461193344,610.6979053238928 281.46503074324784,617.533898947373 299.20517677304565,619.6123071491234,C 316.94532280284346,621.6907153508737 335.209172676778,619.0050136476025 351.63618189363007,611.9917455077756,C 368.0631911104821,604.9784773679487 382.601528643587,593.6729623913034 393.6438715362112,579.6337592353773,C 404.68621442883534,565.5945560794512 412.21801395579575,548.8862180811159 415.9096488547213,531.410394965031,C 420.4681066528393,509.8311206480516 419.18549894334274,487.22532746740296 413.6802241463148,465.86797353593767,C 408.17494934928686,444.5106196044723 398.57028071401993,424.372689399132 387.04746324371126,405.56659211419225,C 364.00182830308535,367.9543975443094 333.76556899580277,335.3093649652609 308.2808948428023,299.3050617016965,C 285.81688496072815,267.56830024834693 266.96483191044314,232.9052246887682 256.35967530630626,195.4968777468025,C 245.7545187021696,158.08853080483686 243.3892013801248,118.3164600287682 250,80M 250 , 80C 227.8939153184753,167.7253151886984 181.66045487571455,246.93269516645583 135.36360880539866,324.6566422409881,C 116.42789571985463,356.44624534794787 98.2566751469795,389.1469187349875 87.93200653851586,424.6791761060225,C 77.60733793005161,460.2114334770577 75.95135909009467,499.20323536127466 89.39214769925312,533.6776504733547,C 101.24477504869762,564.0785746523942 125.07931215981924,589.9490023225446 155.13306802484635,602.6561941614151,C 185.18682388987344,615.3633860002856 220.74157582611525,614.4445692523365 250,600,C 272.651161000799,616.6549962397839 302.03701426939796,623.8110391796432 329.82813863620726,619.5545851554733,C 357.6192630030165,615.2981311313034 383.34308677181497,599.7623125502388 400.7879006742254,577.7136739904183,C 415.3076317737565,559.3620707695259 424.17360099347536,536.8152534224945 427.3579709020816,513.6319896258475,C 430.5423408106879,490.44872582920055 428.19714117813265,466.70383861394265 422.25820803532656,444.0690643693199,C 410.38034174971386,398.79951588006355 385.04677657732174,358.4017838696841 359.97906054133006,318.8793175921488,C 312.74511987842567,244.40895801394768 269.0648535933703,166.1011670287732 250,80M 250 , 80C 228.7975338139471,163.43844259492397 185.17165733868495,239.27000204575023 136.59556826855925,310.3465934502932,C 107.79915938681692,352.48153323622387 77.78550601678144,394.9299416499371 62.26391881317188,443.54749656510364,C 54.50312521136028,467.8562740226939 50.650539136351384,493.6235449601443 53.12158740700912,519.0211924743659,C 55.59263567766686,544.4188399885875 64.59055640483295,569.3642695525275 80.20803490037855,589.5444812524512,C 99.97653227693255,615.0884550867605 130.60647899485912,632.2477974470479 162.8319170975795,634.4407923997184,C 195.05735520029984,636.6337873523888 228.02380437642108,623.6713944179234 250,600,C 272.7647166527254,616.1923460878052 302.02367369366453,622.9186122361386 329.5936467655753,618.4107323663716,C 357.16361983748595,613.9028524966045 382.58718047420984,598.294037131919 399.8172774034671,576.3043087135294,C 414.108645053837,558.0651023614535 422.84563709988726,535.7405909008592 426.0141549036839,512.7868911424614,C 429.18267270748055,489.8331913840635 426.9285134487082,466.3221988910649 421.1350476270257,443.886789569088,C 409.5481159836603,399.01597092512446 384.6924185121516,358.87943574912816 359.9981199730472,319.66414574192464,C 312.8814962297247,244.84152782756632 269.09151208426107,166.33605591445786 250,80M 250 , 80C 259.09203653278803,127.65816743036126 254.99238884887018,177.5866662165876 239.43923013253166,223.54387789308382,C 223.88607141619468,269.50108956957666 196.89640600643662,310.63328091865213 168.28825564749374,349.8192450406902,C 145.0918186729974,381.59252418096753 120.71961055182939,413.1815096964339 105.8728182124562,449.61211102099753,C 98.44942204276728,467.82741168328073 93.56292447074955,487.20630066335434 92.9253515355321,506.8658400695003,C 92.28777860031465,526.5253794756462 96.01134329546404,546.441953941032 104.721513104828,564.0781930753137,C 117.39747856703671,589.7443239363936 141.1550630196262,609.9954624229465 168.88989466026337,617.0813277647871,C 196.6247263009005,624.1671931066278 227.52149562715755,617.7241985696755 250,600,C 262.9729981753818,617.9917938949158 281.8650019731102,631.6356671039787 303.01677503926214,638.3144263730044,C 324.1685481054141,644.9931856420301 347.4413204878169,644.6676572390677 368.45226871087124,637.5582702061571,C 389.4632169339254,630.4488831732468 408.0785715415859,616.6400697377604 421.34970658730117,598.867047940273,C 434.62084163301637,581.0940261427855 442.5270784300321,559.5154801981514 444.7858908412044,537.449644711891,C 447.1904653773381,513.9598914830041 443.3044445459169,490.0555824308115 435.2214286358813,467.8696558274006,C 427.1384127258457,445.68372922398964 414.980996442632,425.1586397093036 401.1124652679071,406.04805812449797,C 373.37540291844635,367.8268949548865 339.18075152225435,334.6799443035552 310.9852653252154,296.7956929591176,C 287.9398914186754,265.8312778998758 268.8642186003007,231.58275578194934 257.89205892552155,194.57605408449479,C 246.91989925074247,157.56935238704023 244.05577696549406,118.13856933563821 250,80M 250 , 80C 265.69142650982127,121.4416632260542 267.9712135684793,167.7042281125049 257.2202869199917,210.69317893773035,C 246.46936027150466,253.68212976295547 222.87638095567195,292.580004492401 194.29909023179104,326.446961422978,C 167.41351606051643,358.3090644932133 136.17348407624394,386.35735639123226 110.16700018171966,418.94094898046734,C 97.16375823445568,435.23274527508374 85.53442700878311,452.75031642276366 77.09368827624778,471.80971980517415,C 68.65294954371242,490.86912318758465 63.47775459992976,511.5168329290349 63.334027259161985,532.3611671735215,C 63.179391913795776,554.787455781205 69.0083207846755,577.3708925656657 80.9410258244927,596.3596493242815,C 92.87373086430989,615.3484060828972 110.90690540614496,630.5343857079292 131.8539796652979,638.5457783950146,C 152.80105392445168,646.5571710820998 176.4916766910655,647.2720274771377 197.82236632467718,640.3464219036363,C 219.1530559582889,633.4208163301348 237.93776309120278,618.9067388399278 250,600,C 261.3890093487258,619.4739509190546 279.1139267712432,635.1695560478971 299.8145095952867,644.137842901473,C 320.51509241933024,653.106129755049 344.06176853549914,655.2952593118628 366.0958819088875,650.4535502962592,C 388.1299952822757,645.6118412806559 408.51345216755635,633.8051841001385 424.00109897483264,617.4016145277509,C 439.48874578210894,600.9980449553632 450.04090108350795,580.1476240947466 454.9414441350634,558.1265211218491,C 459.60843028395624,537.1549305294069 459.23992299588394,515.2077588665976 455.0390495814892,494.13785060274415,C 450.83817616709456,473.0679423388907 442.8866987779701,452.8614809208568 432.8650204297364,433.85741991339023,C 412.82166373326675,395.8492978984564 384.9819476560539,362.6340601556517 358.7377324754752,328.6106174092233,C 330.68177577142706,292.23840242590285 304.2856612181171,254.24225494682753 285.04571955463945,212.53015389499507,C 265.80577789116217,170.81805284316292 253.64197997288113,125.79094573438508 250,80M 250 , 80C 227.17796042522073,167.98879599747295 181.27283463449265,247.7461212273452 135.68855533785705,326.3905564560632,C 114.67461793143383,362.644924513644 94.59862330688016,400.2337794298835 85.7951246654621,441.20283092300645,C 81.39337534475199,461.68735666956906 79.95644511100103,482.9168133824168 82.85350670178606,503.66767423885256,C 85.75056829257107,524.4185350952883 93.07004591569498,544.6480249685579 104.93886555462214,561.9142437938415,C 120.43432800097013,584.456337577126 143.86282603692868,601.6010139642631 170.28383285785284,608.6852039059046,C 196.70483967877698,615.7693938475461 225.7440620880201,612.6453479418618 250,600,C 271.7564533082655,626.2611227092133 306.49627083634647,641.1335976165183 340.5291037029226,638.9527460445883,C 374.5619365694987,636.7718944726582 406.7816678615354,617.7921954065512 426.49251223516166,589.9628504523166,C 442.02074602217186,568.0388493087165 450.01135553111385,541.2016141578125 450.908630675446,514.3504918720683,C 451.8059058197781,487.4993695863241 445.86707024677213,460.70942422525513 436.0292601522505,435.70931696083017,C 416.35363996319876,385.70910243194925 382.3562763350241,342.93415983561516 351.42327534097086,298.9989696999183,C 304.73999379484695,232.69312206226886 265.9175249340322,159.51368817276887 250,80M 250 , 80C 260.97556061043855,127.33250546370316 257.9317391135963,177.626380062097 242.5846457443146,223.72730987158621,C 227.23755237503485,269.82823968107124 199.66935792917695,310.77930103912445 170.34405712681678,349.5201804436443,C 149.12276555386376,377.55506755961005 126.97464033133959,405.2853364274422 111.55348226699395,436.884165449792,C 96.13232420264698,468.48299447214197 88.18520714849272,504.98072975554163 96.55254548966285,539.1316559613367,C 100.43377130368869,554.9727097060654 107.73966417430208,570.0128602943546 118.13033755772196,582.584129291633,C 128.52101094114184,595.1553982889113 141.9823517726666,605.2031056267804 157.07488065233613,611.385214456232,C 172.16740953200565,617.5673232856836 188.84649522019438,619.8546638049862 205.03659398351462,617.8839787472516,C 221.22669274683489,615.913293689517 236.8814217870317,609.6905006698868 250,600,C 260.69345842748413,614.837842427851 275.24867952361654,626.8656419233753 291.8320012367925,634.5795943481296,C 308.41532294996847,642.293546772884 326.98262516924956,645.672813076293 345.22554960917876,644.3661651003245,C 363.4684740491079,643.0595171243559 381.33397282290423,637.0795053275953 396.7910716167119,627.3025058935901,C 412.2481704105196,617.525506459585 425.2632795085247,603.9981721134044 434.7607084573295,588.3677381969557,C 447.91316193349223,566.7220321846775 454.20725250409805,541.2320689967096 454.3086112449799,515.9039552173883,C 454.40996998586166,490.5758414380671 448.51491834047386,465.45396819942556 439.14083361435695,441.924196488672,C 420.3926641621161,394.86465306715036 388.7567402822153,354.2996900360903 359.2083699513602,313.15375104276234,C 308.6973716067174,242.81747079753228 265.9238861732049,165.11746660733542 250,80M 250 , 80C 242.21180959998497,126.19512645814206 227.8481202257713,171.20569217362961 208.30122623316126,213.77991622330887,C 188.75433224055143,256.35414027298674 163.76404695116977,296.1456910642257 139.92947514719114,336.4763097690197,C 121.49494553473335,367.66948541810666 103.81449094303412,399.79321749460684 94.19112866841286,434.7251081912006,C 84.56776639379088,469.65699888779466 83.8970870686273,508.02303774276925 98.40030497704355,541.2269947269663,C 110.5482350100499,569.0387085693742 133.44051256629749,592.2716858528612 161.65209270120607,603.4596426471304,C 189.86367283611466,614.6475994413996 222.78120819178747,613.4238967308299 250,600,C 271.4884269710276,619.80507047341 301.97565055591207,629.3805812833627 330.94977580004957,625.5735645401694,C 359.92390104418706,621.766547796976 386.6617174355482,604.7854431712234 403.43457012053096,580.8550289885607,C 416.09560424431913,562.7910898212925 423.24642803798275,541.1170293508507 425.0935584727111,519.1353143931957,C 426.94068890743944,497.15359943554074 423.62827189542395,474.9212344339467 417.05964986095694,453.8627233780623,C 403.9224057920212,411.7457012662846 378.59232428397786,374.67356379122174 353.9312584891755,338.0912925774878,C 327.65694302582096,299.1159237822685 301.8928498385089,259.4782579958275 283.2842019419069,216.314184401558,C 264.67555404530566,173.15011080728934 253.06491074433916,126.90442780719489 250,80M 250 , 80C 266.16311530501696,125.08026652241497 267.0442936541855,175.27243863648434 253.66143221918074,221.25478031137845,C 240.27857078417816,267.2371219862698 212.89814594808212,307.8932457217839 182.15379935453637,344.611931409467,C 158.91286587410497,372.36911691216415 133.72892285112607,398.74616646168766 114.31634933529111,429.30356042068365,C 94.9037758194546,459.86095437967924 81.77787051389559,495.8700217204591 85.46406047738864,531.8841070153276,C 87.3542114833218,550.3508871384345 93.6552040136961,568.430405215603 104.2123226239974,583.6993896477267,C 114.76944123429867,598.9683740798504 129.57124276194548,611.32391831722 146.6190917420018,618.6700386602037,C 163.66694072205823,626.0161590031872 182.8797454077325,628.2933978712515 201.15100457301673,625.0138052966436,C 219.42226373830098,621.7342127220356 236.663009413392,612.9119836211613 250,600,C 255.53355674302713,625.5939353323265 271.6880354681226,648.7117867948282 293.799173150817,662.739165965598,C 315.9103108335114,676.7665451363678 343.64712433536806,681.5179074080746 369.2294961809122,675.9311349247954,C 394.81186802645686,670.3443624415195 417.8866434401239,654.6045326334913 433.07988480175834,633.2776671124934,C 448.27312616339276,611.9508015914956 455.5657681277464,585.4186076363491 454.99036249958795,559.2396335466967,C 454.49075908750314,536.5093991868924 448.2788937093784,514.1024640520626 438.4661259537343,493.5933746867401,C 428.65335819809025,473.08428532141755 415.3297283543493,454.41013092757635 400.5751680880438,437.1122666383367,C 371.0660475554271,402.5165380598593 336.08100885724934,372.92606898965863 306.3795852582302,338.4952969002063,C 275.97964737694895,303.2547863154298 251.21572195219153,262.2778114497229 240.30557930113852,217.03382182905415,C 229.3954366500861,171.7898322083854 232.55756941964148,123.14871289981741 250,80M 250 , 80C 240.30681911174167,155.19910546419527 208.22158821180093,225.80895962607127 168.1301274346262,290.1637418190048,C 142.87832823421442,330.6979105926055 115.00222125397364,370.2634765654001 98.69565236189003,415.1496438331942,C 90.54236791584243,437.5927274670961 85.505597123717,461.3483988499331 85.87207438995976,485.22377831644224,C 86.23855165620253,509.09915778295135 92.17625711154074,533.050206890223 104.31249207117308,553.6142495681858,C 118.55363687590439,577.7449219325175 141.49293219334882,596.8001049781462 168.14460675329815,605.4480988064626,C 194.7962813132475,614.0960926347789 224.74956447453738,612.1455777910523 250,600,C 274.9174695389608,611.9065261543021 304.3139134127161,614.069752859492 330.73967175468664,606.0494692398253,C 357.1654300966572,598.0291856201585 380.2527659084525,579.983901123227 395.1768063925045,556.7477510781249,C 408.1347644420434,536.5727148445409 415.02743120245293,512.7713713175084 416.2958305109089,488.8270206887202,C 417.5642298193648,464.8826700599321 413.3708443898597,440.84902016342176 405.90585816415296,418.0627360326108,C 390.97588571273633,372.4901677709759 363.8760262418195,332.08255262053217 338.67557808026055,291.28181160007995,C 298.2831208770057,225.8844752128819 264.09180976817123,155.5631067579595 250,80M 250 , 80C 241.6054348269384,156.28249706061024 207.3501704350294,227.69545961710975 162.66985268243766,290.0906300053235,C 136.12313855252188,327.16258550383185 106.49304976078086,362.29807607632137 84.71624835965304,402.3583910565445,C 73.82784765908647,422.38854854665595 65.03979979654085,443.6953514394612 60.34432847316125,466.00492400251323,C 55.64885714978164,488.31449656556526 55.150987711575745,511.64670647230594 60.27688496901864,533.8613335499974,C 64.84301709586323,553.6500490257094 73.90322617849834,572.4584588839217 87.0087338618848,587.9725973111495,C 100.11424154527127,603.4867357383772 117.24432706453173,615.6218010873577 136.33655392831722,622.5449287158384,C 155.42878079210269,629.468056344319 176.41215958858078,631.1353793425358 196.33630553422626,627.2020307544873,C 216.26045147987173,623.2686821664388 235.05273639489428,613.7485320488395 250,600,C 271.73255134580654,626.4285870094458 306.58770136854156,641.4242875918994 340.7341446805261,639.2346738233566,C 374.8805879925105,637.0450600548138 407.19328543544765,617.9298363067647 426.8761356096013,589.9412777812569,C 442.45202520444997,567.7927223812504 450.34869916827466,540.6822472911679 451.0541713087517,513.6143853135923,C 451.7596434492287,486.54652333601666 445.54076658622967,459.59587708859095 435.4184533789012,434.48202397301316,C 415.1738269642346,384.2543177418238 380.6102956786596,341.39420898549304 349.41383454351245,297.1285543019878,C 303.17859544968854,231.52389744459808 265.15349009269494,158.8164962012998 250,80M 250 , 80C 263.5508207114412,126.54342124122316 262.28361656191987,177.06850554622292 247.6682430279501,223.2886922534843,C 233.0528694939826,269.50887896074187 205.2675475575546,310.37146518871305 175.04110035032735,348.26970646743007,C 153.08532704887742,375.79808875908674 129.82719219985702,402.61859543943893 112.73550895747165,433.4040169373204,C 95.643825715085,464.18943843520174 85.33582784500061,500.0339017711892 91.20476779498215,534.7531090882321,C 94.10415545392564,551.9051743813233 100.9019592577549,568.4481884762183 111.34126270001812,582.3629553178024,C 121.78056614228134,596.2777221593864 135.8479432487261,607.4884987005843 151.8521637694346,614.3050020666677,C 167.85638429014313,621.1215054327512 185.73718519238358,623.5014282150511 202.95302089160782,621.0084794003718,C 220.16885659083206,618.5155305856925 236.65510903857512,611.1585697041769 250,600,C 258.9649107632105,613.6296894495702 271.71115804318663,624.7426166043102 286.4315984296005,631.7744509534745,C 301.1520388160144,638.8062853026387 317.7972946104763,641.7336645737026 334.04003798575985,640.2133530501221,C 350.2827813610434,638.6930415265416 366.0648081165899,632.7405596689549 379.37387567052497,623.3062191870324,C 392.6829432244601,613.8718787051099 403.48551285374515,601.0087167023993 410.80450316286834,586.4289210817806,C 421.4155055820302,565.2912722986653 424.5728316426689,540.7981763250704 421.5025730201741,517.3467993844984,C 418.4323143976793,493.89542244392646 409.391785648433,471.5055906062701 397.3851039258151,451.1283198756363,C 373.37174048056113,410.37377841433846 338.4335924125295,377.38928674889956 308.41333620597646,340.8330493745825,C 278.6573607705679,304.59863172548495 253.45651273926345,263.6528046559727 241.99679814270277,218.188246615151,C 230.5370835461436,172.7236885743295 233.0351517308549,123.70978173917942 250,80M 250 , 80C 264.7487410496881,120.9949840544925 266.6486763052253,166.38628385295445 256.1024592284744,208.65792192801484,C 245.55624215172386,250.92956000307495 222.7195233774589,289.34338542648175 194.86496612332473,322.8432021476965,C 167.54695801567902,355.69772776249334 135.46950352507056,384.3946625687746 108.68557257553296,417.68601975398315,C 95.29360710076196,434.33169834658605 83.28998575394627,452.2312301084895 74.57864658838537,471.738560141794,C 65.86730742282448,491.24589017509845 60.53040330845502,512.411927573938 60.42985501235069,533.7757578748426,C 60.322545612307586,556.5761423775555 66.34430503011164,579.5249721095689 78.59898496307387,598.7523450065494,C 90.85366489603611,617.97971790353 109.3366724496689,633.268533485963 130.724976135174,641.1685027413145,C 152.11327982067996,649.0684719966656 176.22741548192147,649.4540544073315 197.791036924425,642.0459993951623,C 219.35465836692853,634.6379443829932 238.1737934953583,619.4938423223462 250,600,C 264.8960810061209,610.2598094763374 282.4149037726763,616.6749469620638 300.4128234030292,618.4726701918786,C 318.4107430333821,620.2703934216934 336.839805840471,617.4453813206525 353.5083514853421,610.4228101450425,C 370.1768971302131,603.4002389694325 385.0387729760138,592.2110638882137 396.5893475045027,578.2919709618237,C 408.13992203299165,564.3728780354337 416.36462095446245,547.7811993472567 420.9249704390059,530.278052989802,C 429.99702840379973,495.45845004943726 424.27071110191594,458.0709993432983 411.0909322072612,424.58965509117417,C 397.91115331260585,391.1083108390498 377.93659062154853,360.79745005480095 357.961885102526,330.868899737928,C 332.4155241712196,292.5922128642467 306.89969046468866,254.04307268479064 287.70286990966315,212.21959368750282,C 268.5060493546383,170.39611469021588 255.44805461191186,125.69507649412517 250,80M 250 , 80C 249.44507244592515,128.04637295391728 238.8421935732972,175.8317639076803 220.07067526851287,220.06288416424098,C 201.29915696372933,264.2940044207991 174.20340382951653,304.39243020462675 146.99543510872977,343.99657565312265,C 127.75383000778143,372.00481599258933 108.50947806152047,400.3655445624746 95.55094025959092,431.7785544757276,C 82.5924024576609,463.1915643889806 76.49303110934599,498.3248428316762 84.15432716400068,531.4308156543726,C 88.15434667417578,548.7156896821357 95.84665288943157,565.1917570688026 106.93296758313471,579.0431343559031,C 118.01928227683786,592.8945116430036 132.48570525404799,604.059043338316 148.79855665369465,611.0345652148832,C 165.1114080533413,618.0100870914503 183.22116911136735,620.7624556660542 200.85994099431088,618.8543800127057,C 218.4987128772544,616.9463043593573 235.61438711455838,610.3836972291972 250,600,C 273.20660310780903,618.1459079694275 305.4883908826581,623.9253789010781 333.6120495429666,615.1572418471332,C 361.735708203275,606.3891047931882 384.7243615404267,583.5871583939366 395.25774717885207,556.0759208566952,C 402.66342969125066,536.7336601897395 404.243447086033,515.3903683929532 401.127318255844,494.91460412647035,C 398.011189425655,474.4388398599875 390.3484160138956,454.83555815678466 380.3122873800107,436.71807203903023,C 360.24003011223385,400.4830998035126 331.32358921402187,370.1026809914286 305.68290114466043,337.5692544878729,C 277.08634533851824,301.2853628833521 252.389328932118,260.9246182952524 241.29482954299488,216.07825972237418,C 230.20033015387403,171.23190114949665 232.9174974626838,122.92402475310179 250,80M 250 , 80C 264.38700029138363,124.926259589029 264.6221466741711,174.081938842814 251.7920137925419,219.47733804014268,C 238.96188091091432,264.872737237469 213.21733704012345,305.5343087891982 184.40018713287594,342.8830229473598,C 159.57860248615765,375.05325049958907 132.3239172577835,405.9063851504802 114.26340989988425,442.3049109326006,C 105.23315622093062,460.50417382366277 98.66635672517832,480.081185539317 96.56793885716301,500.2889883326798,C 94.46952098914771,520.4967911260426 96.97590011936568,541.3209262708057 104.99999657583993,559.9856664870916,C 116.46597432299362,586.656519353471 139.79730238098614,608.2830475488381 167.71804605256875,616.2350982996861,C 195.6387897241513,624.1871490505341 227.23903742123005,618.0205888029807 250,600,C 274.73284169219204,612.3100671354173 304.1716239479454,614.7839391327852 330.64768296533106,606.892835917301,C 357.1237419827167,599.0017327018168 380.24459267678327,580.9157606860315 395.0946163962812,557.6192371990418,C 406.2601131130403,540.1029516079047 412.8701912195217,519.8403608079747 415.15685103703913,499.1943015055028,C 417.4435108545566,478.5482422030309 415.49405647375727,457.55595131857723 410.70073288453955,437.34425602077295,C 401.11408570610337,396.92086542516154 380.7264849487212,359.9738355424127 359.71364935439846,324.13509879493307,C 314.368199510124,246.79553020743214 270.044467275797,167.38328228276777 250,80M 250 , 80C 262.5599861470953,126.66851966017411 261.01751818386816,176.85952787771507 246.6966304346358,223.01812570478484,C 232.37574268540484,269.1767235318528 205.41301676883083,310.3899104920947 175.28758341010945,348.18094440539636,C 147.4837878768833,383.05958556560483 116.69623592511452,416.2969983936052 96.89930983097923,456.2676422770777,C 87.0008467839036,476.25296421881865 80.07236381364626,497.91550457879885 78.5751594390579,520.1674942172574,C 77.07795506446953,542.419483855716 81.20755283420735,565.2285221133247 91.79947665341881,584.8551319483771,C 99.30744478715474,598.7672374100392 110.00944210874465,610.9847380440056 123.00248389657102,619.9901324814192,C 135.9955256843974,628.9955269188329 151.2506476916782,634.7448128298025 166.97377734180162,636.3878155318736,C 182.696906991925,638.0308182339446 198.83964528010844,635.5543658122622 213.32276434496637,629.2175270083513,C 227.8058834098243,622.8806882044404 240.58809197018306,612.7016633206784 250,600,C 280.40191149770146,616.8993132819353 318.6133001830247,618.8334409250015 350.6682721009544,605.3300418175247,C 382.7232440188841,591.826642710048 407.71019004349307,563.4885879325037 419.031853120326,530.5996390698577,C 432.82516328732584,490.5306607183158 426.799239018907,445.8005483665196 411.1648617979493,406.4134352403688,C 395.53048457698975,367.0263221142165 371.4037376732369,331.696473202478 348.26050852615214,296.1976087678921,C 304.7537691641721,229.46362653981453 266.7638700758953,157.8796084607976 250,80M 250 , 80C 231.84758928089875,162.50043912605315 189.10465145464755,237.54128544872285 138.7932349394257,305.3984430604178,C 110.04638577739964,344.17054707853947 79.35699586778071,382.10333558728104 58.71366034662368,425.7325698837624,C 48.39199258604196,447.5471870320034 40.76192208433317,470.78888112618193 37.96024347257866,494.758965473981,C 35.15856486082415,518.7290498217801 37.31480172730167,543.4292055435608 45.623997614822464,566.0869108639805,C 52.96197323248008,586.096270547383 65.11674258614974,604.3982084705265 81.13308532098733,618.4586894902259,C 97.14942805582494,632.5191705099253 116.98752821567007,642.2447912999334 137.96983820970198,645.9815048853534,C 158.95214820373383,649.7182184707733 180.98751473069484,647.4301318570876 200.7108583442055,639.354856146098,C 220.43420195771614,631.2795804351083 237.76345880167068,617.4495679203441 250,600,C 272.3506124070796,617.0968518979844 302.15284543599114,624.0127740770622 329.7771074008831,618.6506503664289,C 357.40136936577505,613.2885266557955 382.23828611170325,595.861928241127 397.64346727313415,572.3134120845491,C 409.0844975641197,554.8245371513741 415.4842586265366,534.2430203947141 417.1078436342784,513.4074284359979,C 418.73142864202026,492.57183647728164 415.69649944217446,471.5274453767012 409.67954280686826,451.51359633669074,C 397.64562953625455,411.48589825666403 374.38625878675737,375.9187405601451 351.44241885879285,340.9814840629562,C 325.460847606706,301.4185851809876 299.71928031748996,261.3647907206152 281.426001462411,217.71137205262926,C 263.13272260733305,174.05795338464458 252.11426798757904,127.28419274502522 250,80M 250 , 80C 264.4494226642692,125.1091043380169 264.7150019208768,174.47039673640413 251.81237072007318,220.04603954706388,C 238.90973951927094,265.621682357722 213.0031492060982,306.4665584970925 183.55930254269097,343.5701567480758,C 155.96300534974833,378.34556962013687 124.98417991446745,411.10723131119397 104.82771594437098,450.6622805388934,C 94.74948395931368,470.4398051527488 87.59869973001409,491.9220762929589 85.89596143776305,514.053997178964,C 84.19322314551201,536.1859180649691 88.14151502735068,558.9346390962401 98.6102581905863,578.5082605388474,C 105.67086426186069,591.7096189291991 115.6400532535539,603.3798010005466 127.74592741053334,612.1875153657837,C 139.85180156751278,620.9952297310208 154.07137319184838,626.9047905301024 168.8762724185093,629.1280719636238,C 183.6811716451702,631.3513533971452 199.0331173276155,629.8764371296692 213.1261355220208,624.825213553506,C 227.21915371642612,619.7739899773429 240.0196598976858,611.1588903071213 250,600,C 263.4051260878952,617.2204666291317 282.3075948033248,630.0889171373585 303.23757843241054,636.2677245986416,C 324.1675620614963,642.4465320599247 347.00089231627237,641.9027494286227 367.6662448375706,634.8895417796308,C 388.3315973588687,627.8763341306392 406.7089224987314,614.4700124499896 420.0566458461886,597.2050143962063,C 433.4043691936457,579.940016342423 441.70198979854547,558.9596847982302 444.6576934328779,537.3378048525967,C 449.79409369760344,499.7634592427719 438.8309957832698,461.44819527282937 421.0575532223179,427.94716849425765,C 403.28411066136516,394.4461417156858 379.2496745068121,364.76051038522786 356.16908950374574,334.66897251156144,C 327.6607590706367,297.50095857998383 300.554967025259,258.827056601383 281.5099140336344,216.03135447783453,C 262.4648610420106,173.23565235428666 251.40312530704153,126.82112133507631 250,80M 250 , 80C 263.6494056542615,126.13368494238084 263.07741173373427,176.20502881921288 249.37082891919906,222.32175841516028,C 235.66424610466498,268.4384880111066 208.99047899689646,309.70480762551074 178.40256481590802,346.8397327921756,C 148.82783927467602,382.74460728933474 115.31497950106404,415.9490470966274 92.22945358340726,456.33323826843554,C 80.68669062456884,476.5253338543429 71.96254002727122,498.55406443839655 68.7487998208866,521.5894280074879,C 65.535059614502,544.6247915765791 68.04060327376804,568.6596881353954 77.53315122711967,589.8928611019511,C 84.88654334311755,606.3411158231331 96.40304556913046,620.9729623252728 110.95433309024246,631.5973442114079,C 125.50562061135446,642.221726097543 143.0466106283853,648.7598870085303 161.02061872082146,650.0058774087922,C 178.99462681325755,651.251867809054 197.31624024094955,647.1834873259783 213.02994005796742,638.3688916435232,C 228.7436398749853,629.5542959610681 241.77846575202028,616.0319628740151 250,600,C 263.97076093605017,614.7911350859831 282.4937541246158,625.2180011892046 302.38238178132775,629.5077946803575,C 322.27100943803975,633.7975881715104 343.4212741836511,631.9303494210149 362.3058749060632,624.3585798907702,C 381.1904756284751,616.7868103605258 397.71296708576733,603.5789906097184 409.58877307036744,587.0585465938877,C 421.4645790549676,570.5381025780572 428.68018001247634,550.8255933465159 431.06923053418467,530.6203396765225,C 435.18322043584925,495.82651308992877 425.0165111504525,460.5660879912764 408.6863115440178,429.5683483597653,C 392.3561119375826,398.5706087282542 370.3271517321713,371.01314008755367 349.0096070905191,343.20850788534426,C 319.784526130005,305.09001718453476 291.91734146085054,265.3372038529103 273.7300915759457,220.8810610593623,C 255.54284169104258,176.42491826581573 246.99791794557004,127.93862945260932 250,80M 250 , 80C 231.68063742200678,158.70252242001243 192.1951448619495,230.91342466766622 145.7187912691793,297.01663667174614,C 114.65569862485187,341.19760268646746 80.810717086722,384.46545498066564 61.49757170364746,434.9023055765965,C 51.84099901209797,460.12073087457225 46.13817957847212,487.1054422766836 47.28877407570633,514.0849623420905,C 48.43936857294055,541.0644824074974 56.69655768500108,567.9612299552805 72.45322887636792,589.8917038129953,C 92.4234188227174,617.6866436979951 124.78876324558952,636.5880476432076 158.9440489183055,638.7751988312134,C 193.09933459102146,640.9623500192192 227.96593820505606,626.1890681491462 250,600,C 259.4925770868048,613.1302073347051 272.4455759907905,623.7337418697692 287.1888089518361,630.4530012231215,C 301.9320419128817,637.1722605764738 318.4248184500519,639.9885229769864 334.5675299750933,638.6013571539612,C 350.71024150013466,637.2141913309359 366.4546744298144,631.6354482399302 379.95990676610006,622.6844670677782,C 393.4651391023857,613.7334858956262 404.7011012008702,601.4528426231806 412.69791894147824,587.3616300981787,C 425.74892809431725,564.3644142551157 429.911864085652,536.8784606560577 426.58604984182085,510.6460430005032,C 423.2602355979897,484.4136253449487 412.8199782328782,459.46323428055484 399.11811897790733,436.84775662924517,C 371.7144004679231,391.6168013265453 332.346759346915,354.9483655098465 300.9881111991668,312.3638813387894,C 276.57909068929723,279.2168673911245 256.83733974734076,242.1384166271185 247.31355507979274,202.0906658600142,C 237.78977041224485,162.04291509290996 238.52871452257617,119.5339654650702 250,80M 250 , 80C 257.86184277628945,119.5678263367758 256.14976696909486,160.93133261021552 245.59384021002776,199.86709847032867,C 235.03791345096084,238.80286433044174 215.63561028551734,274.8846067578718 192.45069100560931,307.8979521024514,C 163.42001000913007,349.2351629745046 128.06596679297132,386.46444683680147 104.86492221458444,431.3337790390043,C 93.26439992536591,453.7684451401252 84.98086149949152,478.2180958292655 83.36141195955734,503.42253479622224,C 81.74196241962316,528.626973763179 87.09628350250101,554.5321291786232 100.36185289031185,576.024244692658,C 115.51677464739583,600.577380670998 141.21242805022584,618.6418683908782 169.6718530829458,623.394685096915,C 198.13127811566574,628.1475018029519 228.58272897078535,619.3346487295568 250,600,C 275.6657641741172,613.2483772167368 306.8350097479841,615.2993977065016 334.0705994888415,605.6830781929843,C 361.3061892296989,596.0667586794672 384.0666291353845,575.0709551534547 396.9950516382081,549.2425436439013,C 413.91503361441994,515.4397918294104 413.86088986325666,475.0366283434813 403.7185422724645,438.6217329618528,C 393.5761946816716,402.20683758022295 374.50336288338514,368.99221279675544 354.96886873941395,336.62996072977677,C 330.87103641505246,296.7077534690644 306.0996246867216,256.9931109141314 287.3623690619733,214.29178298450898,C 268.62511343722565,171.59045505488777 255.68761894805806,126.28324908648781 250,80M 250 , 80C 261.9615452329503,120.96405604848566 262.4098914705035,165.1155702846864 251.99761073296554,206.50055381912904,C 241.58532999542794,247.88553735357135 220.37168063257363,285.88167704793113 194.99936869344958,320.1946226977459,C 166.369091606731,358.91356734783335 132.14418096517957,393.8695236897065 109.29092795979464,436.255585879425,C 97.86430145708286,457.4486169742975 89.53006220493747,480.5819532095191 87.38350269718671,504.5632926737858,C 85.23694318943598,528.5446321380524 89.55158793010338,553.3351949467004 101.36404956201409,574.3156170209902,C 115.5886178244275,599.5802447733851 141.0171191864678,618.5531016401932 169.55154018041125,623.6937802198688,C 198.08596117435465,628.8344587995444 228.8517569229088,619.8341012519196 250,600,C 258.70599058088703,616.0730989383484 272.1279594984847,629.5529545684067 288.15814099920743,638.3377176574329,C 304.18832249993017,647.122480746459 322.76050106351295,651.176818343941 340.99916799814014,649.9562406429461,C 359.23783493276727,648.7356629419512 377.06328222328267,642.2600423901063 391.96855595934204,631.6783791782304,C 406.8738296954014,621.0967159663546 418.81486922100635,606.4814219250244 426.62785091674357,589.955802466181,C 438.1793860509747,565.5225859007414 440.5402484901899,537.2801483018499 435.6213265517351,510.70526838388156,C 430.7024046132803,484.13038846591326 418.8638068628963,459.2094054838275 404.0125340925737,436.62933168429083,C 374.30998855187283,391.46918408515455 333.4831814373617,354.72390247594655 301.2873672854445,311.3060525306949,C 276.87976599275436,278.3910417330278 257.3031326460914,241.4346837117288 247.78818040407276,201.57750593274432,C 238.2732281620543,161.72032815375985 238.8617748634721,119.43436163400497 250,80M 250 , 80C 226.65878743267064,163.83463933728714 181.91380489049044,239.73836950000305 135.71562901433975,313.4865050875724,C 115.17672835336629,346.2736357921646 95.03396089648082,379.7697652032715 82.80909339696395,416.47664459693016,C 70.58422589744627,453.18352399058904 67.13029440072164,493.8700724636327 79.87689305081584,530.3990555189382,C 91.39643539990197,563.4115617432169 116.55643183227872,591.8303591669023 148.79298844642466,605.3702942037994,C 181.02954506057054,618.9102292406965 219.42643234327744,616.9641499604381 250,600,C 273.90702598899406,617.182812775265 306.1441161404293,622.0526419259007 334.12245889929255,612.8870932256967,C 362.10080165815583,603.7215445254927 384.9377725523055,580.9944803206369 395.6932377405411,553.588004533099,C 403.72761136287505,533.1152623229922 405.33998906824894,510.39650677264086 401.8339130431246,488.6849484681158,C 398.3278370180002,466.9733901635907 389.8841448793711,446.2707318250544 378.99222252399835,427.16444070120525,C 357.20837781324127,388.9518584534926 326.3212963489641,356.86478693447646 300.0422848672127,321.5922638043889,C 274.376897132987,287.143365940521 252.97410076384645,248.802406643744 243.26732308345032,206.95486001736805,C 233.560545403055,165.10731339099226 235.64888707128694,120.49054518391475 250,80M 250 , 80C 261.79683377031193,126.89970455956211 259.6639905507536,177.03107480996442 245.0627267098944,223.1347695537504,C 230.46146286903678,269.23846429753394 203.49760182032702,310.39994931327766 173.9035371545157,348.64833374104256,C 147.80490401589194,382.37910254883207 119.42393923839165,415.10179238693144 101.71668475879308,453.90071704810924,C 92.8630575189883,473.3001793787018 86.8817634929409,494.18966191985885 85.96268502266817,515.4941485079692,C 85.04360655239543,536.7986350960795 89.35301041872246,558.4836316385799 99.58454160165631,577.193030978755,C 113.7834665040763,603.1572147798599 139.9226426639127,622.6126198593228 169.14529683991503,627.2800379627172,C 198.3679510159173,631.9474560661115 229.63242630008975,621.4688204245329 250,600,C 264.3751316713341,615.1930336777601 283.25695434965957,626.0644901993115 303.6096509224962,630.8853226083244,C 323.96234749533284,635.7061550173372 345.69407347915615,634.4561439405682 365.40399690616243,627.4567438660408,C 385.1139203331686,620.4573437915136 402.71295951147664,607.7642515763057 415.85770653742884,591.4950073244833,C 429.002453563381,575.2257630726608 437.6714066498125,555.4868418614269 441.4562195972771,534.9162834379314,C 445.668985105948,512.0197915310711 443.8908807152078,488.2259341467995 437.8342069791118,465.74675626756084,C 431.7775332430158,443.26757838832214 421.55937602851156,422.06869601242875 409.37452071785356,402.2312053462609,C 385.00481009653,362.5562240139232 353.2815346784881,327.97413650344646 325.9562733265893,290.27377799667863,C 281.4681891787859,228.89406418342674 250.66719269142592,155.80378455493667 250,80M 250 , 80C 228.23442593455758,168.1998998265209 181.8963276435843,247.82267467173924 135.60387602216153,325.9889811386871,C 116.80868486725561,357.7252711916288 98.80842171511594,390.39091205872893 88.68562132120061,425.85892904669777,C 78.5628209272847,461.32694603466683 77.14617908987438,500.2164686929975 90.78296092403997,534.4872944502112,C 102.71424082373792,564.4719946144854 126.38329690928867,589.9225592289905 156.1246563284331,602.4481020869921,C 185.8660157475775,614.9736449449937 220.9876012644882,614.1321761805476 250,600,C 273.97826761118444,615.7591381841078 305.086873050218,620.0857683623144 332.5053580547974,611.6279652200657,C 359.9238430593768,603.1701620778169 382.96100520962455,582.2684723267938 395.2255295212426,556.3283644367116,C 405.2454968045634,535.1356116009398 408.3124334196722,510.98457166940403 405.6436006258365,487.6948776259976,C 402.9747678320008,464.4051835825912 394.78813468407606,441.99319024669586 383.86266100144326,421.2527335996731,C 362.01171363616265,379.77182030560283 330.0286662431069,344.6409795714233 303.4614628287222,306.01050233894347,C 280.8492892927148,273.13090107512653 261.98665140609455,237.2442744490479 252.0952837494209,198.58500108326132,C 242.20391609274748,159.92572771747479 241.2814580868844,118.94053926436231 250,80M 250 , 80C 230.92450788383238,156.4298415068996 193.18892466713132,226.77426019780694 151.1455624694929,293.39070536986605,C 128.22020390384054,329.71524774969396 104.56744966029827,366.1057300516446 89.9642444424807,406.50116100409207,C 82.66264183357063,426.69887648031624 77.7599622582207,447.8679788208338 76.82135405667614,469.3244493078673,C 75.88274585513159,490.78091979490085 78.99253881377376,512.5150183643179 86.92676899235546,532.4727011604301,C 99.13785253646202,563.1883378995742 123.37323357448474,589.2496431001505 153.8112939702831,602.1370548245403,C 184.24935436608138,615.02446654893 220.198961917176,614.2989171197779 250,600,C 260.9249805541961,617.7969452652013 277.1147865221794,632.3144287605737 295.98681766468815,641.2549489601099,C 314.8588488071969,650.1954691596461 336.33143798065595,653.5216578129509 357.0383825714029,650.8181588582868,C 377.74532716214975,648.1146599036226 397.5927496562448,639.4128605685768 413.8018359419793,626.2465405563735,C 430.01092222771376,613.0802205441702 442.53692642746444,595.5412886244216 450.28299450499077,576.148380378868,C 460.30333674183726,551.0616427407108 462.28581245184824,523.131933757756 457.97405506048887,496.4643427141818,C 453.6622976691295,469.79675167060753 443.29037709256517,444.37530058147365 429.9922906262647,420.86120778153645,C 403.39611769364143,373.83302218164425 366.0182970921613,333.9536783416398 334.1926012265813,290.29440970196237,C 289.1177100632544,228.45957062989385 256.3235416517629,156.25815338331236 250,80M 250 , 80C 263.9143526643783,122.0816208805064 265.0663350655781,168.14491542498726 254.1687612818032,211.10669974112744,C 243.27118749802918,254.06848405726672 220.43144635252335,293.13146310507256 193.76127254147605,328.5316587950373,C 168.1075691104239,362.5826600395574 138.7579770870707,394.23096831273773 118.49024317469568,431.7383295574301,C 108.35637621850184,450.49201017977896 100.66209070708176,470.74360505888296 97.68429457888627,491.8511517327578,C 94.70649845069077,512.9586984066326 96.60489165312994,534.9156586168696 104.52895987877686,554.7046691814783,C 115.43317646092504,581.9360926117288 138.3340455271252,604.4271402227916 166.2687183641079,613.3773589239594,C 194.2033912010906,622.3275776251271 226.28933992074246,617.2701175419825 250,600,C 261.7966235427397,618.6244029145037 279.3839590335863,633.5196690160777 299.6893606401683,642.1056678820403,C 319.99476224675027,650.6916667480028 342.9114841480599,652.9258925726319 364.52031304595675,648.5569997389368,C 386.1291419438534,644.1881069052419 406.31427032536624,633.266624229796 422.05774967452413,617.8338160305885,C 437.801229023682,602.4010078313811 449.0615638966101,582.5793892890424 454.97006540492237,561.3398431343536,C 461.8925058453884,536.4554468061953 461.51197345438766,509.83085437908 455.7464078478213,484.65325291458305,C 449.9808422412549,459.4756514500861 439.00730032062927,435.70884010446235 425.5882227505938,413.63891216080947,C 398.7500676105072,369.49905627349693 362.8388896310027,331.67220199300493 332.1996271764182,290.08074799924367,C 286.9413174278108,228.6445789486506 254.62730233360364,156.16630187968536 250,80M 250 , 80C 253.3574862670574,118.60501284207524 248.89670714585412,157.81990906636608 237.4376066873035,194.83759061520323,C 225.97850622875293,231.85527216404026 207.47105896461838,266.36035207984327 186.1333769577808,298.707269354065,C 161.02464117036942,336.77092589911143 131.7458135679439,372.3960865038471 111.94128815561086,413.47006044859154,C 102.03902544943737,434.0070474209669 94.68645345555689,455.9538886205057 92.25312182469025,478.6232851228349,C 89.81979019382362,501.29268162516405 92.46885808238306,524.6758706605971 101.35711565135468,545.671620658947,C 112.97453522451123,573.1141688851912 135.69043820903798,595.9410637018216 163.6028963186708,606.3790986206413,C 191.5153544283036,616.8171335394611 223.95642766836124,614.4841372161136 250,600,C 263.22943742502105,617.269263586376 281.6261285763601,630.5239360088938 302.18959690799744,637.6224745607387,C 322.75306523963474,644.7210131125838 345.388499079874,645.632428110691 366.48860454816435,640.3379943708746,C 387.58871001645457,635.0435606310584 407.0540750109527,623.5923120087043 422.19455993149296,607.9714542931636,C 437.3350448520332,592.3505965776229 448.1169574532809,572.6694564602193 453.8222662374088,551.6767212626319,C 459.8659455491155,529.4389486528906 460.26928649177785,505.8455955024355 456.3249109397824,483.1412679023913,C 452.38053538778695,460.4369403023471 444.19240346921725,438.6089341336979 433.6974470277857,418.09307491313973,C 412.7075341449187,377.06135647202166 383.0792003332791,341.2143653353068 355.53864159564813,304.25904115217145,C 305.6752137085262,237.34975437966534 264.5516123715096,162.1672968671174 250,80M 250 , 80C 248.09492934990445,155.93805831153216 217.53395483282722,228.71362997090606 175.20577956473616,291.78932713535505,C 150.50509717770714,328.59726303459007 122.51577747845367,363.4706887344848 102.66118476140217,403.10328899723675,C 92.73388840287309,422.91958912861315 84.98314194430158,443.9650902459598 81.41742675999747,465.8402505679158,C 77.85171157569337,487.7154108898718 78.58504692139653,510.42987777548404 84.89149374205803,531.677599827154,C 94.70399500200531,564.7379435249476 118.93220447913596,593.671088220328 150.66717728942805,607.1678658773365,C 182.40215009972007,620.6646435343448 220.58722985080374,618.004456630047 250,600,C 261.9719632893206,619.0892805505382 280.1233848355415,634.230092816039 301.04283274672844,642.6029797750953,C 321.96228065791536,650.9758667341515 345.52076696982294,652.5333550571054 367.399772138855,647.1446938364063,C 389.27877730788686,641.7560326157076 409.3438094575285,629.489978278932 424.4490327692161,612.7699075361978,C 439.5542560809037,596.0498367934637 449.66431603130326,575.0250038457531 454.15863501600114,552.9449306166678,C 462.5660007571068,511.6405078866904 451.18637443481924,468.36586492484093 431.5169931296433,431.08511151462955,C 411.8476118244655,393.8043581044177 384.6916527401062,361.11273633301107 358.99505051727414,327.69980814700733,C 331.0763083975957,291.3974629031065 304.73443272866746,253.54497007688013 285.45564777425034,212.00408801554426,C 266.1768628198336,170.46320595420866 253.87743418115153,125.6320275236952 250,80M 250 , 80C 227.04095595320254,168.2738613504849 180.91447140896025,248.23853951773094 135.98235357995986,327.61421015217815,C 117.07210388169011,361.0204643905711 99.22179518196603,395.59307067651315 90.48999450514856,432.9739618220087,C 81.7581938283302,470.3548529675048 83.24955549843543,511.1889336037939 101.0846325731627,545.1813649912315,C 114.62530971287195,570.9889651873202 137.47434929914635,592.0006554259801 164.75955344820096,602.2427157571547,C 192.04475759725557,612.4847760883293 223.31347628535624,611.7137362660582 250,600,C 275.2261265800821,611.4374198510238 304.69705031595146,613.13967216687 331.10822597288075,604.7957021584301,C 357.51940162981003,596.4517321499902 380.51361104012966,578.2200084870012 395.43884960533,554.8874284998936,C 406.94058103624684,536.906806787902 413.76065525984416,516.0942078741654 416.13682902733785,494.8822682814416,C 418.51300279483155,473.6703286887179 416.5359123770525,452.09777988091594 411.64335788656706,431.3214593785672,C 401.85824890559536,389.7688183738667 381.0124855369435,351.7539104705059 359.55458172589465,314.8495923455115,C 315.98214623047824,239.91165641461797 273.02905171939096,163.56981604317758 250,80M 250 , 80C 246.62103882632493,127.1544562801881 234.4090816804059,173.5811260612424 214.89480416000336,216.64100412133547,C 195.38052663960116,259.700882181428 168.46416019574372,298.96044932212493 140.1663337712119,336.83119192562276,C 112.63014173149512,373.6826456511485 83.52327237357747,410.09383153824695 65.09318724663491,452.24360586678137,C 55.8781446831602,473.3184930310496 49.52049555398355,495.80078646186683 48.10965148223018,518.7589527091629,C 46.69880741047682,541.7171189564591 50.373597435490105,565.1367462833592 60.04447536713597,586.0063892717885,C 68.30114216443869,603.8241809502681 80.92448468996668,619.6695012207929 96.77026458792406,631.2693937342978,C 112.61604448588146,642.8692862478027 131.63912706925385,650.1428513111442 151.20687116366315,651.8010545420809,C 170.7746152580724,653.4592577730175 190.80081691591658,649.4778565112399 208.20025816745633,640.3726002801615,C 225.5996994189961,631.267344049083 240.3000140059371,617.0750261673111 250,600,C 261.1672221258423,617.9931391187604 277.70465848583825,632.603259180202 296.93100203505054,641.4806247287547,C 316.1573455842628,650.3579902773074 337.9863986525644,653.4643290454715 358.94273416361006,650.4160660477215,C 379.8990696746556,647.3678030499716 399.88473510200487,638.1997169291842 416.0698939747849,624.5431969618635,C 432.25505284756497,610.8866769945428 444.5952595182503,592.8392692988243 452.0317064960725,573.0110277807017,C 461.402584794127,548.0248968118539 462.96922362317747,520.4539173718574 458.4817084506885,494.1483607640598,C 453.9941932781995,467.84280415626216 443.66844925738474,442.78351508536275 430.5096238106608,419.56788643283613,C 404.1919729171936,373.1366291277689 367.41922582419704,333.63791354574846 335.8807985614602,290.58204275821436,C 290.4999925073232,228.62872766661445 257.12136925705653,156.46513525043233 250,80M 250 , 80C 264.37196857921845,125.79371875778854 264.4746706941806,175.80664828858372 251.17843224703938,221.92419594309632,C 237.8821937998989,268.04174359760833 211.37425093774894,309.4093719139373 180.17313888657918,345.8800281361628,C 150.4506947422349,380.6222847805702 116.39444105256794,411.73113051419347 89.53412889963823,448.7307482650124,C 76.10397282316968,467.23055714042056 64.58672763326064,487.2902168498164 57.2365883186182,508.93709821227327,C 49.886449003975784,530.5839795747302 46.825570032112026,553.8638115734243 49.951512728802406,576.509793621504,C 53.2065999352743,600.0913667964224 63.344067334263585,622.8441268319597 79.55969957150047,640.2722494294301,C 95.77533180873736,657.7003720269005 118.00978508287528,669.546401318686 141.60391517667142,672.7091866801671,C 165.19804527046864,675.8719720416477 189.901080888382,670.2525469392641 209.6892009996032,657.0193882615445,C 229.4773211108244,643.7862295838248 244.1336533535431,623.0710243194668 250,600,C 263.113150628136,617.535208519041 281.55591844333276,631.0254997181395 302.2334834406281,638.2280383667728,C 322.91104843792345,645.430577015406 345.72258637621684,646.3123421685109 366.92861929868553,640.8586805642672,C 388.1346522211541,635.4050189600234 407.6301953357517,623.6687239126705 422.6475922105716,607.7339804786967,C 437.6649890853915,591.7992370447229 448.17057920524184,571.7821525188517 453.46830844892975,550.536627765083,C 459.3943519497243,526.7713694635098 458.85936223138776,501.6245011477265 453.5377776758014,477.7166314908217,C 448.21619312021505,453.808761833917 438.2440426358939,431.1120685440837 425.97531258445565,409.9133950799554,C 401.43785248157064,367.51604815169554 368.3509446024396,330.8155618528592 339.20188948520837,291.4460995676245,C 293.1060846194783,229.1879219398853 258.33525618215606,157.01576080338634 250,80M 250 , 80C 249.50575257515217,156.11623131084957 219.72101733710886,229.86990637594783 175.71788343768006,291.9798826801831,C 143.30630784419571,337.728492238203 103.87637156595133,378.74810297330396 76.9765954861247,427.9400490193742,C 63.5267074461799,452.5360220424235 53.50453413175101,479.3346311947709 50.638187783504634,507.22092596208466,C 47.77184143525827,535.1072207293985 52.39818083805012,564.0596614917464 65.94679546210948,588.6013896095124,C 74.8976489820906,604.8148121330858 87.65583327748655,618.9631870263313 103.08969904429799,629.199819097287,C 118.52356481110944,639.4364511682428 136.59522145422338,645.7053105773757 155.06871479555141,647.0179005483807,C 173.54220813687942,648.3304905193855 192.35465986017132,644.6715773068735 208.95605854283852,636.4626546952752,C 225.55745722550571,628.253732083677 239.89539795464188,615.5206271190638 250,600,C 263.50777525701903,612.3046615807784 280.6338393926614,620.584466756591 298.6645609385036,623.543819650033,C 316.6952824843458,626.503172543475 335.55105222665014,624.1302402805958 352.3332666014193,616.9037632903251,C 369.1154809761884,609.6772863000544 383.75104632661186,597.6504232563123 394.3587830280065,582.7729029291373,C 404.9665197294011,567.8953826019625 411.53423529155845,550.2600071844423 413.8757948189309,532.1386996159641,C 418.2970780954003,497.92242915019517 407.58238123719036,463.16972456903613 390.5826931081252,433.147873961321,C 373.5830049790592,403.1260233536057 350.8150993179403,376.8591097353103 329.17532114688,349.9886629376706,C 298.50127867589794,311.90023061781596 270.09172338398844,270.9773453043848 254.74011669792668,224.54509648686337,C 239.38851001186885,178.11284766934443 237.2670266207255,127.21754914243317 250,80M 249.92719411687298 , 575.0026538698214C 250.50259803488316,583.3213408686928 250.5269374747159,591.678102382762 250,600,C 246.15577137481768,660.7117135733645 210.99863763191632,718.5975425950302 158.89704526022408,750M 249.23763308896574 , 575.3528549675999C 249.82685233521195,583.5536404055629 250.0812567469393,591.778475904023 250,600,C 249.48139120205113,652.4726239890921 234.99742189854737,704.7436773880661 208.43597451647665,750M 250.68431149873868 , 575.2708101943293C 249.87755692343734,583.4842883582991 249.64870249987703,591.754475968067 250,600,C 251.32897262221007,631.193150222756 261.1349946991002,661.98414011656 278.0894301044298,688.2010413281165,C 295.0438655097594,714.4179425396729 319.10222680892014,735.9919634725414 347.0048019892756,750M 250.65630764848606 , 576.7544933866766C 250.8433200663223,584.5073689002692 250.6241511855541,592.2700266707277 250,600,C 245.374937290438,657.2803708758271 217.51123481199545,712.3462246358472 174.09896357947875,750M 249.14594820501097 , 576.5201879770583C 249.17296333618327,584.3533350386788 249.45785282541507,592.185590287976 250,600,C 253.64126854473596,652.4845754325985 269.0661363421037,704.118375655025 294.81037924069375,750M 249.06579452260078 , 575.6432646274935C 249.40892224927723,583.7609181780444 249.72032724541825,591.8799126264595 250,600,C 251.72134244099084,649.9778787588091 252.24037462935416,699.997163126642 251.55649624416796,750M 250.238879533064 , 575.0289507897727C 250.4182665726466,583.3524251325321 250.33858866647046,591.6814807471834 250,600,C 247.89649638598058,651.6793296538647 235.68151902785843,702.9279560268016 214.24788851148816,750M 250.399788138014 , 576.916607573994C 249.99489596811765,584.6031684076914 249.86152248407046,592.3040283851253 250,600,C 250.9391369760869,652.1931048656436 264.60917766098146,704.1118544508008 289.49452017080915,750M 249.13648660921442 , 576.504325910433C 249.53619180895606,584.3315723855038 249.82406876999838,592.1645293804061 250,600,C 251.12662689497088,650.1767192482419 247.65004982069698,700.455858799544 239.62817252254305,750M 250.79029116617733 , 575.3872685150394C 250.4267122390285,583.5878886374844 250.16325567422646,591.7929476903245 250,600,C 249.00318072640087,650.1112623526514 251.74875229546848,700.2965564509403 258.2063031164778,750M 250.8998190268063 , 576.4362633596778C 250.92057838682246,584.2987216673122 250.62030567669413,592.1620217876178 250,600,C 245.72921991399213,653.9641704431973 225.9169566588378,706.6094820496644 193.5497787440566,750M 249.40247252780776 , 575.1981515604707C 249.1093989827188,583.4675252203408 249.30904521787525,591.754333603738 250,600,C 254.92423197794722,658.7644447920288 286.12070464924705,714.8339497496363 333.45839515139284,750M 250.33605017937785 , 576.941844083137C 250.51279180468114,584.6284885047305 250.4006697034984,592.3217707865141 250,600,C 247.2315541515317,653.0530798911462 230.396203375227,705.3085663703793 201.67392389602395,750M 250.2506814404782 , 575.031930366451C 249.74651447092612,583.3433075583878 249.66281164153284,591.6801755324557 250,600,C 252.21420163541393,654.633466665749 273.19216335459396,708.3330352507131 308.5981291990877,750M 249.0887888436487 , 575.5880604066846C 249.4923578651878,583.7212382730465 249.79612540472712,591.8593682486905 250,600,C 251.25459911691942,650.095645279829 248.71935953969188,700.2857694989276 242.42309234135303,750M 249.5720917481245 , 575.096177822812C 250.20413381856272,583.379413390519 250.34710071465608,591.6999403771531 250,600,C 247.61975722247686,656.9176499387751 221.06264595702004,712.4300009142046 178.23999308583245,750M 250.25680629865087 , 576.9664628937384C 249.84885680321707,584.6362010147702 249.76315406859533,592.3230729037713 250,600,C 251.6494949958553,653.4653593315878 269.3618949263244,706.3324625820277 300.25544859124204,750M 249.25822304100575 , 575.3293533396003C 249.33435319517133,583.556859935702 249.5816835357898,591.7827819838437 250,600,C 252.5908516400748,650.8935090905541 261.77559916952936,701.4476010798253 277.25223765685615,750M 250.06979854452683 , 575.0024388925074C 249.94739913827908,583.3342893107919 249.92413076127102,591.6675959731941 250,600,C 250.4571284359701,650.2045214167842 254.51924910467787,700.3758650253837 262.1447435225101,750M 250.83511672488598 , 576.5500727731998C 250.13852299128285,584.3443419275994 249.85961871222707,592.1759238516638 250,600,C 250.9969233108176,655.5629886406654 274.073676184012,710.428533074735 313.09083354014217,750M 250.6392815477006 , 576.7689727581453C 250.40643104860013,584.5120880179056 250.19333627459932,592.2557973705624 250,600,C 248.7520228532358,649.9884872690322 248.32738503452794,699.9975284630179 248.726316856204,750M 250.5615346232289 , 575.172546758472C 250.52341621843644,583.4508407001922 250.3361975386866,591.7284478594834 250,600,C 247.94192833402502,650.6352520025447 240.2791779689732,701.0407083950305 227.19666407129046,750M 249.1686995523311 , 576.5558233223835C 249.94141147203578,584.3424660943305 250.21925595879827,592.1781833188638 250,600,C 248.32858872581258,659.6265326476588 215.7858706156496,717.5538775215989 165.73223790686012,750M 249.44229421416267 , 576.8300387077984C 249.33519398711934,584.5567062749161 249.52127419609798,592.2874333872529 250,600,C 253.3050388204594,653.2462045136076 270.8575317250803,705.5419345448929 300.3458682786922,750M 250.98286420727428 , 576.1843310881515C 250.128063258065,584.0894165847346 249.7994766100749,592.0513616423218 250,600,C 250.76352599580076,630.2657561273659 259.34554700017634,660.3015389766356 274.6873188014834,686.4019030335614,C 290.02909060279046,712.5022670904873 312.09744939601876,734.6107920539797 338.1698724652618,750M 250.3039465502818 , 576.9526890859938C 250.16631733448554,584.6345899256104 250.06500030852644,592.3171413347222 250,600,C 249.57682137865078,650.0185554761067 250.6934168604363,700.0501261452433 253.3476726800253,750M 250.9938598135052 , 575.8893533954457C 250.83338333467896,583.932065047601 250.50199702351932,591.9713660932667 250,600,C 246.80821997241773,651.0473810633966 236.6789614525366,701.656454735624 219.97793739868507,750M 249.96357201845467 , 576.9993362808187C 250.0671131731624,584.6657162300163 250.07925698413885,592.3333305388428 250,600,C 249.48057702439777,650.2447110212523 245.02767674826683,700.4482596059853 236.69546157096218,750M 250.95739566999225 , 575.7112206186721C 250.35210391665194,583.7928207204451 250.03270597411776,591.8958301701596 250,600,C 249.79139964635027,651.688804206104 261.4342417897953,703.3901174406088 283.7791481929169,750M 249.08659392933916 , 575.5929504328956C 249.2359400058436,583.7334520692821 249.5404824554925,591.8711061780297 250,600,C 252.87283233024894,650.8205818473073 261.8305757358821,701.2944552412835 276.6209311965612,750M 250.01395846410975 , 575.0000974241059C 250.16222544710618,583.3325482668848 250.15757158119587,591.6677199193514 250,600,C 249.04458308829453,650.5218088293663 242.44479210045836,700.9348162913875 230.36283296684448,750M 249.77080460827966 , 575.0266195643973C 250.3897607290994,583.3343039959091 250.46637569872047,591.6823548404174 250,600,C 246.64285321084284,659.8735221784755 213.3459274656343,717.3236613714315 163.06306769760343,750M 250.9210032792525 , 576.3895548223372C 250.08104282215703,584.2268395911709 249.77310120453123,592.1210988676154 250,600,C 250.89188035597215,630.9699182496877 260.2233423747612,661.6557076436119 276.72378806430623,687.87910519252,C 293.22423375385125,714.102502741428 316.8499217590571,735.7939923264483 344.3839122606298,750M 249.0009784499479 , 576.0442260390665C 249.21627611372082,584.0338136796765 249.54933151804465,592.0202279687709 250,600,C 252.85540204523454,650.5592431927262 260.4455323854278,700.8500595523315 272.6387168362506,750M 250.5103727394298 , 576.8599532934102C 250.80084318803245,584.5742944200323 250.63031478570028,592.3059675481362 250,600,C 245.01835617201536,660.8091863711519 209.47035104336686,718.3395025907788 157.3149407185398,750M 249.9716561489173 , 576.9995982323443C 250.45784946613705,584.6559264165542 250.46732177918295,592.3424967802333 250,600,C 246.2527521806532,661.4021505526243 209.6548893966788,719.8306438081729 156.0444808394088,750M 250.97589156124863 , 576.2182559522298C 250.2380773483678,584.12139712656 249.9121919606722,592.062979149432 250,600,C 250.60641909918337,654.8145827107434 271.7303138448162,709.1635776032424 308.30069568190356,750M 249.45637938993744 , 575.1606689375966C 249.22274621535368,583.4425973004567 249.40425616918967,591.7362229485626 250,600,C 253.9901535579048,655.348855830658 277.19964799372576,709.128287689789 314.735235107956,750M 250.60467069879158 , 575.2035244222056C 250.79209964289294,583.4723998991418 250.59024532440003,591.7500883811288 250,600,C 246.0900661076619,654.6494952420113 224.6293824431142,707.9077063973781 189.5566903234645,750M 249.52223482948332 , 576.8784875877559C 250.0397575093351,584.5726973401534 250.19924216412957,592.290979569486 250,600,C 248.5984471307383,654.2284799544618 228.85708257270002,707.8206519984576 194.74557438584924,750" stroke="hsl(210,80%, 90%)" fill="none" stroke-width="1"/></svg>