<svg viewBox="0 0 500 800" width="500" height="800" version="1.1" xmlns="http://www.w3.org/2000/svg">
<rect width="500" height="800" fill="hsl(210,80%, 20%)" /><path d="M 250 , 80C 232.95091900195797,170.51644761113567 186.68072721782985,252.40156833242247 136.6168955648489,329.7159344698956,C 111.7669986421583,368.0920228699326 86.81250228053722,407.43153505868554 74.9822684721455,451.59359010591567,C 69.06715156794655,473.6746176295344 66.65108350251032,496.8528476596669 69.60150095926213,519.5212269868275,C 72.55191841601393,542.1896063139882 81.01340300933535,564.2795437319724 94.99816821060338,582.3623180421979,C 112.83196472690278,605.4220200005423 139.84870540034777,621.4152273878791 168.79317639184617,624.8810247874325,C 197.73764738334455,628.346822186986 227.99932223363322,619.1249661545567 250,600,C 261.2805313241504,620.3016877386086 279.5396233606299,636.6349364224646 300.9588254782216,645.6141731738186,C 322.37802759581336,654.5934099251725 346.7937447138491,656.1567112630557 369.23104259948235,650.15866361549,C 391.6683404851154,644.1606159679247 411.96047888619665,630.6921613202103 426.5956037856066,612.6582479576102,C 441.2307286850166,594.6243345950102 450.17705686298626,572.2126507300644 452.97163414775014,549.1562145399118,C 455.96523936693313,524.4577143084388 452.02621851130044,499.18827990202215 443.4805568626127,475.82272292431367,C 434.9348952139249,452.45716594660524 421.92887389328575,430.9269542993784 407.10218691014825,410.9482922071247,C 377.4488129438573,370.9909680226167 340.92498895623277,336.52306359651413 311.2407984412818,296.58862761648976,C 288.24332472612946,265.64989808239784 269.30912832051433,231.38606205478763 258.3388415191777,194.43012085503963,C 247.36855471784116,157.47417965529166 244.3645642647473,118.13568730908943 250,80M 250 , 80C 251.0432211834986,128.19177265313954 241.2524865773523,176.48187446426613 222.36104775031586,220.82878868536983,C 203.46960892328002,265.1757029064728 175.44965105200265,305.0164129975824 145.31852047787856,342.64154066799153,C 119.19694690602039,375.2598832879385 91.38335315909869,406.90440186725175 70.84373723972135,443.2969431226616,C 50.30412132034198,479.689484378071 37.78975450555308,522.2993399731365 45.19631356818366,563.4264084803139,C 49.31432290870865,586.292850350119 59.58896905882307,608.1550583637644 75.32572885412253,625.248523660739,C 91.062488649422,642.3419889577136 112.21696183627192,654.4746056373016 135.0213050812673,658.9236610289844,C 157.8256483262631,663.3727164206668 182.10080779097368,660.0555580331416 202.79146733526287,649.4853748589408,C 223.48212687955206,638.91519168474 240.42331429110527,621.1688274485597 250,600,C 260.0328038119252,622.0594694187703 278.2806957784284,640.2606451599786 300.35373141459183,650.263566791727,C 322.4267670507552,660.2664884234755 348.0994025020764,661.9809114522901 371.37035191831814,655.2177571118245,C 394.6413013345598,648.4546027713602 415.28687108490305,633.3473603840073 429.28534627384363,613.5655496541768,C 443.2838214627842,593.7837389243464 450.6169318638392,569.5829550250816 451.1829378359424,545.3557599623888,C 451.73906663340574,521.5513453091546 445.93868067304976,497.83708916751647 436.1318303589748,476.1395058195995,C 426.32498004489986,454.4419224716826 412.6274129602899,434.6861259090768 397.4295052767065,416.35628580438004,C 367.03368990952805,379.6966055949887 330.8884035700425,348.03058779329155 301.53303522905344,310.5325865871566,C 276.24640375207673,278.23191413062284 256.07875615988684,241.42715348068768 246.48284599209228,201.54400314563614,C 236.88693582429784,161.66085281058454 237.93381176458567,119.20655906942427 250,80M 250 , 80C 249.21140940988556,128.06251889077328 238.64005176595836,175.82322740541775 220.13874526239448,220.18908426523666,C 201.63743875883128,264.55494112505284 175.02068091880307,304.963603902725 148.60449914267116,345.12344625319804,C 129.75190107305315,373.7845666523918 111.06273974708327,402.9542817241397 99.22260826615086,435.1519767196806,C 87.38247678521788,467.3496717152216 83.08115028302174,503.2497984361168 93.0854651737283,536.0643372882666,C 102.62030936177533,567.3389941214393 125.71354814888606,594.6458292584836 155.8651457374994,607.2909301508203,C 186.0167433261127,619.936031043157 222.21057906214165,617.2268829932048 250,600,C 257.3306795530691,620.8868619846204 271.96273538743077,639.1268139279465 290.75105464190693,650.8314679538563,C 309.5393738963831,662.5361219797661 332.3333686086092,667.6187030082467 354.3332178329184,665.1678867397299,C 376.3330670572273,662.7170704712134 397.362212579224,652.7947848720619 413.55348385431176,637.7003289106545,C 429.74475512939955,622.6058729492472 441.03806311451723,602.5162624861002 446.3883194647959,581.0366297317757,C 451.76577649720826,559.4477946094422 451.24097222751845,536.5928085420912 446.2848286835949,514.9033759251054,C 441.32868513967134,493.2139433081195 432.0617199025413,472.6686987226479 420.5813128131183,453.61102050267914,C 397.62049863426677,415.49566406273954 366.37341071756737,383.20169646208717 338.0196195976944,348.9082289583481,C 306.9212144117807,311.29519360964895 279.1020402350724,270.2206490565122 262.76376233935224,224.23247765720583,C 246.42548444363322,178.24430625789995 241.65271593544048,128.085071300719 250,80M 250 , 80C 232.68603411904968,159.56171997086898 192.58361074480447,232.4496128526459 144.46237052900915,298.1320834162857,C 113.71527245766198,340.09994116334576 80.11836762122657,380.6987999051694 58.356091800632406,427.95436544823417,C 47.474953890327875,451.58214821976907 39.79317998668558,476.88970595314345 37.944253851387025,502.83682049538334,C 36.0953277160885,528.7839350376232 40.27036943058569,555.3548211006446 51.598538963725154,578.7715641694482,C 60.36877766603,596.9007443289651 73.39270226637956,613.0179014710676 89.57682082996189,625.0036666311037,C 105.76093939354422,636.9894317911397 125.06588951921103,644.7749954183945 145.06805301104126,647.1197162541698,C 165.07021650287143,649.4644370899451 185.69702243634055,646.3461826466784 204.07484739465102,638.1096900707499,C 222.45267235296149,629.8731974948215 238.5191539103688,616.5461304605585 250,600,C 261.70857543707024,618.0883637738327 278.8576405419449,632.6019095897527 298.6265412310725,641.1733860275361,C 318.39544192020014,649.7448624653196 340.6925446156492,652.3362855560445 361.9215543889365,648.6472766341604,C 383.15056416222365,644.9582677122764 403.20961190276716,635.0288428039756 419.2417236084505,620.6326267373645,C 435.27383531413386,606.2364106707535 447.23647364922465,587.4778239039118 454.15465662208794,567.0714918686331,C 462.49530841744087,542.469351307414 463.5164040998694,515.6823685426449 458.91674809734656,490.11530071655733,C 454.31709209482375,464.54823289046976 444.2807161342641,440.180183883009 431.5579871333283,417.53147620830816,C 406.11252913144267,372.2340608588978 370.7248152937262,333.4619415541536 339.8617454722087,291.66722787580835,C 293.77428564385133,229.2556726148303 258.98937499148366,157.06132182091778 250,80M 250 , 80C 227.86736133707456,162.34966097349226 184.73931487080637,237.31284757558484 137.4016341303942,308.23861397082055,C 109.13242734307084,350.5941988963116 79.8814742531072,393.4836962090866 65.47838087737196,442.32726823217666,C 58.276834189497926,466.74905424372946 55.07645335268185,492.56059503408517 58.233642262059114,517.8255522848349,C 61.390831171436396,543.0905095355846 71.10697478232537,567.7153215829314 87.30391481875138,587.3608055461258,C 106.72439603999155,610.9161654802396 135.59747948718123,626.7032938119755 166.02066221007496,629.241014344188,C 196.44384493296866,631.7787348764004 227.76865517918858,620.9231302617073 250,600,C 259.47503482560325,617.5261348497548 274.1919474891467,632.1728034024277 291.75703164722677,641.5754363442024,C 309.32211580530685,650.9780692859772 329.65691643394337,655.0960825956784 349.5052667613161,653.3684608199221,C 369.3536170886887,651.6408390441659 388.6223549581962,644.0937670028349 404.53212389731226,632.1012301560239,C 420.44189283642834,620.108693309213 432.94488834359277,603.7580946678085 440.85096259928133,585.4705120615229,C 451.9211341753827,559.8640390362988 453.87098504160986,530.8072540480184 448.7410700619476,503.38601899528436,C 443.61115508228534,475.9647839425503 431.72457350434087,450.1527217498462 416.8636517540187,426.54354632488366,C 387.14180825332517,379.32519547491506 346.45629570237406,340.009815720881 314.05523647287356,294.5881028637369,C 291.8897583810974,263.5152303969623 273.4195814607926,229.55906487114734 262.0683911019326,193.11757341140637,C 250.71720074307274,156.6760819516654 246.46684603737063,118.00458716325969 250,80M 250 , 80C 250.69379078703057,118.15343498601806 244.48905968926303,156.38243548868687 232.15626339876977,192.49431833278226,C 219.82346710827656,228.60620117687762 201.31095341690786,262.35776723121415 180.07526726949285,294.0628390768504,C 150.5143101706399,338.1976158925735 115.06789024749541,378.95728535397296 93.23007980940864,427.3808203802812,C 82.3111745903401,451.5925878934599 75.12344247617341,477.79587020856 75.08208338343117,504.3558112235673,C 75.04072429068891,530.9157522385746 82.47125985556552,557.7461252703232 97.9317899685949,579.3425181617143,C 114.69839742004227,602.7633348691347 140.99180563176083,619.3842430369443 169.51029840447177,623.4276760642547,C 198.02879117718268,627.471109091565 228.1397180650656,618.7558485384877 250,600,C 263.041036035369,616.7680606701648 281.6774690433358,629.1008417893531 302.20312562314353,634.5720300955546,C 322.72878220295127,640.0432184017561 345.0000855944479,638.6198260243785 364.7287615131932,630.7448132620245,C 384.45743743193844,622.869800499671 401.5126300761251,608.6389139709181 413.20495956021483,590.9040356023023,C 424.8972890443045,573.1691572336865 431.2193830870017,552.0934545282433 432.1848826071078,530.873080116118,C 433.7759202183046,495.90422398486504 421.0079289331475,461.5520356269939 402.66037589016145,431.7406351710723,C 384.3128228471747,401.9292347151507 360.7583013646114,375.7414501172265 338.4132217826468,348.79614035310976,C 307.16338140824774,311.11282730520963 278.2812776523763,270.56784453485056 261.5497350458581,224.56088758595286,C 244.81819243934265,178.55393063705662 240.36482362640214,127.99737474009277 250,80M 250 , 80C 249.1217913570287,127.72411409969465 238.1197398357877,175.13907364485877 218.71440059297888,218.748649725036,C 199.3090613501706,262.35822580521244 171.44359279391492,301.6393005469504 141.8726048927492,339.10820754422326,C 117.10065057736847,370.4963388939742 91.0630714320069,401.2383231297233 71.73920881248407,436.244791727603,C 52.415346192960044,471.25126032548224 40.428872032358356,511.7231973812416 46.29643807418266,551.2761514931328,C 49.684348073888536,574.1138746305263 59.046316073120174,596.1692681613521 73.90869737111932,613.8370114926106,C 88.77107866911845,631.5047548238691 109.10152729338026,644.6029840661878 131.4653279738375,650.3388319887816,C 153.82912865429518,656.0746799113751 178.06439607629602,654.3608503629446 199.32668764672937,645.3633790826215,C 220.58897921716272,636.3659078022985 238.72087765002453,620.1449976738803 250,600,C 260.26538019499526,616.3769677834485 275.1312632526827,629.8338734513939 292.4410279470118,638.4335915022876,C 309.75079264134087,647.0333095531813 329.44287174614124,650.7456919855168 348.7033282007007,649.127692761188,C 367.9637846552601,647.5096935368592 386.7192554456093,640.581125200738 402.54786672777556,629.4888680271062,C 418.37647800994176,618.3966108534743 431.2371479285043,603.2083548413468 440.00014903507696,585.9806760675215,C 450.9258156945662,564.5012909447239 455.44092247158153,540.0251801165456 454.4247142545238,515.9481890655999,C 453.40850603746605,491.87119801465417 447.0224434344983,468.21562850443877 437.55115830348313,446.05645579481927,C 418.60858804144675,401.7381103755724 388.18167445845006,363.500515371381 359.6346897998846,324.6674576018015,C 332.8488410689866,288.23010971321514 307.4101321832707,250.54174347720553 288.1719099084028,209.6143343594615,C 268.93368763353516,168.6869252417177 255.790987960588,124.85115909125113 250,80M 250 , 80C 232.36987714862914,159.5432979750172 192.2420771101915,232.41169069841123 144.29942603103325,298.2862661581354,C 113.3428761241198,340.8214521963183 79.53337096448699,382.0694554621507 58.16996272645421,430.14392708584313,C 47.488258607429216,454.181162897693 40.17657420190492,479.93354007080274 38.94783768548825,506.20857984116464,C 37.71910116907158,532.4836196115265 42.77940238315429,559.2545315779009 55.13153152516743,582.4776324479377,C 64.32123247055878,599.7550871738838 77.49820403857507,614.9527092932589 93.55881968543237,626.1338393934217,C 109.61943533228965,637.3149694935845 128.52626990202933,644.4201853231458 147.9995749891243,646.3570472846094,C 167.47288007621927,648.2939092460729 187.44814314440578,645.044518129242 205.2693800322664,636.959682876771,C 223.09061692012705,628.8748476243001 238.7031088057284,615.9794021983812 250,600,C 274.6918926476216,617.8232230150087 308.3437751971938,622.3744994493115 336.96220733378766,611.9657443264557,C 351.27142340208457,606.7613667650278 364.2764208223503,598.066986785921 374.6770990575236,586.9465055670396,C 385.0777772926969,575.8260243481582 392.8592623817878,562.3194789368167 397.5742136387888,547.8416184272246,C 404.1221828197077,527.7352420820426 404.7076655834812,505.9185184651554 400.6731332581648,485.16123494721074,C 396.6386009328484,464.40395142926616 388.13345073038863,444.69836198892995 377.4075913313106,426.47480003525123,C 355.95587253314574,390.02767612788546 326.21309548566103,359.2910332725118 300.54287915039924,325.6813758238666,C 273.943455755757,290.85512048773523 251.61230846292835,251.95532685646006 241.69130956993104,209.27077266375466,C 231.77031067693483,166.5862184710495 234.3984556636205,120.95105859419021 250,80M 250 , 80C 264.1443229197746,121.87915355906631 265.740225491347,167.80266162127722 255.18808225157022,210.72791813454631,C 244.63593901179365,253.65317464781523 222.0562598519923,292.9265286299186 194.12619282825582,327.18782938940944,C 163.41855265708767,364.8563281661753 126.29715964116129,396.93226699420933 95.82480491472049,434.79135523472445,C 80.5886275514938,453.720899354979 67.10188391697552,474.2605696529097 57.92306911183919,496.75986075323937,C 48.74425430670287,519.259151853569 44.01188259313274,543.7902090769526 46.08662239517513,568.0010371503206,C 48.18910047673071,592.5355524231713 57.47383060767449,616.5879049468443 73.37405895202059,635.3907130444351,C 89.27428729636668,654.1935211420258 111.74180329089828,667.4634636272397 136.00037748984425,671.6924625148491,C 160.25895168879165,675.921461402458 186.03993253562294,670.9892093681218 206.90418113057714,657.9107544010707,C 227.76842972553138,644.8322994340195 243.4743782485974,623.7440332402659 250,600,C 275.49946550058155,616.2042796258914 308.66737465874894,619.5846978051574 336.98429385689417,609.051250784588,C 365.30121305503934,598.5178037640185 387.9280404370971,574.5655761155546 398.3572099619891,546.2100856061226,C 406.09665599008065,525.1675866924727 407.44304454444756,502.037781180724 403.77471524129373,479.9192562417431,C 400.1063859381399,457.8007313027622 391.5948212216809,436.6891071248948 380.71051091420867,417.0876384431008,C 358.9418902992523,377.8847010795003 328.34092318367937,344.4094282776836 302.6597495666787,307.65047748925986,C 279.61508935842744,274.66532100207877 260.40815483810604,238.52880768195257 250.59158637681904,199.506866466241,C 240.77501791553235,160.48492525052953 240.35998308599181,119.06593127643583 250,80M 250 , 80C 262.7850763195269,120.88099726689289 263.5799315789276,165.30934206389887 253.0519359397251,206.82892084129935,C 242.52394030052318,248.3484996186993 220.7582281016064,286.2612690652297 194.99613466965718,320.4815650317361,C 170.081259807902,353.5764838895476 141.36203738114492,383.97296114618445 120.00542033169515,419.46830664084325,C 109.32711180696643,437.21597938817297 100.6116111932323,456.29293328786235 95.88445079548481,476.4587488049589,C 91.15729039773731,496.62456432205545 90.53637507762987,517.8971954497747 95.42297775301161,538.0249691763585,C 99.2999097326671,553.9939387905525 106.64311607876604,569.1573851867518 117.09181742691855,581.8405721778453,C 127.54051877507105,594.5237591689388 141.08043095229465,604.6733332292664 156.26737569427598,610.9499008834812,C 171.4543204362573,617.2264685376958 188.24458110002683,619.6016339564131 204.56785950348586,617.7071223367349,C 220.8911379069449,615.8126107170566 236.70192667832592,609.654006320969 250,600,C 259.63784541834445,614.4890999111478 273.1704419997375,626.359403379846 288.78810370368956,634.0347355188503,C 304.4057654076417,641.7100676578547 322.0620220271895,645.1675456980961 339.42570522833034,644.0166389974697,C 356.7893884294711,642.8657322968434 373.8046357551744,637.1193216035193 388.41155686083533,627.6609953056948,C 403.0184779664963,618.2026690078702 415.18234549387665,605.0813819809907 423.82398551749054,589.9769409703013,C 437.67168990253606,565.7729897011167 442.2137954542501,536.8314224275243 438.9370193524867,509.13931322371707,C 435.66024325072334,481.44720401990986 424.9549961231891,455.02910628285923 410.8565212556817,430.9703619227116,C 382.65957152061617,382.85287320233147 342.0479011234194,343.2960792240393 309.9295922852832,297.702494889225,C 287.71189151714725,266.1633307693845 269.3382003973498,231.6302249805879 258.61252805486237,194.57209424518433,C 247.886855712375,157.51396350978075 244.79516087709132,118.22636198365339 250,80M 250 , 80C 230.16272432094328,162.72185206388139 187.20467194312215,237.9933703233137 137.83535466612688,307.2688553584179,C 107.88579122830116,349.2943612430574 76.04903303893275,390.9553681179023 57.604841489022,439.1521656572245,C 48.38274571405929,463.2505644268903 42.77767374532232,488.9431327205057 43.33105974935922,514.7399084429667,C 43.88444575339612,540.5366841654277 50.79752154050574,566.3861505710161 64.64706653048657,588.1570021233765,C 74.41571006032514,603.5128631505656 87.57093190748144,616.7463958567737 103.05745458125803,626.3065464713825,C 118.54397725503462,635.8666970859913 136.33035552185694,641.7115795326074 154.48287693048306,643.0210950188736,C 172.63539833910914,644.3306105051398 191.1058643855462,641.0936243175396 207.704367862911,633.6291386278683,C 224.3028713402758,626.1646529381969 238.98933519656526,614.4911740340734 250,600,C 261.4572819835958,619.8317733157513 279.5343487987434,635.7580717848352 300.6432081314178,644.6453998969473,C 321.7520674640922,653.5327280090594 345.74811244835325,655.325428984398 367.9840110725405,649.8360432561184,C 390.21990969672754,644.3466575278392 410.54527219748854,631.6520373032408 425.58570281416183,614.379110794858,C 440.6261334308351,597.1061842864751 450.34513638345885,575.4213764193335 454.13133338754216,552.8330330638497,C 458.31532468820694,527.8714602788482 455.35719238552315,501.99391257401845 447.5162422414985,477.92930370655733,C 439.6752920974739,453.8646948390962 427.11085890912824,431.5511047170553 412.5476989762838,410.85085660561083,C 383.4213791105779,369.4503603827193 346.80134208088606,333.8238204024301 316.77108107605113,293.07425573723935,C 294.18593459755357,262.42733972306814 275.2369340809582,228.84444795685584 263.41209035721556,192.657497635726,C 251.58724663347297,156.47054731459613 246.8730268627144,117.94132762086153 250,80M 250 , 80C 263.16617527642103,121.36359910199147 264.0888125341151,166.40960759657645 253.46000818697658,208.49670799836179,C 242.83120383983874,250.5838084001465 220.73907547111565,288.9781925124085 194.76379274793388,323.75721189953924,C 169.66167688640186,357.3671241961652 140.82670686618826,388.4590293354037 120.20436442090468,424.9893101635348,C 109.89319319825796,443.25445057760163 101.77970965139619,462.9226701965608 98.0064321887164,483.55511996671527,C 94.23315472603664,504.18756973686976 94.93743450069617,525.7905527117773 101.39723457035898,545.7456670784829,C 110.84941353034625,574.9446066937842 133.397274511711,599.9957613292316 162.12926499899663,610.7843888780983,C 190.86125548628223,621.573016426965 224.78051150298418,617.4899731760378 250,600,C 258.3827524871558,624.0340936274866 276.5436607802242,644.4875115815641 299.40047831877905,655.689033253414,C 322.25729585733393,666.8905549252638 349.48822503723505,668.7041774552448 373.7191116709418,660.908516565996,C 397.9499983046495,653.1128556767503 418.87350130830305,635.9134321309164 431.90668892062683,614.0492098392893,C 444.9398765329506,592.1849875476623 450.100046790665,566.0108434434186 447.92536750558907,540.649870162356,C 444.4727841446644,500.3860597845129 423.2474954872259,463.5867999482278 397.25589293225954,432.64279641552844,C 371.26429037729133,401.69879288282993 340.6130964279475,375.001777120418 313.48760319267427,345.0467712824911,C 281.19191242286956,309.38225461698477 253.96390174295036,268.02268255795764 241.53026088682213,221.54285934030923,C 229.0966200306953,175.0630361226609 231.77483982663867,124.52878763157958 250,80M 250 , 80C 259.566458330243,128.21354560204074 254.97401150735607,178.96576042593566 238.0610721906234,225.11785234139336,C 221.1481328738925,271.2699442568485 192.0450140428896,311.9043160864767 160.58827768665026,349.6738387511608,C 138.21120554764843,376.54157619702715 114.64522157870354,402.6619838947948 96.23621644744489,432.38936526368417,C 77.82721131618565,462.11674663257327 64.93586268294797,496.35491750479724 66.2814119218032,531.2948398032214,C 67.10951747289444,552.7982844743542 73.40897871885255,574.1946340669184 85.21562388356494,592.1859381186761,C 97.02226904827735,610.1772421704337 114.3294307087387,624.5915666789742 134.35113117999376,632.4792407193719,C 154.37283165124933,640.3669147597693 176.97062065591047,641.6270589525072 197.69636800716833,635.8367836343499,C 218.4221153584262,630.0465083161926 237.12416185840937,617.2422934576522 250,600,C 271.0851444018021,619.9629710666036 301.9275159296459,629.0271719048043 330.49235340298384,623.8162613919776,C 359.0571908763218,618.6053508791509 384.4472741323388,599.4394454301319 398.47600431867846,574.0170486585885,C 410.23847022593776,552.701500399112 414.24997348409227,527.5432652128897 411.6588455952405,503.33594693751843,C 409.0677177063887,479.12862866214715 400.1660377377872,455.90679116441066 388.19686694348553,434.7066224783283,C 364.25852535486104,392.30628510611496 329.0411592880298,357.55167919667326 300.040640227307,318.4389868641345,C 274.8324118983719,284.4409168015491 254.11867870504528,246.48510473419964 244.55571055790605,205.25558638046442,C 234.99274241076733,164.02606802672926 236.65581261994782,120.16536078053116 250,80M 250 , 80C 262.1018647227796,127.20835318882726 259.65251011742316,177.8336959658753 244.3080198121624,224.08983456218783,C 228.9635295069038,270.34597315849635 200.86535269067022,311.2203829226164 170.6552385187303,349.4621499096089,C 149.1901497685924,376.6339413720955 126.65733467614709,403.2897249389132 110.1303027538464,433.7185517676197,C 93.60327083154473,464.14737859632606 83.65438916092458,499.3353486195268 89.11712267872542,533.5291321019915,C 91.90913010883156,551.0056019380854 98.68738518839754,567.8981986380377 109.21609647919698,582.1238283948063,C 119.74480776999641,596.3494581515749 134.01088361403902,607.8281270080689 150.27739844329236,614.8011320081639,C 166.5439132725457,621.7741370082588 184.74753363267283,624.1964090013554 202.2563180887598,621.6147873613868,C 219.76510254484677,619.0331657214182 236.51081936961344,611.4570637312738 250,600,C 263.0973078714726,611.0659505639652 279.31366953606016,618.3963168090202 296.2717305346846,620.9298721234333,C 313.2297915333091,623.4634274378463 330.8658720749692,621.1911552129998 346.6660666447896,614.5316817413146,C 362.4662612146099,607.8722082696296 376.37100788854616,596.8667858679681 386.6966675390678,583.1782692154653,C 397.02232718958936,569.4897525629625 403.75514855213754,553.1925461487602 406.62260192671977,536.2877407222298,C 409.6402536876296,518.4974546393253 408.42115776415744,500.106513361692 404.0337894269754,482.6036135980642,C 399.6464210897933,465.1007138344364 392.158377551475,448.47371317714243 383.00081649418746,432.9257365710447,C 364.6856943796107,401.8297833588486 340.06038703838294,375.03263843839113 317.1809402232988,347.1232687270794,C 286.5691291201578,309.78161617247343 259.0249689211692,268.7741804648893 245.66691317645066,222.3732716241749,C 232.3088574317362,175.9723627834623 233.40451071855193,125.3439271571438 250,80M 250 , 80C 264.58293761532536,120.87839810171806 266.38199246980815,166.09015766726688 255.83349203600096,208.19045029633287,C 245.2849916021942,250.2907429253986 222.54120799625164,288.53641450307714 194.93164662960808,322.0239886462803,C 168.17157906879427,354.48121368581025 136.88940042900703,383.06535435721435 111.04348584043731,416.25513248552323,C 98.12052854615025,432.8500215496765 86.62702704797208,450.6924089424289 78.44282624620016,470.0679612059851,C 70.25862544442825,489.4435134695413 65.46712695663177,510.3987694595178 65.85331412535042,531.4283683085742,C 66.25300951894327,553.1935497280123 72.33252835189711,574.9571634457646 84.12012507389431,593.2584049923994,C 95.90772179589152,611.5596465390341 113.39640964497384,626.2176304430658 133.66534999061352,634.1582183239225,C 153.93429033625372,642.0988062047788 176.83668484796613,643.2165743335504 197.7319580582438,637.1116225649796,C 218.62723126852148,631.0066707964088 237.35478936033823,617.71952387925 250,600,C 275.9638096411325,610.8411131476709 305.91898970546225,611.7243181854684 332.5160471231134,602.5457735250262,C 359.1131045407646,593.367228864584 381.99848226769313,574.2946641066559 396.6254096089488,550.2592289760993,C 408.21027218819705,531.2226120213842 414.7280644262562,509.28379070675015 416.5356629378954,487.0726580548269,C 418.34326144953457,464.8615254029037 415.5454825296961,442.41671681236954 409.77362165722764,420.89260363366975,C 398.2298999122894,377.84437727626573 375.467191670942,338.77544040322493 352.7422996792099,300.4350362816332,C 311.265429856208,230.4571481010808 271.9740495705019,158.3222619055225 250,80M 250 , 80C 238.79929957219582,156.71034510966018 202.99098145908144,227.91485078895812 157.77122608176364,290.8839420999507,C 131.21341242180412,327.8660394027846 101.9680465876462,363.24519586284333 80.7568550156892,403.53264228739533,C 70.15125922970833,423.6763654996713 61.69315574334297,445.08130077274797 57.323577177659764,467.42307845463176,C 52.95399861197656,489.76485613651556 52.77478733974257,513.060140803512 58.1444364381334,535.1828692832577,C 62.968649817827256,555.0584255387423 72.30334405711712,573.8957911838893 85.66866851104247,589.3773567842754,C 99.03399296496784,604.8589223846616 116.40820927875478,616.900294526989 135.7026567417194,623.6852092867078,C 154.99710420468404,630.4701240464267 176.14047743487535,631.9555721439069 196.17132403780874,627.8232658184388,C 216.20217064074214,623.6909594929708 235.04814613291794,613.9553873874993 250,600,C 272.3190432516517,617.5552407272041 302.7470989091105,624.259989962526 330.4160761795039,617.876114535355,C 358.08505344989726,611.492239108184 382.25350084135664,592.3230350492714 395.937695211515,567.4419379452668,C 405.5500104571648,549.9644787283128 410.20459852970794,529.9469663035438 410.3939761181985,510.0014825743629,C 410.5833537066891,490.05599884518193 406.41967182871156,470.21338002667295 399.58064397780703,451.47609412084876,C 385.90258827599604,414.0015223091956 362.1656471195148,381.1928475564177 339.250416130134,348.538216507332,C 311.47361780157354,308.9557614334842 284.74561526982177,268.0371625063531 268.09518328520284,222.6379952256169,C 251.44475130058606,177.23882794488284 244.80204256952482,128.07600767128434 250,80M 250 , 80C 251.022391155657,118.16014984145754 244.8496539262271,156.45581024259306 232.31849177108654,192.51426687400243,C 219.78732961594608,228.57272350541174 200.84813254963993,262.1223441808472 179.26161705541807,293.6067001122518,C 154.2350513463085,330.1084367050429 125.46408163234608,364.22936985246565 104.4173695509914,403.161897076452,C 93.89401351031047,422.6281606884454 85.43636465755027,443.3534108890713 81.09540724488033,465.0520866576969,C 76.7544498322104,486.75076242632247 76.64473125034863,509.4399715209179 82.16661400730862,530.8685797862472,C 86.59916368451776,548.0698451571484 94.66102359304504,564.3747082687387 105.98768640849903,578.0581923450295,C 117.314349223953,591.7416764213203 131.89131669016257,602.7498213497797 148.2427076098492,609.6897811474068,C 164.59409852953578,616.629740945034 182.67617628830266,619.4725406659844 200.36063079772396,617.8018833985296,C 218.04508530714526,616.1312261310749 235.28640828875464,609.9519468424958 250,600,C 260.871096651867,614.2291436259285 275.3268215715901,625.6958739023892 291.6533109517785,633.0508052589777,C 307.97980033196694,640.4057366155663 326.1387539010513,643.6311090549074 344.003817477443,642.4109557231418,C 361.8688810538347,641.1908023913761 379.39391833935196,635.535429627378 394.6923566820097,626.2291384747525,C 409.9907950246674,616.922847322127 423.0320634778096,604.0052961086545 432.7682468129917,588.9767897023194,C 447.407794012266,566.3795848946489 454.3935840903524,539.2338139668116 454.4111606980961,512.3089240249299,C 454.42873730583983,485.3840340830481 447.7311131369382,458.73783407973633 437.29088432048457,433.9194612567715,C 416.41042668756603,384.2827156108139 381.78061559717366,341.93918229176717 350.5057455103026,298.1021827328223,C 303.6183991260307,232.38166728197712 265.15110208000544,159.29724779489342 250,80M 250 , 80C 231.80697685824907,162.8415426329807 188.82709327806356,238.15593150062728 138.31576611291297,306.2904536231414,C 109.62197339913375,344.99539297355045 79.03216212000049,382.9014752966671 58.50645437025268,426.4916277601779,C 48.24360049537569,448.28670399193373 40.67660421497644,471.50406134729326 37.93273703240834,495.4377762801981,C 35.188869849840245,519.3714912131029 37.397106422696396,544.0227202237536 45.74006942991146,566.6224212364964,C 53.114576089230695,586.5987348642698 65.3002758365914,604.8578776095827 81.33549269359216,618.868883104281,C 97.37070955059292,632.8798885989793 117.2154045202843,642.5495059088581 138.18877138423798,646.2311274284492,C 159.16213824819164,649.9127489480402 181.17297125296602,647.5707367400449 200.85827195674813,639.4512915111404,C 220.54357266053023,631.3318462822359 237.8213858788194,617.4676218390165 250,600,C 259.03502749501035,613.773319110005 271.87066124061084,625.0242271383047 286.7051010207212,632.1849140852325,C 301.53954080083156,639.3456010321604 318.32385758998305,642.3926292353577 334.7347569976685,640.9719175220067,C 351.1456564053539,639.5512058086557 367.12509650508827,633.6779148700863 380.6587373810035,624.2876749485838,C 394.19237825691874,614.8974350270813 405.24644791068766,602.0429496945693 412.83619654518594,587.4233820947135,C 423.17491234797376,567.5086837491674 426.9984232621359,544.5142196522119 425.215733940057,522.1466924436477,C 423.43304461797817,499.77916523508355 416.2380970814524,478.0656012380792 406.1033204759688,458.04634656159703,C 385.8337672649932,418.00783720861773 354.681584504305,384.75299231015504 326.5359172885192,349.7993310490021,C 296.0032711870134,311.8813182672632 268.6671089656687,270.48174036522494 254.02951903970848,224.0515870978133,C 239.39192911375034,177.62143383040245 237.5940185734087,127.075575366838 250,80M 250 , 80C 264.28137413736613,122.53295856995311 265.51080952961496,169.1991996491421 254.40765184052572,212.67022564687989,C 243.30449415143744,256.1412516446167 219.98952217229512,295.59075596948435 192.7988448980387,331.2793715398859,C 166.19840310444772,366.1932845549579 135.6826490018451,398.59171819305453 115.13802984118749,437.3793895485481,C 104.86572026084997,456.7732252262997 97.28349219432394,477.79600624730404 94.86945909575064,499.6091594033454,C 92.45542599717734,521.4223125593868 95.39942032965604,544.0062309293622 104.75055410730124,563.8606385881797,C 117.0165972799377,589.9040069433856 140.78403739293591,610.5710973169267 168.66550388953348,617.7360590332958,C 196.54697038613102,624.9010207496648 227.67679314271004,618.1765586953243 250,600,C 271.89883811188633,623.3368995742024 304.5885608430351,636.0518773043625 336.5126991211569,633.8114783250801,C 368.4368373992787,631.5710793457976 398.7623432870876,614.5597101442785 418.3535510033716,589.2544819768735,C 434.53513374560515,568.3533384980257 443.5323278233461,542.3096209422291 445.50544572193695,515.9504057694401,C 447.4785636205278,489.5911905966509 442.6725852980878,463.0075960685805 433.85432301951255,438.0889350059673,C 416.2177984623578,388.2516128807116 383.81061286354293,345.2765854064222 353.8091114449139,301.7482545436424,C 307.1614522680755,234.06848364516594 267.34455380075906,160.3475074224541 250,80M 250 , 80C 233.7046750122447,167.71947940009744 187.73656900321532,246.88960879220824 135.02124662885876,318.87113051583077,C 110.71333077654933,352.0630127650448 85.63573800206308,385.122707223687 68.13088907985767,422.3538243777479,C 50.62604015765089,459.5849415318087 41.50102603422968,502.14774346098966 50.840579979303754,542.2145445865566,C 55.70691771050331,563.091193218007 65.51968995836809,582.8846595731112 79.74386341733232,598.9217600094255,C 93.96803687629655,614.9588604457398 112.57679245641295,627.1317316525061 133.08073914888192,633.3850404588521,C 153.5846858413509,639.638349265198 175.89025897476495,639.9192158437568 196.50863816794092,634.0542230524959,C 217.12701736111688,628.189230261235 235.96534368722791,616.2032133596241 250,600,C 256.83915387559716,622.2276865898306 271.83617101667494,641.8406964082003 291.48099729827715,654.2875786377186,C 311.12582357987935,666.734460867237 335.2299755408579,671.9061981423058 358.2784450777447,668.8058547940574,C 381.32691461463116,665.7055114458097 403.1027163130787,654.4178406372777 419.3093887003888,637.7388764308228,C 435.5160610876989,621.0599122243677 446.09536320145816,599.2124013473466 450.174568550499,576.316896098714,C 454.03030497863836,554.6756630461581 452.21329987162557,532.2104743339319 446.28889840492246,511.0418386032182,C 440.3644969382194,489.8732028725045 430.43812026273685,469.97188272067586 418.5126203074825,451.5059107111783,C 394.6616203969691,414.57396669218224 363.3045466514638,383.21233260459337 334.98709102312057,349.58257803382105,C 303.4840148667157,312.16958679374625 275.5871020784388,270.91491923181013 259.71611867965555,224.6516767297794,C 243.84513528087345,178.38843422774903 240.1190405285137,127.90138161649342 250,80M 250 , 80C 223.7617010693914,159.39825340254606 181.55964683344962,232.29641492380603 139.33136738209413,304.47191900050177,C 118.46709867520283,340.1325978317624 98.25270240082158,376.7624322509832 87.54938341425265,416.66782895432937,C 76.8460644276823,456.57322565767635 76.88000874275981,500.601011256178 95.06644293974205,537.6989267579769,C 108.55979048072702,565.2235674593901 131.93674252051107,587.9987680495381 160.30312952945187,599.618766399912,C 188.66951653839263,611.238764750286 221.55797701768265,611.4336172000391 250,600,C 276.35564795964456,613.3909343107966 308.3634912265924,615.0631204516183 336.0343508861111,604.6582741388654,C 363.70521054562977,594.2534278261127 386.45464127237614,572.1031514054611 398.86435480498574,545.2715224737814,C 414.4619491885928,511.54722548432545 413.74167242157864,471.99295810090507 403.49199504842727,436.2780134455529,C 393.2423176752752,400.5630687901998 374.50208967294554,367.94329645212645 355.28827187599626,336.14011479282897,C 331.2065200148073,296.2794094811997 306.43010804107666,256.6424403134295 287.6443345591079,214.02904669911396,C 268.85856107713977,171.4156530847997 255.82848147500255,126.20427906958238 250,80M 250 , 80C 248.18958357784288,156.0401312225789 217.86947686274672,229.3272666041944 173.7960203475787,291.3184723899688,C 141.35792647813022,336.9440418677609 102.1226279885176,377.99901465319545 75.26765503044643,427.11859274052483,C 61.84016855138197,451.6783817842015 51.796950260101795,478.40732891269147 48.79810429642101,506.23694540127207,C 45.799258332740216,534.0665618898527 50.1687041121774,562.9803700233366 63.37888419816071,587.6577234695887,C 72.27666109004105,604.2792671440338 85.10453995510636,618.8358334587222 100.71929673545168,629.4011312978664,C 116.334053515797,639.9664291370106 134.6964980549104,646.4806481393103 153.49625155170827,647.9003016881737,C 172.29600504850612,649.319955237037 191.46661871794552,645.6284116958504 208.35967316862713,637.2575778625057,C 225.25272761930876,628.886744029161 239.81268354378665,615.863944375852 250,600,C 272.1098007500247,620.9739768793773 303.40317261505834,631.8535739784942 333.7681343421592,629.2612594423803,C 364.1330960692601,626.6689449062663 392.9080381682749,610.7533910539037 412.1138970208226,587.0914811335599,C 428.77179770479745,566.5686943905989 438.30994437527954,540.6982482755081 440.7533514345521,514.3790500955308,C 443.19675849382463,488.0598519155535 438.7935849083248,461.39383961240037 430.3021116005699,436.36255295034664,C 413.31916498505785,386.2999796262071 381.2922270084094,343.01017564562386 351.65292507952023,299.235828080545,C 306.1843723572591,232.08322661509956 267.28513575893425,159.23436913378686 250,80M 250 , 80C 228.28810329636346,159.79542838478233 186.52480086824596,232.45310213329526 141.25838981415518,301.66053583707014,C 118.7502051526847,336.0731093430553 95.96953989008648,370.7859959771227 81.43379975652806,409.2509911133416,C 66.89805962296822,447.71598624956084 61.58306156395835,490.9708351861644 74.51608915509019,530.0039030823312,C 85.91347677303405,564.4022681670187 111.95666861353214,594.1209289918622 145.4834511525316,607.8723950081002,C 179.01023369153103,621.6238610243381 218.96839681331392,618.713299246182 250,600,C 259.7597441822836,619.9092966782405 276.0520239861572,636.5456102455414 295.7439651982187,646.7367903551524,C 315.43590641028015,656.9279704647632 338.40146194924546,660.6132061460904 360.31695301959354,657.2451277813093,C 382.2324440899414,653.8770494165284 402.9558251423874,643.5115023199638 419.0849843430151,628.2969394209973,C 435.2141435436428,613.0823765220308 446.6992023740907,593.1650892471704 452.5868880285197,571.7882826951984,C 458.4698581347162,550.4285971935446 458.846338362105,527.7273289808971 454.9639077738489,505.91512517827016,C 451.08147718559286,484.1029213756431 443.0423450352934,463.16782987385574 432.7295574273422,443.559364514393,C 412.10398221143623,404.34243379546604 382.9455892852339,370.4086521840407 355.7126033683338,335.45516185689263,C 326.8602043066184,298.423157559011 299.9670260320758,259.4497749557609 281.1072902808292,216.4597686597861,C 262.24755452958317,173.46976236381158 251.3612576239302,126.92523043753806 250,80M 250 , 80C 229.60279780736107,159.81491977717405 188.6508109831126,232.79498570336023 142.0241716342783,300.70981309295064,C 112.0349599370802,344.39111126088335 80.088337009615,387.88851722784875 63.154219156062354,438.0945355959408,C 54.68716022927635,463.1975447799971 50.29150456856699,489.9121136412873 52.65247531565798,516.299193322371,C 55.013446062748955,542.6862730034547 64.36732512358245,568.6521592604505 80.79735353794132,589.4345153171598,C 100.68653720104494,614.59235960929 131.13414500106637,631.4213076652802 163.12901088412414,633.6179672513065,C 195.12387676718188,635.8146268373329 227.86315057515822,623.2046687921551 250,600,C 260.88374850671227,620.7303485986226 279.6062581617166,637.2161671018873 301.53631260772414,645.4183647691546,C 323.4663670537317,653.6205624364218 348.36494325857404,653.4629423736105 370.27514620273655,645.207862633027,C 392.18534914689934,636.9527828924452 410.8895932824846,620.7591864609669 422.7714662245647,600.5843399939915,C 434.65333916664474,580.4094935270161 439.72307075888614,556.5167743871406 438.3666366282681,533.1423562975483,C 436.18114898249354,495.48147707841713 417.8136428613655,460.4061444954995 394.5409620323013,430.7160702814406,C 371.2682812032359,401.0259960673821 343.29185401084953,375.40259868740094 317.9383204989301,347.46845258862373,C 285.2088818568881,311.4076439314003 256.8710095350319,270.14714834434807 243.49159132253442,223.32205631954622,C 230.11217311003938,176.49696429474469 232.04574989207157,125.26856500815913 250,80M 250 , 80C 264.9692803533758,124.49924489146187 265.9356138985141,173.4407693404113 253.65527595126116,218.75583802743324,C 241.37493800400912,264.0709067144544 216.02297705252084,304.8839912323973 186.24473320013135,341.18162673769973,C 155.8790765875938,378.19527808210535 120.63579408369199,411.63052560221973 96.01766656785229,452.6918368936242,C 83.7086028099177,473.2224925393316 74.27803412915526,495.7351948414844 70.68992809128935,519.4026063370524,C 67.10182205342345,543.0700178326204 69.5991656014973,567.8862019800727 79.56590833406509,589.650505578909,C 86.94064376656196,605.7546616929526 98.36060242354824,620.0480711264183 112.71252381393475,630.4284814867547,C 127.06444520432126,640.808891847091 144.30515171018402,647.2029145600806 161.97302102329834,648.4586855501602,C 179.6408903364126,649.7144565402398 197.6558894377546,645.8113826414897 213.17905809495088,637.281329787899,C 228.70222675214714,628.7512769343084 241.66691662734053,615.6297884934223 250,600,C 259.4023211831877,614.3065788943316 272.6833385318054,626.0356409240052 288.0387345721068,633.6048982017736,C 303.3941306124083,641.174155479542 320.77676779196673,644.5603985783649 337.85531541536784,643.3750486862335,C 354.9338630387689,642.1896987941021 371.6518028910048,636.4460273532945 385.9541454420009,627.0372633087709,C 400.25648799299694,617.6284992642472 412.10853659504494,604.6044310440757 420.4462837246421,589.652380479205,C 433.788715931668,565.7254469902244 437.87637682556164,537.2195285970674 434.2569044941418,510.06408598555277,C 430.6374321627219,482.9086433740381 419.7012926943277,457.1230225054232 405.4691897979337,433.7143512374585,C 377.00498400509343,386.89700870144367 336.453279756121,348.68373495316996 304.52453009212,304.15700681775377,C 281.4176441889115,271.93294425672303 262.6382880837293,236.23708421636852 252.6982238361607,197.85071284793455,C 242.75815958859218,159.46434147950058 241.66634153883265,118.76684821769409 250,80M 250 , 80C 245.24484266637273,127.30962480577472 232.60368567889992,173.7270557523636 213.669003795778,217.34230472007783,C 194.73432191265644,260.95755368779015 169.26086533190457,301.3439957205578 144.60148960190182,341.99774473755616,C 125.21089395098932,373.9653183498596 106.35906855841431,406.84531041680873 96.48089165553591,442.9055736359072,C 86.6027147526563,478.9658368550065 86.86706863398798,518.9726369291238 103.97327845356126,552.2186674886365,C 117.04810534345877,577.629678982513 139.87126983090593,598.1097030658858 166.96960953952924,607.1844255618504,C 194.0679492481525,616.2591480578149 224.891836727027,613.6473711901026 250,600,C 260.51143762950124,621.1504779165367 278.5005379255019,638.4848574750212 300.01559358428017,648.228338225578,C 321.5306492430585,657.9718189761348 346.3899538062324,660.0503368201503 369.27317089726415,654.2029944578875,C 392.15638798829565,648.3556520956254 412.8767105338236,634.6825742406346 427.67359481234854,616.2737379714752,C 442.4704790908735,597.8649017023156 451.31103620571105,574.9288401356409 453.7519021132118,551.4368157282302,C 456.33223688405286,526.6024783606485 451.9039825368315,501.3159825206204 442.88817634650826,478.0325618364726,C 433.872370156185,454.7491411523248 420.4162899310858,433.3939422725928 405.1954580041617,413.6018045540744,C 374.75379415029636,374.0175291170377 337.6238273917344,339.91292870550336 307.6906573261247,299.9427511991398,C 284.26669480981656,268.6644088910042 265.2403870183812,233.7516686788295 254.81621846295332,196.09063540253257,C 244.39204990752546,158.42960212623564 242.5856355472886,118.3672245187567 250,80M 250 , 80C 246.7498702663957,127.00188613529886 234.49297105508614,173.28425567634994 214.7858114846517,216.07874720535742,C 195.0786519142177,258.87323873436446 167.8385261971394,297.74026174847245 139.03186673177512,335.02185256763335,C 112.67207163637944,369.13671048807544 84.85435940727771,402.5964267357941 65.19454230417675,440.9650847769065,C 55.36463375262497,460.14941379746256 47.701477432408566,480.5582738845471 43.912827559563674,501.7788232233793,C 40.12417768671878,522.9993725622114 40.2964359808781,545.0425914474054 45.59348132799093,565.9377318559178,C 51.10075585222766,587.6621587602193 62.24161120168464,608.0434511966719 78.16486347726263,623.8146538766816,C 94.08811575284062,639.5858565566913 114.74815271495044,650.5983305244573 136.79937276909342,654.6013907450144,C 158.85059282323655,658.6044509655713 182.15201056947564,655.5376107092711 202.34896143579874,645.8234986701303,C 222.54591230212185,636.1093866309895 239.51028932060802,619.8052206972884 250,600,C 263.17440580539653,611.6164881740233 279.7018973189456,619.3821146696482 297.0512482535323,622.1221489707184,C 314.40059918811903,624.8621832717887 332.5006430395383,622.5662386720812 348.65810095082685,615.6782549564045,C 364.81555886211527,608.7902712407279 378.96452024861446,597.3569315263532 389.3268797252601,583.1749263120241,C 399.68923920190565,568.9929210976951 406.2518545619733,552.1451728364765 408.77899899598117,534.7635357780132,C 413.95870746560547,499.1376287360186 402.00988465973626,462.8137233326911 383.3463243098305,432.0288870092581,C 364.6827639599231,401.2440506858245 339.9124702771039,374.72045234896234 316.93553754792305,347.0059219586792,C 286.10266289511117,309.8156384836375 258.4481370251498,268.81737131449347 245.1245062821567,222.38177927418093,C 231.80087553916766,175.94618723387003 233.09275938902846,125.25404467263036 250,80M 250 , 80C 243.0588293622472,125.76595281759441 228.98702583328864,170.38056588463357 209.1018430348798,212.18106578832544,C 189.21666023647128,253.98156569201686 163.36813226408728,292.6227746944792 136.94673896090526,330.63082993337815,C 109.95866252207617,369.45407775790176 82.04398890485213,408.6378670445462 67.05354732618854,453.4807873641366,C 59.5583265368522,475.90224752393544 55.5281454604146,499.6599342868748 57.09919151972383,523.2487457164037,C 58.67023757903305,546.8375571459327 66.00840630163341,570.2000175798572 79.41275099352963,589.6736857951469,C 98.17481612173316,616.9309848081359 129.3096446489281,635.6915998009629 162.3235408575549,637.9406205844283,C 195.33743706618165,640.1896413678937 229.10138690253848,625.6558649817357 250,600,C 259.7845590162972,612.0134046445088 272.6249422569011,621.5161184510717 286.97076063209215,627.3690648408945,C 301.3165790072832,633.2220112307172 317.13311532130194,635.4106625741925 332.53509866621494,633.7259087823486,C 347.9370820111279,632.0411549905047 362.8839756970401,626.4936874188924 375.7372746129517,617.8419712149051,C 388.5905735288633,609.190255010918 399.32465589247664,597.4703861994634 407.064436849203,584.0481927483912,C 419.93305754611094,561.7316546695894 424.26320435590935,535.0164930438739 421.3168852858408,509.4245319154092,C 418.3705662157722,483.8325707869445 408.50144274077957,459.399948058 395.38867355830183,437.2259868685652,C 369.1631351933127,392.87806448962255 331.042794984645,356.91017035910255 300.33329284205456,315.54057330986274,C 275.4345337440363,281.9987846436697 255.20988669244656,244.4319390829941 245.70839427410672,203.75367174805302,C 236.20690185576714,163.075404413112 237.4895655307605,119.85585052334926 250,80M 250 , 80C 260.1273563604426,120.27633850532109 259.65031152738015,163.07756752152818 249.27388340489983,203.29045761494982,C 238.8974552824198,243.50334770837122 218.6459038144215,280.59679072126903 194.4653329637596,314.3613695514974,C 166.42429693789472,353.51651511129137 132.7947639835175,389.02133915835964 110.4469194804127,431.68278511694797,C 99.27299722884221,453.01350809625484 91.164841019092,476.2147983064094 89.16288534177413,500.21164090642924,C 87.16092966445626,524.208483506449 91.52913078431557,548.9625953096534 103.29368072322727,569.9733460349112,C 117.22452234226085,594.8529582742341 141.81134126468808,613.7938197169319 169.70675485771946,619.7022335368488,C 197.6021684507508,625.6106473567656 228.0467485072827,618.1966536014502 250,600,C 270.8123029267453,622.1567889928209 302.2674975266694,633.7758864619425 332.5034091291456,630.6350424425353,C 362.73932073162183,627.4941984231282 390.8663418536196,609.8274975779307 407.9118405110519,584.6575506747988,C 423.1631394065589,562.136978462831 429.6844169130354,534.2878506347824 428.34751082830786,507.1218613674069,C 427.0106047435803,479.9558721000313 418.1957631896118,453.5453108821703 405.72876193077013,429.3719335764112,C 380.79475941305947,381.0251789648015 342.55875652120216,341.01776893583025 311.80186095403866,296.1498902462933,C 290.1423208628421,264.5531507392079 271.9169068640321,230.33046122712923 260.88567512439266,193.64529323314108,C 249.8544433847533,156.96012523915292 245.98899348450408,118.09726304045225 250,80M 250 , 80C 229.4905973219568,169.05616693610574 183.42053363460502,249.62195413511677 136.0197052107425,327.755160470792,C 113.32094452270363,365.1706869789706 91.18046131320045,403.84798707556996 81.37438065993531,446.49767808123534,C 76.47134033330096,467.8225235840702 74.83237914687577,490.02965856950294 78.04034625684305,511.6744682749669,C 81.24831336681034,533.3192779804309 89.41636739230907,554.344295316225 102.56818014561057,571.8319670156387,C 119.1313660618981,593.8556654238786 143.75176158610012,609.8658717063847 170.79161022744557,615.1789691765746,C 197.83145886879103,620.4920666467644 226.8634913857434,614.9694485007644 250,600,C 257.6223499306282,617.564013641814 270.82498903529654,632.6538518935215 287.2139132034206,642.5532437074793,C 303.60283737154464,652.4526355214371 323.08690768865114,657.1091174965582 342.1884412390392,655.7952644993878,C 361.2899747894271,654.4814115022175 379.8988899844952,647.226778389435 395.02948355399974,635.4939214522166,C 410.16007712350427,623.7610645149981 421.75911833322243,607.6530076957354 428.62592042351616,589.7800722141893,C 437.65537443433647,566.2781790699124 438.45660610523305,540.0301576463817 432.9551640888475,515.4618008262996,C 427.4537220724619,490.8934440062176 415.92383135973927,467.9779395174101 401.6941755835766,447.2080835335462,C 373.23486403121836,405.6683715657908 334.76166308379777,372.07075466725814 302.9727246740535,333.0202299693778,C 274.37487817716413,297.88974223370764 251.0615469064724,257.6591453268855 240.8099838638896,213.53552979064835,C 230.55842082130746,169.41191425441127 233.53583996182007,122.20094106821433 250,80M 250 , 80C 262.5469999391421,126.87291332687337 260.99648363756927,177.26547694555387 246.56532701621538,223.5929950076233,C 232.1341703948625,269.9205130696918 204.97612657251557,311.32219319838873 173.9533173240888,348.6328152456962,C 144.44465199890953,384.12240131933817 111.20683365552813,416.96477752383237 87.52350851745597,456.58007960972134,C 75.68184594841281,476.38773065266673 66.41124145582667,497.93488328548443 62.23004571439468,520.6303809537446,C 58.04884997296269,543.3258786220049 59.13351212003821,567.1806192286186 66.94092768615343,588.8972551194779,C 73.64877579595715,607.5554005426461 85.33753068611301,624.4849517882939 100.81992046573417,636.8711224478712,C 116.30231024535533,649.2572931074485 135.52230859968313,656.9822206601997 155.29678810570525,658.4284492597659,C 175.07126761172736,659.874677859332 195.27637877867338,655.007055869126 212.16052773715396,644.6124836872548,C 229.04467669563454,634.2179115053835 242.50519215680697,618.3561834892198 250,600,C 273.18148692255386,614.8318631005374 302.1329661964068,620.3241016331801 329.15742387986904,615.1236991594886,C 356.1818815633313,609.9232966857971 380.87126844101084,594.1588660157089 397.6618949945147,572.3542711120106,C 411.6377659762614,554.2049659498547 420.2186030724484,532.148679357894 423.41257800755204,509.46562904094117,C 426.60655294265564,486.78257872398825 424.5486724619391,463.53991754003545 419.03374550217444,441.3068829249419,C 408.00389158264466,396.8408136947464 383.98422639396443,356.8444502840131 359.9234118765215,317.8577064468072,C 313.8152473302089,243.1467194738799 270.3171156830357,165.41024073623083 250,80M 250 , 80C 254.64489982348394,128.4298926171786 247.17047129525224,177.81571054652642 229.57429500021124,223.1743279535362,C 211.9781187051715,268.53294536054244 184.19996938534058,309.11218416140366 155.64756200178581,348.5049452462123,C 135.83537887458692,375.83912362262976 115.68996514504599,403.27835548084596 101.65239126934456,433.98057734610677,C 87.61481739364254,464.6827992113675 80.24838288041502,499.39505179030147 86.94930236969579,532.4824751680392,C 90.44960563089987,549.7660757454217 97.73784737857495,566.3309490307973 108.54225856924211,580.2679383276965,C 119.34666975990926,594.2049276245955 133.65367774762885,605.4454680377233 149.86070852581628,612.395800777512,C 166.0677393040037,619.3461335173006 184.12039829990968,621.9681594368037 201.62323872384144,619.8174504994363,C 219.12607914777323,617.6667415620689 236.02126845693215,610.7503505192032 250,600,C 261.74418190121264,619.8250175598478 280.2450755125346,635.5585399797825 301.69048028201723,643.9877596382142,C 323.1358850514999,652.416979296646 347.36669397440573,653.4855995595591 369.5211658246308,647.15026161951,C 391.6756376748557,640.8149236794616 411.5941167033582,627.1664207638278 425.89266534179535,609.0968707801876,C 440.1912139802325,591.0273207965473 448.84142707741216,568.7189361966507 451.4390143233401,545.8233106258824,C 454.20693363926154,521.4263459553828 450.2264097883396,496.5210775977422 441.7633194459812,473.47223024412943,C 433.3002291036228,450.4233828905167 420.4932731983047,429.165217793508 405.90144800771657,409.418017989982,C 376.71779762652596,369.9236183829295 340.79829185590035,335.79336361026026 311.4834285581531,296.3962591515883,C 288.4835464931869,265.4860431615764 269.50779385287876,231.27331582523072 258.48983077033654,194.35393721367663,C 247.4718676877944,157.4345586021225 244.4140088681233,118.12128972931184 250,80M 250 , 80C 256.4901412502172,119.16388140853087 253.89615355852231,159.73452761672138 243.02609732607522,197.91532669076747,C 232.15604109362832,236.0961257648134 212.9896182951237,271.4811953939624 190.4976257164752,304.1926889439556,C 165.54222155382104,340.4868740611543 136.3326055385469,374.0503911103372 115.49698093202677,412.85653517927403,C 105.07916862876107,432.25960721374383 96.90561679734252,453.03388547524014 93.2185746515214,474.74599586957623,C 89.53153250570027,496.4581062639123 90.47348374126366,519.1160106066573 97.3843756938978,540.0265244688252,C 107.2636723604936,569.9186384406614 130.05221495454595,595.6522705963266 159.24980863371744,607.4267983438782,C 188.4474023128889,619.2013260914297 223.15125317067245,616.4403094261187 250,600,C 260.7770780173718,621.1421907774923 279.4979517531432,638.1084135272092 301.5843388719914,646.7876499856063,C 323.6707259908397,655.4668864440034 348.8884601852442,655.7796675821214 371.26186023963106,647.8696352515453,C 393.635260294018,639.9596029209707 412.9458002019772,623.9772350762895 425.448510642834,603.8074588480695,C 437.95122108369077,583.6376826198496 443.64701889828734,559.5406950258271 442.7663421349867,535.8265209962944,C 441.95943415127186,514.0987348788462 435.7997886718264,492.7521996826445 426.2820983171288,473.20325187536207,C 416.7644079624313,453.65430406807957 403.9710370800769,435.84439882027146 389.85967641582624,419.30301767288245,C 361.6369550873195,386.2202553781061 328.3564917210565,357.7180673065368 300.33418741522837,324.4653738572718,C 272.05271749580857,290.9051412917538 249.25269062376464,251.93424213378796 239.4941612551449,209.14520317266513,C 229.73563188652565,166.35616421154228 233.20728712438518,120.54794131558167 250,80M 250 , 80C 257.2379412583061,119.09846105262211 255.1277532676335,159.83944648647795 244.31485367182867,198.10377259674863,C 233.50195407602394,236.36809870701924 214.00132654949252,271.8017142192319 190.1135122007604,303.5892868850175,C 159.31525940189883,344.5725968074259 121.16009568423736,379.59609197513555 90.44605345169609,420.642549525044,C 75.08903233541467,441.165778299995 61.705238757858965,463.3943312078282 53.1822965871195,487.56870759418246,C 44.659354416380054,511.74308398053677 41.17172925347425,537.9371216233659 45.17711289455528,563.2550583245004,C 48.843313980550924,586.4290299951815 58.89466564112682,608.6949854058371 74.60921420931648,626.11701045158,C 90.32376277750613,643.5390354973229 111.65516352558555,655.9159613152633 134.6818427157711,660.4155211680444,C 157.70852190595713,664.915081020825 182.24200329753052,661.4514350365878 203.0383243623679,650.5892518506577,C 223.83464542720523,639.7270686647275 240.72028586080637,621.5490347554444 250,600,C 262.0756211720069,619.0132968670073 280.2899551089361,634.0554483002547 301.23587176052064,642.3376376284242,C 322.1817884121052,650.6198269565937 345.73213334684215,652.0956865649063 367.58626157774034,646.6437911412734,C 389.4403898086383,641.1918957176407 409.46597274269294,628.8793022345309 424.515205526388,612.1208214840298,C 439.56443831008306,595.3623407335286 449.6013290778799,574.3043352771282 453.97048099299747,552.2082587931598,C 458.8616389410814,527.4722454396094 456.73254274514886,501.6187004018702 449.6769080079759,477.4110197786523,C 442.62127327080293,453.2033391554343 430.7958687569116,430.59043837374617 416.8562023172754,409.57902523108,C 388.9768694379882,367.55619894574426 353.2059074092563,331.3680529546908 323.3093676113597,290.7555913337254,C 300.84277202158216,260.23621493391283 281.5615481934151,227.1484795164275 268.69016980685694,191.5042952550632,C 255.81879142029888,155.8601109936989 249.3308793023744,117.8910613564737 250,80M 250 , 80C 236.3099731044872,156.27616828922015 200.86318903162953,227.10630496838266 157.0973409927946,291.059578776116,C 126.05647481550348,336.4183482921095 91.14237485136863,380.1330333142424 71.34931180012674,431.40864155140605,C 61.45278027448785,457.04644567000685 55.69522662865838,484.5708267428582 57.26436324370811,512.0075930709993,C 58.83349985875783,539.4443593991404 68.0292856413442,566.6889522792223 85.0468530778235,588.2676625003312,C 104.37038360311504,612.7703928235774 133.89020436887043,629.2459702895785 165.00327458680778,631.645863384969,C 196.11634480474513,634.0457564803594 228.0731178427501,622.2034786490243 250,600,C 263.8638824166745,616.5230824034758 282.7456158127807,628.7746844226398 303.4787589295283,634.7207977982735,C 324.21190204627584,640.6669111739071 346.69493563498423,640.2805177429884 367.2538340790226,633.7573909970833,C 387.81273252306084,627.2342642511784 406.34659921318024,614.6330888096587 420.2661907997679,598.1569103134777,C 434.18578238635564,581.6807318172968 443.4650802113376,561.4468043755976 447.607449291244,540.2793702802412,C 452.18363524279755,516.8951395009317 450.5567885196755,492.51264724209824 444.48013163781405,469.47272605856705,C 438.40347475595263,446.4328048750358 428.0010597709502,424.70026780180825 415.54660889382575,404.386470019205,C 390.6377071395686,363.7588744539963 358.06753711547486,328.44599125013997 329.90778636831516,290.00014172289923,C 284.95363675609906,228.6252919547029 253.04926834688865,156.016114830836 250,80M 250 , 80C 250.26536538129372,128.16647563152932 240.12094842681302,176.23636270620125 221.48051508779116,220.6504825160295,C 202.8400817487702,265.0646023258552 175.5639307265631,305.21722437055575 148.0415038827313,344.74690706816875,C 128.66703954122994,372.5739018387049 109.22126400924348,400.6995777518746 95.97179856294596,431.91116489298173,C 82.722333116648,463.1227520340889 76.22862557296563,498.0986062465521 83.47628234013871,531.2223587191331,C 87.30241093649902,548.70880166551 94.90480491365867,565.4168462015114 105.99661411532458,579.466284467386,C 117.08842331699047,593.5157227332606 131.65573337929465,604.8405018244529 148.11467048768486,611.8774284415805,C 164.57360759607505,618.914355058708 182.8716753142284,621.6269405696129 200.653217128209,619.5698266519016,C 218.43475894218957,617.5127127341904 235.64428515778997,610.6924458531213 250,600,C 259.54732203331827,615.2338855552556 273.30008004527116,627.8006171246263 289.32657811460325,635.947640308109,C 305.35307618393534,644.0946634915917 323.60056175690744,647.7953606276271 341.53979539959295,646.6093912217614,C 359.47902904227846,645.4234218158956 377.0465508415738,639.365818440894 392.0172778339295,629.410922136117,C 406.9880048262852,619.4560258313401 419.32383948838793,605.660164033295 427.9005563921593,589.85945030666,C 441.2475123715053,565.2706206976388 445.2609187340964,536.1865681417567 441.56715882423765,508.4537732378094,C 437.8733989143789,480.72097833386215 426.85272053398114,454.35165036317375 412.5184152499058,430.32500957676723,C 383.84980468170227,382.27172800387774 343.0397548948037,342.6880770221778 310.7592246809235,296.98277677214696,C 288.56160043457214,265.55364366017443 270.1859164788511,231.1490673381317 259.3382660611486,194.23222279844202,C 248.49061564344615,157.31537825875236 245.15606492822585,118.17147132837206 250,80M 250 , 80C 256.2293774475718,119.00383092235982 253.55803181739248,159.35094725763184 242.6529590675806,197.3138680926474,C 231.74788631776877,235.27678892766292 212.60950649193737,270.52933731229564 189.31393006091704,302.4263605080554,C 157.16363100088822,346.4475435813705 116.83282454319445,384.20840817782766 86.64084781648052,429.59508937569865,C 71.54485945309536,452.2884299746371 59.18309926771934,477.1141057738695 53.17394151889207,503.6991879696536,C 47.164783770064794,530.2842701654378 47.801524310953745,558.672129076626 57.297420082164166,584.2202118952877,C 64.46604864425134,603.5069354032725 76.65800019031447,620.985881473887 92.6831866600446,633.8917072027973,C 108.70837312977473,646.7975329317076 128.51384655748197,655.020687189641 148.99974700103917,656.9428792069189,C 169.48564744459637,658.8650712241966 190.53772880368916,654.4520325136468 208.47036038951842,644.3630452730195,C 226.40299197534767,634.2740580323921 241.11961140553925,618.560863060375 250,600,C 273.2307598367685,615.3339465991425 302.93449706167945,620.4265794008843 329.9806426528611,613.845992074545,C 357.02678824404273,607.2654047482058 380.8707110214378,589.2295088083175 395.519914683795,565.5609864007452,C 406.17677172916103,548.3428450200856 412.1254892998749,528.3843126095439 413.6649309690039,508.19364362515665,C 415.20437263813284,488.00297464076937 412.4335929636123,467.6173991277439 406.8639567097046,448.149164829562,C 395.72468420188807,409.21269623319444 374.00238015458575,374.2726822790215 352.27391886360016,340.096580267741,C 326.97130230384096,300.29878726629164 301.56331365720536,260.28023144887175 283.16650014847113,216.85622903912986,C 264.76968663973776,173.43222662938933 253.1855344133203,127.05251431175401 250,80M 250 , 80C 254.26717501121877,128.54455451070316 246.52354830916613,177.97836603431503 228.508502514899,223.2579495157193,C 210.49345672063262,268.53753299712275 182.23035963566096,309.01404755343043 151.35673487682405,346.7181832611937,C 124.63538547316158,379.3513901515462 95.85068650694566,410.64637850986935 74.26604563059932,446.8825480665474,C 63.47372519242495,465.00063284488607 54.5924973707967,484.371537269853 49.32741402309074,504.7925576610336,C 44.06233067538477,525.2135780522142 42.49411233376184,546.7058778384979 45.954901843346164,567.5088130267269,C 49.80920913527877,590.6771983236399 60.057802740048494,612.8934136436468 75.98288927783477,630.1567094104139,C 91.90797581562106,647.420005177181 113.46116584131467,659.517241741846 136.59252394081142,663.5878724595243,C 159.7238820403088,667.6585031772022 184.23215489745235,663.6134536116803 204.73361455507865,652.1539634889214,C 225.23507421270494,640.6944733661625 241.54755240094062,621.9131442643917 250,600,C 274.8608174534292,613.8672414023212 305.5514362095692,616.7762187624518 332.6213878339375,607.9683616100373,C 359.6913394583058,599.1605044576228 382.59760193950154,578.903448977918 395.68546285816507,553.6236442884687,C 406.6688519139811,532.4087236925967 410.91605548358797,508.01746065013316 409.4280494136001,484.1743583147354,C 407.9400433436122,460.3312559793376 400.91839749914374,437.0646656793258 390.99991008871757,415.33148140895736,C 371.16293526785466,371.86511286819933 340.6195087147428,334.33090795048804 314.6763220765146,294.20882137440617,C 294.0653197976467,262.33315284592834 276.13561782972727,228.48002867435278 264.63238050049506,192.30618190594495,C 253.12914317126294,156.13233513753718 247.99558912022528,117.9058570157954 250,80M 250 , 80C 244.38694836044343,126.89254956813039 231.17478565001844,172.78743409945866 211.85459408275713,215.88207125435554,C 192.5344025154962,258.9767084092512 166.89562345571957,298.872536804121 141.56878043162524,338.7344055026737,C 118.87696800860114,374.4490046920895 96.3186242019465,411.1256884939102 85.42477651345556,452.0130340771379,C 79.97785266920816,472.4567068687537 77.62247706757262,493.85517609316616 79.97044694345392,514.8813448844044,C 82.31841681933524,535.9075136756426 89.48360596326717,556.5110864356421 101.61428380999918,573.844850930249,C 117.6973970910202,596.8263282619849 142.75140276771702,613.5767378772684 170.3461520936087,618.6110841903909,C 197.94090141950034,623.6454305035134 227.52350264732533,616.7815940814469 250,600,C 270.46084577338394,624.5243425638188 303.20500405427885,638.1797590426227 335.0432653846261,635.6470325650401,C 366.8815267149734,633.1143060874576 396.7420131843933,614.6564099710914 414.4764983382998,588.0936988090958,C 429.8850311866995,565.0147989182802 436.33323128773424,536.5525806752277 434.77966268671224,508.8461747496584,C 433.22609408569025,481.1397688240892 424.0610553069485,454.2559006166218 411.2068074738374,429.6626735539637,C 385.4983118075826,380.4762194285543 346.36117856867344,339.7942699417328 314.8604504522119,294.1003081197851,C 293.2650219440092,262.7746612289057 274.9785980388573,228.92417830871247 263.4844426784997,192.65376229046257,C 251.99028731814215,156.3833462722127 247.25660615707636,117.94907740390485 250,80M 250 , 80C 224.57379385883104,157.89026290285042 183.88823241562017,229.68992413985757 142.35738290792767,300.31975886271226,C 119.14121811222272,339.8025506152739 96.26919921915557,380.350759681326 85.64107823874473,424.90324779168,C 80.3270177485374,447.1794918468591 78.2592649981518,470.3624027459189 81.09700383931856,493.0872245575156,C 83.93474268048533,515.8120463691123 91.79138503565035,538.0268127713991 104.83428099212993,556.8510830937233,C 120.42027014045739,579.3456942558353 143.51955450571916,596.685774396198 169.71521527965646,604.605240646091,C 195.91087605359377,612.5247068959841 224.89669319634316,610.8974573450814 250,600,C 264.8791871492444,610.1874730679282 282.3542298321993,616.5474169186987 300.2997228662407,618.3177551624171,C 318.2452159002821,620.0880934061356 336.61442020193806,617.2636931733257 353.2324543498838,610.2625676359773,C 369.85048849782953,603.2614420986291 384.67237976593384,592.1132831647656 396.1892705250358,578.2375473293256,C 407.70616128413775,564.3618114938856 415.90318763198957,547.8139022366174 420.40915659388304,530.3533449303212,C 425.98505369320515,508.74683328763723 425.9117679950287,485.8724777139304 421.59012238168805,463.9805761743117,C 417.2684767683474,442.08867463469295 408.8123962826194,421.1621630993308 398.2728620440142,401.4936554828151,C 377.1937935667978,362.1566402497805 348.32751316228484,327.63186041525194 323.12934800778817,290.7973607151354,C 301.7970341609093,259.61393512926196 282.94710132771206,226.5104292102351 270.0688804198042,190.9910672849615,C 257.1906595118964,155.47170535968797 250.23009047434275,117.78122157507698 250,80M 250.7871890524709 , 575.3832882393938C 251.03243059862612,583.5946240689857 250.76936544918752,591.821109101602 250,600,C 244.30618166471618,660.5292569464409 209.20696402195807,717.6067535689284 157.7590476464687,750M 250.9999676701528 , 576.0080410602014C 250.59897763792787,584.0023491465467 250.26563916833416,592.0000505865601 250,600,C 248.33956292452413,650.0054743105393 249.32664681851557,700.098755387326 252.9557373946369,750M 250.17575732638647 , 575.0155664764843C 250.04806857478889,583.3430337218308 249.98948011016566,591.6715605020196 250,600,C 250.06326538686008,650.0862608903465 252.62797311001927,700.1692793565999 257.6813692595844,750M 249.84989483182386 , 575.0113299648078C 249.7667011451801,583.340976628733 249.8167447344954,591.6719538760282 250,600,C 251.10950952163483,650.4217242856157 257.1168342726892,700.7344933640262 267.90994073997047,750M 249.05058381983864 , 576.3140205675553C 249.76008662226386,584.1870510310449 250.07708229145373,592.0954404786838 250,600,C 249.47029808779143,654.3193542205585 229.6556029526302,708.2561357258476 194.89466765860453,750M 249.75359299827286 , 576.9691664405559C 249.49522067257536,584.6447200451124 249.5774640453262,592.3317314364901 250,600,C 252.99978578498087,654.4407233935652 273.67641470530896,707.7670133306063 308.1606997544915,750M 249.02505784227125 , 575.7775414890745C 249.18131764181746,583.857308761083 249.50639291496955,591.9338107919301 250,600,C 253.12098451883168,651.0009933159707 263.0171959709734,701.5832378364034 279.3468930035642,750M 249.00066959132954 , 576.0365887182962C 249.86288962577402,583.9905992960965 250.19697623899756,592.001818455372 250,600,C 248.51795332791897,660.1782143939863 214.79005962045215,718.6141051345622 163.42334322274482,750M 250.17197049274313 , 576.9851021011173C 249.656770223634,584.6441986650575 249.59931052030933,592.3340597814804 250,600,C 253.1097534483441,659.4954078847921 285.5527744604507,716.7541878986192 334.99051412972517,750M 250.64982972053988 , 576.7600798210077C 249.94976270052518,584.4831220447612 249.7325895517782,592.2499053764117 250,600,C 252.0604610637368,659.7163211773054 284.8429949438636,717.5550641446885 335.018792417257,750M 249.19859304482216 , 575.4018805368553C 248.952646837279,583.6072681337548 249.22047907707596,591.8280221315105 250,600,C 255.82003405399516,661.0133584416163 291.9494395998041,718.3872068495762 344.45785810525274,750M 250.6451629395993 , 576.764045012658C 250.90350048326772,584.5128639491444 250.6879110676249,592.2774543342265 250,600,C 244.48232441274,661.9418754791327 206.49476019017158,720.0749376234859 151.9811717601263,750M 250.34711806111991 , 576.9378214391047C 250.39834282243206,584.6265184924376 250.28260043581605,592.316327483047 250,600,C 248.12535147595614,650.9701455397569 238.8592727619908,701.6626048960193 222.5814879620139,750M 250.99780519100614 , 575.9337821715757C 250.26552531270653,583.9326244798483 249.93237232850606,591.9679928666103 250,600,C 250.45576720771066,654.1305856409001 269.75196437166744,707.9224622986826 303.80793075890494,750M 250.77466769010087 , 576.63236853963C 250.69521604710468,584.4261369974488 250.43690284688225,592.2180815193133 250,600,C 247.12515937189582,651.2053779748029 236.46146796229692,701.9663770411734 218.48852975985747,750M 249.29257685288408 , 575.2932097263512C 249.93640498526725,583.5103724692912 250.17259899911102,591.7594607097888 250,600,C 248.8670022430148,654.0936655498889 229.54149381114547,707.6477723270517 195.87107433530102,750M 249.65634265941478 , 575.0609048864668C 249.41231956912867,583.3737225207948 249.52701406471695,591.6970626525782 250,600,C 253.05027111031103,653.5453763681311 271.3597350491504,706.1370469762317 302.22156967196406,750M 250.384999677968 , 575.0770832930516C 250.52101476603343,583.3860019609398 250.39259493708403,591.6992470974533 250,600,C 247.548453046264,651.8337950129966 234.66696273630944,703.1528742478588 212.34882668782214,750M 249.00046734386524 , 575.9694309090718C 249.54772457897275,583.9688041630576 249.88106090982035,591.9828111890271 250,600,C 250.75426875318405,650.8421159045358 242.80648839231424,701.8021859016441 226.6058591717373,750M 250.89028586796448 , 576.4554021006788C 251.01166805605064,584.311984430211 250.71434514479276,592.1750188146926 250,600,C 244.73069386934526,657.72030737881 215.72956659767365,712.9155719781418 171.18582776386577,750M 250.45979230379663 , 575.1119735153896C 249.8362516273072,583.390396891595 249.6826588908819,591.704194361522 250,600,C 252.147314454567,656.134244344476 276.81787082144723,711.0909286833819 317.33636680501576,750M 250.93774865634322 , 576.3473146376508C 251.07885760225602,584.2408256204255 250.76558556758945,592.1424363757906 250,600,C 244.18409663977198,659.6913429665782 210.8140805142305,716.1339226757603 161.31690924437115,750M 250.91303619040232 , 576.4078785542482C 250.0945090899989,584.2407743678026 249.78929458264818,592.1272719679141 250,600,C 250.8081575736777,630.1957342369222 259.3494936759245,660.1529011922311 274.58704732253466,686.2345507496768,C 289.8246009691448,712.3162003071226 311.7265058884886,734.4677879545989 337.6337611222533,750M 250.97534627221827 , 576.2206799702508C 250.653273255833,584.1472443794046 250.3281577998287,592.0736851678249 250,600,C 247.9297315872878,650.0052085759677 245.73837632773157,700.0054040282164 243.42595991954965,750M 249.6671141959776 , 576.9429671476146C 249.29866532117467,584.6255994812151 249.40991498641407,592.3312064949323 250,600,C 252.40124906723025,631.2068309258016 262.88445481027,661.7574989810726 280.14974667507704,687.8638581745232,C 297.4150385398841,713.9702173679739 321.42470157291666,735.575239985747 349.2016451060998,750M 249.6927402925948 , 576.9516256996347C 250.00335756491882,584.6297600983485 250.105827624367,592.3163139413106 250,600,C 249.29434741822428,651.2343817344369 239.23045708864808,702.3253874304252 220.4530468940258,750M 249.67368721802183 , 576.9452618517203C 249.33930010373524,584.6279296089596 249.44831208872372,592.3298735956389 250,600,C 254.26851941887514,659.3452980082541 286.5838723024969,716.0670430040109 335.45757774035127,750M 250.9998288251982 , 576.0185018999779C 251.06377624545573,584.0223125747542 250.7299520147162,592.0292883224624 250,600,C 244.85180036657758,656.2157705015296 219.2698467682539,710.338076139839 179.0996014583605,750M 249.28745784296135 , 575.2983707001252C 249.91395586025752,583.5148894835811 250.15182367553473,591.761029781817 250,600,C 249.01207285401625,653.611548428316 231.03804791434868,706.7844297154948 199.29551162764923,750M 250.99226007669617 , 575.8758229481953C 250.97538818971682,583.9260387828481 250.64429920031904,591.9755911005524 250,600,C 245.7069892084963,653.4671996856559 227.21612001926596,705.7297405886371 196.9289029874485,750M 250.89762309592618 , 575.5592361429746C 250.56050580863896,583.7047062561758 250.26129379040498,591.8517451570574 250,600,C 248.39722350834703,649.9814070974433 248.2215346170383,700.0085684050878 249.47321948702518,750M 250.99994828015622 , 576.0101703988436C 250.55584964474903,584.0016499335263 250.22249088666734,591.9992833723114 250,600,C 248.6059188599106,650.130809063369 251.57516962335228,700.3821983797889 258.86319006449287,750M 250.90128941476513 , 576.4332174867574C 250.22407902212524,584.2683610249759 249.9231878262542,592.1360195784608 250,600,C 250.5273676972322,653.9915620629504 269.4597109831149,707.6370954638675 302.9373335084381,750M 249.48615453256457 , 576.8578827633168C 250.16856856726935,584.5492635281054 250.34035235832113,592.2859098231932 250,600,C 248.61160178658562,631.4680617241113 238.51391839004054,662.5075189150069 221.1217850760735,688.7692830800565,C 203.72965176210647,715.0310472451062 179.09198964464767,736.4412485068467 150.660900741505,750M 250.42414696969269 , 575.0944066320359C 250.705715950139,583.3962922212877 250.56408908275,591.7125161276477 250,600,C 246.2275124143939,655.4246323505172 222.8928762140415,709.3222642504168 185.0584560643864,750M 250.0297185427472 , 576.999558306562C 249.66897977389172,584.6605665774733 249.6590597616835,592.3380850996488 250,600,C 252.42692150758,654.5399573624046 273.2145689103237,708.1021160134229 308.2154862489334,750M 250.96681859079712 , 576.2554639162173C 250.96072101142613,584.1789701925077 250.63810563329548,592.1022275234315 250,600,C 245.65642618200522,653.7599982820049 226.35944152123835,706.2342089039253 194.83866141464392,750M 250.9966898712116 , 576.0812976052796C 250.51656458198366,584.047119065033 250.1842583717962,592.0218497961966 250,600,C 248.8377747126433,650.3228581844057 253.59185009464446,700.779843174339 264.1330542727127,750M 250.99925782537468 , 576.0385201041984C 250.55139472096403,584.0203425801657 250.21826290473075,592.0086025813648 250,600,C 248.630337077726,650.1483326035783 251.79606518478735,700.4196525392205 259.4459269553121,750M 250.31353655328593 , 575.0504238683741C 249.74720855328016,583.3525904090566 249.64248137753037,591.6862236554375 250,600,C 252.40456699674692,655.916058521312 276.6035708415661,710.611611909012 316.36463756008305,750" stroke="hsl(210,80%, 90%)" fill="none" stroke-width="1"/></svg>