<svg viewBox="0 0 500 800" width="500" height="800" version="1.1" xmlns="http://www.w3.org/2000/svg">
<rect width="500" height="800" fill="hsl(210,80%, 20%)" /><path d="M 250 , 80C 246.98808596896353,127.558179433069 235.1471331417044,174.45090917953556 216.0941442054082,218.12968743295878,C 197.04115526911258,261.8084656863808 170.62028333986746,301.8072944024328 143.70730736354278,341.1334152537956,C 118.71937841533972,377.646594417139 93.08584134354217,414.6703201475824 79.66959390282406,456.83206999675593,C 72.96147018246161,477.91294492134585 69.51657474274309,500.19133524900684 71.25243839374106,522.2455636149923,C 72.98830204473902,544.2997919809777 80.05024404477021,566.0742664616344 92.66592775877213,584.2469584983735,C 109.86828142962186,609.0266757657291 137.75981138037272,626.4159527547205 167.7536798751152,629.6289283828844,C 197.74754836985767,632.8419040110483 228.9927788352784,621.6483721929283 250,600,C 263.23173702930075,615.7646581663414 281.6126544553074,627.1302841355442 301.62327812592986,631.9446638699321,C 321.6339017965524,636.75904360432 343.14464181561345,634.9953048153312 362.16744203040514,627.138054411896,C 381.1902422451967,619.2808040084611 397.60775832639,605.4172512111702 408.9228436078784,588.2250391083953,C 420.2379288893668,571.0328270056204 426.44290521379116,550.6597506637759 427.5294508738625,530.1068255570488,C 429.3614504433355,495.4530127163885 416.79480443719774,461.32482536971617 398.61475958928213,431.7659191628581,C 380.4347147413659,402.2070129560001 357.02562049112646,376.290694872605 334.8393942463403,349.6070981916244,C 303.4845060206348,311.89625984710887 274.5754357037101,271.1820537847083 258.35729530107295,224.89805799595837,C 242.139154898439,178.61406220721022 238.77560751169472,127.74148466020804 250,80M 250 , 80C 243.8798655614134,155.7858029795139 212.1469827448377,227.65223511823186 169.02068205979347,290.27065228138946,C 137.41528352138042,336.1609790390593 100.138440940032,378.8445335837471 77.28023230550295,429.6611214731162,C 65.85112798821059,455.06941541782516 58.38450908425476,482.5852807855074 58.457005773446426,510.445657145247,C 58.52950246263807,538.3060335049867 66.48684006356535,566.4221134433908 82.88573368959071,588.9450376433829,C 101.75334956304529,614.8586079026277 131.98463680893545,632.5018135747159 163.95465666055955,634.8294482143912,C 195.92467651218362,637.1570828540665 228.70036683860076,623.9546588270189 250,600,C 271.29290485611443,619.5829536631073 302.2116467915014,628.0803155298506 330.5595187950437,622.3116047333441,C 358.90739079858594,616.5428939368375 383.76556110598705,596.8659367043138 397.18417077312654,571.2374216091332,C 406.703305407234,553.0566046903201 410.72604773762725,532.2229483625064 409.91601711630756,511.7168546728201,C 409.10598649498786,491.21076098313387 403.60410766606816,471.0618422989768 395.38151498021125,452.25905001856916,C 378.93632960849385,414.6534654577458 352.3369947678195,382.58697441101356 327.51768950564997,349.8971258586781,C 298.1493619147599,311.21569738836104 271.01916313168596,269.9682113144914 256.1283736803911,223.7403413277907,C 241.2375842290992,177.512471341092 238.6718826109989,127.2273790338913 250,80M 250 , 80C 264.0681840791845,125.41273033280137 263.84646017309456,174.94137770663863 250.55022395730606,220.58609242871256,C 237.25398774151944,266.23080715078356 211.03110113194785,306.9948192038089 182.05131869313354,344.6830413609262,C 158.4953328976986,375.3176131580958 133.02196318466298,404.9727843872521 115.7860663551399,439.5601421422571,C 107.16811794037605,456.85382101976046 100.74504900311992,475.3682785002817 98.25434596532914,494.52909169741076,C 95.76364292753834,513.6899048945398 97.31030128711072,533.491918267972 103.8240471367327,551.6828907269767,C 113.89141517718451,579.7980826589892 136.58443991388182,603.4759812661938 164.85333346294422,613.1033160036792,C 193.1222270120066,622.7306507411646 225.98455846770898,617.7503375924213 250,600,C 256.13855529302674,621.4867333148113 270.08187211572357,640.6479114410453 288.62630256541206,653.1164987276643,C 307.17073301510055,665.5850860142833 330.1464446298585,671.2558239622081 352.3804479312017,669.01737208128,C 374.61445123254447,666.7789202003524 395.9047523081214,656.6995270997285 412.05687544555053,641.2570374111881,C 428.2089985829797,625.8145477226477 439.1572341017241,605.2097373007729 443.8271726942388,583.3567456710327,C 448.9759415983291,559.2630661642164 446.60629444270273,533.8837603453759 438.9814913664911,510.45562359799663,C 431.3566882902795,487.0274868506174 418.6699085530408,465.4905203157731 403.8168142420292,445.8334400953257,C 374.11062561998466,406.51927965442513 336.2650128805226,374.0914398478947 304.75498223850525,336.2076857762549,C 275.369104430529,300.8777497090783 251.46611151193142,260.17483063924055 240.8991604022508,215.45264664402714,C 230.33220929257072,170.73046264881378 233.28198743003009,122.80469895661471 250,80M 250 , 80C 262.10846728944506,120.05917909894735 262.70392323331686,163.4337742161705 252.30321198672672,203.9699064409666,C 241.90250074013676,244.5060386657626 220.59540649413577,281.62770815122377 194.4551891376026,314.3086176663258,C 166.61343307962352,349.11681753942065 133.34618402863245,379.30603009927387 105.66495879645079,414.2420277012111,C 91.8243461803568,431.710026502178 79.45026581952563,450.4919077149329 70.62871799990133,470.95831516141556,C 61.80717018027704,491.4247226078982 56.63372906543996,513.6326598793981 57.11512994200283,535.9140824752604,C 57.61018928507604,558.8276810372735 64.23804624757169,581.7236820798214 76.98518957452504,600.7706876139298,C 89.73233290147839,619.8176931480382 108.58818003279615,634.8065313959906 130.2098544818969,642.4079310586416,C 151.83152893099845,650.0093307212921 176.044130654134,650.1060254913058 197.65980388747312,642.4875772579855,C 219.2754771208122,634.8691290246653 238.10855839814474,619.5926440136072 250,600,C 272.61516464209495,616.9393058313196 302.0839030062442,624.3929387654423 330.0501023781058,620.3584070045896,C 358.0163017499674,616.323875243737 384.0086550053086,600.9280184627889 401.69726232390303,578.8939783211216,C 418.19315485674275,558.3456586205007 427.4856985823811,532.4569924024311 429.65274749579294,506.19576981130245,C 431.8197964092048,479.93454722017384 427.1210679156272,453.4049606572628 418.42026783591996,428.5324056830168,C 401.01866767650404,378.7872957344861 368.929138415153,335.80431865796015 340.03713530009264,291.72888550184774,C 297.6647544642066,227.08881773780067 263.0184487494045,156.18580583285242 250,80M 250 , 80C 249.42174415973594,156.11817494883977 219.54642746166502,229.85512605251859 175.38221526884595,291.8537816729966,C 142.95679652244152,337.3732706526958 103.53858387229158,378.10214883024634 76.20302471240934,426.84841908007377,C 62.53524513243923,451.2215542049982 52.16654907948823,477.7629323182668 48.76065391198225,505.4984292954697,C 45.35475874447625,533.2339262726726 49.2321736140336,562.1557074351539 61.97495405724977,587.024954730568,C 70.69405688978452,604.0414548187812 83.48857723369578,619.0110075897817 99.20195717143072,629.904754437807,C 114.91533710916565,640.7985012858323 133.50655516934964,647.5513276250826 152.56783763041736,649.0518410025189,C 171.62912009148505,650.5523543799551 191.08888117410154,646.782091767622 208.17296272003648,638.1961621622551,C 225.25704426597144,629.6102325568881 239.90548314810738,616.2383730399116 250,600,C 262.4225177876681,609.5057571421021 277.3097115593882,615.7596586067378 292.79263580940625,617.9861858798154,C 308.2755600594243,620.212713152893 324.3119999300911,618.4054899998896 338.93609725654153,612.854441052523,C 353.5601945829919,607.3033921051564 366.73047297782887,598.0334728096032 377.0363007250214,586.2662181818341,C 387.342128472214,574.4989635540651 394.7682838402063,560.2833494001702 398.90577009836977,545.1982715252283,C 404.0746209906661,526.3528873066319 404.10619659747056,506.27140279000884 400.17812118343653,487.1288912140694,C 396.25004576940245,467.98637963812996 388.47017005950505,449.7749692411089 378.67749865639763,432.86434794311765,C 359.0921558501785,399.04310534713176 331.9565448569324,370.3541350228377 307.5134003551224,339.85831907314895,C 278.28604202532625,303.3936105224483 252.79466604911582,262.85872232408497 241.28046845555758,217.56703767444594,C 229.76627086200222,172.2753530248078 232.47248494719912,123.32089173481477 250,80M 250 , 80C 261.1303433251595,120.51937947006427 261.2768966929382,163.9137275831084 251.0044524216073,204.65905300661422,C 240.73200815027664,245.40437843011992 220.0915080066909,282.979365772585 194.7992708443964,316.53539942528636,C 163.0517647642751,358.6558483036503 123.69174485043372,395.0253228507867 95.7290043079546,439.74804076211456,C 81.7476340366804,462.10939971779214 70.86304035697587,486.74504260644045 66.78475708740922,512.8003049267531,C 62.70647381784256,538.8555672470658 65.77511788977849,566.3260047361522 77.62838211107677,589.8846383193468,C 85.55515273790901,605.639276131236 97.33115747376222,619.4943546640496 111.84166649988441,629.5186966852023,C 126.35217552600659,639.5430387063549 143.5572201069095,645.6741230858161 161.15268736355355,646.8748883312275,C 178.74815462019757,648.0756535766388 196.66453031199663,644.3290901212204 212.26881026282098,636.1102853193943,C 227.87309021364536,627.8914805175682 241.10741022206835,615.2303694044381 250,600,C 279.5144251672848,614.3214820073558 315.2193880629066,615.1255357496359 345.43278954847426,602.3444360115786,C 375.6461910340419,589.5633362735214 399.6713873690388,563.6404506457641 411.68833715016416,533.1150668185264,C 419.55630718845947,513.1288964729199 422.53252244737837,491.36351219941076 421.4249821465137,469.9129804556737,C 420.317441845649,448.4624487119366 415.21388152910595,427.3358754137941 407.7232863879328,407.20522857773483,C 392.74209610558427,366.94393490561407 368.76731029231246,330.7675502422089 345.77337873836166,294.4813690967521,C 303.617055215901,227.9554690707622 266.6822295359136,156.97112578694333 250,80M 250 , 80C 233.72211332770388,158.44876249224518 194.95917069668042,230.59748411557317 147.83684943105953,295.3945887547499,C 116.47079980650497,338.52551153301033 81.78633682245334,379.9942719503668 59.61250163131437,428.496092551974,C 48.52558403573463,452.747002852782 40.83333289625931,478.7802164989693 39.37923890486443,505.4056179579746,C 37.92514491346956,532.0310194169798 42.92977402760065,559.2224473363817 55.45735487706685,582.7614810941445,C 64.6380837937656,600.0118577221352 77.80578826418437,615.1810540575844 93.85270924387584,626.3326281312735,C 109.89963022356731,637.4842022049625 128.78823963888343,644.5587894721059 148.23611927531843,646.4669967187568,C 167.6839989117534,648.3752039654078 187.62658170164622,645.0992368927161 205.40787993110374,636.9945030584361,C 223.18917816056126,628.889769224156 238.75446485369707,615.9812144883516 250,600,C 277.92809732743905,618.0283743417374 314.8625910586787,621.0744534009942 345.48160703661085,608.1331720780396,C 360.7911150255769,601.6625314165623 374.4868471346935,591.4737251637612 385.2474438570028,578.8064530180304,C 396.0080405793121,566.1391808722997 403.82017526256556,551.0404488370857 408.3454016287362,535.0475581737599,C 417.76287042374923,501.7646820087435 412.576740369964,465.66745065677355 399.94469787213916,433.46698378664877,C 387.3126553743138,401.26651691652364 367.9197084541181,372.23119400870837 348.583630589763,343.55098032149033,C 321.8955539033587,303.96592343268037 295.40133336365255,263.8233631294862 277.36385183954906,219.6206547692811,C 259.32637031544715,175.41794640907813 249.59218314990125,127.7395418026425 250,80M 250 , 80C 246.61781098656522,127.40510132521389 234.53191034928395,174.0878493708517 215.324572692573,217.55923092604831,C 196.1172350358625,261.03061248124396 169.64202178338957,300.8388854685865 142.5193989714553,339.8651095490409,C 116.77563527580895,376.907319575222 90.19300029732766,414.33030679414406 75.97585293007266,457.14081267271024,C 68.86727924644129,478.54606561199665 65.06741281568924,501.2167546368065 66.5842319956649,523.720441729941,C 68.10105117564055,546.2241288230754 75.08825121426811,568.505763123691 87.82308665411624,587.1213651695674,C 105.51030304710523,612.9762875379264 134.71913730161228,630.9730413569781 165.92777869285922,633.6814240697494,C 197.1364200841061,636.3898067825206 229.34829385970158,623.5546527866799 250,600,C 262.1031660561235,609.0983093676233 276.4886772354863,615.1338326827521 291.45919810608353,617.4030543101154,C 306.42971897668076,619.6722759374787 321.9492239990667,618.1692489911964 336.2271111687622,613.1286339592259,C 350.5049983384576,608.0880189272555 363.50498269552253,599.530076998413 373.9053607622783,588.5256234454362,C 384.30573882903406,577.5211698924593 392.09119841096333,564.1117478778989 396.81421732874696,549.7256798176769,C 402.73290337695624,531.6976723506689 403.82895203223006,512.2431516108815 401.05291483369695,493.47260246494204,C 398.2768776351638,474.70205331900263 391.7263146547835,456.6173935971727 383.07414300701276,439.73012550712093,C 365.7697997114684,405.95558932701476 340.5680629431859,377.0152050545166 317.1852828383002,347.1253207182079,C 287.5659051124245,309.26327991857926 260.73268902441066,268.17573577253154 247.45081354723067,221.9758066146905,C 234.1689380700544,175.77587745685148 234.63272050597328,125.54874741782729 250,80M 250 , 80C 260.32758848880434,120.3479911051939 259.9198185764662,163.29360884584233 249.51315699202553,203.62127757198886,C 239.10649540758521,243.94894629813504 218.7251711361531,281.100295102539 194.58733134671698,315.0411872610897,C 168.50678265717949,351.71377678149975 137.8430810618416,385.43208743173966 116.84260199450787,425.2322598060185,C 106.34236246083164,445.13234599316246 98.44646172085957,466.61069358300796 95.68961028868983,488.94157423517396,C 92.93275885652011,511.27245488733996 95.5035022787698,534.4442192822833 104.585500698506,555.0302768267537,C 116.28169569086245,581.5419025764985 139.22377060144737,603.1523919353301 166.84187456916507,611.9220903578582,C 194.45997853688272,620.6917887803862 225.9964322805116,616.2325603011259 250,600,C 276.6036834596453,611.5987430525976 307.7114693814186,612.3805442382284 334.9136751188677,602.2648723851738,C 362.1158808563167,592.1492005321194 384.97905887411656,571.3640488037295 398.6058767135305,545.7399068748255,C 409.3681964906686,525.5022246291592 414.52376075677773,502.4932045928597 414.73088459307917,479.57272446310736,C 414.93800842938055,456.65224433335504 410.3253009631532,433.8506957734449 402.84714553312017,412.1834739620035,C 387.8908346730509,368.8490303391138 362.2212349429022,330.17972260134724 338.19096590465574,291.13985312669445,C 297.9522913307897,225.76760944949865 263.8503894061215,155.50395942035726 250,80M 250 , 80C 229.87767786231564,164.78580099879457 185.65480326276747,241.73299945201967 135.78279833631936,313.1915400461031,C 106.7959598058946,354.72500518100924 76.44699958629434,396.3739035727721 59.92667258983722,444.25233640041915,C 51.666509091602165,468.19155281424804 47.13321845751665,493.62055902936726 48.73658501587834,518.8939758780095,C 50.33995157424003,544.1673927266518 58.27516102125339,569.2194443146537 72.85806373722639,589.923437453712,C 92.5896604823603,617.9372596392158 124.93912033369949,637.0822107968912 159.13382528783077,639.2804593391421,C 193.32853024196203,641.478707881393 228.23644858993762,626.4661665825478 250,600,C 271.39530262618456,622.971785515723 303.57025284886544,635.3934387127986 334.86494109124925,632.9227319195097,C 366.15962933363306,630.4520251262209 395.7206633287531,613.2868127205243 414.4218295769382,588.0731599664281,C 430.973794768931,565.7571451676562 439.13239428176803,537.7727029432457 439.39152792152055,509.9895260555552,C 439.65066156127307,482.20634916786474 432.35715025947405,454.71846899784174 421.0786517502433,429.3261957716568,C 398.5216547317672,378.5416493192163 361.46735960540155,335.8558262210985 330.0803980667371,290.00010773101235,C 287.2420091906009,227.41408459997695 255.80378185567807,155.6204599895641 250,80M 250 , 80C 258.47548690858554,128.41356881423104 253.21273748120635,178.9951460908436 235.99125472413357,225.02913413571903,C 218.7697719670621,271.0631221805929 189.70829546392872,311.715901452676 157.83831240995346,349.13263171878873,C 133.63808786108706,377.5447357600967 107.80083671267782,404.77824387787507 87.22485258861666,435.9154788481811,C 66.64886846455481,467.0527138184867 51.67680320177316,503.1656208289867 52.21628799054131,540.483277245653,C 52.56081692060525,564.3152971753831 59.37750681923158,588.1923199891646 72.74135097099618,607.927860103437,C 86.10519512276079,627.6634002177093 106.0080615144513,643.0085592992018 128.69885856396257,650.3031876908743,C 151.38965561347518,657.5978160825466 176.65629554721932,656.7038910962312 198.6869010640366,647.6079417407685,C 220.71750658085386,638.5119923853058 239.29131226556825,621.2933764612659 250,600,C 262.9631065766316,617.2311925437788 281.7092180774611,630.026549887398 302.47310303850287,635.8418065388718,C 323.2369879995446,641.6570631903455 345.87169769869615,640.4563905022013 365.96698070406217,632.6374564615451,C 386.06226370942807,624.8185224208893 403.48285379748137,610.4768417008969 415.4141402049004,592.5157578454607,C 427.3454266123194,574.5546739900244 433.77699172085795,553.1405867578378 434.65339072988513,531.5955628921084,C 435.54785401454546,509.6064544876771 430.77502261185555,487.5848961224691 422.3113416640167,467.27019558806234,C 413.84766071617787,446.95549505365557 401.7932191683719,428.29259717877886 388.2508828068841,410.9453761084817,C 361.1662100839008,376.25093396788805 328.41707550256535,346.30812831620017 301.1560856854244,311.7520543761842,C 275.5661364511334,279.3141941299774 254.8708743030483,242.4284042046449 245.2098896043466,202.25719991827222,C 235.54890490564517,162.08599563189958 237.01633733871927,119.22352333822258 250,80M 250 , 80C 265.4724566527103,126.23815915738416 265.5213521135594,177.3021668460571 251.20080208731125,223.9099572257706,C 236.88025206106462,270.51774760548267 208.47332892980114,311.6273107484374 175.9318649118179,347.9373286043917,C 150.4652998461275,376.35311935535464 122.47063395082884,402.5910816072609 99.26372341040441,432.8803933098449,C 76.05681286997898,463.1697050124281 57.85385146763184,498.8017460038662 55.850562454723345,536.9067316799993,C 54.57791731496924,561.1139851060811 60.05423158341022,585.8337466711474 72.6550066486177,606.5419868629729,C 85.25578171382519,627.2502270547983 104.9896493078689,643.656646724439 127.89271856227086,651.5976896543292,C 150.7957878166749,659.5387325842195 176.62296484725863,658.8441492260805 198.9677935928558,649.4463105162322,C 221.31262233845297,640.0484718063839 239.9127279400929,622.0421797124469 250,600,C 270.12175090542826,624.0800107551754 302.455408463458,637.3128403876516 333.70492430111995,634.4493569528855,C 364.9544401387819,631.5858735181193 394.0116876463663,612.9229248615342 410.9501357678848,586.5066277572068,C 423.00895870237804,567.700332925429 429.1837512554483,545.3923868937766 429.8934206817628,523.0632958874107,C 430.60309010807725,500.7342048810449 426.00934759475865,478.4330489022508 418.2183746834501,457.49522005204597,C 402.63642886082965,415.61956235162563 375.1376912745674,379.4512381320525 349.0311767472091,343.190823866704,C 321.10300994112987,304.40024165401843 294.46456935246624,264.2170638876484 276.4932488472922,219.92571700309753,C 258.5219283421191,175.63437011854762 249.12491648726805,127.79043835740502 250,80M 250 , 80C 236.78629436060535,157.58388800267443 199.36840829511553,229.19495912424628 152.76012143797072,292.61048790528065,C 124.85245493961364,330.58183479177904 94.17731305351735,366.8889450793487 72.02485549837914,408.48136816368117,C 60.94862672080719,429.2775797058473 52.154830005921745,451.4321591111939 47.71474275464856,474.57197077077143,C 43.274655503375385,497.71178243034893 43.30156468693895,521.8543572126662 49.21763937146089,544.6614902803448,C 54.59024549311743,565.373490934659 64.85871717082509,584.879188371675 79.39704792791002,600.5791503601758,C 93.93537868499496,616.2791123486767 112.7147608296041,628.0734798307946 133.26893732047924,634.0213951315307,C 153.82311381135438,639.9693104322665 176.0637343014474,640.0235493245738 196.61207713216487,634.0555115772004,C 217.16041996288234,628.087473829827 235.93007061946636,616.1210717655362 250,600,C 273.6484306599051,613.6230712278859 302.4729868050222,617.9431352091547 329.0998173063239,611.9557952479249,C 355.7266478076257,605.9684552866952 379.78389955844267,589.8011251097137 396.05648681038906,567.8913271534525,C 411.0112071164482,547.7559365529837 419.4292541134153,523.1094479836651 421.51315190562224,498.114748864501,C 423.59704969782916,473.1200497453369 419.5494703372824,447.8575985250548 411.8278210298298,423.99436852493494,C 396.38452241492257,376.2679085246729 367.35180063722464,334.3455706710237 340.5765978971801,291.9262475447017,C 299.30208342413596,226.5360063087238 264.48860440873216,155.95755088318856 250,80M 250 , 80C 254.16946997801145,118.76695320512297 250.24494727120123,158.33129273447332 239.01789747846453,195.67047448310228,C 227.79084768572795,233.00965623173113 209.22095980064083,267.8000400857352 187.5495093970827,300.2131451223071,C 160.00219568411075,341.4145394095742 127.03062527949365,379.4130673802198 105.92902465648216,424.2587119308633,C 95.3782243449593,446.6815342061989 88.0583093890218,470.88455160379266 86.99296537551521,495.6427298109589,C 85.92762136200865,520.400908018125 91.3783675712004,545.6632202315205 104.2033813110515,566.8674973608533,C 118.68316207448991,590.807688795161 142.7326755503435,608.997352330083 169.97731971629943,615.3633700129818,C 197.22196388225535,621.7293876958807 227.07977379139396,616.0455616110769 250,600,C 258.98982352996927,621.8942320908467 275.8366377751922,640.4603541121982 296.7447634996573,651.5519998258786,C 317.6528892241225,662.6436455395591 342.4357728457342,666.1712281182641 365.6485048670271,661.5513365550893,C 388.8612368883197,656.9314449919152 410.3021471467442,644.2595183065719 425.96406090916815,626.5146941810353,C 441.62597467159213,608.7698700554988 451.46577661435634,586.169411104547 454.87387005344345,562.748069873561,C 460.910347166716,521.2637641084896 446.8778914916701,479.00374845484663 425.21928674435406,443.1109703351671,C 403.56068199703583,407.2181922154874 374.9515745922912,376.13624361267864 348.4194941066521,343.679574254091,C 317.91913629604755,306.36851493805585 290.0326971422799,266.3156452981117 272.11287687058876,221.58012232933567,C 254.1930565988985,176.8445993605601 246.25579074374832,128.04547711184608 250,80M 250 , 80C 260.1973498571424,120.21278589331774 259.8081925039325,162.97599537197135 249.4739656017749,203.15382318465305,C 239.1397386996175,243.33165099733463 218.89301250083446,280.4202733285507 194.36941990867913,313.8814074961898,C 163.87168273952253,355.4939433182443 126.39544622887105,392.2146139758687 101.0853296095177,437.1714055283745,C 88.43027129980868,459.6498013046488 79.09729039486744,484.32789155470465 76.681472232329,510.0104264783158,C 74.26565406979054,535.692961401927 79.10992019344768,562.3356739891042 92.34534718549239,584.4773146201688,C 100.28554381842534,597.760526449435 111.15152094738568,609.3185049745641 124.0741385267974,617.8329864013496,C 136.99675610620912,626.347467828135 151.95119019514217,631.784460976036 167.3402855760955,633.4173058635606,C 198.11847633800218,636.6829956386098 230.1965652385959,623.7862508171 250,600,C 263.5481834534264,616.5933404975816 282.4073549534145,628.7770635898745 303.0979200706873,634.3261841404008,C 323.78848518796,639.875304690927 346.1872430317525,638.7603607819333 366.2789699265983,631.329699025447,C 386.3706968214439,623.8990372689609 404.0390950000475,610.23015841646 416.6269759712834,592.8970260852751,C 429.2148569425193,575.5638937540903 436.7049784179894,554.7076660830651 438.8623028293983,533.3948020066368,C 441.17975990670504,510.49993861455926 437.44035255995465,487.20850197449164 429.640216772457,465.5589463498685,C 421.84008098495934,443.9093907252454 410.09525076515337,423.8487948275873 396.6726923261846,405.1570773570198,C 369.8275754482373,367.77364241588424 336.64862412085847,335.3307662868726 309.16955870232505,298.4108194841926,C 285.97292313484803,267.24460119734044 266.8082985379095,232.71592869528013 256.0908073870641,195.3722217637822,C 245.3733162362188,158.02851483228432 243.11401073350456,118.23611141023312 250,80M 250 , 80C 244.20481218071254,125.6690821217552 230.57367096711164,170.2670555798657 210.50773001224997,211.69901519198692,C 190.44178905738858,253.13097480410775 163.83660243773605,291.02583197459836 136.00344391338336,327.69413641130024,C 110.28000486745924,361.58302808234794 83.37368587197763,395.02961772998526 64.39069310186103,433.10583446078823,C 45.40770033174246,471.182051191591 35.24238332394796,515.2723049554305 45.18884368419289,556.6392026073395,C 50.404547732873965,578.3310897460806 61.08320484518726,598.7910430011148 76.5039210556115,614.9137923919869,C 91.92463726603575,631.0365417828592 112.04934861919705,642.6852985098817 133.80720681024118,647.6185675377908,C 155.5650650012854,652.5518365656995 178.83057868622092,650.7093084589487 199.483527824481,642.2714634582536,C 220.1364769627411,633.8336184575585 238.058674165987,618.8453249823199 250,600,C 273.2154170743441,617.7066954701494 305.10325281855944,623.3302508106384 333.03533821901965,614.8284122100911,C 360.96742361947986,606.3265736095437 384.03088196015625,584.1697001060086 395.13415936093264,557.1659987787874,C 402.4612748493502,539.3461037065948 404.8673837578855,519.6723572573818 403.14832608415196,500.48173135620436,C 401.42926841041844,481.29110545502687 395.6909378415723,462.5961499698833 387.6351147232196,445.0936074217168,C 371.5234684865115,410.08852232538 346.71060826244303,379.9668668812102 323.41734506504133,349.2689025077345,C 294.1523520283975,310.7008536252936 267.12782218255893,269.49806134813906 252.83819521840056,223.24072924545118,C 238.54856825424574,176.98339714276568 237.11194406161374,126.66725003856415 250,80M 250 , 80C 223.24827736747974,159.2859889466033 181.06664071679586,232.20635508094296 139.21508179765735,304.6657900986553,C 118.26560475942301,340.93653626225466 98.06395647360429,378.2706252661669 87.8376131489095,418.8892111308328,C 77.61126982421315,459.5077969954998 78.702421924173,504.2668996697658 98.40328761025631,541.2307131453637,C 112.35733436188778,567.4120388584463 135.45266946142988,588.8040399908889 163.05068918025407,599.6910296776954,C 190.64870889907826,610.5780193645019 222.3441939757544,610.7393496074269 250,600,C 264.7929427544171,614.5201371770474 283.6852440447995,624.8147726530517 303.9025832359368,629.3891288925942,C 324.1199224270741,633.9634851321366 345.5860494204079,632.8009338193374 365.22943290665233,626.1825485035616,C 384.87281639289665,619.5641631877859 402.6176915455468,607.5346382521572 416.2865216484292,591.9516788864183,C 429.95535175131164,576.3687195206795 439.5250060366706,557.3212236355905 444.4946560509221,537.1974039755065,C 454.8664255640535,495.19854718686656 444.7946133430668,450.32982862732524 425.871899352935,411.4272776873949,C 406.9491853628009,372.5247267474637 380.1135854152738,338.1288807342593 354.7672380753996,303.0712103765072,C 306.1978529383572,235.8927143675545 265.26694529321475,161.47917451735273 250,80M 250 , 80C 260.2067790567813,119.58388887025801 259.7610426259429,161.78396176845004 249.25029337575646,201.2882241588123,C 238.73954412557015,240.7924865491745 218.21978619525595,277.1197008179082 193.03380876629967,309.31797930845767,C 164.5847130005364,345.68789629318485 130.22035978108687,377.09729224223616 101.71102862021709,413.4200116906114,C 87.45636303977815,431.5813714147969 74.74083626510442,451.11560858009716 65.80235403231188,472.402553246147,C 56.86387179951932,493.6894979121969 51.809642871830086,516.7912941289051 52.76631373151263,539.8589177322946,C 53.73187743755475,563.1409691406117 60.971719877029905,586.2784636597777 74.36845530523622,605.3444991920164,C 87.76519073344255,624.4105347242552 107.30244292964346,639.1913731412425 129.471858231392,646.3679500570531,C 151.64127353314126,653.5445269728634 176.26058721607188,653.0016161501616 198.02035253163572,644.6650194547732,C 219.7801178471996,636.3284227593848 238.4915783713122,620.2618474642943 250,600,C 263.31619694020605,612.9260542754809 280.5458053458759,621.7628471233435 298.810211390874,625.0515325607894,C 317.0746174358721,628.3402179982354 336.284331842674,626.0664970458153 353.3262977307994,618.7197032722701,C 370.3682636189247,611.372909498725 385.16097021844934,599.0129957823955 395.7057941981902,583.7417591815399,C 406.250618177931,568.4705225806845 412.5363495522869,550.391516468149 414.4164388209283,531.9288719006727,C 417.9829245768412,496.9056631814551 405.67622705312516,461.8231812681349 387.20268541520466,431.8553113239926,C 368.72914377728296,401.8874413798502 344.58422365959643,375.91435823514746 321.99566934729415,348.9124660103934,C 290.7125768806732,311.51730208966774 262.38656553315667,270.4913162811328 248.18457991593036,223.85084283305133,C 233.98259429870822,177.2103693849717 234.17718330008637,126.11581757503319 250,80M 250 , 80C 249.8300921321408,128.16362900601666 239.77906978290383,176.147802731657 221.69241112912752,220.78676336532936,C 203.60575247535192,265.4257239989988 177.2911369776207,306.1499206701177 151.2227333504139,346.64933251821145,C 131.95124912933323,376.5891703216677 112.86023379897946,407.1381274492343 101.61856602578418,440.92287100986727,C 90.37689825258789,474.70761457050065 87.91491503951849,512.4977060182803 101.26622788905834,545.5056813723427,C 112.51364022124068,573.3122583915025 135.15955581008322,596.6212994304557 163.23629004061877,607.176251094981,C 191.3130242711543,617.7312027595063 224.07814764717023,615.0919707225625 250,600,C 259.4157574254948,614.3145240727174 272.7127642177682,626.0474952913574 288.08400964983525,633.6163063731142,C 303.4552550819023,641.1851174548709 320.85313699818886,644.566355050736 337.9454112738148,643.3762931149771,C 355.0376855494407,642.1862311792182 371.7671107575728,636.4387315715951 386.0893549188994,627.0347212830261,C 400.411599080226,617.630710994457 412.2920316198156,604.6212242329117 420.6946877965538,589.6894642395389,C 431.813930209537,569.9302529227139 436.7677253227987,546.9752207890549 436.2467984503659,524.308226747162,C 435.72587157793305,501.6412327052692 429.8982847401167,479.29635746214 421.00188170532874,458.44166981776993,C 403.2090756357474,416.73229452901944 374.0011157711505,381.1312468098365 346.73338258757025,344.89967684886693,C 317.8030158849422,306.45890884934715 290.73514018596467,266.0739441572753 273.09073869431086,221.315326462548,C 255.44633720265813,176.55670876782145 247.18022140795122,128.0281959960308 250,80M 250 , 80C 265.8685920514956,124.60219731420652 266.88083784996394,174.14185939646316 254.01237953735622,219.70029439602038,C 241.14392122475047,265.25872939557496 214.62269782533974,305.7633418054114 184.80481402951395,342.53373784475997,C 161.53022256015421,371.23516923548 136.20945730994825,398.576985221639 117.33117608269062,430.34315071019574,C 107.89203546906062,446.226233454474 100.15957734572402,463.2264146612892 95.6499406758013,481.143804819757,C 91.14030400587858,499.0611949782248 89.92726798151212,517.9092897887781 93.13826293750635,536.1043221981488,C 96.11396623303777,552.9660795801633 102.92400650995026,569.1979395833832 113.28544626052852,582.8293092287304,C 123.64688601110676,596.4606788740775 137.5458473713975,607.4194594081052 153.32223459190016,614.0737270899555,C 169.09862181240277,620.7279947718056 186.6946493086737,623.0379044961588 203.64055953475628,620.586415413478,C 220.58646976083887,618.1349263307972 236.82060979679966,610.9305693348856 250,600,C 272.1075741537951,620.7741487847809 303.2816559297362,631.4909357642418 333.502388664925,628.8418971374844,C 363.72312140011377,626.1928585107268 392.3395555127779,610.3251601890048 411.45335763791627,586.7673024549318,C 428.2831606364544,566.0244851893605 437.8140649559977,539.8122135625302 440.09249682350656,513.1980164995413,C 442.3709286910154,486.5838194365523 437.6595563293985,459.67265596918304 428.83359883931286,434.4613646205494,C 411.18168385913907,384.03878192324504 378.4230603462678,340.5969676792404 348.470666210713,296.36031959326806,C 303.72692186664585,230.27834752657137 266.07777613227216,158.16863056745626 250,80M 250 , 80C 261.2793293830469,120.57177897926249 261.33940574662404,164.09276643163835 250.90234421703548,204.8893381932579,C 240.46528268744737,245.68590995487705 219.57517004848583,283.14517663427404 194.8736787721443,317.24985152787434,C 169.58477493271332,352.16555091665384 140.17213368791897,384.3381355890961 119.29084957343376,422.0555943441309,C 108.8502075161851,440.91432372165013 100.6965217607328,461.21258249785444 97.09332921574848,482.46524547889913,C 93.49013667076419,503.7179084599438 94.58767354569126,525.9291421417192 101.68117783847464,546.2845069665108,C 111.68072067281142,574.9789764519242 134.27088708034287,599.3729193519321 162.7507564555892,609.9682237984291,C 191.2306258308355,620.5635282449261 224.69004602468584,616.8157564716112 250,600,C 272.64030134319864,617.0429722489533 302.1429898911461,624.6394755443785 330.2152176828676,620.7669860609667,C 358.28744547458916,616.894496577555 384.46131940807163,601.6759565447511 402.42886719599306,579.762185201639,C 417.943947500612,560.8395182813373 427.39928831329655,537.2716044867173 430.7096779833662,513.026473831929,C 434.0200676534359,488.7813431771408 431.3630137839209,463.9464710775203 424.8904303678837,440.34793925543664,C 411.94526353580915,393.1508756112538 384.7859707705432,351.31671764665833 358.33379918245896,310.1412057589132,C 312.2583917635077,238.4201192842587 270.18207809536807,162.82234684962557 250,80M 250 , 80C 257.552426115258,128.19015086749948 252.26717492173842,178.1792202824654 235.8655224897181,224.1173915386005,C 219.46387005769898,270.0555627947337 191.9728329661528,311.16879083255617 162.2917797514236,349.8775089839364,C 135.51715985020817,384.7957852279932 106.69453026545673,418.96880850143475 89.07107197177487,459.28729067129916,C 80.25934282492847,479.4465317562348 74.46074231651703,501.1047986017919 73.89615242419734,523.098497925267,C 73.33156253187765,545.0921972487421 78.17079066004169,567.3843171419024 89.06632512015167,586.4978960978827,C 96.98785793014243,600.3943087401827 108.06226933976704,612.5228357671217 121.36860150608015,621.3999124630041,C 134.67493367239325,630.2769891588864 150.18419113313257,635.8603289577536 166.111763958837,637.3345712264183,C 182.0393367845414,638.808813495083 198.33807046278213,636.1617792781325 212.9557523105743,629.6668317201023,C 227.5734341583665,623.1718841620722 240.4702156989614,612.8469520727881 250,600,C 272.00264860758176,619.2822991026578 302.3355531305763,628.6621816774334 331.3977225487989,625.2985655965466,C 360.4598919670216,621.9349495156598 387.6459054610595,605.9812001959646 405.5832139399064,582.8689400518816,C 422.213639327037,561.4406015524128 430.9336598790239,534.3925137003342 432.0225714434241,507.28976455915574,C 433.11148300782435,480.1870154179772 426.8860318716566,453.13390937823976 416.6598565920252,428.01081087198475,C 396.2075060327558,377.7646138594141 361.16815201668595,335.1148222733663 331.0154952414878,290.0171921025646,C 288.8457538626076,226.9462854398353 257.0928758395571,155.53752357302284 250,80M 250 , 80C 264.7518370122863,124.20868941909472 265.5321114802651,172.78494619760662 253.27942222563243,217.75044988010134,C 241.02673297100125,262.7159535625942 215.89493558213195,303.121799564452 187.3763038843166,339.9825179713848,C 161.84800194981534,372.9781945867835 133.4290115371238,404.28559483441177 114.50704785771343,441.46580684943535,C 105.04606601800293,460.0559128569498 98.13662213403755,480.1164420564734 95.94335413459618,500.8599180001185,C 93.7500861351548,521.6033939437636 96.42719842581944,543.013207277657 104.92911882106078,562.0610304691646,C 116.72113634470142,588.4800339906614 140.27738165754823,609.6970168222956 168.20763710611024,617.2413030658562,C 196.1378925546722,624.7855893094169 227.53782317606553,618.2336512162815 250,600,C 271.7773197544478,620.7118441987539 302.7704664778157,631.3023438208231 332.6829826819207,628.3914126742525,C 362.59549888602567,625.4804815276818 390.74173384219426,609.2326595706884 409.11598525410415,585.4499130755325,C 425.8766427209526,563.7557249048068 434.56652027523364,536.3616334288588 435.49971729324824,508.96297319822986,C 436.4329143112628,481.5643129676009 429.93693616043356,454.26477814825415 419.408410092654,428.95257599300965,C 398.35135795708635,378.32817168245657 362.6049848811369,335.49482585050424 331.9129362731734,290.0610508732391,C 289.3716343969003,227.08669678650236 257.35180381092357,155.64048267095853 250,80M 250 , 80C 230.28993064843138,158.64799160883064 190.49141100438652,230.75786013956915 144.8516964351848,297.77285750574185,C 114.8050232684163,341.8918390142728 82.58560202822004,385.7012127339817 65.61344443439717,436.30983812878117,C 57.12736563747513,461.61415082619305 52.78320031925971,488.55465477992635 55.33283086210058,515.1219496842064,C 57.88246140494144,541.6892445884864 67.57288594027247,567.7813118833221 84.41747445149693,588.4835246231115,C 104.10177093883036,612.6757744511276 133.679783210246,628.837233833292 164.7802046989873,631.1824978195053,C 195.88062618772855,633.5277618057187 227.7970483401708,621.9035480581041 250,600,C 262.1179767970861,618.0385010391315 279.68148217781044,632.3636697731298 299.7815456851061,640.6232295916761,C 319.88160919240175,648.8827894102226 342.4234550411837,651.0396616244471 363.7497269827953,646.8655741234605,C 385.0759989244068,642.6914866224739 405.0831242349728,632.2301282786441 420.9197077855261,617.3494191947394,C 436.75629133607936,602.4687101108348 448.3818048445449,583.2770744554449 454.8919210876868,562.544219661803,C 462.51807818833964,538.2570945328317 463.15371997491144,512.0439416971154 458.46003434620275,487.02410887647096,C 453.766348717494,462.0042760558265 443.90804761562305,438.15594760930696 431.47174254634984,415.9442156782279,C 406.59913240779224,371.52075181606364 372.16542566700804,333.3401734149809 341.8478477372488,292.43864110761285,C 295.3648581630108,229.7283050702453 259.8358685834428,157.43713743991003 250,80M 250 , 80C 232.45491532775998,157.4218204494373 194.43864170551686,228.72118735995724 149.6186151333261,294.2431950820127,C 119.01382634272332,338.9840701067045 85.55391515888562,382.89160012756406 67.35467724109849,433.9522183582933,C 58.25505828219154,459.4825274736727 53.315505891352636,486.7606018612722 55.47648256717315,513.7778172716487,C 57.63745924299368,540.7950326820252 67.16843988752237,567.4474312785353 84.15192588506632,588.5699536680453,C 103.76463280769151,612.9624630239996 133.43524280846233,629.2848479386786 164.6473454143826,631.6209636101756,C 195.8594480203029,633.9570792816727 227.88396528620495,622.1479975178643 250,600,C 262.04702590244034,618.9043268007708 280.82363021086127,633.4157370300684 302.1461849974293,640.3333278143093,C 323.4687397839973,647.2509185985502 347.14940874642355,646.522530019563 368.0822898457884,638.502623925084,C 389.01517094515333,630.4827178306059 407.0288390148248,615.2959343242736 418.9647733277123,596.321270243905,C 430.90070764059976,577.3466061635364 436.7578934098286,554.7943811139777 436.7053777590523,532.3778326064394,C 436.6214200467924,496.54009468259784 421.7511143418259,462.09497763152854 401.60934188323495,432.4527862378116,C 381.4675694246433,402.81059484409485 356.3623662487157,376.94717681450294 332.896979073973,349.8597975921633,C 300.69818770198685,312.69097246692513 271.5774173876631,271.8209271192236 255.6975629388945,225.2793978180377,C 239.81770849012864,178.73786851685284 237.3977071313369,127.53383996122636 250,80M 250 , 80C 241.29556038552286,124.64187231174083 226.24716801927042,167.98173084610193 206.12741768377666,208.7721669670513,C 186.00766734828315,249.56260308800006 160.62647160100067,287.48101178259935 135.4871835574729,325.3845766434978,C 115.11392275049539,356.1022012273047 94.90504116430452,387.3257391574951 81.70772126554017,421.7419121502975,C 68.51040136677526,456.1580851430999 63.0009769661048,494.49720993008316 72.5413041404077,530.1009228458465,C 77.38767505675744,548.1871787610289 86.04067436016919,565.2988694867681 98.130841356413,579.5966954086084,C 110.22100835265681,593.8945213304487 125.73250708032265,605.3181062203317 143.07386770559592,612.3804837061741,C 160.41522833086918,619.4428611920164 179.5373472328372,622.1118578858233 198.1391361238448,619.9733036679703,C 216.7409250148524,617.8347494501173 234.7717449950339,610.894962762306 250,600,C 277.1100710563044,611.8051282165447 308.8773450105208,612.3827188261392 336.4558963480707,601.7177991823231,C 364.03444768562065,591.052879538507 386.9528585067953,569.4069915825277 400.2751373081879,543.0093800916201,C 418.0244734560336,507.8397152889756 418.55015325716784,465.84906896694844 408.69469688494064,427.70704180903874,C 398.8392405127127,389.56501465112785 379.7707186224234,354.508307039496 359.9968349078467,320.4357700212155,C 315.57508900119007,243.89230472787548 271.5855737070626,165.82689902498677 250,80M 250 , 80C 242.79940708989758,124.8336266409448 228.53952046924593,168.47079714770638 208.46909385873036,209.20261016540252,C 188.39866724821505,249.93442318309846 162.40779103913115,287.4411117628792 135.24540900303177,323.8294013374334,C 107.64954130562226,360.7984132414653 78.59467019975538,397.3033057561046 59.35459870194678,439.2325247315708,C 49.7345629530401,460.1971342193042 42.73420604677324,482.50380228893954 40.31782077808414,505.44331015237606,C 37.90143550939505,528.3828180158126 40.185414788444156,551.9541322129814 48.243197922664066,573.5673705114245,C 55.64933464838312,593.4327100542553 67.96328758553895,611.5308544185942 84.15116804802027,625.2215484289216,C 100.33904851050157,638.912242439249 120.35603421374732,648.0938287378067 141.3422366509203,651.1041250052847,C 162.32843908809326,654.1144212727626 184.18238950349078,650.9169174167727 203.37558781804228,641.9111573261255,C 222.56878613259377,632.9053972354783 239.01212357335388,618.1314408689643 250,600,C 262.20584399134196,618.9836305944171 281.05184328616343,633.5991093679041 302.46758975619343,640.7213745425283,C 323.88333622622343,647.8436397171525 347.69175204578085,647.4216748010605 368.9118728912899,639.7361475329897,C 390.13199373679885,632.0506202649196 408.59870643701123,617.2161216239414 421.1485330091244,598.4581177030511,C 433.6983595812375,579.7001137821608 440.3234402860834,557.2187509431094 441.0616226759647,534.6618020172125,C 442.24467793951476,498.51068608402386 428.5682862635799,463.2040198953346 409.2765335499409,432.6077606434709,C 389.9847808363012,402.0115013916072 365.4402395996561,375.1486219933659 342.2641276275375,347.378662741914,C 310.99923615654063,309.91660857186275 282.2089403737139,269.57239988459565 264.96689742128706,223.92581297867534,C 247.7248544688622,178.27922607275607 242.12708790031004,128.1551263771933 250,80M 250 , 80C 229.54966659335315,159.86266033754106 188.54706365793555,232.8784309715966 141.90389624775193,300.8539823601514,C 111.94744183043022,344.5111055729922 80.05669061266921,388.0025784896586 63.1803023169907,438.18744758953494,C 54.742108169141865,463.27988213948333 50.37530573348867,489.9791849996001 52.75809539976088,516.3449906107803,C 55.140885066033086,542.7107962219605 64.5088273286151,568.6492853625404 80.94025487534785,589.4060091140553,C 100.82355243197487,614.523249443789 131.23710417260673,631.3230232134229 163.1961014517952,633.5238813223882,C 195.1550987309836,635.7247394313536 227.86071705225967,623.1532596855576 250,600,C 257.08923105683505,619.7543327136124 270.89685609381166,637.0254623859637 288.596253252153,648.3047441968143,C 306.2956504104943,659.584026007665 327.7598320615568,664.7956814198243 348.6728964435454,663.0252023625958,C 369.5859608255338,661.2547233053675 389.7956830945752,652.5482344000966 405.6962547574581,638.8492315629993,C 421.596826420341,625.150228725902 433.12652976628993,606.6060692122262 439.0924931204805,586.4839883259529,C 446.4297163127971,561.7369039422158 445.3834052128095,534.9084430028491 438.29117237436014,510.0900372717211,C 431.19893953591077,485.271631540593 418.3180398046052,462.4052960822921 403.0044382570669,441.6267822443656,C 372.3772351619533,400.06975456849415 332.644498690517,366.03568639526924 300.53046366050944,325.616620686449,C 273.2846112026315,291.32470128860297 251.48834990058418,252.0484044823513 241.85072592577933,209.32383992909823,C 232.2131019509748,166.5992753758452 234.85301980830653,121.0955131762247 250,80M 250 , 80C 254.32985627389237,118.73423659116423 250.48384862935075,158.3114925377831 239.22213124328445,195.62452593322314,C 227.96041385721827,232.93755932866313 209.25391937675616,267.67362898057854 187.1701005349853,299.7889475219957,C 157.14691234801467,343.4500669670487 120.3581742942038,382.82919044220034 96.66640437857617,430.22523688460313,C 84.82051942073095,453.92326010583105 76.56463961145595,479.7442883771922 75.4968463001949,506.21655901030545,C 74.42905298893386,532.6888296434187 80.89779526502122,559.7403681634399 95.70299544326137,581.7114250954721,C 112.23642759078169,606.2471945968176 139.32764978624704,623.6782868922821 168.68538367570875,627.350047297778,C 198.04311756517043,631.0218077032739 228.8702748086498,620.7097338693146 250,600,C 262.13385556469115,618.701387054186 280.17594042794843,633.5029721121286 300.8809883544689,641.7657391411421,C 321.5860362809894,650.0285061701557 344.83817140937,651.7093692636504 366.54983952521775,646.6521174167931,C 388.26150764106535,641.5948655699359 408.31022413930424,629.8582827702194 423.64198823884016,613.674669508298,C 438.973752338376,597.4910562463767 449.55051862546054,576.9937471092034 454.62742806426957,555.2866671774073,C 460.4093285237687,530.5652934864316 459.12286285367367,504.46377861431193 452.75031725258606,479.8880313692234,C 446.37777165149845,455.3122841241349 435.0809936863413,432.21946207534126 421.5225969215893,410.75445410278326,C 394.4058033920711,367.8244381576627 358.874042712026,330.9044636787743 328.7534421322129,290.02590963044486,C 283.6778153217374,228.8509525789574 252.36714336367382,155.9511957437433 250,80M 250 , 80C 248.86761092828942,127.64687170493411 237.69328460683283,174.93182337521426 218.21278279921714,218.42914211556493,C 198.732280991602,261.92646085591474 170.88099755846585,301.1117488909857 141.4802009046309,338.62307843814966,C 117.4447180530281,369.2890134019926 92.32387856084202,399.4430370449351 73.65347234481398,433.64128166136004,C 54.983066128784984,467.8395262777846 43.33563140980881,507.169936661968 48.58561659233941,545.7774703658911,C 51.659467527540826,568.3820681800887 60.5532968987858,590.2968010918867 74.88768192614364,608.043400985977,C 89.22206695350147,625.7900008800673 108.96996867382063,639.1951224211086 130.8984772631609,645.4845510883802,C 152.82698585250156,651.7739797556513 176.78525943864304,650.8606314441123 198.1070283719606,642.7489995819225,C 219.42879730527818,634.6373677197327 237.9636549437174,619.3789266885342 250,600,C 276.7587578076255,611.3946560980781 307.90831132510675,611.9908475552919 335.1349398489431,601.7644109214664,C 362.3615683727794,591.5379742876408 385.2364499013291,570.7166803826733 398.9726257226446,545.081025898995,C 418.0201495897401,509.5328684657779 419.1550682287092,466.43057742519784 409.34409297356865,427.3124943061673,C 399.5331177184273,388.19441118713524 380.06090375002066,352.2534453534708 359.8814324513335,317.33541848381566,C 316.1001943020276,241.577514450734 272.63151302638386,164.5214260144046 250,80M 250 , 80C 232.74253946159664,156.14377776905633 196.24780531886037,226.53957884738494 153.89722644104359,292.13015214791193,C 125.69153542398739,335.8137922106286 95.2727812652055,379.15103963308565 79.63237982782039,428.741353785711,C 71.8121791091188,453.5365108620359 68.00010311868431,479.8294024493362 70.81046190612832,505.67620567925695,C 73.62082069357236,531.5230089091777 83.28343906167485,556.8209978750032 99.7704681851987,576.9240629249025,C 117.43186143725957,598.4590608167489 142.93614779540783,613.5929311355687 170.44395841137066,617.9519793025534,C 197.95176902733348,622.311027469538 227.0521418686765,615.782165662241 250,600,C 260.7432276835018,615.2236657589065 275.5067477249671,627.581495334701 292.3797177035684,635.4859133587986,C 309.2526876821697,643.3903313828962 328.1877994329631,646.8189719195162 346.7667659536096,645.4051320335471,C 365.34573247425607,643.991292147578 383.5119245083847,637.7487151827806 399.1446034112749,627.6098646306918,C 414.77728231416506,617.471014078603 427.8412760838876,603.4860682359077 437.2321632946342,587.3929586049665,C 451.1319268305575,563.5730134381465 456.8117251157605,535.3988708809616 455.34257548651897,507.8591756489552,C 453.8734258572774,480.31948041694886 445.5371786562903,453.4523008737758 433.61954725557393,428.5813685249162,C 409.7842844541214,378.8395038271619 372.8360828359496,336.80815735549 340.7055013098967,291.97514956857395,C 295.4591710530591,228.84124472189146 260.5755431425393,156.94984230094997 250,80M 250 , 80C 249.50443375254366,156.08337803619497 219.9739933935352,229.71620282690165 177.00688177779395,292.50755030969265,C 145.86406857665898,338.019085336583 108.29868385626696,379.6744187651379 84.75697043860043,429.54387197995777,C 72.98611372973507,454.4785985873958 65.07052273509191,481.5705489978619 64.69098460459847,509.1413598211914,C 64.31144647410503,536.7121706445208 71.82922869415766,564.675922694491 87.8873250999579,587.0908997962046,C 105.97899436567164,612.3444754426769 135.07153655394185,629.7208043109603 166.02206483892485,632.388458455061,C 196.9725931239078,635.0561125991618 228.90263876518412,622.8024763716522 250,600,C 257.19411112600335,618.7945078964672 270.6158194705197,635.1419167834628 287.6416682788081,645.8708139458442,C 304.6675170870964,656.5997111082256 325.1867161479759,661.6442637289916 345.25587629850287,660.1551120187385,C 365.32503644902965,658.6659603084854 384.8104587521274,650.6811383147126 400.369934045914,637.9182432455802,C 415.9294093397007,625.1553481764479 427.50408835483495,607.7417622243129 433.88229334007247,588.6549274125917,C 441.8812064838067,564.7181091069508 441.70987644991294,538.44672713978 435.4661372372676,513.993310144956,C 429.22239802462235,489.53989315013195 417.162796226799,466.86317616071165 402.5546817254404,446.28267877135124,C 373.33845272269104,405.12168399260986 334.6311586950349,371.66343158570794 302.7442510029447,332.53491709623637,C 274.19095718716653,297.4970896097347 251.01948572262242,257.2967825692603 240.83960894698268,213.25918441113186,C 230.65973217134345,169.22158625300344 233.63344242009978,122.1316476735459 250,80M 250 , 80C 263.2056134937965,120.44073211415169 264.2929774000199,164.6377662061537 253.8107472481151,205.86838459490235,C 243.32851709621076,247.09900298365068 221.38957086806883,284.68161255223987 194.93303617294026,317.9966664108417,C 168.9736868174696,350.68564597213685 138.67583230421468,379.8668829060924 114.30600923878846,413.75742624015487,C 102.12109770607272,430.7026979071852 91.50290849782051,448.91122009721244 84.37028461219927,468.52600985993575,C 77.23766072657803,488.1407996226591 73.68316478156316,509.2013109392671 75.39254810126326,530.0025683434699,C 77.0222831156366,549.8345961536609 83.51404916941433,569.340850629825 94.72889615828191,585.7783860380773,C 105.94374314714949,602.2159214463297 121.86983304482105,615.4623640289946 140.22753253561254,623.1409207089349,C 158.58523202640413,630.819477388875 179.27718867986096,632.8596046139763 198.75271396890977,628.7768019005349,C 218.2282392579586,624.6939991870935 236.3807107903161,614.5079400572325 250,600,C 262.9425130465006,617.5664506595123 281.17578278035154,631.1779810396417 301.6908531886945,638.6090454904892,C 322.2059235970375,646.0401099413367 344.9060303104066,647.25754658296 366.1295014841835,642.1926572388795,C 387.35297265796027,637.127767894799 406.99746781293646,625.829614004545 422.3110740586896,610.2866961162608,C 437.62468030444273,594.7437782279767 448.572085013163,575.0676131916192 454.4023186539099,554.0415054104293,C 460.5458953439375,531.885359772674 461.06499114660824,508.34629497083006 457.231503168614,485.6759907384151,C 453.39801519061973,463.00568650600025 445.3155647029777,441.1923945524619 434.90959167838355,420.68985691735213,C 414.0976456291915,379.6847816471309 384.58158044215116,343.8726061525316 357.0549329359836,307.0373380885934,C 306.4583102050427,239.33057644946598 264.58447889356603,163.25573120715416 250,80M 250 , 80C 267.15536311892595,122.62280891589957 269.769078733884,170.77396373074262 258.27091530757485,215.25769740323665,C 246.7727518812668,259.74143107572985 221.42356017426027,299.5709613289591 191.36274670930564,334.31801613146854,C 165.5249314731793,364.18374092409323 136.23228149238548,391.05940195621093 112.13351351595763,422.3452389369167,C 88.03474553952731,453.63107591762105 69.41688291302239,491.0345632032637 69.40814763992901,530.5257538318082,C 69.40338316948245,552.0653907381995 75.03447488503744,573.7117722155434 86.40841257878746,592.0035605944321,C 97.78235027253749,610.2953489733208 114.8960484317787,625.047669612007 134.86262622760705,633.1280007860672,C 154.829204023436,641.2083319601272 177.49995981087818,642.5065470217303 198.20796437575248,636.5791084770872,C 218.91596894062678,630.6516699324441 237.4963621718413,617.5389572615254 250,600,C 270.9957432333691,620.4265540697014 301.76479698155754,630.2649348952273 330.7410702474785,625.9706441851473,C 359.7173435133994,621.6763534750673 386.0555009554817,603.5132017537226 401.4607306764975,578.5984622943838,C 415.05006504951905,556.6205540475639 420.3050458887932,530.008090197779 418.2648620235195,504.24889554027277,C 416.22467815824587,478.48970088276656 407.2343356647798,453.636894643023 394.8930471778134,430.9346688030555,C 370.2104702038544,385.53021712304644 333.2644218877765,348.1494699632612 303.5305613157334,305.88019774430774,C 280.56362989692076,273.23070462439625 261.67171870956815,237.3031284174304 251.81701147306208,198.62039215089484,C 241.96230423655626,159.93765588435926 241.15146764448647,118.92522080781325 250,80M 250 , 80C 230.76775604428417,166.99840904005646 185.57016147635025,245.81244066536897 135.011282787674,319.17729716231077,C 106.9646078261532,359.87519903704504 77.89865345891144,400.947915881169 62.576906599882335,447.93918386353494,C 54.91603317036224,471.4348178547229 50.95011912895927,496.32878141628873 52.95554857697255,520.9603069695312,C 54.96097802498582,545.5918325227736 63.12121503335123,569.8925886070712 77.6516653600462,589.8825813948248,C 97.14153694091253,616.6954043683752 128.47871379178713,634.9173391332586 161.5550528271668,637.0941179613054,C 194.63139186254645,639.2708967893523 228.42813793708163,625.1681810464729 250,600,C 257.5804374443115,618.4189747303664 271.13513465093126,634.3207229409513 288.113448880867,644.7350643927455,C 305.09176311080273,655.1494058445396 325.39164130084544,660.0170143174862 345.25543400194,658.5502486603556,C 365.11922670303437,657.0834830032251 384.42397678611457,649.3166838458906 399.9700480823795,636.8651245372563,C 415.5161193786444,624.413565228622 427.2469628768787,607.3936304833579 433.94449436354546,588.63557264279,C 442.7024568199295,564.1067792135357 442.82236914518944,536.936198242249 436.50232851289564,511.6692098999749,C 430.18228788060185,486.4022215577007 417.7120065361002,462.9945178957823 402.61408070246,441.77150564482315,C 372.41822903513673,399.3254811428754 332.43557819837594,364.7760152992014 300.2445217392283,323.8225009447665,C 273.40256984179075,289.6741261087752 251.91053054529365,250.68498678906934 242.34336980752167,208.31670477266766,C 232.77620906974997,165.94842275626596 235.24286962154662,120.85130338920702 250,80M 250 , 80C 259.1019405012108,119.7763069986813 258.00437213356696,161.75468910740994 247.47111713257297,201.17613578843574,C 236.93786213157924,240.59758246946132 216.98076761764932,276.95749541964784 193.36600586491076,310.2342582835788,C 168.34217295454027,345.49661504262826 139.09075751410526,377.9305026622604 117.90325518793418,415.62288601628984,C 107.3095040248433,434.4690776933056 98.87347929976312,454.69185977440463 94.79732863815163,475.92371085282343,C 90.72117797654016,497.1555619312422 91.14264424867224,519.4082926441409 97.44095548674446,540.0901150972198,C 106.68591493994975,570.447873354892 129.40450601528775,596.8134513395123 158.8328444455674,608.6892948445268,C 188.261182875847,620.5651383495413 223.3964138690291,617.3006348639198 250,600,C 261.4981865388317,620.1136683993005 280.28792484939993,635.9472683880444 302.0497934975085,643.8964207391609,C 323.8116621456171,651.8455730902774 348.34129928071616,651.8458432138063 370.1785115210035,644.1060685574331,C 392.0157237612909,636.366293901061 410.96967071310365,621.0185840792726 423.5994315404654,601.595476923042,C 436.2291923678271,582.1723697668115 442.5310902392982,558.9032075347524 442.64143753513696,535.7352172543444,C 442.8154829137399,499.193482278322 427.92517594353717,463.9591600309932 407.62191590524617,433.5764952586397,C 387.31865586695443,403.1938304862864 361.9245852246599,376.62548362226465 338.1554089232402,348.870214846702,C 306.2573902917149,311.6228963322171 277.26752217124744,270.971178804226 260.63781209632816,224.83768693594493,C 244.00810202141102,178.70419506766478 239.89329696632157,127.9864656223555 250,80M 250 , 80C 263.77782966763857,125.9871068943904 263.02729984933717,176.00465734080672 249.10257221241082,221.94749738258002,C 235.17784457548652,267.8903374243498 208.2351097350149,308.73200580587684 178.78588411150102,346.64487566614383,C 156.3372602537723,375.5451858386653 132.38869984218542,403.6879979105562 115.55000653554781,436.17841263395934,C 107.13065988222785,452.42361999566106 100.59486287603507,469.7455248543555 97.41947500432755,487.7652105385641,C 94.24408713262004,505.78489622277266 94.50550242553504,524.5060220402282 99.15142732436654,542.2036925685175,C 103.19424266337062,557.6039444956177 110.56793039827011,572.1648285403992 120.89916032075837,584.2800175018692,C 131.23039024324663,596.3952064633392 144.50458712095198,606.0136930596741 159.3114491433328,611.8676619982334,C 174.1183111657136,617.7216309367927 190.4154635444235,619.7844785088264 206.20446441281868,617.7303200774351,C 221.99346528121387,615.6761616460437 237.23076604173795,609.5109820419664 250,600,C 271.23437169945004,626.058451707418 305.4929890294838,640.8595017974094 339.03604438828853,638.6674972229604,C 372.5790997470932,636.4754926485114 404.27359273738966,617.55731700873 423.46663889372866,589.9607877686448,C 437.63614103165395,569.5873109957794 445.23838840421143,544.9767658168655 446.61723150722355,520.1987082184896,C 447.99607461023567,495.42065062011375 443.34565934826577,470.53864294995594 435.06301754752593,447.1452423538093,C 418.49773394604176,400.35844116150025 388.45638042836345,359.777364166923 359.9871288405328,319.121305570017,C 309.2079746680702,246.60516438633556 265.4563938162579,167.16772981349857 250,80M 250 , 80C 231.8154689933696,160.00173753540713 191.17627829261016,233.19191493054456 143.0023092166325,299.60143141788257,C 112.1527409078757,342.1286500491008 78.62201947917836,383.54295356484056 57.76963521155172,431.76575169704483,C 47.34344307772991,455.87715076315095 40.34948822854981,481.6901793000867 39.482158609047616,507.9449462323511,C 38.61482898954542,534.1997131646156 44.08112012674035,560.8640817957889 56.800048612692095,583.848726789907,C 66.14930055774455,600.7439579530374 79.36419140431013,615.539078061063 95.34433916639378,626.3784611380491,C 111.32448692847744,637.2178442150353 130.03355201959437,644.0459965160593 149.26034609171077,645.8314201901794,C 168.48714016382715,647.6168438642994 188.1706767296957,644.3432676068891 205.75197070828816,636.3585666089814,C 223.3332646868806,628.3738656110738 238.76083805236937,615.7015472709733 250,600,C 263.65042192055677,616.1239865145817 282.4290020931388,627.8348117043638 302.9095085040361,633.0180362687469,C 323.39001491493343,638.2012608331299 345.45316804448794,636.8300393039641 365.1891041914953,629.292812749529,C 384.92504033850247,621.7555861950943 402.2221087788623,608.1283694120383 414.5123582460456,590.9450423836068,C 426.8026077132289,573.7617153551754 434.0701982740101,553.1589856785469 436.10484163881324,532.1309761172573,C 438.29406238034676,509.5054116173089 434.5193500283184,486.51478793140024 426.7499118960064,465.1525622162585,C 418.98047376369436,443.7903365011167 407.3297087982686,424.00457372168404 394.02753581916596,405.5719653758606,C 367.4231898609513,368.70674868421344 334.57833878074734,336.732003706712 307.357499195557,300.3196250716406,C 283.905159681292,268.948239056914 264.6098648039916,234.0757920016941 254.1508795915559,196.32945817305074,C 243.69189437912024,158.5831243444074 242.08951566887427,118.36144323177047 250,80M 250 , 80C 266.56226457971314,125.28571600670625 267.5422971575154,175.893853838374 253.90983953605166,222.14599737191708,C 240.27738191459002,268.3981409054578 212.33574269934795,309.1607844387901 180.70831657862144,345.5587321725043,C 156.86574057512644,372.99760221838375 130.91933284118122,398.7873775607202 110.18590899499854,428.6451262282209,C 89.45248514881469,458.502874895721 74.29629476862755,493.6639538385589 75.27587778162103,530.0012685026581,C 75.82835888420594,550.4953761017886 81.57844326579766,570.9416388169652 92.56558438767522,588.2504923786947,C 103.55272550955277,605.5593459404242 119.77148844903923,619.5754300574052 138.67270131769183,627.5163263385142,C 157.57391418634484,635.4572226196229 179.03442665051264,637.2301922636942 198.94340557461797,632.3367027262587,C 218.85238449872327,627.4432131888233 237.07259825538168,615.9121326599139 250,600,C 275.59741486110374,611.1440480106963 305.3206903131029,612.4230016626441 331.81905976485615,603.6335835912045,C 358.3174292166094,594.8441655197647 381.2329351097064,576.1515465140754 395.96843104308834,552.4390474211193,C 407.23018635253067,534.3165245167304 413.8289711930549,513.454313019833 416.0372544193439,492.2322383271375,C 418.24553764563296,471.0101636344421 416.1518668140981,449.4645184912219 411.18577509034975,428.71383411549175,C 401.25359164285214,387.2124653640285 380.4220833846965,349.2288557242583 359.00075246791795,312.3216957409497,C 315.9200956486249,238.09733033654334 273.4422670928353,162.55700772930606 250,80M 250 , 80C 260.71259445734995,120.2242468512597 260.4804711547051,163.20466364953072 250.02945921314102,203.49766631942373,C 239.57844727157732,243.7906689893164 218.9470145194374,280.815927140989 194.49172251203348,314.50106344160815,C 169.47434997129298,348.96041905523424 140.35754679993443,380.6131669791983 119.0798319226718,417.49913948570077,C 108.44097448403562,435.94212573895277 99.89712171549192,455.75308538568083 95.59767550871585,476.60599386033505,C 91.29822930193981,497.45890233498926 91.3751582648562,519.367694981872 97.21815521729943,539.8417863207081,C 101.60726811570119,555.221410700061 109.23580530998642,569.7076569221928 119.71397451173529,581.7909151030158,C 130.19214371348414,593.8741732838388 143.5059857152393,603.5099915763757 158.32983269661912,609.5142166518987,C 173.15367967799895,615.5184417274216 189.45048346024365,617.8679687938692 205.35981163712955,616.227714226722,C 221.26913981401546,614.587459659575 236.75305032564478,608.9618905600327 250,600,C 256.105145249688,622.1341915884358 270.3975834092195,641.9050261969121 289.48768232759835,654.6629005919624,C 308.5777812459772,667.4207749870127 332.277858895223,673.0508946645094 355.0883945898884,670.4289303024781,C 377.8989302845534,667.8069659404474 399.59944509648915,657.0132510184218 415.82500760228686,640.7674405688383,C 432.0505701080846,624.5216301192548 442.738078698206,603.0465192085132 446.9297107657754,580.4716336849172,C 451.0702405682766,558.1719697850941 449.0082422218867,534.9431102929279 442.51226343952845,513.212457823441,C 436.01628465717016,491.481805353954 425.21467538120726,471.2120334711667 412.3621822119917,452.52427233116555,C 386.657195873553,415.14875005116176 353.26200219658057,383.8223129983314 323.77977019034904,349.34806196523255,C 292.127202189296,312.33598720508024 264.8486346406182,270.67029343882086 250.80632016078093,224.037771062675,C 236.76400568094485,177.40524868652935 236.1464925359464,126.68896090143525 250,80M 249.91236668940394 , 576.9961528009668C 249.503188736042,584.6574167140753 249.53246349702601,592.3420759365084 250,600,C 253.58415665159436,658.706003263867 284.38557239986244,715.1915621908214 331.7945763485311,750M 250.33847091037916 , 576.9409768556278C 250.62857702684306,584.6261923647703 250.51554676403128,592.3266102330932 250,600,C 246.16996482279575,657.0061821469784 219.11302478880137,712.1109426589529 176.34863181707846,750M 250.4015306461861 , 575.0841544124835C 250.74349653174275,583.388019042604 250.6093602368093,591.7114664406756 250,600,C 245.7776646836602,657.4323131936741 217.66805016760907,712.7378678585695 173.76096392205574,750M 250.092027302263 , 575.0042435158945C 249.54208598999887,583.3234586635539 249.51133075827306,591.676960982179 250,600,C 253.44590756839455,658.6908704181922 284.18934925020926,715.2142404557945 331.5860103388098,750M 250.51574683251286 , 575.1432589628406C 250.85346977965352,583.4289663021126 250.68112081477366,591.7354324168306 250,600,C 245.09554359858316,659.5095767285968 212.30450537858022,716.1296989804733 163.1288394058981,750M 249.00491074415947 , 576.0989816796722C 249.66838085377145,584.0475555406751 250.00046124111546,592.0237841806139 250,600,C 249.99695769878434,652.610338217914 235.18159776756144,705.1409203010941 207.69504350504803,750M 250.85100354113993 , 575.4748400501111C 250.01810604749943,583.6184980805608 249.73358303040425,591.8181966321519 250,600,C 251.96308412595548,660.2873320625306 285.9746039658692,718.6059641607541 337.48024074697844,750M 249.33126746905717 , 575.2564969387697C 249.42750780761443,583.5071059901674 249.65045369397768,591.7562369453194 250,600,C 252.1411880921721,650.4981657172555 259.04637483111753,700.7932773038063 270.59400959990694,750M 249.09325053079556 , 575.5783302238748C 248.99445015365683,583.7271892458656 249.29718852227836,591.8809039356843 250,600,C 254.82256955108636,655.7118184652378 279.1346648401146,709.5457679051286 317.7419050858632,750M 250.09096579239804 , 575.0041459822778C 249.59394240701874,583.3256819063586 249.56355703078717,591.6750669722811 250,600,C 252.95156786624884,656.299692162772 278.17823285409906,711.1298982606346 319.0130498766271,750M 249.19603200356102 , 575.405327434043C 249.9199158009881,583.5801773738489 250.18845839642444,591.795326775347 250,600,C 248.72348353064638,655.5740720267299 225.5717775349901,710.3544897581148 186.6058886885994,750M 250.94982538807528 , 575.6872193545507C 250.9619760059945,583.7998750966943 250.64502052763174,591.9130179085777 250,600,C 245.7185137101814,653.6793814571439 226.65763717959837,706.1054189212329 195.46352122176086,750M 249.05251491050313 , 575.6802000544385C 249.10793668367438,583.7941548988143 249.4239821439475,591.906327272553 250,600,C 253.7180735828305,652.2429477485758 268.4145648404796,703.6789468296936 292.85857625066785,750M 250.64536385693899 , 576.7638753119173C 250.31460198978496,584.5054622608217 250.09944872591646,592.2519885227806 250,600,C 249.35500440195463,650.2513556645266 253.59186658842782,700.5641949248572 262.63155364145916,750M 250.93079034797373 , 575.6344465454698C 250.55096393437069,583.7534413824462 250.2406853081718,591.875689823145 250,600,C 248.51830119127533,650.0146053873949 249.67645723218388,700.1073141590422 253.46803777228777,750M 250.96951696373387 , 576.2450241968302C 250.1055165081946,584.1289161839991 249.78133693388637,592.0719210324294 250,600,C 250.85462557675456,630.9862071388632 260.17896248164635,661.6972330659457 276.69628650671865,687.9280055437008,C 293.2136105317909,714.1587780214559 316.87962715901745,735.8389539711502 344.45389402321126,750M 250.49481157091873 , 575.1309997069708C 250.7821167369428,583.421441654935 250.61685245637307,591.7275478243719 250,600,C 245.77818090265515,656.6177474307041 219.51772956033017,711.3052143773743 177.97128992662934,750M 249.5067213049731 , 575.1301286709906C 249.4208010456718,583.4225310601036 249.58532721089617,591.7175265679931 250,600,C 252.58829861028292,651.6974227320269 265.0321623744156,702.8840984490254 286.4661220615277,750M 250.30241303193023 , 576.9531769815301C 249.86819573303538,584.6262497068756 249.76726474266763,592.3181757367735 250,600,C 251.62750901291687,653.7187118417146 270.04053926686544,706.8092539014305 302.0234759514351,750M 250.75730658394684 , 576.6530595209556C 250.4630614498919,584.4339418723156 250.21062106404707,592.2164051279631 250,600,C 248.6472083689921,649.9930149422015 249.02026821330162,700.0327118431771 251.118291678648,750M 249.07488347327302 , 576.3796833048431C 249.88696270935844,584.2226148725865 250.19617794085832,592.1175788949391 250,600,C 248.51896508620504,659.5079182233832 216.25663213984825,717.4206688111765 166.43722854059098,750M 250.71868777042377 , 575.3046670663321C 250.86395829179838,583.5416467320116 250.6240469190073,591.785409141042 250,600,C 245.84308198098446,654.719252223475 224.13495317907024,707.9699248913732 188.8511138517481,750M 249.00021291560333 , 576.0206345795592C 248.92188205546867,584.0238490094983 249.25573279191738,592.031082679673 250,600,C 255.30743860446358,656.8270897365487 282.32839973941526,711.3561144436277 324.33003234544503,750M 250.91061833436078 , 576.4132484109177C 250.74168403099182,584.2799266803323 250.4380852976878,592.1437128956941 250,600,C 247.17154872510312,650.7232846968677 238.71497336219343,701.1307127114766 224.835329744084,750M 249.70974689198553 , 576.9569499115878C 249.9511608469612,584.6352359211069 250.047934766356,592.3180693182112 250,600,C 249.68453889182967,650.5551721639 243.07057425083767,701.067868459777 230.35949832617064,750M 249.35469696641627 , 576.7639266946819C 249.2992802236569,584.5136471195957 249.51455606420467,592.2653001438385 250,600,C 253.3103232666851,652.7442100038353 269.40777868419207,704.6409872236661 296.5273267817363,750M 249.72360265831404 , 575.038956551706C 249.80410527650835,583.3594277274586 249.89623784373683,591.6797863805672 250,600,C 250.62364932164257,650.0075920407846 251.66742239310435,700.0099446128588 253.1311718882344,750M 249.25512208105062 , 576.6672007837687C 249.96930481778438,584.4206012970568 250.21819230644277,592.2168342804285 250,600,C 248.3697777513243,658.1518667089329 219.10901590533913,714.9283385296332 172.69483932079171,750M 249.88641720265286 , 575.0064714658618C 249.412710071062,583.3295007729049 249.4506661784546,591.6816198905722 250,600,C 253.871187532771,658.6201105948212 284.53794463661507,714.9397441996889 331.6769085866182,750M 250.55857488293785 , 575.1705459023243C 249.79556983039396,583.4206292085836 249.60877447236098,591.7239505887803 250,600,C 251.46933421762296,631.082538657507 261.2579170603557,661.7332425853959 278.07613273347926,687.9139754630446,C 294.89434840660283,714.0947083406933 318.70055401930455,735.7406451342331 346.35835493063195,750M 250.94692435981648 , 575.6785435382728C 250.70404789941577,583.7883107239252 250.38838949838447,591.8958981757356 250,600,C 247.59237031460574,650.2373936646519 242.3870531575353,700.3405794724537 234.4162090499446,750M 250.7701577794148 , 576.6378534273694C 250.55114751775824,584.4264178089991 250.29442424532746,592.2139217198088 250,600,C 248.10583480738353,650.0913858127508 244.65075913952333,700.1237344656341 239.64147468321647,750M 249.39287612768823 , 576.7946072008667C 249.35364528967503,584.5335432535564 249.55615147705078,592.2737027772065 250,600,C 252.996021219765,652.1532667854563 267.1433044331834,703.6386225312659 291.21739961339347,750M 249.43983944944256 , 576.8283840640664C 249.85946063051142,584.5442822262894 250.0462940566872,592.2728386036196 250,600,C 249.69186824127624,651.4317387887869 238.9225337115215,702.7786985546883 218.53951652000302,750M 249.47426089888975 , 576.8506458708322C 249.20329697313306,584.5686313630824 249.37893374786427,592.3022731785219 250,600,C 254.8168234973679,659.7015073714092 287.9991270740675,716.4916685703641 337.6445044603347,750M 249.0546460249536 , 575.673954202812C 249.40825270244784,583.781079399135 249.7233754278399,591.8898831403424 250,600,C 251.7047009364685,649.9786540926859 251.9469706798337,700.0071798680393 250.7263948105919,750M 249.21884172148796 , 576.6243330392604C 249.0364113210836,584.4226308432723 249.2973574713297,592.2312791935897 250,600,C 255.3694537623255,659.3670116173804 287.9545300521688,715.7261897026256 336.72520802350243,750M 250.25565730251108 , 576.9667674713563C 250.20360504202242,584.6448320196204 250.11838488102083,592.3226717104792 250,600,C 249.22825390747124,650.0481823135427 247.0467492622592,700.0746176684264 243.45894436690332,750M 250.1680711424803 , 576.9857748683474C 250.20589699732224,584.6574859118341 250.14986769365564,592.3296596682775 250,600,C 249.01732358433878,650.2941118277157 243.99176772426372,700.5086766990094 234.9877544305436,750M 249.676099245996 , 576.9460910640925C 250.25668500956434,584.6143883026449 250.36492440769038,592.3184186169564 250,600,C 247.14192226312392,660.1619301757019 213.29547212689704,718.0227259160365 162.2554839512016,750" stroke="hsl(210,80%, 90%)" fill="none" stroke-width="1"/></svg>