<svg viewBox="0 0 500 800" width="500" height="800" version="1.1" xmlns="http://www.w3.org/2000/svg">
<rect width="500" height="800" fill="hsl(210,80%, 20%)" /><path d="M 250 , 80C 264.5262066526287,122.84932712725744 265.7624422457197,169.94227623506237 254.46017799797826,213.75248438165556,C 243.15791375023787,257.5626925282476 219.44794063112485,297.23047952456 191.95687162542745,333.16537398520165,C 165.73996670201774,367.4347474792673 135.8937351092695,399.40387795712553 115.7612225643061,437.5666609015829,C 105.694966291817,456.6480523738155 98.24520503876948,477.30221181095436 95.7829239279356,498.7350414792751,C 93.32064281710173,520.1678711475957 96.02213146601689,542.3627150296574 104.93255938249632,562.0104449291964,C 116.85512761045304,588.3000241107244 140.40626874723387,609.3616609285228 168.27322775364627,616.893075299479,C 196.14018676005864,624.4244896704352 227.44723739380387,618.0183935332947 250,600,C 265.3717933777057,611.6028515233202 283.7618119281246,619.167871063921 302.84681262696625,621.7526231689211,C 321.931813325808,624.3373752739212 341.65800269942986,621.9341777400142 359.5997978713481,614.9334505543553,C 377.54159304326623,607.9327233686964 393.646424561644,596.3677870722979 406.2170722460094,581.7767962932368,C 418.7877199303749,567.1858055141756 427.80673955888517,549.6324408943397 432.85766179381807,531.0473291191646,C 443.51103361966653,491.84773408352146 436.0775535569286,449.51251958748213 420.0957751470943,412.16703336655905,C 404.11399673725873,374.82154714563535 380.4474777480294,341.3670767970472 357.4452903906496,307.8857094564758,C 309.52977409701407,238.1411683215338 267.23646760480614,162.84384047301126 250,80M 250 , 80C 226.96795235892137,159.72775329451002 185.4567523755114,232.68026569684105 140.6223644013256,302.5148382158402,C 113.33262251727524,345.0216626588049 85.31319197752468,388.2400484780319 72.1763383109925,437.0148699750629,C 65.60791147772099,461.4022807235862 63.04278854895602,487.06989405320024 66.72978561990129,512.0558118206162,C 70.41678269084656,537.0417295880322 80.54654541696185,561.2477097270257 96.93889565062031,580.4617901863741,C 115.32011253609835,602.0070948647132 141.61550639562665,616.8317079949688 169.69079650386269,620.5529138763775,C 197.7660866120987,624.2741197577861 227.18810562784898,616.7835265372707 250,600,C 273.79370238153183,613.164105596051 302.4857882938105,617.1713015094062 328.9989013927227,611.1307069220179,C 355.51201449163483,605.0901123346296 379.49959682174733,589.1196264711917 395.94283304830725,567.4619735151939,C 410.719447570572,547.9994550195438 419.4462272869447,524.2422054664561 422.2134262029137,499.96298445151024,C 424.9806251188827,475.6837634365644 421.9582846384354,450.9591196317254 415.29994416505065,427.44732546212583,C 401.98326321828034,380.42373712291203 375.1260739137693,338.5854121700745 349.341843586548,297.0676410573724,C 307.16282709597294,229.15098307725992 269.23418729795907,157.60017978256755 250,80M 250 , 80C 244.84304334642619,126.63852764722616 231.71682226909405,172.31215452627285 212.06877480835837,214.92319410533727,C 192.42072734762303,257.5342336844011 166.11181327873672,296.6882356765243 139.0185698526257,334.9988428719388,C 112.1024820675614,373.0589470149924 84.10642743494543,411.3098878658751 68.55868543220276,455.2566172965111,C 60.78481443082704,477.22998201183225 56.34786565277231,500.55819509173006 57.374530199908996,523.843550729259,C 58.40119474704568,547.1289063667881 65.05319669157808,570.3219674822332 77.74004447699348,589.8746072152271,C 86.9300817605474,604.0380535793136 99.23294641828879,616.2110884883543 113.66398187238148,624.9749468797356,C 128.0950173264742,633.7388052711169 144.6251937493802,639.0555749518066 161.47123326800758,640.1829394528928,C 178.31727278663493,641.310303953979 195.43519743587368,638.2384065837148 210.81329301136412,631.2688890500153,C 226.1913885868546,624.2993715163159 239.7932173353586,613.4492224986517 250,600,C 275.3598037551171,616.6206799070189 308.72081010593917,620.2371914137218 337.13368692590365,609.6506396671349,C 365.54656374586807,599.064087920548 388.11064882070286,574.8201559987314 398.32549300298126,546.271537723911,C 404.36572921165504,529.3901840063145 406.36057527423844,511.1734454637067 404.9841742049588,493.29692239875726,C 403.6077731356791,475.4203993338078 398.9262934116029,457.8909243504454 392.2250543968616,441.26089270698503,C 378.82257636737796,408.0008294200632 357.7534958055928,378.4909870303366 337.1645804856744,349.13192040467453,C 309.35766256073157,309.48023680078205 282.4306671145078,268.56297024401243 266.0123627391869,223.00070539087963,C 249.59405836386878,177.4384405377498 243.62725168840217,128.00904889772727 250,80M 250 , 80C 259.9870991293989,127.99898076946226 256.256504473365,178.6272555586496 240.28268777709096,224.97897056555615,C 224.3088710808178,271.33068557246185 196.2182456881892,312.6113142092688 164.50008126858853,349.9958343984958,C 136.5453439883399,382.9446023792857 105.67326562413405,413.6685336785794 81.78646699205964,449.67560935781745,C 69.84306767602072,467.67914719743584 59.755554024094515,487.0459478770978 53.40395503156147,507.69611378933644,C 47.05235603902843,528.3462797015751 44.528227265427645,550.3108277366723 47.386509176316885,571.7258315069921,C 50.556688046618014,595.4776497588606 60.53261867401842,618.445450760445 76.61319705720784,636.2109764549355,C 92.69377544039726,653.9765021494258 114.8263504679791,666.2873382210557 138.49994825354577,669.9967414381119,C 162.1735460391135,673.7061446551676 187.14664664351764,668.7113671657733 207.45948493142836,655.9996597655563,C 227.77232321933909,643.2879523653394 243.2108457707852,622.9805632914312 250,600,C 274.98667230471784,611.964732225513 304.50636541136737,614.0820675954491 330.979866763415,605.9185918494987,C 357.4533681154626,597.7551161035484 380.50294856913246,579.476707060134 395.2634652815045,556.032821791788,C 408.04199914018415,535.7368872037084 414.70329059061805,511.8608967033336 415.7365623031343,487.8995061353982,C 416.76983401565053,463.93811556746283 412.3401413522196,439.9429344404292 404.672819208535,417.217880875564,C 389.3381749211623,371.76777374582014 361.96944586922865,331.5443706428241 336.7177782417201,290.76181511285165,C 296.4488063238722,225.7256516562485 262.88496684861326,155.40073133454717 250,80M 250 , 80C 241.97506199745544,124.62259341467917 227.23801410557587,167.97084223439157 207.088658871258,208.58585124137963,C 186.93930363694037,249.20086024836715 161.2176195740037,286.74856725000575 135.25704754844435,323.9187726987539,C 113.50789789271415,355.05908656561076 91.56310982314291,386.4567351547722 76.59559106135487,421.36687752900536,C 61.62807229956609,456.27701990323845 54.31328172694783,495.5522467509996 62.88082459388545,532.5568662963606,C 67.39869997600717,552.0703093295916 76.27191130034291,570.633388114689 89.10816829466631,586.0092186078759,C 101.94442528898972,601.3850491010629 118.72472051008113,613.4908434292981 137.4787822176962,620.5243934892965,C 156.23284392531127,627.5579435492947 176.89238277155877,629.475598279152 196.60020140638758,625.8996310482859,C 216.3080200412164,622.3236638174197 234.99379491590074,613.2664790337711 250,600,C 262.65832770123376,618.5163476256331 281.3584987765456,632.8251864210306 302.5329180559816,640.2233184666055,C 323.7073373354176,647.6214505121803 347.2206565171583,648.0661210551996 368.70927106545344,641.637448223276,C 390.1978856137484,635.2087753913528 409.52696369686726,621.9857569154045 423.6744808710126,604.5806959447453,C 437.8219980451579,587.1756349740862 446.7617476556678,565.7447077786182 450.0972830490698,543.5644779956682,C 455.98342997894036,504.4235077937039 444.43690560313695,464.32299253974514 425.6466754436838,429.4863806983812,C 406.8564452842296,394.6497688570171 381.438341181785,363.92743833864694 357.21422790094283,332.62480889976337,C 328.72120471944095,295.80585350999115 301.7896652023874,257.37391343584056 282.65245306944047,214.9327193221704,C 263.51524093649414,172.49152520850072 252.09782261981752,126.50899898160958 250,80M 250 , 80C 226.75565078351704,158.41198781370016 186.23012797320095,230.4020632339997 142.8692048938431,299.7459162643851,C 116.54979707345461,341.8365595932545 89.69735956433148,384.70663628396215 77.2422491202573,432.76081100042086,C 71.01469389821574,456.7878983586567 68.64959095719104,482.0036000689837 72.27329791301497,506.558683429913,C 75.89700486883889,531.1137667908423 85.68317680096919,554.9186388532619 101.51407536917317,574.0358044770438,C 119.01388330290386,595.1683210687021 143.93024234118687,610.1948604495287 170.93618823092925,615.0430994921588,C 197.94213412067162,619.8913385347889 226.68090311046734,614.4584319852038 250,600,C 256.20911887948154,621.561480512654 270.2534433972799,640.770214383857 288.9036654331001,653.2449816029958,C 307.5538874689203,665.7197488221346 330.63892711383767,671.3551033098427 352.957672083515,669.0476757084651,C 375.2764170531919,666.7402481070882 396.62590383542744,656.5592726927966 412.7989305912361,641.0066586130681,C 428.9719573470448,625.4540445333396 439.9031104338928,604.7319292047575 444.52613227147924,582.7756483665493,C 449.65804992017667,558.4024506850527 447.1308269019923,532.7481864219828 439.28426228384336,509.1087962507551,C 431.43769766569443,485.4694060795274 418.4709215104868,463.78044787260376 403.34827476840894,443.9891644506362,C 373.10298128422977,404.406597606695 334.74598650078974,371.72237056613983 303.0892141872788,333.2593215113687,C 274.26824490193854,298.2417794685353 250.99227750305425,257.8946009244495 240.7744234118293,213.70781580674074,C 230.55656932060478,169.521030689032 233.56077335258678,122.26852668952517 250,80M 250 , 80C 250.3536937759895,128.21592524580768 240.58319060499588,176.35525714957373 222.56020836183302,221.07742902951628,C 204.5372261186709,265.79960090945576 178.07963568259356,306.5158861249391 151.78626297037084,346.9331979852339,C 132.59027199095755,376.4406469676807 113.5311072885405,406.5050071070212 102.03729363425411,439.77763644126463,C 90.54347997996685,473.05026577550836 87.47995375349515,510.28580620934724 99.87680706681445,543.2326367558733,C 110.6319504278995,571.8163327039834 133.28931105736106,596.0453790990076 161.75889080437523,607.0990577536412,C 190.22847055138936,618.1527364082747 223.70638966503432,615.5353415902092 250,600,C 259.2937445319025,612.8188656015197 272.033683575397,623.112861085993 286.5151599554361,629.5147236734332,C 300.9966363354752,635.9165862608733 317.17633732127575,638.4071295892375 332.91948799884636,636.7188732469115,C 348.6626386764169,635.0306169045855 363.9186112830029,629.1775810394911 376.85090868769373,620.0423368407452,C 389.78320609238455,610.9070926419993 400.36208457420514,598.5359524171248 407.6792378105471,584.4947177402887,C 418.08222305366104,564.5319327035153 421.78177555445603,541.3990684526088 419.7315048592903,518.9818590261566,C 417.6812341641246,496.56464959970435 410.09159491141685,474.89144438838287 399.5607777199662,454.9957971842047,C 378.499143337055,415.20450277582944 346.5730617337024,382.4690730010203 318.14475121319794,347.55817621329516,C 287.70224616027883,310.1737825436217 260.9366132474224,268.79745551781014 247.67293946451358,222.44646888616762,C 234.40926568160702,176.09548225452585 234.84665974767,125.76805963926276 250,80M 250 , 80C 228.5416219440293,158.72443804563756 188.21775193534455,230.8772283122407 143.46936763053938,299.1090481363071,C 115.0258383799107,342.4794131928407 85.21959844685992,386.1544606218504 70.61938029019034,435.92248802043247,C 63.31927121184811,460.8065017197338 60.129313322519764,487.1197768478303 63.52121029254557,512.8297119953066,C 66.91310726257137,538.539647142783 77.10372253817812,563.5408895792059 93.9343754596916,583.2699253533704,C 112.73570429653779,605.309004345351 139.86394181855735,620.2719533390081 168.65220564844861,623.5041096635941,C 197.44046947833988,626.7362659881802 227.39927038883806,618.1223064174827 250,600,C 255.97667288423128,622.1596630835817 270.16813133761985,641.9981181385906 289.1962487961373,654.8317471159228,C 308.22436625465474,667.665376093255 331.9012334593247,673.3779819650653 354.7093659208138,670.8166580179384,C 377.51749838230245,668.2553340708123 399.23538406779056,657.4991317601387 415.4595934385519,641.2650220821602,C 431.6838028093132,625.0309124041817 442.3494390029114,603.5416257863441 446.4618893433565,580.9615673510718,C 450.88724751462587,556.6634390255947 447.86056447419753,531.321232034174 439.72663656048826,508.0012395007285,C 431.592708646779,484.681246967283 418.535062889858,463.31703165599333 403.4124898620753,443.79036732014856,C 373.1673438064893,404.73703864845515 335.1365485532419,372.36438122187917 303.63626942363214,334.316204458469,C 274.5742090018988,299.2130738644211 251.07503103983154,258.7248945456814 240.7465635258952,214.33845638859543,C 230.41809601195934,169.95201823150938 233.4306147720418,122.45336979118115 250,80M 250 , 80C 263.43587318646127,121.68008356672583 264.6902325372637,167.10482278389287 254.22588361467902,209.62833928991947,C 243.76153469209459,252.1518557959459 221.6775531976852,291.1457999660685 194.49515980862253,325.4804696754765,C 162.64987113599778,365.70494338996775 123.68971541749984,400.1121065172439 94.09617308405025,442.02097131228373,C 79.29940191730581,462.9754037098041 67.0148029115084,485.98850075676705 60.526682736513436,510.80657825398816,C 54.0385625615185,535.6246557512093 53.598955966809854,562.2951073442676 61.39041857442767,586.7353566166737,C 67.68417249672942,606.4775953292766 79.35998615465398,624.5719238633651 95.21889924706113,637.9084227797736,C 111.07781233946828,651.244921696182 131.06018766501305,659.68776473759 151.71003178298656,661.4056895680995,C 172.35987590096016,663.1236143986089 193.53620066192627,658.0745760103866 211.12076132706832,647.1132551942702,C 228.70532199221037,636.1519343781538 242.5804532175901,619.3472905949003 250,600,C 255.69447387108957,624.9649230425285 271.5012210869306,647.4618293443856 293.0392223698111,661.3106168698889,C 314.57722365269154,675.1594043953922 341.5514160664178,680.1910027581208 366.68547501079695,675.2967718513928,C 391.81953395517615,670.4025409446673 414.7909995872636,655.7388824517388 430.3944082870972,635.4359749719262,C 445.99781698693073,615.1330674921136 454.19807645343803,589.5349840350765 454.7408631950751,563.9345973633683,C 455.24365657356896,540.2204866121502 449.39214479178304,516.6077272657371 439.51353024688814,495.04329301450105,C 429.63491570199324,473.4788587632649 415.84372649087845,453.88979699161456 400.4988428514528,435.8026082660281,C 369.8090755725917,399.6282308148572 333.1726011691104,368.8354023669589 302.713088286203,332.4669342311351,C 273.6466114281212,297.7617424082083 250.3105667143647,257.4920286419209 240.17000392937888,213.37310523244378,C 230.0294411443935,169.25418182296664 233.25851121379537,122.05987362830426 250,80M 250 , 80C 241.37195829737448,156.04338868855052 208.08742788272113,227.57239316125495 163.84860158738485,290.02210344778297,C 131.52247980190555,335.6552521826313 93.76100739965294,378.0568316421875 69.53470027523265,428.45969323019347,C 57.42154671299877,453.6611240242107 49.01592648197176,480.94905623453604 47.80022807641625,508.88402859311606,C 46.58452967086076,536.8190009516961 52.8726878129335,565.3508279139247 67.65307713155119,589.086469781757,C 77.16035308198475,604.3540850138961 90.0892918339745,617.5222837970921 105.36742864257248,627.0126424063386,C 120.64556545117046,636.5030010155851 138.24059821192256,642.2724232101252 156.18487935755374,643.4935477086433,C 174.1291605031849,644.7146722071614 192.37291494809944,641.3762277051676 208.6947522645898,633.820700093653,C 225.01658958108015,626.2651724821385 239.37514011603304,614.5120888682644 250,600,C 259.1890205657092,613.4928841530689 272.04315545816036,624.4621089362869 286.8096522535487,631.4224676998098,C 301.576149048937,638.3828264633325 318.2093458821936,641.3128373944388 334.4711070026078,639.8806547986268,C 350.732868123022,638.4484722028147 366.56918487076257,632.6678446483064 380.029264116251,623.4308381835293,C 393.48934336173943,614.1938317187522 404.54083261943765,601.5488633815971 412.1970603316606,587.130881589968,C 424.16248601380096,564.597945515095 427.6256574989177,538.0504057552072 424.02265637636197,512.79326809434,C 420.41965525380624,487.53613043347275 410.0886959506818,463.5888371367331 396.6397700681218,441.9086385095401,C 369.74191830296616,398.5482412550932 331.382778806072,363.61267343167907 300.1757590235626,323.2426301329929,C 273.68519397100823,288.97388977805576 252.16518840288273,250.18769867722534 242.53939238807982,207.95689648973297,C 232.91359637327736,165.72609430224063 235.29151837388915,120.74011745898696 250,80M 250 , 80C 236.49908989165309,157.62592179497582 198.92482249800784,229.20955778286424 152.3800896422316,292.7835001779823,C 124.84607102973123,330.391324002026 94.70231004325103,366.4622997416241 72.9783164334763,407.69988812135716,C 62.11631962858636,428.31868231122354 53.50718661293669,450.26164232744367 49.16327393444143,473.1581064884253,C 44.81936125594616,496.0545706494069 44.84898561682695,519.9210113455647 50.6359009553135,542.4959810974535,C 55.909299752986364,563.0677039210669 66.00204193343257,582.4663533347941 80.32036229184274,598.1504286000054,C 94.63868265025292,613.8345038652167 113.15536404989857,625.7074296425317 133.48413830137378,631.8511624039262,C 153.81291255284896,637.9948951653206 175.86915365417812,638.362991143515 196.3595732196156,632.7820216181361,C 216.8499927850531,627.2010520927572 235.69116510869117,615.6927294905678 250,600,C 263.1327612517232,617.6720646346271 281.74913641005696,631.2045338473645 302.6049098029216,638.2620123440146,C 323.4606831957863,645.3194908406647 346.4452870545027,645.8673126632356 367.65404279747605,639.9546173066238,C 388.8627985404492,634.0419219500124 408.1828498042584,621.7299641726693 422.80862092197276,605.2721968344965,C 437.4343920396871,588.8144294963238 447.3354191076639,568.3388347885631 451.94440033697225,546.809120936004,C 460.7504069579174,505.6740428569066 450.04085530724007,462.36290143170856 430.9733597356052,424.86528799022074,C 411.90586416396854,387.36767454873245 385.2980017555476,354.3355989031064 359.991067404486,320.73203547699455,C 333.1200605778969,285.0516338252254 307.5711180554078,248.1038615993439 288.254705101951,207.82957376556962,C 268.9382921484945,167.5552859317955 255.75536807936115,124.29467020056947 250,80M 250 , 80C 265.4761868269301,122.41242704199891 267.2596184043282,169.53257382614623 256.00794162481606,213.255863912144,C 244.75626484530508,256.9791539981406 220.64522129309535,296.3872739485811 192.59668893035146,331.7653202285963,C 168.16429383107152,362.58227682993453 140.69717640500787,391.21620568734534 120.07274114219014,424.7014175658138,C 109.76052351077894,441.444023505048 101.26718773125499,459.4348773420312 96.38723783961804,478.4833096966682,C 91.50728794798108,497.5317420513052 90.33702997081926,517.6556249516225 94.18768098207147,536.9384974789098,C 97.48593595457046,553.4551410312096 104.48639481118765,569.274581528417 114.86922863104715,582.536359763877,C 125.25206245090664,595.7981379993371 139.00298444272892,606.4377036328863 154.54116629521897,612.9371578266082,C 170.07934814770903,619.43661202033 187.35259936819818,621.760823749317 204.0446351667911,619.5127265548363,C 220.73667096538404,617.2646293603556 236.7923149807815,610.4515576126456 250,600,C 279.7494514678214,618.9928366291891 318.9393494121476,622.1205354468951 351.44112631037376,608.3585514214263,C 367.6920147594868,601.477559408692 382.234857677264,590.6649207530629 393.6688807655362,577.222356173278,C 405.10290385380836,563.779791593493 413.4138621904374,547.7557111943112 418.22205916381773,530.7757032929583,C 424.28660600485824,509.35893233929323 424.77104017669643,486.5481373185637 420.98359683957455,464.6138700767109,C 417.19615350245266,442.6796028348581 409.2493167576055,421.60996097097694 399.15188237602825,401.7731611943329,C 378.95701361286825,362.0995616410414 350.724406018465,327.187456425392 325.8106184153422,290.29395546461745,C 283.52152873270853,227.67029519703053 252.79808462249764,155.51331441501773 250,80M 250 , 80C 260.3631113609578,127.29760623289596 257.1269039256153,177.30532712515637 241.98396041373027,223.29607504511904,C 226.84101690184693,269.2868229650778 199.83688081803638,310.3519174087809 171.15451833590652,349.36191247267436,C 149.10339275124392,379.35296710588005 126.00830586946695,409.1105506368044 111.09118253274431,443.2161942888379,C 103.63262086438165,460.2690161148552 98.34144015666625,478.3755615658455 96.71872220685302,496.9172891241399,C 95.09600425703978,515.4590166824344 97.227347934884,534.4268270449212 103.86230911270943,551.8166563873676,C 114.42937886837505,579.5123029444056 137.1388912398571,602.6657924445552 165.20847796113762,612.1952259392592,C 193.27806468241812,621.7246594339632 225.8013395772938,617.1212334596554 250,600,C 261.02600423730127,616.6372306115381 276.70805039031137,630.1510533530977 294.78636295187863,638.6094708640018,C 312.86467551344583,647.0678883749058 333.27569592403694,650.4415693390786 353.124216175082,648.3424133881443,C 372.97273642612697,646.2432574372101 392.1842000806972,638.6932039999226 408.3024160424634,626.9214867899167,C 424.42063200422956,615.1497695799108 437.4050397467937,599.2265673626207 446.14399649713266,581.282185323158,C 457.2182728855695,558.5425091808081 461.42871671368835,532.74793656828 459.8237997655723,507.5059732893253,C 458.2188828174562,482.26401001037055 450.9768837734245,457.59188481263516 440.5927958345694,434.52885842266255,C 419.82461995685105,388.4028056427075 387.40431337484665,348.7098558931451 357.4665954348237,307.93409202671745,C 307.28957531727576,239.59199835299876 265.5744482133151,163.34153633354092 250,80M 250 , 80C 252.09359569863688,118.3017528045988 246.72790520087358,156.9584835677408 234.6405627086568,193.36320252462596,C 222.55322021644005,229.7679214815111 203.71650700447708,263.6740723459027 181.5126249532425,294.95337912704485,C 149.17472772162395,340.508791727005 109.18172624543946,380.7082339243712 81.33096381727601,429.1372566967267,C 67.40558260315899,453.35176808291874 56.79598411308612,479.81226697740107 53.319697172629546,507.5282232614285,C 49.843410232172964,535.244179545456 53.847473826354225,564.2046668543362 66.91831181056878,588.8909383026721,C 75.60421916743644,605.2955993538802 88.20898115735233,619.6638126050252 103.58540778434936,630.0620526004134,C 118.96183441134639,640.4602925958015 137.0701132720222,646.8278093137185 155.58695062631207,648.1257404412787,C 174.1037879806019,649.4236715688388 192.96146353327524,645.63542127121 209.50486936932882,637.2167744582869,C 226.0482752053824,628.7981276453638 240.22100269359146,615.7774872048234 250,600,C 256.5363234470333,620.3016267848571 270.1717889193316,638.2372888372257 287.97507815027666,649.9813284691064,C 305.7783673812217,661.7253681009871 327.60788547333976,667.19086482619 348.8578445617372,665.3691038491945,C 370.10780365013426,663.5473428721992 390.6081441096592,654.4912049610516 406.5396891381084,640.3114501210571,C 422.47123416655757,626.1316952810625 433.76977304431966,606.9942056239205 439.27129282503506,586.3880692947041,C 445.6353450722096,562.551287198378 444.3125831814366,537.003676829173 437.44944167391026,513.3057733278044,C 430.5863001663839,489.607869826436 418.39600758583674,467.7097661341881 403.87089609418274,447.7669860404418,C 374.8206731108512,407.88142585293906 337.0398033722889,375.2147610231707 305.47952066085725,337.2842729953757,C 275.94930404517805,301.79360461191095 251.79413110048642,260.99238041009977 241.064318791882,216.08700920023085,C 230.33450648327818,171.18163799036196 233.21737179592847,123.01121512161555 250,80M 250 , 80C 257.6553533319972,128.01770581964323 252.53330726547082,177.84795881826963 236.41978121555294,223.72451911934428,C 220.3062551656364,269.60107942041606 193.194730907898,310.7231148324005 164.52548618072686,349.9962470425105,C 140.45949221797807,382.9635251016695 115.13899815797869,415.78064973709706 100.18800599553029,453.76066186720806,C 92.71250991430307,472.7506679322657 88.00686907422566,492.9764618726957 87.91673417200076,513.3846770741966,C 87.82659926977587,533.7928922756975 92.48192421798063,554.3497933863424 102.41789047000697,572.1761768291489,C 116.42791757256911,597.3119420722516 141.40327984479762,616.3780648754738 169.64098858281486,621.9205696339565,C 197.87869732083206,627.4630743924391 228.53298133446046,619.163889568255 250,600,C 260.06472376318857,621.6481501978654 277.94831541099165,639.5531537401534 299.5725731576648,649.6691088766731,C 321.19683090433796,659.7850640131928 346.36302952928884,662.0290611003988 369.49017074663453,656.1065269695066,C 392.61731196398006,650.1839928386153 413.50187431432556,636.2074535104546 428.26629623606016,617.4470452863349,C 443.03071815779475,598.6866370622151 451.64645825204116,575.3709441073595 453.79845235501125,551.594695605979,C 457.4013464529981,511.78821784672414 443.12389041765977,472.12842276417877 422.13512218737975,438.11360061772393,C 401.1463539570984,404.09877847126916 373.95952274218615,374.4307826964359 348.56522513687264,343.5654920512438,C 317.93092513816714,306.33128349513606 289.817942730879,266.3917951741551 271.82128759517184,221.65962523867313,C 253.8246324594657,176.92745530319164 245.96802745678303,128.0477868441521 250,80M 250 , 80C 250.96254544406654,118.20495166696722 244.9606026086891,156.53007897821072 232.8055187457559,192.76264391491173,C 220.6504348828228,228.99520885161266 202.2782362068728,262.869685004388 181.46538123994355,294.92229634469464,C 156.6659854191564,333.1143366477262 128.13385754716498,369.23598859019626 109.04267187919586,410.57808100671036,C 99.4970790452056,431.2491272149699 92.48955374247998,453.2609143949531 90.28417332200365,475.9224851943771,C 88.07879290152734,498.5840559938011 90.82623749610345,521.8864119854297 99.63644662172028,542.8814282764266,C 111.32297748145761,570.7308132668334 134.12412718014932,594.0057841286191 162.27716896272565,604.9405674491973,C 190.430210745302,615.8753507697754 223.28494880191204,614.0879128107404 250,600,C 274.8669878050059,617.9280782116631 308.7976917914824,622.3939541415463 337.54323020523424,611.7413914376077,C 351.9159994121101,606.4151100856384 364.94662432694145,597.5668209317851 375.33095649110334,586.2924511835992,C 385.7152886552652,575.0180814354133 393.4386741276859,561.3597611409386 398.0833968420316,546.7524917649979,C 403.61445197264266,529.3577801331335 404.77955530034694,510.7037187163859 402.41366860862684,492.6047921245816,C 400.04778191690673,474.5058655327773 394.22889454201106,456.9645301221782 386.4101078261541,440.4710423798747,C 370.77253439443837,407.4840668952661 347.58219371925657,378.7817488060447 325.55656506183453,349.6691065917107,C 296.2757975049063,310.96689641172 268.98055632439576,269.83738161421303 254.29966610414166,223.5805347277262,C 239.61877588389135,177.32368784124216 237.65978815975024,126.93552591882218 250,80M 250 , 80C 248.2802341772765,127.70142589703443 237.03160805825297,174.94998461107897 217.86901740307204,218.66701500516277,C 198.70642674789156,262.3840453992459 171.54328554096307,302.08876969909295 142.85346947481415,340.2368768760649,C 115.37946671361303,376.7683485138823 86.24683291317025,412.7901790981845 67.79882263277464,454.61170662219496,C 58.57481749257321,475.52247038420137 52.211874383556584,497.8560840344642 50.817667371253975,520.6683285260469,C 49.423460358951374,543.4805730176297 53.14011867455606,566.7558524008107 62.86750905044849,587.4372495589308,C 71.09916179417219,604.9385600936184 83.62790063176928,620.4684929685543 99.30581751020365,631.7936375450143,C 114.98373438863803,643.1187821214743 133.7657864969492,650.1599960418047 153.04760000817356,651.6658662364707,C 172.3294135193979,653.1717364311368 192.02605116874508,649.11908590303 209.1015882679643,640.037125206242,C 226.17712536718355,630.9551645094539 240.56060682415497,616.8805756358196 250,600,C 273.2678527535033,617.5504712153761 305.07661611435526,623.0768492372466 332.960203441191,614.5964265221234,C 360.84379076802674,606.1160038070001 383.9085205083536,584.087835236907 395.1318148860087,557.1908154214526,C 402.5165056861635,539.4931441228882 405.05492368844426,519.9383790898714 403.51019149879176,500.82411661212535,C 401.96545930913925,481.7098541343792 396.4401430863137,463.0494505084554 388.59654087404164,445.55033247520686,C 372.909336449495,410.55209640870635 348.50968342622036,380.3280819102842 325.4815094468076,349.6577686807472,C 296.37336141659716,310.88977872129794 269.3092824260858,269.6908000585 254.68919388225675,223.46857230804207,C 240.06910533843114,177.24634455758667 237.98566994490722,126.96697989621609 250,80M 250 , 80C 264.7864170628633,122.23146263790107 266.613886820784,168.788337604197 255.86941310649019,212.22439233636874,C 245.12493939219672,255.66044706854035 221.95052818376303,295.2742633441111 193.38384691695407,329.71376519146503,C 163.22509322489586,366.0726422969518 127.13000556019995,397.1725170174532 97.10625511392315,433.6429540558247,C 82.09437989078056,451.8781725750079 68.67478617095045,471.6032321300407 59.180311174350564,493.23040338974323,C 49.6858361777507,514.8575746494458 44.230468012926785,538.4554063917208 45.070805257514635,562.0599276847469,C 45.9702008823787,587.3233600918738 54.31340845330005,612.4732040847503 69.80601823877332,632.4489136219495,C 85.2986280242466,652.4246231591487 107.90543635865534,666.9074707466905 132.67655476879284,671.9514396393823,C 157.4476731789324,676.9954085320738 184.0865925022104,672.4542436351137 205.6571557509916,659.2724102796989,C 227.22771899977278,646.090576924284 243.45558208837363,624.417627314659 250,600,C 274.86570518868837,616.5317802366766 307.62346210447134,620.451738145705 335.7563983782542,610.4446931802914,C 363.88933465203695,600.4376482148779 386.54526155468864,576.9894976742623 397.071132624143,549.046536296596,C 404.92841815635353,528.1878515653153 406.3490261223638,505.175133567229 402.6962812521577,483.1869749456703,C 399.0435363819516,461.1988163241116 390.4944504022759,440.2326797150869 379.5450525696127,420.81793398521154,C 357.64625690427414,381.98844252544717 326.81548425722673,349.05930993312677 300.87571392524745,312.8044485523363,C 276.89120759544994,279.2823725607207 256.9669227736421,242.29793130749394 247.332491750766,202.22095710113467,C 237.6980607278903,162.14398289477555 238.3940741622293,119.55108858324752 250,80M 250 , 80C 233.0398933863306,156.6584459413943 196.03536061170547,227.43764833104018 152.45937020330555,292.74687899886953,C 122.72076046353575,337.3174258764637 90.25437666108868,381.1934637533849 73.09281176866024,431.95170691314286,C 64.5120293224338,457.3308284930374 60.10006297849727,484.3790425348227 62.71460384981897,511.04163459915,C 65.32914472114066,537.7042266634772 75.23254040579249,563.8695808059258 92.3856738131471,584.448688023345,C 111.20769537237177,607.0300083289161 138.79419106364452,622.329019502757 168.03365417459733,625.3684798663653,C 197.27311728555011,628.4079402299736 227.61972570868025,619.060636006283 250,600,C 259.2585933151266,622.70872411521 277.0723442863049,641.803142446923 299.0715455271018,652.6402474977446,C 321.0707467678987,663.4773525485662 347.02162928526667,665.9549220416458 370.7334789143154,659.6974554388581,C 394.44532854336404,653.4399888360718 415.68037678758105,638.5811966704222 430.1974254079536,618.8159999734667,C 444.71447402832604,599.0508032765111 452.4893568932927,574.6457990646754 453.33222145268525,550.136672592071,C 454.16558836690353,525.9037221481573 448.40594233625654,501.6969657318921 438.4876763017476,479.5709993914224,C 428.5694102672387,457.4450330509527 414.61679292018,437.3208436323962 399.11982250037033,418.67213602467086,C 368.1258816607376,381.3747208092224 331.21288795990233,349.22287102440436 301.38641485025494,310.9854148804125,C 276.11992058581865,278.59383902101956 256.0188848575065,241.68663470848318 246.4626959406387,201.73304697903473,C 236.906507023771,161.7794592495863 237.9631945263257,119.27754107703946 250,80M 250 , 80C 254.4822935786915,128.4749050459809 246.75868181861154,177.87372507296686 228.8339480616154,223.1353124808699,C 210.90921430462055,268.3968998887699 182.7458019246374,308.7704238630849 153.55984705219728,347.7330651124408,C 133.28603382893309,374.79818307164106 112.55142845968462,401.83222315207195 97.563430196149,432.14571883979295,C 82.57543193261289,462.45921452751384 73.81905862699347,496.79801222436896 78.81414233989202,530.2434491546644,C 81.6113833748093,548.9728547040786 88.70426973397062,567.1234568695158 99.89007321073386,582.4039342907578,C 111.07587668749709,597.6844117119997 126.34147726266097,610.0017732065634 143.77556035672296,617.3955500703316,C 161.209643450785,624.7893269340998 180.73883813153617,627.2066132416368 199.43019521728124,624.1655016134617,C 218.12155230302628,621.1243899852867 235.89578136666617,612.6367007713632 250,600,C 280.76021293072847,620.6199036308682 321.88329543751394,624.6490591513815 356.18270153010945,610.687616998607,C 373.33240457640716,603.7068959222198 388.73189104561294,592.5415225065528 400.87476217656115,578.56320136202,C 413.01763330750936,564.5848802174871 421.8882042587032,547.8461198509642 427.0769136358385,530.0719791875696,C 433.13617607848084,509.3157226420529 434.18435179973784,487.24373320606816 431.2862923242103,465.8162252219738,C 428.3882328486827,444.38871723787946 421.63075694879626,423.601008356168 412.703317789082,403.907413529887,C 394.84843946965094,364.52022387732336 368.838057860684,329.5017035392781 344.514905237771,293.74514281245223,C 300.3327079273137,228.7945401636865 263.59458459015093,157.36817571482 250,80M 250 , 80C 237.16394875153742,155.5416358706276 202.76862963356663,225.7566281620094 161.35097520992272,290.22274999128695,C 137.56702137540628,327.242211542508 112.02768790418371,363.6024086962682 95.4599620372642,404.36547351165405,C 87.17609910380234,424.74700591934766 81.28405403886741,446.22210508197736 79.56777798652392,468.15572413808394,C 77.85150193418045,490.08934319419046 80.41180304487035,512.475474279162 88.19014149991527,533.0552385942608,C 99.84712277502709,563.897034519414 123.84889211520132,590.1992839633434 154.21131554041,603.0532651398288,C 184.57373896561865,615.9072463163141 220.55521011815318,614.835967685021 250,600,C 261.61996100414314,617.5516009255397 278.3627226152533,631.6649811833021 297.6215575000812,640.1608312094118,C 316.88039238490916,648.6566812355214 338.57563945905935,651.5009658162941 359.3903531761284,648.3657016067461,C 380.2050668931973,645.2304373971982 400.04896573484285,636.1479212862505 416.22196374297255,622.6751218660764,C 432.3949617511022,609.2023224459024 444.8549535874722,591.4291927157761 452.56384049189194,571.8420731857872,C 461.98063810352835,547.9154100117447 464.29922397724545,521.4812610578132 460.94443923979486,495.9879931765084,C 457.5896545023443,470.4947252952035 448.7398026312678,445.9374224846694 437.01490766141535,423.0531893568469,C 413.5651177216996,377.2847231011931 379.4697489727365,338.01892520713466 348.8761256349546,296.68279860246065,C 301.1655575057121,232.21936245443845 263.161566452684,159.1113524074567 250,80M 250 , 80C 225.74289857729937,157.8630112641153 185.19108866889613,229.41413352800186 143.2382411073946,299.34991888877653,C 121.59964326706073,335.4216618581005 100.19516358934222,372.2160424255666 88.25890329452916,412.5512038547111,C 76.32264299971432,452.8863652838565 75.11758524149488,497.7420409629766 92.8481439563237,535.8868550928265,C 106.0397056313568,564.2666527218604 129.63583640318345,587.9127950256665 158.53204007695464,599.931098821754,C 187.4282437507258,611.9494026178414 221.11030258047103,612.0339351792827 250,600,C 257.76039209062765,624.6248279902918 275.6579161988674,645.8770345281815 298.58570884992986,657.7480986380928,C 321.51350150099233,669.619162748004 349.13544333093563,671.9584937228705 373.82205531243034,664.3969444221743,C 398.5086672939262,656.8353951214816 419.9338229001296,639.5846020764018 433.3008071131217,617.4954741623949,C 446.66779132611384,595.406346248388 451.9926016917189,568.8511297843295 449.80414663394157,543.1253352696439,C 446.3156793203902,502.11759651780534 424.4951969170267,464.71018427406125 397.87696040758976,433.32111727829925,C 371.25872389815066,401.9320502825383 339.93460353324434,374.8582678761127 312.3846337929968,344.283716218758,C 280.3056828522362,308.68296776423983 253.4239472585147,267.3286545391099 241.22916816201982,220.9847256296044,C 229.0343890655262,174.64079672009893 231.82933271153934,124.3429727721726 250,80M 250 , 80C 229.43406343697183,156.1294305792881 191.8537329744293,226.43720353719436 150.6325620587896,293.6641550922423,C 125.18097242370996,335.172747531262 98.8309682381205,377.08808059534954 85.79694428752897,424.00141431697443,C 79.27993231222905,447.45808117779205 76.33308049803577,472.0815664327921 79.04448823329878,496.2752625827965,C 81.75589596856177,520.4689587328008 90.28607467948447,544.1616118883958 104.76699838617263,563.731729770173,C 120.90679060529357,585.5437110162061 144.4948769939896,601.8874690866807 170.79016406110665,608.5817425208631,C 197.0854511282237,615.2760159550456 225.765047172562,612.2033798681164 250,600,C 274.4121315612642,612.7214714346647 303.7224431602447,615.6699795716371 330.21301190102093,608.1841415679348,C 356.70358064179715,600.6983035642324 379.97478159570204,582.944958617594 395.00024271440185,559.8793235515936,C 406.39125713290304,542.3929396374451 413.1614500090013,522.0612600448466 415.52272258563465,501.32594659907653,C 417.883995162268,480.59063315330644 415.92759197026055,459.4913674293957 411.0783058958503,439.1932577527774,C 401.37973374702904,398.5970383995376 380.70463060019705,361.5686209713623 359.46546310323663,325.6379503466952,C 313.606879951618,248.05818424849366 269.1165289076926,168.06922322268397 250,80M 250 , 80C 252.42221399494576,118.43305519605954 247.3859915718716,157.27582339894607 235.67753345473668,193.9620450749373,C 223.96907533760177,230.64826675092849 205.53969125141896,264.89749287406926 184.22781899333899,296.97195238932767,C 156.03548920770925,339.401530110129 122.30515860281983,378.6449273534388 101.18338562327216,425.0016661354937,C 90.62249913347878,448.1800355265388 83.50356175620682,473.20374112086023 82.98522577218237,498.6694132872434,C 82.46688978815794,524.1350854536266 88.83332851185443,549.9764513621952 102.7998947695969,571.276783708103,C 118.15993111961603,594.7022895241063 142.8293010414505,612.0552498037006 170.2912481385611,617.580329083223,C 197.75319523567165,623.1054083627454 227.4396076292873,616.6046299413446 250,600,C 275.3328797849256,614.7087316863426 307.1773524519225,617.5874603509367 334.7958254842916,607.8241856247698,C 362.4142985166606,598.060910898603 385.14708247117693,576.0151436296234 397.0009103466463,549.227304024365,C 406.40410191163596,527.9775279970169 409.2084272209548,504.0954705351388 406.62433460032156,481.0022798039223,C 404.04024197968835,457.90908907270585 396.25532613543214,435.61559101630667 385.84120987105547,414.84255139153345,C 365.0129773422902,373.29647214197007 334.43777332045795,337.5586750678951 308.7359271249444,298.8377882827828,C 287.35851347453394,266.6318367173009 269.1743659634245,231.98621224207116 258.5496292720919,194.81993584990656,C 247.92489258075943,157.65365945774198 244.82355561039833,118.3069387200319 250,80M 250 , 80C 246.5643413087945,126.93579396534983 234.2115892382519,173.1239728279046 214.48483574914778,215.8513376258926,C 194.758082260044,258.57870242388015 167.57260636961138,297.41169323054936 138.83863691601368,334.6827477533273,C 112.35972107697714,369.0287547515775 84.41188796830595,402.7267901247623 64.76691986419699,441.3901630883718,C 54.944435812141165,460.72184957017646 47.328269460194214,481.29137274032337 43.65191908807034,502.6614392616298,C 39.97556871594647,524.0315057829364 40.32821074425962,546.2123186506162 45.87087974129625,567.1759565880776,C 51.572102632617806,588.7392815057849 62.852848272687496,608.9103858054968 78.83310763612194,624.4703419314154,C 94.8133669995564,640.030298057334 115.4468656536425,650.8344343677313 137.4155127529526,654.6892324933301,C 159.3841598522628,658.5440306189287 182.54992215755485,655.3915375499788 202.62310381190588,645.667942420883,C 222.69628546625688,635.9443472917874 239.55213149922346,619.7059120000479 250,600,C 270.82368732028726,620.741179260297 301.72035593208506,630.7985592412329 330.79029531734784,626.4671512879206,C 359.86023470261057,622.1357433346084 386.2018325657125,603.7072470389418 401.4445136270088,578.5779186598452,C 412.4205109187702,560.4827135496957 417.8720304346357,539.2758134383822 418.25445947845105,518.1154090813388,C 418.6368885222664,496.95500472429546 414.09457705972017,475.88345118450053 406.5816606895196,456.0979753969056,C 391.55582794911567,416.52702382170713 365.43173037378773,382.3457425209072 340.60646034779137,348.06248383323776,C 312.22885314584926,308.8735103549044 285.2881678042654,268.03237483413113 268.464931877456,222.66671639358668,C 251.64169595064845,177.30105795304388 244.8888160773311,128.11382370693138 250,80M 250 , 80C 256.6385653862609,119.16082945086151 254.2263038255938,159.7705603607116 243.45077138729175,198.00050954114113,C 232.6752389489898,236.23045872157059 213.53380932746026,271.72734312017934 190.37512247871695,303.99677660000606,C 158.53981948759815,348.35625168128763 118.69429099645038,386.9887202914988 91.0899014902512,434.09760720270924,C 77.28770673711055,457.65205065833516 66.82794852855211,483.5218839884262 63.60659243112244,510.6315732415596,C 60.385236333692745,537.7412624946929 64.77457163589199,566.0659869472659 78.21824003162752,589.8268826916061,C 86.6984574418494,604.8151698050482 98.68433409634112,617.8518671132854 113.1084216836559,627.2597646038554,C 127.53250927097069,636.6676620944254 144.3602308536032,642.3975698216293 161.54167666717169,643.5640850058484,C 178.7231224807401,644.7306001900674 196.20232736775742,641.3206856909811 211.65614108076633,633.7218384334546,C 227.10995479377527,626.1229911759281 240.49176637722766,614.3581451202579 250,600,C 271.8927499097977,619.0489067104548 302.10524101509327,628.121301915301 330.8889404645017,624.4264417714414,C 359.67263991391013,620.7315816275818 386.39731053249534,604.4426010221046 403.77365554597395,581.200054271606,C 417.39000923892166,562.9868605859274 425.39921153297075,540.8495628536363 427.8919649563163,518.2462070741532,C 430.3847183796618,495.64285129467004 427.5108340875513,472.6394474345142 421.2030156759443,450.7914054396423,C 408.5873788527291,407.09532144988856 383.11684927335256,368.4114396725926 358.13818793986553,330.40395979715447,C 332.9311443828341,292.04897399858817 307.9620270511731,253.31818699421027 288.8675360743726,211.58210674185318,C 269.7730450975725,169.84602648949664 256.38039927861627,125.45096792742348 250,80M 250 , 80C 231.98272749286153,159.05775188874333 192.23895077927492,231.551820374672 145.1148068557281,297.5371619421098,C 113.90840911373078,341.23376081159284 79.82617757893568,383.82146992061513 59.525401751445095,433.53173559677316,C 49.37501383768853,458.3868684348596 42.96912960366121,485.01314133063255 43.17264102970047,511.8602377527436,C 43.37615245573974,538.7073341748547 50.42802400238956,565.7187094742774 64.98361159608694,588.2784717292494,C 74.8095262885603,603.5076954189672 87.97861882022497,616.6107027579504 103.43870709444242,626.0692187244554,C 118.89879536865989,635.5277346909603 136.61912475270415,641.3015547863189 154.6970797349103,642.5920575552242,C 172.7750347171164,643.8825603241296 191.16403293996564,640.6791636137282 207.71486823401466,633.293521813283,C 224.26570352806368,625.9078800128376 238.93964309041806,614.3577978383834 250,600,C 260.3721336713819,615.5085525270955 274.9378402755325,628.18145845402 291.7274712256614,636.3180825046425,C 308.51710217579034,644.4547065552649 327.47900555988815,648.0300183047254 346.0848124145202,646.6442659203426,C 364.69061926915214,645.2585135359598 382.8783597364456,638.9271624368836 398.4423581490826,628.6384155844179,C 414.00635656171966,618.3496687319522 426.9094325097111,604.1592145574394 436.0463267998084,587.8922688971663,C 448.00865030134497,566.5950468661526 453.4422570076955,541.9164944718602 453.0941701349756,517.4921687836709,C 452.7460832622558,493.06784309548146 446.79018088675696,468.93099702310985 437.57488080119344,446.3091691984905,C 419.1442806300602,401.06551354924153 388.5987243190176,362.0131824242681 359.89735348071457,322.4795674722023,C 333.54264804933484,286.17827780317657 308.41729065907555,248.74705366629377 289.180219592382,208.22188584697076,C 269.9431485256887,167.69671802764793 256.48381546120527,124.38822216618195 250,80M 250 , 80C 247.03618356495824,156.15945235214576 215.05161268749796,228.8945530456997 170.08594549367666,290.43425701195133,C 142.28118232315558,328.4876653376867 110.224506859299,363.545075199892 85.74801413211983,403.8199810837082,C 73.50976776852634,423.9574340256157 63.3008087765578,445.48361542239235 57.33951147142398,468.2817429657533,C 51.378214166290164,491.07987050911424 49.78409691438275,515.1834135844998 54.266376027173685,538.3178221353702,C 58.32696564902675,559.275762706546 67.42666847149495,579.3272410988436 81.0979746886387,595.7229431996724,C 94.76928090578245,612.1186453005013 112.98778520562514,624.7458662505531 133.25889475760772,631.4395781201781,C 153.5300043095903,638.1332899898028 175.75765715868073,638.8362281101516 196.376510798559,633.3057185821502,C 216.99536443843726,627.7752090541488 235.90797684347444,616.0355400413576 250,600,C 262.01497325357235,609.1051830925417 276.31062156185936,615.1746074832181 291.20505062554696,617.502680570461,C 306.09947968923456,619.830753657704 321.55711580048444,618.4114278641271 335.7989114107144,613.4682305962447,C 350.04070702094435,608.5250333283622 363.03069489960103,600.0777323437616 373.44868012070214,589.181424466059,C 383.8666653418033,578.2851165883563 391.69718314513847,564.9807004894811 396.48274478776625,550.685164780828,C 402.57875743672764,532.4750208078884 403.71507529482557,512.7703794251076 400.8701109567451,493.77888417995825,C 398.0251466186647,474.7873889348088 391.30286140621587,456.51116732157766 382.4425595142822,439.47397963947236,C 364.7219557304117,405.3996042752585 338.977761193398,376.31125412862673 315.2404870610541,346.1181312081299,C 285.64748364525525,308.4766907993303 259.02921943972865,267.4371963482102 246.09274298669163,221.33652971315257,C 233.1562665336582,175.2358630780967 234.10874142575474,125.16737526293639 250,80M 250 , 80C 229.97133081463318,160.5336114329236 188.53975418969023,234.0764393021778 140.95242113714838,302.06361377437105,C 110.61553667731462,345.4053798371219 78.17780071807113,388.36451609780534 60.19741801402414,438.1193257344981,C 51.207226661991086,462.99673055285274 46.136167869039056,489.5237727296675 47.68260824544798,515.9305395367697,C 49.229048621856904,542.337306343872 57.62318621098348,568.5471676810178 73.17519922345485,589.9444502725617,C 93.17881906869067,617.466489145528 125.37660147530623,636.1409653929165 159.33095236397975,638.3111004962268,C 193.28530325265322,640.4812355995371 227.94665542818706,625.9086360859592 250,600,C 273.28083212835475,614.5800146645844 302.2447375179971,619.7579231125825 329.15748435951195,614.2553755523462,C 356.0702312010268,608.7528279921099 380.52556812598397,592.7025179607818 396.9737340434341,570.7017950144748,C 412.29943986281404,550.2024512346879 420.70522641054583,524.9181780153451 422.43259566494044,499.3816052280067,C 424.15996491933504,473.84503244066826 419.4415540584251,448.1428228908359 410.9781793300103,423.9876652123919,C 394.05142987317777,375.6773498554732 363.3386007908597,333.6678351674002 335.74087322272743,290.5544167209992,C 294.55216435145053,226.20904493450757 261.31226187129147,155.55706016104622 250,80M 250 , 80C 246.4276726919463,156.18860407140295 214.37484850654403,228.91617924844525 169.07351465532463,290.27784532788957,C 139.29252789360646,330.6168554592593 104.48624278199512,367.3254277038636 78.02711443666111,409.9171808737617,C 64.79755026398759,431.21305745870995 53.810757600437434,454.09126172037645 47.62893694307275,478.3877804232773,C 41.44711628570808,502.68429912617825 40.22259034298848,528.4385203200931 45.86032572208025,552.867021451263,C 50.854529845612724,574.5070795379427 61.28488539984383,594.968159997857 76.44301990758584,611.1997695011559,C 91.60115441532784,627.4313790044547 111.45101252792844,639.3036185509278 133.02014484336289,644.5957561135447,C 154.5892771587974,649.8878936761613 177.75948025981762,648.5414929741407 198.51968081269138,640.6517362081282,C 219.27988136556513,632.7619794421158 237.51721853741103,618.3688419825427 250,600,C 259.9997621652268,611.1165717317856 272.80467408307186,619.6884550885374 286.89095576094564,624.7034405242722,C 300.97723743881943,629.718425960007 316.3116257394338,631.164280516442 331.09485125759386,628.9215915704988,C 345.8780767757539,626.6789026245556 360.0723077062362,620.759399578471 372.15256693810323,611.9480008631747,C 384.2328261699703,603.1366021478783 394.17627362418074,591.4684487406387 401.2062289473002,578.2717393559482,C 412.3614467835655,557.331041849099 415.99498434012196,532.7900906121513 413.2526604975333,509.2224993692971,C 410.5103366549447,485.65490812644293 401.6652323407069,463.0905990393652 389.8101979358143,442.5379871297635,C 366.1001291260106,401.43276331052107 331.3149007722106,368.0376910396834 301.98581552108703,330.7333810135219,C 274.28379013224605,295.4985642911634 251.21548443580377,255.77753923044338 241.0340068276034,212.12857551060347,C 230.85252921940403,168.47961179076376 233.71993444836198,121.75947779530438 250,80M 250 , 80C 250.8486446171775,156.24500331543936 221.90781042778778,230.33932849130264 179.7685715976951,293.88698996737924,C 150.85923376782077,337.48343036151505 116.44619635568989,378.0195915454578 95.40437393589038,425.91156517418665,C 84.88346272596912,449.85755198857237 78.02206152007913,475.70298254921636 78.08638879754974,501.85820610404676,C 78.15071607502036,528.0134296588772 85.4443071986404,554.3963397726633 100.52153099712112,575.7686859174437,C 116.81349306894339,598.8629542940524 142.27036658746135,615.5180689423504 170.1427455374881,620.1982133489504,C 198.01512448751487,624.8783577555503 227.73453629751188,617.4075381979678 250,600,C 261.48016404799097,620.0932969388696 279.85991295259635,636.1534725303522 301.3017678734311,644.8587356508008,C 322.7436227942659,653.5639987712493 347.08301800860966,654.8544576922272 369.3774466793121,648.6501689586713,C 391.6718753500143,642.445880225116 411.7554930221604,628.8415461195135 426.20432860730256,610.764878874806,C 440.6531641924447,592.6882116300984 449.4397291049428,570.3285853705333 452.2037459382626,547.3526205510209,C 456.9379491487859,507.9994280877249 444.1297311863102,468.22769566704505 424.35929401267,433.8734200808114,C 404.58885683902855,399.51914449457774 378.42001154976833,369.3764463211049 353.7015202558789,338.39124622096506,C 324.1135158395185,301.3019988836313 296.51523484542304,262.11660788689625 277.8117910247435,218.51335728973135,C 259.1083472040647,174.91010669256696 249.26667475181603,127.43969337456537 250,80M 250 , 80C 260.51530835351883,128.0983676494899 256.6164924874579,179.0761249718545 239.99936302540152,225.42152052261378,C 223.3822335633467,271.7669160733712 194.21466702069335,312.56336582096026 162.07067447872848,349.8566416730085,C 138.17661569807686,377.5783916755487 112.62822854074565,404.0731972272911 92.1256699409911,434.38930778059597,C 71.6231113412359,464.70541833390035 56.47663588678854,499.8833373033459 56.375527143875985,536.4813050780555,C 56.3108175081869,559.9040190141701 62.55715358459628,583.4802074117167 75.28037054621122,603.1461034151457,C 88.00358750782615,622.8119994185747 107.20122590587607,638.3267312239474 129.3155254816791,646.0458937265541,C 151.42982505748338,653.7650562291608 176.2593683300225,653.5500637805013 198.15635831180364,645.2344432259159,C 220.0533482935848,636.9188226713305 238.80278619563109,620.5730434911638 250,600,C 264.6459885156415,614.905316624804 283.54860180949214,625.5773595480105 303.8733185332238,630.4332151251485,C 324.1980352569555,635.2890707022866 345.86512223994885,634.3105007902881 365.707652305008,627.7570708560334,C 385.5501823700671,621.2036409217787 403.48874653160766,609.1216329213606 417.2715142349258,593.4146676599764,C 431.05428193824395,577.7077023985923 440.65718944646915,558.4684626910761 445.56272496635034,538.1556794118418,C 450.8862779411379,516.1119744148789 450.7251814666848,492.9132465261883 446.4101696593953,470.65014208472627,C 442.0951578521058,448.38703764326425 433.7248077979196,427.04366381488273 423.19959778251194,406.95672526267776,C 402.14917775169283,366.78284815826635 373.02960747075446,331.524046962221 346.34953096994195,294.8466138052367,C 299.7031748681708,230.7212876320636 262.24254169628387,158.3457731291474 250,80M 250 , 80C 228.16395339911008,158.3016346420598 188.10197989527762,230.15105275757668 144.08554352970344,298.4921988443246,C 116.37172455391433,341.52144672608654 87.5374246090339,385.0025442983775 73.6878066663244,434.2748490783845,C 66.76299769496325,458.91100146839716 63.87978443870221,484.89568674223113 67.4014092777237,510.24309572948187,C 70.9230341167452,535.5905047167325 81.05281422963097,560.1988613287036 97.62997446015721,579.6947773770772,C 115.88638888783647,601.1656154504659 141.98797834805953,615.9965214107614 169.90622689607233,619.8520308894471,C 197.8244754440851,623.7075403681326 227.13756917140824,616.4803765714473 250,600,C 263.38466061572285,617.3325011906114 282.1251876932563,630.4648840027612 302.9795160703917,637.147826861954,C 323.8338444475271,643.8307697211467 346.69285239079835,644.0319420273594 367.7039045091576,637.8593877586452,C 388.7149566275167,631.6868334899311 407.76792870403307,619.2024406072429 422.1265605722298,602.6677973333701,C 436.48519244042643,586.1331540594973 446.1211390822889,565.6746507757338 450.5151847592336,544.2210473509116,C 458.8176974378832,503.68464251290777 448.2400378155314,461.1725662062689 429.54308061543577,424.25975507750945,C 410.84612341533864,387.3469439487496 384.8026026771461,354.7616050025155 359.9531287278957,321.6763291473064,C 333.0385193118849,285.841474901193 307.3937714013791,248.774880922119 288.058851155019,208.3435337033643,C 268.7239309086592,167.91218648460983 255.59725559743222,124.46575883343938 250,80M 250 , 80C 239.4297861396227,156.84608550410687 203.71069082564873,228.3266749598025 157.82658610591653,290.87025346653064,C 129.8303669924848,329.03126235420063 98.60667354313729,365.12560798331 75.67836857657885,406.5302419671118,C 64.21421609329639,427.2325589590125 54.973191739678434,449.3138681952718 50.08879375944159,472.4688973976665,C 45.20439577920475,495.6239266000612 44.79346322490453,519.8747308174061 50.369391296711385,542.8730296051671,C 55.41054356793966,563.6656088269926 65.38665714730125,583.326808590655 79.7105957341804,599.2192391875435,C 94.03453432105954,615.111669784432 112.67852043848993,627.1324162323334 133.16983228202315,633.2847089633954,C 153.6611441255564,639.4370016944572 175.90963748041548,639.6712262178182 196.4914077469735,633.8286839961282,C 217.0731780135315,627.9861417744382 235.8992242935909,616.0907641644251 250,600,C 260.5507605153649,620.9947010330376 278.4516271991748,638.1996834337701 299.8377993608422,647.9324969627934,C 321.22397152250954,657.6653104918166 345.9212824511211,659.854317263645 368.7318863645974,654.2176189373453,C 391.5424902780735,648.580920611046 412.28585925718863,635.2128072762528 427.2465715915719,617.094498708204,C 442.20728392595515,598.9761901401553 451.3500389767923,576.30792429002 454.16726713705054,552.9807031865057,C 457.18565421971357,527.9878453674107 453.0781798767379,502.4175893053384 444.26430111377806,478.8364709328326,C 435.4504223508182,455.25535256032674 422.0839083498855,433.5895772792068 406.89154705354883,413.5160683485824,C 376.5068244608574,373.36905048733297 339.2185907630907,338.8156525022824 309.14274311582204,298.4367248483119,C 285.94984002671595,267.2986313553373 267.01921603152005,232.6654812074395 256.38085970329075,195.32492691707688,C 245.74250337506152,157.98437262671428 243.4051917926783,118.2622545700921 250,80M 250 , 80C 259.41518695125575,119.79393251335887 258.66186468657247,161.8839963864233 248.30544134922408,201.44341126913463,C 237.94901801187578,241.0028261518459 218.0222078962359,277.6123607964337 193.36662142753477,310.2360464571504,C 161.6685372646648,352.17819758339317 122.07451493089613,387.7144544355097 90.95271653055829,430.0859807830666,C 75.39181733037182,451.2717439568425 62.087322060490166,474.3863179071914 54.27766352302488,499.4858672796778,C 46.46800498555959,524.5854166521642 44.379120319632726,551.7405076899397 50.494632792211874,577.3056920697054,C 55.70855658491642,599.1018904586153 66.94402065980975,619.543354148759 83.1593881871419,635.0133613070765,C 99.37475571447405,650.4833684653939 120.51172142302173,660.8092660698866 142.74120299869617,663.6569694255054,C 164.97068457437084,666.5046727811239 188.1216031499839,661.8120656453005 207.4070409873809,650.395798613352,C 226.69247882477785,638.9795315814033 241.9642283687117,620.9209378330571 250,600,C 258.39168064513234,615.5967544572947 271.38849531317663,628.6772361752816 286.9257320100049,637.1786083867404,C 302.4629687068331,645.6799805981992 320.47465537956623,649.5671873652379 338.14137453291244,648.315752985088,C 355.80809368625853,647.0643186049381 373.05057279167517,640.6947489909669 387.4266581090557,630.3503193499272,C 401.8027434264363,620.0058897088875 413.26965629176976,605.7594200056426 420.72443341972115,589.6937624833499,C 430.33474629326474,568.9827482359178 433.226082830921,545.45763381392 430.53119288738264,522.7851440327568,C 427.8363029438443,500.11265425159354 419.7507593500932,478.30578915750084 408.8282846700101,458.2557574481075,C 386.9833353098334,418.15569402930726 354.6337375417571,385.0016790125019 325.683010051824,349.68776848783597,C 294.8130862678538,312.0328347114885 267.4870479216394,270.5573932716069 253.02847002086432,224.06227785916317,C 238.56989212009108,177.56716244672006 237.13625176632067,126.96136937430217 250,80M 250 , 80C 255.18326676449803,128.25602766534772 248.46889650176772,177.59078571254884 231.73903700751828,223.1497833057074,C 215.00917751327,268.7087808988626 188.1810691775121,309.76153092076726 160.5615853268181,349.669858024414,C 138.7699298442964,381.1573586535976 116.43218854577603,412.91718874578874 103.36807441294422,448.9125754844543,C 96.83601734652686,466.910268853788 92.75984106644587,485.9097666779689 92.64457330388512,505.05582239392265,C 92.52930554132438,524.2018781098764 96.46752341306828,543.472134043989 104.99368877580086,560.6153321220265,C 117.68759960995204,586.1384387657178 141.04673873743891,606.4266616770881 168.49842991641572,614.105788998907,C 195.9501210953925,621.7849163207259 226.76461183094145,616.5130579131726 250,600,C 272.6443460316173,617.0160589257521 302.1376393777653,624.5876563634073 330.19477262737473,620.7005054301461,C 358.25190587698415,616.8133544968849 384.40574449018305,601.5904697264424 402.35784946124477,579.6807779058743,C 417.8486815006865,560.7749528466151 427.29219311564873,537.2360150797243 430.6040557030075,513.0197464850798,C 433.9159182903662,488.80347789043543 431.2728250293103,463.99701865708073 424.8197831636029,440.4225759462777,C 411.9136994321879,393.2736905246562 384.81203393136997,351.471381143659 358.4011243131113,310.3368670840562,C 312.30693798062066,238.54600553612033 270.18757437749184,162.89187931397444 250,80M 250 , 80C 260.46989655180437,120.26321631541735 260.2791416176694,163.168574829315 250.00255664554285,203.48156433863122,C 239.72597167341652,243.79455384794733 219.4047722071882,281.0300135005996 194.45789396169775,314.3226341194731,C 162.5268471094781,356.9359109532823 122.74433632078424,393.5788190932467 94.18673480815761,438.5226341453707,C 79.90793405180915,460.9945416714448 68.67500551723971,485.74130557031907 64.22850158413802,511.99200806897295,C 59.78199765103631,538.2427105676268 62.461118035359654,566.0022758466885 74.02568965548954,589.9841744817592,C 81.90965669412776,606.3334613012838 93.84950632018612,620.7674431397155 108.69326594951875,631.2134431320576,C 123.53702557885138,641.6594431243997 141.24167584436137,648.0476606201524 159.35215018973324,649.2587901586594,C 177.46262453510505,650.4699196971663 195.9019148009096,646.4848507675714 211.85654539116902,637.8300325429192,C 227.81117598142845,629.175214318267 241.21716655332708,615.8845192694465 250,600,C 263.07581518661704,615.4255703255005 281.1987578833554,626.4964060526084 300.88769425373846,631.1084497714533,C 320.5766306241215,635.720493490298 341.7042424454488,633.8480184451463 360.336003508866,625.9878249146243,C 378.967764572283,618.1276313841026 394.98899297156413,604.3649479923586 405.9305057287218,587.3588178844689,C 416.8720184858795,570.3526877765792 422.72594587931525,550.2475576533374 423.4664450312283,530.0392221536597,C 424.20307278704723,509.9365376475247 419.9811353430587,489.8104700369758 412.4428770808637,471.16012936511964,C 404.90461881866867,452.5097886932635 394.1311744174283,435.29578607117975 381.9074448387798,419.3195230540685,C 357.45998568147854,387.3669970198461 327.50706426599896,360.06034659773144 301.49906300353945,329.36464576606,C 272.4610361720305,295.09278552708105 248.39078961369736,255.63315157164666 238.1793319941642,211.88965445730958,C 227.96787437463217,168.14615734297251 231.8685859758771,121.09767915580333 250,80M 250 , 80C 252.91000644275545,118.47082537641863 248.0977171042572,157.45788569775402 236.39272440320488,194.22017192301598,C 224.68773170215263,230.98245814827786 206.04187200048872,265.21197106289964 184.5882668374189,297.2777685447473,C 159.85448950855815,334.24630081519365 131.1879796470264,368.8209733871206 110.99022147131714,408.4502893522022,C 100.89134238345761,428.26494733474425 93.06277311009457,449.3945842228254 89.68424976604801,471.37624953303464,C 86.30572642200146,493.35791484324386 87.51215212930542,516.1976110732643 94.59150572829263,537.2805611139211,C 104.78683133322349,567.6431552930867 127.86236936565895,593.7977771811037 157.45669099743793,606.0455490859883,C 187.0510126292169,618.2933209908729 222.29488491441836,616.0704196452344 250,600,C 260.3920049038767,621.5018999133148 278.5938571406859,639.1180061179421 300.4123901208993,648.8276448545657,C 322.23092310111275,658.5372835911894 347.4610353932429,660.259688224134 370.4572547938787,653.81768860583,C 393.4534741945143,647.3756889875269 414.01054547489815,632.8899430601477 428.3057208362883,613.7595110945205,C 442.6008961976784,594.6290791288933 450.6124593198249,571.0883965470341 452.1591067850997,547.2570443524451,C 454.68916220292266,508.27295580755305 440.2027433795144,469.81888579952215 419.40073741288927,436.7517285606888,C 398.598731446263,403.6845713218555 371.9309320672202,374.7935263249611 346.98867665693354,344.72619795775654,C 316.0864975277346,307.474315485386 287.7656542717325,267.4022611622786 269.9614437160617,222.39495609790328,C 252.15723316039208,177.38765103352853 244.91323670713797,128.13286052034204 250,80M 250 , 80C 228.44145999620568,161.39378662099688 186.05882317189088,235.59245210119207 138.84323028379816,305.30907089345317,C 109.78331286694643,348.21775975577526 79.3561953168845,391.3846553312703 63.864935297864356,440.8382218677792,C 56.11930528834666,465.56500513604243 52.40943067642009,491.77750518931583 55.228604250275126,517.5352390842158,C 58.04777782413016,543.2929729791158 67.61166297566024,568.5023382254743 83.9096325765079,588.6464386504088,C 103.61088594913603,612.9969581417761 133.31596789916642,629.2756461825336 164.5520979456333,631.5975772047996,C 195.7882279921002,633.9195082270655 227.8300708152043,622.1264869306697 250,600,C 259.87624256482053,622.287221777206 278.4706931688255,640.5644814253577 300.9113580608074,650.0869275896218,C 323.3520229527893,659.609373753886 349.3639073701559,660.276833490981 372.35112347728847,652.1621358755721,C 395.33833958442153,644.0474382601653 415.0454316417166,627.3296545342707 427.4223729247388,606.3279463603591,C 439.7993142077609,585.3262381864474 444.8588179776468,560.3431319316877 443.04431288653257,536.0332986739328,C 439.98367306905084,495.02837452723605 418.04636624857204,457.6059314842103 391.29606482197437,426.377856071933,C 364.5457633953739,395.1497806596569 333.06990271321297,368.2803824409584 305.70044484480974,337.59351071446133,C 274.6644903834222,302.79573145096936 249.01546245747608,262.14423321201326 238.02177316643133,216.831379552461,C 227.02808387538775,171.51852589290866 230.9920218151571,122.57713795365477 250,80M 250 , 80C 237.75449936018333,157.10653812163918 201.54688562724806,228.71402003995837 155.2962367015886,291.61273211722545,C 124.03828472098311,334.1220799301245 88.64815096227179,374.0684662631864 64.172266097727,420.8128271380279,C 51.93432366544515,444.18500757545047 42.65246914719505,469.32506947648585 39.14727431762052,495.47348553907,C 35.64207948804601,521.6219016016541 38.11398606649339,548.7843063508702 48.06822831792696,573.2166438275641,C 55.95711680717289,592.5796431414843 68.52812840070251,610.0888267003944 84.72322848313773,623.3130105068356,C 100.91832856557295,636.5371943132768 120.69550845191975,645.3900448926119 141.39053465355988,648.36933919497,C 162.08556085519996,651.3486334973281 183.6109634262494,648.4240184139259 202.7177641096164,639.9334076188935,C 221.8245647929834,631.4427968238612 238.43597759198423,617.4193481443349 250,600,C 270.66575824811815,623.231588974835 302.68579663530534,635.7877249430504 333.65197670647893,632.9813069298194,C 364.6181567776525,630.1748889165884 393.55546951437884,612.2583585499417 411.08479325501924,586.5775661271765,C 423.9032404559723,567.7982973647054 430.84231181521375,545.2838268858956 432.2029290531055,522.5875222389118,C 433.56354629099724,499.89121759192807 429.5079155503783,477.0695748274954 422.1235704334778,455.5650410940881,C 407.35488019967414,412.5559736272625 380.1702327224991,375.11655805936334 354.11288927662423,337.84848931235524,C 327.1578337191754,299.29648320778 301.1084091934379,259.76290975300265 282.47763234515554,216.56885519891074,C 263.84685549687384,173.3748006448196 252.50357774123336,126.97408107973877 250,80M 250.58707677993013 , 575.190468743984C 250.78245816208633,583.4634023289206 250.5864743301712,591.7455677454282 250,600,C 246.1147863755031,654.6830969542816 224.5767475946888,707.9736273608885 189.3756115303816,750M 249.79120791640293 , 575.022039946712C 250.10214815517526,583.3436766516959 250.1717845099949,591.6743281734175 250,600,C 248.94215867218952,651.269114661203 238.63640399645294,702.333610547279 219.72724053108675,750M 249.28301547199024 , 575.3029109191828C 249.99148979986174,583.512700512638 250.2310035090123,591.7629362986023 250,600,C 248.42827199244127,656.0442729847957 224.0792170779426,711.1196174101791 183.68433233998104,750M 250.2296370915486 , 576.9732763257088C 250.1735774277595,584.6490369563506 250.09703136706696,592.3246479651666 250,600,C 249.36763624489913,650.021086800919 247.86512102682545,700.0311719750537 245.49336335008647,750M 250.32902412743283 , 575.0556784850661C 250.626315200621,583.3691813498579 250.51646538081408,591.6972308610008 250,600,C 246.59159512566393,654.7939897912329 224.90781547162757,708.2947783304149 189.20525216701446,750M 249.89854127167214 , 576.9948397491286C 249.48360260020723,584.6564511166058 249.51749939425395,592.3423465726903 250,600,C 253.74432624033466,659.4253195245828 286.1380851962302,716.3951161038831 335.29192897188346,750M 249.9507653602059 , 575.0012127602715C 250.45358448275218,583.3237168042128 250.47003331961903,591.6755799415296 250,600,C 246.77297500567897,657.1515049479555 219.51401174315015,712.5635546864413 176.21019239179176,750M 250.88192732208353 , 576.4713854034254C 250.06660036168512,584.2831239296091 249.77175686381852,592.14914514689 250,600,C 250.89086218957604,630.6428918805456 259.9119036719702,661.0127086614484 275.893829176296,687.1729555145995,C 291.87575468062175,713.3332023677507 314.78030265349577,735.2212503138558 341.63861637491016,750M 249.0443666020485 , 576.2945586677042C 249.37568006639438,584.1958508011586 249.69422508695007,592.0976783352995 250,600,C 251.93408546437527,649.9837129019779 253.35724619959862,699.987195539966 254.26918484516364,750M 250.9822278704945 , 575.8123076708446C 250.88696383812382,583.882068759456 250.55937372288787,591.9490857474897 250,600,C 246.39827541536556,651.8386449087137 233.08238445190207,702.9860770888364 210.94850592918397,750M 250.88236318212446 , 575.5294309669866C 250.93441182748808,583.6938705441027 250.6399379277005,591.8605121709929 250,600,C 245.75741269434775,653.9622457789665 225.95934069457996,706.6123030567333 193.59529783039338,750M 249.0001680951861 , 576.0183347243288C 249.67470745710898,583.9931244017682 250.00839021402925,591.9967379554031 250,600,C 249.94468863076807,652.7604397772247 234.65187320601046,705.4177631169802 206.43678470109833,750M 249.00151660662644 , 576.0550537297302C 248.9706484264762,584.046340801462 249.303936407157,592.0390253497394 250,600,C 254.8113959482225,655.0285944703982 277.4814390013646,708.3532877175711 313.76982690194086,750M 249.0346854146804 , 575.7389104533512C 249.5765599314503,583.815181176653 249.8984904848615,591.9062077734646 250,600,C 250.6381150783531,650.8796722530096 242.48380763808024,701.8580361922332 226.00656393172662,750M 250.99648673631677 , 575.9162492725716C 250.91521676493386,583.9519310158802 250.58283840597844,591.9850710994726 250,600,C 246.20485324568452,652.1891335418132 231.651494970609,703.5721752930257 207.5150931735211,750M 250.32997600628354 , 575.0560106805281C 250.7034254067439,583.3677005152941 250.59318558062375,591.7010974682794 250,600,C 245.8803279089989,657.6358533697293 217.33809065319798,713.1282940638013 172.84830988110613,750M 250.98261105463675 , 576.1856758339302C 250.67494043681307,584.1245870036544 250.34740205104907,592.062728202665 250,600,C 247.8097017355644,650.0428612599082 244.82975052865515,700.0511598091275 241.06162988935824,750M 250.46574564951587 , 575.1150813653464C 250.71216152795552,583.4110892030211 250.55667040725214,591.7190227095109 250,600,C 246.31503250913426,654.8172342386229 224.49749317484392,708.2637189429319 188.76807954256898,750M 250.66520655262295 , 576.7466593884412C 250.61176154747724,584.5013687065608 250.38995637226716,592.2549172370572 250,600,C 247.429202848152,651.0596521145159 237.50228373552676,701.7432288932073 220.62090007191807,750M 250.9241871578696 , 576.3819399131132C 250.21213736197433,584.2318870739364 249.90353335494467,592.1184151640713 250,600,C 250.67021805737508,654.758621228537 271.6604873195628,709.0376261694288 308.006597445123,750M 249.06517981661318 , 576.35512142252C 249.3488135258823,584.2378204097841 249.66042287018735,592.1195127829711 250,600,C 252.1573707765822,650.0656002264559 255.44376377216503,700.0825464353932 259.85583860474355,750M 249.00559919256955 , 575.8943258111852C 249.67885464597492,583.9105905145191 250.01072192164514,591.9555200454068 250,600,C 249.92974691394585,652.7097251048899 234.7909741250348,705.3156044685733 206.8334196518665,750M 249.03722207693366 , 576.2702936752055C 249.4847900139884,584.1743802918076 249.80577085673454,592.0856347480715 250,600,C 251.23247082454392,650.2201889160136 247.34423069123602,700.564620995742 238.41508393475283,750M 250.84887770878524 , 576.5285892881317C 250.1686721910009,584.3312843903697 249.88522596095996,592.1685533057503 250,600,C 250.80264567755057,654.7674098662136 271.8385604666994,709.0110533936282 308.17063554695767,750M 249.49620925818886 , 575.1361742719359C 249.29834226622293,583.4261466451466 249.46649049650668,591.7248467745433 250,600,C 253.4742607634913,653.8885248994293 272.83840523440324,706.6557883402023 305.0459031080321,750M 249.04907781113656 , 575.6905698936316C 248.96406081089287,583.8027879598128 249.28155435283747,591.9192113196991 250,600,C 254.9724313941679,655.9279153297946 279.83553256354776,709.8836464728563 319.12083473613643,750M 250.52797707049535 , 576.8492586255265C 250.56748042253446,584.5690808138529 250.39139660580057,592.2900049396146 250,600,C 247.37628024138678,651.683806346166 234.96912820481597,702.8541178925526 213.62983243128144,750M 249.90443756544298 , 576.9954234380913C 249.7468326463609,584.6628423361494 249.77869975427072,592.334155097443 250,600,C 251.47701346497593,651.1637757300297 261.46607635803065,702.0717792283273 279.4326889878586,750M 250.99392114410418 , 576.1100943200289C 250.60818404250554,584.0710074424353 250.27686667364907,592.0345574072073 250,600,C 248.26253434954702,649.9868139174238 248.67069552617411,700.0481613832404 251.2229829917357,750M 250.72489335984454 , 576.6888611012776C 250.08035881712215,584.4397327092336 249.83829406222256,592.2240571858155 250,600,C 251.14968228952205,655.2846967815625 273.56055392657333,709.8612625018883 311.59476510090724,750M 249.00847873419286 , 576.1299445245181C 248.89579420558613,584.0968072288979 249.2269839923025,592.0699277805768 250,600,C 255.71359693801588,658.6135809607622 286.7675392123812,714.3194567785343 333.61938974611206,750M 250.5137694647633 , 576.8579282820125C 249.8470555248549,584.5503270068167 249.67532747397482,592.2855918328181 250,600,C 251.2908016657805,630.6701987834253 260.58162897710366,660.9692349281798 276.7054108289684,687.0910825111646,C 292.82919268083316,713.2129300941493 315.7497509242484,735.0989775500097 342.5879101811739,750M 250.86692926093974 , 575.5015688046215C 250.65178391970704,583.6701024691474 250.36279175502372,591.8366911188639 250,600,C 247.7677988567569,650.2275676466979 242.73893450576634,700.3307182921407 234.9444667065623,750M 250.15347399040823 , 576.9881526877301C 250.37728713247247,584.6573167715308 250.3260853124762,592.3345033797017 250,600,C 247.76068796655505,652.6409444627122 232.31038917878814,704.6688651179097 205.4557478180992,750M 249.65420164542485 , 576.9383088499919C 249.50803411704484,584.6264957274018 249.62338908973837,592.3196519199582 250,600,C 252.572021816268,652.4520726302828 267.5367420478561,704.2561051024236 293.3307587772317,750M 250.7082406740964 , 576.705971067081C 250.68799399250844,584.4752090091571 250.4517922227602,592.2438829356331 250,600,C 246.9868235913831,651.7285331253397 234.2791764120257,702.8761411079528 212.73242968563486,750M 249.1238277794129 , 576.4819981741371C 249.2822657897852,584.325550242233 249.5743797400915,592.166401909568 250,600,C 252.7553845688168,650.7132233351125 261.12798340001575,701.1192439935281 274.9154725621088,750M 250.1219560945093 , 575.0074645039033C 249.80433961732106,583.333888245705 249.76365762594995,591.6708731047696 250,600,C 251.4687003282013,651.7596197204319 263.78029771894205,703.1866002291882 285.90993658079293,750M 249.36113128876016 , 576.7693157802871C 249.9172321588981,584.4983630657779 250.13046744598884,592.2520713500538 250,600,C 249.09812723180795,653.5585394986526 231.29076222112144,706.7086507842512 199.7441362399041,750M 249.01359430283318 , 575.8356716683074C 249.08598465937874,583.8981915042876 249.4150085132415,591.95840492006 250,600,C 253.8010420089937,652.2510864004893 268.5545618114486,703.6800398807978 293.0307797574682,750" stroke="hsl(210,80%, 90%)" fill="none" stroke-width="1"/></svg>