<svg viewBox="0 0 500 800" width="500" height="800" version="1.1" xmlns="http://www.w3.org/2000/svg">
<rect width="500" height="800" fill="hsl(210,80%, 20%)" /><path d="M 250 , 80C 259.80316545027455,119.88404513707872 259.2673524176421,162.19477899959975 248.9421845893745,201.94688609670968,C 238.61701676110707,241.69899319381955 218.54093888736074,278.45976776292133 193.66103257882781,311.1374263605107,C 162.19929524931896,352.45976490115544 123.01373261576049,387.4397808492032 91.79665640904639,428.9472588665782,C 76.18811830567488,449.70099787526243 62.69424517712868,472.3004812788835 54.40958534782509,496.9116282671428,C 46.12492551852152,521.5227752554022 43.25295824100547,548.2205210228719 48.306822626923164,573.6921248069633,C 52.78454538744498,596.2599602891571 63.57175892781737,617.671566014507 79.73211979185972,634.0483769438481,C 95.89248065590208,650.4251878731893 117.36935318823429,661.5722468573983 140.1371132479727,664.8868058527461,C 162.9048733077115,668.2013648480934 186.77368134108247,663.6092354143412 206.59830332010884,651.9326964211216,C 226.42292529913522,640.2561574279019 242.03646843008815,621.5856286544193 250,600,C 280.26448903437574,616.1577957062319 317.8540039213762,617.7232087305808 349.4547065067344,604.3662160036264,C 381.05540909209253,591.009223276672 405.8198213655253,563.2858485372966 417.37896059126916,530.984146431122,C 431.53942030070505,491.413124550706 426.2692682147034,446.9843780389552 411.3265358643584,407.70207742215234,C 396.38380351401173,368.419776805348 372.88309335097955,333.0777433828856 350.1201730000613,297.74739030029053,C 306.60176341804123,230.20242012849013 267.9263859787942,158.3250895549897 250,80M 250 , 80C 262.8891385114709,121.31132741447118 263.9343719323464,166.1504182113922 253.59563970550488,208.17262996012323,C 243.2569074786636,250.19484170885414 221.62057450256705,288.81403209809775 194.86638318630807,322.8282778096598,C 163.044002394009,363.28602391011253 123.90376668557427,397.7000601851156 93.63283474628284,439.3313443155093,C 78.49736877661937,460.1469863807049 65.73114782390012,482.9614541239295 58.55967042371475,507.6787192761225,C 51.38819302352939,532.3959844283155 50.04712875098303,559.074971271104 56.85914353520823,583.8937089361159,C 62.568693431561044,604.6957514376528 74.04538849333461,623.9927257660354 90.13855613918531,638.3570526690696,C 106.23172378503601,652.7213795721038 126.87964867224242,661.9939411803635 148.3500893060328,664.0781943429072,C 169.82052993982333,666.1624475054504 191.9514228452471,661.0062068292611 210.2120593010815,649.5226059792426,C 228.4726957569159,638.0390051292242 242.7265000885065,620.3081296847395 250,600,C 261.76574825706774,617.8507098101785 278.8343602426884,632.1555035613914 298.4610035901811,640.633448105101,C 318.08764693767387,649.1113926488108 340.1852656792398,651.7263745833353 361.26874056411674,648.1812709805245,C 382.35221544899355,644.6361673777136 402.32424310023066,634.9684925634155 418.4017529186042,620.8761417724369,C 434.4792627369778,606.7837909814583 446.6203207833053,588.3659761999617 453.8449788080019,568.244222071604,C 462.03890291742874,545.4229167983714 463.9351650280674,520.565204651559 460.80409002782727,496.5204809886014,C 457.67301502758716,472.47575732564377 449.6511440054102,449.2394369159392 438.95774667542827,427.477000925723,C 417.5709520154585,383.9521289452865 386.22639297007396,346.2675744794625 357.22535904918396,307.39921333237413,C 306.60811405230453,239.55992994073952 264.8555614461154,163.3281834452505 250,80M 250 , 80C 244.33620785072358,126.69927945545534 231.01907898514878,172.38577505146293 211.50644573062064,215.1894943599903,C 191.99381247609287,257.9932136685168 166.10472319573282,297.52166682382256 140.0866353999404,336.71299686784204,C 115.39006227066504,373.9137149245402 90.35799016264974,411.87369999185 77.88926786453933,454.74962694994855,C 71.65490671548102,476.18759042900103 68.77110253709954,498.75661475516637 71.10352625780477,520.9605183906348,C 73.43594997851002,543.1644220261031 81.12661554682137,564.9423225678954 94.29864153835383,582.9687273216024,C 111.73746321228028,606.8343997795779 139.06273634951447,623.5102198199626 168.42445488184507,626.9120293494,C 197.78617341417566,630.3138388788374 228.46640543693616,620.2481388883019 250,600,C 259.8958872695663,614.3099350667046 273.5691153648206,625.9810610027794 289.25148365202614,633.5153925172349,C 304.93385193923166,641.0497240316903 322.58140740314553,644.4259471955982 339.94201171721085,643.2804148670609,C 357.3026160312761,642.1348825385237 374.3232423387562,636.4799599559034 389.0188878306774,627.1664842330038,C 403.7145333225986,617.8530085101041 416.0519306009422,604.9276095974067 424.98888963354455,589.9999979426625,C 436.9974303026786,569.9418516543008 442.77868461023974,546.4358212567927 442.9233464172165,523.0581961744801,C 443.06800822419325,499.6805710921676 437.74510302577954,476.4720097183782 429.191796233659,454.7148218383366,C 412.08518264941296,411.2004460782429 382.95527194261314,373.68386009023646 355.46144473178924,335.86552338153524,C 327.91512995703977,297.9749889263953 301.68921410929033,258.7689000138929 282.8954727925902,215.8586757510592,C 264.10173147589063,172.94845148822588 252.63414016594967,126.77128782225051 250,80M 250 , 80C 252.90892339527696,128.4651574882878 244.38847879964686,177.46554310737673 226.16042084803996,222.4663345337171,C 207.93236289643372,267.46712596005665 179.9887745543535,307.8631210121154 149.67947194298148,345.79304984010435,C 122.31012427971655,380.04383489599707 92.8435924190089,413.0974656810318 71.86436863368905,451.59512324383815,C 61.37475674102697,470.84395202524115 53.14791405459249,491.4621045388029 49.10612134491405,513.0077138085924,C 45.06432863523561,534.5533230783818 45.31442191481549,557.0393858048595 51.13207411580046,578.1747658578139,C 56.971850360824185,599.3905219908208 68.51013822614665,619.1223644705992 84.71829672292364,634.0054721108241,C 100.92645521970063,648.8885797510491 121.74891471907915,658.7659496114484 143.58581032587009,661.4791184497777,C 165.42270593266122,664.1922872881067 188.11846466647734,659.6850108331632 207.1843641714619,648.6985295514697,C 226.25026367644648,637.7120482697762 241.55179535262218,620.3184431766608 250,600,C 260.0560833938315,613.0187711399369 273.388570089289,623.4849128377205 288.4196706030687,630.1691654184058,C 303.45077111684844,636.8534179990911 320.14529691330875,639.7396591777106 336.55238423821487,638.5477276651421,C 352.9594715631209,637.3557961525737 369.03682772019624,632.0953701515383 383.0591345401679,623.4937350357989,C 397.0814413601396,614.8920999200594 409.02083058931356,602.9858272496442 417.92537461984944,589.1538964073505,C 430.4248008635795,569.7378321171705 436.8339903085687,546.6848172899132 437.5928182681118,523.6057490879543,C 438.3516462276549,500.5266808859954 433.62881346850503,477.4712812368692 425.60894408757366,455.8171614428056,C 409.56920532570695,412.5089218546673 381.25178847267335,375.0514736728673 354.36641594958877,337.5007935183416,C 326.9822529932041,299.25345498540224 300.7648297246985,259.80664188012605 282.1046810484202,216.62620490857273,C 263.44453237214265,173.44576793701992 252.22732667294443,126.98712910539457 250,80M 250 , 80C 249.28379930908747,127.94474100432345 238.6214704755053,175.6228894401445 219.66628573446846,219.6673227414651,C 200.71110099343213,263.71175604278505 173.38918623091672,303.6142570286345 144.39905880382207,341.8082833306893,C 116.90984502277149,378.0248800606149 87.67123688791736,413.62381631880714 68.8847091223862,455.02870887407516,C 59.49144523961705,475.7311551517102 52.896618137299356,497.86283225541655 51.20256931428127,520.5334054028897,C 49.50852049126319,543.2039785503629 52.8551434817315,566.4013117147532 62.1928302110504,587.1288850120498,C 70.22053028638919,604.948581318394 82.67617187873729,620.8259174220307 98.40577576340006,632.4261375312153,C 114.13537964806284,644.0263576404 133.09217520924116,651.2641721427805 152.57464161834878,652.8195009080017,C 172.05710802745637,654.3748296732228 191.9743795080449,650.2223586112187 209.16389586747644,640.9214945503497,C 226.35341222690798,631.6206304894807 240.7391856098209,617.2111261043716 250,600,C 262.9284738781046,610.4360380139174 278.71289820455803,617.2949067749504 295.1620161358523,619.6364544526915,C 311.61113406714657,621.9780021304326 328.6696652334295,619.7944986639305 344.0323358458443,613.4664122312711,C 359.395006458259,607.1383257986117 373.00935426254256,596.7006913054207 383.2994298710012,583.6557432328157,C 393.58950547945994,570.6107951602106 400.5409479685434,555.0232045586201 403.8355264669442,538.7381783454808,C 407.4539356454231,520.8524644825404 406.6936109232391,502.2069324692348 402.6141683439094,484.42070764180636,C 398.5347257645797,466.6344828143779 391.21015942499344,449.6975094697821 382.1299246449905,433.8690230699426,C 363.9694550849826,402.2120502702625 339.182116218064,374.9795514805928 316.1930873425165,346.63398511054294,C 285.8715959906357,309.2474625998906 258.6065407716947,268.249527746396 245.43626805275002,221.94954049207462,C 232.26599533380934,175.64955323775507 233.44560122719184,125.20062814289503 250,80M 250 , 80C 247.2950557636442,127.75256681187983 235.71392751740186,174.88146431026098 217.000594215389,218.8977739826156,C 198.28726091337663,262.9140836549678 172.22023999152458,303.32133753149367 146.70731835336147,343.77767436430094,C 128.02476227556457,373.40296747266007 109.70318376811962,403.70208255470004 98.80728236546177,436.9883443751535,C 87.9113809628032,470.27460619560713 85.24341766888745,507.22125440103287 97.41608227700111,540.0621150732903,C 108.23178627073197,569.2420061953802 131.06086348204133,594.1031716328085 159.92376132732718,605.738403764125,C 188.786659172613,617.3736358954415 222.88909413418733,615.2788835296324 250,600,C 264.5235530252857,613.5027796349215 282.9621179799372,622.740805377423 302.4697468321345,626.3060637008065,C 321.9773756843318,629.8713220241899 342.47193011096095,627.7498962857597 360.8834936999124,620.382876769189,C 379.2950572888637,613.0158572526184 395.5462214826047,600.4565776421485 407.5982725897539,584.708348711307,C 419.65032369690306,568.9601197804656 427.48741326668744,550.119282005608 430.8423826735456,530.5743893063227,C 436.8919218706778,495.331863921033 428.2843022746708,458.83109128715284 412.969133798176,426.51889336489745,C 397.6539653216807,394.20669544264194 376.17527567743593,365.2789439493264 355.1491618816681,336.35602814407133,C 327.530015587651,298.36392695817904 300.7052282531453,259.390615492842 281.76960527554087,216.40620928571366,C 262.8339822979374,173.42180307858632 251.67119284661734,126.94064453113833 250,80M 250 , 80C 256.02171889636617,118.75714768386364 253.04398927124893,158.83019548175105 241.78411985421417,196.40136708667967,C 230.52425043717946,233.97253869160826 210.9904113251522,268.70202347896844 187.38038518388007,300.022053183043,C 158.17142935973786,338.76937851691673 122.66371167147668,372.4599248658471 93.80727235209002,411.47049049456234,C 79.37905269239062,430.9757733089176 66.71283537887376,451.9695760118244 58.2919044284612,474.7229823973506,C 49.87097347804867,497.4763887828768 45.827163641944104,522.0526432556826 48.37257631718957,546.1804374882522,C 50.80430949154815,569.2306714365194 59.368118288076474,591.7368600030616 73.68082962657662,609.9679572120036,C 87.99354096507679,628.1990544209457 108.02707331121051,641.9654790762412 130.32246349126248,648.3012653747498,C 152.61785367131492,654.6370516732582 177.00884694282357,653.4475454861786 198.51348002813978,644.8001547139822,C 220.01811311345597,636.1527639417859 238.47077849026056,620.1073037148321 250,600,C 264.3161962813216,612.1858461844465 282.0803505603702,620.272229838833 300.6696934560972,623.0801924278647,C 319.2590363518242,625.8881550168965 338.6026852456322,623.4075935277863 355.9245091810292,616.0998757754763,C 373.24633311642606,608.7921580231665 388.48012224861884,596.7033530534962 399.7722728851269,581.6721968371993,C 411.0644235216349,566.6410406209022 418.40005434244483,548.7503845257773 421.49075264208943,530.2059539004687,C 425.1194097319921,508.43372861582253 422.9375042556827,485.8973483081972 416.66812847623424,464.73389222329575,C 410.39875269678583,443.5704361383943 400.1593421904513,423.74334944118823 388.1174110517384,405.2450024725539,C 364.03354877430394,368.24830853528306 333.1743216873456,336.1613553134513 307.2816492099647,300.4072325236861,C 284.3403634490706,268.7285578420025 265.24348737399083,233.87066482590419 254.77797561359372,196.18361021103763,C 244.31246385319673,158.4965555961711 242.48546814120482,118.38453898243525 250,80M 250 , 80C 264.01367501861876,120.92582621046208 265.4433742462272,165.93353922911086 254.85169451318714,207.87543545435454,C 244.26001478014763,249.81733167959774 221.77715332836289,287.9390372376665 194.94179091340732,321.86792850446653,C 169.64440419163319,353.85230308250095 140.46778173833962,382.8096567368749 117.54198027218624,416.5345083930872,C 106.07907953910694,433.39693422119285 96.27271590203009,451.5190011680247 89.99995820086403,470.9198261207749,C 83.72720049969797,490.32065107352514 81.08263458724355,511.0316352248786 83.6147087658714,531.2634937252418,C 85.92055874341702,549.6877685203839 92.5683935563648,567.6271433358164 103.34149083343266,582.7503447463871,C 114.1145881105005,597.8735461569578 128.99984264505056,610.0868922361309 146.0637292164131,617.4077269512114,C 163.12761578777565,624.7285616662919 182.29590552469801,627.1036126886056 200.6118746101142,624.0546583911567,C 218.92784369553038,621.0057040937078 236.31076515328178,612.5449469969884 250,600,C 259.55448441698655,622.7141524718584 277.8590050464273,641.6090841730435 300.2450910141389,651.908795335765,C 322.6311769818505,662.2085064984867 348.840205678798,663.8090384633327 372.3872381171248,656.5455573187538,C 395.93427055545175,649.2820761741767 416.5677710305359,633.313198390779 430.0802980440112,612.7065851634836,C 443.59282505748655,592.0999719361882 449.97828083589064,567.1455895969599 449.3749708578554,542.5111236587738,C 448.8149175317042,519.6429214262716 442.42107681413313,497.1269999554357 432.4022604225007,476.5626703727454,C 422.3834440308683,455.99834079005507 408.83486664909213,437.3165901313038 393.91810658095216,419.97419692435864,C 364.08458644466435,385.28941051047065 328.9874162163611,355.3493780881877 300.0000346682477,319.95439195620264,C 272.81724252138304,286.7628962196778 251.13453265030077,248.4089645628835 241.59692811664505,206.58058092345775,C 232.0593235829896,164.752197284032 234.80179716215355,120.11974836196083 250,80M 250 , 80C 227.67336718557428,167.45886340397067 181.50946364683472,246.44248399202115 135.26230810480186,323.9584947576405,C 116.25933029476812,355.8098597818655 98.01201666146243,388.5680709208157 87.61808571490991,424.1712845262384,C 77.22415476835677,459.7744981316613 75.50694334924802,498.8553146743344 88.93035739307139,533.4303717959527,C 100.7794490704717,563.9504034546574 124.673497920782,589.9361258215498 154.82410859666294,602.6959840456533,C 184.97471927254384,615.4558422697568 220.65760511902744,614.5222990148544 250,600,C 260.4667957089645,620.9802854925173 278.250133465246,638.2162325217759 299.5371857938724,648.0441313266604,C 320.82423812249885,657.8720301315449 345.4442224251571,660.2204168144087 368.2492191144674,654.774471739284,C 391.0542158037774,649.3285266641598 411.86583778043155,636.1792652578246 426.9710592125616,618.2472135836009,C 442.0762806446917,600.3151619093773 451.43783597703646,577.796930638395 454.50111199397867,554.5516616185549,C 457.81189089310067,529.4282493796098 453.8963404765751,503.64234547882415 445.1832608929787,479.84677144463114,C 436.47018130938227,456.05119741043814 423.1186848773401,434.17227441507936 407.90008634549787,413.9104542062863,C 377.4628892817944,373.38681378869916 339.9747221613604,338.5472609251575 309.7533118197984,297.8624387582172,C 286.6579327904142,266.77085904471465 267.7713001890929,232.24190717284444 257.04429863021244,195.02612692913897,C 246.31729707133204,157.8103466854335 243.7558082207933,118.22424532435517 250,80M 250 , 80C 256.2303863520538,118.89182847177706 253.37460355281956,159.14385499966752 242.23526182729208,196.92357312852482,C 231.09592010176468,234.703291257382 211.66604857677044,269.6183824630288 188.71894379815595,301.63123016911806,C 163.33805801321267,337.03937595124967 133.55397785354702,369.3312408829836 110.80886821925122,406.48748044891494,C 99.43631340209942,425.06560023188035 89.93997333238595,444.9398949175065 84.40845913085582,466.0084470361881,C 78.8769449293257,487.0769991548697 77.42420680168989,509.3681980478103 81.62793247520987,530.7413173381975,C 85.14658767709344,548.6313137871244 92.64662389331508,565.7856001063037 103.81251073707013,580.1993393284771,C 114.97839758082519,594.6130785506505 129.79540528181315,606.2156471125318 146.5731447706068,613.3528990359638,C 163.35088425940046,620.4901509593958 182.032809833041,623.1232038010158 200.11746499192756,620.8041188184166,C 218.20212015081412,618.4850338358173 235.62944456558472,611.2214100664203 250,600,C 259.7644685118398,622.4672540218796 278.2536575207113,640.9995953665051 300.6844180805014,650.8476068059655,C 323.11517864029156,660.6956182454259 349.21897384694904,661.7576773653294 372.4597373036777,654.012403803294,C 395.7005007604068,646.2671302412606 415.8242755572255,629.8867037791033 428.7452511793993,609.0739495746843,C 441.6662268015731,588.2611953702655 447.39102623489805,563.3142483629636 446.2688309334557,538.8425703185836,C 444.5319894618861,500.96732235446416 426.9048421227958,465.37166932209016 404.2061995477183,435.0019038984031,C 381.50755697263975,404.63213847471644 353.97199891529766,378.2676097090139 328.73352543497697,349.9732554484185,C 295.9963764709901,313.27228417171943 267.11885587065206,272.0642157336501 252.0049588704999,225.26408397729557,C 236.89106187034983,178.4639522209415 235.7987888141674,127.08511246454265 250,80M 250 , 80C 248.04976894736447,127.44913044348596 236.50185404470383,174.3949426268476 216.9889385866151,217.6900868271744,C 197.4760231285268,260.9852310275006 169.92985337422684,300.1506648437826 140.67599153252146,337.55968712916126,C 114.6695294508824,370.816025209931 87.1931935574205,403.3485937961039 67.37501304078263,440.62539373327854,C 47.55683252414267,477.9021936704528 36.236881870344455,521.374134890844 45.11701984641104,562.6471677582292,C 49.91024378468516,584.9250748896573 60.54969864002067,606.03844743785 76.28305983073868,622.5230307665661,C 92.01642102145668,639.0076140952822 112.80008860493632,650.6978080114418 135.15363640061835,655.1248886324759,C 157.50718419630064,659.5519692535095 181.27611437156733,656.6454083698765 201.83153173012332,646.8089985017102,C 222.3869490886793,636.972588633544 239.58631155675744,620.2690708935081 250,600,C 257.7304206782303,617.2348905975614 270.8782364598561,631.9898329997267 287.10464173273357,641.6596121953783,C 303.331047005611,651.3293913910298 322.5490582717687,655.8645184943753 341.39404631503646,654.5732851996463,C 360.2390343583041,653.2820519049174 378.6059465355583,646.1927569296201 393.6073881259413,634.7141852422262,C 408.60882971632435,623.2356135548322 420.1934703638312,607.4661349864093 427.18885939509926,589.9200416869443,C 435.7797578376568,568.3720327162381 437.43800530936045,544.3655210312314 433.56979154647985,521.4928922156223,C 429.70157778359925,498.6202634000132 420.50374627091014,476.87737931513493 408.6211041027837,456.9544517753321,C 384.85581976651787,417.108596695714 351.1384600754883,384.3438846432866 321.3934008361602,348.7389361465067,C 290.29522502222807,311.51430198826915 263.2645214371614,269.9449385091117 249.55489975760577,223.41735313685842,C 235.84527807805168,176.8897677646055 235.64695830925265,126.33314279640926 250,80M 250 , 80C 255.2583594844844,128.44234613370276 248.4157237633436,178.01413436365823 231.2392653500124,223.61326286169685,C 214.06280693668214,269.21239135973394 186.5412040851481,310.1401799968918 157.0466112078405,348.92652081949626,C 130.12899152162763,384.3240587894453 101.29986664559813,419.0989761400664 83.74057146156578,459.95500502866,C 74.96092386954444,480.38301947295986 69.21068568789869,502.2920437347866 68.69322178784745,524.5208137657341,C 68.17575788779621,546.7495837966817 73.05722342285142,569.2629635707137 84.0017891629979,588.6176133153157,C 92.17374203732612,603.0691036135356 103.68142391750548,615.6668038791884 117.53715546559798,624.812572785463,C 131.39288701369048,633.9583416917376 147.5643663610782,639.6048012634046 164.11663373942187,640.8888691181559,C 180.6689011177655,642.1729369729071 197.5489017725008,639.0814801441396 212.54329279397658,631.9544454511645,C 227.53768381545234,624.8274107581892 240.6020876389698,613.6859646672852 250,600,C 260.87759763950953,615.1516348526311 275.7294655928415,627.4218382694858 292.6572377707498,635.2541239006002,C 309.5850099486582,643.0864095317147 328.5422906184164,646.4590482052744 347.13847770201266,645.0182168249878,C 365.73466478560886,643.5773854447011 383.91420967214634,637.3366785880397 399.5837326317955,627.2193558526735,C 415.25325559144466,617.1020331173073 428.3781658574543,603.1574085743262 437.8679870961731,587.100090555065,C 451.11368823260676,564.6876098364588 457.1585333006038,538.3647704665492 456.7910881601558,512.3333879710617,C 456.42364301970787,486.3020054755742 449.85673716330376,460.6033214503911 439.7827113537638,436.5974493657045,C 419.63465973467464,388.5857051963141 386.5341525220063,347.3865539435885 356.07211840646653,305.1593584438142,C 307.1172765567397,237.29699345504503 266.200845984923,162.09390788465058 250,80M 250 , 80C 244.1400196624465,155.85050517604594 212.37480160157588,227.8478545169765 168.85785045891188,290.2490842185207,C 136.7837521590074,336.2418094193451 98.79019305435529,378.71734311263776 74.80867708092113,429.40230582118085,C 62.81791909417528,454.74478717547356 54.675313157006585,482.2339173380853 54.00688893356577,510.26198982527035,C 53.338464710124924,538.2900623124555 60.48850121407838,566.7864089291464 76.24773126663874,589.9740415474165,C 95.24097201601259,617.9200952097724 127.07466946569312,637.13496350732 160.79278006300106,639.3290754485531,C 194.51089066030897,641.5231873897864 228.93802331977088,626.4219274047983 250,600,C 258.9631757191691,623.421191061266 277.2742182542951,643.1067015415017 299.97151152644244,653.7708277513308,C 322.66880479858975,664.4349539611599 349.45424573584944,665.9566017697986 373.29918300194237,658.1906712732566,C 397.1441202680359,650.4247407767172 417.7643470985968,633.5604919185428 430.75782001398744,612.1114739620482,C 443.7512929293781,590.6624560055536 449.1284186024791,564.9583996039848 447.31273272328394,539.9465225354978,C 445.7617247224402,518.5807004548171 439.1506726358423,497.74858238755473 429.39164143969185,478.6785721852883,C 419.6326102435414,459.60856198302184 406.79621515019204,442.245500298965 392.70790614263575,426.1078570909376,C 364.5312881275194,393.83257067488444 331.5461575618156,366.0244985075634 303.3465490446592,333.7692974465382,C 273.21774113781424,299.3074446809856 248.6840844586709,259.02397277121474 238.24325941924548,214.45544649517223,C 227.80243437982082,169.88692021912965 231.70535107845728,121.96034059394262 250,80M 250 , 80C 237.21365590184195,155.1465264804873 203.7316524668534,225.21504881314814 163.61604735929453,290.03193908361294,C 139.55729893426522,328.90492261530113 113.66243435064229,367.23888525583357 98.18838831793262,410.2561622943833,C 90.45136530157453,431.7648008136602 85.50262830246525,454.4209091056882 85.3082224718887,477.2779706509004,C 85.11381664131214,500.1350321961125 89.8011211575749,523.1672543238552 100.10241269832852,543.5723137136481,C 113.38714271260007,569.8870436527129 136.2960618827244,591.4218160505064 163.81886970760957,601.9785254219177,C 191.3416775324947,612.5352347933289 223.01280786137426,611.859195748064 250,600,C 260.91675339119524,620.9378916244236 279.6576747816134,637.67216746895 301.68234928005296,646.1859517930958,C 323.7070237784925,654.6997361172416 348.7864338450643,654.9165776204521 371.03286513523756,647.0003218684008,C 393.2792964254108,639.0840661163506 412.47934646242226,623.1820327671464 424.9420578429767,603.1258208784257,C 437.4047692235311,583.0696089897049 443.1303531231433,559.1138582437516 442.3336021905006,535.5143667612725,C 441.59957823806656,513.7728270859857 435.49571230154896,492.3959338465918 426.0184100515323,472.8149716466219,C 416.5411078015157,453.234009446652 403.77359834713053,435.39043255435234 389.68144477912443,418.8180293963745,C 361.4971376431067,385.6732230804206 328.23092536940067,357.117394584693 300.24253289392385,323.806987185531,C 272.0956271798636,290.3079251303277 249.40991794969125,251.4386359142704 239.67840325458005,208.780306345552,C 229.94688855946936,166.12197677683358 233.3536519769566,120.4639908727534 250,80M 250 , 80C 231.49689951074637,159.89363000346017 190.89809720085788,232.99347014603853 143.02433729013813,299.5777021747702,C 112.08297061814326,342.6118641377384 78.49413709072579,384.65134826827136 58.21206894552178,433.6201646633928,C 48.07103487291025,458.1045728609591 41.53743674205174,484.3108927202316 41.36608878025802,510.8117881149708,C 41.19474081846431,537.3126835097099 47.606629123036655,564.0624263132079 61.35630211172928,586.7179622713559,C 71.02412841154774,602.6477801333999 84.25350699817831,616.4502552572075 99.96535979790687,626.4684209616177,C 115.67721259763543,636.486586666028 133.83829424499322,642.674175133788 152.4144829327008,644.1408640306047,C 170.99067162040834,645.6075529274214 189.92953152243118,642.3406286374297 206.91204675909273,634.6711997983364,C 223.8945619957543,627.001770959243 238.87690698172617,614.9500088357227 250,600,C 272.7370390983381,618.107047989691 304.3921179205397,624.3169769308442 332.34066617965,616.3346975528403,C 360.28921443876027,608.3524181748364 383.60675860703896,586.6322683175755 395.00019344772477,559.8922650193077,C 402.7234234196824,541.7661074723362 405.2580513447974,521.6185433870958 403.43556429046964,502.00007225517055,C 401.6130772361418,482.38160112324533 395.55327351897034,463.3066906403894 387.0910128203691,445.5135455421701,C 370.1664914231631,409.9272553457264 344.2484377735585,379.5597482535518 320.18982449582074,348.35066942026594,C 290.7291999099564,310.13404635209804 263.86298165497647,268.9345360671695 250.1159192253957,222.68027189314046,C 236.36885679581832,176.42600771911341 235.89458770327906,126.14624604085247 250,80M 250 , 80C 226.14209062905095,157.576476046044 186.15904267193326,229.01278024832183 144.1324145022207,298.4467200757548,C 119.32738066092392,339.42814785528014 94.3606767018772,381.2987637313288 82.75958509753087,427.77651970452416,C 76.95903929535463,451.0153976911259 74.72540576595287,475.3053737712802 77.96798859683295,499.03673357775125,C 81.21057142771305,522.7680933842223 90.07324599864101,545.8703826448523 104.59402462094516,564.9187098648824,C 121.004921202215,586.4464898954856 144.6999112269978,602.4642030039195 170.98584034423595,608.9304824666941,C 197.2717694614741,615.3967619294688 225.83652183644776,612.2020146978564 250,600,C 259.4932565265896,612.2510073058309 272.2243069734455,621.9682814803674 286.542465877621,627.9011918186363,C 300.8606247817965,633.8341021569051 316.72574489120257,635.9658602239234 332.10940218480334,634.081135373925,C 347.4930594784041,632.1964105239266 362.34881723968937,626.308605415838 374.9413369242645,617.2732555343588,C 387.5338566088395,608.2379056528796 397.8357208252616,596.0977366506061 404.98295496683926,582.3454225321523,C 415.61853654188394,561.8810224921996 419.1274761089428,538.0762941465782 416.58403530875404,515.1538559400833,C 414.0405945085652,492.2314177335884 405.6859509601184,470.2187506526672 394.3676489165482,450.1238930198011,C 371.7310448293938,409.93417775404157 338.1742443070045,377.22787628472526 309.0421190117111,341.46548915074425,C 279.35675428167394,305.0239492724136 253.970920314686,264.0847099203457 242.34759438246311,218.54236696203253,C 230.72426845024196,173.00002400371972 233.08242540008644,123.85205100694365 250,80M 250 , 80C 255.23830676666051,118.63282020491725 251.75466439630955,158.37209560504607 240.28514598337972,195.6331315828952,C 228.81562757044992,232.8941675607443 209.36207297114947,267.3559361060387 185.9631952681698,298.53970074419783,C 156.70586986312873,337.531038745706 121.19731346527676,371.5485613417443 92.48604837859166,410.94372330519377,C 78.1304158352429,430.64130428691635 65.57851609254304,451.8400239308258 57.33456673952636,474.7772465463926,C 49.09061738650965,497.7144691619593 45.28941299274527,522.4520190336856 48.12923997147797,546.659750546201,C 50.817390004296044,569.5745318857012 59.56670546078142,591.8779769772101 73.95724154015885,609.9119955472399,C 88.34777761953627,627.9460141172698 108.35030832536054,641.5279739027935 130.56076367973188,647.7736946288204,C 152.7712190341036,654.019415354847 177.029057161808,652.8385270175766 198.4615762115645,644.2968362237184,C 219.894095261321,635.7551454298602 238.34194676598625,619.9098756708564 250,600,C 274.3663836427846,616.3288643526936 306.41271789224453,620.5098401381327 334.2179348606826,611.1705482905616,C 362.02315182912065,601.8312564429904 384.7768205517275,579.4159587076215 396.00061505096403,552.3165325160038,C 403.0646667241083,535.2606476329397 405.8148460408816,516.5487303521082 404.8897845423037,498.1110435012846,C 403.96472304372577,479.67335665046096 399.44267001866916,461.5223617269105 392.7200476889892,444.32903790056224,C 379.27480302962795,409.94239024786384 357.4997634809874,379.56405223597363 336.3084630786088,349.32922251928665,C 308.5108996365334,309.6688627843245 281.67643099561036,268.67947637492745 265.407510880981,223.0618163524469,C 249.13859076635433,177.44415632996916 243.38185844840422,127.97758716344029 250,80M 250 , 80C 264.67884605019213,122.87705553228997 266.2337877651871,170.02390836091837 255.16893054460226,213.9725072825267,C 244.1040733240178,257.92110620413473 220.55920139450532,297.9279842577334 191.98589868051548,333.10577248409845,C 160.46777655005448,371.90905107937255 122.67214754274137,405.6286863008964 94.46776292600748,446.903365473053,C 80.3655706176236,467.54070505913273 68.84377851041148,490.212983392236 63.05040888186429,514.5277624667175,C 57.257039253317096,538.8425415411989 57.43508160847225,564.8337182442027 65.55363023317304,588.4739547346057,C 72.0810459645435,607.4810037397716 83.74350492108121,624.7871703615263 99.3332787482365,637.469205688439,C 114.9230525753918,650.1512410153518 134.38231519684348,658.0855052497307 154.42277464135964,659.5871887275727,C 174.4632340858758,661.0888722054145 194.95507610369214,656.1210041606811 212.01911323919128,645.5052750452022,C 229.08315037469043,634.8895459297233 242.61166875513334,618.6892383320201 250,600,C 259.7708915112681,621.2784379328191 277.00072288604355,639.0373709957736 297.9628467846583,649.4696096550897,C 318.92497068327305,659.9018483144058 343.4473430923594,662.9297000726378 366.35787577259583,658.0975438154767,C 389.26840845283203,653.2653875583161 410.38308017704395,640.6622840377462 425.9107265641048,623.1370325569776,C 441.4383729511656,605.611781076209 451.33792962293114,583.3642333259236 454.9990586109758,560.2376603779339,C 461.53283747108014,518.9651693163829 448.2521345528091,476.64297083845395 427.2242579813947,440.53290033844075,C 406.19638140997836,404.42282983842733 378.12139236612535,373.0344171425573 351.9164057322937,340.4858770809913,C 321.98195900527105,303.3050705371903 294.35480990000696,263.7347462227046 275.94474690435794,219.69438908749567,C 257.5346839087098,175.65403195228714 248.32511928515592,127.70406954015023 250,80M 250 , 80C 230.7918142961182,155.52447830516084 194.2950100007735,225.39458209102966 153.9924105135364,292.0924208556619,C 130.6174701951029,330.77622836007606 106.50188415901802,369.6941414770777 93.16296924119216,412.87860797539054,C 86.49351178227704,434.47084122454856 82.69207535226407,457.0780760748923 83.51700983147379,479.6618242710473,C 84.3419443106835,502.2455724672023 89.90451034418588,524.7745540947748 100.74712214995036,544.602412494305,C 114.69561029429347,570.109979560985 137.61853778402602,590.7828310388406 164.8156790465841,601.054725037443,C 192.0128203091422,611.3266190360453 223.0842279682262,610.9880623909607 250,600,C 271.1922098741763,621.0956683512981 302.20163790669204,631.8367210834144 331.91968320770513,628.5239026419622,C 361.6377285087183,625.21108420051 389.27510564635503,608.053486442564 406.4299005693096,583.56165119711,C 422.02476966016565,561.2969161091614 429.06214169196386,533.610573934008 428.2718726902267,506.439010758468,C 427.48160368848954,479.267447582928 419.23211025790874,452.69210241048376 407.2528914550856,428.29094081166727,C 383.2944538494179,379.48861761394807 345.76020931613124,338.87248600348784 315.23416387170636,293.8854430741707,C 293.8996054512065,262.44413839264257 275.6934051751932,228.63882323509412 264.13229047680255,192.4440770693167,C 252.57117577841194,156.2493309035393 247.6167491939156,117.92148650395578 250,80M 250 , 80C 250.73345850757016,128.08703625225482 240.61485335013677,176.19497625455952 221.47149128514022,220.31337044288472,C 202.32812922014438,264.43176463120886 174.11944172344684,303.97202118712585 144.23743895698016,341.6544697218582,C 120.72118767944522,371.3094408233924 96.13844858440501,400.4271605888222 77.59897708915389,433.42290852484814,C 59.05950559390203,466.41865646087376 47.06059568598549,504.30309228679124 51.04491986374913,541.9402620266573,C 53.444119467530705,564.6038503037569 61.690131941027865,586.7548145998962 75.52787077733694,604.863137996356,C 89.36560961364603,622.9714613928159 108.77336332100315,636.8561374348606 130.54024814050015,643.6087012137093,C 152.30713295999766,650.3612649925578 176.27841811150734,649.886854185554 197.69710229641316,642.1000473868751,C 219.115786481319,634.3132405881962 237.82415005854992,619.2650738523364 250,600,C 259.6918462065894,613.4232894692741 272.88537071162176,624.2937273100733 287.9113134046675,631.24625413515,C 302.93725609771326,638.1987809602268 319.7553618148618,641.2145042178214 336.2656464058655,639.9787510903017,C 352.7759309968691,638.7429979627819 368.93014186985596,633.2673046791335 382.88263607672144,624.3541409043848,C 396.83513028358686,615.4409771296362 408.55547049256114,603.132848204428 417.06805433391185,588.9324080911048,C 428.695074051625,569.5365583379685 434.24473661827824,546.7733354346925 434.2855144563027,524.1595141669312,C 434.3262922943271,501.5456928991699 429.0255172974351,479.1226487832782 420.58014407345695,458.144988135102,C 403.689397625496,416.1896668387389 375.0954037900155,380.2100364047417 348.22014951810206,343.8332992163906,C 319.7354256866506,305.2780802697788 292.8622193024756,265.0311525632719 275.00812524562855,220.54389904965865,C 257.1540311887824,176.05664553604626 248.25122565268228,127.90434414598835 250,80M 250 , 80C 252.92164361076053,118.3706123027464 248.01886324642325,157.2799480059152 236.02670185228558,193.84534086546103,C 224.03454045814794,230.41073372500682 204.9367687718422,264.3738526193181 182.20235523669623,295.42198188806697,C 150.76020314251846,338.36217039121516 112.10675789002433,375.7921943883629 82.36109345816904,419.92454266609184,C 67.48826124222595,441.9907168049551 55.00781478963614,465.92441437920826 48.08074711953211,491.61746621708915,C 41.15367944942809,517.31051805497 39.99784650187514,544.819542683945 46.904295137904,570.5181447176769,C 52.67210083207344,591.9799047268386 64.09758327621321,611.9980176601745 80.19693755002439,627.317466644484,C 96.29629182383556,642.6369156287936 117.01946484316495,653.1145573822785 138.9671786849379,656.6034801868409,C 160.9148925267109,660.092402991403 183.9477724577128,656.5380707941533 203.7572513296582,646.4653714519463,C 223.5667302016036,636.3926721097394 240.02857937544448,619.860651951654 250,600,C 258.39705140588615,622.1624119750893 274.81186156270655,641.1833415503481 295.49511824115297,652.7542477395875,C 316.1783749195994,664.3251539288269 340.9417384776453,668.3500957386741 364.26004359688125,664.1145764986172,C 387.57834871611686,659.879057258561 409.2442885770079,647.4746641277418 425.1002800402638,629.8601669284512,C 440.95627150351964,612.2456697291607 450.95287098313224,589.640252195438 454.3553157798892,566.1859061957799,C 458.07553806303,540.5409991255447 454.0554110185283,514.103178412161 444.92465553103057,489.8517739846951,C 435.7939000435329,465.60036955722916 421.73684336533057,443.4504342999663 405.7597281633496,423.04864265561275,C 373.8054977593614,382.24505936690383 334.5655166964562,347.5155111978338 303.4183641733821,306.0925690085816,C 279.32192328756923,274.04644610726325 260.08118584149236,237.95994226499448 250.31305713864785,199.07323350718698,C 240.54492843580348,160.18652474937952 240.28196197983857,118.8992569775898 250,80M 250 , 80C 230.81659153652814,163.56683392834847 186.76156322574099,239.12633201752448 137.0855344774854,309.00988559694014,C 112.94905767153725,342.96474899060524 88.0961159240809,376.85754221290006 71.08446608588501,414.885243043599,C 54.072816247687605,452.9129438742979 45.779453054325245,496.24945770820517 56.26800155386873,536.5668560749067,C 61.43791938884918,556.4397333262314 71.08010669810473,575.206361395001 84.69656762855735,590.5768295855319,C 98.31302855900996,605.9472977760628 115.8813586373729,617.8385415791049 135.31545865205678,624.4699107654743,C 154.74955866674065,631.1012799518436 175.97876630500897,632.4309889470788 196.0648839582102,628.164001920098,C 216.15100161141143,623.8970148931172 235.0229885917571,614.0480756669384 250,600,C 263.40209932476563,617.204236210455 282.01762824013105,630.2877109280711 302.7387831848428,637.087398248328,C 323.4599381295546,643.8870855685849 346.1861467456985,644.3720632542405 367.21584492231364,638.59678797972,C 388.2455430989286,632.8215127051997 407.4753740519114,620.840718507316 422.21294403806087,604.7657055742153,C 436.95051402421035,588.6906926411145 447.16489021490395,568.6378303269917 452.23864042073586,547.4279489330557,C 462.3444219883701,505.18258411470583 451.73924763152496,460.2004505549529 432.24531875625416,421.3831295920877,C 412.7513898809811,382.5658086292217 385.2949105528675,348.42508059421544 359.3127137171341,313.6152670739225,C 307.3262172933194,243.9660277302461 263.82498856965066,165.80490686799354 250,80M 250 , 80C 262.8442067889931,126.99901259390819 260.9021432484162,177.71322342119217 245.75631543178437,224.02180505127126,C 230.61048761515477,270.3303866813465 202.431266318968,311.193452871586 171.93099399399134,349.18837649228294,C 150.19644697870677,376.2636250335854 127.2786819465776,402.6991388583668 110.2272183564523,432.9432656761069,C 93.175754766326,463.1873924938468 82.53118242570352,498.24837087582745 87.30272628213662,532.6386600103938,C 89.78497641078411,550.5291588084699 96.41216263589946,567.9020468338147 106.97981066521474,582.5497882321888,C 117.54745869453002,597.1975296305629 132.04301537190577,609.031838134182 148.63488131165965,616.1691693989034,C 165.2267472514136,623.3065006636247 183.8452671204969,625.6965658203316 201.68449061933924,622.8692671266159,C 219.52371411818157,620.0419684329004 236.5080361643271,612.0082648539258 250,600,C 257.05848052733967,624.8031459339214 274.1700450094945,646.5794352455853 296.58245668796053,659.3349045952092,C 318.99486836642654,672.0903739448331 346.3990088724143,675.6701144325165 371.40478532663775,669.3669930235923,C 396.4105617808616,663.0638716146709 418.69999970959174,647.0572224301343 433.29733922340324,625.7984389585258,C 447.89467873721475,604.5396554869174 454.7874858771437,578.3803734290417 454.07359937325816,552.6023098548749,C 453.43112700248986,529.4029728060503 446.8431605865391,506.58286126560347 436.57084761610116,485.7717681542473,C 426.29853464566315,464.9606750428911 412.43853638330023,446.08718600152235 397.18658253114575,428.5943327767361,C 366.68267482682916,393.60862632716623 330.8216079808301,363.53147922778743 301.06177410608603,327.91069416124833,C 272.57749062851957,293.81666850910324 249.81987760653342,254.20352373251097 240.00622392726945,210.87398194099234,C 230.1925702480058,167.54444014947367 233.48922466351434,121.24501531321796 250,80M 250 , 80C 245.45362035179164,156.21595261689532 212.81231163809872,228.60778363460025 167.56854039385252,290.110158912347,C 138.9762705757081,328.9772219364476 106.02522561670244,364.76729272673845 80.99174972776181,406.01643291645405,C 68.47501178328699,426.64100301131117 58.08122339062745,448.71896037226213 52.129681246215355,472.0988826662224,C 46.17813910180326,495.47880496018263 44.79787788974365,520.1949710956895 49.74502408488679,543.8078354897484,C 54.21364256392017,565.1366739780267 63.89819395413553,585.4453060910251 78.23695635584832,601.8552968027059,C 92.5757187575611,618.2652875143866 111.53982224269521,630.656807794189 132.438802983034,636.8309884187877,C 153.33778372337284,643.0051690433861 176.06674401569143,642.9038670032852 196.86864646337384,636.4101194776014,C 217.67054891105624,629.9163719519174 236.4415248916535,617.0603533113054 250,600,C 277.0215447606613,615.2286457070431 310.99336539597283,617.3658800336113 339.78859976451395,605.8372197045074,C 368.58383413305506,594.3085593754034 391.43111811328953,569.5915917398107 402.19910993293695,540.5033486939499,C 410.0738659191324,519.2307827513058 411.79448913848466,495.9195976339442 408.648629389635,473.45546154846727,C 405.50276964078535,450.9913254629903 397.6430013767165,429.3723919495609 387.3958255442188,409.1355633668967,C 366.9014738792141,368.66190620155896 337.52206961417187,333.47592318428565 312.4874252369529,295.64205006227564,C 291.4121881400718,263.7918733900872 273.25642893371,229.72895141421012 262.0610781613364,193.2150705766042,C 250.86572738896294,156.70118973899835 246.58500387158938,118.0386273961391 250,80M 250 , 80C 252.65047890686174,118.39772648605778 247.68765676166805,157.2640319503518 235.85602708357501,193.88947361177466,C 224.024397405482,230.51491527319752 205.294179614989,264.6367682851962 183.22284963638037,296.16876522020164,C 151.38529984518783,341.6531797709759 112.02467452463374,382.10153709273214 85.75970322017966,431.01587881486466,C 72.62721756791318,455.4730496759558 63.08638798700434,482.2134683476291 61.01900746936311,509.89633893091343,C 58.951626951721884,537.5792095141978 64.73466105615746,566.154359062341 79.50257755335632,589.660188727923,C 88.43029371248537,603.8702755318787 100.5363866003955,616.1108982988341 114.81335146945979,624.9312699985661,C 129.09031633852408,633.7516416982982 145.50858200403354,639.1132044558551 162.25120192463416,640.2600963375239,C 178.99382184523475,641.4069882191927 196.01585259603962,638.3292290157688 211.27274233905567,631.3393793633527,C 226.5296320820717,624.3495297109366 239.9839521734496,613.4651204498952 250,600,C 262.769778510519,616.1856097127807 280.98968171839,627.9870232108935 300.97645851215856,633.0436978472774,C 320.9632353059271,638.1003724836612 342.57293078684603,636.3812497272373 361.57596728739003,628.3858880255276,C 380.5790037879339,620.3905263238183 396.84661188136954,606.2164473631015 407.7715002008888,588.732511302014,C 418.69638852040805,571.2485752409266 424.27464206772777,550.6171656289272 424.5814045445247,530.0029205114122,C 425.1196179447803,493.83531919894654 409.66475445004124,459.02534057119567 388.74853935322255,429.5143764326709,C 367.8323242564026,400.00341229414624 341.7966294352316,374.5637931951502 317.86844317998253,347.4376626031207,C 285.6925468160108,310.96153535409894 257.3133064431714,269.8859657915667 243.83486318200954,223.15131341062443,C 230.35641992085115,176.41666102968298 232.1332099405453,125.23907579607558 250,80M 250 , 80C 257.9364663696819,128.15926279722967 252.60101635913702,178.254837003593 235.92830442815819,224.12773497697506,C 219.255592497181,270.00063295035307 191.26327394597445,310.784551351649 162.00230769433804,349.84985495510114,C 141.6217500051935,377.0592323518428 120.64948773239226,404.173465167158 105.79348337640083,434.75150442106747,C 90.93747902040869,465.3295436749769 82.7788014636583,500.20467553797164 89.22065558292464,533.5846076161675,C 92.52729656153085,550.7187198188534 99.63001166291173,567.168643746633 110.26107017968093,581.0067169632573,C 120.89212869645011,594.8447901798817 135.03804751095683,606.0009947843638 151.08132751277932,612.8657484084022,C 167.12460751460182,619.7305020324404 185.00964205759564,622.2648551239869 202.31617260605339,620.0297542513362,C 219.62270315451113,617.7946533786854 236.29146411167108,610.797579327517 250,600,C 257.8299574476357,618.132505053898 271.45718157887706,633.7061403815119 288.3822602487242,643.8863999646909,C 305.30733891857136,654.0666595478699 325.4332464010745,658.7981462661977 345.1302994479653,657.3414121005405,C 364.8273524948559,655.8846779348835 383.97870846602405,648.2728079312074 399.5013266193149,636.060343035514,C 415.0239447726058,623.8478781398208 426.86364418602193,607.1458073913358 433.83988875545344,588.6680373725026,C 441.8633224351607,567.4166089256537 443.4768159578894,544.0014139857863 439.97520224741,521.5573189836085,C 436.47358853693055,499.1132239814309 428.0174782502609,477.6362736192416 416.95985595320434,457.7937009992452,C 394.84461135908293,418.1085557592455 363.0491655879219,384.873103292217 334.30748586706676,349.6891489521849,C 303.41980445852585,311.8781795550412 275.7829588237222,270.6166455203929 259.99796551834567,224.41543064571152,C 244.21297221297044,178.2142157710307 240.37775283674185,127.86575633034894 250,80M 250 , 80C 255.78039499912833,128.55847431405175 248.72577759682892,178.43993626710798 230.72095610798027,223.90602029915397,C 212.71613461913276,269.37210433119844 183.81642664715255,309.6685600052056 152.619870078389,347.3264045041427,C 129.07873695676915,375.7432693099964 104.21372099277707,403.3148022263497 84.79571372030496,434.6938421672117,C 65.37770644783222,466.0728821080734 51.79445674874483,502.2567057415497 53.45832269017744,539.1204372967374,C 54.504678629515176,562.3029446721176 61.687691755283474,585.3318576670426 74.9748764654478,604.3574780626914,C 88.26206117561213,623.3830984583401 107.64098078472594,638.1902410193163 129.6802517034643,645.4561921842915,C 151.71952262220356,652.7221433492664 176.23743557214598,652.3282546808729 197.95790889992162,644.1585210635036,C 219.67838222769726,635.9887874461343 238.41169481819395,620.1055885756849 250,600,C 262.31873293800044,618.8621661274024 280.750469624735,633.6578731726544 301.8230983446565,641.6251067607855,C 322.895727064578,649.5923403489164 346.47926511779826,650.6860257809178 368.2403640358959,644.8561830650057,C 390.00146295399327,639.0263403490937 409.8069581059229,626.3438357940144 424.53923214297924,609.2999925093392,C 439.2715061800356,592.256149224664 448.8975304602224,571.000498734355 452.83873297594084,548.819438909685,C 457.196101704732,524.2961985874734 454.6944947100647,498.81436947831526 447.42797106101057,474.99056599949756,C 440.1614474119565,451.16676252067987 428.2783946271414,428.94846720177594 414.36646559352016,408.28850087307455,C 386.542607526264,366.9685682156692 351.1323306628882,331.31176269916176 321.58901190648936,291.20320713532806,C 299.1041391338895,260.6773282934122 279.9000716706827,227.50031199482086 267.29803080449375,191.74297220732777,C 254.69598993830485,155.9856324198347 248.67264809608017,117.88979967741305 250,80M 250 , 80C 265.3183798892234,125.49993543630535 265.5557149440535,175.72275758218723 251.8829671629302,221.74397937444638,C 238.21021938180914,267.76520116670235 210.85771145839482,308.4912552654489 180.50106972616845,345.68495352038747,C 157.7502803503923,373.5597758597088 133.28691716700826,400.3355406890624 114.94063090421524,431.2874052214829,C 96.59434464142056,462.2392697539032 84.9737755138722,498.606723976981 90.29482543498928,534.1917006582532,C 92.90319968972904,551.635426691072 99.53988703307955,568.5296431566246 109.96825910108187,582.7541378812937,C 120.39663116908419,596.9786326059626 134.60354489781682,608.4513510460464 150.8213911136503,615.3845074902932,C 167.03923732948377,622.31766393454 185.20288522158802,624.6650432864474 202.6346799934767,621.9780886549772,C 220.0664747653654,619.2911340235071 236.69612036195326,611.5798955408583 250,600,C 271.7993011647785,622.0242728016864 303.5769249664316,633.7135545612399 334.4646333174996,631.2180392767384,C 365.3523416685676,628.7225239922369 394.5988044840182,612.2124563514711 413.6445031528531,587.7678355540081,C 430.507519376651,566.1246265407983 439.4601133856242,538.8303158115059 440.75371916052524,511.4238129946068,C 442.0473249354263,484.0173101777076 435.99065310148325,456.6014964527654 425.8418284706332,431.1104946841842,C 405.54417920892587,380.12849114696814 370.3112934341774,336.80078526193137 339.35135444976055,291.4946992656639,C 295.7704529869681,227.71937753583296 261.3573870307579,156.40416476794076 250,80M 250 , 80C 267.26827453893134,124.13462427792862 269.2174553693294,173.89227413231572 256.55636550601076,219.56234276789803,C 243.8952756426939,265.2324114034786 216.9248832211267,305.7053860134397 185.89471194830617,341.52698336036224,C 161.46705291739607,369.726562352038 134.51733369970182,395.8832175094366 112.89761124385745,426.2890456016038,C 91.2778887880114,456.69487369377026 75.36654487640804,492.7554087798787 76.60981197908959,530.0432227135163,C 77.28504947084801,550.2948081526893 83.07486848506466,570.463644162429 93.98806655138596,587.5365691149858,C 104.90126461770726,604.6094940675426 120.93130133911431,618.4383142661299 139.5961914819934,626.3252993951036,C 158.26108162487282,634.2122845240771 179.44347844966055,636.069332418717 199.1596353648956,631.3943121017306,C 218.87579228013064,626.7192917847443 236.99506113879121,615.5387973693793 250,600,C 258.64973836509824,623.668980200333 276.67903070826645,643.7564142446939 299.26371868788937,654.9354332701488,C 321.84840666751234,666.1144522956037 348.70002907791616,668.2604244539559 372.8506913625808,661.0643068395415,C 397.00135364724576,653.8681892251294 418.1679894508871,637.506386053034 431.83804896271494,616.3364056455921,C 445.5081084745428,595.1664252381502 451.67971431593793,569.5113022902177 450.5853670609925,544.3351031808608,C 449.60251847105815,521.7240063076675 442.9584556268384,499.558616664059 432.81424054572625,479.32689420778246,C 422.6700254646141,459.095171751506 409.1137578145507,440.73018034326054 394.2283032685306,423.68169254762205,C 364.4573941764839,389.5847169563474 329.56812568275586,360.1796890402904 300.5043760392882,325.47797108136615,C 272.2469685025049,291.7390145247913 249.637397063975,252.5285186196544 239.91282024964676,209.60730153522707,C 230.18824343531892,166.68608445079974 233.51880926887821,120.80647770036865 250,80M 250 , 80C 258.7519851948135,128.03830858351697 253.95194938164354,178.2828458258707 237.50102541272327,224.25722387478226,C 221.05010144380475,270.2316019236897 192.98963803590996,311.04009826209557 163.50569940594121,349.962761316918,C 142.93607436708828,377.1173621522865 121.6927951896096,404.10548646077706 106.52623094353163,434.6088821690714,C 91.35966669745287,465.11227787736567 82.84560057828583,499.9873144863882 89.03593645646657,533.4859944974353,C 92.22102449782749,550.7219324504348 99.25116690171824,567.2969676542222 109.86682967696031,581.2443705233304,C 120.48249245220238,595.1917733924387 134.67027221626768,606.4390526466714 150.78282966117732,613.3388957996247,C 166.89538710608696,620.2387389525778 184.87521991588463,622.7506780484928 202.2488228047933,620.4311380920849,C 219.62242569370196,618.111598135677 236.32833909926418,610.9685017739963 250,600,C 272.1255608078431,620.8468144523168 303.3513641231409,631.625546961085 333.63795352479434,629.0077967272878,C 363.92454292644777,626.3900464934906 392.61838377173996,610.5230253014844 411.80219420507206,586.9410081882502,C 428.40415282529085,566.5327752328747 437.9623102709703,540.8179915245165 440.4877722943088,514.6312955901874,C 443.0132343176473,488.44459965585827 438.7487322952828,461.88724146981104 430.40664335880115,436.9366792604306,C 413.7224654858359,387.0355548416392 382.02076423361723,343.81517662309227 352.55713841568996,300.221842692116,C 306.910843150806,232.68520601033185 267.63823956381685,159.5843833348333 250,80M 250 , 80C 248.30631246171927,155.95241883146122 218.51890411967975,229.0697319660665 176.22307513697967,292.1783791904622,C 146.25273435419052,336.89644499382024 110.60426349400953,378.4570905762024 88.9852885986236,427.7576652209532,C 78.17580115090553,452.40795254335404 71.21643018527695,479.05863495699316 71.54011649730002,505.97288603575623,C 71.8638028093231,532.8871371145193 79.80060402566677,559.970847121997 95.81245903064888,581.6065163572836,C 113.15155279822785,605.0355879719002 140.03038384302687,621.4227107994018 168.95204100602336,625.0425611208686,C 197.87369816901986,628.6624114423355 228.19579028698192,619.3427507918201 250,600,C 256.32119915115464,622.3104650393408 270.89967422031543,642.1748801132308 290.27440527470736,654.9159242443129,C 309.6491363290993,667.6569683753951 333.6297587697333,673.1599930252345 356.6447012241474,670.326826457556,C 379.65964367856105,667.4936598898782 401.48689198458146,656.406430574998 417.7216703716371,639.8490642474877,C 433.9564487586927,623.2916979199774 444.5359125222818,601.489149647762 448.50434774420637,578.6425759250008,C 452.8361170491082,553.7042611384344 449.4302133497695,527.7560764363209 440.8008800597198,503.9607328440547,C 432.17154676967016,480.16538925178844 418.51285941519586,458.4462131195802 402.8224184863142,438.5843442960772,C 371.44153662852557,398.8606066490672 332.37076499202175,365.76171614737893 300.66779032744097,326.2945592161036,C 273.14295172227315,292.028780176996 251.20860164694338,252.61861671132104 241.5542025527973,209.74026632877445,C 231.89980345865146,166.8619159462279 234.64964749829358,121.18406283346545 250,80M 250 , 80C 253.02952818817374,128.42108644631176 244.25367142265765,177.40437196344132 225.59829725835468,222.19004677664464,C 206.94292309405267,266.97572158984633 178.39640992854908,306.8850360470592 148.17177924911874,344.8356797039986,C 125.70199639627143,373.04918315889927 102.30041485786785,400.80335394387726 84.50205403052918,432.17390176366615,C 66.70369320318999,463.5444495834548 54.93692387106364,499.4210251802503 57.8733202799414,535.3691891776472,C 59.673755018283764,557.4106012447816 67.0607970849184,579.0982162123761 79.91484233334994,597.093741542622,C 92.76888758178146,615.0892668728678 111.07555240175355,629.223033171261 131.91321449361024,636.6296011825495,C 152.75087658546735,644.0361691938378 175.97927164073567,644.6211757735367 197.10989541582643,638.0972084195544,C 218.2405191909172,631.573241065572 237.12500842497673,617.9805451280916 250,600,C 275.7136337208992,613.4947763895718 307.1058873489548,615.6117225665836 334.4561200836433,605.8513579066192,C 361.80635281833185,596.0909932466549 384.5471205756384,574.7603645849514 397.2344600403451,548.6388913063554,C 413.60415808187105,514.935952155094 413.1629624573307,474.92023816883204 402.83942605637606,438.90246869899215,C 392.51588965542066,402.884699229151 373.4323429429549,370.07671124945284 353.9421075764724,338.076932394536,C 329.57942421598176,298.0773908195398 304.6178391384075,258.2201233808261 286.0005867430646,215.24453054045364,C 267.3833343477225,172.26893770008252 254.87979980531685,126.5799444030718 250,80M 250 , 80C 259.0429212879356,128.17071003805535 254.21062956615947,178.67735124795252 237.40496240971314,224.71821660056014,C 220.59929525326862,270.7590819531643 191.90624825501394,311.4212452871532 161.4015521377383,349.7834043215779,C 140.20973908001687,376.4338485555621 118.15800373487656,402.68778042728496 101.59002045793393,432.4340583234699,C 85.02203718099075,462.18033621965463 74.38015262489202,496.2605555714072 77.83317739944347,530.1340811990777,C 79.80670864426713,549.4940526916702 86.39551157866188,568.4567127500657 97.47825160067056,584.4528433875934,C 108.56099162267924,600.4489740251211 124.12660004480314,613.3648260517385 142.0450793641235,620.9563621710871,C 159.96355868344398,628.5478982904355 180.1453028821573,630.7490646492025 199.2531891185969,627.0623309534268,C 218.3610753550365,623.3755972576511 236.29689272656412,613.8176761005965 250,600,C 272.60540628463605,616.7039726032244 302.0206030895827,623.8451517278152 329.7873819767601,619.4824594107553,C 357.5541608639375,615.1197670936954 383.19181181454485,599.3902857081565 400.39301992449623,577.1609012456736,C 416.55300100685145,556.2771104043604 425.2896153357485,530.1078528707521 426.8215677271782,503.74631212753707,C 428.35352011860795,477.384771384322 422.95715803106935,450.93041196930005 413.6495983863441,426.2191383892986,C 395.0344790968899,376.79659122925045 362.09959569482294,334.35618163941 333.176101268915,290.1686007581006,C 291.5146240045817,226.52069331152939 259.08261015967037,155.52642585784994 250,80M 250 , 80C 254.0710752098973,128.37410774573172 246.43794315380356,177.53727510530356 229.06808473947996,222.86845612043544,C 211.69822632515752,268.19963713556365 184.49196130872934,308.97870335689305 156.8165512071199,348.86227929069895,C 137.23141977559553,377.08679606406935 117.45209528782462,405.58390012316437 104.48183908930072,437.3954259341814,C 91.511582890776,469.20695174519847 86.06692604303063,505.11418203646053 95.54163897097918,538.1358496989718,C 100.00430938621122,553.6893361697233 107.68725043058441,568.3533249081144 118.24054111197633,580.6193113920823,C 128.79383179336824,592.8852978760502 142.2039964889216,602.7073295716763 157.16116735564034,608.8806113807805,C 187.0755090890778,621.227174998989 223.02855182186585,617.884251667251 250,600,C 272.1174320416989,618.0580083576227 302.76414666565535,625.094574685775 330.583805965307,618.6650317459973,C 358.40346526495864,612.2354888062196 382.5962757965958,592.6714991857904 395.93331147383833,567.4247975139461,C 405.2550414445058,549.77897715849 409.50706943558924,529.6475961579669 409.2531109702059,509.6925183390023,C 408.99915250482263,489.7374405200377 404.35682554901086,469.98725144623364 397.07055653878786,451.4082334535158,C 382.4980185183395,414.25019746807476 358.00414923089164,381.9892279923076 334.6220440375107,349.64180677548705,C 306.20031660674243,310.32243919463326 279.2375054303515,269.24017169853477 263.2553564686283,223.43211376466826,C 247.27320750690762,177.624055830804 242.25936432512046,127.89456980134256 250,80M 250 , 80C 266.24517625095996,124.51788662524433 267.47614627899065,174.15764789327514 254.61688414720211,219.76891139724762,C 241.75762201541556,265.3801749012176 215.0572703855902,305.87279922413455 184.9126561777227,342.43849647253137,C 161.50176489621253,370.8361252168187 135.98403421809718,397.75990664594724 116.58575416591752,429.03612572546945,C 106.8866141398266,444.6742352652304 98.80682839455982,461.4163585061005 93.8300779777269,479.13233272463657,C 88.85332756089399,496.84830694317264 87.04851326118174,515.5547176952352 89.5803711292226,533.7814421118527,C 92.02886907694027,551.4080624253454 98.58415990709723,568.5186016996166 109.01989121450096,582.9334689537985,C 119.45562252190469,597.3483362079804 133.75880748431462,608.981872494763 150.11676289856035,615.9897381143052,C 166.47471831280612,622.9976037338472 184.81951059820884,625.3313531465799 202.394361827595,622.5353756536526,C 219.96921305698115,619.7393981607254 236.70055105646787,611.824446865473 250,600,C 263.20442046237036,615.7223674113627 281.54511244788085,627.0542179673133 301.50932088646067,631.8479574456206,C 321.47352932504054,636.641696923928 342.9329432182314,634.870616933905 361.901606349448,627.0131761432042,C 380.87026948066443,619.1557353525037 397.2318394582463,605.2971021779855 408.46636214844597,588.1117870313749,C 419.7008848386456,570.9264718847643 425.79917940723885,550.5602195973468 426.70886956768925,530.048710131271,C 427.6382139017132,509.09404234071 423.2563498706277,488.0819690004591 415.3593065558824,468.65007537196794,C 407.46226324113724,449.2181817434768 396.1416122934719,431.320287578706 383.34239610460094,414.7027712764874,C 357.7439637268531,381.4677386720505 326.5263906637212,352.9537978710902 300.003402624088,320.4518250407283,C 272.77478314138585,287.0851527294176 250.55603825134915,248.85463190995486 240.8511294702254,206.89575578565618,C 231.14622068910225,164.93687966135752 234.12116034339698,120.0324242486519 250,80M 250 , 80C 258.28842601457285,119.66079296579 256.8268661062476,161.24892859047367 246.3244291826281,200.38171948429695,C 235.82199225900877,239.51451037812012 216.28319281914605,275.75603865179505 192.82890486178178,308.79499869728267,C 163.18107737814697,350.5585086127374 126.87594524723369,387.89458187825244 102.89506565738849,433.15054114391165,C 90.90462586243709,455.7785207767631 82.28146589205852,480.5064669980995 80.50537055974934,506.0533179608237,C 78.72927522744017,531.6001689235479 84.12933264528483,557.9108456621736 97.67379239794086,579.6443156738808,C 113.2605152312765,604.654805532084 139.8735039829765,622.8015843422352 169.05634365757643,626.9043151592771,C 198.23918333217634,631.007045976319 229.12449009080328,620.8010484750538 250,600,C 272.3577544588526,618.2050287365906 302.28552130653037,626.7562999707523 330.90173226306945,623.2342655823219,C 359.5179432196085,619.7122311938915 386.2963456985681,604.2498002682373 404.40516127416345,581.8140463430511,C 421.1753619734334,561.0367572600552 430.53516310355224,534.7471723355301 432.56927427206904,508.1239162445428,C 434.60338544058584,481.50066015355543 429.5881597255812,454.6515165989712 420.51071780183355,429.5410522214818,C 402.35583395433616,379.3201234664589 369.3225386030098,336.1467018470307 339.80187095263807,291.64645831950037,C 297.0885521877915,227.2592598517931 262.5195775643317,156.24564973844738 250,80M 250 , 80C 255.95525274742073,119.08379977901012 253.11773006511893,159.42226616538295 242.23668568378937,197.43030891455578,C 231.35564130245993,235.43835166372853 212.41251583372977,270.75712796519286 189.88637445780586,303.24684010862825,C 160.26351337910359,345.9722324983195 123.98064647083334,384.4207218106559 100.39858301607973,430.7549352663427,C 88.60755128867363,453.92204199421013 80.29198974603817,479.1766385655539 78.96330035630564,505.13772189893405,C 77.6346109665731,531.0988052323142 83.62763526611883,557.7019456083551 97.80738900318926,579.4890483825455,C 113.75940825698386,603.9992260190753 140.2540569379695,621.6602361429622 169.2100957612707,625.7545665779842,C 198.16613458457192,629.8488970130062 228.79677437566608,620.140480360986 250,600,C 259.8814018492966,613.167999132678 273.13139186662636,623.7851662895557 288.1334014764733,630.5658750527714,C 303.1354110863202,637.3465838159871 319.8520903202259,640.2735669061028 336.27005504197786,639.0534283644623,C 352.6880197637298,637.8332898228218 368.76245583465237,632.4765284629116 382.7184940636194,623.7434132903572,C 396.67453229258643,615.0102981178029 408.48323736786307,602.9399441555371 417.18465898005917,588.9641234071054,C 429.2365569504093,569.6069225704147 435.2259712287285,546.7535311349714 435.65100633726655,523.9550922832382,C 436.0760414458046,501.156653431505 431.1037780157863,478.45880949221225 422.91496893078255,457.1775295803022,C 406.5373507607708,414.6149697564712 378.1831580470274,377.9419224704362 351.3805604720795,341.0445155301744,C 323.43940550022677,302.57973007441706 296.8672107186502,262.6897248253974 278.58996897675195,218.80134030709064,C 260.3127272348545,174.91295578878461 250.23607717014494,127.54147798384247 250,80M 250 , 80C 240.16065073068336,156.4601140543408 205.68196388709833,228.03893204620974 160.31610529072043,290.36790371316295,C 128.38191365003593,334.2428658005816 91.51666683405819,374.9773716297232 66.22650388646684,422.99000071833564,C 53.58142241265689,446.9963152626458 44.08371605735764,472.91340703999003 40.847468760992385,499.85274494789746,C 37.61122146462713,526.7920828558049 40.87685187352345,554.7522148869997 52.14598524171194,579.4343512736585,C 60.572404863618424,597.8902548079982 73.43206832074198,614.3703350963235 89.6063979793064,626.6184362964846,C 105.78072763787081,638.8665374966456 125.22767669773509,646.8062695973545 145.38449562573237,649.1144233221382,C 165.5413145537296,651.4225770469219 186.32779811081411,648.0745809666954 204.69966358317305,639.4664753691295,C 223.07152905553198,630.8583697715636 238.95989105564917,617.0217777394186 250,600,C 269.81633549112826,624.2905657206826 302.1777555585813,637.6693066634409 333.38224923570033,634.6695883962726,C 348.9844960742598,633.1697292626884 364.18388803781465,627.8148878225354 377.3630863584715,619.3302891015155,C 390.54228467912833,610.8456903804956 401.6757645589254,599.2663303098338 409.8898384013757,585.9168481197745,C 421.46497686054835,567.1049762432855 427.13857724104486,544.9308736018605 427.40582445071215,522.8447029791522,C 427.67307166037943,500.7585323564439 422.6967467055044,478.8050656457369 414.6056153260689,458.2525975008358,C 398.423352567194,417.1476612110231 370.64056971686625,381.8670539095572 344.46103434750347,346.284567441758,C 315.8818081831263,307.44048889313 288.90485409075944,266.8552097773216 271.5578864354727,221.8583507801311,C 254.2109187801874,176.8614917829417 246.44069562094197,128.09330471888657 250,80M 250 , 80C 259.5404193425124,127.69854800435283 255.69453827459196,177.83141555762677 240.11499340177124,223.912310346143,C 224.53544852895195,269.9932051346568 197.27726504605482,311.1740083197483 167.8006665311044,349.8689850343387,C 141.9278430217087,383.8331584354512 114.11226058423927,417.1199640801825 97.19089040919998,456.3199041639182,C 88.73020532167541,475.91987420578937 83.19716850052166,496.9570676240528 82.71760242053384,518.299795522975,C 82.23803634054603,539.6425234218973 86.97260837451395,561.2530691398619 97.53196844905946,579.8068270505548,C 112.33898102441108,605.8240974877873 139.13795396803133,625.0359839100822 168.78251417020059,629.2008407900569,C 198.42707437236982,633.3656976700316 229.85032148702197,622.1390252322532 250,600,C 262.907130451581,610.1168071089207 278.53306157151366,616.7282881675113 294.7802770318493,618.9580398036062,C 311.027492492185,621.1877914397011 327.8451810345592,619.0288031074862 343.0331226284972,612.8425091674632,C 358.2210642224352,606.6562152274402 371.73066936217197,596.474236618159 382.0357610814581,583.7169294089421,C 392.3408528007442,570.9596221997251 399.4267156141643,555.6862432975861 402.94103299454633,539.6677110326381,C 407.2171672501225,520.1767581310676 406.2180417881333,499.7070194554504 401.3061952683387,480.3664834507547,C 396.3943487485441,461.025947446059 387.67872102519993,442.7965551020212 377.074640476029,425.89282637461775,C 355.8664793776818,392.0853689198079 327.56518436729607,363.4088652292317 302.6184797171046,332.25774640777774,C 274.3222118909949,296.92400539408436 250.27850761854643,257.2008190806116 239.7880788117849,213.16557262552797,C 229.29765000502516,169.13032617044473 232.57947336275245,121.7813029786119 250,80M 250 , 80C 241.878578042646,155.47349773350348 209.9434004783808,226.60825497107857 168.4982052481924,290.2046553964966,C 139.8668101222391,334.1386665419476 107.16144890191796,376.2582719537063 88.53205626605279,425.2776543672562,C 79.21735994810524,449.7873455740485 73.74536572809842,476.02346238131224 75.10943080388043,502.20795888242776,C 76.47349587966245,528.3924553835433 84.94514280699048,554.4304688395846 100.79465935135597,575.3178180217518,C 117.66891847359067,597.5556283353773 142.93661652192867,613.4545161622866 170.45384111943335,618.151661989232,C 197.97106571693803,622.8488078161774 227.26928188735354,616.2041748494797 250,600,C 260.4117326308835,614.2511307550974 274.4839416570917,625.8031949297706 290.4869317668597,633.2465283041772,C 306.48992187662765,640.6898616785837 324.3834526426838,644.0053715120127 341.9950884708717,642.8524675128987,C 359.6067242990596,641.6995635137846 376.8879937483209,636.0890133441138 391.90947083858447,626.8232629588201,C 406.93094792884807,617.5575125735264 419.66095674795986,604.6782954298511 429.03925965216297,589.7268293207064,C 443.9884122257241,565.893972742374 450.1704939388468,537.0934369362386 448.63739672921247,509.00194661805176,C 447.10429951957815,480.9104562998649 438.19836364630953,453.5787920087893 425.5974335621817,428.42528775260473,C 400.3955733938976,378.1182792401748 361.7252692520891,336.0436969755959 329.37553423549025,290.00649999568316,C 285.7617771900893,227.93937261109082 254.57554148862332,155.72022533957727 250,80M 250.78328701995275 , 576.62166023226C 250.50403740258977,584.4138177966311 250.24294078458433,592.2066259147936 250,600,C 248.4418570415397,649.9841596144009 247.63061238826066,699.9916014267367 247.56662821408634,750M 249.01346086948374 , 576.1635253618256C 249.8804641628215,584.0745464366751 250.21031845541654,592.044390953253 250,600,C 249.18887218417336,630.6821185847801 240.17872607238544,661.1097158154502 224.15293249195489,687.2865045662031,C 208.12713891152436,713.4632933169562 185.12512405903823,735.3248742047522 158.1679170064192,750M 249.70527091596742 , 575.0444191467881C 250.32147728897343,583.3460687741124 250.41997443827898,591.6861129247397 250,600,C 247.05144564476225,658.3700952019099 217.10228556211283,714.826219369589 170.42716217899215,750M 250.5265516350487 , 575.1498568499202C 250.7340899385124,583.4354502021143 250.55832262613774,591.7306345351973 250,600,C 246.3291773846508,654.3688762405575 225.6513235832693,707.4673636813214 191.58631969192294,750M 249.000110158551 , 575.9851573261476C 249.62692424561084,583.9742862208905 249.96051992880427,591.9864166741381 250,600,C 250.25553624498446,651.8682193304172 237.96849160032858,703.7547305767051 214.47907842656812,750M 250.16808104491363 , 576.9857731799663C 250.51301353736383,584.653124987236 250.45688449294,592.3385041459973 250,600,C 246.61599489864346,656.7463800032538 220.2541871635037,711.7912129995918 178.16271855100308,750M 249.13015097567387 , 576.4933180261038C 249.82822577876894,584.3066702581403 250.11870064207204,592.1564235395989 250,600,C 249.16643780943755,655.0806521518823 227.32421624469515,709.5863789439834 189.89011013084655,750M 250.13126962628328 , 575.0086532971682C 250.59202092792705,583.331566914494 250.54815739049457,591.6823857796431 250,600,C 246.1590070516204,658.282343943055 216.24026308283143,714.3571708498181 169.9674463056241,750M 249.51018034815417 , 576.8718237830351C 249.23226589558837,584.5821447346586 249.39589537868417,592.3083588730041 250,600,C 254.66018062669474,659.3348166902621 287.02871225107,715.911738313649 335.81731922383847,750M 249.7900502993653 , 575.0222878116729C 249.94955999387454,583.3471184313817 250.01954862218147,591.6736643089018 250,600,C 249.88226287364165,650.147720297816 246.51225084797883,700.2875698147997 239.91816272447733,750M 250.3601552234545 , 576.9328923919823C 250.16257092211438,584.6204570239055 250.0425110423534,592.310014152327 250,600,C 249.72289786064624,650.1260710635266 252.7453930899091,700.270133311189 259.04143509854083,750M 249.00023044198488 , 576.0214669715201C 249.77495853189654,583.9877481372891 250.10889401456018,591.9968767772215 250,600,C 249.24379381281435,655.5770794411338 226.17095581061764,710.537598460892 187.02887523523367,750M 249.68254211727645 , 575.0517276273682C 250.2181779169311,583.3549383763286 250.32418577971166,591.6858483275948 250,600,C 247.86092529904286,654.8592585343539 226.32404502302765,708.768155759842 190.0742324983994,750M 249.10231730820655 , 576.4406424682829C 249.79672392403245,584.272056242595 250.09645736268868,592.1384519190066 250,600,C 249.33058687346698,654.5590645814393 228.8592342570912,708.6631678607847 193.2445469689796,750M 249.9245181669628 , 576.9971471771415C 249.86649642557217,584.6647369398713 249.89165901066357,592.3329561419004 250,600,C 250.70963451898706,650.2192107864191 254.9936898397892,700.3875712243406 262.8090352666694,750M 249.0255125810828 , 575.7755578685449C 249.86483767953823,583.8187084188153 250.1905477131345,591.915420297614 250,600,C 248.61917608123903,658.5857517917557 218.41402424126198,715.8077296115952 170.82110845134594,750M 249.6583010239478 , 576.9398094539665C 249.98662983590296,584.6213672916703 250.10058860415685,592.3120865928744 250,600,C 249.32878147603057,651.3007406036668 238.99813093114227,702.458767984685 219.7095908293718,750M 249.6931775621377 , 575.0482332262449C 249.34007369782077,583.3627784417215 249.44255218240912,591.6966514941341 250,600,C 253.7864517971761,656.4003084781835 279.4381625249443,711.0514704871296 320.40576023864554,750M 250.13901957609292 , 575.009710366881C 250.63410591264443,583.3310877466174 250.58763553921855,591.68464574118 250,600,C 245.72479103503417,660.4964722206009 210.95504453263578,718.0615709330407 159.39888765911707,750M 250.91412262788063 , 576.4054378142165C 250.27641492208411,584.2526779246715 249.97134277090123,592.1269429550913 250,600,C 250.1923988693837,652.8581206791698 265.81075729318314,705.5692626994215 294.4451338707446,750M 249.06543310454924 , 575.6442125382655C 249.769151295561,583.74142567468 250.08115893512468,591.8726699897115 250,600,C 249.4632088092709,653.7547609141085 231.1798954872316,707.1854129443973 198.6718410856894,750M 249.36142317404313 , 576.7695580792578C 249.7245294970496,584.5079357415391 249.93744188407473,592.2533606300517 250,600,C 250.4076953185322,650.4853536391297 244.39646996213278,701.0191090737203 232.1568020087676,750M 249.14633831859484 , 575.4791720690089C 249.95733982729573,583.6231174608648 250.24268208419542,591.8193719435085 250,600,C 248.25505374001253,658.820808214374 217.48135537727936,716.0852639598381 169.39057667939844,750M 249.0373166671275 , 576.2706303763614C 249.88028999839565,584.147710581578 250.20211837683124,592.0805211813913 250,600,C 249.2285290052582,630.2280688070736 240.6781485021783,660.2253893528218 225.39624014329397,686.3174300589752,C 210.11433178440961,712.4094707651286 188.13344965865252,734.5406493972167 162.146149101628,750M 249.17797958956024 , 576.5694580272684C 249.6712944986698,584.3698879427824 249.9454454358446,592.1841769297198 250,600,C 250.3565030410159,651.0748227161886 241.2339341907756,702.2004462786809 223.23484327064637,750M 250.87689086243694 , 576.4806895207664C 250.60073828494887,584.32105050848 250.30844050448596,592.1608428310878 250,600,C 248.03144887532852,650.0316315039655 245.40531291840762,700.0373891903553 242.122499252814,750M 249.3733799829291 , 575.2206750650685C 249.584697437835,583.4803879953009 249.79357078905136,591.7401634557659 250,600,C 251.24954296027693,649.9978688067207 252.40953157652064,699.997975748705 253.47995840565795,750M 250.94871373291352 , 576.3161364467778C 250.2489368472001,584.1891639574889 249.93220061245265,592.0962253880035 250,600,C 250.46357902026926,654.042141435261 269.5219025164756,707.7525034075353 303.22527012397836,750M 250.95352692613014 , 575.6986921820716C 250.1391534029435,583.7694656191491 249.8205134611925,591.8902298004018 250,600,C 251.27267397527274,657.5034403529295 279.0074715198109,713.8914607706153 323.77843025636514,750M 250.4984255802518 , 575.1330675107307C 250.24900451567538,583.4200967300034 250.08285147357162,591.7096321081716 250,600,C 249.49938902602995,650.0926412770565 252.0436675816838,700.2155309157497 257.6141217335855,750M 249.4701816517895 , 576.8481111471378C 250.09471068968566,584.5464767527485 250.27171388140994,592.2811243640363 250,600,C 247.96280411550782,657.8728683160923 219.27485085937468,714.2722041753829 173.7013535202629,750M 249.67549017987986 , 576.9458823270606C 249.61655849453606,584.6317291183617 249.72476252616607,592.3188569746497 250,600,C 251.82625345215254,650.9658578503991 261.05549909456397,701.6605738804818 277.3083065607905,750M 250.18031537085864 , 575.0163911514062C 250.61668050048337,583.3379781673973 250.55643297450584,591.6855783522877 250,600,C 246.12045219994928,657.9695986578112 216.88604680222994,713.7941715243938 171.44748119903818,750M 249.02730888840782 , 576.232103428302C 249.28856899307652,584.1571455741034 249.61281301579228,592.0801113584672 250,600,C 252.4545890335455,650.2084847872353 257.4409251710957,700.2931112588233 264.9337326306474,750M 249.8521071071006 , 575.0109966166742C 250.38320741033544,583.328518990343 250.43261504667512,591.676774051489 250,600,C 247.04566465310458,656.8394483938251 220.5591606951844,712.0964720179479 178.100079716317,750M 249.07018403548676 , 576.3680248254349C 249.85728987099054,584.2169080042398 250.1679880919002,592.1135380079663 250,600,C 248.76797880019777,657.8391495237169 220.26899326006063,714.5168534107921 174.57619949569963,750M 249.5778874762117 , 575.0934565552269C 249.21592844926656,583.3940135781247 249.35697633576663,591.7164752795202 250,600,C 254.56662415156256,658.8279190217789 285.8243120874351,715.0638248558688 333.37472511269914,750M 249.74736407849733 , 575.0324385853257C 249.27340061217518,583.3481290340279 249.35786507824378,591.6956028666552 250,600,C 252.4017831190208,631.0610125267165 262.7503736308466,661.4749669844817 279.79125600193834,687.5549092649061,C 296.8321383730301,713.6348515453304 320.5297835123637,735.3264067267987 348.01142687276547,750M 249.04472564738654 , 576.2957210023636C 249.8870477583209,584.1644126672653 250.20640773159258,592.0890448804079 250,600,C 249.20811068616047,630.3506112544026 240.52700856175227,660.461767164483 225.04004719698952,686.5757618778084,C 209.55308583222677,712.6897565911338 187.29454713918452,734.7487842121764 161.04217373801418,750M 249.04832420593272 , 576.3071045147607C 249.58025155867938,584.1941621158837 249.8976332436409,592.0956881792767 250,600,C 250.65946863118094,650.9212744668282 242.30722938297185,701.9465359900817 225.4467522589685,750" stroke="hsl(210,80%, 90%)" fill="none" stroke-width="1"/></svg>