<svg viewBox="0 0 500 800" width="500" height="800" version="1.1" xmlns="http://www.w3.org/2000/svg">
<rect width="500" height="800" fill="hsl(210,80%, 20%)" /><path d="M 250 , 80C 262.6513170659958,121.21943503351332 263.496393131645,165.88540397693663 253.09281687313074,207.7287218308026,C 242.6892406146168,249.5720396846683 221.11617063462865,287.97006733292307 194.91807254942367,322.2156116373188,C 163.90581019787018,362.7541194666113 126.10826036060999,398.294714898248 99.94512978607104,442.1196122937562,C 86.86356449877167,464.03206099152584 76.95020346561274,488.1578267008742 73.73659384155658,513.4749251025954,C 70.5229842175004,538.7920235043166 74.33648261962044,565.2759031592522 86.5208515756751,587.6996386072321,C 94.35721932912597,602.1214472384337 105.57115533899587,614.7380025635254 119.1687418990718,623.9305464716916,C 132.76632845914776,633.1230903798579 148.7152750407581,638.8440829920185 165.07110854682062,640.2166477752927,C 181.42694205288313,641.5892125585669 198.13635764408653,638.6000444518523 212.97490183745734,631.5847162354605,C 227.81344603082815,624.5693880190687 240.73619995817756,613.5491413952121 250,600,C 257.06274197474755,618.7654482376831 270.36810468370646,635.1174553514662 287.29698032218005,645.8616417506369,C 304.22585596065363,656.6058281498074 324.6662707286579,661.6752788447479 344.6633014045886,660.2113335216864,C 364.6603320805191,658.747388198625 384.0786690554783,650.7887802044121 399.5716252796888,638.0611457345777,C 415.06458150389926,625.3335112647434 426.5733269373054,607.966080329958 432.90214803191407,588.9405607492619,C 440.3925763101324,566.42305113022 440.656100441127,541.8173837559523 435.4216963721245,518.6712011489393,C 430.1872923031219,495.52501854192633 419.65680624445054,473.8143283391474 406.60878315140616,453.9927782333115,C 380.5127369653007,414.34967802162873 345.06122980097985,381.90531324414246 314.43600416056773,345.64687180749604,C 283.54269419563303,309.071034512439 257.36539966766526,267.5617460982052 244.90575297319546,221.3346363175472,C 232.44610627872692,175.10752653688928 233.91809216604167,125.09501873648631 250,80M 250 , 80C 231.950311440339,163.04764983903658 188.6704695309877,238.41903136533705 138.09875292174158,306.7213364514913,C 110.91455840198232,343.43638731592034 82.18950791850475,379.5207429751162 62.35552878160198,420.67397690955477,C 52.4385392131488,441.2505938767741 44.89142640041477,463.0944922269863 41.5625131430993,485.6923280623431,C 38.23359988578384,508.29016389769987 39.22178206287533,531.6494779894508 45.70091629229739,553.553008927489,C 51.835488710820975,574.2917051796143 62.93762866127851,593.6260342418525 78.24828159102098,608.9005361277076,C 93.55893452076344,624.1750380135628 113.04385685788668,635.2870456184854 134.07013118685947,640.3488920048156,C 155.09640551583223,645.4107383911457 177.5696463633609,644.3774273618269 198.00150197327264,637.287591162609,C 218.43335758318437,630.1977549633912 236.7346799694216,617.0809187540472 250,600,C 260.29867100159476,619.8647686499194 277.10299795066936,636.2849971601112 297.19162489730337,646.1398804832601,C 317.2802518439374,655.994763806409 340.52512286715404,659.2259098990676 362.5672756868413,655.3768636551962,C 384.60942850652833,651.527817411325 405.30710762020635,640.6580786171882 421.29073085062504,624.9993607149487,C 437.2743540810437,609.3406428127092 448.49710284017965,589.0414897941437 454.07976571966356,567.3734134354097,C 459.5664899239484,546.0777053505338 459.69116358029197,523.5653935549792 455.6922519653393,501.9408697168475,C 451.6933403503867,480.3163458787157 443.6660533053884,459.5667896459769 433.42879614476686,440.10375054214126,C 412.9542818235207,401.17767233446887 384.17672365988494,367.37597259837037 357.212410036106,332.62872677774124,C 328.683219390533,295.8649205760801 301.9938479748874,257.29178582338676 282.9425648551165,214.83544616939542,C 263.89128173534596,172.37910651540437 252.40884767843283,126.47246085787599 250,80M 250 , 80C 266.74900956497936,122.46277040891034 269.3201312081884,170.22663732845803 258.07347755280205,214.4660877518458,C 246.8268238974164,258.7055381752331 221.99535409106224,298.51954661762676 192.0507133751678,332.9714650635354,C 164.8279861094465,364.2917667005492 133.44347361684166,391.85855090916124 107.02528724209292,423.8603884046304,C 80.6071008673414,455.8622259000975 59.30943990255598,494.2006687404046 57.466415332777444,535.6571692542273,C 56.408486531576564,559.4539360525798 61.95471890264653,583.6883322276645 74.39251184861416,604.003514482245,C 86.83030479458179,624.3186967368255 106.16368284712364,640.4465755346923 128.60964079442778,648.4205516590256,C 151.05559874173355,656.3945277833587 176.38922091291838,656.0580918656542 198.52833200006438,647.2680359116421,C 220.6674430872104,638.47797995763 239.37022590144147,621.316970376141 250,600,C 261.1779650530892,620.6466292082825 279.89973972257326,637.0941495245542 301.8034489034543,645.5474166155539,C 323.70715808433533,654.0006837065536 348.58144253424354,654.3889920529201 370.812334940376,646.8379905816348,C 393.04322734650844,639.2869891103506 412.4308472389624,623.9312833035982 425.3985990782158,604.3591701670993,C 438.36635091746916,584.7870570306003 444.9085514049013,561.236200306541 445.13298463439213,537.7589809201257,C 445.4866587900451,500.76229481241484 430.49866742360956,465.0322500610129 410.0002566809286,434.2313568047255,C 389.5018459382469,403.43046354843835 363.8255873838351,376.49512310343783 339.8091393644174,348.3510279342644,C 308.0268708440218,311.10642002192577 279.12646611001014,270.531626245422 262.27493928212084,224.5609893734437,C 245.42341245423353,178.5903525014662 240.75485024245117,128.08118776410083 250,80M 250 , 80C 233.7833887148773,155.8182800193979 197.75675695175858,225.8880437956645 156.1746648422501,291.32747901991553,C 132.80190291099797,328.11014826089547 108.22167895094385,364.6337598940705 92.73039681786096,405.3679093838972,C 84.98475575131786,425.73498412881116 79.65574159794085,447.13425518119936 78.42047869402708,468.8894112310843,C 77.18521579011332,490.6445672809692 80.1367565688573,512.7467358775917 88.12095539929149,533.0214802220396,C 100.15480757100345,563.5797467985531 124.21008871835264,589.5274820498266 154.45682302051415,602.3242128161717,C 184.70355732267566,615.1209435825168 220.44605998189985,614.3243109313647 250,600,C 256.56399914578196,625.4899701177485 273.78327410363096,648.0480047790272 296.6205536257656,661.1355303441379,C 319.4578331479002,674.2230559092486 347.56058776787006,677.6639402347366 372.9627586328527,670.7679720840151,C 398.36492949783644,663.8720039332975 420.71151545610536,646.8530111950384 434.8336957811934,624.6406568791349,C 448.95587610628144,602.4283025632313 454.86122370716953,575.4184106216136 452.9748561572333,549.1645294065229,C 449.9330080708886,506.829026796877 427.4400542564396,468.12157738916835 399.9577059058348,435.77550884710683,C 372.4753575552273,403.42944030504657 340.0976922934221,375.5706026171553 311.8523904006437,343.88858023887883,C 280.06849059816517,308.237404385502 253.60082801939836,266.835963783253 241.5708422381069,220.61365241218115,C 229.54085645681647,174.3913410411093 232.22321443124068,124.33067246528884 250,80M 250 , 80C 234.49970007594462,155.15895420436328 199.95429447830372,224.99951596661498 159.8731549049632,290.4413217587204,C 135.19604151755968,330.7324631533719 108.93265971815667,370.8005166860179 94.42288932731545,415.7649755754968,C 87.16800413189087,438.24720502023985 83.06425136604373,461.90785907119044 84.17937259937125,485.50532725402405,C 85.29449383269876,509.10279543685766 91.77514569045813,532.5909705337133 104.10825647152814,552.7398756768399,C 118.69773983706207,576.5750719738271 141.6236508633338,595.3651962214218 168.16388023696493,604.1165293875259,C 194.70410961059605,612.8678625536301 224.48971074318234,611.41029138202 250,600,C 260.22379382739894,621.7885501630706 278.4952099525108,639.6823594933732 300.48026244998016,649.4764569565048,C 322.46531494744954,659.2705544196364 347.9443293876122,660.8788902570396 371.0521447108717,654.1486785649798,C 394.1599600341312,647.4184668729214 414.67933873329036,632.4816847975267 428.70759106804564,612.9247163497785,C 442.7358434028009,593.3677479020301 450.2566175818679,569.4403518900552 451.20260908435665,545.3909864408171,C 452.7209017351354,506.7923576778162 437.64232977259405,469.123823110456 416.5643948789196,436.7528482166504,C 395.4864599852441,404.381873322845 368.8062148883427,376.12022913765867 343.92433795865537,346.57278330196425,C 312.56681688399544,309.3354535734448 284.0116572602706,268.9841778744739 266.6301274462818,223.5111608799569,C 249.24859763229435,178.03814388544043 243.12122349813626,128.19331164275312 250,80M 250 , 80C 246.63450162725718,156.18870748161402 214.63365765748264,228.96035669806915 169.3390905768697,290.31545363382287,C 139.75928230402832,330.3836587386686 105.21686004216832,366.86351553990573 78.88951481234551,409.13995118592214,C 65.72584219742795,430.2781690089295 54.768152301272124,452.9750187932958 48.53723595172781,477.08481370927586,C 42.30631960218351,501.19460862525597 40.949864210624895,526.7568414787713 46.36191487820665,551.0635532476874,C 51.18513494040562,572.7256970542943 61.43794394553669,593.2549540051607 76.44593089004022,609.6034173561955,C 91.45391783454373,625.9518807072302 111.1823847176471,637.989374756208 132.68715151297025,643.4717949467152,C 154.19191830829345,648.9542151372223 177.355464944234,647.8219970563814 198.17326044628757,640.1323080833998,C 218.99105594834114,632.4426191104183 237.3500323069449,618.2343149975857 250,600,C 276.5545310310591,611.8510201554274 307.76589337938884,612.7695070162862 335.0219531091702,602.635553937136,C 362.2780128389516,592.5016008579859 385.1280263714176,571.554118541972 398.5860036083939,545.776751614901,C 409.25357447467434,525.3441202024239 414.1819609107542,502.1348126411849 414.08866841296305,479.0852835541274,C 413.9953759151719,456.0357544670698 409.01598144974,433.1750983931136 401.18485700237625,411.49646871974267,C 385.52260810764477,368.13920937299304 359.2180214598292,329.59736776352173 334.93921510101444,290.40939077704024,C 294.8080708460172,225.6344453261036 261.7347694011312,155.29008888618404 250,80M 250 , 80C 257.4542466647139,119.30484567302535 255.54485579596735,160.29607998966907 244.90969960195412,198.8619993933042,C 234.27454340794094,237.42791879693925 214.9233765858723,273.20752032348173 191.2316497382983,305.4431956801215,C 159.06262012525534,349.213343876405 118.64899835110508,386.63237423902945 88.46972431912421,431.7974465656854,C 73.380087303104,454.3799827290171 61.05036884598861,479.12665208294607 55.135007281653486,505.63469958566907,C 49.21964571731836,532.1427470883921 50.020351491502055,560.45305003652 59.725076712359986,585.8200836279962,C 66.97074298707038,604.7594204561744 79.14808804392099,621.8692595909667 95.05412974113207,634.4468585980208,C 110.96017143834315,647.0244576050749 130.54206010506584,654.9639174353887 150.74504547072877,656.7067718671972,C 170.9480308363917,658.4496262990054 191.66072057907485,653.9636206870377 209.276652191166,643.9198607987394,C 226.89258380325714,633.876100910441 241.31816214367743,618.3254972836261 250,600,C 262.1775958221363,618.3175429034927 279.9954965293556,632.8254476259895 300.39432425861537,641.0543020602707,C 320.7931519878751,649.283156494552 343.6692320056349,651.1935242123154 365.1789652525804,646.5937857769417,C 386.6886984995257,641.994047341568 406.7205603547255,630.9343155696856 422.3362781438026,615.4431704873975,C 437.9519959328797,599.9520254051095 449.1120143056647,580.1484900353862 454.981621058568,558.9500482389977,C 461.7769667226492,534.4082440584853 461.5263898789328,508.18700648633416 456.0456336931318,483.318589030437,C 450.5648775073308,458.45017157453987 440.01821569139724,434.9029534543402 427.03686507175496,412.9949318362461,C 401.0741638324577,369.1788886000523 366.07406154108946,331.5224039803878 335.8004933322622,290.5661032633737,C 290.13640335581624,228.78837728988222 256.6203042902584,156.53671087090916 250,80M 250 , 80C 254.06587451917434,118.55407097202715 249.87078941412773,157.90271871038772 238.2457100838623,194.88656997937824,C 226.62063075359697,231.87042124836867 207.5373774812988,266.15489506655075 185.29831160869446,297.90976356314087,C 160.10321542981583,333.8855087002065 130.71778493304285,367.0266015887106 108.70236161114175,405.03144661651646,C 97.69464995018728,424.0338691304194 88.65519567387068,444.3234240706472 83.67528270334364,465.711791100731,C 78.69536973281662,487.10015813081475 77.89130287265391,509.6105875884112 82.76715339949332,531.0229171918784,C 86.74008099229681,548.4700548019191 94.49168401496223,565.0991167464022 105.67954167616931,579.0640229542478,C 116.86739933737637,593.0289291620935 131.47688480761875,604.2685955671093 147.94098260181394,611.2771794657676,C 164.4050803960091,618.285763364426 182.6746135204166,621.0300538296333 200.46168901295889,619.0789746759449,C 218.24876450550116,617.1278955222565 235.50167155444672,610.4873846466227 250,600,C 258.76345457686506,615.326120222947 271.9353361912035,628.0962506841261 287.5207061560219,636.3898831976111,C 303.1060761208403,644.6835157110962 321.04521703465065,648.4695216624747 338.65835007053465,647.258884694076,C 356.27148310641854,646.0482477256772 373.4868943450322,639.8586262183653 387.9620760583974,629.7513411440212,C 402.4372577717625,619.6440560696772 414.13144051181996,605.6837808367459 421.923879517676,589.8418746525454,C 433.6447246772854,566.0135804203375 436.35482861950567,538.2828075546803 431.8196575008954,512.1179830722357,C 427.2844863822851,485.9531585897911 415.8615356664693,461.35131079995864 401.3873961602505,439.08777328170413,C 372.4391171477629,394.56069824513094 332.24071600961906,358.5254140274054 300.25054073376026,316.1309337862551,C 275.0098162351504,282.6810577914698 254.73995278946256,244.9431837941379 245.29275958565697,204.11746986466437,C 235.84556638185157,163.29175593519085 237.28708051548557,119.92956367732421 250,80M 250 , 80C 238.46263456002407,155.69080894405369 204.234752599062,226.14911200613417 162.18321835402588,290.13253038573737,C 138.06427878707538,326.8306492270665 111.94070520285334,362.6309989852383 94.39823775668073,402.88937709745863,C 85.62700403359233,423.0185661535693 79.14443201391398,444.265938034382 76.74808790699264,466.09198504255346,C 74.35174380007129,487.91803205072495 76.14042748051709,510.32277632890293 83.15452511645859,531.1295355055544,C 94.14583907700236,563.7343885432529 118.77003819536456,591.8900463701555 150.45413874609093,605.3065733604246,C 182.13823929681726,618.7231003506938 219.96937847341877,616.794260773145 250,600,C 262.4692940283534,618.4161815053667 280.73698163247496,632.8398497225883 301.5362987095835,640.7156000950952,C 322.335615786692,648.5913504676021 345.5507060356317,649.8784859362241 367.13031185836695,644.497069083804,C 388.70991768110207,639.115652231384 408.53317587846243,627.1270137472808 423.6289644978646,610.7943409481808,C 438.72475311726674,594.4616681490809 449.058300378775,573.918964657136 453.97605020878007,552.2289952838609,C 463.4701153251988,510.35496982071606 452.5434414675509,466.0197053350141 432.92946531308814,427.82463732440493,C 413.3154891586233,389.6295693137951 385.89555064085454,356.1124214413944 359.9391662063199,321.90953577352025,C 332.81624906196413,286.16950285763284 307.12960504062767,249.0581008240211 287.8129802253308,208.56278513203813,C 268.49635541003425,168.06746944005536 255.45613390469495,124.53350637511394 250,80M 250 , 80C 243.4771723873331,155.884805225006 211.34586391476478,227.75564104014347 167.61403150810983,290.11410300368067,C 135.39755568550905,336.05249093816724 97.33819258074465,378.4918592948015 73.11045260995122,429.1006867496559,C 60.99658262452686,454.4051004771019 52.67848062348403,481.84743179318997 51.75557098994827,509.8868226197013,C 50.83266135641251,537.9262134462127 57.64145219435565,566.50013235277 73.06091769153291,589.9372670730144,C 82.57161671298564,604.3932502774904 95.25775265214345,616.7878292844373 110.094488577466,625.6928903941097,C 124.93122450278854,634.597951503782 141.88933542247636,639.9766139634849 159.15739905098238,641.0914344901279,C 193.69352630799432,643.3210755434139 228.93817280886617,627.461151114071 250,600,C 270.49653518872117,621.4251308205792 301.65287861348634,632.0454503411903 330.99409985245177,627.7749794505856,C 360.33532109141714,623.504508559981 386.8906022266327,604.6513145647363 401.8033888593942,579.0241223606116,C 414.49400695859134,557.2156624646731 418.9833205387985,531.1267805127245 416.42287677962435,506.02489137010144,C 413.86243302045017,480.92300222747843 404.58270610423585,456.84935232099735 392.08934791761135,434.92729238144943,C 367.1026315443356,391.0831725022887 330.3282083003187,355.290250751633 300.4916334169199,314.59109053518523,C 275.9110320862844,281.0614432589348 255.83215457769066,243.68155251495483 246.30172144779976,203.2141081602382,C 236.7712883179092,162.74666380552162 237.84252798048783,119.75725194653393 250,80M 250 , 80C 243.25337002835556,156.35631124799755 209.61327361384022,228.3293178931051 164.1062663731269,290.01331561835826,C 135.07111324852215,329.36998677488634 101.82526242230705,365.80757227037896 76.88505675399347,407.87862909944556,C 64.4149539198319,428.9141575139784 54.17506702661728,451.4415010672054 48.53228230932795,475.23553185241514,C 42.88949759203861,499.0295626376249 41.97920694739793,524.1216829545966 47.53220258940331,547.9368285508984,C 52.50230007164937,569.2520974252427 62.69757020294128,589.4203068921082 77.47242125738462,605.5679485926054,C 92.24727231182797,621.7155902931025 111.5697575415917,633.7245601356226 132.69211530684134,639.4594148509068,C 153.81447307209103,645.1942695661908 176.63121741276677,644.5999294081618 197.38305543016503,637.6426472471247,C 218.1348934475633,630.6853650860878 236.71934046700338,617.3973169924918 250,600,C 265.0011612453396,613.6212294746686 283.7874815688788,623.026628189703 303.6783637223742,626.889986607714,C 323.56924587586957,630.7533450257249 344.4938276021273,629.0612744868099 363.5442394003562,622.1580476016383,C 382.5946511985851,615.2548207164667 399.7015112743189,603.1831804412419 412.8280374290099,587.7472793590094,C 425.954563583701,572.311378276777 435.08008382428056,553.5940302889076 439.7512822157414,533.8772192714567,C 444.95044885910136,511.9318901364844 444.67050112112474,488.859618787633 440.26420649906504,466.7414504111308,C 435.85791187700534,444.6232820346287 427.42500461740184,423.44227806366166 416.8829219852784,403.505044092893,C 395.79875672102736,363.6305761513539 366.81983957137624,328.59268971748605 340.5593773829576,291.91976586129874,C 295.3373878879511,228.76693307881635 259.90969945205677,157.039642257143 250,80M 250 , 80C 236.11988880988574,157.78112397810781 198.26639970001133,229.43194269809626 151.5766221629877,293.17067038771177,C 124.04723714218717,330.7525152339839 93.9727556189089,366.853096342951 72.35176386817173,408.11803081990496,C 61.541267992800634,428.7504980583818 52.992337338498935,450.7046205389846 48.708961447014524,473.6004327410116,C 44.42558555553012,496.4962449430386 44.51561737935311,520.349640706784 50.35067596654791,542.8999758861609,C 55.674638047713316,563.4751128138333 65.8197335624363,582.8650377751839 80.18487668389355,598.5278438754395,C 94.55001980535079,614.1906499756954 113.10773894539946,626.0298359406715 133.46564232492193,632.1320160284915,C 153.82354570444437,638.2341961163115 175.8968963456024,638.5531365816441 196.39032478625617,632.9228415110496,C 216.88375322690993,627.292546440455 235.71387864939857,615.7349155889076 250,600,C 259.4576009144398,615.7167605007227 273.33661984827677,628.7387466752647 289.6187897117905,637.1858598051792,C 305.9009595753042,645.6329729350939 324.5287168131433,649.4757595985961 342.8299921649687,648.2404069402188,C 361.131267516794,647.0050542818415 379.03684907528907,640.708373871367 394.20568266151355,630.3948263087038,C 409.3745162477381,620.0812787460407 421.7661945287265,605.8129112364156 430.2317049090968,589.540298978584,C 443.14285915503865,564.7221607441261 446.714218472759,535.6049231604774 442.67708974478404,507.92208585970695,C 438.639961016809,480.2392485589365 427.3670374874977,453.9938207899169 412.8520729513232,430.07826740094504,C 383.8221438789199,382.2471606229305 342.89594692249574,342.81257110422416 310.55538395554566,297.15471806075163,C 288.2973961804374,265.7312720335995 269.9054807430756,231.29192204118326 259.09109145036393,194.33383815898105,C 248.27670215765227,157.37575427677888 245.0263988777297,118.18526249608297 250,80M 250 , 80C 231.2321140867982,162.6898009264999 188.39839078832307,237.93462269594204 138.29111066776852,306.33854946798795,C 108.58145227510643,346.896673800913 76.81228248652013,386.70541893484835 56.61788818741421,432.746831707546,C 46.520691037856096,455.7675380938965 39.53857072071446,480.3374406323499 38.056058141305854,505.43143332493474,C 36.57354556189724,530.5254260175195 40.75607609332072,556.126981527867 51.61863510935129,578.7965894739003,C 60.335460168701935,596.9881598338804 73.33064451827487,613.1766504079674 89.5140558885052,625.2188041895519,C 105.69746725873553,637.2609579711363 125.02933410284743,645.086280311843 145.06416850294676,647.4361062283797,C 165.09900290304603,649.7859321449163 185.76270699484775,646.637487451504 204.1501802094416,638.3418801765648,C 222.53765342403545,630.0462729016257 238.58522816792592,616.6318746778322 250,600,C 260.86864303404496,620.6853717653984 278.91078033004186,637.5084964213396 300.295024472364,646.9279501706711,C 321.67926861468607,656.3474039200026 346.23722359801496,658.2961178823022 368.8856446276055,652.5462455932303,C 391.5340656571957,646.796373304159 412.09936692035393,633.4397878946846 426.95932843301426,615.4066641964323,C 441.81928994567454,597.37354049818 450.9396807834455,574.857349414349 453.8199318302842,551.6686418095384,C 456.91316657139,526.7652167961935 452.9393129017782,501.26266194631717 444.2777134561859,477.7100533094168,C 435.6161140105936,454.1574446725165 422.4185831966574,432.4834623546161 407.38496938582716,412.3902014359476,C 377.3177417641494,372.20367959860977 340.3175156528329,337.5892945428962 310.3727112667273,297.3114668393757,C 287.31075292152866,266.2915418882145 268.39669591355846,231.87859083410655 257.5670237059711,194.77322913842215,C 246.73735149838376,157.66786744273776 243.99672373650597,118.18442536945557 250,80M 250 , 80C 263.9814119273704,125.37991933559721 263.7685269277615,174.82968226363187 250.55243522949638,220.4383643166267,C 237.33634353123298,266.04704636961884 211.2599224751171,306.83557532776905 182.32858130639724,344.4891867955549,C 157.9553843119155,376.2104569746998 131.41764981062994,406.8331473536116 113.90448146748547,442.7995295471935,C 105.14789729590987,460.78272064398607 98.80514602761356,480.0872676865409 96.78791324766924,499.9871094017195,C 94.77068046772492,519.8869511168982 97.20544502631337,540.3686060258665 104.97596397349923,558.7993402399197,C 116.2793291497985,585.6095598281671 139.49328794232008,607.4597443104165 167.41438649078063,615.6430318237556,C 195.33548503924112,623.8263193370946 227.05275296484686,617.8879230819698 250,600,C 259.29844670568616,623.0140635811109 277.73915101595054,642.1788456676273 300.36353711805936,652.3889087015467,C 322.98792322016817,662.5989717354661 349.50270480028956,663.740602011788 373.010604930015,655.7727374832737,C 396.5185050597412,647.8048729547619 416.74403935611826,630.917443827109 429.43734350931584,609.5869899330092,C 442.1306476625134,588.2565360389095 447.3066961180993,562.8060955844101 445.45396677678985,538.0538102830131,C 442.5535647273169,499.30471865019626 423.03884950871054,463.5156085229998 398.6964705417691,433.2277723400231,C 374.3540915748263,402.939936157047 345.3466520911027,376.7630438211342 319.2230149640055,347.997439053134,C 286.4421605813106,311.9013511867192 258.2340475612755,270.5041486964602 244.7223647484802,223.6538936183307,C 231.21068193568686,176.80363854020138 232.71947911834337,125.59490729651662 250,80M 250 , 80C 249.29253435170529,128.1046748207644 238.95600158710118,175.933405355963 220.77060078561217,220.47385264765734,C 202.58519998412382,265.01429993934937 176.3656635610056,305.72344743073165 150.19402090416114,346.09181831558664,C 128.88227249578057,378.9640600481568 107.5628221170785,412.5432102293191 96.24147856808817,450.0479042954273,C 90.5808067935917,468.80025132848243 87.56090235756935,488.4587173593283 88.62933319515582,508.0176585303633,C 89.6977640327423,527.5765997013982 94.94588267542423,547.0050927842169 104.73600397088377,563.9711544723903,C 118.7465071170884,588.2510437083968 142.4266168992031,607.0143998275906 169.58845919438525,613.945600506709,C 196.75030148956736,620.8768011858274 226.79068940451938,615.7205318423095 250,600,C 280.7921209199872,620.3330657740536 321.731406788165,624.1835993682156 355.8975150203123,610.2456898121776,C 372.98056913638595,603.2767350341586 388.32828509301936,592.1673528214208 400.46155537869305,578.2684024723634,C 412.59482566436674,564.369452123306 421.4982138057454,547.7324463691172 426.771935932065,530.0523750014687,C 438.2048239393781,491.72379585642125 432.08214724508326,449.8645422896646 417.3079144880736,412.695832950926,C 402.53368173106287,375.52712361218676 379.9842654049026,342.04670669973945 357.81335097299814,308.7564459509982,C 310.7756870348801,238.1280511537896 268.34511441385325,162.85148615159733 250,80M 250 , 80C 252.58148747542123,118.34883426041522 247.50488568718583,157.1585541846435 235.5005854973117,193.67148263019467,C 223.49628530743763,230.18441107574586 204.54321653878944,264.1496067819612 182.04725015648094,295.3141485441081,C 149.8811143458492,339.87515409333724 110.09768033653877,378.8110420394626 80.76923885110423,425.2888434997499,C 66.10501810836182,448.52774422989694 54.27157538320476,473.85386410477133 48.8137572557132,500.78522312032663,C 43.355939128221635,527.7165821358819 44.55742293284439,556.2872360832231 54.50079059969002,581.9039360381244,C 61.97397178496701,601.156793474923 74.35479839314878,618.5618453679159 90.47773476844065,631.4681182283493,C 106.60067114373253,644.3743910887828 126.4158946467254,652.6806344784048 146.9569809348465,654.8218328843527,C 167.4980672229676,656.9630312903005 188.65983209814712,652.9067555616855 206.9007969622692,643.2223269602897,C 225.1417618263913,633.5378983588939 240.37222432559625,618.2709302465153 250,600,C 262.63121813189684,618.0411698551079 281.44647090047454,631.6606900283231 302.52319084168124,638.048440630558,C 323.599910782888,644.4361912327931 346.77586939124853,643.5496871099556 367.37203965835795,635.750376142655,C 387.9682099254673,627.9510651753551 405.83495988410186,613.3454088753693 418.01971285280314,594.9997479080417,C 430.2044658215044,576.6540869407141 436.69971924913256,554.7521311880803 437.535609765376,532.7445695720979,C 438.88761952247273,497.14847480067493 425.66273685906066,462.2915246951937 406.84733039426555,432.04436990463597,C 388.0319239294698,401.7972151140783 363.9916093839148,375.2185213247774 341.22676418718623,347.8201323843959,C 310.01326921149706,310.25346025716794 281.19087662534236,269.86051685228176 264.07637142675844,224.11523474450956,C 246.96186622817686,178.36995263673862 241.65785239279396,128.1242734658032 250,80M 250 , 80C 252.53228791103825,128.43660145260512 243.82593242554563,177.31339169073283 225.59949237608865,222.26129181372465,C 207.3730523266323,267.20919193671557 179.60459350091028,307.6323020635845 149.62690792846493,345.7617553780814,C 122.00070035545777,380.900298324165 92.28674450436519,414.9817030802021 72.01586619296761,454.8190729447546,C 61.88042703726579,474.7377578770312 54.270182468705556,496.0934549897534 51.244767081664875,518.2368060921971,C 48.219351694624194,540.3801571946408 49.90609987849453,563.3139131238506 57.468780004584985,584.344533790409,C 64.47291298000151,603.8219229233819 76.55721441978328,621.5396010593414 92.5784728526693,634.6447849344821,C 108.59973128555532,647.7499688096228 128.50417943442537,656.123507351595 149.1114075484019,658.0648253660133,C 169.71863566237843,660.0061433804314 190.9060014574307,655.4770171387188 208.85557251800466,645.1697641139806,C 226.80514357857862,634.8625110892424 241.41338245804388,618.8333896408145 250,600,C 273.52166907938204,613.962837066054 302.40857511735135,618.5637810501133 329.1276653024962,612.7054574937343,C 355.8467554876411,606.8471339373554 380.0115796721896,590.6607253112954 396.28037367502714,568.6708167870117,C 411.3253292846951,548.3351239537997 419.65433931598176,523.3933926578429 421.50549747263767,498.1651484505526,C 423.3566556292935,472.93690424326223 418.94594090440995,447.50433313945103 410.84522976949427,423.54041085172264,C 394.6438074996604,375.61256627624 364.8253537242471,333.7159881471232 337.70583474661424,291.00655055261836,C 296.57392819531213,226.2295684297325 262.70456502524246,155.67354344163562 250,80M 250 , 80C 257.9018100033183,119.5330747636279 256.2252348235518,160.87695045637605 245.67283898618695,199.7864549981548,C 235.12044314882223,238.69595953993343 215.6948355162333,274.75645978104154 192.31841114202223,307.6022416269942,C 162.0204373577995,350.17336462512185 124.66327153363198,387.9720149166147 99.83957250594605,433.95083281501246,C 87.42772299206975,456.94024176423574 78.44416089021475,482.1134450251826 76.5210015191984,508.16854798455336,C 74.59784214818208,534.2236509439241 80.08547855227762,561.1051951247167 93.99416266681317,583.2211495104493,C 110.13060501577579,608.8794231471456 137.87355064890562,627.2362224931479 167.98665335758596,630.690614328688,C 198.0997560662663,634.145006164228 229.60290287154226,622.4207539219634 250,600,C 258.3489450659723,623.7766154138025 276.07809175409676,644.108746867765 298.4806614705933,655.6481226891863,C 320.88323118708985,667.1874985106076 347.6765872408272,669.8067788491503 371.9630942997184,663.0838405682408,C 396.24960135861,656.3609022873337 417.7466472884082,640.4657554527994 431.9134402773121,619.6250668686853,C 446.0802332662159,598.7843782845712 452.9093836705697,573.3176611875555 452.54769181858705,548.1204092886937,C 451.9806778852696,508.6194008209739 434.2643700761085,471.08434474661544 411.0104362667303,439.1483816774279,C 387.7565024573509,407.21241860824074 359.25762424321067,379.5250408549332 333.20464965326346,349.8283459246375,C 300.80961422549086,312.90260137929283 272.165572405234,271.74796704489023 256.4377032713376,225.2121414574815,C 240.7098341374428,178.67631587007318 238.08891629633493,127.65579729265781 250,80M 250 , 80C 231.2407561669466,161.64202200752055 189.16837122898167,236.06626400889144 139.7911176825313,303.736167355017,C 109.62320616772769,345.08029870571636 77.19133018051113,385.56651228604966 56.79351188191754,432.50657077521714,C 46.59460273261447,455.9766000198033 39.64160974632406,481.05294510876035 38.43528715899168,506.6147292091075,C 37.22896457165931,532.1765133094547 41.95016910400193,558.2012281831493 53.5746069828964,580.9988698282228,C 62.581218261459576,598.6624763186378 75.69616301358113,614.2748121708456 91.82014338480592,625.8134125174964,C 107.9441237560307,637.3520128641472 127.03865887941208,644.7529008188171 146.7541464381267,646.8556588394994,C 166.46963399684122,648.9584168601815 186.73758719218804,645.7431879570993 204.7983637897989,637.5620884183721,C 222.8591403874098,629.3809888796449 238.65435757977502,616.2603333005128 250,600,C 278.54170169978937,613.7772810652643 312.984063623204,614.6217234017043 342.24337268341617,602.4424359516918,C 371.50268174362833,590.2631485016791 394.928433548703,565.4643185960427 406.86216208999804,536.1039995825557,C 415.2528849227512,515.4604682443904 418.2152140505587,492.79386123916504 416.68860814591096,470.5625974384318,C 415.1620022412632,448.33133363769855 409.25932659517053,426.5449730237612 400.87597105889967,405.89844872260164,C 384.109259986354,364.6054001202782 358.0593369349035,327.884113647123 334.1303397255232,290.2856887383913,C 293.2448993399705,226.04446096165148 260.25575927045287,155.45444972677268 250,80M 250 , 80C 225.46577633546732,161.81055599585366 182.21924490190818,236.47927355890135 137.09174413303393,308.99412636525597,C 111.56369940184373,350.0148426596778 86.06073484048186,392.160696319975 74.72095368137047,439.1265306718584,C 69.05106310181135,462.6094478478051 67.16407668079556,487.17786910517896 71.01139000001993,511.0272556486577,C 74.8587033192443,534.8766421921364 84.59625361641935,557.9228351040518 100.07402997952799,576.4709750951706,C 117.83649960257361,597.7570284291273 143.21705897190532,612.7222895893935 170.58495371209764,617.1494479483661,C 197.95284845228997,621.5766063073386 226.91931492641953,615.3584950493162 250,600,C 257.48646519595724,623.4330924638947 273.9076726776949,643.8838122887122 295.1559635010565,656.2800665873932,C 316.4042543244181,668.6763208860742 342.2453253872631,672.8951828113308 366.37743195129605,668.1204140908712,C 390.5095385153287,663.345645370413 412.67834083720123,649.6980207686582 428.29217290463714,630.6884118373413,C 443.90600497207305,611.6788029060243 452.9222192390482,587.5796379202303 454.8440560290621,563.0548845697022,C 456.8032082349089,538.053945429484 451.57636652074984,512.7809501594502 441.7506713854267,489.70843511738656,C 431.92497625010355,466.6359200753229 417.65184906477157,445.67815831780985 401.67532898957563,426.3484909242557,C 369.72228883916495,387.68915613714904 331.2535115521958,354.70103991770486 300.3922334600028,315.16469644044736,C 274.6629655484006,282.20296457265863 254.2989856794782,244.54332020180232 244.88198260062472,203.80278697009476,C 235.4649795217714,163.06225373838723 237.07102570152773,119.76572165295687 250,80M 250 , 80C 265.00039571348384,123.60025948868875 266.45887869478867,171.61968833931462 254.9346194666347,216.26479947462715,C 243.41036023848127,260.9099106099393 219.06213781914016,301.39019252879064 189.73762460136075,336.9720337344159,C 158.4831109832815,374.8957029956423 121.42303079401307,408.0983923354596 93.61449469599954,448.6167169778121,C 79.71022664697941,468.8758792989887 68.29134500353382,491.0934524740207 62.34024741164817,514.933476915842,C 56.389149819762515,538.7735013576633 56.12539063382233,564.2720724714521 63.50352622215135,587.709765258393,C 69.68026981823726,607.3310662083976 81.23686928227005,625.3277006790307 96.97814428476175,638.5700521967323,C 112.71941928725346,651.8124037144338 132.58496521675482,660.1618010425168 153.09176003214512,661.7801269744365,C 173.59855484753547,663.3984529063558 194.60249143238136,658.2431557094786 211.9593010714955,647.2028309147094,C 229.31611071060965,636.1625061199401 242.90606698690098,619.3086438371033 250,600,C 276.5876216494332,614.934411896839 309.9135764225944,617.15793266774 338.32200991793354,606.0719419578959,C 366.7304434132726,594.9859512480517 389.49033091052837,571.0297895770228 400.5528253545301,542.6121981879855,C 408.82845264502555,521.3535755491487 410.8468521638587,497.9093663217452 407.87387056707695,475.29131105660673,C 404.90088897029517,452.67325579146825 397.0970066697388,430.8826499395603 386.84425445687884,410.503834576214,C 366.3387500311491,369.74620384951066 336.7279712043137,334.39050587082005 311.57314060152163,296.32615678203666,C 290.46700475969,264.3883021693428 272.3332426901532,230.19767327939996 261.2793230720827,193.54652884279807,C 250.2254034540123,156.89538440619623 246.20701866204146,118.09342226691257 250,80M 250 , 80C 257.97155424204914,119.54860254444631 256.33648434846185,160.9292738873405 245.79388644412376,199.87142675129968,C 235.25128853978583,238.81357961525873 215.80484466149687,274.9011070912033 192.38596758220908,307.7521928662232,C 162.00372936761087,350.37120957849675 124.51441312435803,388.1660532033127 99.55591604097111,434.1718616169055,C 87.07666749924383,457.17476582372643 78.02498280219145,482.37182125925466 76.04901320440887,508.4670466896475,C 74.07304360662627,534.5622721200403 79.5251935435991,561.501049506299 93.43041181002211,583.6710777218317,C 109.61347979914366,609.472835526562 137.52813629054714,627.9125149800918 167.79742119105111,631.2878352562456,C 198.06670609155506,634.6631555323993 229.68693198392396,622.6936480788955 250,600,C 262.2690066020108,617.9173433791024 279.9247399770397,632.0915042399047 300.06453862817233,640.2123556150182,C 320.2043372793049,648.3332069901317 342.7345810775281,650.3647784242219 364.027335414525,646.1011731998669,C 385.3200897515217,641.837567975512 405.27336360777866,631.3223236174862 421.06666526582313,616.4182523782962,C 436.8599669238676,601.5141811391063 448.45351539688136,582.3284259700441 454.95678536643226,561.6096616133558,C 462.5016479592829,537.572487868951 463.2264124798338,511.6509428243212 458.7272569328544,486.8624722678753,C 454.228101385875,462.07400171142945 444.6614536475686,438.39929875428794 432.5261214300474,416.3211560530983,C 408.2554569949952,372.16487065071374 374.44954632435633,334.1385306091286 344.4083144130753,293.68649632272496,C 297.4580914718582,230.4656525909577 261.0041860917939,157.97503706215014 250,80M 250 , 80C 233.91839638047182,157.95588348689358 195.7445613743468,229.76836719768428 149.31906050299438,294.4244621465892,C 117.66562367757626,338.5077262671983 82.5246120872389,380.9337976272942 60.84443301142847,430.685622454419,C 50.004343473510204,455.56153486798894 42.82828426818819,482.2861288858383 42.31274460067365,509.41642152062036,C 41.79720493315912,536.5467141554024 48.191869588537116,564.0354113542004 62.33296499249061,587.1945991718674,C 71.98896255206947,603.0084420645852 85.18207912846967,616.6959429040825 100.83175793218999,626.6157951835544,C 116.48143673591032,636.5356474630263 134.55461575218783,642.6423329523834 153.0291694573639,644.0589420377423,C 171.50372316253996,645.4755511231012 190.3278238811183,642.1897126028018 207.20157713447782,634.5351474909947,C 224.07533038783734,626.8805823791877 238.95546414590132,614.8773029704206 250,600,C 258.47254198980926,615.3983111544267 271.4536731120277,628.278706765839 286.91252901169514,636.6402693262064,C 302.3713849113626,645.0018318865737 320.24465911959834,648.8112003128242 337.77537764217766,647.5598561316677,C 355.3060961647569,646.3085119505113 372.41834148162513,640.015639581442 386.71298692030973,629.790422421894,C 401.0076323589943,619.5652052623462 412.4427585418159,605.4767317465092 419.9047595728969,589.5641425546221,C 430.7155608067117,566.5102943773966 433.04634937663866,539.9497682490962 428.5770560783585,514.8822842008402,C 424.10776278007836,489.81480015258427 413.15489282036174,466.2376254748815 399.25125499658435,444.90590743903533,C 371.4439793489924,402.24247136729656 332.75051868222204,367.8997328384452 301.08973792056685,328.0122872201694,C 273.55970346066755,293.3289115745924 251.18919493822116,253.81257735922097 241.33367502649253,210.64189204146203,C 231.47815511476443,167.47120672370312 234.27657980566366,121.39581380922192 250,80M 250 , 80C 262.40793399920386,126.87249575441723 260.3866458011272,177.25311506128588 245.51979199951484,223.4046517899577,C 230.65293819790458,269.5561885186255 203.0700852632235,310.47188797717905 173.38005224455284,348.80581060096324,C 151.75067245907843,376.732319492866 128.98832112839054,404.1567950042755 112.79481106593312,435.5493132315682,C 96.60130100347426,466.9418314588609 87.69221102769079,503.38883779279234 95.27504921311728,537.8884107444609,C 98.8393694989285,554.1049677533877 105.97112948414018,569.5787736444054 116.35163984782656,582.5374041628288,C 126.73215021151296,595.4960346812524 140.34733290222934,605.8788646798351 155.68290745803148,612.242924183568,C 171.01848201383356,618.6069836873007 188.0253869020013,620.9194624202605 204.49265676909562,618.7957572976264,C 220.95992663618995,616.6720521749924 236.8360531433261,610.1188736269547 250,600,C 257.40636859432146,618.1532876049635 270.7004980578035,633.8469534608541 287.38110814157113,644.1500303729605,C 304.0617182253387,654.4531072850668 324.0286057038877,659.3069190292798 343.5858216803348,657.9243670866495,C 363.1430376567817,656.5418151440191 382.1695336051197,648.9562428661662 397.5100672168796,636.7470588176752,C 412.8506008286395,624.5378747691842 424.4491116336521,607.8193228149707 431.0954952333262,589.3742223362678,C 439.6275525396827,565.6959840965258 439.9770413418033,539.4731996733032 434.14489456286196,514.9897147913298,C 428.3127477839206,490.50622990935636 416.5635796065308,467.7286088776199 402.18654520922354,447.07053902693974,C 373.4324764145768,405.7543993255556 334.91385708445034,372.2646623740145 303.0910373710223,333.2630211578012,C 274.4224340856526,298.12714729195636 251.07840715908162,257.85114712095384 240.81184843776828,213.6808378773874,C 230.54528971645544,169.510528633821 233.52376454249762,122.24869361056497 250,80M 250 , 80C 229.63132613786078,167.06079909963233 184.27339129742202,245.8937764742422 135.00427159086811,320.5062382893438,C 108.3771070068091,360.8300417712284 81.29917123761054,401.975337057572 68.23075616720574,448.4966391522021,C 61.696548631998915,471.7572901995223 58.915945101284485,496.2552690812927 61.983125040780294,520.2207893651736,C 65.0503049802761,544.1863096490545 74.13560223947182,567.5396636256851 89.21067743736877,586.4207616614483,C 108.09980019040168,610.0788445451243 136.58421206622086,626.1046599860357 166.73499667825186,628.831202006424,C 196.88578129028286,631.5577440268122 228.028991328448,620.8273527377969 250,600,C 263.1586593873228,616.6060377255548 281.8076533895208,628.7806484706299 302.2991353079334,634.166739316642,C 322.790617226346,639.552830162654 344.9871492544835,638.1189376058456 364.67683378951915,630.2941610131945,C 384.3665183245547,622.4693844205437 401.4233372029008,608.3435780987704 413.16089542810636,590.7044020203924,C 424.8984536533119,573.0652259420143 431.30616396848745,552.068672334983 432.3135416100211,530.905118850243,C 433.35102103771214,509.1091701890871 428.7724525692127,487.2410016408424 420.5133345854542,467.04380600053184,C 412.25421660169565,446.84661036022123 400.414241849185,428.26762459616504 387.074519987263,410.999400534346,C 360.3950762634115,376.4629524107085 328.01151753099737,346.68061317957165 300.9720042441677,312.4253407733825,C 275.2924165968275,279.89290349142266 254.48778866262418,242.90834819905837 244.83351001451894,202.60207572160368,C 235.179231366414,162.29580324414903 236.77428088559128,119.27952457895636 250,80M 250 , 80C 227.1601527116198,156.532266770869 188.42891237598064,227.1799925042058 147.40122225051255,295.704259185525,C 123.29390631056673,335.96819170007376 98.93890307818536,376.9639698209561 87.08164062481721,422.3704921550487,C 81.15300939813048,445.07375332209796 78.55406527956542,468.79405423237256 81.11925175956087,492.11800231506516,C 83.6844382395563,515.4419503977578 91.5439134741085,538.3132473886113 104.9040825033544,557.6029498059963,C 120.47535493097594,580.0850913665779 143.6138085726925,597.3759329464265 169.82794589302924,605.1688925071943,C 196.042083213366,612.9618520679621 225.01894481256446,611.1291552189524 250,600,C 273.133960714402,615.583945343452 302.91520729541355,620.854534360972 330.02729888153044,614.2990800953086,C 357.1393904676473,607.743625829645 381.01786896664106,589.5886538458309 395.56369657564983,565.788267505013,C 406.086526993452,548.5704483423899 411.8889907080752,528.6417829788668 413.28872102499025,508.5116063338762,C 414.6884513419053,488.38142968888565 411.78527094237035,468.0861912381311 406.1018441652576,448.7243236425759,C 394.7349906110309,410.00058845146157 372.8602528176144,375.3296146373109 351.0560535639403,341.36919765252026,C 325.48020666711227,301.53437431182425 299.9016493158816,261.385163199516 281.6585533404211,217.7030553714294,C 263.4154573649616,174.02094754334422 252.31759544489813,127.28177076239929 250,80M 250 , 80C 228.34007357588752,163.90063881234812 183.70513988249257,239.7121540657938 136.06157052808845,312.0900505880757,C 114.4821633928212,344.8724830928768 92.94167523693048,378.12622326072744 79.11266397548754,414.85655324525584,C 65.28365271404368,451.58688322978435 59.99085949690225,492.66310105303177 71.39352709306355,530.217566365867,C 76.79942210117149,548.0217770783803 85.85656802382778,564.7575217388534 98.15646381122507,578.7191184796787,C 110.45635959862234,592.6807152205041 125.98323647917653,603.8162716980695 143.24158798485655,610.7706173351983,C 177.75829099621654,624.6793086094556 219.02650692986998,620.6275836387018 250,600,C 257.31887150298013,624.9546397326192 274.955226353852,646.702577838561 297.8415405725459,659.0523367732594,C 320.72785479123974,671.4020957079578 348.52356764647783,674.1941561153424 373.4947978677848,666.9320912921371,C 398.46602808909296,659.6700264689354 420.2770610683476,642.5649930395579 433.9975245919693,620.4731663844593,C 447.71798811559097,598.3813397293608 453.35988286899294,571.6822512867393 451.399819285492,545.7504546846798,C 448.3175590454797,504.971907350161 427.1712211896912,467.52465082809374 401.1008709934894,436.0170788564526,C 375.03052079728576,404.5095068848123 344.1657401440509,377.31881841818085 316.7925480299995,346.9362805981103,C 284.36705829840173,310.94600719485 256.8938175764897,269.4264717882182 243.9214662516341,222.75281470973442,C 230.9491149267798,176.07915763125072 232.76964898377366,125.27501703846141 250,80M 250 , 80C 264.7591705366462,123.37147182529331 265.9259203219017,171.09345769415535 254.2964675151438,215.40681358870938,C 242.66701470838714,259.7201694832621 218.38546003850527,299.73000522140745 190.38335027523814,335.9901697553393,C 163.9180694161983,370.26028177540957 133.92020931405557,402.33059900383364 113.90511287873971,440.72653086517846,C 103.8975646610741,459.9244967958552 96.58175854559319,480.722221490623 94.35445007926694,502.257123723978,C 92.12714161294072,523.792025957333 95.17032514566142,546.0428586850618 104.47431648451982,565.5914817151059,C 116.86639303985139,591.6284828597362 140.86332913864317,612.1801902547287 168.87277978965844,619.0329024321821,C 196.88223044067362,625.8856146096356 228.006410337009,618.648619350897 250,600,C 271.98834305992045,618.2297405735987 301.94384618215497,626.4290096002321 330.1721117065799,622.0728992499284,C 358.4003772310049,617.7167888996245 384.2875644454894,600.9887367683341 400.7291923294057,577.6331476208027,C 415.997451620598,555.9443468815582 423.18856087456675,529.0852026361229 422.9214340809545,502.5625243670289,C 422.65430728734225,476.03984609793497 415.25776029917824,449.9364618292703 404.1818412427862,425.835676855623,C 382.03000312998813,377.6341069082599 346.45822371582506,337.09033465947374 317.0553332155432,292.93645252670336,C 296.0702289415959,261.42343442236813 277.9264320077188,227.79213834915228 266.0753611056838,191.83387045555733,C 254.22429020364882,155.87560256196244 248.61762778190416,117.83561759087902 250,80M 250 , 80C 262.44183208256396,120.43115891402587 263.1058399800263,164.29654982008782 252.62506440482423,205.27985300619252,C 242.14428882962264,246.2631561922969 220.60527765262623,283.70410450991864 194.87667760753416,317.2826234829404,C 169.65159395938986,350.2040007980981 140.36850142493765,380.0658916298091 117.69109049721725,414.79134285795243,C 106.35238503335385,432.1540684720237 96.76802270192175,450.80306828269994 90.90087085505982,470.6929403675485,C 85.03371900819788,490.58281245239704 82.98782980382762,511.74270830906926 86.3072608750755,532.2124874898276,C 89.18431517391528,549.9542826722504 96.12210157262294,567.0879387564623 106.84840776444146,581.5099737450785,C 117.57471395625998,595.9320087336946 132.07561536974282,607.564109148302 148.59403837866927,614.6486302352693,C 165.11246138759572,621.7331513222364 183.58605391622694,624.2263240076425 201.37729001621037,621.6727665345945,C 219.1685261161938,619.1192090615466 236.21037513631785,611.5280086681278 250,600,C 259.7209712047722,615.7125345750512 273.8168324432465,628.6850499333727 290.27617112545624,637.0797622024444,C 306.735509807666,645.474474471516 325.50228006949817,649.2630968348461 343.934809913932,647.9891786780382,C 362.3673397583658,646.7152605212303 380.39831076033255,640.3951855419639 395.7136424274953,630.0597300676759,C 411.02897409465805,619.7242745933879 423.58898009075995,605.4337125534433 432.2472345057782,589.1114683933713,C 445.4274051607233,564.2646628839057 449.360245742772,535.0608057998313 445.68972239614004,507.17518404092993,C 442.0191990495081,479.2895622820285 431.10821971795946,452.7309984891282 416.88605229923394,428.4655787228759,C 388.4417174617341,379.9347391903051 347.8705391903245,339.7339497336838 315.446545681829,293.7664915154509,C 293.5160965802306,262.6757191057845 275.085054047149,228.87916209095252 263.5130838056941,192.63457309399524,C 251.9411135642393,156.389984097038 247.20368913077974,117.94418759639152 250,80M 250 , 80C 237.83870727375094,156.6813506272823 201.75995687528257,227.6951006339777 156.95171565396817,291.09973842531144,C 131.1295303771423,327.6386933102233 102.9616982663265,362.87580666840586 82.8397788252501,402.83814937449824,C 72.77881910470987,422.81932072754444 64.86555326164925,444.00494938064196 60.95176730184773,466.0311246863773,C 57.03798134204622,488.05729999211275 57.21979696094061,510.93667387312473 62.75762515593933,532.6116035851401,C 67.66887815431988,551.8341326686398 76.81588719431944,570.0251518129016 89.7489313631619,585.0704965715591,C 102.68197553200436,600.1158413302167 119.38166674215991,611.9426629968981 137.96915792506886,618.8803284475648,C 156.55664910797776,625.8179938982314 176.9711440560252,627.8288128344161 196.53802940365995,624.5481073961594,C 216.1049147512947,621.2674019579026 234.76211278784183,612.7056217356585 250,600,C 257.82940567551674,624.5194802715137 275.6957877432054,645.6599147692336 298.54941247422533,657.5012129527386,C 321.4030372052453,669.3425111362435 348.915239924296,671.737174377938 373.5579855876865,664.3048401425575,C 398.2007312510781,656.8725059071802 419.6537276030128,639.8190727242834 433.1554784014629,617.9054415465548,C 446.6572291999131,595.9918103688262 452.22041536420664,569.5831564643039 450.32275619565394,543.9140428119595,C 447.3630503574482,503.87891595816603 426.94364944500484,466.98693528279927 401.6075706024939,435.84766185302715,C 376.2714917599814,404.70838842325577 346.1683877530652,377.8070419011441 319.2633345228909,348.012925845628,C 286.6288074866407,311.8741054680294 258.7374286095315,270.36629039513736 245.3026240671701,223.56316314841783,C 231.8678195248102,176.76003590169844 233.18471788278305,125.69762554534344 250,80M 250 , 80C 240.21623372372318,155.71374318590932 207.0692294551251,226.72994664138758 164.3571511236115,290.00688836879164,C 133.73631015380374,335.3709456888739 98.57174015151718,378.56919508552494 78.30139163965598,429.40861452994477,C 68.16621738370482,454.8283242521773 62.11520731453275,482.17658690843916 63.440996458066905,509.51018679407343,C 64.76678560160106,536.8437866797077 73.7841476107528,564.0556687796662 90.71831362639581,585.5525853240383,C 109.28403418689813,609.1206633212809 137.42817560043662,625.1598435370599 167.29192855674594,628.0402150025644,C 197.15568151305524,630.9205864680689 228.08107274617473,620.4866031458678 250,600,C 259.45807198562187,614.0155527179334 272.67748895213737,625.4656093493994 287.89570314328023,632.8342456212526,C 303.1139173344231,640.2028818931059 320.28596933469635,643.4682734040563 337.15132465963796,642.2638509541506,C 354.0166799845795,641.059428504245 370.5215156692134,635.3978208750401 384.67247937975924,626.1435748367512,C 398.8234430903051,616.8893287984623 410.5871471925356,604.0897247291373 418.92027372607185,589.3774901656712,C 432.3826490115912,565.6095055821085 436.62745915789003,537.2039944231337 433.15207763863094,510.1101876993041,C 429.67669611937185,483.0163809754745 418.87262965642,457.2577690789796 404.7521127735356,433.87479145736734,C 376.5110790077161,387.1088362140556 336.1132807710093,348.95914072179863 304.27663018575106,304.5627643213111,C 281.12842162768607,272.28246594668735 262.3139813825212,236.51908786417204 252.40507218471018,198.052599317491,C 242.49616298689924,159.58611077081 241.50288882446347,118.80278758379319 250,80M 250 , 80C 264.01951296124247,126.78047106120894 263.1618598873185,177.7309854906766 248.55762726201243,224.33222587980143,C 233.9533946367075,270.9334662689253 205.83118548406765,312.2499462512037 173.4316617464747,348.79074643341215,C 146.60733192517478,379.0437366921685 116.8463866977186,406.7596974042198 92.22656491366551,438.8323097904873,C 67.60674312961106,470.9049221767536 48.36870274635578,508.8369316480053 46.99370207204839,549.2460576358801,C 46.121417704939354,574.8811351645253 52.68501532941926,600.9469731024734 66.91706059518667,622.2863022266492,C 81.14910586095407,643.625631350825 103.04626280720794,659.889662045598 127.80426038494186,666.5948567376014,C 152.56225796267876,673.3000514296051 179.870264734443,670.2608019777933 202.41412521588947,658.0259160155141,C 224.95798569733594,645.7910300532347 242.42878399998148,624.507035075626 250,600,C 265.34034776212957,610.7495946671916 283.40937814683593,617.5687112860237 302.0256256255046,619.6460617102302,C 320.6418731041732,621.7234121344368 339.75746899839027,619.0530741327896 357.1252236059838,612.0358699272387,C 374.4929782135773,605.0186657216877 390.0662433894414,593.684427344966 402.2692695778698,579.4729458311858,C 414.47229576629815,565.2614643174056 423.2888875221011,548.2294636913706 428.30990660864586,530.1831504306367,C 434.1765308443812,509.0976024738876 434.87448884127815,486.7299369099692 431.5552622597457,465.09662122651156,C 428.2360356782132,443.463305543054 420.99177241079985,422.5564635398195 411.59475898965167,402.7899830406906,C 392.80073214735216,363.25702204243095 365.93039622264104,328.2336892465777 341.1512934543488,292.1495304474952,C 297.17026743942984,228.10288833501914 261.5885168894269,156.82453573899443 250,80M 250 , 80C 244.8092751453537,155.53853607264682 214.2997616001586,227.31920678476453 173.8791144041068,291.3440873919747,C 148.17616308755893,332.0566564241611 119.084781594903,371.2313584723514 101.51591355615167,416.0586923147551,C 92.73147953676833,438.47235923596315 87.06050859087885,462.30325056123866 86.9627240201877,486.37666295070875,C 86.86493944949655,510.45007534017884 92.52731092658367,534.7222134549927 104.66260923365516,555.5133962230351,C 118.76540467021509,579.6754555348226 141.7788740160918,598.6923702139429 168.48342582875895,607.0326856633949,C 195.1879776414261,615.3730011128469 225.1404076635572,612.8333401021583 250,600,C 259.39395377265396,616.3249656114964 273.4825078112937,629.9108003397615 290.13268358001966,638.7154875329463,C 306.78285934874555,647.5201747261311 325.9306668587367,651.5105824203488 344.718082408974,650.1749602275108,C 363.5054979592112,648.8393380346729 381.8557288114813,642.1970651284578 397.2809599743307,631.3890535966377,C 412.7061911371801,620.5810420648176 425.16324499152745,605.6770604264602 433.47831027502554,588.7770438871055,C 445.82962747632155,563.6735169912946 448.86526232289935,534.5286740442901 444.4352291285645,506.9041033668511,C 440.0051959342297,479.279532689412 428.469618491059,453.1675046779921 413.7786876083041,429.35745114983195,C 384.3968258427398,381.73734409344905 343.417638226372,342.3892111847845 311.0200203214067,296.7672564814186,C 288.7540820016642,265.41261700046886 270.3505298687521,231.0429032124267 259.4674926837473,194.15869347616268,C 248.58445549874256,157.27448373989867 245.20838879777068,118.15659691751321 250,80M 250 , 80C 242.67091596274608,125.592656789389 228.40584102398267,170.0028919860816 208.49624153220103,211.66838939121283,C 188.58664204041963,253.33388679634362 162.87678074276562,291.9186440319651 136.70236287541158,329.9621148941937,C 109.9145545250084,368.89712432233455 82.3128303565064,408.2983278704784 67.80961257746618,453.27808231001575,C 60.558003687941586,475.76795952978836 56.81694218833591,499.56753841106536 58.70126893972063,523.1223621535835,C 60.58559569110535,546.6771858961016 68.26105459769552,569.9254623079153 81.95589994206892,589.1824511649711,C 100.72513606979504,615.5747879806235 131.21592347813254,633.6534151906973 163.51898123870154,635.96688157829,C 195.8220389992705,638.2803479658828 228.92034419222333,624.5863331636672 250,600,C 260.25149007644086,621.8282508866399 278.87798357815797,639.5864240018296 301.1578037791393,648.8154649796022,C 323.4376239801206,658.0445059573749 349.11502298894123,658.6534185566053 371.8918665922449,650.7299735338828,C 394.668710195549,642.8065285111622 414.3062821680704,626.5168168472585 426.90419028736466,605.9532982627538,C 439.5020984066589,585.3897796782492 445.06773205255865,560.8358082315433 443.9537818581953,536.7458787895146,C 442.2217286540113,499.28905200345827 424.8291800484162,464.07604050076725 402.40686356231635,434.0218626783759,C 379.9845470762155,403.9676848559849 352.7669867346525,377.87914103498923 327.78323681417123,349.91798724810803,C 295.0164736296274,313.24629034842394 266.0889932888564,272.0497309507448 251.09876056670186,225.21206399315685,C 236.10852784454963,178.37439703556944 235.328723219655,126.9385530319019 250,80M 250 , 80C 229.1834005351744,161.07272404640668 187.182896059368,235.02169452404473 139.66707162503735,303.93006720770086,C 109.91342523469,347.0793838526716 78.42728371178072,390.17916685957823 61.689056352058266,439.8478163812233,C 53.31994267218842,464.6821411420545 48.943017074058865,491.0901799509501 51.161338604596885,517.2027209935252,C 53.37966013513491,543.3152620361003 62.41750958146695,569.0460242054021 78.4124721481588,589.8052853339477,C 98.35952386929863,615.6938145316258 129.3742945685836,633.0729945823331 161.9853392158257,635.2225488152943,C 194.59638386306776,637.3721030482556 227.92403332407508,624.0988072673381 250,600,C 272.8047017760102,616.376627385415 302.0847783006377,623.4196105529281 329.85918721383655,619.3171043511161,C 357.63359612703533,615.214598149304 383.4663583885208,600.0835874786125 401.31305474284255,578.4100142418312,C 417.05149297720527,559.2967740693767 426.62428487399217,535.4403928269497 429.94148359958194,510.9044889193754,C 433.2586823251718,486.3685850118011 430.5044025402651,461.2437050192935 423.8909465637561,437.3841872539749,C 410.66403461073804,389.6651517233206 383.0812411328904,347.4111016910707 356.3778973255414,305.7099148818772,C 311.2960212324006,235.30795510367096 270.3189639476254,161.09223881965875 250,80M 250 , 80C 262.6986421921221,127.48373432417513 260.55446309282144,178.6489436698232 244.96851737996988,225.26480829902897,C 229.38257166711963,271.8806729282334 200.57101677104282,313.0021064819859 168.03652390609696,349.84592974875636,C 142.57491259078927,378.68003856005805 114.82237975905804,405.6247526634374 92.07707734040856,436.64653049124684,C 69.33177492175822,467.6683083190556 51.85566619559529,504.01630593666806 50.65852360144106,542.4645351718754,C 49.88631359541478,567.2653462652465 56.09933226507327,592.4469646793525 69.56253926148754,613.2896755528016,C 83.02574625790182,634.1323864262506 103.74001890146894,650.3302262449632 127.44092812322063,657.6748461292577,C 151.1418373449746,665.0194660135523 177.56473674034257,663.3398560152466 200.03370568276523,652.8126544000478,C 222.50267462518786,642.285452784849 240.74416409752249,623.0218600666628 250,600,C 276.64061191285236,616.5374144406345 311.223811714343,619.4181969900259 340.3261588123783,607.7450794605056,C 369.4285059104136,596.0719619309854 392.123428412774,570.444657976355 402.03545585044867,540.6963808573804,C 413.1281890017278,507.4045339707558 408.7218333429905,470.4613588487788 396.2457341914475,437.66284138458826,C 383.7696350399038,404.86432392039717 364.037683219239,375.40411712968944 344.4328744686697,346.3000405811782,C 317.58644557365847,306.44550634136317 291.0446939321151,265.8996543832902 273.5952936971425,221.12652544050553,C 256.1458934621719,176.35339649772342 247.65272304428123,127.99588456086977 250,80M 250 , 80C 254.22559877926452,118.79223528170942 250.32824574801043,158.39347697109423 239.1191708581683,195.77060692122194,C 227.9100959683263,233.14773687134954 209.34480612202685,267.9667985789238 187.79864126802218,300.50071908166774,C 162.02730736140992,339.41449024459257 131.70046899409758,375.66085134845287 111.6092928201595,417.7890827069417,C 101.56370473318096,438.85319838619165 94.28232908965033,461.4399744772855 92.33387424825999,484.69538961211225,C 90.38541940686964,507.950804746939 93.96198345703749,531.8540479694725 104.13696574323276,552.8559656161466,C 116.66629564714489,578.7174312588736 139.52332457339753,599.6392483811765 166.80646760500673,608.6630845580898,C 194.0896106366159,617.6869207350032 225.19164173099864,614.5032711147481 250,600,C 271.5973884360396,627.381246303155 307.12621214078166,643.0732871244751 341.92661412318296,640.8123452334721,C 376.72701610558426,638.5514033424691 409.5585808420795,618.6311712197047 429.0653326567709,589.7232748934197,C 444.44034548019783,566.9383806712978 451.8019924838633,539.2082033073214 451.81312213629013,511.72107358876644,C 451.824251788717,484.23394387021153 444.7717114732834,457.05727690843656 433.86751826026597,431.8255311422988,C 412.05913183421717,381.36203960998375 376.15746059985594,338.5654611925575 344.40795998668585,293.68630225487,C 299.0175114343514,229.5251307248865 262.85154086161117,157.5357120903937 250,80M 250 , 80C 257.92661841955413,119.26499820065376 256.2467337901846,160.37489754256865 245.5822493610092,198.98629657350813,C 234.91776493183391,237.59769560444758 215.28977384865138,273.3374997716464 191.1565884856611,305.30874822243584,C 160.3169553104043,346.16458882313015 122.07461755034207,380.9823609968539 91.21065065446622,421.8198221449716,C 75.77866720651755,442.23855271902715 62.30090993688576,464.36365235270614 53.66299979643714,488.45633131954514,C 45.0250896559885,512.5490102863841 41.40079939164483,538.6845035076112 45.26589232102313,563.9853281590114,C 48.82267734690785,587.2679751500787 58.83489029544424,609.6688255999114 74.5835425937548,627.1820298018251,C 90.33219489206536,644.6952340037388 111.77024741520691,657.1133578738167 134.90043426278822,661.5548471541131,C 158.03062111037005,665.996336434409 182.65819382657025,662.3730115274027 203.4414463883161,651.292001483832,C 224.22469895006193,640.2109914402613 240.9849013800295,621.7591444570608 250,600,C 265.0155728408426,612.3435732528022 283.3955467313502,620.5497859535797 302.6078392384764,623.5025888604067,C 321.8201317456026,626.4553917672338 341.80079711707606,624.1450698823497 359.87128656856214,616.9834611685428,C 377.94177602004817,609.8218524547359 394.04066200188055,597.8490660902453 406.32437182868614,582.7844817522431,C 418.60808165549173,567.7198974142409 427.05911740895743,549.6386306199944 431.2929737654449,530.6674501417381,C 436.2062473914004,508.6519180006362 435.4703906901805,485.5613079964413 430.5622026497013,463.5446415062868,C 425.6540146092221,441.52797501613225 416.6821226197678,420.5628769302028 405.6824315371235,400.8694590128937,C 383.6830493718291,361.4826231782733 354.10121593038815,326.94738100644594 328.130208502123,290.0583253682352,C 284.4826589694249,228.06162047987516 253.00128067472718,155.76075706812372 250,80M 250 , 80C 225.1797408018862,157.90462336427788 184.47743878885848,229.55774971651164 142.75331574433633,299.8732754868358,C 121.20151284638935,336.1934241559998 99.99186216379917,373.31991062761 88.478176127051,413.953252126302,C 76.96449009030104,454.58659362499503 76.46085663708922,499.69185071974925 94.99926759708103,537.6386651655063,C 108.46582782937841,565.2037603325291 131.85016279619086,588.018124196615 160.23736713433524,599.6520979769515,C 188.62457147247963,611.286071757288 221.54558616213262,611.4686114765697 250,600,C 272.9580967643479,617.8116648415687 304.618197091705,623.714600726771 332.5092366209956,615.5647832168457,C 360.4002761502862,607.4149657069206 383.6204468760453,585.6621073413106 395.0189531933602,558.9337765815407,C 402.64083702998954,541.0612390290971 405.25941276135615,521.231568202879 403.6572988891278,501.86784069697273,C 402.05518501689943,482.5041131910665 396.34293471624153,463.6209140810546 388.2602714027407,445.95197903835424,C 372.09494477573617,410.6141089529493 347.03746701940423,380.25164267978585 323.5447234733469,349.2972593422054,C 294.27333834901475,310.72885313693564 267.25975135054705,269.5161881322945 252.9566363581102,223.25868229999966,C 238.65352136567677,177.00117646770718 237.17740176206306,126.68958040869293 250,80M 250 , 80C 231.9654330547479,159.40012621703553 191.90007876192402,232.14864417571334 144.3464135293645,298.24156793562594,C 113.22730452068991,341.49276401332605 79.28073318578028,383.602335159866 58.640690085780015,432.7251763691809,C 48.32066853576971,457.2865969738441 41.61106388508954,483.5973578338224 41.31628948604525,510.23716517106715,C 41.021515087000964,536.876972508312 47.36778144518239,563.800722596555 61.139871450956576,586.6063307617566,C 70.79013655787745,602.586488067318 84.0191847732819,616.4397903782148 99.74537644381753,626.4986143495306,C 115.47156811435315,636.5574383208465 133.66147094268393,642.7750677063907 152.2707376494464,644.2543367086087,C 170.88000435620887,645.7336057108266 189.85575694187662,642.4616446093779 206.8660825885537,634.7712697460607,C 223.87640823523077,627.0808948827436 238.8770904866449,614.9924623762095 250,600,C 259.99546448297025,611.0817290640251 272.8041366011619,619.6041407403922 286.8844687890851,624.5496715265175,C 300.9648009770083,629.4952023126428 316.2826377422225,630.8514836764683 331.02137973499043,628.5097933149133,C 345.7601217277583,626.1681029533582 359.88106714620335,620.1409130544164 371.8563843615931,611.2355322725762,C 383.83170157698277,602.330151490736 393.638556312277,590.5830475489415 400.5190396099197,577.3402012208428,C 410.6014030500663,557.9347054313758 414.284452604012,535.5033365012588 412.4532461858043,513.7117325578098,C 410.62203976759656,491.92012861436086 403.47127541611695,470.79812995444985 393.45718164267896,451.3573160499083,C 373.42899409579496,412.47568824080844 342.80607331106717,380.30540925850903 315.40907519123186,346.2126861123555,C 285.3958289104682,308.86431342963624 258.94087808830557,267.6357553068751 246.10252202007638,221.47438067588703,C 233.26416595184975,175.3130060448999 234.24776606827754,125.25000575157097 250,80M 250.99811012926804 , 576.0614505480249C 250.28572305196948,584.0190947928413 249.95251675727275,592.0106732062945 250,600,C 250.3190903349885,653.6887713751818 268.37851080923605,707.1249382144131 300.6943748283294,750M 249.54477011356897 , 575.1096260614214C 250.24518817181354,583.384270299961 250.39737436674395,591.7052778019172 250,600,C 247.12347318961346,660.044111508754 213.52809418996486,717.8085903459698 162.76114748393405,750M 249.50746861051365 , 576.870294680192C 250.0167264864058,584.5676935047359 250.18112304791512,592.2878999818622 250,600,C 248.73608680241028,653.8165910206187 230.1354081064719,707.091725041851 197.6284413798229,750M 249.00270962769972 , 576.0735657074808C 249.74144916075352,584.0251854283841 250.07445538799783,592.0144850711583 250,600,C 249.49230498514402,654.4514806711951 229.3315284532262,708.5124844426961 194.06103718366623,750M 249.5850154517062 , 575.0901715410708C 250.22649734533806,583.3748900533739 250.36516446646223,591.6985112925219 250,600,C 247.46901179239586,657.5383750443824 219.4598150114089,713.4928612729775 174.9143402017162,750M 249.25309409045437 , 575.3350702576319C 249.83055283958805,583.5423832538889 250.07978667855969,591.7727842308952 250,600,C 249.49226101493977,652.355584414411 235.38808017688285,704.5215804799088 209.44432608835393,750M 250.8037175724387 , 576.5950109778427C 250.97373059748807,584.4035174045657 250.70526260920235,592.2215501739149 250,600,C 244.64908446746074,659.0160706811745 212.81693354040502,715.1282014200841 164.9056972853935,750M 250.76199921001165 , 575.3524220479807C 250.5723470711859,583.5701025949716 250.31833694889662,591.7862978448741 250,600,C 248.0555923846357,650.1694354868855 243.7095105195545,700.2457196039833 236.98161632285343,750M 250.98670855031204 , 576.1624999592035C 250.99648301215984,584.117537208579 250.66718222737128,592.0729841015337 250,600,C 245.42699114110982,654.3334526027119 224.56297818715473,707.1914257009189 190.7922445819357,750M 249.60998872770995 , 576.920810082203C 250.04251673992243,584.6047922651663 250.17265459578945,592.3057909399342 250,600,C 248.81414513823495,652.8466397294268 233.01598216909244,705.2913223216939 204.81478143752196,750M 249.0304018977775 , 575.7552970777319C 249.7154344301222,583.8169783233387 250.0390662932645,591.9093604763981 250,600,C 249.7437124227692,653.077224084494 233.45482349655626,705.9731552063927 203.80867134560344,750M 249.95843925445274 , 575.0008640210514C 250.51764732068932,583.3211015357662 250.53154047350554,591.6779491297134 250,600,C 246.14424577609842,660.3675249468967 211.7149429128507,717.995772545371 160.38430553241594,750M 249.7420418141974 , 575.0338439182112C 250.3397487770112,583.3401119404525 250.42595172711006,591.683155213852 250,600,C 247.02501169003335,658.0876058009344 217.700348268997,714.3152278659887 171.76977521713007,750M 250.39938565393004 , 575.0832169834498C 249.76452008965376,583.3706542692157 249.63106736515005,591.6964730529039 250,600,C 252.55402771197132,657.4832257347168 280.4417445515787,713.3859123535716 324.82927528084525,750M 249.03149875450504 , 576.2490087096362C 248.99185250650925,584.1752516239399 249.31513692152555,592.103300618279 250,600,C 254.78370396254783,655.1576998537191 277.7590642411211,708.5860340377204 314.5033032457517,750M 249.01653636313972 , 576.1811057011073C 249.82435593137296,584.0912104261241 250.1529774466294,592.0502247128377 250,600,C 248.89291967748576,657.5316164751365 221.1151088235006,714.0060685412769 176.2202380783092,750M 249.44471178130652 , 575.1683420209123C 249.1892948195354,583.4475982724772 249.37474018719195,591.740437537622 250,600,C 254.26048388639214,656.2801767501627 279.75039350735614,710.6990898482799 320.2602500761244,750M 249.3955708382344 , 575.2033411091268C 249.96056844455754,583.4546961641943 250.16230485689627,591.7309166364483 250,600,C 248.95852261388325,653.0610327487473 232.5535416684443,705.7319518334052 203.28072521649588,750M 250.78192940188399 , 575.3766330049888C 250.78266489958847,583.5899465689158 250.5218456574569,591.8032813059043 250,600,C 246.68499538831813,652.0693425025389 232.7004134400156,703.4362686959921 209.16268603760187,750M 249.00019030237505 , 576.0195081658565C 249.78391828902602,583.9857332832074 250.11789501542864,591.9961838512676 250,600,C 249.1763266377625,655.9186504534403 225.2540454998823,711.1480630744892 185.02842053919565,750M 249.69324505139878 , 575.0482114722752C 250.37336722041013,583.3449728792654 250.47594822676692,591.689025971961 250,600,C 248.21153885564806,631.2299810881424 238.0890975949993,661.9443353792698 220.9591198793033,688.1182570474177,C 203.82914216360732,714.2921787155658 179.73357334310936,735.8615769411266 151.82989427674062,750M 249.06348908898588 , 576.3506384370709C 249.79606302500892,584.2096140216744 250.10882616061915,592.107705107011 250,600,C 249.23776258116163,655.279010613972 226.90702011223863,709.9803560169413 188.765466449448,750M 249.00046144337543 , 575.9696244535711C 249.20259355652476,583.9844849463756 249.53583250134116,591.9960388154694 250,600,C 252.9381416079297,650.6644076814362 261.1404134553604,701.0219822259357 274.43208967555375,750M 249.00654649401847 , 575.8857628280595C 249.31083267706737,583.9249186860765 249.64198631156378,591.9630575969728 250,600,C 252.2300121685587,650.0608773788517 255.50230129779982,700.075322969677 259.8140319979116,750M 249.58204478262175 , 576.9084676308303C 249.60863767137812,584.607135030652 249.74797599436616,592.3054128885693 250,600,C 251.65300216612096,650.4680858897268 258.1681265639167,700.7757761513592 269.4258304165215,750M 249.07795359838877 , 575.6129206369802C 249.92893526197665,583.7092329421047 250.23720226307532,591.8625447577105 250,600,C 248.24694735088698,660.140182832085 214.57567037167752,718.4328158104961 163.3562632390963,750M 250.02051300310222 , 575.0002104137851C 249.5533633845445,583.3246183692445 249.54651180474914,591.6748366363294 250,600,C 253.0579238408905,656.1375484426769 277.9249970227678,710.8056403363038 318.23104388826187,750M 250.86322645852118 , 575.4951831210142C 250.98093378720824,583.671028051022 250.6927194727522,591.8527038186384 250,600,C 245.26184071549176,655.7270129739333 220.93819303564456,709.594669970963 182.2683154350251,750M 249.6898575064104 , 576.9506900828713C 249.95570598599363,584.6304616431075 250.059117642294,592.3158558228076 250,600,C 249.60986462405768,650.7100141520224 242.09694506533728,701.3601178818676 227.75053058491528,750M 250.75880263674534 , 575.3486793735277C 250.70431375433694,583.5702963915691 250.45128124018404,591.7905968139023 250,600,C 247.18599318538296,651.1905092713293 236.6077322636982,701.947203453238 218.7383277451848,750M 249.44953188002376 , 575.1651438154449C 249.260758928414,583.4461006417557 249.44449553510265,591.7355401884962 250,600,C 253.63715971944515,654.1114648555144 273.63811027111615,707.0160163432735 306.7085911964458,750M 249.02158206199076 , 575.7933642369246C 249.78925285546518,583.8363161121257 250.1160443022585,591.9213288819344 250,600,C 249.20524576304737,655.3285079497163 226.74508588118255,710.061581232812 188.44628521307163,750M 250.96737745424363 , 576.2533394186089C 250.9091743587346,584.1767149450671 250.58647581540095,592.0981449360575 250,600,C 246.09890348270392,652.5612454267196 230.3457330237813,704.2089393714492 204.24818828567425,750M 250.90377884385245 , 576.4279997679961C 251.05426150541896,584.2939942581841 250.75233885239913,592.1686207726691 250,600,C 244.26451122617925,659.7028685925958 210.88805605045604,716.1803611933833 161.3546291485207,750M 250.30791460137712 , 576.9514139994023C 250.555208322666,584.6336385496346 250.45242820902683,592.3271232943272 250,600,C 246.7689085900451,654.7971269666591 225.1243241740636,708.3477554615669 189.37162357102935,750M 249.0300055429421 , 576.2431270311523C 249.01003043527592,584.1711378131705 249.33376661540427,592.1000071492455 250,600,C 254.59854797854572,654.5281833578589 275.963357732201,707.5272587020279 310.4674976353315,750M 250.99629337502375 , 575.9139795903068C 250.5939136222107,583.9395404381687 250.26179886053166,591.9686241686227 250,600,C 248.36981543319527,650.0102441390784 249.46867542607964,700.109329128625 253.2900600673056,750M 250.07616005905555 , 575.002904395053C 250.37593864603954,583.3320303730354 250.35052618483755,591.672855342192 250,600,C 247.78389228170707,652.6461369956205 232.32440174583184,704.6832999902947 205.43716361672864,750M 250.9959907310266 , 576.089456490592C 251.1067583691453,584.0698787880594 250.7740793212461,592.0564358931279 250,600,C 244.2982747648514,658.5108252888921 213.46830340054976,714.1465709972882 166.87905597808222,750M 249.81511825336804 , 575.0172392255679C 249.31982758167885,583.3365324019915 249.38163857395404,591.6889482644175 250,600,C 254.5976078361322,661.7938878082191 292.1328133329986,720.1716139764442 346.44570273781096,750" stroke="hsl(210,80%, 90%)" fill="none" stroke-width="1"/></svg>