<svg viewBox="0 0 500 800" width="500" height="800" version="1.1" xmlns="http://www.w3.org/2000/svg">
<rect width="500" height="800" fill="hsl(210,80%, 20%)" /><path d="M 250 , 80C 230.45046405826537,157.36684336309122 191.47714990151667,228.29239029258713 148.05594244032196,295.2432047022577,C 124.98929008880856,330.80949248959575 101.22538865900697,366.41469237986274 86.05745155221975,405.99960063543256,C 70.8895144454304,445.5845088910029 65.42889848400814,490.3619946798394 79.52085265137565,530.342591291474,C 91.15249910778027,563.3429941723948 116.40377080503862,591.6958471522096 148.67423786086582,605.2213321930002,C 180.94470491669298,618.7468172337908 219.3378012421656,616.856789638746 250,600,C 257.86289533495795,619.6633241198655 272.2739324271533,636.6398068658316 290.3904402147648,647.6062823284767,C 308.5069480023763,658.5727577911218 330.2084286876565,663.4607063956869 351.29022659731476,661.4534108549864,C 372.37202450697276,659.446115314286 392.6912834784452,650.5881956560813 408.75301436167075,636.7863030494054,C 424.8147452448963,622.9844104427295 436.5599902678122,604.3775297310833 442.8077594589393,584.1429845514708,C 450.73205326849467,558.4787072389074 449.8230361158295,530.5291028216886 442.5635611848041,504.66890974270865,C 435.3040862537786,478.80871666372866 421.9755907755011,454.9725357861262 406.165247793602,433.25888530650786,C 374.54456182975593,389.83158434724754 333.63197173287824,353.884244598632 301.41405211836974,310.89815492832804,C 276.8717553341986,278.1531054992045 257.32990932253904,241.22179168713103 247.82975341713126,201.4184045029852,C 238.32959751172362,161.61501731883936 238.91428846204386,119.39123751870844 250,80M 250 , 80C 266.22875825296796,124.9595758865861 267.20968528150496,175.05661065189946 253.93558437447408,220.97539007214243,C 240.66148346744532,266.89416949238273 213.39774222012937,307.52109239216907 182.73979577018963,344.1929668712203,C 159.44965467875124,372.05175161073936 134.1788522869412,398.5018232150493 114.7228471163104,429.1613473800189,C 95.26684194567798,459.82087154498817 82.15192704013432,495.98192246190825 85.99952703649467,532.0892421282864,C 87.95614024649402,550.4508334329192 94.28584650116431,568.4093208386838 104.82447906441317,583.5722227439506,C 115.36311162766202,598.7351246492174 130.0990003101256,611.0018037180196 147.05749127854696,618.3083729927122,C 164.0159822469684,625.6149422674047 183.11772891414705,627.9033977353324 201.30138020759514,624.6891799253209,C 219.48503150104324,621.4749621153094 236.66365586366882,612.771777306595 250,600,C 258.4127258044341,623.6396768637811 276.0509545086646,643.8520743472484 298.3189078232857,655.4169579550688,C 320.58686113790685,666.9818415628893 347.2159863772014,669.7761430929462 371.46534558831604,663.3281313424211,C 395.7147047994307,656.8801195918979 417.3119335694066,641.346057365175 431.71228687293006,620.7976242760498,C 446.1126401764535,600.2491911869245 453.2991051900924,574.9914010837857 453.24852220016174,549.8994557816437,C 453.20073311911653,526.1934429653825 446.89419718140635,502.73358309437856 436.692954818142,481.3347050469914,C 426.4917124548777,459.9358269996042 412.5049766786062,440.5215091928927 397.07245116744826,422.5266631588621,C 366.20740014512194,386.5369710908036 329.7799154943968,355.5286292672741 300.03221810249113,318.61001865360004,C 273.32096962251313,285.4598165170763 252.11517381726938,247.2747120902247 242.6463617756189,205.7684680350057,C 233.17754973396868,164.2622239797867 235.55744131733192,120.04796119341397 250,80M 250 , 80C 232.78041871981475,166.65664715658426 187.78744619773278,245.21989288148671 135.23620390680946,316.24281460093107,C 106.95134098871976,354.4697625721244 77.08513469414927,392.1954311345771 57.5954248732709,435.5715101711314,C 47.8505699628287,457.2595496894092 40.88197039696001,480.34660253325785 38.77347777691873,504.0296664026811,C 36.66498515687746,527.7127302721043 39.546067880795896,551.9867241503923 48.478516401838675,574.0218011593539,C 56.33615114458002,593.40546581263 68.88824231609128,610.942863572829 85.08772334404176,624.1733470698927,C 101.28720437199225,637.4038305669563 121.0914155045798,646.2378532922066 141.80334117514354,649.1507580551615,C 162.51526684570723,652.0636628181163 184.0444893342868,649.023937414893 203.09475875094398,640.3893491621866,C 222.14502816760117,631.7547609094802 238.63719630667973,617.5600561322584 250,600,C 256.67980305637485,620.2790602308944 270.4207862876309,638.1528679134069 288.29085013110165,649.8370825190395,C 306.1609139745724,661.5212971246722 328.02016023630523,666.9307241790884 349.2902827226676,665.0754769892669,C 370.5604052090297,663.2202297994456 391.0736880189644,654.1525451301948 407.03388073121806,639.9704331116021,C 422.99407344347173,625.7883210930095 434.33735127275634,606.655373101966 439.8957033578017,586.0406993277135,C 446.4502487960106,561.7313691737755 445.0235283348955,535.6357534446527 437.88117517939173,511.4925889909865,C 430.738822023888,487.34942453732043 418.10995559043994,465.10258147957506 403.13577012219207,444.8620437397517,C 373.1873991856675,404.38096826009263 334.4565729074351,371.2158185758956 302.6007327529349,332.2180257948617,C 274.0467243495156,297.2623223073851 250.97457559394522,257.0707464337162 240.84797905970896,213.0856961911654,C 230.7213825254731,169.10064594861467 233.69860572153308,122.08915711658855 250,80M 250 , 80C 267.3140446585149,124.10721308870208 269.3041984024177,173.85923843082665 256.66426693330516,219.52601542839196,C 244.02433546419442,265.1927924259556 217.0570691848768,305.6663170390749 185.98450339850265,341.43946401191573,C 161.4630466172757,369.6704663518519 134.38056975288865,395.80998120213036 112.58689161998778,426.1962762910448,C 90.79321348708525,456.5825713799584 74.65354823652902,492.6274399227573 75.66744973008521,530.0074257380629,C 76.22179491347443,550.4447317520386 81.9655285116462,570.8318488497607 92.9261691391257,588.0903288734035,C 103.88680976660521,605.3488088970462 120.0584840819636,619.3250390283572 138.90297981672353,627.2544624748534,C 157.74747555148383,635.1838859213494 179.1429737324371,636.9749980346807 199.00524427140434,632.1292798497142,C 218.86751481037155,627.2835616647477 237.06086055631127,615.8293855265458 250,600,C 258.1185827014111,622.6019805185497 274.56622179293265,642.1005319661366 295.4636053717862,653.9352380460871,C 316.3609889506397,665.7699441260376 341.5045399372828,669.836316186601 365.1055005017204,665.3915924745563,C 388.7064610661577,660.9468687625125 410.5420523568357,648.0923311379998 426.30809468800504,629.9762383569307,C 442.07413701917443,611.8601455758616 451.7232354261557,588.7194016143493 454.60099354809637,564.8765952226483,C 457.67310777536085,539.4235093029455 453.18816889944793,513.3749281683725 443.7744343953472,489.5279352479341,C 434.3606998912465,465.68094232749564 420.19077781316673,443.9493758184821 404.18323195615193,423.9229946102681,C 372.1681402420986,383.8702321938398 333.1580002104433,349.73932467136507 302.11887844119093,308.92556725502783,C 277.5301611686633,276.59353320454375 257.9798068668853,240.00423287876254 248.3817215885858,200.53472310298184,C 238.78363631028637,161.06521332720118 239.18313996976423,119.15304562912368 250,80M 250 , 80C 232.63614020561695,165.69770917953008 187.77063958964095,243.23265040873665 135.71525837245972,313.48817170003616,C 109.5434644846193,348.8104185019056 82.17322081595734,383.7322048679755 63.21266428093897,423.394796945677,C 53.732386013428524,443.2260929845277 46.485909598335276,464.23590092502195 43.15582157475092,485.9629921331231,C 39.82573355116657,507.6900833412243 40.49672674343762,530.1421178640838 46.27406839274377,551.3500951857701,C 51.98725825926441,572.3225784624315 62.75338095948146,591.9874937834776 77.8689051086961,607.6082019279653,C 92.98442925791072,623.228910072453 112.41609368254935,634.6961497238777 133.48992061734322,640.0233827357811,C 154.5637475521371,645.3506157476843 177.18067825768495,644.4885883359387 197.74515379891224,637.4467179199896,C 218.30962934013957,630.4048475040406 236.72706238459378,617.213794477055 250,600,C 255.8182838661032,622.8121074581427 270.27130882153375,643.3052983075056 289.79216862329633,656.4651123802171,C 309.3130284250589,669.6249264529285 333.69289030121956,675.3232470400889 357.05083587021267,672.3819798600521,C 380.4087814392053,669.4407126800163 402.5015326017496,657.9530539182434 418.73737200944953,640.904822556728,C 434.97321141714946,623.8565911952127 445.2908788038231,601.496056071208 448.8322415024378,578.2215330027274,C 452.24019431886654,555.823805576131 449.5261639920658,532.7108349496029 442.51815833140216,511.16645765678675,C 435.51015267073853,489.62208036397055 424.3296210364397,469.6044911039189 411.19772548499566,451.1430270368122,C 384.93393438210035,414.2200989025979 351.33777284222094,383.2142703480147 321.79710918349906,348.85675973238443,C 290.11282845268966,312.00609773866705 262.9886582575677,270.31070832735304 249.28757451611196,223.6829779610403,C 235.5864907746574,177.05524759472766 235.50854870584266,126.38817493923392 250,80M 250 , 80C 264.58209684857036,121.53306193312017 266.42031019982426,167.332874627635 255.88340089345508,210.07168982308502,C 245.34649158708618,252.8105050185348 222.57387689570564,291.80150265366825 194.45899667232283,325.671641302134,C 165.17305669044273,360.95256157480674 130.18894200582204,391.1541320792819 100.68534707553579,426.25324178449466,C 85.93354961038962,443.8027966370989 72.61343564718757,462.7154909929757 62.86699517607393,483.46661872426523,C 53.12055470496031,504.2177464555548 47.042687612734916,526.8725059135219 46.78828030077051,549.7971145447914,C 46.508101815774154,575.0439601088669 53.53039046518415,600.5295430061716 67.89362506770196,621.2943979941741,C 82.25685967021978,642.0592529821766 103.94707934953568,657.7867039426842 128.342246226529,664.2949712976249,C 152.73741310352452,670.8032386525654 179.5548186497371,667.9286642524137 201.89671841104223,656.1676597895441,C 224.2386181723474,644.4066553266747 241.82584527191102,623.8885936254335 250,600,C 272.0581307628148,618.8901762632413 302.22673570508016,627.9164603676122 331.05218886580684,624.3818964504487,C 359.8776420265335,620.8473325332852 386.76466183791223,604.9088043634232 404.5542106873126,581.9538083115708,C 418.8481328266806,563.5094436426075 427.3828568580136,540.8882130368489 430.1854829720053,517.7223742859384,C 432.9881090859969,494.55653553502776 430.21739442425553,470.9191192638861 423.874785510531,448.46289272567265,C 411.189567683081,403.55043964923425 385.1520323881677,363.7692204221937 359.6300936473236,324.69654665161926,C 310.36554973983993,249.2752602008161 265.9151660512075,168.6683327116789 250,80M 250 , 80C 263.0117299560894,120.29796860490087 264.0472061725312,164.27437546360267 253.61260111058684,205.31521375100874,C 243.1779960486428,246.35605203841462 221.38376873101345,283.8179401462421 194.8292918091715,316.80416674976726,C 167.86712759209567,350.2968264321112 136.04075522314358,379.6907236196239 109.80888457386355,413.75838444488915,C 96.69294924922085,430.79221485752043 85.04913326558619,449.101268458234 76.84968307845863,468.9745710170768,C 68.65023289133106,488.8478735759196 63.98550854665158,510.3345586658853 64.70770263571899,531.8207768920928,C 65.4377958190912,553.5420034997422 71.79757526369414,575.173040826121 83.76041165972055,593.3178821524916,C 95.72324805574695,611.4627234788622 113.27973252303234,625.9478077747161 133.5488641070909,633.7904493083693,C 153.81799569114992,641.6330908420222 176.65851231725915,642.7333373241313 197.53892435752817,636.7039829286869,C 218.41933639779722,630.6746285332424 237.18611187205875,617.5541730777011 250,600,C 272.83890668818026,617.5736429062503 304.1109064340268,623.5416264249806 331.86844232678726,615.7977394894734,C 359.6259782195477,608.0538525539662 383.02214768514006,587.0028527252673 395.01059939104107,560.7974027309801,C 403.084583191861,543.148553326772 406.24553894735976,523.425514901197 405.1841580065819,504.0465425288838,C 404.1227770658041,484.66757015657066 398.9463567200558,465.6512902519021 391.3398770854485,447.7959670322954,C 376.1269178162314,412.08532059307794 351.7852847592132,381.1786872907933 328.70234349752263,349.97192165346723,C 299.84031994397867,310.9521799904199 272.7878398215535,269.76444576286747 257.6777149345036,223.64242532843684,C 242.56759004745695,177.52040489400875 239.45260980320103,127.3741406580892 250,80M 250 , 80C 243.48984101656666,125.53490932494188 229.580979010608,169.943220416262 209.58542120294558,211.36770357756032,C 189.5898633952834,252.79218673885833 163.3931383348162,290.8901661799961 136.05386661554448,327.88171060679787,C 108.18913086481781,365.58423688651226 78.85124054177834,402.9290211633153 60.27238604773499,445.97260549384646,C 50.982958800710044,467.49439765911296 44.572267505044174,490.4148808587302 43.129892356336,513.8114735703429,C 41.687517207627835,537.2080662819556 45.34983643714477,561.0677659919066 55.05169751323088,582.4068120868712,C 63.372951763701266,600.7092415512899 76.13535500639578,617.0445232920825 92.21705821431951,629.1110480002678,C 108.29876142224323,641.1775727084531 127.65574587266778,648.8939853989591 147.65851081858395,650.9216912749228,C 167.66127576450006,652.9493971508863 188.2243317006628,649.2627921864402 206.2317547262369,640.3210410951264,C 224.23917775181098,631.3792900038126 239.61831061099062,617.2175120743711 250,600,C 277.2584255152407,612.7796832160221 309.79256805576046,613.7040474081301 337.79852870901146,602.6583137267327,C 365.8044893622625,591.6125800453352 388.7264347359852,568.9208868239582 401.32290818892676,541.577314979352,C 417.13774427987136,507.2475393894681 416.6902331843406,467.0922999532364 406.66674063801725,430.64820400054435,C 396.64324809169324,394.20410804785143 378.0643681337194,360.7564932115424 358.85661957125046,328.2033838700944,C 312.6738598009639,249.9332824262658 267.6933958643641,169.14033779840707 250,80M 250 , 80C 258.729888237005,119.42404197500574 257.51796114538774,160.94574167646078 246.96330520023216,199.9209295805236,C 236.40864925507663,238.89611748458634 216.54199380575787,274.9238678262298 192.04993093597534,307.0269033627679,C 161.60509882976652,346.9325467626712 124.00702783880854,380.92508024272263 93.30200118148151,420.6308671648871,C 77.94948785280948,440.483760625966 64.41621273527534,461.95674049144935 55.4289207612352,485.3888899288645,C 46.44162878719507,508.8210393662797 42.15424007904981,534.2878253649992 45.010106413558645,559.2213584432338,C 47.731582413942895,582.9815782606165 57.07833012761675,606.0965478663444 72.48967732859988,624.384381385976,C 87.90102452958301,642.6722149056077 109.33604690872752,655.9073010654362 132.71314388367335,660.953667522105,C 156.0902408586199,666.0000339787733 181.20148978251206,662.7561001615518 202.43710671985153,651.7559614950793,C 223.672723657191,640.7558228286068 240.83758686769747,622.0908275758075 250,600,C 277.87796820719933,611.5285820091033 310.25984952659985,611.615597520084 338.2583212530277,600.3828375971328,C 366.25679297945555,589.1500776741817 389.40752425155114,566.861018503678 402.79549451033085,539.8267519729902,C 412.295383407834,520.6436701836802 417.05323288285655,499.25803581341097 417.61910574480976,477.85901004342867,C 418.18497860676297,456.45998427344637 414.64453982100696,435.0692061988348 408.49704409101855,414.56440646194307,C 396.2020526310403,373.5548069881572 374.04485320419695,336.3060749679342 352.0005640198477,299.6045303361608,C 310.2836855952657,230.15008512387755 271.1718178136633,158.2046803951174 250,80M 250 , 80C 257.99486368088384,128.27476514926224 252.94163747317452,178.50613825617057 236.4496713977419,224.5754973841107,C 219.95770532231018,270.6448565120497 192.09764587220994,311.80401812905495 161.21584838503142,349.7603796439987,C 132.82150225260546,384.65945141047337 101.65463254043803,417.8310179971492 79.81653661092622,457.16651937469624,C 68.89748864616614,476.8342700634701 60.47960431535979,498.06062348000137 56.790217476203075,520.2514875993536,C 53.10083063704636,542.4423517187058 54.283580390834636,565.6055070143627 61.64377730315929,586.8628240375505,C 68.33770084150811,606.1958468463988 80.18064178932092,623.8138640475973 96.00530678959184,636.7812986780056,C 111.82997178986275,649.7487333084138 131.57977942332832,657.9396349996092 151.96920538682656,659.6265529418145,C 172.35863135032483,661.3134708840195 193.25710666068971,656.4572354947247 210.74734866718396,645.8428199281957,C 228.2375906736782,635.2284043616665 242.21053916317533,618.9182103576497 250,600,C 273.64472378285956,615.323590760685 303.95653077613645,619.8614997770019 331.092544523278,612.2771636502459,C 358.22855827041957,604.69282752349 381.59039202251614,585.2528315834126 395.00375227694906,560.4744707971646,C 406.5587679531415,539.1290106078861 410.90513725911023,514.2478721842108 409.0928260552065,490.0432737353761,C 407.28051485130277,465.8386752865414 399.5508026933401,442.3440076712607 388.827596036296,420.56879476852544,C 367.38118272219293,377.01836896302194 334.90419698489666,340.02343665747395 307.97056074555815,299.6357223026483,C 286.4537106906514,267.3706250053186 268.2580741222748,232.5654242861643 257.76035343685925,195.23167011781828,C 247.2626327514438,157.89791594947232 244.4310348824216,118.37965564476426 250,80M 250 , 80C 242.29688123439675,126.25728499476256 228.02100172683865,171.34579743166043 208.54101533039014,214.00262084594968,C 189.06102893394183,256.6594442602377 164.1256184672676,296.54187647938113 140.1917106448012,336.8685737176778,C 119.98678930878958,370.9122305866206 100.49044007562577,406.07509539793267 91.19496035058643,444.55630478493237,C 86.54722048806588,463.796909478433 84.57858060593453,483.7815778660266 86.58187604314777,503.47394090839566,C 88.585171480361,523.1663039507647 94.63883612464886,542.5341816895921 104.99406781323064,559.4034297901155,C 119.50487320926236,583.0423384814554 142.73854040014962,601.3924971323266 169.40379901228093,609.0296078757403,C 196.0690576244122,616.666718619154 225.70989428044132,613.3922455731542 250,600,C 270.2992884042272,621.7326664967778 301.601238105275,632.5482394181664 331.01477303720304,628.1648770573283,C 360.428307969131,623.7815146964901 386.9236224297974,604.5340324611975 401.4501260002112,578.5850325421849,C 413.50104986662245,557.0582128971308 417.575612376748,531.527076526965 414.8491690640715,507.00779356584457,C 412.12272575139497,482.48851060472424 402.905637670129,459.0165141655841 390.56367908583394,437.6552223420948,C 365.8797619172196,394.9326386950614 329.71806352219505,360.1674923467431 300.00995485319595,320.77278204731675,C 274.2396073845334,286.5997761466539 253.11833033050394,248.26165300624976 243.5233412918676,206.55024777589588,C 233.92835225323176,164.83884254554212 235.95193125034683,120.42965378713183 250,80M 250 , 80C 229.37820865045052,169.00056543682928 182.8329588943478,249.2567424712691 136.00531543930265,327.70118609213273,C 117.27282210508808,359.0813690100429 99.28880293558603,391.3558468867673 89.02628500539942,426.4315209673961,C 78.76376707521224,461.5071950480251 77.02313895331847,499.9990757649524 90.14995154914638,534.1063913666226,C 101.83040900380854,564.4556513922167 125.54492753470153,590.3159681271159 155.50336383740614,602.9651880535814,C 185.46180014011074,615.614407980047 220.93172127490314,614.5789520340587 250,600,C 274.5172388707066,611.8651619677404 303.36788294219417,614.4547239501438 329.6344257084023,607.2473803705051,C 355.90096847461047,600.0400367908663 379.253982108971,583.1636834527978 395.01503215012406,560.9495804557315,C 408.33947764247455,542.1697019721901 416.31132634444356,519.8152827205558 419.08159253755116,496.95592339544504,C 421.85185873065876,474.0965640703343 419.54581917976276,450.7892824534188 413.9265901120274,428.45883355019436,C 402.6881319765557,383.7979357437384 378.9902767919362,343.41738268361803 355.321397199235,303.91190365896034,C 312.77881571097913,232.90452648014025 272.37477375945497,159.6949706864449 250,80M 250 , 80C 239.51791307796628,156.7545534361201 203.91314221150395,228.15342991818432 158.2893477640921,290.76017875279155,C 130.83541209897524,328.4335392333322 100.31567299766975,364.17452909035956 77.93190264812227,405.06422826190953,C 66.74001747334566,425.50907784768435 57.72634970799408,447.28740652831704 52.95066277556156,470.10062600023144,C 48.17497584312905,492.91384547214585 47.747829717019314,516.7826587272151 53.13499809906693,539.4592674942642,C 58.00884424642686,559.9751107789708 67.68107224007969,579.4136225576558 81.61591785445087,595.2400017915304,C 95.55076346882205,611.066381025405 113.72303686173075,623.1835705474766 133.79718641084403,629.6397862990304,C 153.87133595995732,636.0960020505842 175.76368669947314,636.8432023727999 196.20117609546554,631.6505894332988,C 216.63866549145794,626.4579764937977 235.53759885441767,615.3457862312439 250,600,C 257.35758272721534,622.2388220488194 272.8235404874936,641.6915278149344 292.8188873442881,653.8933856154233,C 312.8142342010826,666.0952434159121 337.15240346378937,670.942106610255 360.32494349837907,667.516815666085,C 383.4974835329684,664.0915247219157 405.2922342171188,652.478690827291 421.438053942583,635.5077823336462,C 437.5838736680472,618.5368738400015 448.02354662593376,596.4266277393056 451.8798581984869,573.3219076422724,C 456.1564317258684,547.6992284407758 452.4732499575103,521.0973603874745 443.4830442598153,496.72551244541137,C 434.4928385621203,472.3536645033482 420.3959076102264,450.1265251830092 404.30076683437136,429.73639977870323,C 372.1104852826316,388.95614897008767 332.33853548258315,354.58878907269104 300.74812030363563,313.34210737324287,C 275.56314790869385,280.4588250833445 255.6094754276708,243.09730609154124 246.18103817237542,202.7649659708133,C 236.7526009170802,162.43262585008537 237.9089787929752,119.61565719336731 250,80M 250 , 80C 243.9161233451833,155.90091420936193 211.9354937651944,227.89379442323226 168.10994380104108,290.16163125178645,C 135.80501765684417,336.06083551849116 97.5366586070959,378.3127381825017 72.86082450557699,428.7255184757271,C 60.522907454789845,453.9319086223572 51.91313161689598,481.2828524343228 50.63882718683709,509.31787427479526,C 49.36452275677819,537.3528961152678 55.75939996974709,566.017841772778 70.80833951969841,589.7057230583246,C 80.26005825837926,604.5832624811385 93.0277874983711,617.3838140639269 108.05786256662626,626.5910400215716,C 123.08793763488141,635.7982659792164 140.34923621259637,641.3715772722736 157.93761996139966,642.522630484486,C 175.52600371020293,643.6736836966984 193.3941928950395,640.3920384141104 209.39989837211994,633.0100631653393,C 225.40560384920036,625.6280879165681 239.50958419285567,614.1642981677784 250,600,C 257.0161782756421,623.9909169265082 273.4042384202662,645.0999993035473 294.89069553449883,657.8719613003768,C 316.37715264873145,670.6439232972062 342.70193619742247,674.9410134702753 367.1859922692023,669.9089313123457,C 391.670048340982,664.876849154418 414.0335652913186,650.6553466465245 429.5212566343008,631.0359106343783,C 445.008947977283,611.4164746222319 453.5863410251284,586.7014393221281 454.94933401712325,561.7428115017938,C 457.2297400033343,519.9848533732787 439.74546566373493,479.2871006113657 415.73156401955885,445.0488201880062,C 391.7176623753804,410.81053976464693 361.620979983689,381.3669420370172 334.3203077989511,349.6872858396035,C 302.3245056686632,312.55940838702014 274.09293251973156,271.33065460304806 258.28236417916946,224.9384508739408,C 242.4717958386086,178.54624714483387 239.23277461547974,127.81503420069312 250,80M 250 , 80C 261.4927192102283,120.4887140449384 261.882133522328,163.99006712288093 251.65244504130476,204.8161866230142,C 241.42275656028167,245.64230612314742 220.63665107042752,283.2905585718014 194.79662454021158,316.5127136610738,C 163.49821437500577,356.7526350613183 124.78983665118419,390.77483252509575 93.61929227011545,431.1138820448246,C 78.03402007956942,451.28340680468557 64.44211553719468,473.23402381082064 55.78796045013359,497.2093452481058,C 47.133805363072504,521.184666685391 43.601037001597994,547.2611173543695 47.691757461046336,572.4201404756018,C 51.46282664204343,595.6132228816776 61.831626157294075,617.8398053678753 77.94947805066803,634.938193730705,C 94.067329944042,652.0365820935348 115.87819903440366,663.78575640374 139.108427827329,667.320795935518,C 162.33865662025494,670.8558354672955 186.77473241270232,666.0901264757483 206.87639556210152,653.9220053023296,C 226.97805871150072,641.7538841289108 242.5567567821198,622.287623575931 250,600,C 272.8207565992696,615.9196571615593 302.0476116561702,622.3138553423946 329.4514721106473,617.4919420192167,C 356.85533256512434,612.6700286960388 381.9799952344292,596.7702026403784 398.79130903419286,574.5980998030161,C 414.58352739908287,553.7700613887106 423.06617978196203,527.8387567613482 424.5011853565226,501.74005748201375,C 425.9361909310833,475.6413582026792 420.5891714841561,449.4692523342239 411.40955736790045,424.9960827448798,C 393.05032913538525,376.04974356614997 360.6426156723681,333.9133408606736 332.1600522394192,290.0778648100945,C 290.7935506872539,226.41364117537486 258.6732549250475,155.4260927708842 250,80M 250 , 80C 233.08250974019052,159.03488443903086 193.08232101732648,231.25312409383218 145.89252127941518,296.8720027468352,C 119.94094674054807,332.9584712204914 92.35287597693554,368.30072833308054 73.02111562285603,408.3257263912816,C 63.355235445814756,428.33822542038206 55.887656647963574,449.52697151696026 52.362645899417785,471.47016308540134,C 48.83763515087199,493.4133546538425 49.343672034976294,516.1201905965148 55.042082136138376,537.6017519761176,C 60.331131039148474,557.5401254228678 70.12793440171944,576.3389729697435 83.90277848923292,591.6936609953989,C 97.6776225767464,607.0483490210543 115.40722300829562,618.8760261171471 134.97538682529873,625.4028736587586,C 154.54355064230182,631.92972120037 175.8791934824351,633.1145868934207 196.0256796154547,628.6838002259589,C 216.17216574847427,624.2530135584971 235.05839898649043,614.2218611002075 250,600,C 263.8060848391735,616.5586765403991 282.5093744246919,628.9790402977044 303.12213812791504,635.2966126060445,C 323.73490183113813,641.6141849143846 346.165677165211,641.802428932169 366.9173936935458,635.9574303450304,C 387.66911022188054,630.1124317578918 406.64792836262507,618.2839718604672 421.3015827842828,602.4704283155611,C 435.95523720594053,586.656884770655 446.25392511910934,566.9640383362067 451.5701309210618,546.0706014904578,C 457.1174326221772,524.2689252434614 457.2974052783951,501.26309122701406 453.35370715712844,479.11511415301555,C 449.4100090358618,456.9671370790171 441.4362381195292,435.66454979601684 431.25363873886164,415.60463172053926,C 410.8884399775234,375.48479556958284 382.23550348361323,340.2885461109604 355.45922978837075,304.1309225667358,C 305.83672848868815,237.12265465992473 264.6711262567305,162.08080565800412 250,80M 250 , 80C 254.60586847761203,118.75258188541156 250.92454181861183,158.41947165338823 239.69358577976192,195.79382453971937,C 228.46262974091206,233.16817742605045 209.66053032813082,267.94084184708163 187.28195237825193,299.91232720763026,C 156.05975891950956,344.5183742641547 117.35166938820001,384.1198576884878 91.70276560939563,432.1475427600134,C 78.87831371995435,456.16138529580377 69.63487460422851,482.44088405646045 67.80738905362007,509.6032016335864,C 65.97990350301166,536.7655192107125 71.94536480893885,564.7516088508347 86.7261623608793,587.6133503270845,C 104.01449782733077,614.3535485199841 133.66578878380432,633.0891261284269 165.39826310390512,635.7301138452207,C 197.13073742400587,638.3711015620144 229.82470748746476,624.6349815228214 250,600,C 261.6327179224031,617.886349724044 278.5814069665564,632.264948492887 298.1184207999008,640.8408871114126,C 317.65543463324514,649.4168257299382 339.6942515589928,652.153597213883 360.7544848325698,648.7318714540468,C 381.8147181061467,645.3101456942105 401.79928147307567,635.7664289617895 417.9109381706129,621.7787146676775,C 434.0225948681501,607.7910003735655 446.21867894274976,589.4575069443133 453.48985575363866,569.3983040564168,C 462.35915534651986,544.9303142613245 463.9014646149027,518.1062732082155 459.7328170676739,492.4164040472407,C 455.56416952044515,466.7265348862659 445.8715829742478,442.1556922037706 433.40327753804814,419.31081620431166,C 408.4666666656353,373.62106420538436 373.2629519502296,334.52567024940896 342.3395611922492,292.65525224869066,C 295.9018285788022,229.77834166832628 260.280619726711,157.48727477750072 250,80M 250 , 80C 262.73002430069937,127.50988225668901 260.5199601945106,178.72587947890779 244.81794557355556,225.33799343637773,C 229.11593095260204,271.9501073938461 200.14384468210545,312.9900037829806 167.617572738113,349.8855870439362,C 142.76143313041902,378.0806956017419 115.82107345211436,404.5883977276892 93.81414094250425,435.05947818606955,C 71.80720843289338,465.5305586444493 54.99918880516896,501.1305531511585 53.873138019823756,538.7008051121508,C 53.14742480863003,562.9139476727097 59.12712680390509,587.4816357353606 72.08683336959155,607.9474349636868,C 85.04653993527802,628.413234192013 104.9887880894034,644.4963022001684 127.9653177965744,652.1697639312481,C 150.94184750374728,659.8432256623277 176.71418152549109,658.9459541740188 199.00388822549897,649.4606019111576,C 221.29359492550685,639.9752496482965 239.84865961838412,621.9943906662475 250,600,C 256.6980137490317,620.4866724987933 270.5681292549923,638.5466954356501 288.62212818339145,650.3204060210345,C 306.6761271117906,662.0941166064188 328.7692053178828,667.4938624603875 350.2333147587903,665.5293920066085,C 371.69742419969754,663.5649215528299 392.35958883241716,654.2920959885791 408.38322434083335,639.8764710160559,C 424.40685984924954,625.4608460435327 435.7289357693033,606.0726677227632 441.2278017826457,585.2320916553336,C 447.0624697396691,563.1188339233753 446.431365635863,539.5457341603088 440.9848880058075,517.3336788948897,C 435.53841037575194,495.1216236294705 425.4261773784147,474.2434895365237 413.02682098520296,455.02642735931124,C 388.2281081987704,416.5923030048823 354.89043944306223,384.56511102385844 325.3560277361804,349.6383792001667,C 293.88092049707166,312.41662443582834 266.5303406637991,270.80481468965036 252.20905369940286,224.21037142510045,C 237.88776673500797,177.61592816055082 236.77002475054786,126.91597977607168 250,80M 250 , 80C 234.72245092305025,158.52663006899832 195.98203864140837,230.74746330759194 148.3670388308389,295.0331298968978,C 118.22337223191347,335.73050905193384 84.98727039818834,374.6612011270237 62.05140454504809,419.8149757608535,C 50.583471618472466,442.39186307776913 41.89136954731209,466.56247776355417 38.44311916137265,491.64910559204105,C 34.994868775433204,516.7357334205279 36.950352638001505,542.7453487752538 45.71335779083849,566.5032751835179,C 53.08119720385763,586.4786812810082 65.26663210413301,604.7349086121892 81.29932357654823,618.744002463186,C 97.33201504896346,632.7530963141828 117.17192324916572,642.4226451967122 138.14076077852621,646.1117858883877,C 159.1095983078867,649.800926580063 181.11680702508167,647.474424742732 200.80770821409953,639.376874697192,C 220.49860940311737,631.2793246516519 237.79179023662317,617.443093783761 250,600,C 258.66337561469504,617.8018334437801 272.82308905798624,632.878873354884 290.0396891992451,642.653740646944,C 307.256289340504,652.428607939004 327.44279884283424,656.8540475385086 347.178765855939,655.2884942628191,C 366.9147328690435,653.7229409871297 386.0960249571315,646.196045999866 401.8164419677509,634.1616020985633,C 417.53685897837033,622.1271581972607 429.7458344698416,605.6838534879873 437.2753999262711,587.3736105884866,C 445.91742508434015,566.3581109951174 448.4094167150296,543.0510265992594 445.86148699778107,520.4713039227614,C 443.31355728053256,497.8915812462634 435.8722304272314,476.04357287361904 425.737341888865,455.7059265912567,C 405.46756481212606,415.0306340265264 375.1543901942253,380.4078668470622 347.1601793388104,344.6074835174153,C 317.49007233011093,306.6638811837289 290.1466365326561,266.335685872643 272.46073411669926,221.53344191435608,C 254.77483170074336,176.7311979560696 246.73067780328185,128.0556317234367 250,80M 250 , 80C 258.46628174356783,128.40046176395361 253.1347622933715,178.9677264297194 235.85016541316338,224.96256675136965,C 218.56556853295675,270.95740707301786 189.44131795604073,311.52046303618135 157.81913375033045,349.12791032505345,C 134.68033644339178,376.6462845900237 110.198100611755,403.2663755096056 90.88638249180892,433.5933009431921,C 71.57466437186228,463.9202263767783 57.78008800881406,498.9111338988625 58.6382828802233,534.8545389206639,C 59.1807895826231,557.5761127508158 65.69109761868322,580.2764125502553 78.24070094735919,599.2255995284366,C 90.79030427603516,618.174786506618 109.37277093456655,633.1644266643686 130.7512321177522,640.8797120304596,C 152.12969330093875,648.5949973965502 176.13192544183033,648.9161519485142 197.6424998552175,641.5772542623927,C 219.15307426860463,634.2383565762711 237.98715680281578,619.2939324441932 250,600,C 259.8393985188178,618.0736789586443 275.1639561526933,633.1112011216493 293.4135208323438,642.6204084132962,C 311.6630855119943,652.1296157049431 332.7507049826979,656.067053828189 353.21451271891806,653.8981353771455,C 373.678320455138,651.7292169261021 393.41639792870274,643.4860442523623 409.54248593766454,630.7024250527979,C 425.66857394662634,617.9188058532336 438.13454149322405,600.6934860010534 445.81646364971647,581.6026581956951,C 454.4723120170089,560.0914651214964 457.07569980246416,536.3662109781785 454.71716986834923,513.299081226454,C 452.35863993423436,490.2319514747294 445.1727903734206,467.82662570614133 435.27740650238815,446.8567302252878,C 415.48663876031816,404.91693926357635 385.57464096694434,368.75307080927746 357.59465550659263,331.7700886773412,C 329.6317917905256,294.80973747792336 303.3338845119844,256.24621195019597 284.2754495949988,213.9997284692875,C 265.2170146780135,171.75324498837932 253.31259983775905,126.22787027651705 250,80M 250 , 80C 251.23981368259217,128.28334420012092 242.08022272809103,176.67767678454686 224.38095849158626,221.61713061524307,C 206.68169425508228,266.5565844459363 180.27716960889268,307.435150722173 153.8019598514187,347.83170668196186,C 133.22246602060312,379.2324276498475 112.5955859271854,411.2166851834796 100.99335242774043,446.92255334909,C 95.19223567801697,464.7754874318958 91.76900687140564,483.4966799873543 92.06452150736342,502.2661467354765,C 92.36003614332121,521.0356134835987 96.45192331231722,539.83273306721 104.81130242465451,556.6404988843896,C 117.51291163375323,582.1789593632027 140.5408906972344,602.660731446813 167.80993444190736,611.023930199663,C 195.07897818658031,619.3871289525131 225.9333290426996,615.3081412706309 250,600,C 258.0493064804482,620.2694977862473 272.954480514983,637.7418064473355 291.69261200024465,648.9009418871408,C 310.43074348550635,660.060077326946 332.8695148934169,664.8324425892795 354.54370955444,662.4089820224556,C 376.2179042154628,659.9855214556319 396.9727502082282,650.4183732369709 413.1632149425435,635.8062985379505,C 429.3536796768588,621.1942238389302 440.920906081533,601.6905755616469 446.74076998897937,580.6721774442436,C 453.91874857564846,554.7489575868551 452.39491653419054,526.8379371247852 444.72762431532504,501.05520386402117,C 437.06033209645955,475.2724706032572 423.5123812526016,451.54560853280253 407.5864750990644,429.86838044538536,C 375.73466279194554,386.5139242705333 334.96052586345576,350.3419593115301 302.8928248364406,307.14694376219774,C 278.90845957110207,274.8401366822199 259.7521654903017,238.55827058070275 250.06908309962114,199.50423780175186,C 240.3860007089406,160.45020502280096 240.20524553497862,119.02617513738724 250,80M 250 , 80C 249.16698575002303,127.9333704613352 238.28997543256108,175.5509223866397 219.23541524586133,219.542122104489,C 200.18085505916238,263.53332182233623 172.81323186937655,303.3265624530584 145.07544789681543,342.4279339995347,C 125.24315778511303,370.385096873191 105.26242760227436,398.57123835851115 91.33566390585602,429.8916460819588,C 77.40890020943726,461.21205380540647 70.06049285513316,496.3572816880036 76.44400884511475,530.0347728449252,C 79.9597805340818,548.5829162428205 87.60517574525679,566.4051844604812 99.11586077799979,581.3684195436714,C 110.6265458107428,596.3316546268616 125.98799298326377,608.3548604407034 143.4014396206722,615.6463726490149,C 160.8148862580806,622.9378848573264 180.21595983043224,625.4525792925547 198.89686239491863,622.7289505634524,C 217.57776495940502,620.0053218343501 235.46999129273973,612.0529299775933 250,600,C 259.367496429605,617.5046936489744 273.9855181920257,632.1536902634389 291.4638180035274,641.5703417278589,C 308.9421178150291,650.986993192279 329.2012514837287,655.1300252573812 348.982451854835,653.4363898239874,C 368.7636522259412,651.7427543905935 387.9723339253042,644.2395977839824 403.8404725950271,632.3078559052144,C 419.70861126475,620.3761140264464 432.1886182717025,604.105267691853 440.1261999298345,585.9074907253225,C 449.3487614671919,564.7637563808712 452.44266597869097,541.1822050293276 450.43398057129815,518.2022501496242,C 448.4252951639054,495.2222952699208 441.458242923145,472.8530194595333 431.7010994016133,451.9505963071973,C 412.1868123585444,410.14575000251995 382.2628690562724,374.25971947770665 354.3453232769818,337.5301236316019,C 325.80188928557914,299.9770807225789 299.0760015081537,260.6284795916143 280.4190449221384,217.30554540317289,C 261.76208833612367,173.98261121473183 251.10291339234112,127.15657152293227 250,80M 250 , 80C 264.1849718287612,125.17608440286659 264.20956051757275,174.49885955956375 251.1947852758445,220.02585872670602,C 238.18001003411794,265.552857893846 212.27437560303483,306.3158150867649 183.30338503193315,343.769436181214,C 158.00056752482774,376.48085269999825 130.17831642601112,407.85317669219 112.01461228867021,445.00622766346845,C 102.93276021999503,463.5827531491103 96.44407903597485,483.5931835652251 94.64510465773235,504.19248033240694,C 92.84613027948986,524.7917770995888 95.88604765538584,545.9594566266949 104.62995453836416,564.6974241935844,C 116.83720019172449,590.8572376722611 140.71097496215089,611.6183459995233 168.70838520024532,618.6538067264755,C 196.70579543833975,625.6892674534278 227.91769816765392,618.5936718661433 250,600,C 277.99650419249946,614.0013505302992 312.06404760023,615.1558612112573 341.01965536525785,603.2640639278014,C 369.97526313028567,591.3722666443457 393.15297662282995,566.8452119059025 404.8225351169787,537.7993263414273,C 413.2415547989417,516.8441306183007 415.9331795630376,493.79355008886677 413.94569160306565,471.297994709886,C 411.9582036430937,448.8024393309052 405.42006232337224,426.86935411551434 396.3986024045792,406.16637410940325,C 378.35568256698775,364.76041409717493 351.04969860711657,328.20680435890824 326.66993393228825,290.1853951898625,C 285.9517170108908,226.68338822418173 255.19976115892865,155.2558340716349 250,80M 250 , 80C 243.06729323085986,124.90791370321185 228.86405160920341,168.62348584460335 208.72367493889425,209.3561307857322,C 188.58329826858534,250.08877572686072 162.38604411844298,287.49223565101056 135.2608880296138,323.94781195256724,C 110.84345181441667,356.7642759801455 85.57744503267011,389.36936014256736 67.73320004732653,426.1758055495827,C 49.888955061981626,462.98225095659785 40.23945976090872,505.1566666621277 48.94881995409193,545.1226340296516,C 53.600589504909856,566.468917332381 63.43822299911501,586.761888287895 77.91542489693356,603.1238379273511,C 92.39262679475209,619.4857875668072 111.48038009943568,631.7943500654197 132.4725977456907,637.846586766554,C 153.46481539194582,643.898823467688 176.2543596287437,643.6354847446349 197.05706900008718,636.960902090587,C 217.85977837143065,630.2863194365391 236.57009021701202,617.2319556062306 250,600,C 258.7661396057747,619.0565129026083 273.6485712962067,635.2388553712736 291.8977186962967,645.5812200314953,C 310.1468660963867,655.9235846917169 331.6558547768002,660.368767031244 352.5233946131423,658.2376478947594,C 373.3909344494841,656.1065287582749 393.491248791314,647.4396427388158 409.59824920057406,634.002365283494,C 425.70524960983414,620.5650878281722 437.76524365127864,602.4806054216664 444.6518912416842,582.667226796082,C 452.05758245366013,561.3605224757579 453.53198094857544,538.2033091631184 450.2870609750138,515.8808898120258,C 447.04214100145214,493.5584704609331 439.2057107996655,472.0657130539823 428.86228771039373,452.0199277084994,C 408.1754415318452,411.92835701753023 378.11608597161245,377.6096006349064 350.28008088715836,342.10697444722626,C 320.7516203907704,304.4457550401871 293.479837525847,264.499648719579 275.35825845877986,220.2062429053055,C 257.23667939171344,175.91283709103243 248.23554027830698,127.82451367658999 250,80M 250 , 80C 259.5373345949076,119.39379575418673 258.63714799204286,161.18446863160332 247.97298346921946,200.2882726681412,C 237.30881894639623,239.3920767046789 216.9258651497711,275.3219773400073 192.2671965412209,307.4900042852753,C 165.54193084691588,342.35397365123487 133.78557412849267,373.2058225332741 108.09683172166453,408.84042229161844,C 95.252460518247,426.6577221707894 84.0126794611594,445.7805208677797 76.45788133531998,466.4047559293111,C 68.90308320948056,487.02899099084243 65.13542459920878,509.2012187389524 67.00011055075123,531.0863048228042,C 68.77187330161331,551.8807878244219 75.71438528579606,572.3158125107487 87.66186551006972,589.4274279470685,C 99.60934573434339,606.5390433833883 116.54791322007736,620.1909425460451 135.96425282867477,627.8430940574515,C 155.38059243727236,635.4952455688576 177.16442015913157,637.0706011602483 197.44439853649004,632.1439244341191,C 217.72437691384854,627.2172477079898 236.38146861947484,615.8140845320734 250,600,C 261.6135743912238,617.558716188341 278.3548084840233,631.6791304406515 297.61459882895497,640.1787833860649,C 316.8743891738866,648.6784363314782 338.57282522904785,651.5231854371349 359.38960526810837,648.385464428414,C 380.2063853071688,645.2477434196933 400.05093712793246,636.1600692514238 416.22324779639604,622.6826810784175,C 432.3955584648596,609.2052929054112 444.8535571417332,591.4285606674376 452.56482216502985,571.8397879630625,C 461.7174670749501,548.5895066872112 464.1859902083894,522.9635382287388 461.2590570473921,498.1486324154107,C 458.3321238863948,473.33372660208255 450.1672566523661,449.3287775893449 439.16954741452395,426.89226984475204,C 417.17412893883176,382.0192543555601 384.654386150043,343.3327662078317 354.8618956357721,303.2105346899916,C 305.3794715604135,236.57141722967617 264.8638102146404,161.65996212444935 250,80M 250 , 80C 255.61132924187194,118.7179188505909 252.331319968115,158.636204263494 240.96209580803747,196.0702128383119,C 229.59287164796007,233.50422141312976 210.128676550395,268.08594469863124 187.1007334950112,299.71311805667295,C 161.0969972785632,335.4273228076746 130.45610013042028,367.7420262122528 106.55437189103561,404.89584304688884,C 94.60350777133954,423.47275146420617 84.44649352646526,443.35155183546095 78.184935779462,464.5345066372297,C 71.92337803245874,485.71746143899844 69.66740647115424,508.2400947809006 73.10579809062746,530.0598597343544,C 76.1378037462839,549.3007310676883 83.63862316435468,567.8968579569195 95.32281745857303,583.4815873949559,C 107.00701175279139,599.0663168329922 122.85893691967331,611.5470534403861 140.87626724840015,618.9484043837871,C 158.89359757712703,626.349755327188 179.00196149759185,628.6203684505915 198.19630595445133,625.3065596399824,C 217.3906504113108,621.9927508293734 235.5915216128269,613.1072475572947 250,600,C 277.42830685934985,611.2088647442965 309.1635668738526,611.3660980441763 336.756143918838,600.5679334759205,C 364.34872096382344,589.7697689076648 387.36581974638307,568.2538051757247 401.0287685393383,541.9617056721157,C 410.6627844765746,523.4226253110904 415.8040631552622,502.68288382999395 416.90354385734713,481.8189698659933,C 418.00302455943205,460.95505590199264 415.13777397752847,439.9901806816323 409.6785671114261,419.82315749761773,C 398.76015337922047,379.4891111295868 377.98922568882523,342.6051054515304 356.82796511613753,306.5738952883829,C 314.40414843977914,234.33899938801062 273.1410007459414,160.5118282713989 250,80M 250 , 80C 246.92145761947705,127.36151420213272 234.93119706279168,174.04423110836296 215.59184339725232,217.38681813898086,C 196.25248973171344,260.72940516959807 169.4506965981525,300.2833424371524 141.48769762068994,338.6325424143859,C 114.29054466352886,375.93144080529856 85.70675254759959,413.08513271141106 68.83157396231678,456.0516463920165,C 60.39398466967112,477.5349032323216 55.09532437714593,500.4214512975074 55.07674995379908,523.5022418500141,C 55.05817553045224,546.5830324025208 60.47586727887756,569.8232511176574 71.95794590423223,589.8453665897811,C 80.83154680887927,605.3188943161983 93.28804680663298,618.7745235545559 108.25313670284778,628.4810645302778,C 123.21822659906259,638.1876055059996 140.65604758136507,644.0926143696959 158.4542890931497,645.273060219087,C 176.2525306049343,646.4535060684782 194.35226293186156,642.8952682284081 210.34646312376478,634.9986605050575,C 226.34066331566797,627.1020527817069 240.18048510385685,614.8912048041648 250,600,C 276.2348975766745,612.6958470639669 307.64589175750547,614.1648176244669 335.00430251079615,604.1163478611415,C 362.3627132640869,594.0678780978162 385.1615560925228,572.7741129182301 398.12415952095427,546.669988801772,C 408.5000873977052,525.7749185627142 412.7583859006642,502.09056351516637 411.7921419717658,478.78111881417533,C 410.8258980428673,455.47167411318424 404.79221492104244,432.56165439491065 395.9577060849748,410.96963519280416,C 378.2886884128332,367.78559678857994 350.2136971328912,329.8301647227846 325.3189124515559,290.3674601263442,C 285.12868742664784,226.65873566360034 254.89255105146748,155.16727149784904 250,80M 250 , 80C 242.39333837395893,124.43876686318211 227.87995491703154,167.62995078215448 207.74079665293203,207.96702561197935,C 187.60163838883273,248.30410044180388 161.70826798790145,285.45798263849775 135.0553328334121,321.82123811794963,C 111.18254315466308,354.3914726930093 86.61438724656612,386.86811581926213 69.39203622956964,423.39373549597065,C 52.16968521257197,459.91935517267905 43.0488837306053,501.588955172538 51.768377459541036,541.0186482531502,C 56.39535970752421,561.9419375631663 65.99017980764577,581.838126840972 80.05239448927749,598.0074533118392,C 94.1146091709092,614.1767797827064 112.6183577066032,626.5087002964759 133.07055487422042,632.9040604341614,C 153.52275204183766,639.2994205718467 175.82823203169747,639.7032345915295 196.46179234755857,633.9197072106393,C 217.09535266341967,628.1361798297493 235.9618802220493,616.1902499478449 250,600,C 275.47068597154515,616.6784863006352 308.9851497519397,620.2743748481872 337.49091526014655,609.5809618320981,C 365.9966807683534,598.8875488160088 388.596844712845,574.4429861510436 398.6287052589249,545.6977339669777,C 405.9255200920623,524.7894705839776 406.9172714306464,501.93687138894154 403.0077979095801,480.1397385226658,C 399.09832438851384,458.3426056563901 390.4534349038066,437.5934977341824 379.49893113198533,418.34777531294947,C 357.58992358833126,379.85633047047236 327.07333661669907,347.06984308725663 301.38468232030414,310.99091602380776,C 277.67282511013997,277.68833983768707 257.9647330169459,241.00392027016304 248.28064970372182,201.28575964595836,C 238.59656639049817,161.56759902175375 238.9688053381176,119.36529559547638 250,80M 250 , 80C 231.95284598695648,166.48335166476537 186.32036351861066,244.4341485331776 135.20577832857816,316.4922435953765,C 112.02997157122917,349.16402368036603 88.38586061168343,381.9282186023857 72.18487961182468,418.5627848945928,C 55.98389861196489,455.19735118679984 48.002550415131054,496.7247035092887 57.48632996826143,535.6428375622409,C 62.34781559741753,555.5926843877637 71.7245976388433,574.5020428209124 85.15623631498998,590.0333503433895,C 98.58787499113666,605.5646578658667 116.05265526560753,617.6307619493062 135.44185782580263,624.390144684737,C 154.83106038599772,631.1495274201677 176.0712352919971,632.5576480360969 196.15868517376794,628.3003263273627,C 216.24613505553873,624.0430046186284 235.1064252921007,614.135482422066 250,600,C 264.9675538325648,612.4726552143707 283.35942838327037,620.7902304445562 302.60767424994333,623.8068223764221,C 321.8559201166163,626.8234143082881 341.8941820322369,624.5288333465334 360.0038490125536,617.3431004201492,C 378.11351599287013,610.157367493765 394.2309686854404,598.1227667367751 406.5057463887101,582.992511346908,C 418.7805240919798,567.8622559570409 427.1956716459671,549.7147513637295 431.40667139158927,530.6920733984782,C 439.44655287604473,494.37288897758555 431.94984788602926,455.98942681959045 417.0645340340997,421.8991014645508,C 402.17922018216956,387.808776109511 380.552744003715,357.1667943526605 359.24833855054686,326.6734318032473,C 333.2019197281949,289.39274382489543 307.6132339936387,251.53042549717046 288.27874859474946,210.36680923269802,C 268.9442631958608,169.20319296822618 255.71352678447278,125.11785944935377 250,80M 250 , 80C 250.93316120866004,128.22740260106778 241.07636184362633,176.50255376698877 222.36795673471053,220.96319624736145,C 203.6595516257957,265.42383872773166 175.99191913167212,305.4402320942159 147.75303083132047,344.5467320532615,C 127.82116315957349,372.14929111997844 107.64434032817928,399.9015813616441 93.3998104259584,430.8252613460891,C 79.15528052373708,461.7489413305341 71.35117867572112,496.54747076008556 77.2293190871965,530.0829457264346,C 80.49308472552332,548.70310843069 87.94608057399181,566.6479857824457 99.34538384363039,581.7283873103122,C 110.74468711326895,596.8087888381787 126.07620985625618,608.9395372675705 143.50130615719843,616.2695198171922,C 160.92640245814067,623.5995023668138 180.37757453756166,626.0809017196567 199.06761795415315,623.2445480109678,C 217.75766137074464,620.408194302279 235.6143455970272,612.2644026627104 250,600,C 261.4825745838805,620.2370007351348 280.0677293266172,636.3447106180307 301.7212660714608,644.8599947746478,C 323.37480281630434,653.3752789312649 347.9163571090805,654.2354092898082 370.1735525004171,647.4528602748663,C 392.4307478917535,640.6703112599253 412.2265493700759,626.3537508526933 426.09601823486634,607.6715788366558,C 439.9654870996568,588.9894068206183 447.8888226537485,566.147687492414 449.68347219464675,542.9493049873004,C 452.63996650606697,504.7324362630495 439.1835094052244,466.77651932570575 419.3967391258488,433.94736101162005,C 399.60996884647227,401.11820269753434 373.9543803757061,372.3041311224327 349.7501857138325,342.5816333392677,C 319.38980920658815,305.29940866545525 291.25479808810604,265.5857284197056 273.0421788541748,221.08834378948154,C 254.82955962024468,176.59095915925812 246.54931612494613,127.9563292911854 250,80M 250 , 80C 230.0300496971085,169.84759362245143 183.40906470205186,250.9044337327618 136.81635174744605,330.28017369387857,C 118.3159172674208,361.7976703866527 100.64498353064093,394.2690155689786 90.91915006657925,429.49722638301336,C 81.19331660251696,464.72543719704834 80.2613599152061,503.31682205940365 94.32114950439453,537.0502030111629,C 106.39111230155932,566.0094310655713 129.66489704720175,590.4249652253652 158.65661118866586,602.4166874774776,C 187.64832533012998,614.4084097295901 221.71582060746977,613.5766743911514 250,600,C 263.65483705774807,615.961167742642 282.3839924260274,627.5097095879564 302.77242696956137,632.5619553902151,C 323.1608615130953,637.6142011924737 345.08996780705655,636.1440727324268 364.6768083989017,628.5566405968451,C 384.2636489907467,620.9692084612637 401.39767775106657,607.3405315665933 413.5397119774256,590.2003899210781,C 425.6817462037846,573.0602482755629 432.8166997037634,552.5445350555838 434.7501327588391,531.6286251446107,C 436.8280310455193,509.14988803277805 432.99231752137166,486.33417090061715 425.2023091033089,465.1462721780165,C 417.4123006852461,443.95837345541577 405.7798296143867,424.34656742872664 392.51461810703046,406.08060325768497,C 365.9841950923089,369.5486749156014 333.2789637715521,337.88317959011613 306.16471126055427,301.78245321929296,C 282.4895130709435,270.26058658211537 263.06877670726,235.12569701887432 252.77675417408534,197.0702459272635,C 242.48473164091078,159.0147948356527 241.3494684485826,118.46181729309325 250,80M 250 , 80C 265.0258252056367,124.36240893879925 266.1773509515398,173.17248554954716 254.10237947552466,218.42725119712316,C 242.02740799951016,263.6820168446987 216.89884650369973,304.55574169826855 186.8880618688951,340.5161582081885,C 155.97663921611303,377.55576403772227 119.74211414959433,410.2546937685628 92.3478065718032,449.96615763933363,C 78.65065278289757,469.8218895747186 67.32388018893387,491.54421491099095 61.16519322842066,514.8665794465436,C 55.00650626790746,538.1889439820962 54.209854728381394,563.149721944396 60.71157070111439,586.3787942895567,C 66.42412010909788,606.7883637062586 77.82325695596298,625.6838016891916 93.74550985277611,639.671853991201,C 109.66776274958927,653.6599062932105 130.05026335234805,662.5816894277243 151.16683283586423,664.391174924118,C 172.28340231938054,666.2006604205113 193.97103130482117,660.8472713755551 211.74128378449618,649.2972985910662,C 229.5115362641712,637.7473258065774 243.22852630313062,620.0830995736823 250,600,C 272.97827112725747,617.1734189253385 304.0473217485863,622.9116044544159 331.691020003121,615.2465403062718,C 359.33471825765577,607.5814761581275 382.7668121202749,586.8779798917758 395.0146463995065,560.9373203579203,C 404.8846616147325,540.0328323925414 407.7514573913798,516.1597889747582 404.84364901953046,493.22598275084346,C 401.9358406476812,470.2921765269287 393.4792228676055,448.3140089392485 382.28457061759366,428.0879223566994,C 359.8952661175545,387.635749191575 327.3776598708593,353.8611384138357 300.21082879132814,316.449608655312,C 275.58317463735926,282.5347875425152 255.18582696825905,244.94226292182952 245.60324761667283,204.13894671822837,C 236.02066826508718,163.3356305146273 237.3123025447626,119.94694948960247 250,80M 250 , 80C 229.2170249264968,163.78803185092033 184.75240454481263,239.47802457697753 136.3867953009223,310.98420736437015,C 114.05820411493056,343.9959350711224 91.53822479779318,377.3209147570364 76.70501543955558,414.31167104385213,C 61.87180608131695,451.30242733066785 55.55328394500736,492.9088646940879 66.44434722027906,531.2458558549754,C 71.70456118833498,549.7620256081703 80.88287496088847,567.2107364074111 93.5528130582135,581.7018047575643,C 106.22275115553853,596.1928731077176 122.36682766091648,607.6650172355841 140.31552335523264,614.6193479863967,C 158.26421904954879,621.5736787372093 177.96674927048196,623.9783396444847 197.04887679615757,621.4503360027323,C 216.1310043218332,618.92233236098 234.54101767355047,611.4690129806091 250,600,C 259.78646057247676,613.1162811258971 272.9482989773903,623.6907436667468 287.8617929659281,630.4286467651933,C 302.77528695446586,637.16654986364 319.4024677770119,640.0503915376637 335.71869179827087,638.7884585765675,C 352.0349158195298,637.5265256154712 367.9947326942798,632.1296670869953 381.8178289537374,623.3698924944629,C 395.640925213195,614.6101179019305 407.2982511442144,602.5273164734954 415.8363015883939,588.5661798534758,C 427.62162297665424,569.2952135962422 433.3653633322979,546.6053271329212 433.5951346760221,524.0174731878997,C 433.8249060197464,501.42961924287806 428.7073225522755,478.9874956498313 420.42202832244874,457.9727903167265,C 403.8514398627908,415.94337965050613 375.4883503620596,379.83380147043306 348.76225320520996,343.4089268157169,C 320.4451313892845,304.8156519849746 293.64861392846495,264.6209769122261 275.7193370718183,220.23808289328136,C 257.79006021517273,175.8551888743374 248.65207510153743,127.84854593994643 250,80M 250 , 80C 250.68429619999804,156.2066342641958 221.5246269235949,230.31615015852253 178.44443890508737,293.1812181013497,C 147.3063690719088,338.61966592869715 109.57857475752905,380.0400930253874 85.75962624193212,429.70788566313024,C 73.85015198410046,454.54178198203005 65.7639773906317,481.549221874848 65.2090260623636,509.0855617278327,C 64.65407473409553,536.6219015808175 71.99480170149103,564.6040138154085 87.91864515385333,587.0759784197879,C 105.90677121452622,612.4610893286772 135.01957088411265,629.9655985926098 166.01647648918,632.6429812589108,C 197.01338209424733,635.3203639252118 228.9951906330957,622.9515689766794 250,600,C 264.8263769074536,614.4034606258941 283.71173075995415,624.5798315042276 303.8919188752753,629.0565644462079,C 324.0721069905964,633.5332973881881 345.47145922191623,632.2942012514013 365.0386851701988,625.6305086645231,C 384.60591111848123,618.9668160776448 402.26598706214804,606.923133150952 415.86136127289785,591.3524257080247,C 429.45673548364766,575.7817182650974 438.9646875814048,556.7722899379046 443.89501426050924,536.6981023069975,C 454.0853184028054,495.2075296365431 444.335190069627,450.90527094984196 425.84580852793266,412.38965477613385,C 407.3564269862364,373.87403860242495 381.0381123776679,339.76176359746603 356.04479268653847,305.1114549429694,C 307.08250139535676,237.23097621356408 265.51879944909354,162.244952578712 250,80M 250 , 80C 227.35711613008024,161.86665777237124 183.8830552343457,236.1321282962682 137.7500427440249,307.45249707919817,C 116.05829263099663,340.9873462922846 94.41266142377187,375.0198685229284 80.79584417705101,412.5658459743134,C 67.17902693032907,450.1118234256985 62.490559687155205,492.0748520802545 75.01258387613524,530.0000026392324,C 86.34770404024616,564.3304058025084 112.2904938020279,594.0147092909353 145.72463931792606,607.770415165577,C 179.15878483382417,621.5261210402186 219.03124479604512,618.6546973067219 250,600,C 264.2330101019154,610.3882718116683 281.2098430018063,616.9784636254323 298.72280862734146,618.9254620314802,C 316.2357742528766,620.872460437528 334.23301416835614,618.1702920716493 350.4367933513256,611.2469758154111,C 366.6405725342951,604.3236595591729 381.0017109777751,593.2125021341532 391.96206974609134,579.4152087958162,C 402.9224285144076,565.6179154574792 410.4676060339159,549.1956084514435 414.2610998810572,531.9879307398512,C 419.00376077975676,510.47473379564303 417.89075006364294,487.87968082439033 412.5224438150356,466.51401296257274,C 407.1541375664283,445.14834510075514 397.6557127725877,424.98448122975446 386.21655761086197,406.1574739172179,C 363.33824728740177,368.50345929214103 333.18713039412006,335.84288029989915 307.77255374780907,299.8520315389873,C 285.29759034757757,268.024115618838 266.4451909463563,233.26191663244782 255.91447573038414,195.74866232544412,C 245.3837605144121,158.23540801844047 243.16836260313113,118.35973073601451 250,80M 250 , 80C 265.11670407831576,126.50329064683176 264.69254819355365,177.70676542422228 249.95664514668817,224.3321227372602,C 235.2207420998246,270.95748005029594 206.45677458391242,311.9176688082072 174.10563072589974,348.58474224273414,C 150.0495630410113,375.8501027573127 124.0055900638163,401.5224366945831 102.86237687745941,431.10382970786327,C 81.71916369110173,460.68522272114285 65.76178343820753,495.30996306838006 65.14372556800566,531.6653241712347,C 64.76386220420699,554.0096230249284 70.31172656971617,576.5776442792801 82.0017969125912,595.623752617126,C 93.69186725546624,614.6698609549719 111.52564241805038,629.9797444610974 132.34042308410355,638.1134332467856,C 153.1552037501577,646.2471220324735 176.77691984587548,647.0761673930202 198.04713144485103,640.2212358854722,C 219.31734304382658,633.3663043779243 238.04385182487735,618.8802147300522 250,600,C 258.3443980324995,616.4678475015883 271.6454020090445,630.3816137430948 287.71520534868546,639.4689896286635,C 303.7850086883264,648.5563655142322 322.55061144315226,652.7774440500518 340.9701473814202,651.5366073649052,C 359.389683319688,650.2957706797586 377.3752056382164,643.6154333777954 392.28614834061995,632.7304543890244,C 407.1970910430234,621.8454754002535 418.98668935311315,606.8365079412297 426.47819243787154,589.963560321107,C 437.2027474537831,565.808880948318 438.98928538458944,538.1871890112064 433.7850030859642,512.2761862971514,C 428.58072078733903,486.3651835830963 416.7220260997778,462.14505705085014 401.95953103736593,440.22398601351665,C 372.43454091249265,396.38184393879857 332.16492929935333,360.8666772979945 300.0198915854977,318.90770907964543,C 274.20191250959624,285.2074604393602 253.51254849384978,247.00607511831737 244.06172311926588,205.6181940210704,C 234.61089774468223,164.23031292382345 236.47996701080766,120.2428069343066 250,80M 250 , 80C 260.7548564308106,120.44053928467733 260.6360848724131,163.62584575508097 250.29617749994313,204.17446435068322,C 239.95627012747346,244.72308294628525 219.4341604940861,282.0918567340575 194.7122293430385,315.854710207153,C 165.098747307701,356.29797690336613 129.11433291485028,392.38302379294055 105.05936985996243,436.36000517804996,C 93.03188833249226,458.34849587062314 84.25801579678709,482.4222508921214 82.11925621905434,507.39382958269823,C 79.98049664132158,532.3654082732751 84.79115225511448,558.1887981117012 97.59578626705638,579.7339920688518,C 112.7720000683552,605.26962780657 139.49279815017383,623.9473838187723 168.90971246947274,628.0742845691173,C 198.3266267887716,632.2011853194622 229.48083912254947,621.4790641033885 250,600,C 270.610872493353,626.7078116343657 304.9989428388939,642.0767600629306 338.66061232822955,639.8390660658105,C 355.49144707289736,638.7202190672504 372.0121395684881,633.4520569707003 386.46736642076104,624.7586552511298,C 400.92259327303395,616.0652535315593 413.2839680652943,603.9830348979967 422.5704074744149,589.9014561545023,C 435.7375216956171,569.9353800771264 442.6017910741474,546.1130142771881 443.5839094893405,522.2163087665892,C 444.56602790453354,498.31960325599033 439.84364392012805,474.40222717048806 431.6861271232261,451.91952247220917,C 415.37109352941775,406.95411307563893 386.2797336364815,367.9739186223957 358.6385130420909,328.9350753067889,C 332.17064754100153,291.5534100989486 306.6990746140991,253.20075690286953 287.54834617657895,211.59322875942922,C 268.3976177390591,169.98570061598926 255.4406046964365,125.47896896843518 250,80M 250 , 80C 223.89424649246712,158.11159887028643 182.79022626892436,230.11633503860904 141.48651295311132,301.3689526087287,C 119.77033490235989,338.83131145050436 98.63496281150533,377.3280546103835 88.17415049535062,419.34700420230087,C 82.94374433727218,440.35647899826046 80.52688438007922,462.1705215257764 82.35467745399653,483.7439856022632,C 84.18247052791384,505.31744967875 90.34010870042819,526.6191069454698 101.18435915695069,545.3583014803673,C 115.60564760571475,570.2787264344678 138.5374487356126,590.3447566060441 165.51136470046492,600.4149600765054,C 192.48528066531728,610.4851635469666 223.1429333422833,610.3778182176394 250,600,C 271.57302807640207,621.1016516951512 302.705939495602,631.97240802157 332.74060988666275,629.0408863776026,C 362.7752802777235,626.1093647336353 390.97361426863966,609.5592453310045 409.1587587752499,585.4765593528498,C 423.3476798147837,566.6860938913454 431.59019741917916,543.7041144836719 433.98603460092886,520.2804717967484,C 436.3818717826785,496.856829109825 433.09945429364694,473.06277359886235 426.2404083202641,450.53810798844455,C 412.52231637349684,405.48877676759633 385.4634864941545,365.88792989868347 359.22268712502245,326.78487709491105,C 333.9262096475288,289.0890172761215 309.08192765670054,250.87980052305343 289.88519701050535,209.74131303573074,C 270.6884663643105,168.60282554840842 256.9822788124258,124.85685458023869 250,80M 250 , 80C 243.1856495520981,155.56593261963118 211.6592180495376,227.0526055853516 169.90708534415998,290.4040456578077,C 140.6463533928562,334.80200539246016 106.83610855707275,377.01597787454386 87.2812616426312,426.4626888377477,C 77.50383818539237,451.1860443193701 71.62732029204935,477.73556856959885 72.80423430483091,504.29601263854005,C 73.98114831761248,530.8564567074812 82.50514768027722,557.3287595765868 98.66077521817782,578.4436361944944,C 115.89689983251196,600.9706871399618 141.8534016755508,616.8512840280164 169.91298743276616,620.9999781784709,C 197.97257318998152,625.1486723289255 227.6144826783386,617.4195473610004 250,600,C 271.2892785735922,626.8139536614517 306.1665734093714,642.1581945597223 340.3331206049751,639.9517163991509,C 374.4996678005787,637.7452382385794 406.7486167200953,618.2750428754304 426.0292888563998,589.9823375414609,C 440.142385189954,569.2725991520342 447.5731113277928,544.343657197682 448.7244026321523,519.3087359752939,C 449.8756939365118,494.2738147529057 444.94576236111396,469.193993911852 436.3849450319192,445.64011612209447,C 419.2633103735245,398.5323605425632 388.68240653410265,357.7512179459553 359.8254688410562,316.7686831769097,C 309.2950171999387,245.0054900998902 265.90288638217277,166.31558740100536 250,80M 250 , 80C 244.19270879388435,155.48205026701586 213.39856121968913,227.04135538216693 173.05621283170106,291.10194756025356,C 148.2702743866511,330.46013958241844 120.51029779497276,368.4693874596848 103.21599346603033,411.64712549253375,C 94.56884130155382,433.2359945089615 88.73665880543186,456.1211170378917 87.9460917252669,479.3639118280163,C 87.15552464510193,502.60670661814095 91.56025489597965,526.1812742118018 102.01529353492862,546.9549275501573,C 115.08382239806366,572.9214588677542 137.8858972491009,594.0625986994814 165.1880178554174,604.0446528824879,C 192.4901384617339,614.0267070654944 223.79576819180454,612.5851273595736 250,600,C 277.21180771013087,611.1755123394671 308.7040393716546,611.4287357600444 336.1450571230756,600.8284952123532,C 363.58607487449666,590.228254664662 386.5505857147779,569.0048866115037 400.2872133333335,542.9918203452625,C 409.9530309419472,524.6876513052118 415.203679751886,504.18282333682504 416.46038082184964,483.52147447692516,C 417.7170818918133,462.8601256170253 415.054521837187,442.0659110225759 409.80567550322826,422.0429180781577,C 399.30798283530993,381.9969321893195 378.97491998450295,345.3057416895094 358.1188640370357,309.54392591520605,C 315.37218008956154,236.24631681104466 273.39602962925545,161.5625176565724 250,80M 250.56736374025164 , 575.1765327048099C 250.46546609535645,583.4527087852643 250.27633084086216,591.7278107546364 250,600,C 248.32159284077474,650.2444881236067 243.4220774954999,700.381150599492 235.3415192496167,750M 250.975778103926 , 575.7812373617397C 251.07575072580718,583.8638217702955 250.74989046733208,591.9516567211904 250,600,C 244.6855563149287,657.03828622536 217.1877181120405,711.7203707785646 174.5698885816981,750M 249.17506791975416 , 576.5652318665657C 249.96951777543464,584.3469844602171 250.24530732807918,592.1816467004375 250,600,C 249.03328007978453,630.8109746950956 239.80666491382962,661.3243807064708 223.53919262303847,687.5087282128402,C 207.27172033224736,713.6930757192096 184.003907665856,735.4831484028281 156.80994273295858,750M 250.51796730477977 , 575.1445995843003C 249.95387246264565,583.4154034824583 249.78095955471122,591.7128761686556 250,600,C 251.41991078108555,653.7205649705586 269.7906463918986,706.8690402184112 301.84740161917045,750M 249.78925499223044 , 576.9775410690606C 249.81443517744663,584.6520183661974 249.88468512850466,592.3263477856756 250,600,C 250.752538727878,650.0778468610608 253.42521808237686,700.1268102368149 258.0101939407808,750M 249.896060097784 , 576.9945835795585C 250.1127215600096,584.6607931094657 250.14738120814766,592.3321457026664 250,600,C 249.01981397430615,650.9964853984188 239.9231311681701,701.828557727395 223.15666353144945,750M 249.02030121230158 , 576.2004751490391C 249.12532638019934,584.1407054926663 249.4520623047306,592.0780019895325 250,600,C 253.58204413563487,651.7886372134941 266.7175016081769,702.9012046264351 288.5486137873491,750M 249.03742389573208 , 576.2710115191138C 249.0032039805543,584.1897618835659 249.32449329494432,592.1100399856191 250,600,C 254.70236811165458,654.9239498234093 277.08269504181203,708.1966042960743 313.0163650141777,750M 249.00324554885916 , 575.9194980488999C 249.2483094845509,583.9496248254839 249.58058709404693,591.9770899796329 250,600,C 252.6313401155001,650.3346575176726 258.6975939573107,700.4894585364051 268.14259169190456,750M 250.4772447976529 , 576.8787703927154C 250.65931436458374,584.5878552385612 250.50002506592858,592.3049942546418 250,600,C 246.4523767581059,654.5952254974344 225.23196869877893,707.9026620511266 190.2886085941684,750M 250.2756326159628 , 576.961263055057C 250.6244545270165,584.6376853356209 250.5323753259979,592.334120254828 250,600,C 245.89418462256904,659.1212353432561 214.0926398244646,715.7341269073142 165.73947933187455,750M 250.37243883586737 , 576.9280567404733C 249.97932336218685,584.611224802497 249.8550758042765,592.3081466328042 250,600,C 250.98283442107794,652.163948286373 264.5663910751956,704.0468839349768 289.27174653179986,750M 249.95907740421697 , 576.999162319723C 250.4631674115414,584.654774039493 250.47684550271055,592.342643020865 250,600,C 248.0462905710449,631.3733702970289 237.68881649855427,662.1842936272716 220.29431944346555,688.367051628059,C 202.89982238837683,714.5498096288464 178.51151436199083,736.0393581870298 150.34760439733503,750M 250.86716073471803 , 576.4980283728497C 250.90157726737627,584.3394999737861 250.61219544436284,592.1823866746996 250,600,C 245.7662260210415,654.0644465407022 225.70386467502698,706.7945917181708 192.92915007584566,750M 249.24329968288873 , 575.3462380937347C 249.32235293972536,583.5682570051051 249.57466102527763,591.78860966992 250,600,C 252.63759493308788,650.920143263061 261.96539281573297,701.4897886905867 277.6681726867552,750M 249.06721285309996 , 575.6395722838375C 249.40271549695134,583.7587490794374 249.7136464444326,591.878941232607 250,600,C 251.76228124005567,649.9787386498806 252.5936047146676,699.9903018408118 252.49339379206614,750M 250.93641076321796 , 576.3509058029294C 250.15590665766672,584.206084419891 249.84303382645783,592.1077012611335 250,600,C 251.14026155772515,657.3326383062624 278.46287571773587,713.6307362680986 322.79805663736386,750M 250.61028653018903 , 576.7921807565637C 250.43890133392958,584.5289188721199 250.23547016379268,592.264947100623 250,600,C 248.4759283575552,650.0648344863328 245.6093412039511,700.0887932684236 241.4043573617656,750M 250.99902405098726 , 576.0441695092686C 250.23684939133827,584.0038340350204 249.903199028463,592.004513826775 250,600,C 250.66785426247552,655.1628711630455 272.69066637948663,709.7954790945641 310.4661198252235,750M 249.2430617110811 , 576.6534863631083C 249.5273807194483,584.4345759440358 249.77969632789748,592.2168349203556 250,600,C 251.4148580449843,649.9858836817335 251.50905072527905,700.0091425040339 250.28244665335387,750M 250.9866288204034 , 576.1629833450061C 250.4049069984721,584.0955009921896 250.0758084955668,592.0465422882253 250,600,C 249.51071303696395,651.3336023928917 259.715433674869,702.7449267797012 279.7737534277271,750M 250.18556415713726 , 575.0173678493018C 250.2009993692696,583.3452468689679 250.1391410981983,591.6732691308796 250,600,C 249.16196482711803,650.1512021523617 245.5176213825583,700.2553798789734 239.0897018674429,750M 249.82382179929562 , 575.0156417107595C 249.33538762383063,583.335636249522 249.39428268254375,591.6877209142056 250,600,C 254.44548824776587,661.0055844915113 290.31404800751505,718.8761682857344 342.97096402368544,750M 250.81254589140534 , 576.5828972245262C 250.03662772710973,584.3601467570816 249.76502176463532,592.1876735527615 250,600,C 250.90935631158285,630.2333888579777 259.5487199758326,660.2028317108397 274.8724214162749,686.2809624893924,C 290.19612285671724,712.3590932679451 312.1723165408681,734.4917167136826 338.1411031942803,750M 250.97594081919016 , 575.7819644124496C 251.12906893175995,583.8644688203466 250.80299457097897,591.9560255195885 250,600,C 244.01337969201506,659.9707927323025 210.0185165410736,716.5543663836808 159.8814524501667,750M 250.97246522213266 , 575.7669519540041C 250.96525405985668,583.8532054481112 250.64076660053854,591.9391709027262 250,600,C 245.7504838882391,653.4588149479476 227.29742802889643,705.723773831798 197.03988220764307,750M 249.58756717053535 , 575.089011986259C 249.26213895559675,583.391737900813 249.39990127979115,591.7125973513236 250,600,C 254.1195851771165,656.8917412395112 280.98263500289,711.8188892722993 323.3600344853274,750M 249.60641339206308 , 576.9192875404642C 249.9360300754093,584.6077678932775 250.06728380756212,592.304751454126 250,600,C 249.55348928086283,651.067427463661 240.28113609054313,702.0460578145404 222.7169410206807,750M 249.3083917191585 , 576.7222727918671C 249.21369644248182,584.4866333628465 249.44450236243125,592.2549574148194 250,600,C 253.88384624460957,654.1506435390938 274.0611793246385,707.027525112835 307.23862436523405,750M 250.9523889364823 , 575.6951142612943C 250.8210406409532,583.8026092041146 250.50346603411245,591.9070865212157 250,600,C 246.81632904698196,651.1755944233936 236.14934386743602,701.8795775487336 218.44335142316953,750M 250.7731293723615 , 575.3657516467566C 250.6580663881124,583.5808181000599 250.4003047676405,591.7938856688725 250,600,C 247.5291760023482,650.6510685254522 239.6076703619085,701.0344613736848 226.41631936846358,750M 249.71315301751312 , 576.9579764134039C 249.5420961835527,584.6388845908324 249.63778866985865,592.325730404602 250,600,C 252.47949845812363,652.5338056697144 267.6707325464502,704.4233441937798 293.9141526030758,750M 250.9773534443082 , 575.7883865673003C 251.0638834470207,583.8685437670122 250.7375327650794,591.9531078524776 250,600,C 244.82214192183628,656.493307799925 218.5947714608477,710.8126878499797 177.57454953419858,750M 250.98132747745353 , 576.1923444358298C 250.26102606378274,584.1055079478549 249.93338075776185,592.0544004146228 250,600,C 250.45429903034292,654.1837172843517 269.8932395365315,708.0235071499566 304.15773507301606,750M 249.2154404318066 , 576.6200534524992C 249.42494761463453,584.4149985303204 249.68647523538138,592.2085454343957 250,600,C 252.01794515908279,650.1482810839542 256.1912238923711,700.2097868996203 262.50445426668233,750M 249.31772282043667 , 575.2689064011721C 249.68190831633774,583.5080742778821 249.90937578372257,591.7532851615047 250,600,C 250.55260761179153,650.2867509284212 246.0001256119625,700.6281997642424 236.43518778727616,750M 249.18335369791004 , 575.4228615267696C 249.1355263279913,583.6217063563865 249.4080185109969,591.8224146648214 250,600,C 253.85265101045124,653.2202154795118 271.50980487741367,705.3823346170282 300.77579522913686,750M 250.6368003779831 , 576.7710287145111C 250.8817536847622,584.5175547100486 250.6689938813023,592.278529006153 250,600,C 244.75511665133672,660.5360015609979 209.7299979615349,717.7762398763476 158.215479912469,750M 249.25078436926086 , 576.6623261573093C 249.14047535196238,584.447553739741 249.39057024283983,592.2378783853485 250,600,C 254.34159563762483,655.2975842497755 277.52514662349245,708.944395225434 314.8227282225223,750M 249.63885023312355 , 575.067492173821C 250.32697325392596,583.3571610291847 250.44773140140603,591.6938781844028 250,600,C 248.34186176592436,630.7610726343535 238.73864735100128,661.0605381241759 222.37496728849078,687.1607869128574,C 206.01128722598025,713.2610357015387 182.9225072000641,735.1056591357567 155.9567581424354,750" stroke="hsl(210,80%, 90%)" fill="none" stroke-width="1"/></svg>