<svg viewBox="0 0 500 800" width="500" height="800" version="1.1" xmlns="http://www.w3.org/2000/svg">
<rect width="500" height="800" fill="hsl(210,80%, 20%)" /><path d="M 250 , 80C 237.42350538606775,157.43060766186946 200.54762274174414,229.1346651602428 153.83477311191848,292.15511342207225,C 124.06180844445846,332.3219110868617 90.79545608444383,370.2902440864778 66.98426591685852,414.25418706861996,C 55.0786708330608,436.23615855969115 45.71822030653166,459.773282628322 41.323536343736286,484.38297620221203,C 36.928852380940896,508.99266977610205 37.64836160294229,534.6928996079056 45.0338124431011,558.5760606386656,C 51.43954761657427,579.2910051937739 62.88443798252965,598.5115575092591 78.51934982697438,613.5346032274324,C 94.1542616714191,628.5576489456057 113.94152108413628,639.2789546596467 135.13963790224778,643.8377060676074,C 156.33775472035927,648.396457475568 178.8486172695602,646.7491606606683 199.11320078728565,639.0362477292905,C 219.3777843050111,631.3233347979127 237.30508603546008,617.57787047588 250,600,C 260.12630190645194,621.3647000391534 277.8152298919461,639.0455933397817 299.173800058051,649.184818089396,C 320.5323702241558,659.3240428390103 345.3797430640469,661.8440084652179 368.38424726838565,656.3864280144893,C 391.3887514727241,650.9288475637612 412.361348923404,637.5904101493087 427.4696488249938,619.4043805620893,C 442.57794872658354,601.21835097487 451.7849107672969,578.3929224145877 454.5657350154806,554.9140081602123,C 457.54006881901887,529.8012638424831 453.30383904382927,504.1241167039164 444.3254687374566,480.4833583534709,C 435.34709843108396,456.84260000302544 421.78351139575835,435.1614871426542 406.3997861545189,415.0906728481478,C 375.63233567202076,374.9490442591345 337.97251394108326,340.44292245376414 307.7154797513539,299.9151759458122,C 284.34754692951054,268.6150276272248 265.3803270140854,233.69502672934516 254.96269484447814,196.04887806695848,C 244.54506267487096,158.4027294045718 242.69093943774985,118.37104641300667 250,80M 250 , 80C 232.37682322078223,165.05287823994604 187.9056560783037,242.08054465530475 136.1351379847518,311.8256657249241,C 109.35403164030073,347.90510964698007 81.22164246044844,383.4923771897171 61.83467250101712,424.02753879726083,C 52.14118752129991,444.29511960103264 44.7749886169397,465.7949455272758 41.513185398406115,488.0232860513227,C 38.25138217987253,510.25162657536964 39.18710307659939,533.2155800183701 45.45592765477112,554.7896459563785,C 51.51959431044694,575.65766397544 62.62539975169032,595.1280490109128 78.00742534428969,610.4784730449142,C 93.38945093688906,625.8288970789155 113.01237296758816,636.9519002949438 134.16888125195237,641.9162115833961,C 155.3253895363166,646.8805228718483 177.91645132749522,645.63931563595 198.35783824512646,638.2642271457203,C 218.79922516275772,630.8891386554906 236.9976965901997,617.4121318451969 250,600,C 273.3640271038313,614.6269271426039 302.6032513885427,619.5002035815611 329.47517476189336,613.3581766880694,C 356.34709813524404,607.2161497945776 380.4011806685433,590.2221714704632 395.94108862003054,567.4551773561118,C 410.28200428949873,546.4447863254529 417.4346677021463,520.9268867123112 417.9239963760561,495.49346478468067,C 418.41332504996586,470.0600428570501 412.4886061020962,444.78334434979905 403.03777480845804,421.16597401863856,C 384.1361122211746,373.9312333562812 352.2860885712962,333.2528425075848 324.77051035244955,290.45930877541684,C 284.01539666783356,227.0750208513546 254.05361214753648,155.24702967987335 250,80M 250 , 80C 250.14551620109032,118.12031726832811 243.16539201230836,156.21759022974783 229.88011424235765,191.94826554071875,C 216.594836472407,227.67894085168965 196.97265924915197,260.800860401451 174.37752510526295,291.5032980346819,C 146.00024644652362,330.0625569739076 112.7280334487543,365.02498158686177 86.87378986808332,405.31945370015956,C 73.94666807774306,425.46668975680745 63.00374476716549,447.053838021147 56.37884799867406,470.0567148262645,C 49.75395123018267,493.0595916313821 47.57406465674785,517.5197812080388 51.70307188701997,541.0988587514234,C 55.475075287756475,562.639232918779 64.57742454764198,583.3236198323725 78.53555805532224,600.157699489622,C 92.49369156300249,616.9917791468715 111.28113882456566,629.8457192138594 132.15314671943588,636.3706724980847,C 153.02515461430622,642.8956257823097 175.86984542768548,643.0264184102235 196.77237056633362,636.5998974421544,C 217.67489570498176,630.1733764740853 236.5225937916569,617.2213603069027 250,600,C 270.34652769039843,621.8851668789061 301.6479234234307,632.9668427034765 331.25847067001314,628.9472394728542,C 360.86901791659557,624.9276362422319 387.7791521534523,606.1242097999124 403.02684546528815,580.4249964453772,C 413.9249240548752,562.0568379901645 419.1201642556413,540.5568875269041 419.1341512396736,519.1990513456592,C 419.1481382237058,497.8412151644142 414.1348380528968,476.6666066154236 406.1454548805753,456.8593574751102,C 390.16668853592887,417.24485919447363 363.09388819748665,383.31002470349677 337.63096872095383,349.01324381002274,C 308.6972680894579,310.041562188427 281.5543110186647,269.0546866545895 265.1649607941879,223.3672682566597,C 248.77561056971308,177.67984985873147 243.13434373152302,128.05011721786917 250,80M 250 , 80C 250.46525033560334,156.2242714077094 220.53870289942992,230.367333955538 175.59349623609128,291.93261968947013,C 144.08078004339956,335.0982767346715 106.01015714445167,373.4321235808925 77.42191459133177,418.5878277356177,C 63.127793314757234,441.1656798129803 51.39254031011011,465.6138966196858 45.34569293214291,491.6430522779906,C 39.29884555417571,517.6722079362954 39.1602932682944,545.3253180938804 47.035035565537925,570.8609743660166,C 53.46408802406975,591.7086500790109 65.24844149199504,610.9737624144602 81.37280828406077,625.6694452398227,C 97.49717507612648,640.3651280651852 117.91379213003668,650.3682166200408 139.46751084329054,653.7439399171516,C 161.02122955654443,657.1196632142621 183.59108886559687,653.8219902830549 203.22044472014744,644.3011349179027,C 222.84980057469798,634.7802795527505 239.4310992273524,619.085508497461 250,600,C 256.2344490676629,625.2153961147884 272.81298420125574,647.7004936308653 295.03862824703225,661.1431608942253,C 317.2642722928088,674.5858281575853 344.81645121972224,678.8153260954373 370.11750777597126,672.938158959779,C 395.4185643322208,667.0609918241238 418.13228255561046,651.2605589797724 433.09922218954466,630.0314451405861,C 448.06616182347886,608.8023313013998 455.2717859097141,582.5121355098265 454.8000061446635,556.541729655157,C 454.0390284702476,514.6516349227793 433.95860709984896,475.23478265260275 408.2235833035119,442.1732086744857,C 382.4885595071725,409.1116346963694 351.35653066187405,380.6831427892504 323.5910246670156,349.30742286829735,C 291.2177930697513,312.7248571581637 263.4162261083504,271.1161794045744 249.3450233811431,224.3367876620967,C 235.27382065393712,177.55739591961913 235.1664319948105,126.54326479977234 250,80M 250 , 80C 245.59011382733564,155.6552606260719 215.16857982828998,227.75365324806776 174.00544987246306,291.3835384333675,C 146.18670811674096,334.3856946303244 114.03771617136972,375.29459296568166 95.10932893756782,422.88433962592643,C 85.64513532065264,446.6792129560637 79.78414325690493,472.1616467706796 80.45498756969232,497.7608054584907,C 81.1258318824797,523.3599641463019 88.58551574659857,548.997828718604 103.2996534290343,569.9563856793792,C 119.17933237392504,592.5751189594397 143.572123568738,609.2528062468356 170.6169529109754,614.9403808121998,C 197.66178225321283,620.627955377564 226.89733718104415,615.1670125357949 250,600,C 258.28801933941577,622.0493994936567 274.51612228668614,641.0131125035582 295.0077935438628,652.6302847795123,C 315.4994648010395,664.2474570554665 340.0713956706403,668.4232199113177 363.2831044536882,664.4127513635822,C 386.4948132367358,660.4022828158472 408.1428662000789,648.2928732946705 424.0933349818562,630.9593846601535,C 440.04380376363343,613.6258960256366 450.2451923063909,591.2819153037963 453.9100278607456,568.0131322896178,C 457.96215111690924,542.285381236134 454.1592725469925,515.6595461025464 445.1403126977475,491.22606005591587,C 436.1213528485025,466.7925740092853 422.0781390582987,444.46659475982176 406.0715097537458,423.92092135981335,C 374.058251144612,382.8295745597936 334.6019873336179,347.92645968789327 303.3254515927589,306.27161818458734,C 279.2358015725941,274.18844369956906 260.0062524352456,238.0670044800716 250.25408416734683,199.14995760849177,C 240.5019158994482,160.2329107369119 240.25934536514535,118.91993024678537 250,80M 250 , 80C 264.7266219146481,122.90064552790452 266.1754475596837,170.114278486841 254.96301269381473,214.06447853310416,C 243.7505778279465,258.0146785793668 220.0195489069126,297.89209126711205 191.82843250948793,333.42517072829435,C 161.79489549306422,371.28050225402296 126.39830233568377,405.3092368098094 102.3094412106065,447.1991668686727,C 90.2650106480483,468.14413189811506 81.29562085513831,491.1366815999127 78.53854199959537,515.1399810365562,C 75.78146314405242,539.1432804731996 79.51386996738424,564.1293657604914 90.9062633821346,585.4360135480811,C 98.42058504737125,599.4896894750702 109.19425012969488,611.8293040307111 122.29573610621827,620.9024458435806,C 135.39722208274165,629.9755876564501 150.79662038292122,635.7372320985789 166.65371782784248,637.3257212460869,C 182.51081527276372,638.9142103935949 198.77576931679178,636.3162934074845 213.32428436250007,629.8115607370147,C 227.87279940820835,623.3068280665449 240.66241277598888,612.9143448143319 250,600,C 259.2703592617891,615.3967099687479 272.8655607636247,628.1561504254547 288.8141348005571,636.4411504189892,C 304.7627088374894,644.7261504125238 323.00866566160335,648.5080062839277 340.9415470105864,647.3205698739777,C 358.87442835956944,646.1331334640275 376.4268808444451,639.9925707842629 391.30739387333716,629.9144474122578,C 406.18790690222914,619.8363240402527 418.35691141811054,605.8808011508534 426.6814719028178,589.9528404703133,C 439.51261611411377,565.4021196413507 442.9925162630199,536.5330570334972 438.85416195765066,509.1423619230047,C 434.7158076522814,481.7516668125122 423.3401440794438,455.8429023678678 408.75049647664696,432.2946893184891,C 379.57120127099694,385.1982632196554 338.5846104206854,346.59094356598916 306.37115491870605,301.51547457671114,C 283.57667942921273,269.6197447631031 264.994466738106,234.38288358078887 254.80198527058766,196.52738180471817,C 244.6095038030694,158.6718800286475 242.80753445744895,118.53821652078634 250,80M 250 , 80C 232.56531864911213,168.62962491565054 186.8803022487378,248.9187330069602 135.14686692864316,322.96486860144944,C 107.2006705201583,362.964297129814 78.15859326861518,403.21723021826415 62.331678083171305,449.37405996219394,C 54.418220490444206,472.45247483416284 50.05460163332214,496.9350787690398 51.4877129023962,521.2904115765598,C 52.920824171470244,545.6457443840798 60.32649114525902,569.8161949893004 74.05426388614127,589.9850893479233,C 93.31509958397523,618.2831802167644 125.54962235264883,637.7697315302447 159.70927984821637,639.9786992497138,C 193.86893734378384,642.1876669691829 228.740567699426,626.8290565778494 250,600,C 263.48276449177024,616.9196757411829 282.3810370119941,629.4504163160591 303.2084957788389,635.3051004956451,C 324.03595454568364,641.1597846752311 346.6676120748592,640.3070692483154 367.05133434181204,633.056949796124,C 387.4350566087647,625.8068303439327 405.4516840956886,612.2378873630319 418.415289491732,594.9172262710591,C 431.37889488777535,577.5965651790864 439.2717112764516,556.6682852247976 441.8655164254063,535.1896320925233,C 446.30232689916596,498.44951180324983 435.2966089193971,461.21438549840013 417.78253489839057,428.61409505127295,C 400.2684608773833,396.01380460414566 376.75047510366437,367.1081175471996 354.1404158069102,337.81124152521323,C 325.2379076336566,300.36095501500296 297.7882961879329,261.3031042058863 278.9720073058903,217.90003736598027,C 260.15571842384884,174.496970526075 249.9102236505818,127.30613996733202 250,80M 250 , 80C 236.6937946144009,155.8782810166715 201.93529779596184,226.45904755084774 159.21300156135385,290.56344705861255,C 129.3111118665176,335.4309483864584 95.85058887402786,378.9502836238308 77.46516164072739,429.63747873438524,C 68.27244802406186,454.9810762896812 63.199029897537564,482.09474834979045 65.28165902356099,508.97348672431747,C 67.36428814958441,535.8522250988444 76.88643290302838,562.3851498746011 93.91273541419521,583.2875168094979,C 112.33049243931595,605.8981050569536 139.55811497766558,621.3549497460393 168.5381168905677,624.6125506823962,C 197.51811880346978,627.8701516187531 227.7022647351289,618.7953046474402 250,600,C 274.5844791898996,611.7931397392758 303.4775472987682,614.2797304052094 329.744114035995,606.9624745133126,C 356.0106807732218,599.6452186214158 379.321004770479,582.6536310633549 395.0020081530637,560.3471097105294,C 408.48965239436683,541.1606828647779 416.4028727757854,518.2950514669063 418.9346502423646,494.97927086348125,C 421.46642770894385,471.66349026005616 418.75347347670987,447.9566838184073 412.68210796621184,425.3033387425633,C 400.5393769452146,379.9966485908666 375.808669466446,339.24340232008626 351.5309932827188,299.1094201071507,C 309.7037408719362,229.96383172520274 270.9303328013711,158.0548051419318 250,80M 250 , 80C 261.6037145489285,126.82314839984826 259.353864043424,176.79981171266581 244.7910637604355,222.78870456001556,C 230.22826347744876,268.777597407362 203.43424810231383,309.84671259212945 174.5098336040637,348.4528217374485,C 150.99180224020182,379.8429017603714 125.94814059836557,410.7101544675455 110.0474983998547,446.5654818367389,C 102.09717730059677,464.4931455213369 96.58492519397859,483.6343252903774 95.26903796932521,503.20157271001597,C 93.95315074467183,522.7688201296546 96.9473565013801,542.744360010354 104.9933996447873,560.6292676283371,C 116.84041850065245,586.9630610233196 140.22405404977937,608.1692896400091 168.02899304218897,615.9606886138281,C 195.83393203459855,623.7520875876471 227.19483151941938,617.7128433887159 250,600,C 263.45222882514815,612.5639817853717 280.6385927693603,621.0754161832768 298.7826351974711,624.1753876402764,C 316.92667762558193,627.275359097276 335.94578800202237,624.9511362731166 352.85539718283337,617.6791890772461,C 369.76500636364426,610.4072418813756 384.48938221635285,598.242093168857 395.0823266324748,583.1886674037946,C 405.67527104859676,568.1352416387323 412.1240501556807,550.2891208202934 414.22368104334737,532.002304563688,C 416.53286157411014,511.89040760244745 413.6426974647131,491.35296323764146 407.1341578049388,472.1837268000482,C 400.62561814516454,453.01449036245486 390.5947982996306,435.1802693172143 378.93231736927055,418.6331471307978,C 355.6073555085451,385.5389027579638 326.11918097637476,357.3095319938517 300.5837618434234,325.88939154035194,C 272.76746121411077,291.6627329482426 249.6516293235155,252.7220825325929 239.67400604658968,209.7609632172764,C 229.696382769665,166.79984390196 233.05766031738688,120.72060737710126 250,80M 250 , 80C 250.65236877858237,118.12868988887172 244.07377224603883,156.32622027110972 231.10365994178713,192.18704519860012,C 218.1335476375355,228.0478701260905 198.73409606416385,261.31084069252825 176.49711972691975,292.29050274752586,C 150.02750450692253,329.16690724627534 119.3598008656389,363.1134436918585 95.91039283774882,401.9803319361163,C 84.18568882380023,421.4137760582447 74.38946947464963,442.15662477851964 68.62999109739721,464.1101175185041,C 62.87051272014478,486.0636102584886 61.259041618518594,509.25855818177035 65.42282996826154,531.5697728784455,C 69.10966098767976,551.3252627149099 77.36311633204815,570.2886615072799 89.82293442711178,586.056509638281,C 102.2827525221754,601.8243577692821 118.93053727752735,614.3041064825451 137.6809793041307,621.5354981502242,C 156.43142133073405,628.7668898179031 177.20870279682651,630.7001976437253 196.94934280789263,626.934665331039,C 216.68998281895875,623.1691330183528 235.31460916421753,613.7190159138586 250,600,C 274.2125623225108,616.4223323594655 306.15261198716416,620.777839976923 333.9375668296829,611.6161011274793,C 361.7225216722016,602.4543622780355 384.55424624496465,580.1993933282022 395.78451638682503,553.1841715655172,C 404.47290652735217,532.2836247895176 406.50958828201215,508.9124309537812 403.2049899186684,486.52045452411465,C 399.90039155532463,464.1284780944481 391.4490600434662,442.720354416396 380.4637414241895,422.9303631682239,C 358.49310418562254,383.35038067186184 327.1149355652527,349.92976473388956 300.8066059653333,313.0901704263645,C 276.827821573475,279.51264184824805 256.9209822349734,242.4720360769449 247.30145738423056,202.34851095799007,C 237.68193253348815,162.22498583903536 238.38925499799896,119.59322071799599 250,80M 250 , 80C 267.34190984105265,122.9652087773407 269.9502372036823,171.5471984220517 258.2530888051214,216.37941587287293,C 246.55594040656163,261.2116333236934 220.8264247519877,301.2948716716369 190.2883819794057,336.13994228191876,C 164.13204130579118,365.98532381033004 134.48210065847252,392.74396929975626 109.84752600809905,423.85728940233923,C 85.21295135772337,454.9706095049207 65.82228514742279,492.121351668079 64.78461269751615,531.7928047785631,C 64.19650613605306,554.2768187650672 69.64591820330668,577.0412527832032 81.34445548045747,596.2511715713724,C 93.04299275760826,615.4610903595417 110.99198458656603,630.8969419484026 131.95346683695664,639.0512669443484,C 152.91494908734822,647.205591940294 176.70983120715283,647.9473981235562 198.07387020593944,640.9150022351474,C 219.43790920472605,633.8826063467387 238.17374269824083,619.1315548899082 250,600,C 259.4832376058129,622.712677123437 277.63853831887724,641.670734345492 299.90662751752717,652.1554709202835,C 322.1747167161771,662.6402074950751 348.3067146860656,664.5486231097914 371.93035664094566,657.6405815356958,C 395.55399859582576,650.7325399616018 416.4232418083227,635.1570247911451 430.31903219289626,614.8418947844291,C 444.2148225774698,594.5267647777131 451.1240446385261,569.7529392171332 451.061127275536,545.1400657764474,C 451.0011999986024,521.6968950413624 444.8042597307808,498.4958929000999 434.7782547772304,477.3047374322107,C 424.75224982368,456.11358196432144 411.0032151015862,436.8587280372344 395.8236860364739,418.99346165930774,C 365.46462790623934,383.2629289034569 329.60734680558113,352.4160463964782 300.29202839250894,315.8243056902467,C 273.9976949598918,283.00339556222093 253.0771956869759,245.30027203681792 243.59046689416635,204.32947647327933,C 234.10373810135704,163.35868090974074 236.1533060531379,119.70986249081608 250,80M 250 , 80C 263.2727849227914,126.4467319152262 262.3628202343673,176.68546323333294 248.38446380913413,222.9247460657982,C 234.406107383902,269.1640288982625 207.5242715096224,310.5300934595566 176.62111814199443,347.6577224863113,C 146.87009165362852,383.40116463556 113.1545586167465,416.2836657856299 89.12646991538529,456.100348057608,C 77.11242556469658,476.0086891935983 67.70790813968839,497.70370638844554 63.51326435472187,520.5747420441503,C 59.318620569755346,543.4457776998551 60.52084437142377,567.5030521145919 68.59573353688653,589.3084522121084,C 75.38987064595435,607.6553143107406 87.05856986464529,624.2563691073796 102.4137048169721,636.3802083721863,C 117.76883976929889,648.504047636993 136.75552025923648,656.0384637216573 156.27061939912022,657.4271874103533,C 175.78571853900397,658.8159110990492 195.7107227219561,654.025901591786 212.4025180297137,643.8204316208852,C 229.09431333747128,633.6149616499844 242.45474222485262,618.0509482584604 250,600,C 255.65754260839873,624.3472689388308 270.9723368529168,646.3044570133894 291.84894956002796,660.0508869143813,C 312.72556226713914,673.7973168153732 338.8993089422139,679.1764381499822 363.5464998493671,675.0155159526869,C 388.19369075652,670.8545937553935 411.0175804309436,657.2857678460094 426.96696232693324,638.0396121186583,C 442.9163442229229,618.7934563913071 451.943395149792,594.1815703536107 453.5426149310474,569.2368356539429,C 455.09037624665723,545.0947534655695 449.88401733218217,520.7805608635955 440.32406712804783,498.55798113992836,C 430.7641169239135,476.3354014162612 416.9848017450149,456.1291127497831 401.51937554159,437.5265244936643,C 370.5885231347271,400.3213479814282 333.22511980451225,368.860641473322 302.3405594264159,331.6170283272603,C 273.57361321789296,296.92704074549994 250.51288909240924,256.7641633059543 240.464391832616,212.83285174567115,C 230.41589457282316,168.90154018538797 233.5419219024154,121.95311785696673 250,80M 250 , 80C 260.61269875730227,120.36038774936695 260.4412811561677,163.4152581774826 250.11813607140732,203.8506751995869,C 239.79499098664715,244.286092221691 219.35897130883427,281.5778331349447 194.61022328760632,315.17976381718734,C 164.18119192421176,356.49394268892445 126.87749141232669,392.9789594027404 101.66919017323485,437.6704448803964,C 89.06503955365757,460.01618761924493 79.76257571091476,484.55010352979707 77.3234804255226,510.08924301374543,C 74.88438514013045,535.6283824976938 79.64686476939748,562.1294971016664 92.7438003348692,584.190029964353,C 100.62845023909877,597.4709671311615 111.44085024720262,609.0374632383212 124.31600955466837,617.5686571142309,C 137.19116886213413,626.0998509901406 152.10431186878878,631.5615913419344 167.45977183564574,633.2231705146601,C 198.1706917693596,636.5463288601114 230.21288866817613,623.7207548300203 250,600,C 258.57334315181953,614.9619512308863 271.4736896932301,627.4092640952126 286.72762387914935,635.4516324830643,C 301.9815580650686,643.4940008709159 319.52917078222043,647.1005587247441 336.7246588444535,645.8054186798562,C 353.92014690668645,644.5102786349682 370.6918281594916,638.3319705004039 384.7457281100952,628.3394686308673,C 398.7996280606988,618.3469667613307 410.09604582072996,604.6058188647371 417.56947397430355,589.0652246332528,C 427.4590316139464,568.5004183290569 430.58573949930815,544.996446251588 428.042831507292,522.3194043902461,C 425.4999235152759,499.642362528904 417.4899330694905,477.8093030683483 406.6026747415403,457.7548219048428,C 384.828158085629,417.6458595778164 352.40998558589126,384.57019678912883 323.4701802141883,349.28073519508723,C 292.6573570403565,311.7072986763934 265.46073962245725,270.22631740631954 251.35187758043608,223.7275731690247,C 237.24301553841676,177.22882893173053 236.3937168259746,126.64828251880519 250,80M 250 , 80C 257.0205956928269,119.29120424437201 254.8295686351777,160.13575340285524 244.13523483450862,198.58986526901285,C 233.44090103383965,237.04397713517037 214.23910317829342,272.7283726799699 191.1394111363861,305.27820712538806,C 160.32367709095965,348.70073586182923 122.12180505093517,387.0908911154517 96.61645396632352,433.83062295760305,C 83.86377842398062,457.20048887870473 74.58678716791727,482.8127009323151 72.53868592663294,509.3567520165786,C 70.4905846853486,535.900803100842 76.03757412192773,563.3223478006985 90.23768711435643,585.8420759886851,C 106.86598024926026,612.2126155630694 135.66734831812497,630.8970708167243 166.70011331368752,633.875826723919,C 197.73287830925003,636.8545826311135 229.90972636712397,623.83875826004 250,600,C 271.77307706649805,625.2086430986815 305.7213626828118,639.3219220070665 338.96141896883506,637.1675706145655,C 372.2014752548583,635.0132192220645 403.73175525568854,616.8175080676688 423.43372713225426,589.9590852547898,C 439.02216840889,568.708372411188 447.4023186787509,542.5729751335977 448.8776603541069,516.2591828425327,C 450.35300202946297,489.94539055146777 445.1622820971008,463.53266115141656 436.0614707607668,438.7987263488663,C 417.8598480880929,389.33085674373933 385.2535700499739,346.74751429933707 355.0754536397434,303.5311923697834,C 307.5838410084786,235.52122141843805 267.18867175181646,161.1502247842189 250,80M 250 , 80C 227.12695890541443,164.65777883263843 182.56397368899027,241.52654022194224 135.35084033444943,315.42536000031805,C 109.36141387872019,356.10446357459017 83.23824660273561,397.8281949581404 71.31223004036461,444.60436286507957,C 65.3492217591753,467.99244681855436 63.18300809888269,492.5260132925779 66.82043636642983,516.3866305179299,C 70.45786463397697,540.247247743282 80.0617427871433,563.3503263725117 95.49709899719595,581.9059109077698,C 113.87389384739907,603.9975403907285 140.6179777358159,619.1621832067657 169.14098116207794,622.6528790864188,C 197.66398458833996,626.1435749660718 227.46994837448918,617.8365763511555 250,600,C 257.8752827796113,616.6552190577302 270.89437946965023,630.8320867366014 286.81366769473345,640.1053096459542,C 302.7329559198167,649.378532555307 321.4726149730877,653.7035013412565 339.85259662897266,652.4414890397517,C 358.23257828485754,651.1794767382469 376.1566231318944,644.3559356631079 390.88449684636475,633.2876866339964,C 405.61237056083513,622.2194376048849 417.0954190876003,606.9959624081957 424.1785829615172,589.9887524590285,C 433.1907524847901,568.349854657412 435.04548944612367,544.0597520113912 431.16628435809406,520.942380502718,C 427.28707927006445,497.8250089940449 417.8888498818709,475.878404505236 405.74690655614796,455.82761125758765,C 381.46301990468686,415.72602476227496 347.0252723148068,382.9627581401508 316.94019043636933,347.0081723587825,C 286.04446627692704,310.08479056255214 259.469403345559,268.57488060872595 246.51715611642936,222.2054813639433,C 233.5649088873013,175.83608211916098 234.44522847243744,125.56238555356603 250,80M 250 , 80C 239.42315997689624,156.7583591954699 204.16928332913488,228.37589923066162 158.23172502370232,290.77346319104464,C 127.08437957043066,333.0812947739616 91.51821457046097,372.521839688289 66.38694487082374,418.65782374973503,C 53.82131002099584,441.72581578045924 44.079557588807596,466.5495142236111 39.97272985556482,492.49486836415485,C 35.86590212232207,518.4402225046987 37.588643299997955,545.5213938609469 46.763911125484896,570.1352496303981,C 54.18347169579635,590.0391910982322 66.47082587664707,608.1865096171431 82.60455989465343,622.0038679626341,C 98.7382939126598,635.8212263081251 118.675938519018,645.2135242375912 139.6548284772936,648.5456318484057,C 160.63371843556916,651.8777394592202 182.5593410889092,649.114718805471 202.01006023161713,640.5773720371255,C 221.46077937432506,632.0400252687801 238.35262446254316,617.7638793088935 250,600,C 271.1010141248694,622.1174743787559 302.63075529705685,633.769911814509 333.0605741596786,630.8610299020053,C 363.49039302230034,627.9521479895016 391.96736709535423,610.7005574906534 409.7351095784841,585.8260163482314,C 423.08471130807726,567.1367980768049 430.576195256782,544.5457965582117 432.41803270696374,521.6524267594493,C 434.2598701571455,498.75905696068696 430.61431711012307,475.62564431022037 423.5497543507061,453.7717957028461,C 409.42062883187,410.0640984880862 382.5318231522537,371.8111750805311 356.5804413297831,333.9097138257391,C 330.33146475792785,295.5736215389454 304.74384089213817,256.5002401583499 285.81611041505266,214.0690516070239,C 266.8883799379677,171.6378630556984 254.4718817236292,126.24572430767171 250,80M 250 , 80C 244.94783593986483,126.1113941245689 231.65497278150158,171.2328236416883 211.62181529299482,213.07129434560545,C 191.58865780448838,254.90976504952206 164.70598408506604,293.0584449123553 136.73969053410462,330.0675175138573,C 112.6701092633181,361.9198929140885 87.7262464809512,393.5005960739039 69.80172830052405,429.1745390741918,C 51.877210120095796,464.8484820744794 41.65910105616552,505.72395077047236 49.04288435720853,544.9591174625041,C 53.13820419154885,566.720394819439 62.6243547997654,587.5518535033518 77.01206138643,604.3839281207909,C 91.3997679730946,621.2160027382299 110.6605460645056,633.9106284994148 131.92710396225198,640.07977365355,C 153.19366185999849,646.2489188076848 176.3457228288352,645.8246392465636 197.32195343418553,638.7307978089394,C 218.29818403953584,631.6369563713153 236.97932597750855,617.9105244130652 250,600,C 271.7572270415017,620.6680367508316 302.7184984319618,631.2145475079185 332.5826457464954,628.268808747436,C 362.44679306102904,625.3230699869534 390.5273676935511,609.0509053970306 408.82797556887084,585.2678773504812,C 425.546821238518,563.5404692678574 434.1636161110208,536.117248998009 435.0114994803846,508.71503820569694,C 435.85938284974833,481.3128274133848 429.2687162646592,454.0346487258641 418.6588452134932,428.7555922009069,C 397.43910311115224,378.19747915092705 361.58198298150995,335.457392573045 330.9020427480485,290.01356441854597,C 288.44161129916574,227.12020362825632 256.73336239374555,155.5852161549949 250,80M 250 , 80C 264.5009317523556,122.63456780613117 266.0476738766378,169.45973147303482 255.12717776828688,213.1487021458438,C 244.20668165993632,256.8376728186525 220.95116482532714,296.6688452131202 192.6316538297318,331.68296651685125,C 161.03055549521872,370.7544282588233 122.97672106051684,404.5763295245326 94.43532308847664,445.9356953369283,C 80.16462410243919,466.6153782431272 68.45101726005281,489.33361579715074 62.46699650273651,513.7363539678363,C 56.48297574542021,538.139092138522 56.47248276482453,564.2637436654328 64.45792366509697,588.0867339957689,C 70.90294640686798,607.3141901091178 82.5622683583241,624.858119968386 98.22921043018263,637.7336903576827,C 113.89615250204116,650.6092607469794 133.51214100726574,658.6887355120587 153.73149843079642,660.2414660463824,C 173.95085585432713,661.7941965807057 194.63990691499828,656.781639036481 211.84094184978582,646.0411649359152,C 229.0419767845734,635.3006908353493 242.64395859757323,618.8976729154277 250,600,C 261.97342848172616,619.547933462346 280.7598794671173,634.8253400541001 302.329324320567,642.5870242121491,C 323.89876917401676,650.3487083701981 348.0755416766851,650.5392158016385 369.82938789544585,643.310463008395,C 391.58323411420656,636.0817102151523 410.74582072464744,621.5432704171059 424.02611990250676,602.8585615351925,C 437.3064190803661,584.1738526532791 444.68988612935175,561.5427637612987 446.08763188233735,538.6619639705284,C 448.36026975316724,501.45936685418303 435.0385612007859,464.72012254391865 415.69669189005367,432.8596422170373,C 396.35482257932074,400.999161890156 371.4115087655106,372.98913219868575 347.8162131087237,344.1367468906757,C 317.2333718183357,306.7399736711708 288.878271945148,266.8478644274739 270.89696847791737,222.0092476530517,C 252.91566501068812,177.1706308786303 245.33753746574803,128.08419981387556 250,80M 250 , 80C 244.9763240528159,126.98332002778366 232.03074979572503,173.02898851368434 212.6721735616253,216.13252905322707,C 193.313597327526,259.2360695927688 167.3578176172056,298.9856252963017 141.31422103338684,338.41151473249136,C 117.09163740073487,375.0806783438318 92.60055245757857,412.52757601425304 80.41071667230051,454.7504255311204,C 74.31579877965866,475.861850289557 71.49756151730635,498.0700640751277 73.765242520572,519.9263652790506,C 76.03292352383765,541.7826664829736 83.52209236217287,563.2290574395566 96.37011528358569,581.0551222453411,C 113.41225535947633,604.7003395118604 140.1579234410346,621.3888507155123 169.06232751955307,625.1393523903428,C 197.96673159807153,628.8898540651734 228.34484257636913,619.5085877219482 250,600,C 280.6755895737255,618.3137144163504 320.0902284494503,620.9938754745368 353.0728210414084,607.2631610964642,C 386.05541363336647,593.5324467183915 411.57076644965093,564.0815147876457 422.5903760326662,530.0969280451648,C 435.6102307034859,489.9435653419197 429.00211866260855,445.52935129592805 413.02349410542587,406.45899540699077,C 397.0448695482413,367.3886395180521 372.7575899723011,332.38530760976613 349.47162728452025,297.17773606995297,C 305.2548520824179,230.3234987312987 266.73987265167665,158.3861526228454 250,80M 250 , 80C 224.4052745887364,165.73092847331014 179.01349752063425,243.7920614322482 135.04907040110686,321.7151723418209,C 114.88166983906034,357.4601301114657 95.84342319334243,394.54363192939593 87.3585822619753,434.6987502302193,C 83.11616179629097,454.7763093806317 81.63968925874161,475.53205191042355 84.18203569209712,495.8948362843438,C 86.72438212545262,516.257620658264 93.36011575993959,536.194133320412 104.29972324979639,553.5559160864137,C 119.12583127633424,577.0857974885278 142.06890963922257,595.5657916444379 168.5211595777577,604.1534147848296,C 194.9734095162928,612.7410379252212 224.57593464495557,611.273229299298 250,600,C 263.26431619735314,617.0065352485857 282.09993226552285,629.5887114653706 302.883686403424,635.350645973852,C 323.66744054132516,641.1125804823334 346.2646567053437,640.0213332781599 366.45475326928306,632.4368539892728,C 386.6448498332222,624.8523747003859 404.3018727509731,610.8604185854324 416.6725053331354,593.1931671053101,C 429.04313791529773,575.5259156251877 436.11256973059005,554.3369166784091 437.71770689289,532.8290609034848,C 439.40838494638433,510.17500952990144 435.14551865207164,487.2891320690044 426.9530686171056,466.1007343395368,C 418.7606185821396,444.91233661006925 406.7495684788359,425.36563427724604 393.1464288451332,407.17170594872096,C 365.9401495777184,370.783849291671 332.69896455267207,339.25830201929307 305.2398279436661,303.0608772440618,C 281.2705340578223,271.4638636633806 261.7158092659802,236.084170670954 251.56159369522234,197.7463274511499,C 241.40737812446463,159.40848423134585 240.6904907049531,118.55167121266118 250,80M 250 , 80C 229.4856328520703,164.56132577361353 184.59616495732385,240.8694770286852 135.84200618783956,312.9422810448408,C 113.71506684238585,345.65232267354423 91.44399339044209,378.7014276592146 76.76362914769948,415.3625129384218,C 62.083264904955854,452.023598217629 55.79756527662982,493.2170874754279 66.43910521086677,531.2474161089931,C 71.6343369133918,549.8139365745945 80.77129717899581,567.323913263997 93.42813681753996,581.8673146889284,C 106.0849764560841,596.41071611386 122.24416659651631,607.9249963842727 140.22084458695983,614.8924322878477,C 158.1975225774033,621.8598681914225 177.93993195337174,624.2478731312423 197.04669231025895,621.6714757808705,C 216.15345266714615,619.0950784304988 234.57178736123444,611.5618497402255 250,600,C 263.47248957018314,617.1688680249041 282.19548653859465,630.1557726895942 302.9903731873143,636.7777583239919,C 323.78525983603396,643.3997439583895 346.5473807794821,643.6258227571458 367.51024563887756,637.5565310882613,C 388.47311049827283,631.4872394193769 407.5305669417777,619.1812629088166 421.98719862744673,602.8324462916981,C 436.44383031311577,586.4836296745797 446.2706525091802,566.2132003154051 450.91676813358225,544.8897012104283,C 459.86910728640277,503.8026488542597 449.3677270041307,460.4667638645548 430.48154545115176,422.8954663893068,C 411.5953638981712,385.3241689140583 385.1482187958455,352.1830902477692 359.9628923198922,318.5083285125259,C 333.43552250845534,283.039149317418 308.1634605918543,246.37706282696647 288.889202656596,206.49891087715136,C 269.61494472133796,166.62075892733645 256.2362568350692,123.85057722053878 250,80M 250 , 80C 260.72049022274007,120.4141613039196 260.59359373630883,163.56090345555486 250.26183975958736,204.07618704433895,C 239.93008578286614,244.59147063312284 219.43289353815243,281.9392687817736 194.68114449161942,315.6376999567189,C 164.6847017430439,356.47655379107596 128.0886022507725,392.7457078250468 103.5205748160781,437.06286689510284,C 91.23656109870227,459.22144643015054 82.23479899393521,483.51492954665616 79.98208290776361,508.7503195823742,C 77.729366821592,533.9857096180922 82.55168315214003,560.1174308903467 95.52545374275155,581.8793452519532,C 110.989273493664,607.8180127173492 138.37413553086648,626.6459656794211 168.34024562046693,630.3844730375861,C 198.3063557100673,634.122980395751 229.81872957279091,622.4646503447741 250,600,C 276.1369293832796,610.9491783341663 306.34877015651523,611.7520373525606 333.07288858429615,602.3262706443368,C 359.7970070120771,592.900503936113 382.66253092542877,573.4273532817859 397.0776095393713,549.0300359634049,C 407.8552645403556,530.789006826545 414.03502286249267,509.98041799717686 415.9427342082074,488.8793841667351,C 417.8504455539221,467.77835033629344 415.57035608698914,446.41690333976084 410.50579326454925,425.8440281223885,C 400.3766676196686,384.6982776876413 379.6755768780691,347.0212229832291 358.41184990313656,310.36844845927516,C 315.6901094306545,236.72800327039715 273.6030574035408,161.79827600762388 250,80M 250 , 80C 229.95291995310365,165.10833063824532 185.56866654050003,242.3233610215443 135.59184961391225,314.07035491203345,C 106.7412659076752,355.4884119273297 76.58532177286436,397.06654303774644 60.255671999662816,444.82797272109553,C 52.090847113055695,468.70868756277537 47.650885004587984,494.0652702425501 49.325388277187564,519.2475843849923,C 50.999891549787144,544.4298985274344 58.98233307045659,569.3715999539859 73.57089043258006,589.9659414309698,C 93.27931854409796,617.7878904028977 125.48118234436402,636.7786163825568 159.5062835005231,638.9639022989923,C 193.53138465668212,641.1491882154277 228.26618358029575,626.2702152076838 250,600,C 260.7337708876126,621.1301450297535 279.45823235262606,638.07165662864 301.5423856135935,646.6732286473045,C 323.626538874561,655.2748006659691 348.830580860949,655.4561088352951 371.1176668057549,647.3949261345365,C 393.40475275056093,639.3337434337793 412.5530319467771,623.1859431402634 424.8230840383348,602.9092893700621,C 437.0931361298925,582.6326355998608 442.48978100190317,558.4925137196094 441.31113019127815,534.8216952142689,C 440.25742281358686,513.6601129456325 434.1141906896168,492.9199073693226 424.7672390341909,473.90524570782577,C 415.420287378765,454.89058404632897 402.94428066845916,437.54795657622054 389.1821357365276,421.4381387553209,C 361.6578458726601,389.2185031135231 329.20322771168605,361.50068520856803 301.5172660922542,329.41986566467625,C 272.16206119934395,295.40482787084227 248.29030014380473,255.75600743935655 238.19725263100918,211.97380509268208,C 228.10420511821437,168.1916027460076 232.0265350176059,121.17894373277846 250,80M 250 , 80C 226.12064360025448,158.78816902931754 185.12929647040934,231.09488530572565 141.73624974198518,301.05803801258395,C 115.85009130991482,342.794615458079 89.64879805858506,385.4313347843051 77.66291419838474,433.0587815280037,C 71.66997226828067,456.8725048998587 69.48331459824973,481.82358706055777 73.14993106638069,506.1045404496746,C 76.81654753451163,530.3854938387914 86.50078261081013,553.9105923680304 102.09417814163712,572.8804313137889,C 119.45457502168001,593.9998810319563 144.17518872972562,609.1060221036087 171.04331761275301,614.1575749891907,C 197.9114464957804,619.2091278747728 226.57972459041002,614.1033767577045 250,600,C 257.71120303649025,617.0733486474716 270.77492911831195,631.6800443450747 286.8784087763974,641.2529137795611,C 302.98188843448287,650.8257832140475 322.03989442377724,655.3163833559164 340.73038484726106,654.0406662878504,C 359.4208752707448,652.7649492197844 377.64096495444505,645.7502066522788 392.5309221166508,634.3813429440726,C 407.42087927885655,623.0124792358663 418.9297406023455,607.3853523264055 425.87706831342894,589.9871764455005,C 434.974649920876,567.2041249644633 436.2022531652083,541.666453463231 431.29321597328067,517.6303393900282,C 426.38417878135306,493.5942253168254 415.5947615066367,471.04372402872747 402.07428455185084,450.57349860723167,C 375.0333306422533,409.633047764216 337.88223772547775,376.5220620233956 306.5758200574067,338.74320660978293,C 276.9265167879402,302.96406531012843 252.34044014820316,262.09320345815604 241.33067773518422,216.94884314466492,C 230.3209153221662,171.8044828311738 233.08838331192692,123.28077353168615 250,80M 250 , 80C 226.47249916981258,156.90422862882798 187.04685674389748,227.77461077576325 145.89417664801545,296.8706352434235,C 123.78568400039964,333.9911568075977 101.76685049253263,371.7989898392193 89.81611196311513,413.31884553438636,C 83.8407426984052,434.0787733819706 80.52513928078257,455.7080998266347 81.35410367116167,477.29495833189264,C 82.18306806154078,498.8818168371506 87.2417135948705,520.4028822526259 97.04540448931803,539.6530065881379,C 110.70843707334798,566.4811755782132 133.90495541653445,588.5404486795538 161.84261293187419,599.7616965294092,C 189.7802704472139,610.9829443792644 222.02246940805207,611.1214609080336 250,600,C 260.6152642738358,616.5118919805943 275.855621837707,630.0135939168306 293.52170549191067,638.5713915718859,C 311.1877891461143,647.1291892269412 331.21764300223174,650.7134702322401 350.76349628871696,648.9007287489101,C 370.30934957520213,647.0879872655801 389.29793416729655,639.8984155833404 405.28435911591697,628.5071632490132,C 421.2707840645374,617.115910914686 434.2140554421366,601.5907189079288 442.9703768147192,584.0221888498322,C 455.29708957363255,559.2900879586314 459.20363747162236,530.7930665188575 456.16935891972577,503.3263991636286,C 453.1350803678292,475.8597318083997 443.438860597851,449.432589956642 430.4538291670835,425.03968892631605,C 404.48376630552224,376.25388686563264 366.45471711812763,335.1407581819606 334.16072799337365,290.2899286004702,C 289.475933150038,228.23038833553807 256.7554316376387,156.17402163122887 250,80M 250 , 80C 253.6446350431694,118.50659514957212 249.289219472603,157.71005457196523 237.650034535775,194.59596798911224,C 226.01084959894703,231.48188140625922 207.07218511645718,265.78083148368694 184.40884212728207,297.1243175560107,C 152.24086116979205,341.6127526292232 112.22686624348432,380.2448042502535 82.58247137397781,426.4531336613636,C 67.7602739391981,449.55729836692205 55.742699960011564,474.7668828873371 50.11092786367978,501.632904300865,C 44.47915576734797,528.498925714393 45.52154987947226,557.0584102969455 55.365706895334625,582.6824719614086,C 62.760693905591296,601.9314135267418 75.09285874777876,619.3412776534218 91.18805950326606,632.2312775334854,C 107.28326025875336,645.121277413549 127.09076868974748,653.3880071755653 147.60753468303835,655.4543801922354,C 168.12430067632917,657.5207532089053 189.24272071875288,653.3539270063095 207.383413902959,643.5497016384402,C 225.52410708716513,633.7454762705707 240.5955733946376,618.3511401414688 250,600,C 264.0225329374978,610.105495744683 280.6994928595522,616.4899565417213 297.8842450713219,618.3438081132055,C 315.06899728309156,620.1976596846896 332.7111000045991,617.5151883453137 348.6040467882651,610.7205789554683,C 364.49699357193117,603.925969565623 378.59284284170127,593.0521237517953 389.3947246538137,579.5587244934109,C 400.1966064659261,566.0653252350264 407.6908521122347,550.0124112167169 411.5769889209087,533.1704868927781,C 419.2682659612713,499.8376650582236 412.57264292523234,464.4599232513059 398.907073818258,433.0993592425342,C 385.2415047112831,401.73879523376223 365.21805577540937,373.63729574878926 345.47681981172394,345.6995729247672,C 317.7072516817351,306.4001846399816 290.57085323907046,266.10991940316467 272.9115640687193,221.34676111778055,C 255.25227489837022,176.58360283239875 246.97357062119565,128.02532205929768 250,80M 250 , 80C 231.39325232494744,163.1221664083598 187.78776573201142,238.39770943020065 137.79228544249048,307.3611603160304,C 112.52102607432982,342.22017645442526 86.2082645145752,376.7836847843641 68.00167590492764,415.80044640534913,C 49.79508729527803,454.8172080263341 40.64257418545793,499.63378039143845 51.55424718331906,541.2837857765226,C 56.896410452499644,561.6748961931327 66.95122438219434,580.89312464399 81.15155710724288,596.4715277365692,C 95.35188983229142,612.0499308291486 113.67176149118129,623.895602487308 133.80712019865334,630.1328632753783,C 153.94247890612536,636.3701240634485 175.812485728788,636.9538372696022 196.2216688874061,631.6811401215624,C 216.63085204602422,626.4084429735226 235.49926492200984,615.299175618801 250,600,C 255.45083889244225,625.6624804745925 271.58396323894146,648.8739562474058 293.7170669016168,662.9594193564935,C 315.85017056429217,677.0448824655813 343.64785822843857,681.8160111366763 369.275426336876,676.2033200185401,C 394.9029944453141,670.5906289004074 418.00301048730955,654.7828120575994 433.1839784914477,633.386252539828,C 448.36494649558585,611.9896930220566 455.6099601669351,585.3910306407664 454.98833299419783,559.1634091626698,C 454.47133825407775,537.3504271299662 448.72045076091433,515.8297678376925 439.6021035623305,496.0073256802176,C 430.4837563637467,476.1848835227426 418.07433446759353,458.0099672437722 404.23975656387876,441.1375660232461,C 376.57060075644563,407.39276358219513 343.4742699624104,378.49688280724587 314.62137984561383,345.75845574072923,C 282.84996203042317,309.7084711210914 256.26848091962074,268.1162265367773 243.7973224245024,221.71046626013518,C 231.32616392938505,175.30470598349308 233.21170542233298,125.02418845728359 250,80M 250 , 80C 256.46013330625755,119.25298455490002 253.89376763467112,159.8942629625351 243.10324941775858,198.183880816626,C 232.31273120084623,236.4734986707167 213.27285524892994,272.0093473325924 190.9404287960583,304.9303565444756,C 165.42860680709194,342.5382236736063 135.39701611984015,377.36086469973066 114.87647575183072,417.90851758129645,C 104.61620556781773,438.18234402208316 96.91721990271034,459.9450670195521 94.24568543100776,482.50973157204635,C 91.57415095930517,505.07439612454067 94.10610414790602,528.4322019619834 103.03680035637291,549.3258337198221,C 114.59430895077664,576.3649718757503 137.3101048880908,598.708591394006 165.0369307978793,608.5021669460386,C 192.7637567076678,618.2957424980713 224.79874337803244,615.1521504018019 250,600,C 255.88803955974063,622.2917355791782 270.08621981490296,642.2802597553992 289.18173474066265,655.201242485407,C 308.27724966642234,668.1222252154147 332.07711855157055,673.8562688392498 354.984406084699,671.2396559783843,C 377.89169361782706,668.6230431175197 399.6793083750884,657.7384600451064 415.9074949747167,641.360534514787,C 432.135681574345,624.9826089844676 442.7406920010781,603.3407195398677 446.77171110156695,580.6395880702572,C 450.78378895627384,558.0451263285638 448.42465070804593,534.5532468211701 441.5594086847639,512.6563310093294,C 434.6941666614819,490.7594151974887 423.45757305250754,470.4153216482524 410.18622411823367,451.6942701934376,C 383.64352624967717,414.2521672838063 349.4664619643422,382.96868456189253 319.5841109030209,348.1337742636752,C 288.05290287119703,311.37673325544506 261.1908377747029,269.68448787458135 247.8695950649009,223.12440157425954,C 234.54835235509992,176.56431527393786 234.97348496062781,126.03803850511387 250,80M 250 , 80C 252.143651633332,118.28920287983644 246.75536550037526,156.94752561589476 234.57138157636064,193.30971525345254,C 222.38739765234604,229.67190489101029 203.38521262250657,263.4938869355328 180.90559847006256,294.5635706651043,C 148.84186905945427,338.8797197423271 109.33832059766904,377.6903673696462 80.03595715424305,423.87884330662325,C 65.3847754325075,446.97308127511405 53.49282907943598,472.10787069231355 47.81984791197026,498.8626504122473,C 42.146866744504536,525.6174301321811 42.961738585521175,554.0303294993221 52.38058252624653,579.7069011553835,C 59.608859851339616,599.4118014441307 71.88538992342217,617.3252800422723 88.06836393061926,630.6909989066022,C 104.25133793781633,644.0567177709321 124.29055948206931,652.766818683646 145.1426120354273,655.1590964246109,C 165.9946645887853,657.5513741655756 187.54895578434372,653.5900307360162 206.13322120671668,643.835228473094,C 224.71748662908965,634.0804262101719 240.2366449845354,618.5797736078758 250,600,C 272.2177362423495,618.4249822010516 303.4595847468642,625.3104303107842 331.41269441217366,618.1179736454394,C 359.3658040774831,610.9255169800946 383.1264919748451,590.0657661871455 395.2509420731916,563.8721508838624,C 403.63412477116,545.761155265375 406.73035114577385,525.403676895626 405.3070791205431,505.4973911752164,C 403.88380709531236,485.59110545480684 398.0677826427977,466.1559378083339 389.73614724244555,448.0211710329936,C 373.0728764417378,411.751637482307 347.00190110000875,380.80079853964986 322.73862354550147,349.1079441387751,C 293.3212868850013,310.6828234786199 266.34661857910936,269.44456903155793 252.19376074512888,223.16750982209834,C 238.04090291115168,176.89045061264085 236.8384676042996,126.5686982740696 250,80M 250 , 80C 258.93847147966954,119.41256050238118 257.82111215172597,160.99770284609383 247.24997629259423,200.00407776602842,C 236.67884043346257,239.01045268596295 216.6890469341011,275.02433418188826 192.0735164944923,307.0761962014872,C 162.18022861402852,346.0002218611187 125.47725474477234,379.2629399002969 95.26286695932767,417.9382447421039,C 80.15567306659862,437.2758971630044 66.75758328267273,458.1451096547146 57.632220751090685,480.92448337594027,C 48.50685821950865,503.70385709716595 43.7902781084696,528.4660391684307 45.847691632534925,552.9188336519874,C 47.85978098245602,576.8329407483498 56.502567661844196,600.3075556279273 71.38190844727144,619.1367414722349,C 86.26124923269867,637.9659273165425 107.34461118472242,651.9186261454872 130.63609744157938,657.7013322347675,C 153.92758369843716,663.4840383240473 179.21919807654498,660.9858678190126 200.84001563839843,650.5708176642876,C 222.46083320025187,640.1557675095625 240.20960726678945,621.9107560777323 250,600,C 270.60707343702774,624.0945280510163 303.14153251888484,637.3863610958527 334.74128698027056,634.8069666668443,C 366.3410414416562,632.2275722378358 395.9698733901037,614.0377666888475 413.833152727015,587.844236782175,C 426.82363306390033,568.7958566505861 433.8245665871324,545.9482768764576 435.1519598624693,522.9302102306008,C 436.4793531378062,499.9121435847439 432.3000837635263,476.7805067422858 424.7498163185378,454.99549293623863,C 409.6492814285577,411.4254653241328 381.98507550372375,373.53472005538987 355.5183691179102,335.77380225443716,C 328.6786022048953,297.480626767279 302.7586478847652,258.21824792262476 283.956069689899,215.40232296401615,C 265.15349149503334,172.5863980054081 253.33649852974347,126.6434149092475 250,80M 250 , 80C 249.56552018339616,128.13856075067957 239.4087350596121,176.05068343227583 221.33495603041138,220.6696067211846,C 203.26117700121134,265.2885300100907 177.07870827607394,306.0606775375728 151.06301291835015,346.5661512283192,C 130.6585015556783,378.3352193546446 110.35734808628685,410.79679148358 99.24701411224555,446.8824985232069,C 93.69184712522397,464.9253520430209 90.55622358452727,483.8079143240521 91.16198685394596,502.67687015771133,C 91.76775012336465,521.5458259913705 96.19176693324148,540.3787525766342 104.86409183271313,557.1476292303985,C 117.89762159593491,582.3493664226856 140.96332431574143,602.4400039691386 168.11658969924198,610.6680435054491,C 195.2698550827425,618.8960830417595 225.8939881618883,614.963310090308 250,600,C 264.9738312183535,609.8680385247492 282.4148520698195,615.9579521306152 300.27566501440623,617.565797471485,C 318.13647795899294,619.1736428123547 336.3736661621073,616.2948574145619 352.90266502785795,609.3388526576855,C 369.4316638936085,602.3828479008091 384.2104523647965,591.3770715005626 395.78320725872317,577.6779784704834,C 407.35596215264985,563.978885440404 415.7080055593938,547.6380356396976 420.4587249513837,530.3457115928773,C 426.35344191534983,508.8893073108104 426.7020979325419,486.09205985748326 422.81919452489666,464.1820613652956,C 418.93629111725147,442.272062873108 410.93172711613346,421.2364862422439 400.7943932554758,401.4284213443714,C 380.51972553415527,361.8122915486233 352.2715214861426,326.9394666422452 327.26814961181594,290.1246423710681,C 284.7648973685079,227.54309256426677 253.60250477575292,155.56453392180822 250,80M 250 , 80C 253.00243018137172,118.4597090681865 248.27958682936782,157.46301269418703 236.578350533057,194.2222955726853,C 224.87711423674625,230.98157845118357 206.16786509851454,265.2248706319874 184.10284068614905,296.86817176011357,C 152.54759910992942,342.1213286434345 113.55703570947193,382.45519003025413 87.79965190100883,431.2418547879885,C 74.92095999673813,455.6351871668827 65.67368996584851,482.3001738431671 63.9184681300316,509.8286058003166,C 62.16324629421469,537.3570377574661 68.27863767021546,565.689880529622 83.29020092531279,588.8317978734927,C 101.01959667111745,616.1635423382907 131.48847280336076,635.2178575866251 163.97694982565835,637.6374835436711,C 196.4654268479559,640.0571095007172 229.78969093648936,625.5518910563925 250,600,C 273.54774520886343,617.0841675552006 305.27123715770153,622.2255929278178 333.06562831040253,613.6327525402409,C 360.8600194631035,605.0399121526639 383.88769397528034,583.1391903399792 395.2233442265763,556.3461293193342,C 403.95535912292723,535.7070479464446 406.04612013766666,512.5551644108934 402.7742423590113,490.3850363131943,C 399.5023645803559,468.2149082154951 391.0649573655768,447.033425259345 380.0702537124362,427.50559241372514,C 358.08084640614214,388.4499267224671 326.60120097593295,355.72451417709266 300.00204062887855,319.6500949149466,C 274.745220460706,285.39618960036466 253.74278910502002,247.33222496037072 244.1017945827327,205.87998474432237,C 234.46080006044608,164.42774452827416 236.2641184708187,120.2810445858101 250,80M 250 , 80C 258.09962597439926,128.04133844579036 253.00747834429833,178.0566617867193 236.62943473121604,223.9405786639445,C 220.25139111813542,269.82449554116556 192.5926734621839,310.714156413763 163.7436927660409,349.9736833261096,C 143.35000867271893,377.7267051030872 122.38015170932104,405.4433648270126 107.96493223103667,436.72169624102025,C 93.54971275275139,468.00002765502796 86.37345316401755,503.72185402258714 94.48875028940179,537.1923562778322,C 98.38885384394719,553.2778332235586 105.74335235957372,568.5652537999556 116.2276100587663,581.3728186272205,C 126.7118677579589,594.1803834544853 140.31206444297666,604.4525976529052 155.58797788345456,610.8243984083194,C 170.86389132393245,617.1961991637337 187.77060455050886,619.6376919313916 204.21592202168935,617.7655515574463,C 220.66123949286987,615.893411183501 236.59829743801953,609.7132767255894 250,600,C 264.22669332410777,615.8495733771503 283.09267147599974,627.4806731159377 303.63934114082133,633.0880026818348,C 324.1860108056429,638.6953322477319 346.32543373046013,638.2561637405621 366.67161237604864,631.9600702138043,C 387.01779102163704,625.6639766870467 405.48221699229924,613.5607058524207 419.63598072439004,597.645972069161,C 433.7897444564808,581.7312382859012 443.60619595913477,562.1068683950673 448.52606232667955,541.3848343708365,C 453.9009092027203,518.7464634233895 453.4840086373073,494.92036013358756 448.7298339702372,472.14355962671027,C 443.97565930316716,449.3667591198329 434.9935636434535,427.6189165285375 423.82790910327276,407.20536767527733,C 401.49660002290625,366.37826996875515 371.0062686136626,330.71552294714405 343.4761211734811,293.1971240700246,C 297.05441326687355,229.93309115549462 260.67387134270575,157.7391876477783 250,80M 250 , 80C 264.51029991029304,125.71838518521847 264.2523393143237,175.7872839214166 250.49435996974688,221.73766533207356,C 236.7363806251722,267.6880467427272 209.6667033122577,308.4629850208694 179.87304901218772,346.05364490970624,C 157.34174556538827,374.4813952014449 133.21763173897543,402.0054860973413 115.75844050641169,433.8012918453637,C 107.0288448901288,449.69919471937493 100.06319831810369,466.6619697618757 96.30010245503493,484.4042431489215,C 92.53700659196618,502.14651653596735 92.04690470230926,520.676382727044 95.83340205512575,538.4136765796145,C 99.29485306845297,554.6283383260383 106.3555052669299,570.1160089705323 116.69271273214096,583.0789962994542,C 127.02992019735203,596.0419836283759 140.6294267228071,606.418419219515 155.95396349775123,612.7473584119854,C 171.27850027269537,619.0762976044556 188.27788190740307,621.3243000794016 204.70949669055778,619.1109464504907,C 221.14111147371247,616.8975928215798 236.9522248102466,610.2299785564906 250,600,C 261.2818611595624,617.1972691566195 277.4945340604555,631.117325834195 296.1952144198992,639.6795108218473,C 314.8958947793428,648.2416958094997 336.01249801723856,651.4137763499194 356.4164400216321,648.8242574080689,C 376.82038202602564,646.2347384662183 396.4284792764458,637.9105592881011 412.6365784865142,625.2486487819637,C 428.84467769658266,612.5867382758261 441.6107186041465,595.6675886605698 449.84198607238795,576.8189098332587,C 460.40448699370023,552.6319679987071 463.45603501848694,525.4927457644939 460.4081566572441,499.27662441682367,C 457.36027829600124,473.06050306915347 448.41990820103183,447.7687716212582 436.4257594749089,424.25888056756884,C 412.43746202264884,377.2390984601764 377.18003676113676,337.1089605159999 345.9220304295789,294.5738530838909,C 299.0452038024438,230.78504852891163 262.21202513477704,158.21326551993212 250,80M 250 , 80C 241.17851106479705,125.69870826872575 226.29465606469603,170.16190414696388 206.62101727824106,212.3417398669392,C 186.94737849178628,254.5215755869135 162.23598654765038,294.1058892082158 138.56114151154128,334.1769799967149,C 117.95001875488424,369.062537641347 98.09703918032432,405.1405548722272 88.9286242060352,444.6090319181706,C 84.34441671888962,464.3432704411433 82.56928286713507,484.83294848634023 84.9412366764843,504.9533103989176,C 87.31319048583352,525.073672311495 93.91636011029378,544.7875045214502 104.94708860033637,561.7809784848793,C 119.94801088596049,584.8907651610965 143.3724707325088,602.5931668718079 169.97448671577308,609.7641260312058,C 196.5765026990374,616.9350851906038 225.92545357404623,613.3979895515782 250,600,C 262.7552699576477,617.3260651453412 281.4126848163404,630.2178255507998 302.1240098955719,636.0428112654153,C 322.83533497480335,641.8677969800307 345.44580572649056,640.588429227867 365.43417700529176,632.6288778124998,C 385.42254828409284,624.6693263971331 402.6478687514567,610.1315234240064 414.26712224406367,592.0240003082513,C 425.88637573667063,573.9164771924962 431.8924376142643,552.4136261395463 432.30389306196105,530.9026952083284,C 432.7119426758736,509.5698215994653 427.74116442781275,488.31652678384086 419.27755901403725,468.7301696876616,C 410.8139536002618,449.14381259148234 398.947814737313,431.17293236261423 385.6537035469895,414.4838758117346,C 359.06548116633644,381.10576270997615 327.0340384139424,352.406774819801 300.00633475792324,319.38352182014563,C 272.85941919153714,286.2146121592013 250.84171484266798,248.10711164697517 241.1872181025199,206.34681608337968,C 231.53272136237234,164.58652051978424 234.39855155696404,119.92150296949828 250,80M 250 , 80C 262.195473689798,120.40077886415301 262.91713894420235,164.1098781886407 252.62755932000476,205.037583505529,C 242.33797969580738,245.9652888224172 221.1202859443071,283.56544721340657 194.801476951614,316.5544272606113,C 165.14615842904317,353.7255132055029 129.09463412565674,385.3664987568455 98.95212877118922,422.14362368462565,C 83.88087609395077,440.532186148513 70.35666900098434,460.36815841167606 60.74259120769019,482.1133048801168,C 51.128513414396025,503.8584513485576 45.53923298939464,527.584204185559 46.274552350704354,551.3484881467125,C 47.03800297989428,576.0219273309364 54.81848108670501,600.6169975743734 69.43906643139736,620.5066919465696,C 84.05965177608971,640.3963863187657 105.49611475601826,655.3041745772005 129.4008403540416,661.4625470995485,C 153.30556595206644,667.6209196218962 179.43086217658154,664.891895949648 201.44143136205543,653.7161945321825,C 223.45200054752928,642.540493114717 241.10567631292776,623.0272113854556 250,600,C 263.9071296870706,615.690183873987 282.69575119711845,626.9864872039514 303.07098938166234,631.9301493137268,C 323.44622756620623,636.8738114235023 345.29749517287536,635.4408320901262 364.9073649946503,628.0217262339218,C 384.5172348164251,620.6026203777176 401.78156275947094,607.2684528789831 414.257061233054,590.4175756327344,C 426.73255970663706,573.5666983864855 434.40324513755695,553.3271425984968 437.05657639122614,532.5293071488444,C 441.6309372883904,496.6736991862157 431.3223222518948,460.2117778973029 414.5954473006492,428.1686654649467,C 397.86857234940305,396.1255530325904 375.2192436944208,367.629818691549 353.31995649255646,338.87272182768754,C 324.5866359639323,301.14149916069107 297.1373589365563,261.9390387005418 278.4121005123288,218.3659556159927,C 259.68684208810237,174.7928725314446 249.61608080674705,127.4246927096006 250,80M 250 , 80C 247.61637055176246,127.80105305259494 236.24065045165713,175.03758273752612 217.55798926676974,219.10095225614333,C 198.8753280818829,263.16432177475883 172.70038026369497,303.5637429585014 146.49233046966657,343.6107214747023,C 123.80765594760179,378.2738375925272 100.99052486640716,413.6878667974174 89.35029050278126,453.44501736344375,C 83.53017332096633,473.3235926464588 80.67503016742953,494.20003220503185 82.40986614234923,514.8403292821739,C 84.14470211726896,535.4806263593159 90.58259915277341,555.8401443249026 101.96736858854959,573.1438590759833,C 117.47374038736078,596.7119985929432 142.4594375905283,614.0915896030149 170.18528331879742,619.3052490957392,C 197.9111290470665,624.5189085884635 227.75578941250515,617.3522293090264 250,600,C 264.26277555561205,615.7800817321322 283.1121762650822,627.3616461498202 303.63002746418516,632.9701689672837,C 324.1478786632881,638.5786917847472 346.24856140866575,638.1919062253987 366.59467301678995,631.9892061317064,C 386.94078462491404,625.7865060380141 405.44574098038413,613.8159547347719 419.70346305108427,598.0313068965336,C 433.9611851217844,582.2466590582952 443.94470835029955,562.7471251410304 449.0787079719366,542.1054247772629,C 454.5610327178658,520.0632523888169 454.56566832575317,496.8268425775793 450.3949764621398,474.4993129873943,C 446.2242845985265,452.17178339720925 437.976049482875,430.738605541665 427.53351430662474,410.5676683469143,C 406.6484439541207,370.2257939574115 377.54231836913516,334.8476550225763 350.64836620272513,298.23661393169346,C 302.7513447654303,233.03385722559412 263.6615997035171,159.74261619849403 250,80M 250 , 80C 255.06395991342248,118.82789961161393 251.67052322206087,158.68587223929887 240.54158847805903,196.22779933046013,C 229.41265373405727,233.76972642162139 210.53223813690246,268.6805235666878 187.92993953476517,300.6552882437599,C 156.27687065764246,345.43389445850323 116.83240844529615,384.83903101222637 90.13502635228419,432.73777977724785,C 76.78633530573723,456.68715415978335 66.9279764746577,482.93976047365675 64.45530958892876,510.24627992310747,C 61.982642703199815,537.5527993725582 67.27463986865337,565.8700605592841 81.55694324086497,589.2746732746256,C 90.22741370301404,603.4830959595015 102.1075150058922,615.7605953096091 116.1939639314771,624.6278547449693,C 130.280412857062,633.4951141803296 146.54317596893026,638.9120418165871 163.1455946123791,640.1020117383747,C 179.74801325582794,641.2919816601622 196.6437203525192,638.2444463236737 211.7596205586797,631.2755228641648,C 226.8755207648402,624.306599404656 240.1728992597108,613.4344491612907 250,600,C 263.933888679792,614.1518796420323 282.18092223695356,623.9952965152246 301.65652250421897,627.8850195610333,C 321.1321227714843,631.7747426068422 341.73897951893076,629.6933869188543 360.0944426634151,622.1101208748019,C 378.44990580789937,614.5268548307495 394.46421952280696,601.5053078372462 405.9317718464466,585.290370438416,C 417.3993241700863,569.0754330395857 424.3062215073224,549.7793563376268 426.44832172135307,530.0349809913049,C 428.8152338653281,508.21844716328314 425.4392067709823,485.9799113195657 418.1649225541777,465.276090162599,C 410.89063833737305,444.57226900563234 399.8280205425183,425.3576486668998 387.1166196824663,407.4695601848517,C 361.69381796235393,371.6933832207545 330.04037377500816,340.7659251715976 303.61433544406543,305.7242616323464,C 279.46032905820965,273.6953757926072 259.67146056803506,237.88622561862016 249.70706187700281,199.0278119692036,C 239.74266318597077,160.1693983197871 239.64938505801047,118.75732605515586 250,80M 250 , 80C 264.38136656574756,122.4264774093121 265.9581974946095,168.98799024481974 255.1753851740456,212.46856807125585,C 244.39257285348197,255.94914589769178 221.37727672062118,295.6583926959644 193.12947104601113,330.4275049111291,C 161.69041806484225,369.12459783340427 123.72106553831252,402.304928962954 93.96023069352607,442.3070759344515,C 79.07981327112111,462.30814942019816 66.38531040030705,484.17981022822494 58.80989952422077,507.93023997814157,C 51.23448864813448,531.6806697280582 48.97406935500024,557.3704088007429 54.30841364652092,581.7222985472652,C 59.10562364112847,603.6221090010174 70.1321917989421,624.2497301039556 86.32636386318812,639.7533978247317,C 102.52053592743414,655.2570655455078 123.8185753607523,665.4421134698536 146.10763192266944,667.8531048058601,C 168.39668848458697,670.2640961418662 191.4818518475945,664.8336552560136 210.26693855031314,652.5970119575433,C 229.0520252530318,640.360368659073 243.3717652607009,621.4168491119353 250,600,C 262.86178875457176,617.545932029002 280.9741350215634,631.1878736054476 301.38328157801857,638.7212710840572,C 321.7924281344737,646.2546685626668 344.40459750252063,647.6466240973085 365.6127848854496,642.7991372572895,C 386.8209722683785,637.9516504172706 406.52515528780367,626.9110922266858 421.98463404110646,611.6045623322335,C 437.44411279440925,596.2980324377812 448.62257441973367,576.8333431447378 454.7256151303785,555.9518145891509,C 461.3965833076897,533.1271245547275 462.0519300053996,508.7449604663479 458.0596267392666,485.3029083756834,C 454.0673234731336,461.8608562850189 445.5468871669171,439.345534937564 434.6044302884872,418.2331942560122,C 412.71951653162233,376.0085128929061 381.7915807321334,339.29256035707476 353.355297820326,301.1710312623374,C 304.2090637564123,235.28585219110954 264.1588418976019,160.9675017524405 250,80M 250 , 80C 256.4847481061353,128.51396892037977 249.8584499460204,178.5551597370262 232.0704587610848,224.15389335992688,C 214.28246757615065,269.75262698282523 185.38577036260017,310.10150242655925 154.57031729452527,348.1286636487253,C 132.52427692088523,375.33411572326617 109.50185216777967,402.01174771167234 91.79904409703158,432.22391587528756,C 74.09623602628295,462.43608403890244 62.10179411158067,497.04103219339265 64.25149150492213,531.9916161635264,C 65.57238631950314,553.4672179276222 72.2972353943427,574.7099939283784 84.39200876053981,592.5050126544587,C 96.48678212673691,610.300031380539 113.94166791545513,624.484277603253 134.01694545198134,632.2256900113778,C 154.09222298850796,639.9671024195022 176.65601621243036,641.1716486380548 197.39446483284294,635.4390241902349,C 218.13291345325555,629.7063997424151 236.90305606242248,617.0709195340258 250,600,C 277.64101482784423,614.2052958458944 311.50515847826244,615.5836323391732 340.28913889545163,603.8661837207512,C 369.0731193126408,592.1487351023293 392.0842401669369,567.7674339158126 403.6516354419933,538.9228244136355,C 417.2070460873792,505.12087354999073 415.29841762425764,466.60903664550676 404.6470906581284,431.7827495362857,C 393.9957636919986,396.95646242706397 375.4818663684151,365.11969159783246 356.51829723891046,334.027826330148,C 332.4065646220147,294.49525011649746 307.6322972908107,255.17883858400592 288.67855910310175,212.93009847748266,C 269.7248209153934,170.6813583709605 256.3615468704622,125.86644692246782 250,80M 250.7913814599018 , 576.6113226520616C 250.01986469614454,584.3793153979605 249.7553237051798,592.1976232513516 250,600,C 250.9538157163983,630.4158176565098 259.7959915716959,660.5508516708753 275.4276239101469,686.6599266941387,C 291.05925624859793,712.769001717402 313.44603693353514,734.7948138356303 339.80574182266014,750M 249.25295877904117 , 576.6647777178789C 249.15070143768858,584.4491417331425 249.40005345786477,592.2381159611489 250,600,C 254.25003926086669,654.9854188441598 276.64556879478215,708.4170753651713 312.87151941033864,750M 249.87211134311357 , 576.9917885316133C 249.53352362663838,584.656994944299 249.57622339443006,592.3390311070076 250,600,C 253.08807658997796,655.8257779784267 277.21959050346726,710.2369280294893 316.5254655273126,750M 249.65998998109743 , 575.0595781866386C 249.2615865709256,583.369529751257 249.3752094505526,591.703997525744 250,600,C 254.45300923443745,659.127295794489 286.3344719868496,715.6232772162189 334.64707210170627,750M 249.0230556837431 , 575.7865057309122C 248.8566742686522,583.8675218243607 249.1831280552245,591.958655329878 250,600,C 256.1935609745705,660.96984827362 292.30833895992,718.1827221711604 344.6852749873012,750M 249.23288347380023 , 575.3584922173261C 249.84426926604507,583.5561112354615 250.1002947536634,591.7802256043221 250,600,C 249.35490324944658,652.8696622629839 233.60925571564272,705.4713135380836 205.0993728748471,750M 249.5115405670702 , 576.8725866045166C 249.36781077876682,584.5841356183626 249.5308021467868,592.3013962422051 250,600,C 253.26498290857288,653.5718770172073 271.71104642164335,706.135779429147 302.6389670476991,750M 249.06111916278354 , 576.3442423180084C 249.66768654668095,584.2141879842549 249.98093640556579,592.1067367103176 250,600,C 250.1256787192338,652.0371551254641 237.22029757770846,704.055873417956 212.7863347123606,750M 250.48070963121995 , 575.1231201619079C 249.93615334872416,583.4020430949402 249.77568717527768,591.7062197863364 250,600,C 251.44872966189357,653.5655748601766 269.39531316619076,706.5720040010534 300.78605688547714,750M 249.13331748407398 , 575.5011398827445C 249.67978494946087,583.6556009290871 249.96887087878912,591.8273081163635 250,600,C 250.19536813747033,651.2922796826897 240.1026947564979,702.6028680890723 220.49534892962663,750M 250.99842260700285 , 576.0561453277274C 251.15070261095767,584.047827163676 250.81707666651607,592.048738874388 250,600,C 243.69822498754593,661.3247945171771 206.83119244928943,718.746084220396 153.69330070222253,750M 249.56486562872544 , 575.0996344748185C 249.3088562259538,583.4003058819803 249.4541266850259,591.7133415089083 250,600,C 253.60705132322445,654.7570318157416 275.2522050917918,708.176519834742 310.7788128581516,750M 249.37307381527478 , 575.2209213397186C 249.69338980302933,583.4772965095923 249.90239051930664,591.7379902162369 250,600,C 250.5927861238535,650.1755026270718 247.06835061004523,700.3990466090888 239.47375503288782,750M 249.04123642029163 , 575.7157951474292C 249.518893208832,583.8032583357108 249.8385623557396,591.9000521781641 250,600,C 251.0039629375541,650.3726838092919 245.8591901192703,700.8649988831706 234.71617073581558,750M 249.10155939133926 , 575.5609049388694C 249.17556563313087,583.7134772126856 249.47519868748762,591.8640000500242 250,600,C 253.33055676879962,651.6336546008667 265.8188202553695,702.6635369313225 286.7086780811072,750M 249.52786718230755 , 576.8815274258114C 249.94816568185118,584.5793224894477 250.10566548506102,592.2914635321789 250,600,C 249.2875283922042,651.9764175388955 236.4090070231382,703.7475940985477 212.68622168294647,750M 250.77742437015928 , 575.3710235706463C 250.91717730333988,583.5868122574101 250.65762833895275,591.8093810004558 250,600,C 245.56172224302205,655.2777913729317 222.39822818116195,708.8844042350497 185.18478553726445,750M 249.2267761182974 , 576.6341331317356C 249.50076684995543,584.4222063810109 249.75850889179884,592.2108512723294 250,600,C 251.5497184591681,649.9852257683225 252.43015827595792,699.9912011085632 252.64100383243994,750M 249.08752602933077 , 575.5908652387646C 249.18190297478014,583.7332812527001 249.48619568079138,591.8732632211086 250,600,C 253.2518197606351,651.4333614162358 264.966801340414,702.3219468351567 284.53126516488845,750M 249.88290130651288 , 575.006879717263C 249.38867586460526,583.329039461301 249.42781538476933,591.6828366398869 250,600,C 254.1208499189241,659.8998663121753 287.5977782097549,717.084485992298 337.8127592998593,750M 249.00590369951516 , 576.1085013611082C 249.4736765799227,584.0658779454388 249.8051068563655,592.0312692205683 250,600,C 251.22917124414266,650.2579749278469 247.00676022905682,700.6474565725981 237.43067736381744,750M 249.05925774018877 , 575.6608776023244C 249.87478091242917,583.7441314275028 250.18916334931558,591.8779135886155 250,600,C 248.65564198373946,657.7225557456713 220.40845016136032,714.262033399199 175.05981750801504,750M 250.10389776479425 , 576.9945879822674C 250.37164671749645,584.6604497766734 250.33697823041146,592.3368692935044 250,600,C 247.65833605717805,653.2511457568704 230.3753110622401,705.7662119608393 200.6340953818551,750M 249.03556039994737 , 575.7356966556202C 249.04696801574994,583.8321572749836 249.3687625824794,591.9281759175932 250,600,C 254.16615465293552,653.2738816255269 272.0803897545469,705.4148728514236 301.5359451760306,750M 250.87915836536862 , 575.5234702857089C 250.88657643286504,583.6894155817796 250.5932588806134,591.8556300730678 250,600,C 246.14685713713507,652.8966727376144 229.4147078629947,704.8093694983634 201.6530146239922,750M 249.77808933117922 , 575.0249329997054C 250.37398690058038,583.3344028776135 250.44815107370616,591.6812534489734 250,600,C 246.83974762444458,658.6617774495454 216.20983383837472,715.2658930959442 168.8312189768698,750M 250.00602366151176 , 576.9999818575865C 250.46484654236275,584.6575398805734 250.46283381773418,592.3426833571698 250,600,C 246.36519553850403,660.1357282678753 212.46393713128077,717.6761798686193 161.6241075692613,750M 249.98405796295728 , 576.9998729176525C 249.88659685494383,584.6661939321682 249.89191150392836,592.3338214577145 250,600,C 250.70950462053915,650.3216280669112 255.85839619696827,700.5798599595284 265.367308147938,750M 249.51900288139632 , 575.1232778251378C 249.50717904881472,583.4176556837423 249.66755748209215,591.7122786100997 250,600,C 252.03790744929307,650.804600038629 260.57526904603424,701.3449426157026 275.33825799772256,750M 250.04499670888208 , 575.0010128648527C 250.34285489443437,583.3306561557804 250.32784189601657,591.6714829324775 250,600,C 247.93708057947566,652.4065405047965 233.27014352777917,704.2738053953709 207.58325482564098,750M 249.53929402049158 , 575.1124471844194C 250.2311725929344,583.3866731192784 250.38517279602885,591.7058362267617 250,600,C 247.24243126782258,659.3804311115672 215.10135476411813,716.6859272911863 165.8691260530377,750M 250.5392560210477 , 575.1578581213573C 249.9036683462724,583.4203005454931 249.72355284495964,591.7177597550569 250,600,C 251.85512122081934,655.578649858323 275.12511212923033,710.1728952093039 313.9352850070843,750M 249.32871682353763 , 576.741200982864C 249.85513939798673,584.4814536198581 250.07912799074623,592.2422702823272 250,600,C 249.46392296088626,652.557138606381 234.70769426376958,704.9014603461283 207.71395576443675,750M 250.91310200486927 , 576.407731196628C 250.2170365476924,584.2501382328669 249.9121650815517,592.1272533211194 250,600,C 250.60695322399542,654.401928787111 270.65416953745125,708.3873969471655 305.701701763576,750M 250.06127302337399 , 576.9981210430637C 250.47182340852666,584.6584861601983 250.45135604205205,592.3419308523712 250,600,C 246.5693805036383,658.2066459172637 216.89701876144545,714.3655883772054 170.74540462538553,750M 249.02692590389952 , 576.2304925237362C 249.11467071208696,584.1609906053915 249.43922144584434,592.0888669340162 250,600,C 253.68904293461645,652.0428417342378 267.7258834824388,703.3315925679974 291.05239546578,750M 249.0130405598909 , 576.1609691385936C 248.98436944964672,584.1167509370737 249.31379974930948,592.0738145824399 250,600,C 254.7549351090932,654.923467727116 277.1503602559509,708.1830141638543 313.07439692560735,750M 249.01623140602024 , 575.8205582169642C 249.78409882799141,583.8544409622774 250.1126741566648,591.9302914007019 250,600,C 249.227887876175,655.2985709384018 226.8464479274456,710.013476957555 188.6416566057117,750M 250.30674160819254 , 575.0482071728557C 249.7234495696453,583.350275865392 249.6209741892229,591.6861011785932 250,600,C 252.58298219511983,656.6574940732716 278.57306058737686,711.8928223352546 320.5800414609249,750M 250.8591741901745 , 576.5116832134612C 250.83653980036573,584.3478064987697 250.54993188679683,592.1831646187194 250,600,C 246.29895581542544,652.607338880048 230.47834069850074,704.3252131839866 204.11465959346313,750" stroke="hsl(210,80%, 90%)" fill="none" stroke-width="1"/></svg>