<svg viewBox="0 0 500 800" width="500" height="800" version="1.1" xmlns="http://www.w3.org/2000/svg">
<rect width="500" height="800" fill="hsl(140,80%, 90%)" /><path d="M2.5,10 L17.5,10M2.5231199970015403,29.411556782041163 L17.47688000299846,30.588443217958837M2.592337445536467,48.82674151219827 L17.407662554463535,51.17325848780173M2.707225597017426,68.24915977108071 L17.292774402982573,71.75084022891929M2.8670761277863486,87.68237254218789 L17.132923872213652,92.31762745781211M3.070903506165349,107.12987425726183 L16.92909649383465,112.87012574273817M3.317451068587241,126.5950712519534 L16.68254893141276,133.4049287480466M3.6051987673443078,146.08126076463037 L16.39480123265569,153.91873923536963M3.9323725421878937,165.59161060780644 L16.067627457812108,174.40838939219356M4.296955257999768,185.12913963752362 L15.703044742000232,194.87086036247638M4.696699141100893,204.6966991411009 L15.303300858899107,215.3033008588991M5.129139637523624,224.29695525799977 L14.870860362476376,235.70304474200023M5.591610607806452,243.9323725421879 L14.408389392193548,256.0676274578121M6.081260764630383,263.6051987673443 L13.918739235369618,276.3948012326557M6.5950712519533985,283.3174510685872 L13.4049287480466,296.6825489314128M7.129874257261826,303.07090350616534 L12.870125742738175,316.92909649383466M7.682372542187894,322.86707612778633 L12.317627457812106,337.13292387221367M8.24915977108071,342.70722559701744 L11.75084022891929,357.29277440298256M8.826741512198268,362.5923374455365 L11.173258487801732,377.4076625544635M9.411556782041163,382.5231199970015 L10.588443217958837,397.4768800029985M10,402.5 L10,417.5M10.588443217958837,422.5231199970015 L9.411556782041163,437.4768800029985M11.173258487801732,442.5923374455365 L8.826741512198268,457.4076625544635M11.750840228919289,462.70722559701744 L8.249159771080711,477.29277440298256M12.317627457812105,482.86707612778633 L7.6823725421878954,497.13292387221367M12.870125742738173,503.07090350616534 L7.129874257261827,516.9290964938347M13.4049287480466,523.3174510685873 L6.595071251953399,536.6825489314127M13.918739235369616,543.6051987673443 L6.081260764630384,556.3948012326557M14.408389392193548,563.9323725421879 L5.5916106078064525,576.0676274578121M14.870860362476376,584.2969552579998 L5.129139637523624,595.7030447420002M15.303300858899107,604.6966991411009 L4.696699141100894,615.3033008588991M15.70304474200023,625.1291396375236 L4.296955257999769,634.8708603624764M16.067627457812105,645.5916106078065 L3.9323725421878946,654.4083893921935M16.39480123265569,666.0812607646304 L3.6051987673443087,673.9187392353696M16.682548931412757,686.5950712519534 L3.317451068587242,693.4049287480466M16.92909649383465,707.1298742572618 L3.070903506165349,712.8701257427382M17.132923872213652,727.6823725421879 L2.8670761277863486,732.3176274578121M17.292774402982573,748.2491597710807 L2.707225597017426,751.7508402289193M17.40766255446353,768.8267415121983 L2.592337445536468,771.1732584878017M17.47688000299846,789.4115567820412 L2.5231199970015403,790.5884432179588M22.5,10 L37.5,10M22.52311999700154,29.411556782041163 L37.476880002998456,30.588443217958837M22.592337445536465,48.82674151219827 L37.407662554463535,51.17325848780173M22.707225597017427,68.24915977108071 L37.29277440298257,71.75084022891929M22.867076127786348,87.68237254218789 L37.13292387221365,92.31762745781211M23.07090350616535,107.12987425726183 L36.92909649383465,112.87012574273817M23.31745106858724,126.5950712519534 L36.68254893141276,133.4049287480466M23.60519876734431,146.08126076463037 L36.394801232655695,153.91873923536963M23.932372542187892,165.59161060780644 L36.06762745781211,174.40838939219356M24.29695525799977,185.12913963752362 L35.70304474200023,194.87086036247638M24.696699141100893,204.6966991411009 L35.30330085889911,215.3033008588991M25.129139637523622,224.29695525799977 L34.87086036247638,235.70304474200023M25.59161060780645,243.9323725421879 L34.40838939219355,256.0676274578121M26.081260764630382,263.6051987673443 L33.918739235369614,276.3948012326557M26.5950712519534,283.3174510685872 L33.4049287480466,296.6825489314128M27.129874257261825,303.07090350616534 L32.870125742738175,316.92909649383466M27.682372542187895,322.86707612778633 L32.31762745781211,337.13292387221367M28.24915977108071,342.70722559701744 L31.75084022891929,357.29277440298256M28.826741512198268,362.5923374455365 L31.173258487801732,377.4076625544635M29.411556782041163,382.5231199970015 L30.588443217958837,397.4768800029985M30,402.5 L30,417.5M30.588443217958837,422.5231199970015 L29.411556782041163,437.4768800029985M31.173258487801732,442.5923374455365 L28.826741512198268,457.4076625544635M31.750840228919287,462.70722559701744 L28.249159771080713,477.29277440298256M32.31762745781211,482.86707612778633 L27.682372542187895,497.13292387221367M32.870125742738175,503.07090350616534 L27.129874257261825,516.9290964938347M33.4049287480466,523.3174510685873 L26.5950712519534,536.6825489314127M33.918739235369614,543.6051987673443 L26.081260764630386,556.3948012326557M34.40838939219355,563.9323725421879 L25.59161060780645,576.0676274578121M34.87086036247638,584.2969552579998 L25.129139637523622,595.7030447420002M35.30330085889911,604.6966991411009 L24.696699141100893,615.3033008588991M35.70304474200023,625.1291396375236 L24.29695525799977,634.8708603624764M36.06762745781211,645.5916106078065 L23.932372542187895,654.4083893921935M36.394801232655695,666.0812607646304 L23.60519876734431,673.9187392353696M36.68254893141276,686.5950712519534 L23.317451068587243,693.4049287480466M36.92909649383465,707.1298742572618 L23.07090350616535,712.8701257427382M37.13292387221365,727.6823725421879 L22.867076127786348,732.3176274578121M37.29277440298257,748.2491597710807 L22.707225597017427,751.7508402289193M37.407662554463535,768.8267415121983 L22.59233744553647,771.1732584878017M37.476880002998456,789.4115567820412 L22.52311999700154,790.5884432179588M42.5,10 L57.5,10M42.523119997001544,29.411556782041163 L57.476880002998456,30.588443217958837M42.592337445536465,48.82674151219827 L57.407662554463535,51.17325848780173M42.70722559701743,68.24915977108071 L57.29277440298257,71.75084022891929M42.86707612778635,87.68237254218789 L57.13292387221365,92.31762745781211M43.07090350616535,107.12987425726183 L56.92909649383465,112.87012574273817M43.31745106858724,126.5950712519534 L56.68254893141276,133.4049287480466M43.605198767344305,146.08126076463037 L56.394801232655695,153.91873923536963M43.93237254218789,165.59161060780644 L56.06762745781211,174.40838939219356M44.29695525799977,185.12913963752362 L55.70304474200023,194.87086036247638M44.69669914110089,204.6966991411009 L55.30330085889911,215.3033008588991M45.12913963752362,224.29695525799977 L54.87086036247638,235.70304474200023M45.59161060780645,243.9323725421879 L54.40838939219355,256.0676274578121M46.081260764630386,263.6051987673443 L53.918739235369614,276.3948012326557M46.5950712519534,283.3174510685872 L53.4049287480466,296.6825489314128M47.129874257261825,303.07090350616534 L52.870125742738175,316.92909649383466M47.68237254218789,322.86707612778633 L52.31762745781211,337.13292387221367M48.249159771080706,342.70722559701744 L51.750840228919294,357.29277440298256M48.82674151219827,362.5923374455365 L51.17325848780173,377.4076625544635M49.41155678204116,382.5231199970015 L50.58844321795884,397.4768800029985M50,402.5 L50,417.5M50.58844321795884,422.5231199970015 L49.41155678204116,437.4768800029985M51.17325848780173,442.5923374455365 L48.82674151219827,457.4076625544635M51.75084022891929,462.70722559701744 L48.24915977108071,477.29277440298256M52.31762745781211,482.86707612778633 L47.68237254218789,497.13292387221367M52.870125742738175,503.07090350616534 L47.129874257261825,516.9290964938347M53.4049287480466,523.3174510685873 L46.5950712519534,536.6825489314127M53.918739235369614,543.6051987673443 L46.081260764630386,556.3948012326557M54.40838939219355,563.9323725421879 L45.59161060780645,576.0676274578121M54.87086036247638,584.2969552579998 L45.12913963752362,595.7030447420002M55.30330085889911,604.6966991411009 L44.69669914110089,615.3033008588991M55.70304474200023,625.1291396375236 L44.29695525799977,634.8708603624764M56.06762745781211,645.5916106078065 L43.93237254218789,654.4083893921935M56.394801232655695,666.0812607646304 L43.605198767344305,673.9187392353696M56.68254893141276,686.5950712519534 L43.31745106858724,693.4049287480466M56.92909649383465,707.1298742572618 L43.07090350616535,712.8701257427382M57.13292387221365,727.6823725421879 L42.86707612778635,732.3176274578121M57.29277440298257,748.2491597710807 L42.70722559701743,751.7508402289193M57.407662554463535,768.8267415121983 L42.592337445536465,771.1732584878017M57.476880002998456,789.4115567820412 L42.523119997001544,790.5884432179588M62.5,10 L77.5,10M62.523119997001544,29.411556782041163 L77.47688000299846,30.588443217958837M62.592337445536465,48.82674151219827 L77.40766255446353,51.17325848780173M62.70722559701743,68.24915977108071 L77.29277440298257,71.75084022891929M62.86707612778635,87.68237254218789 L77.13292387221365,92.31762745781211M63.07090350616535,107.12987425726183 L76.92909649383465,112.87012574273817M63.31745106858724,126.5950712519534 L76.68254893141275,133.4049287480466M63.605198767344305,146.08126076463037 L76.3948012326557,153.91873923536963M63.93237254218789,165.59161060780644 L76.06762745781211,174.40838939219356M64.29695525799977,185.12913963752362 L75.70304474200023,194.87086036247638M64.6966991411009,204.6966991411009 L75.3033008588991,215.3033008588991M65.12913963752362,224.29695525799977 L74.87086036247638,235.70304474200023M65.59161060780644,243.9323725421879 L74.40838939219356,256.0676274578121M66.08126076463039,263.6051987673443 L73.91873923536961,276.3948012326557M66.5950712519534,283.3174510685872 L73.4049287480466,296.6825489314128M67.12987425726183,303.07090350616534 L72.87012574273817,316.92909649383466M67.68237254218789,322.86707612778633 L72.31762745781211,337.13292387221367M68.24915977108071,342.70722559701744 L71.75084022891929,357.29277440298256M68.82674151219827,362.5923374455365 L71.17325848780173,377.4076625544635M69.41155678204116,382.5231199970015 L70.58844321795884,397.4768800029985M70,402.5 L70,417.5M70.58844321795884,422.5231199970015 L69.41155678204116,437.4768800029985M71.17325848780173,442.5923374455365 L68.82674151219827,457.4076625544635M71.75084022891929,462.70722559701744 L68.24915977108071,477.29277440298256M72.31762745781211,482.86707612778633 L67.68237254218789,497.13292387221367M72.87012574273817,503.07090350616534 L67.12987425726183,516.9290964938347M73.4049287480466,523.3174510685873 L66.5950712519534,536.6825489314127M73.91873923536961,543.6051987673443 L66.08126076463039,556.3948012326557M74.40838939219354,563.9323725421879 L65.59161060780646,576.0676274578121M74.87086036247638,584.2969552579998 L65.12913963752362,595.7030447420002M75.3033008588991,604.6966991411009 L64.6966991411009,615.3033008588991M75.70304474200023,625.1291396375236 L64.29695525799977,634.8708603624764M76.06762745781211,645.5916106078065 L63.93237254218789,654.4083893921935M76.3948012326557,666.0812607646304 L63.605198767344305,673.9187392353696M76.68254893141275,686.5950712519534 L63.31745106858724,693.4049287480466M76.92909649383465,707.1298742572618 L63.07090350616535,712.8701257427382M77.13292387221365,727.6823725421879 L62.86707612778635,732.3176274578121M77.29277440298257,748.2491597710807 L62.70722559701743,751.7508402289193M77.40766255446353,768.8267415121983 L62.592337445536465,771.1732584878017M77.47688000299846,789.4115567820412 L62.523119997001544,790.5884432179588M82.5,10 L97.5,10M82.52311999700154,29.411556782041163 L97.47688000299846,30.588443217958837M82.59233744553647,48.82674151219827 L97.40766255446353,51.17325848780173M82.70722559701743,68.24915977108071 L97.29277440298257,71.75084022891929M82.86707612778635,87.68237254218789 L97.13292387221365,92.31762745781211M83.07090350616535,107.12987425726183 L96.92909649383465,112.87012574273817M83.31745106858725,126.5950712519534 L96.68254893141275,133.4049287480466M83.6051987673443,146.08126076463037 L96.3948012326557,153.91873923536963M83.93237254218789,165.59161060780644 L96.06762745781211,174.40838939219356M84.29695525799977,185.12913963752362 L95.70304474200023,194.87086036247638M84.6966991411009,204.6966991411009 L95.3033008588991,215.3033008588991M85.12913963752362,224.29695525799977 L94.87086036247638,235.70304474200023M85.59161060780644,243.9323725421879 L94.40838939219356,256.0676274578121M86.08126076463039,263.6051987673443 L93.91873923536961,276.3948012326557M86.5950712519534,283.3174510685872 L93.4049287480466,296.6825489314128M87.12987425726183,303.07090350616534 L92.87012574273817,316.92909649383466M87.68237254218789,322.86707612778633 L92.31762745781211,337.13292387221367M88.24915977108071,342.70722559701744 L91.75084022891929,357.29277440298256M88.82674151219827,362.5923374455365 L91.17325848780173,377.4076625544635M89.41155678204116,382.5231199970015 L90.58844321795884,397.4768800029985M90,402.5 L90,417.5M90.58844321795884,422.5231199970015 L89.41155678204116,437.4768800029985M91.17325848780173,442.5923374455365 L88.82674151219827,457.4076625544635M91.75084022891929,462.70722559701744 L88.24915977108071,477.29277440298256M92.31762745781211,482.86707612778633 L87.68237254218789,497.13292387221367M92.87012574273817,503.07090350616534 L87.12987425726183,516.9290964938347M93.4049287480466,523.3174510685873 L86.5950712519534,536.6825489314127M93.91873923536961,543.6051987673443 L86.08126076463039,556.3948012326557M94.40838939219354,563.9323725421879 L85.59161060780646,576.0676274578121M94.87086036247638,584.2969552579998 L85.12913963752362,595.7030447420002M95.3033008588991,604.6966991411009 L84.6966991411009,615.3033008588991M95.70304474200023,625.1291396375236 L84.29695525799977,634.8708603624764M96.06762745781211,645.5916106078065 L83.93237254218789,654.4083893921935M96.3948012326557,666.0812607646304 L83.6051987673443,673.9187392353696M96.68254893141275,686.5950712519534 L83.31745106858725,693.4049287480466M96.92909649383465,707.1298742572618 L83.07090350616535,712.8701257427382M97.13292387221365,727.6823725421879 L82.86707612778635,732.3176274578121M97.29277440298257,748.2491597710807 L82.70722559701743,751.7508402289193M97.40766255446353,768.8267415121983 L82.59233744553647,771.1732584878017M97.47688000299846,789.4115567820412 L82.52311999700154,790.5884432179588M102.5,10 L117.5,10M102.52311999700154,29.411556782041163 L117.47688000299846,30.588443217958837M102.59233744553647,48.82674151219827 L117.40766255446353,51.17325848780173M102.70722559701743,68.24915977108071 L117.29277440298257,71.75084022891929M102.86707612778635,87.68237254218789 L117.13292387221365,92.31762745781211M103.07090350616535,107.12987425726183 L116.92909649383465,112.87012574273817M103.31745106858725,126.5950712519534 L116.68254893141275,133.4049287480466M103.6051987673443,146.08126076463037 L116.3948012326557,153.91873923536963M103.93237254218789,165.59161060780644 L116.06762745781211,174.40838939219356M104.29695525799977,185.12913963752362 L115.70304474200023,194.87086036247638M104.6966991411009,204.6966991411009 L115.3033008588991,215.3033008588991M105.12913963752362,224.29695525799977 L114.87086036247638,235.70304474200023M105.59161060780644,243.9323725421879 L114.40838939219356,256.0676274578121M106.08126076463039,263.6051987673443 L113.91873923536961,276.3948012326557M106.5950712519534,283.3174510685872 L113.4049287480466,296.6825489314128M107.12987425726183,303.07090350616534 L112.87012574273817,316.92909649383466M107.68237254218789,322.86707612778633 L112.31762745781211,337.13292387221367M108.24915977108071,342.70722559701744 L111.75084022891929,357.29277440298256M108.82674151219827,362.5923374455365 L111.17325848780173,377.4076625544635M109.41155678204116,382.5231199970015 L110.58844321795884,397.4768800029985M110,402.5 L110,417.5M110.58844321795884,422.5231199970015 L109.41155678204116,437.4768800029985M111.17325848780173,442.5923374455365 L108.82674151219827,457.4076625544635M111.75084022891929,462.70722559701744 L108.24915977108071,477.29277440298256M112.31762745781211,482.86707612778633 L107.68237254218789,497.13292387221367M112.87012574273817,503.07090350616534 L107.12987425726183,516.9290964938347M113.4049287480466,523.3174510685873 L106.5950712519534,536.6825489314127M113.91873923536961,543.6051987673443 L106.08126076463039,556.3948012326557M114.40838939219354,563.9323725421879 L105.59161060780646,576.0676274578121M114.87086036247638,584.2969552579998 L105.12913963752362,595.7030447420002M115.3033008588991,604.6966991411009 L104.6966991411009,615.3033008588991M115.70304474200023,625.1291396375236 L104.29695525799977,634.8708603624764M116.06762745781211,645.5916106078065 L103.93237254218789,654.4083893921935M116.3948012326557,666.0812607646304 L103.6051987673443,673.9187392353696M116.68254893141275,686.5950712519534 L103.31745106858725,693.4049287480466M116.92909649383465,707.1298742572618 L103.07090350616535,712.8701257427382M117.13292387221365,727.6823725421879 L102.86707612778635,732.3176274578121M117.29277440298257,748.2491597710807 L102.70722559701743,751.7508402289193M117.40766255446353,768.8267415121983 L102.59233744553647,771.1732584878017M117.47688000299846,789.4115567820412 L102.52311999700154,790.5884432179588M122.5,10 L137.5,10M122.52311999700154,29.411556782041163 L137.47688000299846,30.588443217958837M122.59233744553647,48.82674151219827 L137.40766255446354,51.17325848780173M122.70722559701743,68.24915977108071 L137.2927744029826,71.75084022891929M122.86707612778635,87.68237254218789 L137.13292387221364,92.31762745781211M123.07090350616535,107.12987425726183 L136.92909649383466,112.87012574273817M123.31745106858725,126.5950712519534 L136.68254893141275,133.4049287480466M123.6051987673443,146.08126076463037 L136.39480123265568,153.91873923536963M123.93237254218789,165.59161060780644 L136.0676274578121,174.40838939219356M124.29695525799977,185.12913963752362 L135.70304474200023,194.87086036247638M124.6966991411009,204.6966991411009 L135.3033008588991,215.3033008588991M125.12913963752362,224.29695525799977 L134.87086036247638,235.70304474200023M125.59161060780644,243.9323725421879 L134.40838939219356,256.0676274578121M126.08126076463039,263.6051987673443 L133.91873923536963,276.3948012326557M126.5950712519534,283.3174510685872 L133.40492874804661,296.6825489314128M127.12987425726183,303.07090350616534 L132.87012574273817,316.92909649383466M127.68237254218789,322.86707612778633 L132.3176274578121,337.13292387221367M128.2491597710807,342.70722559701744 L131.7508402289193,357.29277440298256M128.82674151219828,362.5923374455365 L131.17325848780172,377.4076625544635M129.41155678204117,382.5231199970015 L130.58844321795883,397.4768800029985M130,402.5 L130,417.5M130.58844321795883,422.5231199970015 L129.41155678204117,437.4768800029985M131.17325848780175,442.5923374455365 L128.82674151219825,457.4076625544635M131.7508402289193,462.70722559701744 L128.2491597710807,477.29277440298256M132.3176274578121,482.86707612778633 L127.68237254218789,497.13292387221367M132.87012574273817,503.07090350616534 L127.12987425726183,516.9290964938347M133.4049287480466,523.3174510685873 L126.5950712519534,536.6825489314127M133.91873923536963,543.6051987673443 L126.08126076463039,556.3948012326557M134.40838939219356,563.9323725421879 L125.59161060780646,576.0676274578121M134.87086036247638,584.2969552579998 L125.12913963752362,595.7030447420002M135.3033008588991,604.6966991411009 L124.6966991411009,615.3033008588991M135.70304474200023,625.1291396375236 L124.29695525799977,634.8708603624764M136.0676274578121,645.5916106078065 L123.93237254218789,654.4083893921935M136.39480123265568,666.0812607646304 L123.6051987673443,673.9187392353696M136.68254893141275,686.5950712519534 L123.31745106858725,693.4049287480466M136.92909649383466,707.1298742572618 L123.07090350616535,712.8701257427382M137.13292387221364,727.6823725421879 L122.86707612778635,732.3176274578121M137.2927744029826,748.2491597710807 L122.70722559701743,751.7508402289193M137.40766255446354,768.8267415121983 L122.59233744553647,771.1732584878017M137.47688000299846,789.4115567820412 L122.52311999700154,790.5884432179588M142.5,10 L157.5,10M142.52311999700154,29.411556782041163 L157.47688000299846,30.588443217958837M142.59233744553646,48.82674151219827 L157.40766255446354,51.17325848780173M142.7072255970174,68.24915977108071 L157.2927744029826,71.75084022891929M142.86707612778636,87.68237254218789 L157.13292387221364,92.31762745781211M143.07090350616534,107.12987425726183 L156.92909649383466,112.87012574273817M143.31745106858725,126.5950712519534 L156.68254893141275,133.4049287480466M143.60519876734432,146.08126076463037 L156.39480123265568,153.91873923536963M143.9323725421879,165.59161060780644 L156.0676274578121,174.40838939219356M144.29695525799977,185.12913963752362 L155.70304474200023,194.87086036247638M144.6966991411009,204.6966991411009 L155.3033008588991,215.3033008588991M145.12913963752362,224.29695525799977 L154.87086036247638,235.70304474200023M145.59161060780644,243.9323725421879 L154.40838939219356,256.0676274578121M146.08126076463037,263.6051987673443 L153.91873923536963,276.3948012326557M146.59507125195339,283.3174510685872 L153.40492874804661,296.6825489314128M147.12987425726183,303.07090350616534 L152.87012574273817,316.92909649383466M147.6823725421879,322.86707612778633 L152.3176274578121,337.13292387221367M148.2491597710807,342.70722559701744 L151.7508402289193,357.29277440298256M148.82674151219828,362.5923374455365 L151.17325848780172,377.4076625544635M149.41155678204117,382.5231199970015 L150.58844321795883,397.4768800029985M150,402.5 L150,417.5M150.58844321795883,422.5231199970015 L149.41155678204117,437.4768800029985M151.17325848780175,442.5923374455365 L148.82674151219825,457.4076625544635M151.7508402289193,462.70722559701744 L148.2491597710807,477.29277440298256M152.3176274578121,482.86707612778633 L147.6823725421879,497.13292387221367M152.87012574273817,503.07090350616534 L147.12987425726183,516.9290964938347M153.4049287480466,523.3174510685873 L146.5950712519534,536.6825489314127M153.91873923536963,543.6051987673443 L146.08126076463037,556.3948012326557M154.40838939219356,563.9323725421879 L145.59161060780644,576.0676274578121M154.87086036247638,584.2969552579998 L145.12913963752362,595.7030447420002M155.3033008588991,604.6966991411009 L144.6966991411009,615.3033008588991M155.70304474200023,625.1291396375236 L144.29695525799977,634.8708603624764M156.0676274578121,645.5916106078065 L143.9323725421879,654.4083893921935M156.39480123265568,666.0812607646304 L143.60519876734432,673.9187392353696M156.68254893141275,686.5950712519534 L143.31745106858725,693.4049287480466M156.92909649383466,707.1298742572618 L143.07090350616534,712.8701257427382M157.13292387221364,727.6823725421879 L142.86707612778636,732.3176274578121M157.2927744029826,748.2491597710807 L142.7072255970174,751.7508402289193M157.40766255446354,768.8267415121983 L142.59233744553646,771.1732584878017M157.47688000299846,789.4115567820412 L142.52311999700154,790.5884432179588M162.5,10 L177.5,10M162.52311999700154,29.411556782041163 L177.47688000299846,30.588443217958837M162.59233744553646,48.82674151219827 L177.40766255446354,51.17325848780173M162.7072255970174,68.24915977108071 L177.2927744029826,71.75084022891929M162.86707612778636,87.68237254218789 L177.13292387221364,92.31762745781211M163.07090350616534,107.12987425726183 L176.92909649383466,112.87012574273817M163.31745106858725,126.5950712519534 L176.68254893141275,133.4049287480466M163.60519876734432,146.08126076463037 L176.39480123265568,153.91873923536963M163.9323725421879,165.59161060780644 L176.0676274578121,174.40838939219356M164.29695525799977,185.12913963752362 L175.70304474200023,194.87086036247638M164.6966991411009,204.6966991411009 L175.3033008588991,215.3033008588991M165.12913963752362,224.29695525799977 L174.87086036247638,235.70304474200023M165.59161060780644,243.9323725421879 L174.40838939219356,256.0676274578121M166.08126076463037,263.6051987673443 L173.91873923536963,276.3948012326557M166.59507125195339,283.3174510685872 L173.40492874804661,296.6825489314128M167.12987425726183,303.07090350616534 L172.87012574273817,316.92909649383466M167.6823725421879,322.86707612778633 L172.3176274578121,337.13292387221367M168.2491597710807,342.70722559701744 L171.7508402289193,357.29277440298256M168.82674151219828,362.5923374455365 L171.17325848780172,377.4076625544635M169.41155678204117,382.5231199970015 L170.58844321795883,397.4768800029985M170,402.5 L170,417.5M170.58844321795883,422.5231199970015 L169.41155678204117,437.4768800029985M171.17325848780175,442.5923374455365 L168.82674151219825,457.4076625544635M171.7508402289193,462.70722559701744 L168.2491597710807,477.29277440298256M172.3176274578121,482.86707612778633 L167.6823725421879,497.13292387221367M172.87012574273817,503.07090350616534 L167.12987425726183,516.9290964938347M173.4049287480466,523.3174510685873 L166.5950712519534,536.6825489314127M173.91873923536963,543.6051987673443 L166.08126076463037,556.3948012326557M174.40838939219356,563.9323725421879 L165.59161060780644,576.0676274578121M174.87086036247638,584.2969552579998 L165.12913963752362,595.7030447420002M175.3033008588991,604.6966991411009 L164.6966991411009,615.3033008588991M175.70304474200023,625.1291396375236 L164.29695525799977,634.8708603624764M176.0676274578121,645.5916106078065 L163.9323725421879,654.4083893921935M176.39480123265568,666.0812607646304 L163.60519876734432,673.9187392353696M176.68254893141275,686.5950712519534 L163.31745106858725,693.4049287480466M176.92909649383466,707.1298742572618 L163.07090350616534,712.8701257427382M177.13292387221364,727.6823725421879 L162.86707612778636,732.3176274578121M177.2927744029826,748.2491597710807 L162.7072255970174,751.7508402289193M177.40766255446354,768.8267415121983 L162.59233744553646,771.1732584878017M177.47688000299846,789.4115567820412 L162.52311999700154,790.5884432179588M182.5,10 L197.5,10M182.52311999700154,29.411556782041163 L197.47688000299846,30.588443217958837M182.59233744553646,48.82674151219827 L197.40766255446354,51.17325848780173M182.7072255970174,68.24915977108071 L197.2927744029826,71.75084022891929M182.86707612778636,87.68237254218789 L197.13292387221364,92.31762745781211M183.07090350616534,107.12987425726183 L196.92909649383466,112.87012574273817M183.31745106858725,126.5950712519534 L196.68254893141275,133.4049287480466M183.60519876734432,146.08126076463037 L196.39480123265568,153.91873923536963M183.9323725421879,165.59161060780644 L196.0676274578121,174.40838939219356M184.29695525799977,185.12913963752362 L195.70304474200023,194.87086036247638M184.6966991411009,204.6966991411009 L195.3033008588991,215.3033008588991M185.12913963752362,224.29695525799977 L194.87086036247638,235.70304474200023M185.59161060780644,243.9323725421879 L194.40838939219356,256.0676274578121M186.08126076463037,263.6051987673443 L193.91873923536963,276.3948012326557M186.59507125195339,283.3174510685872 L193.40492874804661,296.6825489314128M187.12987425726183,303.07090350616534 L192.87012574273817,316.92909649383466M187.6823725421879,322.86707612778633 L192.3176274578121,337.13292387221367M188.2491597710807,342.70722559701744 L191.7508402289193,357.29277440298256M188.82674151219828,362.5923374455365 L191.17325848780172,377.4076625544635M189.41155678204117,382.5231199970015 L190.58844321795883,397.4768800029985M190,402.5 L190,417.5M190.58844321795883,422.5231199970015 L189.41155678204117,437.4768800029985M191.17325848780175,442.5923374455365 L188.82674151219825,457.4076625544635M191.7508402289193,462.70722559701744 L188.2491597710807,477.29277440298256M192.3176274578121,482.86707612778633 L187.6823725421879,497.13292387221367M192.87012574273817,503.07090350616534 L187.12987425726183,516.9290964938347M193.4049287480466,523.3174510685873 L186.5950712519534,536.6825489314127M193.91873923536963,543.6051987673443 L186.08126076463037,556.3948012326557M194.40838939219356,563.9323725421879 L185.59161060780644,576.0676274578121M194.87086036247638,584.2969552579998 L185.12913963752362,595.7030447420002M195.3033008588991,604.6966991411009 L184.6966991411009,615.3033008588991M195.70304474200023,625.1291396375236 L184.29695525799977,634.8708603624764M196.0676274578121,645.5916106078065 L183.9323725421879,654.4083893921935M196.39480123265568,666.0812607646304 L183.60519876734432,673.9187392353696M196.68254893141275,686.5950712519534 L183.31745106858725,693.4049287480466M196.92909649383466,707.1298742572618 L183.07090350616534,712.8701257427382M197.13292387221364,727.6823725421879 L182.86707612778636,732.3176274578121M197.2927744029826,748.2491597710807 L182.7072255970174,751.7508402289193M197.40766255446354,768.8267415121983 L182.59233744553646,771.1732584878017M197.47688000299846,789.4115567820412 L182.52311999700154,790.5884432179588M202.5,10 L217.5,10M202.52311999700154,29.411556782041163 L217.47688000299846,30.588443217958837M202.59233744553646,48.82674151219827 L217.40766255446354,51.17325848780173M202.7072255970174,68.24915977108071 L217.2927744029826,71.75084022891929M202.86707612778636,87.68237254218789 L217.13292387221364,92.31762745781211M203.07090350616534,107.12987425726183 L216.92909649383466,112.87012574273817M203.31745106858725,126.5950712519534 L216.68254893141275,133.4049287480466M203.60519876734432,146.08126076463037 L216.39480123265568,153.91873923536963M203.9323725421879,165.59161060780644 L216.0676274578121,174.40838939219356M204.29695525799977,185.12913963752362 L215.70304474200023,194.87086036247638M204.6966991411009,204.6966991411009 L215.3033008588991,215.3033008588991M205.12913963752362,224.29695525799977 L214.87086036247638,235.70304474200023M205.59161060780644,243.9323725421879 L214.40838939219356,256.0676274578121M206.08126076463037,263.6051987673443 L213.91873923536963,276.3948012326557M206.59507125195339,283.3174510685872 L213.40492874804661,296.6825489314128M207.12987425726183,303.07090350616534 L212.87012574273817,316.92909649383466M207.6823725421879,322.86707612778633 L212.3176274578121,337.13292387221367M208.2491597710807,342.70722559701744 L211.7508402289193,357.29277440298256M208.82674151219828,362.5923374455365 L211.17325848780172,377.4076625544635M209.41155678204117,382.5231199970015 L210.58844321795883,397.4768800029985M210,402.5 L210,417.5M210.58844321795883,422.5231199970015 L209.41155678204117,437.4768800029985M211.17325848780175,442.5923374455365 L208.82674151219825,457.4076625544635M211.7508402289193,462.70722559701744 L208.2491597710807,477.29277440298256M212.3176274578121,482.86707612778633 L207.6823725421879,497.13292387221367M212.87012574273817,503.07090350616534 L207.12987425726183,516.9290964938347M213.4049287480466,523.3174510685873 L206.5950712519534,536.6825489314127M213.91873923536963,543.6051987673443 L206.08126076463037,556.3948012326557M214.40838939219356,563.9323725421879 L205.59161060780644,576.0676274578121M214.87086036247638,584.2969552579998 L205.12913963752362,595.7030447420002M215.3033008588991,604.6966991411009 L204.6966991411009,615.3033008588991M215.70304474200023,625.1291396375236 L204.29695525799977,634.8708603624764M216.0676274578121,645.5916106078065 L203.9323725421879,654.4083893921935M216.39480123265568,666.0812607646304 L203.60519876734432,673.9187392353696M216.68254893141275,686.5950712519534 L203.31745106858725,693.4049287480466M216.92909649383466,707.1298742572618 L203.07090350616534,712.8701257427382M217.13292387221364,727.6823725421879 L202.86707612778636,732.3176274578121M217.2927744029826,748.2491597710807 L202.7072255970174,751.7508402289193M217.40766255446354,768.8267415121983 L202.59233744553646,771.1732584878017M217.47688000299846,789.4115567820412 L202.52311999700154,790.5884432179588M222.5,10 L237.5,10M222.52311999700154,29.411556782041163 L237.47688000299846,30.588443217958837M222.59233744553646,48.82674151219827 L237.40766255446354,51.17325848780173M222.7072255970174,68.24915977108071 L237.2927744029826,71.75084022891929M222.86707612778636,87.68237254218789 L237.13292387221364,92.31762745781211M223.07090350616534,107.12987425726183 L236.92909649383466,112.87012574273817M223.31745106858725,126.5950712519534 L236.68254893141275,133.4049287480466M223.60519876734432,146.08126076463037 L236.39480123265568,153.91873923536963M223.9323725421879,165.59161060780644 L236.0676274578121,174.40838939219356M224.29695525799977,185.12913963752362 L235.70304474200023,194.87086036247638M224.6966991411009,204.6966991411009 L235.3033008588991,215.3033008588991M225.12913963752362,224.29695525799977 L234.87086036247638,235.70304474200023M225.59161060780644,243.9323725421879 L234.40838939219356,256.0676274578121M226.08126076463037,263.6051987673443 L233.91873923536963,276.3948012326557M226.59507125195339,283.3174510685872 L233.40492874804661,296.6825489314128M227.12987425726183,303.07090350616534 L232.87012574273817,316.92909649383466M227.6823725421879,322.86707612778633 L232.3176274578121,337.13292387221367M228.2491597710807,342.70722559701744 L231.7508402289193,357.29277440298256M228.82674151219828,362.5923374455365 L231.17325848780172,377.4076625544635M229.41155678204117,382.5231199970015 L230.58844321795883,397.4768800029985M230,402.5 L230,417.5M230.58844321795883,422.5231199970015 L229.41155678204117,437.4768800029985M231.17325848780175,442.5923374455365 L228.82674151219825,457.4076625544635M231.7508402289193,462.70722559701744 L228.2491597710807,477.29277440298256M232.3176274578121,482.86707612778633 L227.6823725421879,497.13292387221367M232.87012574273817,503.07090350616534 L227.12987425726183,516.9290964938347M233.4049287480466,523.3174510685873 L226.5950712519534,536.6825489314127M233.91873923536963,543.6051987673443 L226.08126076463037,556.3948012326557M234.40838939219356,563.9323725421879 L225.59161060780644,576.0676274578121M234.87086036247638,584.2969552579998 L225.12913963752362,595.7030447420002M235.3033008588991,604.6966991411009 L224.6966991411009,615.3033008588991M235.70304474200023,625.1291396375236 L224.29695525799977,634.8708603624764M236.0676274578121,645.5916106078065 L223.9323725421879,654.4083893921935M236.39480123265568,666.0812607646304 L223.60519876734432,673.9187392353696M236.68254893141275,686.5950712519534 L223.31745106858725,693.4049287480466M236.92909649383466,707.1298742572618 L223.07090350616534,712.8701257427382M237.13292387221364,727.6823725421879 L222.86707612778636,732.3176274578121M237.2927744029826,748.2491597710807 L222.7072255970174,751.7508402289193M237.40766255446354,768.8267415121983 L222.59233744553646,771.1732584878017M237.47688000299846,789.4115567820412 L222.52311999700154,790.5884432179588M242.5,10 L257.5,10M242.52311999700154,29.411556782041163 L257.4768800029985,30.588443217958837M242.59233744553646,48.82674151219827 L257.4076625544635,51.17325848780173M242.7072255970174,68.24915977108071 L257.29277440298256,71.75084022891929M242.86707612778636,87.68237254218789 L257.13292387221367,92.31762745781211M243.07090350616534,107.12987425726183 L256.92909649383466,112.87012574273817M243.31745106858725,126.5950712519534 L256.6825489314128,133.4049287480466M243.60519876734432,146.08126076463037 L256.3948012326557,153.91873923536963M243.9323725421879,165.59161060780644 L256.0676274578121,174.40838939219356M244.29695525799977,185.12913963752362 L255.70304474200023,194.87086036247638M244.6966991411009,204.6966991411009 L255.3033008588991,215.3033008588991M245.12913963752362,224.29695525799977 L254.87086036247638,235.70304474200023M245.59161060780644,243.9323725421879 L254.40838939219356,256.0676274578121M246.08126076463037,263.6051987673443 L253.91873923536963,276.3948012326557M246.59507125195339,283.3174510685872 L253.40492874804661,296.6825489314128M247.12987425726183,303.07090350616534 L252.87012574273817,316.92909649383466M247.6823725421879,322.86707612778633 L252.3176274578121,337.13292387221367M248.2491597710807,342.70722559701744 L251.7508402289193,357.29277440298256M248.82674151219828,362.5923374455365 L251.17325848780172,377.4076625544635M249.41155678204117,382.5231199970015 L250.58844321795883,397.4768800029985M250,402.5 L250,417.5M250.58844321795883,422.5231199970015 L249.41155678204117,437.4768800029985M251.17325848780175,442.5923374455365 L248.82674151219825,457.4076625544635M251.7508402289193,462.70722559701744 L248.2491597710807,477.29277440298256M252.3176274578121,482.86707612778633 L247.6823725421879,497.13292387221367M252.87012574273817,503.07090350616534 L247.12987425726183,516.9290964938347M253.4049287480466,523.3174510685873 L246.5950712519534,536.6825489314127M253.91873923536963,543.6051987673443 L246.08126076463037,556.3948012326557M254.40838939219356,563.9323725421879 L245.59161060780644,576.0676274578121M254.87086036247638,584.2969552579998 L245.12913963752362,595.7030447420002M255.3033008588991,604.6966991411009 L244.6966991411009,615.3033008588991M255.70304474200023,625.1291396375236 L244.29695525799977,634.8708603624764M256.0676274578121,645.5916106078065 L243.9323725421879,654.4083893921935M256.3948012326557,666.0812607646304 L243.60519876734432,673.9187392353696M256.6825489314128,686.5950712519534 L243.31745106858725,693.4049287480466M256.92909649383466,707.1298742572618 L243.07090350616534,712.8701257427382M257.13292387221367,727.6823725421879 L242.86707612778636,732.3176274578121M257.29277440298256,748.2491597710807 L242.7072255970174,751.7508402289193M257.4076625544635,768.8267415121983 L242.59233744553646,771.1732584878017M257.4768800029985,789.4115567820412 L242.52311999700154,790.5884432179588M262.5,10 L277.5,10M262.5231199970015,29.411556782041163 L277.4768800029985,30.588443217958837M262.5923374455365,48.82674151219827 L277.4076625544635,51.17325848780173M262.70722559701744,68.24915977108071 L277.29277440298256,71.75084022891929M262.86707612778633,87.68237254218789 L277.13292387221367,92.31762745781211M263.07090350616534,107.12987425726183 L276.92909649383466,112.87012574273817M263.3174510685872,126.5950712519534 L276.6825489314128,133.4049287480466M263.6051987673443,146.08126076463037 L276.3948012326557,153.91873923536963M263.9323725421879,165.59161060780644 L276.0676274578121,174.40838939219356M264.29695525799974,185.12913963752362 L275.70304474200026,194.87086036247638M264.6966991411009,204.6966991411009 L275.3033008588991,215.3033008588991M265.1291396375236,224.29695525799977 L274.8708603624764,235.70304474200023M265.59161060780644,243.9323725421879 L274.40838939219356,256.0676274578121M266.0812607646304,263.6051987673443 L273.9187392353696,276.3948012326557M266.5950712519534,283.3174510685872 L273.4049287480466,296.6825489314128M267.1298742572618,303.07090350616534 L272.8701257427382,316.92909649383466M267.6823725421879,322.86707612778633 L272.3176274578121,337.13292387221367M268.2491597710807,342.70722559701744 L271.7508402289193,357.29277440298256M268.8267415121983,362.5923374455365 L271.1732584878017,377.4076625544635M269.41155678204115,382.5231199970015 L270.58844321795885,397.4768800029985M270,402.5 L270,417.5M270.58844321795885,422.5231199970015 L269.41155678204115,437.4768800029985M271.1732584878017,442.5923374455365 L268.8267415121983,457.4076625544635M271.7508402289193,462.70722559701744 L268.2491597710807,477.29277440298256M272.3176274578121,482.86707612778633 L267.6823725421879,497.13292387221367M272.8701257427382,503.07090350616534 L267.1298742572618,516.9290964938347M273.4049287480466,523.3174510685873 L266.5950712519534,536.6825489314127M273.9187392353696,543.6051987673443 L266.0812607646304,556.3948012326557M274.40838939219356,563.9323725421879 L265.59161060780644,576.0676274578121M274.8708603624764,584.2969552579998 L265.1291396375236,595.7030447420002M275.3033008588991,604.6966991411009 L264.6966991411009,615.3033008588991M275.70304474200026,625.1291396375236 L264.29695525799974,634.8708603624764M276.0676274578121,645.5916106078065 L263.9323725421879,654.4083893921935M276.3948012326557,666.0812607646304 L263.6051987673443,673.9187392353696M276.6825489314128,686.5950712519534 L263.3174510685872,693.4049287480466M276.92909649383466,707.1298742572618 L263.07090350616534,712.8701257427382M277.13292387221367,727.6823725421879 L262.86707612778633,732.3176274578121M277.29277440298256,748.2491597710807 L262.70722559701744,751.7508402289193M277.4076625544635,768.8267415121983 L262.5923374455365,771.1732584878017M277.4768800029985,789.4115567820412 L262.5231199970015,790.5884432179588M282.5,10 L297.5,10M282.5231199970015,29.411556782041163 L297.4768800029985,30.588443217958837M282.5923374455365,48.82674151219827 L297.4076625544635,51.17325848780173M282.70722559701744,68.24915977108071 L297.29277440298256,71.75084022891929M282.86707612778633,87.68237254218789 L297.13292387221367,92.31762745781211M283.07090350616534,107.12987425726183 L296.92909649383466,112.87012574273817M283.3174510685872,126.5950712519534 L296.6825489314128,133.4049287480466M283.6051987673443,146.08126076463037 L296.3948012326557,153.91873923536963M283.9323725421879,165.59161060780644 L296.0676274578121,174.40838939219356M284.29695525799974,185.12913963752362 L295.70304474200026,194.87086036247638M284.6966991411009,204.6966991411009 L295.3033008588991,215.3033008588991M285.1291396375236,224.29695525799977 L294.8708603624764,235.70304474200023M285.59161060780644,243.9323725421879 L294.40838939219356,256.0676274578121M286.0812607646304,263.6051987673443 L293.9187392353696,276.3948012326557M286.5950712519534,283.3174510685872 L293.4049287480466,296.6825489314128M287.1298742572618,303.07090350616534 L292.8701257427382,316.92909649383466M287.6823725421879,322.86707612778633 L292.3176274578121,337.13292387221367M288.2491597710807,342.70722559701744 L291.7508402289193,357.29277440298256M288.8267415121983,362.5923374455365 L291.1732584878017,377.4076625544635M289.41155678204115,382.5231199970015 L290.58844321795885,397.4768800029985M290,402.5 L290,417.5M290.58844321795885,422.5231199970015 L289.41155678204115,437.4768800029985M291.1732584878017,442.5923374455365 L288.8267415121983,457.4076625544635M291.7508402289193,462.70722559701744 L288.2491597710807,477.29277440298256M292.3176274578121,482.86707612778633 L287.6823725421879,497.13292387221367M292.8701257427382,503.07090350616534 L287.1298742572618,516.9290964938347M293.4049287480466,523.3174510685873 L286.5950712519534,536.6825489314127M293.9187392353696,543.6051987673443 L286.0812607646304,556.3948012326557M294.40838939219356,563.9323725421879 L285.59161060780644,576.0676274578121M294.8708603624764,584.2969552579998 L285.1291396375236,595.7030447420002M295.3033008588991,604.6966991411009 L284.6966991411009,615.3033008588991M295.70304474200026,625.1291396375236 L284.29695525799974,634.8708603624764M296.0676274578121,645.5916106078065 L283.9323725421879,654.4083893921935M296.3948012326557,666.0812607646304 L283.6051987673443,673.9187392353696M296.6825489314128,686.5950712519534 L283.3174510685872,693.4049287480466M296.92909649383466,707.1298742572618 L283.07090350616534,712.8701257427382M297.13292387221367,727.6823725421879 L282.86707612778633,732.3176274578121M297.29277440298256,748.2491597710807 L282.70722559701744,751.7508402289193M297.4076625544635,768.8267415121983 L282.5923374455365,771.1732584878017M297.4768800029985,789.4115567820412 L282.5231199970015,790.5884432179588M302.5,10 L317.5,10M302.5231199970015,29.411556782041163 L317.4768800029985,30.588443217958837M302.5923374455365,48.82674151219827 L317.4076625544635,51.17325848780173M302.70722559701744,68.24915977108071 L317.29277440298256,71.75084022891929M302.86707612778633,87.68237254218789 L317.13292387221367,92.31762745781211M303.07090350616534,107.12987425726183 L316.92909649383466,112.87012574273817M303.3174510685872,126.5950712519534 L316.6825489314128,133.4049287480466M303.6051987673443,146.08126076463037 L316.3948012326557,153.91873923536963M303.9323725421879,165.59161060780644 L316.0676274578121,174.40838939219356M304.29695525799974,185.12913963752362 L315.70304474200026,194.87086036247638M304.6966991411009,204.6966991411009 L315.3033008588991,215.3033008588991M305.1291396375236,224.29695525799977 L314.8708603624764,235.70304474200023M305.59161060780644,243.9323725421879 L314.40838939219356,256.0676274578121M306.0812607646304,263.6051987673443 L313.9187392353696,276.3948012326557M306.5950712519534,283.3174510685872 L313.4049287480466,296.6825489314128M307.1298742572618,303.07090350616534 L312.8701257427382,316.92909649383466M307.6823725421879,322.86707612778633 L312.3176274578121,337.13292387221367M308.2491597710807,342.70722559701744 L311.7508402289193,357.29277440298256M308.8267415121983,362.5923374455365 L311.1732584878017,377.4076625544635M309.41155678204115,382.5231199970015 L310.58844321795885,397.4768800029985M310,402.5 L310,417.5M310.58844321795885,422.5231199970015 L309.41155678204115,437.4768800029985M311.1732584878017,442.5923374455365 L308.8267415121983,457.4076625544635M311.7508402289193,462.70722559701744 L308.2491597710807,477.29277440298256M312.3176274578121,482.86707612778633 L307.6823725421879,497.13292387221367M312.8701257427382,503.07090350616534 L307.1298742572618,516.9290964938347M313.4049287480466,523.3174510685873 L306.5950712519534,536.6825489314127M313.9187392353696,543.6051987673443 L306.0812607646304,556.3948012326557M314.40838939219356,563.9323725421879 L305.59161060780644,576.0676274578121M314.8708603624764,584.2969552579998 L305.1291396375236,595.7030447420002M315.3033008588991,604.6966991411009 L304.6966991411009,615.3033008588991M315.70304474200026,625.1291396375236 L304.29695525799974,634.8708603624764M316.0676274578121,645.5916106078065 L303.9323725421879,654.4083893921935M316.3948012326557,666.0812607646304 L303.6051987673443,673.9187392353696M316.6825489314128,686.5950712519534 L303.3174510685872,693.4049287480466M316.92909649383466,707.1298742572618 L303.07090350616534,712.8701257427382M317.13292387221367,727.6823725421879 L302.86707612778633,732.3176274578121M317.29277440298256,748.2491597710807 L302.70722559701744,751.7508402289193M317.4076625544635,768.8267415121983 L302.5923374455365,771.1732584878017M317.4768800029985,789.4115567820412 L302.5231199970015,790.5884432179588M322.5,10 L337.5,10M322.5231199970015,29.411556782041163 L337.4768800029985,30.588443217958837M322.5923374455365,48.82674151219827 L337.4076625544635,51.17325848780173M322.70722559701744,68.24915977108071 L337.29277440298256,71.75084022891929M322.86707612778633,87.68237254218789 L337.13292387221367,92.31762745781211M323.07090350616534,107.12987425726183 L336.92909649383466,112.87012574273817M323.3174510685872,126.5950712519534 L336.6825489314128,133.4049287480466M323.6051987673443,146.08126076463037 L336.3948012326557,153.91873923536963M323.9323725421879,165.59161060780644 L336.0676274578121,174.40838939219356M324.29695525799974,185.12913963752362 L335.70304474200026,194.87086036247638M324.6966991411009,204.6966991411009 L335.3033008588991,215.3033008588991M325.1291396375236,224.29695525799977 L334.8708603624764,235.70304474200023M325.59161060780644,243.9323725421879 L334.40838939219356,256.0676274578121M326.0812607646304,263.6051987673443 L333.9187392353696,276.3948012326557M326.5950712519534,283.3174510685872 L333.4049287480466,296.6825489314128M327.1298742572618,303.07090350616534 L332.8701257427382,316.92909649383466M327.6823725421879,322.86707612778633 L332.3176274578121,337.13292387221367M328.2491597710807,342.70722559701744 L331.7508402289193,357.29277440298256M328.8267415121983,362.5923374455365 L331.1732584878017,377.4076625544635M329.41155678204115,382.5231199970015 L330.58844321795885,397.4768800029985M330,402.5 L330,417.5M330.58844321795885,422.5231199970015 L329.41155678204115,437.4768800029985M331.1732584878017,442.5923374455365 L328.8267415121983,457.4076625544635M331.7508402289193,462.70722559701744 L328.2491597710807,477.29277440298256M332.3176274578121,482.86707612778633 L327.6823725421879,497.13292387221367M332.8701257427382,503.07090350616534 L327.1298742572618,516.9290964938347M333.4049287480466,523.3174510685873 L326.5950712519534,536.6825489314127M333.9187392353696,543.6051987673443 L326.0812607646304,556.3948012326557M334.40838939219356,563.9323725421879 L325.59161060780644,576.0676274578121M334.8708603624764,584.2969552579998 L325.1291396375236,595.7030447420002M335.3033008588991,604.6966991411009 L324.6966991411009,615.3033008588991M335.70304474200026,625.1291396375236 L324.29695525799974,634.8708603624764M336.0676274578121,645.5916106078065 L323.9323725421879,654.4083893921935M336.3948012326557,666.0812607646304 L323.6051987673443,673.9187392353696M336.6825489314128,686.5950712519534 L323.3174510685872,693.4049287480466M336.92909649383466,707.1298742572618 L323.07090350616534,712.8701257427382M337.13292387221367,727.6823725421879 L322.86707612778633,732.3176274578121M337.29277440298256,748.2491597710807 L322.70722559701744,751.7508402289193M337.4076625544635,768.8267415121983 L322.5923374455365,771.1732584878017M337.4768800029985,789.4115567820412 L322.5231199970015,790.5884432179588M342.5,10 L357.5,10M342.5231199970015,29.411556782041163 L357.4768800029985,30.588443217958837M342.5923374455365,48.82674151219827 L357.4076625544635,51.17325848780173M342.70722559701744,68.24915977108071 L357.29277440298256,71.75084022891929M342.86707612778633,87.68237254218789 L357.13292387221367,92.31762745781211M343.07090350616534,107.12987425726183 L356.92909649383466,112.87012574273817M343.3174510685872,126.5950712519534 L356.6825489314128,133.4049287480466M343.6051987673443,146.08126076463037 L356.3948012326557,153.91873923536963M343.9323725421879,165.59161060780644 L356.0676274578121,174.40838939219356M344.29695525799974,185.12913963752362 L355.70304474200026,194.87086036247638M344.6966991411009,204.6966991411009 L355.3033008588991,215.3033008588991M345.1291396375236,224.29695525799977 L354.8708603624764,235.70304474200023M345.59161060780644,243.9323725421879 L354.40838939219356,256.0676274578121M346.0812607646304,263.6051987673443 L353.9187392353696,276.3948012326557M346.5950712519534,283.3174510685872 L353.4049287480466,296.6825489314128M347.1298742572618,303.07090350616534 L352.8701257427382,316.92909649383466M347.6823725421879,322.86707612778633 L352.3176274578121,337.13292387221367M348.2491597710807,342.70722559701744 L351.7508402289193,357.29277440298256M348.8267415121983,362.5923374455365 L351.1732584878017,377.4076625544635M349.41155678204115,382.5231199970015 L350.58844321795885,397.4768800029985M350,402.5 L350,417.5M350.58844321795885,422.5231199970015 L349.41155678204115,437.4768800029985M351.1732584878017,442.5923374455365 L348.8267415121983,457.4076625544635M351.7508402289193,462.70722559701744 L348.2491597710807,477.29277440298256M352.3176274578121,482.86707612778633 L347.6823725421879,497.13292387221367M352.8701257427382,503.07090350616534 L347.1298742572618,516.9290964938347M353.4049287480466,523.3174510685873 L346.5950712519534,536.6825489314127M353.9187392353696,543.6051987673443 L346.0812607646304,556.3948012326557M354.40838939219356,563.9323725421879 L345.59161060780644,576.0676274578121M354.8708603624764,584.2969552579998 L345.1291396375236,595.7030447420002M355.3033008588991,604.6966991411009 L344.6966991411009,615.3033008588991M355.70304474200026,625.1291396375236 L344.29695525799974,634.8708603624764M356.0676274578121,645.5916106078065 L343.9323725421879,654.4083893921935M356.3948012326557,666.0812607646304 L343.6051987673443,673.9187392353696M356.6825489314128,686.5950712519534 L343.3174510685872,693.4049287480466M356.92909649383466,707.1298742572618 L343.07090350616534,712.8701257427382M357.13292387221367,727.6823725421879 L342.86707612778633,732.3176274578121M357.29277440298256,748.2491597710807 L342.70722559701744,751.7508402289193M357.4076625544635,768.8267415121983 L342.5923374455365,771.1732584878017M357.4768800029985,789.4115567820412 L342.5231199970015,790.5884432179588M362.5,10 L377.5,10M362.5231199970015,29.411556782041163 L377.4768800029985,30.588443217958837M362.5923374455365,48.82674151219827 L377.4076625544635,51.17325848780173M362.70722559701744,68.24915977108071 L377.29277440298256,71.75084022891929M362.86707612778633,87.68237254218789 L377.13292387221367,92.31762745781211M363.07090350616534,107.12987425726183 L376.92909649383466,112.87012574273817M363.3174510685872,126.5950712519534 L376.6825489314128,133.4049287480466M363.6051987673443,146.08126076463037 L376.3948012326557,153.91873923536963M363.9323725421879,165.59161060780644 L376.0676274578121,174.40838939219356M364.29695525799974,185.12913963752362 L375.70304474200026,194.87086036247638M364.6966991411009,204.6966991411009 L375.3033008588991,215.3033008588991M365.1291396375236,224.29695525799977 L374.8708603624764,235.70304474200023M365.59161060780644,243.9323725421879 L374.40838939219356,256.0676274578121M366.0812607646304,263.6051987673443 L373.9187392353696,276.3948012326557M366.5950712519534,283.3174510685872 L373.4049287480466,296.6825489314128M367.1298742572618,303.07090350616534 L372.8701257427382,316.92909649383466M367.6823725421879,322.86707612778633 L372.3176274578121,337.13292387221367M368.2491597710807,342.70722559701744 L371.7508402289193,357.29277440298256M368.8267415121983,362.5923374455365 L371.1732584878017,377.4076625544635M369.41155678204115,382.5231199970015 L370.58844321795885,397.4768800029985M370,402.5 L370,417.5M370.58844321795885,422.5231199970015 L369.41155678204115,437.4768800029985M371.1732584878017,442.5923374455365 L368.8267415121983,457.4076625544635M371.7508402289193,462.70722559701744 L368.2491597710807,477.29277440298256M372.3176274578121,482.86707612778633 L367.6823725421879,497.13292387221367M372.8701257427382,503.07090350616534 L367.1298742572618,516.9290964938347M373.4049287480466,523.3174510685873 L366.5950712519534,536.6825489314127M373.9187392353696,543.6051987673443 L366.0812607646304,556.3948012326557M374.40838939219356,563.9323725421879 L365.59161060780644,576.0676274578121M374.8708603624764,584.2969552579998 L365.1291396375236,595.7030447420002M375.3033008588991,604.6966991411009 L364.6966991411009,615.3033008588991M375.70304474200026,625.1291396375236 L364.29695525799974,634.8708603624764M376.0676274578121,645.5916106078065 L363.9323725421879,654.4083893921935M376.3948012326557,666.0812607646304 L363.6051987673443,673.9187392353696M376.6825489314128,686.5950712519534 L363.3174510685872,693.4049287480466M376.92909649383466,707.1298742572618 L363.07090350616534,712.8701257427382M377.13292387221367,727.6823725421879 L362.86707612778633,732.3176274578121M377.29277440298256,748.2491597710807 L362.70722559701744,751.7508402289193M377.4076625544635,768.8267415121983 L362.5923374455365,771.1732584878017M377.4768800029985,789.4115567820412 L362.5231199970015,790.5884432179588M382.5,10 L397.5,10M382.5231199970015,29.411556782041163 L397.4768800029985,30.588443217958837M382.5923374455365,48.82674151219827 L397.4076625544635,51.17325848780173M382.70722559701744,68.24915977108071 L397.29277440298256,71.75084022891929M382.86707612778633,87.68237254218789 L397.13292387221367,92.31762745781211M383.07090350616534,107.12987425726183 L396.92909649383466,112.87012574273817M383.3174510685872,126.5950712519534 L396.6825489314128,133.4049287480466M383.6051987673443,146.08126076463037 L396.3948012326557,153.91873923536963M383.9323725421879,165.59161060780644 L396.0676274578121,174.40838939219356M384.29695525799974,185.12913963752362 L395.70304474200026,194.87086036247638M384.6966991411009,204.6966991411009 L395.3033008588991,215.3033008588991M385.1291396375236,224.29695525799977 L394.8708603624764,235.70304474200023M385.59161060780644,243.9323725421879 L394.40838939219356,256.0676274578121M386.0812607646304,263.6051987673443 L393.9187392353696,276.3948012326557M386.5950712519534,283.3174510685872 L393.4049287480466,296.6825489314128M387.1298742572618,303.07090350616534 L392.8701257427382,316.92909649383466M387.6823725421879,322.86707612778633 L392.3176274578121,337.13292387221367M388.2491597710807,342.70722559701744 L391.7508402289193,357.29277440298256M388.8267415121983,362.5923374455365 L391.1732584878017,377.4076625544635M389.41155678204115,382.5231199970015 L390.58844321795885,397.4768800029985M390,402.5 L390,417.5M390.58844321795885,422.5231199970015 L389.41155678204115,437.4768800029985M391.1732584878017,442.5923374455365 L388.8267415121983,457.4076625544635M391.7508402289193,462.70722559701744 L388.2491597710807,477.29277440298256M392.3176274578121,482.86707612778633 L387.6823725421879,497.13292387221367M392.8701257427382,503.07090350616534 L387.1298742572618,516.9290964938347M393.4049287480466,523.3174510685873 L386.5950712519534,536.6825489314127M393.9187392353696,543.6051987673443 L386.0812607646304,556.3948012326557M394.40838939219356,563.9323725421879 L385.59161060780644,576.0676274578121M394.8708603624764,584.2969552579998 L385.1291396375236,595.7030447420002M395.3033008588991,604.6966991411009 L384.6966991411009,615.3033008588991M395.70304474200026,625.1291396375236 L384.29695525799974,634.8708603624764M396.0676274578121,645.5916106078065 L383.9323725421879,654.4083893921935M396.3948012326557,666.0812607646304 L383.6051987673443,673.9187392353696M396.6825489314128,686.5950712519534 L383.3174510685872,693.4049287480466M396.92909649383466,707.1298742572618 L383.07090350616534,712.8701257427382M397.13292387221367,727.6823725421879 L382.86707612778633,732.3176274578121M397.29277440298256,748.2491597710807 L382.70722559701744,751.7508402289193M397.4076625544635,768.8267415121983 L382.5923374455365,771.1732584878017M397.4768800029985,789.4115567820412 L382.5231199970015,790.5884432179588M402.5,10 L417.5,10M402.5231199970015,29.411556782041163 L417.4768800029985,30.588443217958837M402.5923374455365,48.82674151219827 L417.4076625544635,51.17325848780173M402.70722559701744,68.24915977108071 L417.29277440298256,71.75084022891929M402.86707612778633,87.68237254218789 L417.13292387221367,92.31762745781211M403.07090350616534,107.12987425726183 L416.92909649383466,112.87012574273817M403.3174510685872,126.5950712519534 L416.6825489314128,133.4049287480466M403.6051987673443,146.08126076463037 L416.3948012326557,153.91873923536963M403.9323725421879,165.59161060780644 L416.0676274578121,174.40838939219356M404.29695525799974,185.12913963752362 L415.70304474200026,194.87086036247638M404.6966991411009,204.6966991411009 L415.3033008588991,215.3033008588991M405.1291396375236,224.29695525799977 L414.8708603624764,235.70304474200023M405.59161060780644,243.9323725421879 L414.40838939219356,256.0676274578121M406.0812607646304,263.6051987673443 L413.9187392353696,276.3948012326557M406.5950712519534,283.3174510685872 L413.4049287480466,296.6825489314128M407.1298742572618,303.07090350616534 L412.8701257427382,316.92909649383466M407.6823725421879,322.86707612778633 L412.3176274578121,337.13292387221367M408.2491597710807,342.70722559701744 L411.7508402289193,357.29277440298256M408.8267415121983,362.5923374455365 L411.1732584878017,377.4076625544635M409.41155678204115,382.5231199970015 L410.58844321795885,397.4768800029985M410,402.5 L410,417.5M410.58844321795885,422.5231199970015 L409.41155678204115,437.4768800029985M411.1732584878017,442.5923374455365 L408.8267415121983,457.4076625544635M411.7508402289193,462.70722559701744 L408.2491597710807,477.29277440298256M412.3176274578121,482.86707612778633 L407.6823725421879,497.13292387221367M412.8701257427382,503.07090350616534 L407.1298742572618,516.9290964938347M413.4049287480466,523.3174510685873 L406.5950712519534,536.6825489314127M413.9187392353696,543.6051987673443 L406.0812607646304,556.3948012326557M414.40838939219356,563.9323725421879 L405.59161060780644,576.0676274578121M414.8708603624764,584.2969552579998 L405.1291396375236,595.7030447420002M415.3033008588991,604.6966991411009 L404.6966991411009,615.3033008588991M415.70304474200026,625.1291396375236 L404.29695525799974,634.8708603624764M416.0676274578121,645.5916106078065 L403.9323725421879,654.4083893921935M416.3948012326557,666.0812607646304 L403.6051987673443,673.9187392353696M416.6825489314128,686.5950712519534 L403.3174510685872,693.4049287480466M416.92909649383466,707.1298742572618 L403.07090350616534,712.8701257427382M417.13292387221367,727.6823725421879 L402.86707612778633,732.3176274578121M417.29277440298256,748.2491597710807 L402.70722559701744,751.7508402289193M417.4076625544635,768.8267415121983 L402.5923374455365,771.1732584878017M417.4768800029985,789.4115567820412 L402.5231199970015,790.5884432179588M422.5,10 L437.5,10M422.5231199970015,29.411556782041163 L437.4768800029985,30.588443217958837M422.5923374455365,48.82674151219827 L437.4076625544635,51.17325848780173M422.70722559701744,68.24915977108071 L437.29277440298256,71.75084022891929M422.86707612778633,87.68237254218789 L437.13292387221367,92.31762745781211M423.07090350616534,107.12987425726183 L436.92909649383466,112.87012574273817M423.3174510685872,126.5950712519534 L436.6825489314128,133.4049287480466M423.6051987673443,146.08126076463037 L436.3948012326557,153.91873923536963M423.9323725421879,165.59161060780644 L436.0676274578121,174.40838939219356M424.29695525799974,185.12913963752362 L435.70304474200026,194.87086036247638M424.6966991411009,204.6966991411009 L435.3033008588991,215.3033008588991M425.1291396375236,224.29695525799977 L434.8708603624764,235.70304474200023M425.59161060780644,243.9323725421879 L434.40838939219356,256.0676274578121M426.0812607646304,263.6051987673443 L433.9187392353696,276.3948012326557M426.5950712519534,283.3174510685872 L433.4049287480466,296.6825489314128M427.1298742572618,303.07090350616534 L432.8701257427382,316.92909649383466M427.6823725421879,322.86707612778633 L432.3176274578121,337.13292387221367M428.2491597710807,342.70722559701744 L431.7508402289193,357.29277440298256M428.8267415121983,362.5923374455365 L431.1732584878017,377.4076625544635M429.41155678204115,382.5231199970015 L430.58844321795885,397.4768800029985M430,402.5 L430,417.5M430.58844321795885,422.5231199970015 L429.41155678204115,437.4768800029985M431.1732584878017,442.5923374455365 L428.8267415121983,457.4076625544635M431.7508402289193,462.70722559701744 L428.2491597710807,477.29277440298256M432.3176274578121,482.86707612778633 L427.6823725421879,497.13292387221367M432.8701257427382,503.07090350616534 L427.1298742572618,516.9290964938347M433.4049287480466,523.3174510685873 L426.5950712519534,536.6825489314127M433.9187392353696,543.6051987673443 L426.0812607646304,556.3948012326557M434.40838939219356,563.9323725421879 L425.59161060780644,576.0676274578121M434.8708603624764,584.2969552579998 L425.1291396375236,595.7030447420002M435.3033008588991,604.6966991411009 L424.6966991411009,615.3033008588991M435.70304474200026,625.1291396375236 L424.29695525799974,634.8708603624764M436.0676274578121,645.5916106078065 L423.9323725421879,654.4083893921935M436.3948012326557,666.0812607646304 L423.6051987673443,673.9187392353696M436.6825489314128,686.5950712519534 L423.3174510685872,693.4049287480466M436.92909649383466,707.1298742572618 L423.07090350616534,712.8701257427382M437.13292387221367,727.6823725421879 L422.86707612778633,732.3176274578121M437.29277440298256,748.2491597710807 L422.70722559701744,751.7508402289193M437.4076625544635,768.8267415121983 L422.5923374455365,771.1732584878017M437.4768800029985,789.4115567820412 L422.5231199970015,790.5884432179588M442.5,10 L457.5,10M442.5231199970015,29.411556782041163 L457.4768800029985,30.588443217958837M442.5923374455365,48.82674151219827 L457.4076625544635,51.17325848780173M442.70722559701744,68.24915977108071 L457.29277440298256,71.75084022891929M442.86707612778633,87.68237254218789 L457.13292387221367,92.31762745781211M443.07090350616534,107.12987425726183 L456.92909649383466,112.87012574273817M443.3174510685872,126.5950712519534 L456.6825489314128,133.4049287480466M443.6051987673443,146.08126076463037 L456.3948012326557,153.91873923536963M443.9323725421879,165.59161060780644 L456.0676274578121,174.40838939219356M444.29695525799974,185.12913963752362 L455.70304474200026,194.87086036247638M444.6966991411009,204.6966991411009 L455.3033008588991,215.3033008588991M445.1291396375236,224.29695525799977 L454.8708603624764,235.70304474200023M445.59161060780644,243.9323725421879 L454.40838939219356,256.0676274578121M446.0812607646304,263.6051987673443 L453.9187392353696,276.3948012326557M446.5950712519534,283.3174510685872 L453.4049287480466,296.6825489314128M447.1298742572618,303.07090350616534 L452.8701257427382,316.92909649383466M447.6823725421879,322.86707612778633 L452.3176274578121,337.13292387221367M448.2491597710807,342.70722559701744 L451.7508402289193,357.29277440298256M448.8267415121983,362.5923374455365 L451.1732584878017,377.4076625544635M449.41155678204115,382.5231199970015 L450.58844321795885,397.4768800029985M450,402.5 L450,417.5M450.58844321795885,422.5231199970015 L449.41155678204115,437.4768800029985M451.1732584878017,442.5923374455365 L448.8267415121983,457.4076625544635M451.7508402289193,462.70722559701744 L448.2491597710807,477.29277440298256M452.3176274578121,482.86707612778633 L447.6823725421879,497.13292387221367M452.8701257427382,503.07090350616534 L447.1298742572618,516.9290964938347M453.4049287480466,523.3174510685873 L446.5950712519534,536.6825489314127M453.9187392353696,543.6051987673443 L446.0812607646304,556.3948012326557M454.40838939219356,563.9323725421879 L445.59161060780644,576.0676274578121M454.8708603624764,584.2969552579998 L445.1291396375236,595.7030447420002M455.3033008588991,604.6966991411009 L444.6966991411009,615.3033008588991M455.70304474200026,625.1291396375236 L444.29695525799974,634.8708603624764M456.0676274578121,645.5916106078065 L443.9323725421879,654.4083893921935M456.3948012326557,666.0812607646304 L443.6051987673443,673.9187392353696M456.6825489314128,686.5950712519534 L443.3174510685872,693.4049287480466M456.92909649383466,707.1298742572618 L443.07090350616534,712.8701257427382M457.13292387221367,727.6823725421879 L442.86707612778633,732.3176274578121M457.29277440298256,748.2491597710807 L442.70722559701744,751.7508402289193M457.4076625544635,768.8267415121983 L442.5923374455365,771.1732584878017M457.4768800029985,789.4115567820412 L442.5231199970015,790.5884432179588M462.5,10 L477.5,10M462.5231199970015,29.411556782041163 L477.4768800029985,30.588443217958837M462.5923374455365,48.82674151219827 L477.4076625544635,51.17325848780173M462.70722559701744,68.24915977108071 L477.29277440298256,71.75084022891929M462.86707612778633,87.68237254218789 L477.13292387221367,92.31762745781211M463.07090350616534,107.12987425726183 L476.92909649383466,112.87012574273817M463.3174510685872,126.5950712519534 L476.6825489314128,133.4049287480466M463.6051987673443,146.08126076463037 L476.3948012326557,153.91873923536963M463.9323725421879,165.59161060780644 L476.0676274578121,174.40838939219356M464.29695525799974,185.12913963752362 L475.70304474200026,194.87086036247638M464.6966991411009,204.6966991411009 L475.3033008588991,215.3033008588991M465.1291396375236,224.29695525799977 L474.8708603624764,235.70304474200023M465.59161060780644,243.9323725421879 L474.40838939219356,256.0676274578121M466.0812607646304,263.6051987673443 L473.9187392353696,276.3948012326557M466.5950712519534,283.3174510685872 L473.4049287480466,296.6825489314128M467.1298742572618,303.07090350616534 L472.8701257427382,316.92909649383466M467.6823725421879,322.86707612778633 L472.3176274578121,337.13292387221367M468.2491597710807,342.70722559701744 L471.7508402289193,357.29277440298256M468.8267415121983,362.5923374455365 L471.1732584878017,377.4076625544635M469.41155678204115,382.5231199970015 L470.58844321795885,397.4768800029985M470,402.5 L470,417.5M470.58844321795885,422.5231199970015 L469.41155678204115,437.4768800029985M471.1732584878017,442.5923374455365 L468.8267415121983,457.4076625544635M471.7508402289193,462.70722559701744 L468.2491597710807,477.29277440298256M472.3176274578121,482.86707612778633 L467.6823725421879,497.13292387221367M472.8701257427382,503.07090350616534 L467.1298742572618,516.9290964938347M473.4049287480466,523.3174510685873 L466.5950712519534,536.6825489314127M473.9187392353696,543.6051987673443 L466.0812607646304,556.3948012326557M474.40838939219356,563.9323725421879 L465.59161060780644,576.0676274578121M474.8708603624764,584.2969552579998 L465.1291396375236,595.7030447420002M475.3033008588991,604.6966991411009 L464.6966991411009,615.3033008588991M475.70304474200026,625.1291396375236 L464.29695525799974,634.8708603624764M476.0676274578121,645.5916106078065 L463.9323725421879,654.4083893921935M476.3948012326557,666.0812607646304 L463.6051987673443,673.9187392353696M476.6825489314128,686.5950712519534 L463.3174510685872,693.4049287480466M476.92909649383466,707.1298742572618 L463.07090350616534,712.8701257427382M477.13292387221367,727.6823725421879 L462.86707612778633,732.3176274578121M477.29277440298256,748.2491597710807 L462.70722559701744,751.7508402289193M477.4076625544635,768.8267415121983 L462.5923374455365,771.1732584878017M477.4768800029985,789.4115567820412 L462.5231199970015,790.5884432179588M482.5,10 L497.5,10M482.5231199970015,29.411556782041163 L497.4768800029985,30.588443217958837M482.5923374455365,48.82674151219827 L497.4076625544635,51.17325848780173M482.70722559701744,68.24915977108071 L497.29277440298256,71.75084022891929M482.86707612778633,87.68237254218789 L497.13292387221367,92.31762745781211M483.07090350616534,107.12987425726183 L496.92909649383466,112.87012574273817M483.3174510685872,126.5950712519534 L496.6825489314128,133.4049287480466M483.6051987673443,146.08126076463037 L496.3948012326557,153.91873923536963M483.9323725421879,165.59161060780644 L496.0676274578121,174.40838939219356M484.29695525799974,185.12913963752362 L495.70304474200026,194.87086036247638M484.6966991411009,204.6966991411009 L495.3033008588991,215.3033008588991M485.1291396375236,224.29695525799977 L494.8708603624764,235.70304474200023M485.59161060780644,243.9323725421879 L494.40838939219356,256.0676274578121M486.0812607646304,263.6051987673443 L493.9187392353696,276.3948012326557M486.5950712519534,283.3174510685872 L493.4049287480466,296.6825489314128M487.1298742572618,303.07090350616534 L492.8701257427382,316.92909649383466M487.6823725421879,322.86707612778633 L492.3176274578121,337.13292387221367M488.2491597710807,342.70722559701744 L491.7508402289193,357.29277440298256M488.8267415121983,362.5923374455365 L491.1732584878017,377.4076625544635M489.41155678204115,382.5231199970015 L490.58844321795885,397.4768800029985M490,402.5 L490,417.5M490.58844321795885,422.5231199970015 L489.41155678204115,437.4768800029985M491.1732584878017,442.5923374455365 L488.8267415121983,457.4076625544635M491.7508402289193,462.70722559701744 L488.2491597710807,477.29277440298256M492.3176274578121,482.86707612778633 L487.6823725421879,497.13292387221367M492.8701257427382,503.07090350616534 L487.1298742572618,516.9290964938347M493.4049287480466,523.3174510685873 L486.5950712519534,536.6825489314127M493.9187392353696,543.6051987673443 L486.0812607646304,556.3948012326557M494.40838939219356,563.9323725421879 L485.59161060780644,576.0676274578121M494.8708603624764,584.2969552579998 L485.1291396375236,595.7030447420002M495.3033008588991,604.6966991411009 L484.6966991411009,615.3033008588991M495.70304474200026,625.1291396375236 L484.29695525799974,634.8708603624764M496.0676274578121,645.5916106078065 L483.9323725421879,654.4083893921935M496.3948012326557,666.0812607646304 L483.6051987673443,673.9187392353696M496.6825489314128,686.5950712519534 L483.3174510685872,693.4049287480466M496.92909649383466,707.1298742572618 L483.07090350616534,712.8701257427382M497.13292387221367,727.6823725421879 L482.86707612778633,732.3176274578121M497.29277440298256,748.2491597710807 L482.70722559701744,751.7508402289193M497.4076625544635,768.8267415121983 L482.5923374455365,771.1732584878017M497.4768800029985,789.4115567820412 L482.5231199970015,790.5884432179588" stroke="hsl(140,80%, 30%)" fill="none" stroke-width="2"/></svg>