<svg viewBox="0 0 500 800" width="500" height="800" version="1.1" xmlns="http://www.w3.org/2000/svg">
<rect width="500" height="800" fill="hsl(10,100%, 10%)" /><path d="M460,400L250,610L40,400L249.99999999999997,190z" fill="hsl(10,80%, 10%  )" /><path d="M441.3865354480135,415.3360375979674L234.66396240203258,591.3865354480135L58.61346455198648,384.66396240203267L265.33603759796745,208.6134645519865z" fill="hsl(10,80%, 16.666666666666668%  )" /><path d="M423.10636674820125,417.61209218796125L232.38790781203878,573.1063667482013L76.89363325179875,382.3879078120388L267.61209218796114,226.89363325179875z" fill="hsl(10,80%, 23.333333333333336%  )" /><path d="M403.87579037794836,425.6562104676761L224.3437895323239,553.8757903779483L96.12420962205164,374.3437895323239L275.6562104676761,246.12420962205164z" fill="hsl(10,80%, 30%  )" /><path d="M387.9606740950792,403.2942985947482L246.70570140525177,537.9606740950792L112.03932590492084,396.7057014052518L253.29429859474814,262.0393259049208z" fill="hsl(10,80%, 36.66666666666667%  )" /><path d="M369.9946857501435,401.1293324241828L248.8706675758172,519.9946857501435L130.0053142498565,398.8706675758172L251.1293324241828,280.0053142498565z" fill="hsl(10,80%, 43.333333333333336%  )" /><path d="M341.55919769411094,444.95456948532274L205.0454305146773,491.55919769411094L158.44080230588906,355.04543051467726L294.95456948532274,308.44080230588906z" fill="hsl(10,80%, 50%  )" /><path d="M333.8026780976204,405.7542283293773L244.24577167062264,483.8026780976204L166.19732190237957,394.2457716706227L255.75422832937736,316.1973219023796z" fill="hsl(10,80%, 56.66666666666667%  )" /><path d="M302.8671119681285,439.51035904860095L210.48964095139905,452.8671119681285L197.1328880318715,360.48964095139905L289.51035904860095,347.13288803187146z" fill="hsl(10,80%, 63.333333333333336%  )" /><path d="M297.9180697000528,402.8033187868813L247.19668121311875,447.9180697000528L202.0819302999472,397.1966812131188L252.80331878688125,352.0819302999472z" fill="hsl(10,80%, 70%  )" /><path d="M279.9997458224894,400.12349326309385L249.87650673690612,429.9997458224894L220.00025417751058,399.87650673690615L250.12349326309388,370.0002541775106z" fill="hsl(10,80%, 76.66666666666667%  )" /><path d="M260.4045510537982,405.97873877744354L244.02126122255646,410.4045510537982L239.5954489462018,394.02126122255646L255.9787387774435,389.5954489462018z" fill="hsl(10,80%, 83.33333333333334%  )" /><path d="M244.05238239847557,399.2088964252156L250.7911035747844,394.0523823984756L255.94761760152443,400.7911035747844L249.2088964252156,405.9476176015244z" fill="hsl(10,80%, 90%  )" /></svg>