<svg viewBox="0 0 500 800" width="500" height="800" version="1.1" xmlns="http://www.w3.org/2000/svg">
<rect width="500" height="800" fill="hsl(10,100%, 10%)" /><path d="M460,400L250,610L40,400L249.99999999999997,190z" fill="hsl(10,80%, 10%  )" /><path d="M441.4470941855476,414.5605675682664L235.43943243173368,591.4470941855476L58.55290581445237,385.4394324317336L264.5605675682664,208.55290581445237z" fill="hsl(10,80%, 16.666666666666668%  )" /><path d="M421.9964789774499,426.3289046365329L223.6710953634671,571.9964789774499L78.00352102255013,373.6710953634671L276.3289046365329,228.00352102255013z" fill="hsl(10,80%, 23.333333333333336%  )" /><path d="M405.6007607151909,411.1536211543114L238.84637884568866,555.600760715191L94.39923928480908,388.84637884568866L261.1536211543114,244.39923928480908z" fill="hsl(10,80%, 30%  )" /><path d="M382.74709662200047,437.71217758800566L212.28782241199434,532.7470966220005L117.25290337799953,362.28782241199434L287.71217758800566,267.25290337799953z" fill="hsl(10,80%, 36.66666666666667%  )" /><path d="M367.5517591807492,424.1160509518279L225.8839490481721,517.5517591807492L132.44824081925086,375.8839490481721L274.11605095182784,282.4482408192508z" fill="hsl(10,80%, 43.333333333333336%  )" /><path d="M350.0493475086523,419.8526588419015L230.14734115809853,500.0493475086523L149.95065249134768,380.1473411580985L269.8526588419015,299.9506524913477z" fill="hsl(10,80%, 50%  )" /><path d="M332.5684371099551,415.4419297116452L234.5580702883548,482.5684371099551L167.43156289004492,384.5580702883548L265.4419297116451,317.4315628900449z" fill="hsl(10,80%, 56.66666666666667%  )" /><path d="M315.98955238442477,401.17429813218666L248.82570186781336,465.98955238442477L184.01044761557523,398.8257018678134L251.17429813218666,334.01044761557523z" fill="hsl(10,80%, 63.333333333333336%  )" /><path d="M297.90800131964664,402.97042245425416L247.02957754574584,447.90800131964664L202.09199868035336,397.02957754574584L252.9704224542542,352.09199868035336z" fill="hsl(10,80%, 70%  )" /><path d="M270.43457571876655,421.964246292418L228.03575370758202,420.43457571876655L229.56542428123348,378.035753707582L271.96424629241795,379.56542428123345z" fill="hsl(10,80%, 76.66666666666667%  )" /><path d="M261.60535900857775,403.0521537120569L246.94784628794307,411.60535900857775L238.39464099142222,396.9478462879431L253.05215371205693,388.39464099142225z" fill="hsl(10,80%, 83.33333333333334%  )" /><path d="M245.02939568157854,396.6394802917272L253.3605197082728,395.02939568157854L254.97060431842146,403.3605197082728L246.6394802917272,404.97060431842146z" fill="hsl(10,80%, 90%  )" /></svg>