<svg viewBox="0 0 500 800" width="500" height="800" version="1.1" xmlns="http://www.w3.org/2000/svg"><rect width="500" height="800" /><rect x="235" y="385" width="30" height="30" fill="rgba(255,255,255,0.1)" transform="rotate(4,250, 400)"/><rect x="220" y="370" width="60" height="60" fill="rgba(255,255,255,0.1)" transform="rotate(8,250, 400)"/><rect x="205" y="355" width="90" height="90" fill="rgba(255,255,255,0.1)" transform="rotate(12,250, 400)"/><rect x="190" y="340" width="120" height="120" fill="rgba(255,255,255,0.1)" transform="rotate(16,250, 400)"/><rect x="175" y="325" width="150" height="150" fill="rgba(255,255,255,0.1)" transform="rotate(20,250, 400)"/><rect x="160" y="310" width="180" height="180" fill="rgba(255,255,255,0.1)" transform="rotate(24,250, 400)"/><rect x="145" y="295" width="210" height="210" fill="rgba(255,255,255,0.1)" transform="rotate(28,250, 400)"/><rect x="130" y="280" width="240" height="240" fill="rgba(255,255,255,0.1)" transform="rotate(32,250, 400)"/><rect x="115" y="265" width="270" height="270" fill="rgba(255,255,255,0.1)" transform="rotate(36,250, 400)"/><rect x="100" y="250" width="300" height="300" fill="rgba(255,255,255,0.1)" transform="rotate(40,250, 400)"/><rect x="85" y="235" width="330" height="330" fill="rgba(255,255,255,0.1)" transform="rotate(44,250, 400)"/><rect x="70" y="220" width="360" height="360" fill="rgba(255,255,255,0.1)" transform="rotate(48,250, 400)"/><rect x="55" y="205" width="390" height="390" fill="rgba(255,255,255,0.1)" transform="rotate(52,250, 400)"/><rect x="40" y="190" width="420" height="420" fill="rgba(255,255,255,0.1)" transform="rotate(56,250, 400)"/><rect x="25" y="175" width="450" height="450" fill="rgba(255,255,255,0.1)" transform="rotate(60,250, 400)"/><rect x="10" y="160" width="480" height="480" fill="rgba(255,255,255,0.1)" transform="rotate(64,250, 400)"/></svg>