<svg viewBox="0 0 500 800" width="500" height="800" version="1.1" xmlns="http://www.w3.org/2000/svg">
<rect width="500" height="800" fill="hsl(10,100%, 10%)" /><path d="M460,400L250,610L40,400L249.99999999999997,190z" fill="hsl(10,80%, 10%  )" /><path d="M441.9873390893522,402.20491029071496L247.795089709285,591.9873390893522L58.01266091064781,397.79508970928504L252.20491029071493,208.0126609106478z" fill="hsl(10,80%, 16.666666666666668%  )" /><path d="M423.57083092861956,412.2133799887078L237.78662001129223,573.5708309286196L76.42916907138044,387.78662001129226L262.2133799887077,226.42916907138044z" fill="hsl(10,80%, 23.333333333333336%  )" /><path d="M404.5706892919484,421.0689822206001L228.93101777939992,554.5706892919484L95.42931070805164,378.9310177793999L271.06898222060005,245.42931070805164z" fill="hsl(10,80%, 30%  )" /><path d="M386.6673953889143,419.13172855782176L230.86827144217827,536.6673953889143L113.33260461108571,380.8682714421783L269.13172855782176,263.3326046110857z" fill="hsl(10,80%, 36.66666666666667%  )" /><path d="M368.3560349162537,419.7951761523493L230.2048238476507,518.3560349162536L131.6439650837463,380.2048238476507L269.79517615234926,281.6439650837463z" fill="hsl(10,80%, 43.333333333333336%  )" /><path d="M349.35546172022924,423.07579308193027L226.92420691806973,499.35546172022924L150.64453827977076,376.9242069180698L273.07579308193027,300.64453827977076z" fill="hsl(10,80%, 50%  )" /><path d="M330.41861923349484,424.2661426802485L225.7338573197515,480.41861923349484L169.5813807665052,375.7338573197515L274.26614268024844,319.58138076650516z" fill="hsl(10,80%, 56.66666666666667%  )" /><path d="M315.79244040582086,405.2301802499064L244.76981975009355,465.79244040582086L184.20755959417914,394.7698197500936L255.23018024990643,334.20755959417914z" fill="hsl(10,80%, 63.333333333333336%  )" /><path d="M297.09661977290165,409.2686787605747L240.7313212394253,447.09661977290165L202.90338022709835,390.7313212394253L259.2686787605747,352.90338022709835z" fill="hsl(10,80%, 70%  )" /><path d="M277.68689984836533,411.5514318067756L238.44856819322436,427.68689984836533L222.31310015163467,388.4485681932244L261.55143180677567,372.31310015163467z" fill="hsl(10,80%, 76.66666666666667%  )" /><path d="M260.99839866591844,404.7995027644042L245.20049723559578,410.99839866591844L239.00160133408158,395.2004972355958L254.79950276440422,389.00160133408156z" fill="hsl(10,80%, 83.33333333333334%  )" /><path d="M245.24444234369108,396.3414932858444L253.65850671415558,395.24444234369105L254.75555765630892,403.6585067141556L246.34149328584442,404.75555765630895z" fill="hsl(10,80%, 90%  )" /></svg>