<svg viewBox="0 0 500 800" width="500" height="800" version="1.1" xmlns="http://www.w3.org/2000/svg">
<rect width="500" height="800" fill="hsl(10,100%, 10%)" /><path d="M460,400L250,610L40,400L249.99999999999997,190z" fill="hsl(10,80%, 10%  )" /><path d="M441.98470751150137,402.4232378594101L247.57676214058995,591.9847075115014L58.01529248849863,397.57676214058995L252.4232378594101,208.01529248849863z" fill="hsl(10,80%, 16.666666666666668%  )" /><path d="M423.4165241321496,414.2375966343893L235.7624033656107,573.4165241321496L76.58347586785038,385.76240336561074L264.23759663438926,226.58347586785038z" fill="hsl(10,80%, 23.333333333333336%  )" /><path d="M405.34488015128534,414.2817439685352L235.71825603146485,555.3448801512853L94.65511984871466,385.7182560314648L264.28174396853507,244.65511984871463z" fill="hsl(10,80%, 30%  )" /><path d="M382.8122846836559,437.4819561536955L212.51804384630455,532.8122846836559L117.18771531634414,362.5180438463046L287.48195615369536,267.1877153163441z" fill="hsl(10,80%, 36.66666666666667%  )" /><path d="M366.7996945791913,427.5287367346858L222.47126326531418,516.7996945791913L133.20030542080875,372.4712632653142L277.5287367346859,283.2003054208088z" fill="hsl(10,80%, 43.333333333333336%  )" /><path d="M351.9055902162628,404.38755999105746L245.61244000894254,501.9055902162628L148.0944097837372,395.61244000894254L254.38755999105746,298.0944097837372z" fill="hsl(10,80%, 50%  )" /><path d="M333.973903115636,402.0937037817653L247.9062962182347,483.973903115636L166.026096884364,397.9062962182347L252.09370378176527,316.026096884364z" fill="hsl(10,80%, 56.66666666666667%  )" /><path d="M315.9999533645822,400.0784593714539L249.9215406285461,465.9999533645822L184.00004663541776,399.9215406285461L250.07845937145387,334.0000466354178z" fill="hsl(10,80%, 63.333333333333336%  )" /><path d="M287.61142871187167,429.82248195995425L220.17751804004575,437.61142871187167L212.38857128812833,370.17751804004575L279.82248195995425,362.38857128812833z" fill="hsl(10,80%, 70%  )" /><path d="M270.2860550477472,422.1014924971091L227.8985075028909,420.28605504774725L229.71394495225277,377.89850750289094L272.10149249710906,379.71394495225275z" fill="hsl(10,80%, 76.66666666666667%  )" /><path d="M256.8964125309408,409.82036120532655L240.17963879467345,406.8964125309408L243.10358746905922,390.17963879467345L259.82036120532655,393.1035874690592z" fill="hsl(10,80%, 83.33333333333334%  )" /><path d="M244.09142731924254,398.9565591170523L251.04344088294772,394.09142731924254L255.90857268075746,401.0434408829477L248.95655911705228,405.90857268075746z" fill="hsl(10,80%, 90%  )" /></svg>