<svg viewBox="0 0 500 800" width="500" height="800" version="1.1" xmlns="http://www.w3.org/2000/svg">
<rect width="500" height="800" fill="hsl(10,100%, 10%)" /><path d="M460,400L250,610L40,400L249.99999999999997,190z" fill="hsl(10,80%, 10%  )" /><path d="M441.849778940547,407.59357099546963L242.40642900453034,591.849778940547L58.150221059452974,392.40642900453037L257.5935709954696,208.15022105945297z" fill="hsl(10,80%, 16.666666666666668%  )" /><path d="M423.35345031137297,414.9860356713287L235.01396432867134,573.353450311373L76.646549688627,385.0139643286713L264.98603567132864,226.646549688627z" fill="hsl(10,80%, 23.333333333333336%  )" /><path d="M405.9667680382262,403.21982417379525L246.78017582620478,555.9667680382262L94.03323196177385,396.7801758262048L253.2198241737952,244.03323196177385z" fill="hsl(10,80%, 30%  )" /><path d="M380.9663617348523,443.49496630572105L206.50503369427895,530.9663617348523L119.03363826514766,356.505033694279L293.49496630572105,269.0336382651477z" fill="hsl(10,80%, 36.66666666666667%  )" /><path d="M361.45000215155085,444.48479538470764L205.51520461529236,511.45000215155085L138.54999784844912,355.51520461529236L294.48479538470764,288.54999784844915z" fill="hsl(10,80%, 43.333333333333336%  )" /><path d="M348.3751136970773,426.95064016098894L223.04935983901106,498.3751136970773L151.62488630292268,373.04935983901106L276.9506401609889,301.6248863029227z" fill="hsl(10,80%, 50%  )" /><path d="M328.3941656643272,430.1720862685036L219.82791373149635,478.3941656643272L171.6058343356728,369.8279137314964L280.1720862685036,321.60583433567285z" fill="hsl(10,80%, 56.66666666666667%  )" /><path d="M308.8473929983613,429.8828435276233L220.11715647237668,458.8473929983613L191.15260700163873,370.1171564723767L279.8828435276233,341.1526070016387z" fill="hsl(10,80%, 63.333333333333336%  )" /><path d="M296.4680071597166,412.03014175330145L237.96985824669855,446.4680071597166L203.5319928402834,387.96985824669855L262.03014175330145,353.5319928402834z" fill="hsl(10,80%, 70%  )" /><path d="M271.585612980961,420.83413814478934L229.16586185521064,421.585612980961L228.41438701903897,379.16586185521066L270.83413814478934,378.41438701903894z" fill="hsl(10,80%, 76.66666666666667%  )" /><path d="M261.9546360563082,401.0424378932177L248.9575621067823,411.9546360563082L238.0453639436918,398.9575621067823L251.0424378932177,388.0453639436918z" fill="hsl(10,80%, 83.33333333333334%  )" /><path d="M244.00006913215904,399.9711975499413L250.02880245005872,394.00006913215907L255.99993086784096,400.0288024500587L249.97119754994128,405.99993086784093z" fill="hsl(10,80%, 90%  )" /></svg>