<svg viewBox="0 0 500 800" width="500" height="800" version="1.1" xmlns="http://www.w3.org/2000/svg">
<rect width="500" height="800" fill="hsl(10,100%, 10%)" /><path d="M460,400L250,610L40,400L249.99999999999997,190z" fill="hsl(10,80%, 10%  )" /><path d="M441.7203798203536,410.3583763949451L239.64162360505492,591.7203798203536L58.2796201796464,389.6416236050549L260.35837639494497,208.2796201796464z" fill="hsl(10,80%, 16.666666666666668%  )" /><path d="M421.7905934784427,427.64040506802394L222.35959493197606,571.7905934784427L78.20940652155733,372.35959493197606L277.6404050680238,228.2094065215573z" fill="hsl(10,80%, 23.333333333333336%  )" /><path d="M403.7032981679573,426.670135588182L223.32986441181802,553.7032981679573L96.29670183204269,373.329864411818L276.67013558818195,246.2967018320427z" fill="hsl(10,80%, 30%  )" /><path d="M382.26266968875177,439.3774835001445L210.62251649985552,532.2626696887518L117.73733031124826,360.6225164998555L289.3774835001445,267.73733031124823z" fill="hsl(10,80%, 36.66666666666667%  )" /><path d="M369.7281392448101,408.072959369114L241.927040630886,519.7281392448101L130.2718607551899,391.92704063088604L258.07295936911396,280.2718607551899z" fill="hsl(10,80%, 43.333333333333336%  )" /><path d="M351.61981319790766,408.7984979185286L241.2015020814714,501.61981319790766L148.38018680209234,391.2015020814714L258.7984979185286,298.38018680209234z" fill="hsl(10,80%, 50%  )" /><path d="M319.6703379826828,446.92594171008983L203.07405828991017,469.6703379826828L180.32966201731722,353.07405828991017L296.92594171008983,330.3296620173172z" fill="hsl(10,80%, 56.66666666666667%  )" /><path d="M300.6912240443218,442.2658231303777L207.7341768696223,450.6912240443218L199.3087759556782,357.73417686962233L292.2658231303777,349.3087759556782z" fill="hsl(10,80%, 63.333333333333336%  )" /><path d="M288.46068768846754,428.7189049674629L221.28109503253714,438.46068768846754L211.53931231153246,371.28109503253717L278.71890496746283,361.53931231153246z" fill="hsl(10,80%, 70%  )" /><path d="M277.1057336512976,412.8560959558068L237.14390404419322,427.1057336512976L222.8942663487024,387.1439040441932L262.8560959558068,372.8942663487024z" fill="hsl(10,80%, 76.66666666666667%  )" /><path d="M261.3998750296903,403.74737899170117L246.25262100829886,411.3998750296903L238.60012497030968,396.25262100829883L253.74737899170114,388.60012497030965z" fill="hsl(10,80%, 83.33333333333334%  )" /><path d="M244.58388393702108,397.41820086134845L252.58179913865155,394.5838839370211L255.41611606297892,402.58179913865155L247.41820086134848,405.4161160629789z" fill="hsl(10,80%, 90%  )" /></svg>