<svg viewBox="0 0 500 800" width="500" height="800" version="1.1" xmlns="http://www.w3.org/2000/svg">
<rect width="500" height="800" fill="hsl(10,100%, 10%)" /><path d="M460,400L250,610L40,400L249.99999999999997,190z" fill="hsl(10,80%, 10%  )" /><path d="M441.99998366197144,400.07920733988993L249.9207926601101,591.9999836619714L58.00001633802853,399.9207926601101L250.07920733988988,208.00001633802853z" fill="hsl(10,80%, 16.666666666666668%  )" /><path d="M423.8146283551604,408.0296307360603L241.9703692639397,573.8146283551604L76.18537164483962,391.97036926393974L258.0296307360603,226.18537164483962z" fill="hsl(10,80%, 23.333333333333336%  )" /><path d="M401.46121351667364,437.356402397134L212.64359760286598,551.4612135166736L98.53878648332636,362.643597602866L287.35640239713405,248.53878648332636z" fill="hsl(10,80%, 30%  )" /><path d="M386.8323597565114,417.9138305078687L232.08616949213135,536.8323597565113L113.16764024348862,382.0861694921314L267.9138305078687,263.1676402434886z" fill="hsl(10,80%, 36.66666666666667%  )" /><path d="M361.8565498322251,443.4524137376849L206.54758626231515,511.8565498322251L138.14345016777492,356.5475862623152L293.4524137376849,288.1434501677749z" fill="hsl(10,80%, 43.333333333333336%  )" /><path d="M346.3906393626558,433.3593261811211L216.6406738188789,496.3906393626558L153.6093606373442,366.6406738188789L283.3593261811211,303.60936063734425z" fill="hsl(10,80%, 50%  )" /><path d="M325.74804730629546,436.30748310311833L213.69251689688164,475.74804730629546L174.25195269370454,363.69251689688167L286.30748310311833,324.25195269370454z" fill="hsl(10,80%, 56.66666666666667%  )" /><path d="M304.75074366687454,436.8558824059904L213.14411759400957,454.75074366687454L195.24925633312543,363.1441175940096L286.8558824059904,345.2492563331254z" fill="hsl(10,80%, 63.333333333333336%  )" /><path d="M297.9977640991732,400.46329416154305L249.53670583845695,447.9977640991732L202.0022359008268,399.53670583845695L250.46329416154305,352.0022359008268z" fill="hsl(10,80%, 70%  )" /><path d="M279.5678894731251,405.0734516953507L244.9265483046493,429.5678894731251L220.43211052687488,394.9265483046493L255.0734516953507,370.4321105268749z" fill="hsl(10,80%, 76.66666666666667%  )" /><path d="M259.47122117721045,407.36857987758566L242.63142012241434,409.47122117721045L240.52877882278955,392.63142012241434L257.36857987758566,390.52877882278955z" fill="hsl(10,80%, 83.33333333333334%  )" /><path d="M245.94215656424117,395.580282062069L254.41971793793098,395.94215656424115L254.05784343575883,404.419717937931L245.58028206206902,404.05784343575885z" fill="hsl(10,80%, 90%  )" /></svg>