<svg viewBox="0 0 500 800" width="500" height="800" version="1.1" xmlns="http://www.w3.org/2000/svg">
<rect width="500" height="800" fill="hsl(10,100%, 10%)" /><path d="M460,400L250,610L40,400L249.99999999999997,190z" fill="hsl(10,80%, 10%  )" /><path d="M441.9933137788836,401.60233086569315L248.39766913430685,591.9933137788836L58.00668622111641,398.39766913430685L251.60233086569315,208.0066862211164z" fill="hsl(10,80%, 16.666666666666668%  )" /><path d="M423.04429831996083,418.21183183955986L231.78816816044014,573.0442983199608L76.9557016800392,381.78816816044014L268.21183183955975,226.95570168003917z" fill="hsl(10,80%, 23.333333333333336%  )" /><path d="M405.85569526379993,406.7083719215268L243.29162807847317,555.8556952637999L94.14430473620007,393.2916280784732L256.7083719215268,244.14430473620007z" fill="hsl(10,80%, 30%  )" /><path d="M384.7739811291117,429.6643558940666L220.3356441059334,534.7739811291117L115.22601887088828,370.3356441059334L279.6643558940666,265.2260188708883z" fill="hsl(10,80%, 36.66666666666667%  )" /><path d="M360.12814973159266,447.6633049283819L202.33669507161812,510.12814973159266L139.87185026840734,352.3366950716181L297.6633049283819,289.87185026840734z" fill="hsl(10,80%, 43.333333333333336%  )" /><path d="M351.8530278195776,405.47363900749275L244.52636099250725,501.8530278195776L148.14697218042238,394.52636099250725L255.4736390074927,298.1469721804224z" fill="hsl(10,80%, 50%  )" /><path d="M332.1389377217948,417.58393897666616L232.41606102333384,482.1389377217948L167.86106227820522,382.41606102333384L267.58393897666616,317.8610622782052z" fill="hsl(10,80%, 56.66666666666667%  )" /><path d="M311.0059369997736,425.1848297746809L224.8151702253191,461.0059369997736L188.9940630002264,374.8151702253191L275.1848297746809,338.9940630002264z" fill="hsl(10,80%, 63.333333333333336%  )" /><path d="M296.9949706575961,409.7710149366214L240.22898506337864,446.9949706575961L203.00502934240387,390.2289850633786L259.7710149366214,353.0050293424039z" fill="hsl(10,80%, 70%  )" /><path d="M279.285725931955,406.5074001443292L243.49259985567082,429.285725931955L220.71427406804494,393.4925998556708L256.5074001443292,370.714274068045z" fill="hsl(10,80%, 76.66666666666667%  )" /><path d="M261.0431356261281,404.69565283458434L245.30434716541566,411.0431356261281L238.95686437387187,395.30434716541566L254.6956528345843,388.9568643738719z" fill="hsl(10,80%, 83.33333333333334%  )" /><path d="M244.1349975578549,398.73439881730775L251.26560118269225,394.1349975578549L255.8650024421451,401.26560118269225L248.73439881730775,405.8650024421451z" fill="hsl(10,80%, 90%  )" /></svg>