<svg viewBox="0 0 500 800" width="500" height="800" version="1.1" xmlns="http://www.w3.org/2000/svg">
<rect width="500" height="800" fill="hsl(10,100%, 10%)" /><path d="M460,400L250,610L40,400L249.99999999999997,190z" fill="hsl(10,80%, 10%  )" /><path d="M441.9056427960381,406.0186595716522L243.9813404283478,591.9056427960381L58.09435720396192,393.9813404283479L256.0186595716522,208.09435720396192z" fill="hsl(10,80%, 16.666666666666668%  )" /><path d="M422.274765010102,424.44187678379325L225.55812321620675,572.274765010102L77.72523498989798,375.55812321620675L274.44187678379325,227.72523498989798z" fill="hsl(10,80%, 23.333333333333336%  )" /><path d="M405.4547961875073,413.0309762604557L236.9690237395443,555.4547961875073L94.5452038124927,386.9690237395443L263.0309762604557,244.54520381249267z" fill="hsl(10,80%, 30%  )" /><path d="M385.3467260241338,426.93072138929926L223.06927861070076,535.3467260241339L114.65327397586617,373.0692786107008L276.93072138929926,264.6532739758662z" fill="hsl(10,80%, 36.66666666666667%  )" /><path d="M365.2265724698175,433.5087600017951L216.4912399982049,515.2265724698175L134.77342753018252,366.4912399982049L283.5087600017951,284.7734275301825z" fill="hsl(10,80%, 43.333333333333336%  )" /><path d="M344.84522707553424,437.52842790459454L212.47157209540546,494.84522707553424L155.15477292446576,362.47157209540546L287.5284279045945,305.15477292446576z" fill="hsl(10,80%, 50%  )" /><path d="M333.4964470003709,409.18386292984917L240.8161370701508,483.4964470003709L166.5035529996291,390.81613707015083L259.18386292984917,316.5035529996291z" fill="hsl(10,80%, 56.66666666666667%  )" /><path d="M300.8334191671705,442.0946967654447L207.90530323455528,450.8334191671705L199.16658083282948,357.9053032345553L292.09469676544467,349.1665808328295z" fill="hsl(10,80%, 63.333333333333336%  )" /><path d="M296.17555217884734,413.1079510595113L236.89204894048865,446.17555217884734L203.82444782115263,386.8920489404887L263.1079510595114,353.82444782115266z" fill="hsl(10,80%, 70%  )" /><path d="M274.8675758793725,416.7810509171402L233.21894908285984,424.8675758793725L225.1324241206275,383.2189490828598L266.7810509171402,375.1324241206275z" fill="hsl(10,80%, 76.66666666666667%  )" /><path d="M261.9994039209482,400.1196057771671L249.88039422283288,411.9994039209482L238.00059607905175,399.8803942228329L250.11960577716712,388.0005960790518z" fill="hsl(10,80%, 83.33333333333334%  )" /><path d="M245.70322053762305,395.81219792114103L254.187802078859,395.70322053762305L254.29677946237695,404.18780207885897L245.81219792114103,404.29677946237695z" fill="hsl(10,80%, 90%  )" /></svg>