<svg viewBox="0 0 500 800" width="500" height="800" version="1.1" xmlns="http://www.w3.org/2000/svg">
<rect width="500" height="800" fill="hsl(10,100%, 10%)" /><path d="M460,400L250,610L40,400L249.99999999999997,190z" fill="hsl(10,80%, 10%  )" /><path d="M441.9432256398401,404.6688468569272L245.3311531430728,591.9432256398401L58.05677436015992,395.33115314307287L254.66884685692713,208.05677436015992z" fill="hsl(10,80%, 16.666666666666668%  )" /><path d="M423.90470960086947,405.7577754938227L244.24222450617728,573.9047096008694L76.09529039913053,394.24222450617737L255.75777549382272,226.09529039913053z" fill="hsl(10,80%, 23.333333333333336%  )" /><path d="M403.0501881567077,430.1933751872224L219.80662481277764,553.0501881567077L96.94981184329231,369.80662481277767L280.1933751872224,246.9498118432923z" fill="hsl(10,80%, 30%  )" /><path d="M383.8591079368142,433.5520375291921L216.4479624708079,533.8591079368142L116.14089206318573,366.44796247080797L283.5520375291921,266.1408920631858z" fill="hsl(10,80%, 36.66666666666667%  )" /><path d="M369.1421021128416,414.3233901061592L235.6766098938408,519.1421021128416L130.85789788715837,385.6766098938408L264.3233901061592,280.8578978871584z" fill="hsl(10,80%, 43.333333333333336%  )" /><path d="M349.49374396800806,422.47209183027826L227.52790816972177,499.49374396800806L150.50625603199194,377.52790816972174L272.4720918302782,300.50625603199194z" fill="hsl(10,80%, 50%  )" /><path d="M328.3612939479036,430.2573563090076L219.7426436909924,478.3612939479036L171.63870605209638,369.7426436909924L280.2573563090076,321.6387060520964z" fill="hsl(10,80%, 56.66666666666667%  )" /><path d="M312.77161400716284,420.38932257177163L229.61067742822837,462.77161400716284L187.22838599283713,379.61067742822837L270.38932257177163,337.22838599283716z" fill="hsl(10,80%, 63.333333333333336%  )" /><path d="M293.6251684256915,420.02110585931877L229.97889414068123,443.6251684256915L206.37483157430847,379.97889414068123L270.02110585931877,356.3748315743085z" fill="hsl(10,80%, 70%  )" /><path d="M273.28841584082807,418.9116283705203L231.08837162947972,423.28841584082807L226.7115841591719,381.0883716294797L268.91162837052025,376.71158415917193z" fill="hsl(10,80%, 76.66666666666667%  )" /><path d="M261.8824397800609,401.67559687073754L248.32440312926244,411.8824397800609L238.11756021993907,398.32440312926246L251.67559687073754,388.11756021993904z" fill="hsl(10,80%, 83.33333333333334%  )" /><path d="M244.51262354580513,397.5733356948379L252.4266643051621,394.5126235458051L255.48737645419487,402.4266643051621L247.5733356948379,405.4873764541949z" fill="hsl(10,80%, 90%  )" /></svg>