<svg viewBox="0 0 500 800" width="500" height="800" version="1.1" xmlns="http://www.w3.org/2000/svg">
<rect width="500" height="800" fill="hsl(220,80%, 90%)" /><path d="M250,334.375L250.4669950754909,329.84202403140574L253.64089359135326,317.1458760189284L261.7689651406591,298.81237738021247L276.25,278.48441547928013L297.3762496120309,260.20706262340656L324.24621202458746,247.66335245389848L354.8622708967023,243.5266601874421L386.39900109604906,249.0625L415.60190656969485,264.0489191089181L439.25642365282204,287.0070302998817L454.6562411232177,315.6612294273208L460,347.50000000000006L454.6562411232177,380.2941727215806L439.2564236528219,412.45213545341073L415.60190656969485,443.1433158603476L386.39900109604906,472.18750000000006L354.86227089670234,499.77017329351054L324.2462120245875,526.0866475461015L297.376249612031,551.0297701969578L276.25000000000006,574.0155845207198L261.76896514065913,593.9953876505218L253.64089359135332,609.6449582277791L250.46699507549093,619.6689075183759L250,623.125L249.5330049245091,619.668907518376L246.35910640864677,609.6449582277794L238.23103485934104,593.995387650522L223.75000000000023,574.0155845207202L202.62375038796938,551.0297701969581L175.75378797541293,526.086647546102L145.13772910329817,499.770173293511L113.60099890395148,472.18750000000045L84.39809343030561,443.1433158603481L60.74357634717839,412.4521354534113L45.343758876782545,380.2941727215812L40,347.50000000000074L45.34375887678206,315.6612294273215L60.74357634717754,287.00703029988233L84.39809343030441,264.04891910891854L113.60099890395009,249.06250000000028L145.1377291032968,243.52666018744208L175.75378797541168,247.66335245389823L202.62375038796833,260.20706262340605L223.74999999999943,278.4844154792795L238.23103485934055,298.81237738021184L246.35910640864654,317.1458760189279L249.53300492450904,329.84202403140546L250,334.375" fill="hsl(220,80%, 90%  )" /><path d="M250,339.84375L250.4280788192,335.6885220287886L253.33748579207384,324.05038635068433L260.78821804560414,307.2446792651948L274.0625,288.6107141893401L293.42822881102836,271.856474071456L318.0590276892052,260.35807308274025L346.1237483219771,256.56610517182196L375.0324176713783,261.640625L401.80174768888696,275.37817584984157L423.4850550150868,296.42311110822493L437.6015543629495,322.68946030837736L442.5,351.87500000000006L437.6015543629495,381.93632499478224L423.4850550150868,411.41445749895985L401.8017476888869,439.548039538652L375.0324176713783,466.17187500000006L346.12374832197713,491.455992185718L318.0590276892052,515.5794269172598L293.4282288110284,538.4439560138779L274.06250000000006,559.5142858106598L260.7882180456042,577.8291053463116L253.33748579207386,592.1745450421308L250.4280788192,601.3631652251779L250,604.53125L249.57192118080002,601.363165225178L246.66251420792622,592.1745450421311L239.21178195439595,577.829105346312L225.9375000000002,559.5142858106601L206.57177118897192,538.4439560138783L181.9409723107952,515.5794269172601L153.87625167802332,491.4559921857184L124.96758232862219,466.17187500000045L98.19825231111346,439.5480395386524L76.51494498491351,411.41445749896036L62.398445637050656,381.9363249947828L57.5,351.8750000000007L62.3984456370502,322.689460308378L76.51494498491274,296.4231111082255L98.19825231111238,275.378175849842L124.96758232862092,261.6406250000002L153.87625167802207,256.5661051718219L181.94097231079405,260.35807308274L206.57177118897096,271.8564740714555L225.9374999999995,288.61071418933955L239.21178195439552,307.24467926519424L246.662514207926,324.0503863506839L249.57192118079996,335.6885220287883L250,339.84375" fill="hsl(220,80%, 85%  )" /><path d="M250,345.3125L250.3891625629091,341.5350200261714L253.0340779927944,330.95489668244034L259.80747095054926,315.6769811501771L271.875,298.7370128994001L289.48020801002576,283.50588551950545L311.8718433538229,273.05279371158207L337.3852257472519,269.60555015620173L363.66583424670756,274.21875L388.0015888080791,286.70743259076505L407.7136863773517,305.8391919165681L420.5468676026814,329.717691189434L425,356.25000000000006L420.5468676026814,383.5784772679838L407.7136863773516,410.37677954450896L388.001588808079,435.9527632169563L363.66583424670756,460.15625000000006L337.3852257472519,483.14181107792547L311.8718433538229,505.07220628841793L289.4802080100258,525.8581418307981L271.87500000000006,545.0129871005998L259.80747095054926,561.6628230421015L253.0340779927944,574.7041318564826L250.3891625629091,583.05742293198L250,585.9375L249.6108374370909,583.05742293198L246.96592200720565,574.7041318564827L240.19252904945085,561.6628230421018L228.12500000000017,545.0129871006001L210.5197919899745,525.8581418307984L188.12815664617744,505.0722062884183L162.61477425274848,483.1418110779258L136.3341657532929,460.1562500000004L111.99841119192135,435.9527632169567L92.28631362264866,410.3767795445094L79.45313239731877,383.57847726798434L75,356.2500000000006L79.45313239731837,329.7176911894345L92.28631362264795,305.8391919165686L111.99841119192035,286.70743259076545L136.33416575329176,274.2187500000002L162.61477425274734,269.60555015620173L188.12815664617642,273.0527937115819L210.5197919899736,283.50588551950506L228.12499999999955,298.7370128993996L240.19252904945046,315.6769811501766L246.96592200720545,330.9548966824399L249.61083743709088,341.5350200261712L250,345.3125" fill="hsl(220,80%, 80%  )" /><path d="M250,350.78125L250.35024630661817,347.3815180235543L252.73067019351495,337.8594070141963L258.8267238554943,324.10928303515936L269.6875,308.8633116094601L285.53218720902316,295.15529696755493L305.6846590184406,285.7475143404239L328.6467031725267,282.6449951405816L352.2992508220368,286.796875L374.20142992727114,298.0366893316886L391.9423177396165,315.25527272491126L403.4921808424133,336.74592207049056L407.5,360.62500000000006L403.4921808424133,385.2206295411855L391.94231773961644,409.3391015900581L374.2014299272711,432.3574868952607L352.2992508220368,454.14062500000006L328.6467031725267,474.82762997013293L305.68465901844064,494.5649856595761L285.5321872090233,513.2723276477183L269.68750000000006,530.5116883905398L258.8267238554943,545.4965407378913L252.73067019351498,557.2337186708344L250.3502463066182,564.751680638782L250,567.34375L249.64975369338183,564.7516806387821L247.26932980648508,557.2337186708345L241.1732761445058,545.4965407378916L230.31250000000017,530.51168839054L214.46781279097704,513.2723276477186L194.3153409815597,494.56498565957645L171.35329682747363,474.8276299701332L147.7007491779636,454.14062500000034L125.7985700727292,432.35748689526105L108.05768226038379,409.3391015900585L96.50781915758691,385.22062954118593L92.5,360.62500000000057L96.50781915758654,336.7459220704911L108.05768226038313,315.2552727249118L125.79857007272831,298.03668933168893L147.70074917796256,286.7968750000002L171.3532968274726,282.64499514058156L194.31534098155876,285.74751434042366L214.46781279097624,295.15529696755453L230.31249999999957,308.86331160945963L241.17327614450542,324.1092830351589L247.2693298064849,337.8594070141959L249.64975369338177,347.38151802355407L250,350.78125" fill="hsl(220,80%, 75%  )" /><path d="M250,356.25L250.31133005032729,353.22801602093716L252.42726239423553,344.7639173459522L257.8459767604394,332.54158492014164L267.5,318.9896103195201L281.5841664080206,306.80470841560435L299.49747468305833,298.44223496926566L319.9081805978015,295.6844401249614L340.93266739736606,299.375L360.40127104646325,309.3659460726121L376.1709491018813,324.6713535332545L386.4374940821451,343.7741529515472L390,365L386.4374940821451,386.86278181438706L376.1709491018813,408.3014236356072L360.4012710464632,428.7622105735651L340.93266739736606,448.125L319.90818059780156,466.5134488623404L299.49747468305833,484.05776503073434L281.5841664080207,500.6865134646385L267.50000000000006,516.0103896804799L257.84597676043944,529.3302584336811L252.42726239423553,539.763305485186L250.31133005032729,546.445938345584L250,548.75L249.68866994967274,546.4459383455841L247.57273760576453,539.7633054851863L242.1540232395607,529.3302584336814L232.50000000000014,516.0103896804801L218.4158335919796,500.6865134646387L200.50252531694196,484.05776503073463L180.09181940219878,466.5134488623406L159.0673326026343,448.12500000000034L139.5987289535371,428.76221057356537L123.82905089811892,408.30142363560753L113.56250591785502,386.8627818143875L110,365.0000000000005L113.56250591785471,343.77415295154765L123.82905089811835,324.6713535332549L139.5987289535363,309.36594607261236L159.0673326026334,299.37500000000017L180.09181940219787,295.6844401249614L200.50252531694113,298.4422349692655L218.41583359197887,306.80470841560407L232.49999999999963,318.98961031951967L242.15402323956036,332.54158492014125L247.57273760576436,344.7639173459519L249.6886699496727,353.22801602093693L250,356.25" fill="hsl(220,80%, 70%  )" /><path d="M250,361.71875L250.27241379403637,359.07451401832003L252.12385459495607,351.6684276777082L256.86522966538445,340.9738868051239L265.3125,329.11590902958005L277.636145607018,318.45411986365383L293.310290347676,311.1369555981074L311.16965802307635,308.7238851093412L329.5660839726953,311.953125L346.6011121656553,320.69520281353556L360.3995804641462,334.08743434159766L369.38280732187695,350.80238383260377L372.5,369.375L369.38280732187695,388.5049340875887L360.39958046414614,407.26374568115625L346.6011121656553,425.16693425186946L329.5660839726953,442.109375L311.16965802307635,458.1992677545478L293.3102903476761,473.5505444018926L277.6361456070181,488.10069928155866L265.31250000000006,501.50909097041983L256.8652296653845,513.163976129471L252.1238545949561,522.2928922995378L250.27241379403637,528.1401960523859L250,530.15625L249.72758620596363,528.140196052386L247.87614540504396,522.2928922995379L243.1347703346156,513.1639761294712L234.6875000000001,501.50909097042006L222.36385439298215,488.1006992815589L206.6897096523242,473.5505444018928L188.83034197692393,458.1992677545481L170.43391602730503,442.1093750000003L153.39888783434495,425.1669342518697L139.60041953585406,407.2637456811566L130.61719267812316,388.50493408758905L127.5,369.37500000000045L130.61719267812288,350.80238383260416L139.60041953585358,334.08743434159805L153.39888783434424,320.69520281353584L170.43391602730424,311.95312500000017L188.83034197692314,308.7238851093412L206.68970965232347,311.1369555981073L222.36385439298152,318.45411986365355L234.68749999999966,329.1159090295797L243.13477033461533,340.9738868051236L247.87614540504381,351.66842767770794L249.7275862059636,359.07451401831986L250,361.71875" fill="hsl(220,80%, 65%  )" /><path d="M250,367.1875L250.23349753774545,364.92101201570284L251.82044679567665,358.57293800946417L255.88448257032954,349.40618869010626L263.125,339.2422077396401L273.6881248060155,330.10353131170325L287.12310601229376,323.83167622694924L302.43113544835114,321.76333009372104L318.1995005480245,324.53125L332.8009532848474,332.02445955445904L344.628211826411,343.5035151499409L352.32812056160884,357.8306147136604L355,373.75L352.32812056160884,390.1470863607903L344.62821182641096,406.22606772670537L332.8009532848474,421.5716579301738L318.1995005480245,436.09375L302.43113544835114,449.88508664675527L287.12310601229376,463.04332377305076L273.6881248060155,475.5148850984789L263.125,487.0077922603599L255.88448257032957,496.9976938252609L251.82044679567665,504.82247911388953L250.23349753774545,509.83445375918797L250,511.5625L249.76650246225455,509.834453759188L248.17955320432338,504.8224791138897L244.11551742967052,496.997693825261L236.8750000000001,487.0077922603601L226.3118751939847,475.51488509847906L212.87689398770647,463.043323773051L197.56886455164909,449.8850866467555L181.80049945197572,436.0937500000002L167.1990467151528,421.57165793017407L155.3717881735892,406.22606772670565L147.67187943839127,390.14708636079064L145,373.75000000000034L147.67187943839104,357.83061471366074L155.37178817358875,343.50351514994117L167.1990467151522,332.02445955445927L181.80049945197504,324.5312500000001L197.5688645516484,321.76333009372104L212.87689398770584,323.8316762269491L226.31187519398415,330.103531311703L236.87499999999972,339.24220773963975L244.1155174296703,349.4061886901059L248.17955320432327,358.57293800946394L249.76650246225452,364.92101201570273L250,367.1875" fill="hsl(220,80%, 60%  )" /><path d="M250,372.65625L250.19458128145456,370.7675100130857L251.5170389963972,365.47744834122017L254.90373547527463,357.83849057508854L260.9375,349.3685064497001L269.7401040050129,341.7529427597527L280.93592167691145,336.526396855791L293.69261287362593,334.80277507810086L306.8329171233538,337.109375L319.00079440403954,343.3537162953825L328.85684318867584,352.91959595828405L335.27343380134073,364.85884559471697L337.5,378.125L335.27343380134073,391.78923863399194L328.85684318867584,405.1883897722545L319.00079440403954,417.97638160847816L306.8329171233538,430.078125L293.692612873626,441.57090553896273L280.93592167691145,452.536103144209L269.74010400501294,462.92907091539905L260.9375,472.5064935502999L254.90373547527463,480.83141152105077L251.51703899639722,487.3520659282413L250.19458128145456,491.52871146599L250,492.96875L249.80541871854547,491.52871146599L248.48296100360284,487.35206592824136L245.09626452472543,480.8314115210509L239.06250000000009,472.50649355030004L230.25989599498723,462.9290709153992L219.06407832308872,452.53610314420916L206.30738712637424,441.5709055389629L193.16708287664645,430.0781250000002L180.9992055959607,417.9763816084784L171.14315681132433,405.1883897722547L164.72656619865938,391.78923863399217L162.5,378.1250000000003L164.72656619865919,364.85884559471725L171.143156811324,352.91959595828433L180.99920559596018,343.35371629538275L193.16708287664588,337.1093750000001L206.30738712637367,334.80277507810086L219.0640783230882,336.52639685579095L230.2598959949868,341.7529427597525L239.06249999999977,349.3685064496998L245.09626452472523,357.83849057508826L248.48296100360272,365.47744834121994L249.80541871854544,370.7675100130856L250,372.65625" fill="hsl(220,80%, 55%  )" /><path d="M250,378.125L250.15566502516364,376.6140080104686L251.21363119711776,372.3819586729761L253.9229883802197,366.2707924600708L258.75,359.49480515976006L265.7920832040103,353.4023542078022L274.74873734152914,349.2211174846328L284.9540902989008,347.8422200624807L295.466333698683,349.6875L305.2006355232316,354.682973036306L313.08547455094066,362.3356767666272L318.21874704107256,371.8870764757736L320,382.5L318.21874704107256,393.43139090719353L313.08547455094066,404.1507118178036L305.2006355232316,414.38110528678254L295.466333698683,424.0625L284.9540902989008,433.2567244311702L274.7487373415292,442.0288825153672L265.79208320401034,450.3432567323192L258.75,458.00519484023994L253.92298838021972,464.66512921684057L251.21363119711776,469.881652742593L250.15566502516364,473.222969172792L250,474.375L249.84433497483636,473.22296917279203L248.78636880288227,469.88165274259313L246.07701161978034,464.6651292168407L241.25000000000009,458.00519484024005L234.2079167959898,450.3432567323194L225.25126265847098,442.0288825153673L215.0459097010994,433.2567244311703L204.53366630131717,424.06250000000017L194.79936447676855,414.3811052867827L186.91452544905945,404.15071181780377L181.7812529589275,393.43139090719376L180,382.5000000000002L181.78125295892735,371.8870764757738L186.91452544905917,362.33567676662744L194.79936447676815,354.6829730363062L204.5336663013167,349.6875000000001L215.04590970109894,347.8422200624807L225.25126265847055,349.22111748463277L234.20791679598943,353.40235420780203L241.2499999999998,359.49480515975984L246.0770116197802,366.27079246007065L248.78636880288218,372.38195867297594L249.84433497483636,376.61400801046847L250,378.125" fill="hsl(220,80%, 50%  )" /><path d="M250,383.59375L250.11674876887272,382.46050600785145L250.9102233978383,379.2864690047321L252.94224128516478,374.7030943450531L256.5625,369.62110386982005L261.84406240300774,365.0517656558516L268.5615530061469,361.9158381134746L276.21556772417557,360.8816650468605L284.09975027401225,362.265625L291.4004766424237,366.01222977722955L297.3141059132055,371.75175757497044L301.1640602808044,378.91530735683017L302.5,386.875L301.1640602808044,395.0735431803952L297.3141059132055,403.1130338633527L291.4004766424237,410.7858289650869L284.09975027401225,418.046875L276.21556772417557,424.94254332337766L268.5615530061469,431.5216618865254L261.84406240300774,437.75744254923944L256.5625,443.50389613017995L252.94224128516478,448.4988469126305L250.91022339783834,452.4112395569448L250.11674876887272,454.91722687959395L250,455.78125L249.88325123112728,454.917226879594L249.0897766021617,452.41123955694485L247.05775871483527,448.49884691263054L243.43750000000006,443.50389613018L238.15593759699235,437.7574425492395L231.43844699385323,431.52166188652546L223.78443227582454,424.9425433233777L215.90024972598786,418.0468750000001L208.5995233575764,410.78582896508703L202.6858940867946,403.1130338633528L198.83593971919564,395.0735431803953L197.5,386.87500000000017L198.83593971919552,378.91530735683034L202.68589408679438,371.7517575749706L208.59952335757612,366.01222977722966L215.90024972598752,362.26562500000006L223.7844322758242,360.8816650468605L231.43844699385292,361.91583811347454L238.1559375969921,365.0517656558515L243.43749999999986,369.6211038698199L247.05775871483513,374.703094345053L249.08977660216163,379.28646900473194L249.88325123112725,382.46050600785134L250,383.59375" fill="hsl(220,80%, 45%  )" /><path d="M250,389.0625L250.0778325125818,388.30700400523426L250.60681559855888,386.19097933648806L251.96149419010985,383.13539623003544L254.375,379.74740257988003L257.89604160200514,376.7011771039011L262.37436867076457,374.6105587423164L267.47704514945036,373.92111003124035L272.7331668493415,374.84375L277.6003177616158,377.34148651815303L281.54273727547036,381.1678383833136L284.1093735205363,385.9435382378868L285,391.25L284.1093735205363,396.71569545359677L281.5427372754703,402.07535590890177L277.6003177616158,407.19055264339124L272.7331668493415,412.03125L267.47704514945036,416.62836221558507L262.37436867076457,421.0144412576836L257.89604160200514,425.1716283661596L254.375,429.00259742011997L251.96149419010985,432.3325646084203L250.60681559855888,434.9408263712965L250.0778325125818,436.611484586396L250,437.1875L249.9221674874182,436.611484586396L249.39318440144112,434.94082637129657L248.03850580989018,432.33256460842034L245.62500000000003,429.00259742012L242.1039583979949,425.17162836615967L237.6256313292355,421.01444125768364L232.5229548505497,416.6283622155852L227.26683315065858,412.03125000000006L222.39968223838426,407.19055264339136L218.45726272452973,402.0753559089019L215.89062647946375,396.7156954535969L215,391.2500000000001L215.89062647946366,385.9435382378869L218.45726272452958,381.1678383833137L222.39968223838406,377.3414865181531L227.26683315065836,374.84375000000006L232.52295485054947,373.92111003124035L237.6256313292353,374.61055874231636L242.10395839799472,376.701177103901L245.62499999999991,379.7474025798799L248.0385058098901,383.1353962300353L249.3931844014411,386.190979336488L249.92216748741816,388.30700400523426L250,389.0625" fill="hsl(220,80%, 40%  )" /><path d="M250,394.53125L250.03891625629092,394.15350200261713L250.30340779927943,393.09548966824406L250.98074709505494,391.5676981150177L252.1875,389.87370128994L253.94802080100257,388.3505885519505L256.1871843353823,387.30527937115824L258.7385225747252,386.9605550156202L261.36658342467075,387.421875L263.8001588808079,388.6707432590765L265.7713686377352,390.58391919165683L267.05468676026817,392.97176911894337L267.5,395.625L267.05468676026817,398.3578477267984L265.7713686377352,401.0376779544509L263.8001588808079,403.5952763216956L261.36658342467075,406.015625L258.7385225747252,408.31418110779254L256.1871843353823,410.50722062884176L253.94802080100257,412.58581418307983L252.1875,414.50129871006L250.98074709505494,416.16628230421014L250.30340779927946,417.4704131856483L250.03891625629092,418.305742293198L250,418.59375L249.96108374370908,418.305742293198L249.69659220072057,417.4704131856483L249.0192529049451,416.1662823042102L247.81250000000003,414.50129871006L246.05197919899746,412.58581418307983L243.81281566461774,410.5072206288418L241.26147742527485,408.3141811077926L238.63341657532928,406.01562500000006L236.19984111919214,403.5952763216957L234.22863136226488,401.03767795445094L232.9453132397319,398.3578477267984L232.5,395.62500000000006L232.94531323973183,392.9717691189434L234.2286313622648,390.5839191916569L236.19984111919203,388.6707432590766L238.63341657532916,387.421875L241.26147742527473,386.9605550156202L243.81281566461763,387.3052793711582L246.05197919899737,388.3505885519505L247.81249999999994,389.87370128993996L249.01925290494503,391.56769811501766L249.69659220072054,393.095489668244L249.96108374370908,394.15350200261713L250,394.53125" fill="hsl(220,80%, 35%  )" /><path d="M250,400L250,400L250,400L250,400L250,400L250,400L250,400L250,400L250,400L250,400L250,400L250,400L250,400L250,400L250,400L250,400L250,400L250,400L250,400L250,400L250,400L250,400L250,400L250,400L250,400L250,400L250,400L250,400L250,400L250,400L250,400L250,400L250,400L250,400L250,400L250,400L250,400L250,400L250,400L250,400L250,400L250,400L250,400L250,400L250,400L250,400L250,400L250,400L250,400" fill="hsl(220,80%, 30%  )" /></svg>