<svg viewBox="0 0 500 800" width="500" height="800" version="1.1" xmlns="http://www.w3.org/2000/svg">
<rect width="500" height="800" fill="hsl(10,80%, 10%)" /><path d="M250,334.375L250.4669950754909,329.84202403140574L253.64089359135326,317.1458760189284L261.7689651406591,298.81237738021247L276.25,278.48441547928013L297.3762496120309,260.20706262340656L324.24621202458746,247.66335245389848L354.8622708967023,243.5266601874421L386.39900109604906,249.0625L415.60190656969485,264.0489191089181L439.25642365282204,287.0070302998817L454.6562411232177,315.6612294273208L460,347.50000000000006L454.6562411232177,380.2941727215806L439.2564236528219,412.45213545341073L415.60190656969485,443.1433158603476L386.39900109604906,472.18750000000006L354.86227089670234,499.77017329351054L324.2462120245875,526.0866475461015L297.376249612031,551.0297701969578L276.25000000000006,574.0155845207198L261.76896514065913,593.9953876505218L253.64089359135332,609.6449582277791L250.46699507549093,619.6689075183759L250,623.125L249.5330049245091,619.668907518376L246.35910640864677,609.6449582277794L238.23103485934104,593.995387650522L223.75000000000023,574.0155845207202L202.62375038796938,551.0297701969581L175.75378797541293,526.086647546102L145.13772910329817,499.770173293511L113.60099890395148,472.18750000000045L84.39809343030561,443.1433158603481L60.74357634717839,412.4521354534113L45.343758876782545,380.2941727215812L40,347.50000000000074L45.34375887678206,315.6612294273215L60.74357634717754,287.00703029988233L84.39809343030441,264.04891910891854L113.60099890395009,249.06250000000028L145.1377291032968,243.52666018744208L175.75378797541168,247.66335245389823L202.62375038796833,260.20706262340605L223.74999999999943,278.4844154792795L238.23103485934055,298.81237738021184L246.35910640864654,317.1458760189279L249.53300492450904,329.84202403140546L250,334.375" fill="hsl(10,80%, 10%  )" /><path d="M250,340L250.42696692616312,335.8555648287138L253.3288169978087,324.2476580744488L260.76019670003114,307.4856021761943L274,288.90003700962757L293.315428216714,272.18931439854316L317.88225099390854,260.72077938642144L345.87407624841353,256.93866074280425L374.70765814495917,262L401.4074574351496,275.7018688995822L423.0344444825801,296.6921419884633L437.11427759837045,322.890266904979L442,352.00000000000006L437.11427759837045,381.98324363115944L423.03444448258006,411.38480955740414L401.4074574351495,439.4453173580321L374.70765814495917,466.00000000000006L345.87407624841353,491.2184441540668L317.88225099390854,515.2792206135786L293.31542821671405,538.0843613229328L274.00000000000006,559.0999629903723L260.7601967000312,577.3672115661914L253.32881699780873,591.6753903796837L250.42696692616312,600.8401440168009L250,604L249.57303307383688,600.840144016801L246.67118300219136,591.6753903796839L239.23980329996894,577.3672115661916L226.0000000000002,559.0999629903727L206.6845717832863,538.0843613229331L182.11774900609186,515.2792206135789L154.12592375158687,491.2184441540672L125.29234185504134,466.00000000000045L98.59254256485085,439.4453173580325L76.96555551742023,411.3848095574046L62.88572240162975,381.98324363116L58,352.0000000000007L62.885722401629295,322.8902669049796L76.96555551741946,296.69214198846385L98.59254256484977,275.7018688995827L125.29234185504009,262.0000000000002L154.12592375158565,256.9386607428042L182.1177490060907,260.7207793864212L206.68457178328532,272.1893143985427L225.9999999999995,288.900037009627L239.23980329996851,307.4856021761937L246.67118300219113,324.24765807444834L249.57303307383683,335.85556482871357L250,340" fill="hsl(10,80%, 16.666666666666668%  )" /><path d="M250,345.625L250.38693877683534,341.8691056260219L253.01674040426414,331.34944012996925L259.75142825940327,316.15882697217603L271.75,299.31565853997495L289.25460682139703,284.1715661736797L311.5182899632296,273.77820631894446L336.8858816001248,270.3506612981663L363.0163151938692,274.9375L387.2130083006043,287.3548186902464L406.81246531233825,306.37725367704485L419.5723140735232,330.1193043826372L424,356.50000000000006L419.5723140735232,383.6723145407382L406.8124653123382,410.3174836613975L387.21300830060426,435.74731885571657L363.0163151938692,459.81250000000006L336.8858816001248,482.66671501462304L311.5182899632297,504.47179368105554L289.25460682139715,525.1389524489078L271.75000000000006,544.1843414600249L259.75142825940327,560.7390354818609L253.01674040426417,573.7058225315884L250.38693877683534,582.0113805152257L250,584.875L249.6130612231647,582.0113805152259L246.98325959573592,573.7058225315886L240.24857174059687,560.7390354818612L228.25000000000017,544.1843414600253L210.7453931786032,525.1389524489082L188.48171003677072,504.4717936810559L163.11411839987562,482.6667150146234L136.98368480613124,459.8125000000004L112.78699169939608,435.74731885571697L93.1875346876621,410.31748366139794L80.42768592647695,383.67231454073874L76,356.5000000000006L80.42768592647656,330.1193043826378L93.18753468766138,306.37725367704536L112.78699169939509,287.3548186902468L136.98368480613007,274.9375000000002L163.11411839987449,270.3506612981663L188.4817100367697,273.7782063189443L210.7453931786023,284.1715661736793L228.24999999999955,299.31565853997444L240.24857174059645,316.1588269721756L246.98325959573572,331.3494401299688L249.61306122316464,341.8691056260216L250,345.625" fill="hsl(10,80%, 23.333333333333336%  )" /><path d="M250,351.25L250.34691062750753,347.88264642332996L252.70466381071958,338.45122218548966L258.74265981877534,324.83205176815784L269.5,309.7312800703224L285.1937854260801,296.1538179488163L305.1543289325507,286.83563325146747L327.89768695183596,283.7626618535284L351.3249722427793,287.875L373.01855916605905,299.0077684809106L390.5904861420963,316.0623653656264L402.030350548676,337.3483418602954L406,361.00000000000006L402.030350548676,385.361385450317L390.5904861420963,409.25015776539084L373.018559166059,432.0493203534011L351.3249722427793,453.62500000000006L327.897686951836,474.1149858751793L305.1543289325507,493.66436674853253L285.1937854260802,512.1935435748829L269.50000000000006,529.2687199296776L258.74265981877534,544.1108593975305L252.7046638107196,555.736254683493L250.34691062750755,563.1826170136507L250,565.75L249.65308937249247,563.1826170136508L247.29533618928048,555.7362546834933L241.25734018122478,544.1108593975307L230.50000000000017,529.2687199296778L214.8062145739201,512.1935435748832L194.84567106744962,493.66436674853287L172.10231304816435,474.11498587517957L148.67502775722107,453.62500000000034L126.9814408339413,432.0493203534014L109.40951385790396,409.25015776539124L97.96964945132416,385.36138545031747L94,361.00000000000057L97.96964945132382,337.34834186029593L109.4095138579033,316.0623653656269L126.98144083394043,299.00776848091095L148.67502775722005,287.8750000000002L172.10231304816332,283.7626618535284L194.84567106744868,286.83563325146724L214.80621457391933,296.1538179488159L230.49999999999957,309.7312800703219L241.2573401812244,324.8320517681574L247.29533618928028,338.45122218548926L249.65308937249242,347.88264642332973L250,351.25" fill="hsl(10,80%, 30%  )" /><path d="M250,356.875L250.30688247817974,353.89618722063807L252.39258721717502,345.55300424101006L257.7338913781474,333.50527656413965L267.25,320.1469016006698L281.13296403076316,308.1360697239529L298.7903679018718,299.8930601839904L318.9094923035472,297.1746624088905L339.6336292916894,300.8125L358.8241100315138,310.66071827157475L374.36850697185446,325.747477054208L384.48838702382875,344.57737933795363L388,365.5L384.48838702382875,387.0504563598958L374.3685069718544,408.1828318693842L358.8241100315137,428.3513218510856L339.6336292916894,447.4375L318.90949230354727,465.56325673573554L298.7903679018718,482.8569398160096L281.1329640307632,499.2481347008579L267.25000000000006,514.3530983993302L257.7338913781474,527.4826833132L252.39258721717502,537.7666868353976L250.30688247817974,544.3538535120756L250,546.625L249.69311752182026,544.3538535120757L247.60741278282504,537.7666868353979L242.26610862185268,527.4826833132003L232.75000000000014,514.3530983993304L218.86703596923704,499.2481347008582L201.2096320981285,482.85693981600986L181.09050769645307,465.56325673573576L160.36637070831097,447.43750000000034L141.17588996848656,428.3513218510859L125.6314930281458,408.1828318693846L115.51161297617139,387.05045635989626L112,365.50000000000045L115.51161297617105,344.5773793379541L125.63149302814523,325.7474770542084L141.17588996848576,310.66071827157504L160.36637070831006,300.81250000000017L181.09050769645216,297.1746624088905L201.20963209812768,299.89306018399026L218.86703596923633,308.1360697239526L232.74999999999963,320.14690160066937L242.26610862185237,333.5052765641392L247.60741278282487,345.5530042410097L249.69311752182023,353.89618722063784L250,356.875" fill="hsl(10,80%, 36.66666666666667%  )" /><path d="M250,362.5L250.26685432885196,359.9097280179461L252.08051062363043,352.6547862965305L256.7251229375195,342.1785013601214L265,330.5625231310172L277.07214263544626,320.11832149908946L292.42640687119285,312.9504871165134L309.92129765525846,310.58666296425264L327.9422863405995,313.75L344.6296608969685,322.3136680622389L358.1465278016126,335.43258874278956L366.9464234989815,351.8064168156119L370,370L366.9464234989815,388.73952726947465L358.14652780161254,407.1155059733776L344.62966089696846,424.6533233487701L327.9422863405995,441.25L309.92129765525846,457.0115275962917L292.42640687119285,472.0495128834866L277.0721426354463,486.302725826833L265.00000000000006,499.43747686898274L256.72512293751953,510.8545072288696L252.08051062363046,519.7971189873024L250.26685432885196,525.5250900105005L250,527.5L249.73314567114807,525.5250900105007L247.9194893763696,519.7971189873025L243.27487706248058,510.85450722886975L235.0000000000001,499.4374768689829L222.92785736455394,486.30272582683324L207.5735931288074,472.04951288348684L190.0787023447418,457.011527596292L172.05771365940083,441.2500000000003L155.37033910303177,424.65332334877036L141.85347219838764,407.1155059733779L133.0535765010186,388.739527269475L130,370.0000000000004L133.0535765010183,351.80641681561224L141.85347219838715,335.4325887427899L155.37033910303109,322.3136680622392L172.05771365940006,313.75000000000017L190.07870234474103,310.5866629642526L207.5735931288067,312.9504871165133L222.92785736455332,320.1183214990892L234.9999999999997,330.56252313101686L243.27487706248033,342.17850136012106L247.91948937636946,352.65478629653023L249.733145671148,359.90972801794595L250,362.5" fill="hsl(10,80%, 43.333333333333336%  )" /><path d="M250,368.125L250.22682617952415,365.92326881525423L251.76843403008587,359.7565683520509L255.71635449689157,350.8517261561032L262.75,340.97814466136464L273.0113212401293,332.100573274226L286.06244584051393,326.0079140490364L300.9331030069697,323.99866351961475L316.25094338950953,326.6875L330.43521176242325,333.9666178529031L341.92454863137067,345.11770043137113L349.4044599741343,359.0354542932701L352,374.5L349.4044599741343,390.42859817905344L341.92454863137067,406.04818007737094L330.4352117624232,420.9553248464546L316.25094338950953,435.0625L300.9331030069697,448.459798456848L286.06244584051393,461.2420859509636L273.01132124012935,473.35731695280805L262.75,484.5218553386353L255.71635449689157,494.22633114453913L251.7684340300859,501.827551139207L250.22682617952415,506.69632650892544L250,508.375L249.77317382047585,506.6963265089255L248.23156596991416,501.8275511392071L244.28364550310852,494.2263311445393L237.2500000000001,484.5218553386355L226.98867875987085,473.3573169528082L213.9375541594863,461.2420859509638L199.06689699303053,448.4597984568482L183.7490566104907,435.0625000000002L169.564788237577,420.9553248464548L158.0754513686295,406.04818007737117L150.5955400258658,390.4285981790537L148,374.50000000000034L150.59554002586555,359.0354542932704L158.0754513686291,345.1177004313714L169.56478823757644,333.9666178529033L183.74905661049004,326.6875000000001L199.06689699302987,323.99866351961475L213.93755415948567,326.0079140490363L226.98867875987034,332.1005732742258L237.24999999999972,340.97814466136435L244.28364550310826,350.8517261561029L248.23156596991404,359.7565683520507L249.77317382047582,365.92326881525406L250,368.125" fill="hsl(10,80%, 50%  )" /><path d="M250,373.75L250.18679803019637,371.9368096125623L251.4563574365413,366.8583504075714L254.70758605626364,359.52495095208496L260.5,351.3937661917121L268.9504998448124,344.0828250493626L279.698484809835,339.0653409815594L291.9449083586809,337.41066407497686L304.55960043841964,339.625L316.2407626278779,345.6195676435672L325.7025694611288,354.8028121199527L331.86249644928705,366.2644917709283L334,379L331.86249644928705,392.1176690886322L325.70256946112875,404.9808541813643L316.2407626278779,417.2573263441391L304.55960043841964,428.875L291.94490835868095,439.9080693174042L279.698484809835,450.4346590184406L268.9504998448124,460.4119080787831L260.5,469.6062338082879L254.70758605626366,477.59815506020874L251.4563574365413,483.8579832911116L250.18679803019637,487.8675630073504L250,489.25L249.81320196980363,487.86756300735044L248.54364256345872,483.85798329111174L245.29241394373642,477.5981550602088L239.50000000000009,469.60623380828804L231.04950015518776,460.41190807878326L220.3015151901652,450.43465901844075L208.05509164131928,439.9080693174044L195.4403995615806,428.87500000000017L183.75923737212224,417.25732634413924L174.29743053887137,404.9808541813645L168.137503550713,392.1176690886325L166,379.0000000000003L168.13750355071284,366.26449177092854L174.29743053887103,354.80281211995293L183.7592373721218,345.6195676435674L195.44039956158002,339.6250000000001L208.0550916413187,337.4106640749768L220.30151519016468,339.0653409815593L231.04950015518733,344.08282504936244L239.49999999999977,351.3937661917118L245.29241394373622,359.52495095208474L248.5436425634586,366.85835040757115L249.81320196980363,371.9368096125622L250,373.75" fill="hsl(10,80%, 56.66666666666667%  )" /><path d="M250,379.375L250.14676988086856,377.9503504098704L251.14428084299675,373.9601324630918L253.6988176156357,368.1981757480668L258.25,361.80938772205945L264.8896784494954,356.0650768244992L273.3345237791561,352.1227679140824L282.95671371039214,350.822664630339L292.8682574873297,352.5625L302.04631349333266,357.2725174342314L309.48059029088694,364.4879238085343L314.3205329244398,373.4935292485865L316,383.5L314.3205329244398,393.80673999821107L309.4805902908869,403.91352828535764L302.04631349333266,413.5593278418235L292.8682574873297,422.6875L282.95671371039214,431.3563401779605L273.3345237791561,439.6272320859176L264.8896784494955,447.4664992047581L258.25,454.6906122779405L253.69881761563573,460.9699789758783L251.14428084299675,465.8884154430163L250.1467698808686,469.0387995057753L250,470.125L249.85323011913144,469.03879950577533L248.85571915700328,465.88841544301636L246.30118238436432,460.96997897587835L241.75000000000006,454.6906122779406L235.11032155050466,447.4664992047583L226.66547622084408,439.62723208591774L217.04328628960798,431.3563401779606L207.13174251267046,422.68750000000017L197.95368650666748,413.5593278418237L190.5194097091132,403.9135282853578L185.67946707556024,393.80673999821124L184,383.5000000000002L185.67946707556007,373.49352924858675L190.51940970911295,364.48792380853445L197.9536865066671,357.27251743423153L207.13174251267003,352.5625000000001L217.04328628960758,350.8226646303389L226.6654762208437,352.1227679140823L235.11032155050432,356.06507682449904L241.74999999999983,361.8093877220593L246.30118238436418,368.1981757480666L248.8557191570032,373.9601324630916L249.8532301191314,377.9503504098703L250,379.375" fill="hsl(10,80%, 63.333333333333336%  )" /></svg>