<svg viewBox="0 0 500 800" width="500" height="800" version="1.1" xmlns="http://www.w3.org/2000/svg">
<rect width="500" height="800" fill="hsl(210,80%, 20%)" /><path d="M 250 , 80C 243.01932757695317,160.49322958276252 206.66372632090227,235.9595366958256 158.73782248731902,301.0056552416338,C 129.9223068478787,340.11472353902116 97.57295834972741,377.01149721858894 74.65349194045754,419.84315868730727,C 63.19375873581728,441.2589894216669 54.27046426413121,464.2090802787768 50.276427624535344,488.16760616176555,C 46.28239098493948,512.1261320447543 47.368361805367165,537.1064033357779 55.000682800676415,560.1652620974088,C 61.42064206874973,579.5613192219475 72.48217540205822,597.4768868101397 87.3631972017159,611.4761046161532,C 102.2442190013736,625.4753224221666 120.91019756134844,635.4686715608267 140.87804411884596,639.793947602691,C 160.84589067634346,644.1192236445553 182.03087872131562,642.7393728470996 201.2313697474111,635.75624651723,C 220.43186077350654,628.7731201873604 237.56936531346372,616.214260090179 250,600,C 262.7448599338302,616.2483294843948 280.55956401029005,628.4569890049196 300.3070102604612,634.4966936635109,C 320.0544565106323,640.5363983221022 341.6282803736046,640.3772502516227 361.32599352696525,634.1772694214646,C 381.0237066803258,627.9772885913068 398.7398478703204,615.7978237413982 411.8753718564991,599.8636568232653,C 425.0108958426778,583.9294899051323 433.5406556388706,564.3628993898866 437.007409139273,544.005559535823,C 440.86775010400316,521.3370101386841 438.5220692721436,497.83674806635366 431.82612688768836,475.8383454034658,C 425.1301845032331,453.8399427405779 414.2130366589548,433.3012138714304 401.3881420407219,414.21489829807473,C 375.7383528042461,376.04226715136133 342.9284502709362,343.24447099523405 315.1823892438717,306.5672634403905,C 290.7715164386158,274.29880387057227 270.19902859384416,238.71923871217544 258.3713032826647,200.02493540940668,C 246.54357797148546,161.33063210663795 243.47327867861924,119.9317680915384 250,80M 250 , 80C 253.03567179192828,120.14550162270582 247.72596129715427,160.8483393262272 234.97136937897017,199.03468490638946,C 222.21677746078615,237.22103048655163 201.9865356161437,272.56158672112116 178.58566372277886,305.3224749630065,C 148.69558092632053,347.1681662901371 113.18708884577237,385.40247298907093 89.52168656201235,431.05800569839795,C 77.6889854201127,453.88577205307206 69.08131311857193,478.6610758098157 66.90385575066652,504.28095895685715,C 64.7263983827611,529.9008421038986 69.25488556457591,556.3355062714744 81.65393222997412,578.8606782984841,C 89.67790965202782,593.4377241512741 100.92251506499547,606.2703213341572 114.50961911109488,615.8757928532674,C 128.09672315719428,625.4812643723777 143.99981484388482,631.8192479916446 160.4920788073378,634.0282542894536,C 176.98434277079076,636.2372605872625 194.0220351161559,634.3043049061951 209.57895006446628,628.4003336363627,C 225.13586501277666,622.4963623665303 239.174054184627,612.6361931239823 250,600,C 260.73277766344575,612.6351399314159 274.7045420311077,622.4943475586558 290.2031567926084,628.3792619959279,C 305.70177155410914,634.2641764332001 322.68799782346895,636.1595169222477 339.1113558354057,633.8984134148477,C 355.53471384734235,631.6373099074477 371.35001975845796,625.2336383060891 384.8222646914457,615.5724844451362,C 398.29450962443343,605.9113305841831 409.39696500862317,593.0349686286027 417.2729535190627,578.4470255781639,C 427.97903463160077,558.6171716676271 432.64452646198487,535.7832579886527 432.00160088920313,513.2570526799608,C 431.3586753164214,490.7308473712688 425.5659953053175,468.542541390179 416.80470752762903,447.780000231207,C 399.282131972247,406.2549179132536 370.7052622714013,370.5549994919216 344.135865520864,334.14840294789656,C 316.96801958758414,296.92178409953294 291.61226867202345,257.93444313965927 274.6152862395186,215.09736116942116,C 257.6183038070144,172.2602791991836 248.9095496695983,126.07302813591303 250,80M 250 , 80C 258.91991720730897,126.19159658720642 254.9077437843177,174.66213682559874 239.4927924871998,219.10994661154825,C 224.07784119008303,263.5577563974965 197.34473044909367,303.20682586317406 167.78480005919656,339.8051732794818,C 143.70802547039528,369.61478884495745 117.7051013421149,398.15425655575734 98.02351083308207,431.03189713101983,C 78.34192032404744,463.90953770628187 65.59100318554907,502.4805600942402 70.83491077842854,540.4385064022108,C 73.57385754004743,560.2643313765209 81.20657723479165,579.4884518727055 93.42475179292718,595.3403090428255,C 105.64292635106271,611.1921662129456 122.42714385541456,623.5483327799711 141.32372637899624,630.1425980312654,C 160.22030890257804,636.7368632825594 181.1260291295143,637.5036768573575 200.41802920621393,632.1760227473779,C 219.71002928291355,626.8483686373984 237.2811486310128,615.4530251125329 250,600,C 260.6229571241957,619.3956430720752 277.8990220972661,635.0619630688127 298.2292687239583,643.7636445350416,C 318.55951535065043,652.4653260012706 341.79024283938094,654.1427435240844 363.20287808418675,648.6166924824507,C 384.61551332899234,643.0906414408175 404.0520381248317,630.4448868961316 418.1445005322681,613.4025662930911,C 432.2369629397045,596.3602456900506 440.9527916412239,575.0977307593837 443.7965947455922,553.1671363272801,C 446.80443916390925,529.9715023005566 443.35960786974147,506.18048353396495 435.5376429506453,484.13731155825053,C 427.71567803154915,462.0941395825362 415.65050272647267,441.7435925061442 401.76050554967105,422.9246513995108,C 373.9805111960563,385.286769186243 339.3171171698448,353.2433342385256 310.2996250601012,316.55105418607235,C 284.0857909582665,283.403966957591 262.4531190728932,246.09488087517025 251.2764374638898,205.33980415751427,C 240.09975585488664,164.5847274398583 239.44661999207824,120.9209073758079 250,80M 250 , 80C 251.95698731633377,126.6937950299093 243.56984004142322,173.69075939693965 226.41640147069182,217.16373765759738,C 209.262962899961,260.63671591825437 183.28815081534808,300.0458576966171 155.38791422801393,337.53875158362143,C 128.63438728012855,373.4906742069418 99.85059035092817,408.6589377843765 81.79287718330797,449.67370268215933,C 72.76402059949332,470.18108513105284 66.61383431521611,492.1253952183405 65.50494143943472,514.5049247644753,C 64.39604856365332,536.8844543106101 68.48192632649067,559.6759696288483 78.58475449299003,579.6761158571753,C 86.34744945305687,595.0435982857093 97.62945014091642,608.6686084446635 111.51389909197167,618.8490321372162,C 125.39834804302693,629.029455829769 141.8543239816009,635.7135172075671 158.9315807164554,637.9012675695179,C 176.00883745130983,640.0890179314688 193.65250275945414,637.7635929914394 209.55210627166045,631.1589311992668,C 225.45170978386676,624.5542694070942 239.55977728168887,613.6901679619502 250,600,C 272.975404915717,621.7623267590218 306.18817941850557,632.152189846612 337.496929917529,627.5445614764534,C 368.8056804165524,622.9369331062946 397.3326496599553,603.6083927178232 414.4360063947571,576.9824038083067,C 427.4309156390367,556.752321796726 434.05064972564054,532.728898474803 434.785071342503,508.6959105342446,C 435.51949295936544,484.6629225936861 430.5505617666568,460.6729252319095 422.21280427746507,438.1206374430006,C 405.5372892990769,393.01606186516847 376.3560458849439,353.8400224527426 349.13901367917174,314.1949887693065,C 300.6426135945256,243.5538769704459 260.5401531122151,165.0351260933989 250,80M 250 , 80C 255.26681549908156,120.61331663928428 251.32830221551626,162.3290523067197 239.0724970734199,201.4055935336898,C 226.8166919313237,240.48213476065982 206.23335108159523,276.53482790659166 182.09409447449394,309.6177105560924,C 151.96287037666835,350.91259246314 115.90715112666541,388.1798101660172 91.19347130801368,432.9279047307198,C 78.83663139866763,455.30195201308 69.56298333650095,479.6565759464761 66.60184224168977,505.0439966062264,C 63.640701146878584,530.4314172659767 67.26591324793334,556.8359723577271 78.83002955275283,579.6298465002924,C 86.59779482097217,594.9407841651757 97.87928663492177,608.5018362571303 111.74242749741501,618.6298328441542,C 125.60556835990825,628.757829431178 142.0197829564463,635.4029631913907 159.04929361574398,637.5844205356825,C 176.07880427504162,639.7658778799744 193.67033002281818,637.4676086311614 209.54174764217402,630.9207702955907,C 225.41316526152983,624.3739319600201 239.51830320608462,613.5976844264205 250,600,C 278.0290698117553,617.799239118703 314.35416656723726,621.7419487351326 345.62920409795765,610.5923435775924,C 376.90424162867805,599.4427384200521 402.2335041296375,573.7166164686964 414.6140640285929,542.9081208172468,C 422.5060626515183,523.2692185995728 425.43016876692593,501.7894069928104 424.20187105977845,480.65977359981866,C 422.973573352631,459.5301402068269 417.6862146092565,438.76020019042676 409.9922801556621,419.04286022775915,C 394.6044112484709,379.6081803024215 370.15523894675897,344.490309265497 346.81693415745417,309.1745334722308,C 300.6641615189689,239.3356576218569 261.58277229159677,162.90588874322899 250,80M 250 , 80C 249.91078092495843,119.74295068895186 242.6299963244138,159.41105936723343 229.07337788805324,196.77050510828718,C 215.51675945169282,234.12995084934084 195.61729362538472,268.8974706666195 173.39537382756117,301.847377646866,C 146.4623763544535,341.78271039543546 115.72609104237077,379.7225614360426 96.34712263494043,423.82100515109,C 86.65763843121593,445.87022700861985 80.04141931298518,469.4809811944489 79.09630569372513,493.54674627481745,C 78.15119207446506,517.6125113551861 83.07912271948186,542.0975598017665 94.74775196623999,563.1664321056774,C 109.34971986454057,589.5317395063208 134.8467797182852,609.9176016841992 164.12283509881394,617.0771744500591,C 193.39889047934264,624.2367472159191 225.72848781051604,617.86730524923 250,600,C 273.54322311842446,619.259507980921 305.7444148250509,627.4292643841806 335.65193155204577,621.8837756144147,C 365.55944827904057,616.3382868446489 392.44852355709867,597.3284577090119 408.7355626501021,571.6390754654847,C 422.07594193124595,550.5974299785432 428.48281422352125,525.5128328332609 428.5876424879706,500.59886937503387,C 428.6924707524199,475.68490591680694 422.71490498286965,450.99673798213263 413.335474769505,427.91551502849524,C 394.576614342768,381.75306912119646 363.27325354198683,342.0209556653871 335.3738623518442,300.73548330677795,C 290.66293194351766,234.5723233682662 256.2986359688614,159.6050137614401 250,80M 250 , 80C 244.5298275869366,124.82634036082416 231.97778504088615,168.71541797021695 213.64347322571874,209.98497801920834,C 195.3091614105516,251.25453806819908 171.0233788664997,289.55542679531595 146.43185445427957,327.4312832669023,C 123.32170928862365,363.0255199908747 99.79100778796891,399.09247520073177 86.93258589719268,439.53613334411295,C 80.50337495180261,459.75796241580497 76.90702232519465,481.0066816760994 77.80910995637372,502.20676097526064,C 78.71119758755277,523.4068402744218 84.22051702877243,544.5253740971415 94.7844983017134,562.9280756393065,C 109.715737704871,588.9386426113157 135.14872759086114,608.9894177565636 164.27077194914844,616.1586601651954,C 193.39281630743574,623.3279025738273 225.52295879922082,617.3310691642246 250,600,C 260.65116190069534,611.9079849322093 274.42685966266237,620.994696982776 289.5634793421207,626.106457898545,C 304.700099021579,631.218218814314 321.1558068825444,632.3406879499776 336.85825016478,629.3943970701213,C 352.56069344701547,626.448106190265 367.4634346064643,619.4500513059884 379.87026304782114,609.3843688647783,C 392.27709148917796,599.3186864235681 402.1631050737403,586.2311526602799 408.767598094758,571.6837120979035,C 418.13015345480846,551.0612029698211 420.80686300128554,527.7060759489219 417.97146301198865,505.23596619154546,C 415.13606302269176,482.765856434169 406.98648388098735,461.19312398132865 396.10618356963664,441.32947903024603,C 374.3455829469237,401.60218912806454 342.47115529258093,368.54487238113137 314.6389015523097,332.8076795119322,C 286.82180898275135,297.089953901362 262.80145799424173,257.6635997908992 250.4998835225925,214.0950580740385,C 238.19830905094437,170.5265163571781 237.71655856903047,123.57365750573678 250,80M 250 , 80C 234.50689932387044,161.49022171190597 195.34228871323768,236.40694689765078 150.5198893340112,306.2041167335789,C 125.53656521936107,345.1079982849187 99.43340726657134,384.1044013000781 85.13073053223196,428.07156998093956,C 77.97939216505877,450.0551543213732 73.98444600113848,473.222364530843 75.1358117048986,496.3111925199586,C 76.28717740865872,519.4000205090742 82.72645619616344,542.365506679848 94.89778185065379,562.0194745415065,C 110.50958263884556,587.2290400123363 135.814927654268,606.4958541859532 164.57241852094566,613.7247707113526,C 193.3299093876233,620.9536872367519 224.9836258528435,615.9195332722953 250,600,C 275.79784421904094,619.1263519528168 311.0575153621474,624.6503505178085 341.54709415201825,614.5641376215239,C 372.03667294188904,604.4779247252392 396.71151013045306,579.3666639355218 408.08240055949074,549.3325340792444,C 414.95829740449125,531.1711086385641 417.2793670762684,511.42279620295074 415.81157082599555,492.0588889105636,C 414.3437745757227,472.69498161817654 409.16931013293646,453.7230598931425 401.7839107666943,435.7627924212593,C 387.01311203420823,399.8422574774911 363.8899242679753,368.09711111962713 341.6736459770235,336.23964253310777,C 315.2027526785056,298.2811851951773 289.9221918502394,259.03675906643775 273.19471109676607,215.88882675051804,C 256.4672303432938,172.74089443459937 248.19504868788192,126.24170007966582 250,80M 250 , 80C 245.86409928572405,125.42476220267186 233.99195682990947,170.0583804555701 215.80677380511776,211.88915637764046,C 197.62159078032641,253.71993229970994 172.9526602252765,292.35243095652794 147.99892182770563,330.5339138490656,C 126.53952779538794,363.36873294811176 104.81453964308601,396.5888939122662 91.86741574349207,433.6159505091647,C 85.39385379369416,452.1294788076143 81.23562500799649,471.5474536388844 80.78545906373252,491.15497987239974,C 80.33529311946856,510.76250610591507 83.66904891030804,530.5466105989451 91.40997726433454,548.5670368589756,C 103.93396865523985,577.7221527597252 128.67592010276127,601.7395771309906 158.77591292428755,611.7825635239756,C 188.87590574581378,621.8255499169605 223.48532478930622,617.4310969826065 250,600,C 258.50902149137255,619.821765656547 273.85686377026184,636.6271256743114 292.8177186903451,646.9126407894265,C 311.7785736104283,657.1981559045416 334.2074087187133,660.8912738641948 355.49120883640387,657.383326738895,C 376.77500895409423,653.8753796135956 396.7518243624239,643.2327184904574 411.84890719804434,627.8254497403477,C 426.9459900336647,612.4181809902379 437.1142758136515,592.4146300187612 441.5050492781699,571.2952799135384,C 446.196653109977,548.7289542582447 444.3897084485766,525.0573918840851 437.9273975400551,502.93299951238373,C 431.46508663153355,480.80860714068234 420.4930182745503,460.1921000236365 407.4251025850153,441.2057949690294,C 381.2892712059348,403.23318485981207 347.30323090763744,371.4183215272697 317.8943239347036,335.92019494234006,C 288.51910099737904,300.46272679333026 263.5967613961212,260.557818544138 250.78909152039338,216.33000645140686,C 237.98142164466623,172.10219435867583 237.42143166162697,124.29351407048682 250,80M 250 , 80C 255.1877289734387,126.5619861700511 248.93712064595667,174.22318956497736 232.91539471554717,218.24858435267606,C 216.8936687851386,262.27397914037306 191.06012666524134,301.99815820129487 163.59074529380098,339.9502882478689,C 140.99194775202494,371.1731429457684 117.21500257335435,402.0407173377991 101.54409094258487,437.25427771559873,C 93.7086351271988,454.8610579044989 88.02173915098477,473.5297363693334 86.01853688192077,492.69690249070703,C 84.01533461285676,511.86406861208064 85.78021961702603,531.5253733763774 92.15172624570367,549.7131984177569,C 97.50148958105882,564.9843995993216 106.09718527635552,579.1510083265404 117.44228128622267,590.6887008947721,C 128.78737729608983,602.2263934630038 142.86456621576178,611.0899344051344 158.23332887547326,616.1526103360618,C 173.6020915351847,621.2152862669892 190.2223607127531,622.4556096581395 206.16044414426037,619.6614998173411,C 222.09852757576763,616.8673899765428 237.31524980346728,610.0462264419879 250,600,C 263.5604299327184,613.431207432447 280.9778166445407,622.9204601729568 299.61293055923215,627.0453992561503,C 318.2480444739236,631.1703383393437 338.0265593870616,629.9153220664423 356.0273494479216,623.5707062200394,C 374.0281395087815,617.2260903736366 390.1784669431278,605.836008485912 402.4283958545742,591.1996894569318,C 414.6783247660207,576.5633704279516 423.0072524358177,558.7669009393458 426.97560148242485,540.0978142209797,C 431.6311078206735,518.1959979931512 430.3206717937531,495.2383691774097 424.6895322599283,473.5668772838266,C 419.0583927261035,451.8953853902435 409.23216960979204,431.4799067839937 397.42041249483015,412.4576648761589,C 373.7968982648979,374.4131810604862 342.7373423276882,341.6063828458268 316.1539945127963,305.567809173645,C 292.25744370125744,273.1716785986066 271.872282928764,237.79237738852424 259.88592323971307,199.36216013272286,C 247.89956355066238,160.93194287692154 244.3092021315672,119.85184106843786 250,80M 250 , 80C 243.09786478753992,159.37682725382334 208.64378097190456,234.0185198977817 164.01674404194506,300.0241844291416,C 135.94712674788116,341.5405805444264 104.45803545140778,381.50441168362323 85.63968992483694,427.95206429469755,C 76.23051716154103,451.1758906002432 70.25899417564861,476.01988366391527 70.4300503551523,501.076806462678,C 70.601106534656,526.1337292614407 77.137864504064,551.3465822681436 90.65693322899094,572.4442935461568,C 107.11778660993177,598.1329218893399 134.19252210953996,617.0612520507339 164.221845312931,622.4561633687534,C 194.25116851632202,627.851074686773 226.50554614968803,619.4647362802216 250,600,C 274.73145672644813,618.570086124055 308.34351179489886,624.615928393881 338.05305863917386,616.0231478907593,C 367.76260548344885,607.4303673876377 392.6731476094821,584.6369224869331 405.32385091282197,556.4154279057126,C 414.85798894027823,535.1464424408942 417.73439182733506,511.185407511957 415.15053673167694,488.0209255735695,C 412.5666816360188,464.856443635182 404.7122057243148,442.4996122704612 394.16173349703,421.7160354269405,C 373.06078904244873,380.148881739883 341.96925098823493,344.6459012681747 315.36967341377056,306.36352156969156,C 292.41541342356857,273.32751961880575 272.6020427399178,237.74497792303288 260.76676258883657,199.2975902309914,C 248.93148243775548,160.85020253895001 245.04495886179382,119.92146094415125 250,80M 250 , 80C 255.39478268703076,120.76819916204593 251.51224520092038,162.6630789908095 239.30961267804767,201.9345126629873,C 227.10698015517517,241.20594633516487 206.55944067083,277.4327436313106 182.89236428304437,311.06337309927073,C 156.20337234025357,348.98810804306765 125.26946356384708,384.3309141133596 104.54052896306878,425.8146347974576,C 94.1760616626705,446.556495139511 86.56616180418166,468.8796497269868 84.26732606007002,491.9526275818687,C 81.96849031595838,515.0256054367505 85.17161523136707,538.8325060271101 94.9993112058296,559.8340141801882,C 108.02438021942245,587.6682180255251 133.2084813150844,609.8730363001068 162.8951380056266,617.8164449544887,C 192.58179469616874,625.7598536088706 225.86382234440651,619.022099113669 250,600,C 261.95131807070084,617.1752641557227 279.6335403109585,630.2841282134622 299.5344379451995,636.7477166747872,C 319.43533557944056,643.2113051361122 341.4174571603366,642.989880708654 361.23678107935245,636.2803276803934,C 381.05610499836814,629.5707746521331 398.58045613428743,616.457082898896 410.9712069906214,599.5960925465424,C 423.36195784695536,582.7351021941888 430.60067199159835,562.28366208922 432.45624460737616,541.44186387713,C 434.2253114747741,521.5716985381395 431.2040493799196,501.4183847443884 424.8286662286565,482.5158040249539,C 418.45328307739345,463.6132233055194 408.79994281020026,445.93283683502807 397.5419842758625,429.46433848759887,C 375.0260672071841,396.52734179274034 346.45005134671334,368.2669968646223 320.76253227485716,337.73891738598905,C 290.7776433084497,302.10367090835246 264.6719652179399,262.3176675225683 251.1602199643069,217.74865252278818,C 237.64847471067534,173.1796375230084 236.90501269225098,124.69323959235356 250,80M 250 , 80C 247.74024225177303,125.86719519306743 236.8598050757704,171.21540166569116 218.8111049300401,213.44276865688698,C 200.76240478431023,255.6701356480822 175.4345145101372,294.3504824766693 148.84800880772679,331.7946250692732,C 122.66449926478056,368.6711922975867 94.98862037468709,405.3041446078961 78.72103008566592,447.50394186710605,C 70.5872349411512,468.6038404967136 65.51077302538027,491.04782889442396 65.57903728021739,513.6610923834509,C 65.64730153505452,536.2743558724777 71.01139919424764,559.0209294202566 82.27259468691065,578.6308713301316,C 90.47359550759272,592.9118728278096 101.75710478241201,605.4510429701961 115.28204884205293,614.8467497781533,C 128.80699290169383,624.2424565861104 144.54842729171796,630.4572704970049 160.86691587416533,632.6732011416871,C 193.50389303906005,637.1050624310514 228.02403662270532,624.5330533482856 250,600,C 264.0517615202292,612.6978987925432 281.571186381296,621.5170944001736 300.1381107336886,625.2531291510284,C 318.70503508608124,628.9891639018831 338.2578216014816,627.6297610266761 356.16145322231745,621.453304894518,C 374.06508484315316,615.27684876236 390.25824709276566,604.3191152505161 402.8521269209425,590.1740515730171,C 415.44600674911936,576.0289878955181 424.4198744637327,558.7682297266589 429.279025773869,540.4631133896272,C 435.0590371328653,518.6889858511245 435.0344023966987,495.57292987496464 430.6287646377711,473.47968390905413,C 426.22312687884346,451.38643794314356 417.55595198913505,430.29848399799914 406.727305946702,410.54344448245246,C 385.07001386182975,371.03336545135596 355.33658005370006,336.6526901156078 329.1042378914466,300.0200698138137,C 306.017981306042,267.78085661462023 285.4801178712861,233.44857760058107 271.49509985666714,196.34384229683621,C 257.51008184204824,159.23910699309144 250.02809440996614,119.65275931803873 250,80M 250 , 80C 248.98152817995603,119.83442286664757 240.75896178099336,159.432139803221 226.2405656495571,196.54055803598612,C 211.72216951812092,233.6489762687512 190.86440593385916,268.01016365095927 167.28287242960755,300.1307148223662,C 137.17601843191676,341.1394449911888 102.2489995620297,378.91183922010316 77.41543064078,423.3126552298469,C 64.99864618014497,445.51306323472033 55.30978497436677,469.46006922198785 51.15826477480412,494.5558762812824,C 47.00674457524147,519.6516833405769 48.59122375815139,545.9103088030848 57.524646245690136,569.7268705739168,C 64.56139878276457,588.4868980660569 76.14388541286705,605.5940248321499 91.32177829581951,618.6740128064372,C 106.49967117877198,631.7540007807244 125.23451286097954,640.7214317548192 144.99114136222462,644.0576194050672,C 164.7477698634697,647.393807055315 185.44158258540585,645.0668868325942 203.92402180165732,637.330352828827,C 222.40646101790878,629.5938188250599 238.6018297700368,616.4783565073297 250,600,C 259.7564546839742,620.5137494380535 276.9037472131466,637.4103295404531 297.54838616326873,646.8866793982193,C 318.1930251133909,656.3630292559855 342.1481574768116,658.3423997163056 364.1185830416721,652.5715484353758,C 386.08900860653233,646.8006971544468 405.8841048719919,633.3845820398823 419.81250108427633,615.4401649983263,C 433.7408972965608,597.4957479567703 441.77435490488483,575.2369692902247 443.5778420694568,552.5929908841475,C 445.2975058436171,531.0014707820033 441.4916392173059,509.15312744660037 433.9344046863727,488.85437896148613,C 426.3771701554395,468.55563047637185 415.16499637179965,449.7634537626749 402.2883546480589,432.3467065997895,C 376.53507120057213,397.5132122740188 344.4946996105381,367.85861840141456 316.5245607194227,334.7787866956484,C 286.8746070030696,299.7122651156478 261.7643965608293,259.9972903087276 249.13481273253296,215.84670363735296,C 236.50522890423736,171.6961169659784 236.51885419233668,123.89805689110878 250,80M 250 , 80C 236.51375774072937,164.06725480356397 195.72673611768963,241.27300667632375 147.0688699265115,311.14141239882815,C 118.92198471269643,351.55785787584216 88.74665410030526,391.45489049099695 71.25953835355261,437.4976640292603,C 62.51598048016964,460.5190507983967 57.19411453570666,485.0382669413662 57.70814584566874,509.6587832818442,C 58.22217715563082,534.2792996223221 64.7604734264151,558.9512062356682 77.87960299363792,579.7916115210215,C 95.6645682370366,608.0439343416019 126.02825944387087,628.4147226495651 159.15431210143223,632.5575922825201,C 192.28036475899353,636.7004619154751 227.10418106054948,624.2956829202038 250,600,C 262.8925535461427,616.1257229953333 280.61052161676776,628.339364473285 300.26299908899347,634.6668448775247,C 319.9154765612192,640.9943252817645 341.41198050673853,641.4081379372329 361.32638945646187,635.9608271102692,C 381.2407984061851,630.5135162833054 399.47988411407164,619.2533296798368 413.52396991480765,604.1199053124328,C 427.56805571554366,588.9864809450288 437.38715298826094,570.0839036408044 442.34465869679536,550.0419472439797,C 448.04439833312045,526.9993246065864 447.3616600714924,502.6104808384098 441.9763142107026,479.4923593772944,C 436.59096834991277,456.374237916179 426.64187591013973,434.4980632164178 414.4851377903541,414.11024312161214,C 390.1716615507735,373.3346029319972 357.6257909898442,338.1862616119139 329.40739323547183,300.00878149730147,C 305.80062585228654,268.0705084533461 285.0554441032158,233.74686269625033 271.03900696771007,196.58677333494117,C 257.0225698322044,159.42668397363204 249.69864649379093,119.71450537748592 250,80M 250 , 80C 259.1455580244517,126.19483187821126 255.35666626911245,174.74421162739293 240.05044962615503,219.27873145093733,C 224.74423298319843,263.81325127448093 198.02149851158188,303.5934538287204 167.89706350070927,339.7890632186786,C 141.65597707847917,371.3186873847201 112.76102997232698,400.8647154351663 90.31980113298238,435.2027856321203,C 79.09918671330877,452.3718207305969 69.58985434868087,470.7747181007866 63.491257074878476,490.3574928137755,C 57.39265980107607,509.9402675267644 54.782876782716116,530.7298134543828 57.084051124248205,551.1107494195828,C 59.57208379914203,573.1466437501904 67.93651978103665,594.620074560776 81.7903834716256,611.9360038278879,C 95.64424716221455,629.2519330949998 114.95911816687142,642.2252183333975 136.36401332296842,648.0218905595576,C 157.76890847906589,653.8185627857174 181.10016463343072,652.3476304331831 201.5381479740915,643.7418310799603,C 221.97613131475228,635.1360317267375 239.35956054231266,619.4564126623678 250,600,C 261.35657630844855,618.2796919250349 278.66155195177265,632.7930322525025 298.6320740878039,640.8115862329958,C 318.6025962238352,648.830140213489 341.1135079340335,650.3077321974437 361.99843571306013,645.1174765208278,C 382.8833634920865,639.9272208442122 402.01208784516456,628.1357409187483 416.35069432831455,612.0882075741761,C 430.68930081146453,596.0406742296038 440.2039200331882,575.8815410791156 444.2999290213772,554.754741210407,C 448.27783245703426,534.2371178300598 447.2338105262215,512.8951698944162 442.45013789352004,492.5503164650025,C 437.6664652608186,472.2054630355888 429.227264379713,452.83969891779805 418.84738004140166,434.6998371199656,C 398.0876113647763,398.4201135243 370.0233374748172,366.97553114022026 344.0918742327369,334.1922190163739,C 315.36401004792884,297.8736152634693 289.1117212010818,259.07076796596414 272.05579715024714,216.01932648076607,C 254.99987309941315,172.96788499556834 247.12951598926435,126.21786971210737 250,80M 250 , 80C 250.51388928367587,119.82476932142544 243.45585432370012,159.6895150526815 229.71835822576222,197.0734358564143,C 215.98086212782437,234.45735666014707 195.52612176324845,269.0859796099144 172.11891283505776,301.30986677289724,C 141.51410667396541,343.4424347097885 105.43042270500052,381.91083302409663 80.36498841620534,427.5565496361609,C 67.83227127179198,450.3794079421978 58.29008407083896,475.1008325572086 54.841706603613304,500.9089815245956,C 51.393329136387656,526.7171304919826 54.28311224572751,553.611672415682 65.02031312913378,577.3322199951265,C 72.80770571100241,594.5360721222937 84.67569477212211,609.9352740445419 99.61795310882376,621.4827814395103,C 114.56021144552541,633.0302888344787 132.5400516738767,640.6589682839362 151.25999500163013,643.1448751694165,C 169.97993832938357,645.6307820548968 189.37012602703265,642.9514487509575 206.68007778074667,635.4028342077668,C 223.9900295344607,627.854219664576 239.15894714492856,615.4624572507453 250,600,C 273.4974629637577,619.3465767242642 306.06295384784517,627.0897305419095 335.79269529941837,620.5656773612852,C 365.5224367509916,614.0416241806608 391.5880325125818,593.5785327386318 406.2249325668151,566.8917953306347,C 418.0322005306242,545.3641864456581 422.64247998244923,520.2503156063779 421.0609910198826,495.7483072451231,C 419.4795020573159,471.24629888386835 411.94030386467966,447.38977359448967 401.3092886380751,425.25764680275495,C 380.0472581848523,380.9933932192577 347.3946107642057,343.3966874470068 319.56370400819964,302.93882401557465,C 297.05087275994595,270.21186114361666 277.43446177969463,235.19154526210164 265.0003399762214,197.4652376689743,C 252.56621817274836,159.738930075847 247.27029846512326,119.62865628765817 250,80M 250 , 80C 255.82110380707215,120.7327696646711 252.2087515434386,162.71823916239012 240.03644508745168,202.02318452082307,C 227.8641386314649,241.3281298792559 207.12991181290712,277.5566089409595 182.68073041892836,310.65164336082637,C 152.23763684952766,351.8601899085101 115.68607470253657,388.7659650865627 90.04626111299902,433.1227708072373,C 77.22635431821055,455.30117366758134 67.36701302733972,479.46665113526836 63.697636481493845,504.8195057955936,C 60.028259935647974,530.1723604559188 62.81553101183677,556.7111723325306 73.59355655357741,579.9504866314587,C 81.15802716357047,596.2608126118141 92.60180771067326,610.8107031589051 106.9341996530997,621.6656785344449,C 121.26659159552614,632.5206539099846 138.4521492691198,639.6183744609906 156.29553233023896,641.8232849192792,C 174.1389153913581,644.0281953775677 192.5743586934624,641.3200747750874 208.9975233156068,634.0038180143629,C 225.4206879377512,626.6875612536384 239.7746712688088,614.7881912867659 250,600,C 275.3340358652334,616.3196385922181 307.7550259558033,621.1024184912152 336.7678187799199,612.9536867158752,C 365.7806116040364,604.8049549405351 390.74148984590937,584.015654868926 405.1508259548583,557.5484107755021,C 416.3601367497796,536.9590121602544 421.3890688724115,513.2674688939373 420.9948469106513,489.82783210324504,C 420.6006249488911,466.38819531255274 414.9469761375941,443.2337169860105 406.3041258306683,421.44213323432365,C 389.018425216811,377.8589657309382 360.625943512873,339.77173802615073 334.8608735442579,300.59969308524387,C 291.0713138608809,234.02403068846758 256.79148123752213,159.39597057429273 250,80M 250 , 80C 257.30423139724064,126.58995480955852 252.1007480690725,174.94141025857704 236.0088637217465,219.27003468584104,C 219.91697937442152,263.59865911310374 192.99258582424807,303.1745349812679 163.45893386787216,339.9405394906058,C 139.42207069872023,369.8636733100442 113.60501570510154,398.6542762435618 94.13365639571421,431.7304140959969,C 74.6622970863253,464.80655194843155 62.1421888863271,503.47456729130727 67.42101124531344,541.4916524385256,C 70.23039684344282,561.7243187857089 78.07127325476996,581.3366035559526 90.62110037287628,597.4535286429864,C 103.17092749098262,613.5704537300202 120.40905334979962,626.0614995627155 139.76535249016376,632.5873802346368,C 159.12165163052802,639.1132609065578 180.48612629282644,639.6053808822771 200.0815006094633,633.8369547237563,C 219.67687492610014,628.0685285652355 237.3897906271674,616.0697247807404 250,600,C 260.4065824017789,614.9584789679107 274.9815006185372,626.9826397670199 291.640666948986,634.3667597208724,C 308.2998332794348,641.7508796747251 326.98558738414073,644.4697203320635 345.0687901137467,642.2223153043896,C 363.15199284335256,639.9749102767156 380.565923717065,632.7821560008068 395.10401257921427,621.7959363345753,C 409.64210144136354,610.8097166683439 421.26877176140243,596.0937434071166 429.00463444957495,579.5949713683199,C 438.75083869097415,558.8086145644112 442.2837373409009,535.3611717522394 440.5727948347578,512.4672030697427,C 438.8618523286147,489.573234387246 432.0637239617171,467.24826550795837 422.42345033795,446.4125689572459,C 403.14290309040956,404.7411758558133 373.28182343363596,369.0640495137092 345.76489238692125,332.307240471722,C 318.26436141673014,295.57233846871077 292.82302247170554,256.8693676180455 275.6173380080326,214.32883810853178,C 258.4116535443602,171.78830859901842 249.38294460196786,125.88410913866579 250,80M 250 , 80C 250.7443643281857,126.5401939567145 241.51681435344955,173.10718431557365 223.99095111157484,216.22780408626787,C 206.46508786970082,259.3484238569608 180.5417350950497,298.47757762025617 153.5250927514059,336.38067470027295,C 131.7564129631357,366.92112354004973 109.2450136793948,397.3597517056587 94.04802499906666,431.6474458554444,C 78.85103631873713,465.9351400052302 71.80089941173041,505.1212326637683 81.91939568204303,541.2350869068007,C 86.68136492708432,558.2309980215546 95.14721819953053,574.2319986797028 106.88189081067634,587.4166414287711,C 118.61656342182212,600.6012841778394 133.60226229870204,610.9089315398328 150.19664629816668,616.9225631705236,C 166.79103029763132,622.9361948012144 184.9428372076854,624.6250644730121 202.34723813136404,621.688370038927,C 219.7516390550427,618.751675604842 236.35689710557693,611.198352071779 250,600,C 262.10417687165494,610.3992353520009 276.876088168106,617.6652459662065 292.49973588165653,620.9143728903939,C 308.1233835952071,624.1634998145813 324.5581321414768,623.386911586276 339.82577594123677,618.7442564784458,C 355.09341974099675,614.1016013706155 369.15192144730014,605.6141560606394 380.50370812077784,594.3984468558469,C 391.85549479425555,583.1827376510545 400.4818877381011,569.2851329796224 405.8429770546837,554.2547000189178,C 412.5736669507293,535.3844336816478 414.14048573340506,514.84892173104 411.53295188877956,494.9846345461102,C 408.92541804415407,475.12034736118045 402.2533052112542,455.93037985349997 393.329751359344,437.99272881529845,C 375.48264365552,402.1174267388918 349.193319764418,371.2778146481436 324.9721798772438,339.35771228252986,C 296.80576210146756,302.2382809566912 271.27346308681274,262.366339561261 257.06592999051827,217.98903369901973,C 242.8583968942256,173.61172783677944 240.03474091206226,125.51805008546997 250,80M 250 , 80C 249.1017502468143,119.75047375586468 241.1089841967036,159.28832465549542 226.91350341268853,196.4285365793044,C 212.7180226286735,233.56874850311334 192.26847458988757,268.05329115881375 169.216574447185,300.44953964911963,C 138.91013971440887,343.04103034534586 103.59157695383689,382.58529546994805 80.42152493447907,429.44320574515126,C 68.83649892478326,452.8721608827616 60.55975719931304,478.20155959379997 58.71670587298256,504.27322866760494,C 56.87365454665209,530.3448977414099 61.726830973773424,557.1280030971752 74.39262788432343,579.9907753504735,C 82.82098009707245,595.2046224120794 94.63660332697836,608.572938902266 108.9032770463895,618.5208172901408,C 123.16995076580065,628.4686956780157 139.8587947054386,634.9522733110762 157.12215894475898,637.0675790990508,C 174.38552318407932,639.1828848870255 192.17565414640927,636.9161581705582 208.33301827277867,630.4789345513266,C 224.49038239914807,624.0417109320949 238.97386303355168,613.450745965678 250,600,C 260.8529499831908,615.0002876894882 275.8264916257452,626.9856704411661 292.8351005212559,634.3002023841278,C 309.84370941676667,641.6147343270894 328.83151136255725,644.2345515442752 347.1961179824063,641.8816006728694,C 365.5607246022553,639.5286498014635 383.23760192151366,632.223257662853 398.04357206214047,621.1066753508329,C 412.8495422027673,609.9900930388128 424.74969985958586,595.1239226914564 432.76164919658413,578.432493096409,C 442.9671759389495,557.1711465831539 446.8193308060943,533.1200743379693 445.28398543415096,509.58626150972805,C 443.7486400622077,486.05244868148685 436.98681619555657,463.0531635490962 427.29416516486685,441.5531601155359,C 407.9088631034808,398.55315324840683 377.62135400043655,361.58500765999673 349.675658782439,323.58726239311136,C 323.2839744595164,287.7025048215502 298.69230860305265,250.1778112432612 281.04748204949317,209.2767486254597,C 263.40265549593397,168.37568600765843 252.6220832522032,124.46753317634119 250,80M 250 , 80C 256.7631915061359,120.91083410586761 253.6851515293278,163.34553265017513 241.61080120514777,203.01475460921364,C 229.53645088096783,242.68397656825206 208.48022542518652,279.1717054293298 183.4197737030587,312.2082135085651,C 152.94455239353792,352.38286423600937 116.32251226841994,387.89731596311435 88.98562914478934,430.26990729314,C 75.31718758296043,451.4562029581535 64.14688716411202,474.49882219469276 58.46687403287233,499.0634892912248,C 52.78686090163264,523.6281563877569 52.812109535560154,549.7499002334353 60.490562804520636,573.7650365880531,C 66.67007186343702,593.0920738774705 77.81099225429236,610.893669118895 92.92855215241275,624.4280728856851,C 108.04611205053314,637.9624766524753 127.09531326395961,647.1193862441161 147.1587114354083,650.1493625492498,C 167.22210960685698,653.1793388543832 188.1903391216212,650.0420393902945 206.4366358315418,641.1654770506665,C 224.68293254146238,632.2889147110385 240.11048561550848,617.7177370968952 250,600,C 259.0002803147448,620.8618798355371 275.5219449334393,638.3785448046741 295.811338083557,648.6041793383513,C 316.10073123367476,658.8298138720285 339.97446781120857,661.6809599778068 362.14371472595866,656.7062672989351,C 384.3129616407085,651.7315746200643 404.58384293402327,639.0277405992055 419.1329113057468,621.57644593287,C 433.68197967747034,604.1251512665344 442.47202064411255,582.1380390347399 444.9951158400391,559.5580242728172,C 447.4679906608208,537.4274482851168 444.0581795914704,514.8432369934566 436.6156229153581,493.855482145701,C 429.17306623924577,472.86772729794535 417.8086157405638,453.4314502279555 404.66320913321505,435.4571411020362,C 378.3723959185107,399.50852285019727 345.3681263753298,369.0523423374276 316.7187922742224,334.95357888081463,C 287.18325326310526,299.8000442559047 262.22504453519,260.0187400252314 249.59949120494568,215.87449391764545,C 236.97393787470205,171.73024781005958 236.8313125029863,123.9852785703118 250,80M 250 , 80C 260.08570729954516,123.30488342665686 258.3091477297613,169.18991592413303 245.72494299505587,211.8358091792104,C 233.14073826035101,254.48170243428712 209.80076500123695,293.22431836334164 183.00516178897914,328.70713207392,C 155.9889765623431,364.4820411130516 125.22261390560573,397.9099042769657 104.49806102629854,437.6617757915352,C 94.1357845866369,457.53771154882367 86.48114122879818,479.02502990124015 84.00045250253915,501.30227790639634,C 81.51976377628012,523.5795259115525 84.3971296936581,546.6320464509643 93.7307812022362,567.0112649039924,C 100.23435450435527,581.211253078746 109.8277122229617,594.0233024007393 121.82804006780688,604.0197148309773,C 133.82836791265208,614.0161272612152 148.21443453943783,621.1573711807047 163.46786071635054,624.5143221372507,C 178.72128689326325,627.8712730937966 194.80275556385044,627.4284009970165 209.8323888057611,623.180312665445,C 224.86202204767176,618.9322243338734 238.80383131827725,610.8895333559152 250,600,C 262.9812081154213,610.7063180725185 278.769561046504,617.9758431429565 295.34225848311945,620.8883524528495,C 311.9149559197349,623.8008617627426 329.22463691181764,622.347770761276 345.1065506036061,616.7888294688718,C 360.98846429539446,611.2298881764675 375.3952266087189,601.592407742761 386.7590220510897,589.1826871999863,C 398.1228174934605,576.7729666572117 406.4259501221427,561.646116720111 411.2103457220973,545.5139572382268,C 416.6273289352798,527.2488210721083 417.54924956181986,507.78161176731226 414.8888777948897,488.9167945574777,C 412.22850602795955,470.0519773476432 406.0636326305919,451.78827871874273 397.89059230283715,434.5789696652205,C 381.54451164732575,400.1603515581747 357.616178069557,370.0225672365861 334.98462868030254,339.3688790826807,C 307.2074811379305,301.7456477287891 281.29220568843624,262.12323505727574 265.4875095468026,218.10858927919654,C 249.68281340517046,174.09394350111847 243.97214512536704,126.37609760112821 250,80M 250 , 80C 238.3099903992736,166.3632955062798 196.2712355233109,245.694544424554 145.32590826917215,316.4041531502342,C 117.15877263605398,355.498752142709 86.92978164769373,393.8717777899721 68.18844122057838,438.26251284980026,C 58.817771007015516,460.45788037971664 52.53634197362253,484.13771589407185 51.6517520452956,508.2138721632549,C 50.76716211696866,532.290028432438 55.44433350862499,556.7373742199455 66.5400563552119,578.1226199410297,C 74.98998838630567,594.4085235554044 87.12489114030171,608.8197033785951 101.97918605402238,619.5891941039274,C 116.83348096774306,630.3586848292597 134.3751064048585,637.4335758957516 152.57251849200557,639.7758400135144,C 170.7699305791526,642.1181041312773 189.5669679376487,639.7105104796782 206.55799887185557,632.7868643550103,C 223.54902980606246,625.8632182303423 238.68551438379478,614.4434906829163 250,600,C 260.3414468779591,619.4625438809347 277.30910618323225,635.3221274734402 297.4159509041374,644.347144549123,C 317.52279562504253,653.3721616248058 340.6212834632056,655.5021482136333 362.0776213375644,650.4661078178149,C 383.53395921192293,645.4300674219968 403.193238089407,633.3049850299323 417.66854412105977,616.6856693660145,C 432.1438501527126,600.0663537020969 441.3980032604764,579.1225541044777 444.82379523491363,557.351011044905,C 448.5437959104552,533.7097171503732 445.49831363656006,509.26591124702225 437.81897991929486,486.59926139106574,C 430.13964620202967,463.93261153510923 417.9755390169188,442.9866128088843 403.88578841534337,423.6416364579278,C 375.7062872121784,384.95168375601276 340.27748714584584,352.09056766000043 310.8075175001762,314.3742897787074,C 285.05220107419655,281.4121020695646 263.8055753501195,244.43198702870455 252.6052521734527,204.12820428423598,C 241.40492899678608,163.82442153976743 240.30301211048646,120.69165232140033 250,80M 250 , 80C 237.24252375834587,164.85452150669994 195.4673018755173,242.46681570694076 146.33472026225078,312.81617564861386,C 122.46699215428981,346.99063464352975 97.54706852805157,380.90123266067155 80.85279095716822,419.09630026130606,C 64.1585133862826,457.2913678619408 56.72189729367154,501.0862349954623 69.04419325209194,540.9073740417518,C 74.60755926015669,558.8861315817476 84.07431198693124,575.7013781279782 96.92777805053161,589.448202276614,C 109.781244114132,603.1950264252498 126.00115947206342,613.8113586684253 143.82568804945916,619.850642153678,C 161.65021662685484,625.8899256389307 181.02570938353557,627.3217373547494 199.52770942598818,623.87750181537,C 218.0297094684408,620.4332662759906 235.60502829955848,612.1231824932701 250,600,C 261.02310491281384,613.8249619812552 275.65065825779783,624.7487091802802 292.03310810962927,631.4010585813776,C 308.4155579614607,638.0534079824749 326.50873668530437,640.4161297462485 344.0587889933404,638.2634384801231,C 361.60884130137634,636.1107472139977 378.56443705082535,629.4577876504422 393.00749316124745,619.257956970806,C 407.4505492716696,609.0581262911699 419.350811455195,595.3591137193351 427.7650504892106,579.8079402208335,C 439.15781318991066,558.7518674530395 444.07682685456257,534.4755665656565 443.33528385043843,510.5464346062617,C 442.5937408463143,486.6173026468668 436.3660670822647,463.0652123986816 427.01451543520886,441.0265707856069,C 408.3114121410906,396.94928755944653 378.0072464526741,359.0011138902572 349.9993113520637,320.16596819940634,C 324.2891306351768,284.51683482731664 300.2064616809579,247.41662981636358 282.57919192053674,207.15307975592597,C 264.9519221601158,166.88952969548853 253.68713079000472,123.79816399363563 250,80M 250 , 80C 242.90796567647763,160.07887124331003 207.3187734222677,235.29590187411503 160.35790435975784,300.5461842286187,C 130.1644010076502,342.4988707594881 95.86340774550123,382.0842073575737 73.34414507060542,428.6090218162061,C 62.08451373314578,451.87142904552724 54.02225407853377,476.9162284037083 52.0355920954022,502.68388375150926,C 50.04893011227064,528.4515390993101 54.3630340225569,554.9214322253985 66.13585001401259,577.9283809928817,C 74.52688027583109,594.3264970833749 86.65204714651728,608.8505856872572 101.5324936860156,619.7078372251547,C 116.4129402255139,630.5650887630521 134.01618852915513,637.7018484950829 152.28415133268018,640.0659836817991,C 170.5521141362052,642.4301188685154 189.42777826961782,640.0041641515428 206.47563351886987,633.0271854664246,C 223.5234887681219,626.0502067813064 238.69417617668537,614.5425564412938 250,600,C 261.01755675801894,611.2347828449939 274.9315465430921,619.6035739495279 290.017441110114,624.0782457367139,C 305.1033356771359,628.5529175239 321.32191628590385,629.1215154710335 336.6974268945824,625.7747893076386,C 352.0729375032609,622.4280631442437 366.5625950319676,615.1830189923404 378.5755290133721,605.0195392905476,C 390.5884629947766,594.8560595887548 400.10224842299243,581.8173597817854 406.4220332016761,567.4066962702931,C 415.3255456257288,547.104498314726 417.8085523748884,524.2651827755375 415.01652722917663,502.2729939145348,C 412.22450208346487,480.28080505353216 404.3388032729689,459.14653289896137 393.8081474228186,439.6386610858191,C 372.74683572250837,400.62291745952126 341.87135192329833,367.9827235769259 314.7337182263809,332.92055110312504,C 287.0168552711567,297.1100069627469 262.97050925079475,257.70053582551395 250.63079762801883,214.13046489631554,C 238.291086005244,170.56039396711753 237.75663182271492,123.59724187817427 250,80M 250 , 80C 259.46605652218057,121.59385066927905 257.7644297345797,165.5831610434219 245.74168069587355,206.5112460845241,C 233.71893165716767,247.4393311256261 211.43609296844582,284.7628558454911 184.91655684634264,318.1749620863112,C 156.8338175425249,353.55655642612913 123.94091243798742,385.06963185426423 97.81895935192954,421.9225968883482,C 84.75798280889657,440.3490794053889 73.49500399528867,460.2132258146048 66.24213766264025,481.60294989345164,C 58.98927132999182,502.99267397229846 55.86357565283269,525.9534030925661 58.739449580581905,548.355494855617,C 61.50159511332722,569.8716806279896 69.89839263233571,590.7533230518403 83.50246200371888,607.6502160997916,C 97.10653137510204,624.5471091477428 115.88998961379968,637.2974624352656 136.74353515867293,643.272856676921,C 157.59708070354642,649.248250918576 180.37881150631642,648.3687058210822 200.65207836041694,640.6505227967075,C 220.92534521451742,632.9323397723327 238.5489519118948,618.4241470852579 250,600,C 263.59431702701517,612.030416710373 280.4902228657991,620.2891235518009 298.3317349933711,623.6382766772819,C 316.173247120943,626.9874298027628 334.8996685013236,625.4158166514693 351.96716338833977,619.232209295088,C 369.03465827535587,613.0486019387066 384.3836191189316,602.2894571513017 396.22380807097454,588.5291407582773,C 408.06399702301746,574.768824365253 416.3768816585129,558.0783165462738 420.74351730257,540.4581895657931,C 429.85442726393325,503.6940985096889 421.4092294598847,464.3767127540224 405.0448132453734,430.2180688485067,C 388.68039703086066,396.0594249429903 365.19592525197976,365.9136072537557 342.79419925657646,335.37232791034,C 315.40941757301823,298.03742490654173 289.57275869507123,259.0653656420091 272.6379782652728,215.97204293473013,C 255.7031978354755,172.878720227452 247.6075177624152,126.23956399991138 250,80M 250 , 80C 251.95228883175182,119.92716337523069 245.7208814944519,160.18477903633143 232.24486547514292,197.81969366520065,C 218.76884945583402,235.45460829406977 198.02312904451708,270.15138711040527 174.1543119694914,302.218026758393,C 146.07366514808828,339.9430627278756 113.46852997225338,374.40988567841686 88.7673083826836,414.42926494384403,C 76.41669758789364,434.43895457655714 66.18232658372438,455.92569875745744 60.40364304018479,478.71894518497436,C 54.6249594966452,501.5121916124913 53.43733743796818,525.6447738859416 58.573043144494235,548.5914466970017,C 63.100771260182036,568.8216354159557 72.58531817728284,588.0087900920732 86.4350423544581,603.434288389057,C 100.28476653163338,618.8597866860407 118.47047579504554,630.412682422772 138.41854024419902,636.0549853414836,C 158.3666046933525,641.697288260195 179.97863406814017,641.3764815397464 199.71134174370803,635.0218686259124,C 219.4440494192759,628.6672557120784 237.20103555980637,616.3078927747499 250,600,C 263.83218164286035,614.1272501069651 281.6557956490389,624.3004787059339 300.85067897926325,629.0401937316402,C 320.0455623094876,633.7799087573466 340.53945960553006,633.0688633037099 359.3934226500254,627.1160049900394,C 378.24738569452063,621.1631466763689 395.3885313943471,610.0093274102318 408.69563337216204,595.3864179344174,C 422.00273534997694,580.763508458603 431.45184660651296,562.7553800642384 436.5053922355177,543.64072283055,C 441.8754616041065,523.3288382969341 442.3243746717991,501.859396684926 438.94493512071153,481.12320401001716,C 435.565495569624,460.38701133510824 428.44099107080115,440.3761404404753 419.2207488941176,421.4976491730645,C 400.7802645407482,383.74066663824175 374.4491250870335,350.5154617803558 349.70138091772054,316.5568052720072,C 324.1516984225165,281.49773541028105 300.1362038847332,245.03835151866224 282.5440021779997,205.3843593579134,C 264.9518004712665,165.73036719716475 253.6910548641894,123.22384491417493 250,80M 250 , 80C 242.84254783398202,160.17806884089882 207.07983809003255,235.45439395535715 159.88532911275146,300.6650538734877,C 129.74543017525758,342.31063388208327 95.54391422456325,381.5702697069308 72.77591635382647,427.66133299660555,C 61.39191741844736,450.70686464144677 53.107105447089666,475.5106180671733 50.7457903285619,501.10585495736643,C 48.38447521003414,526.7010918475595 52.1613587088432,553.0745951547173 63.31584765879832,576.2320850191093,C 71.49598032908857,593.2146057111255 83.59793353318206,608.3480809928492 98.63639327012312,619.7131726466245,C 113.67485300706417,631.0782643003998 131.6156602907929,638.6150552994577 150.29075044917195,641.1766148116934,C 168.96584060755097,643.738174323929 188.31258319214288,641.3044027125092 205.74031776106818,634.121461298757,C 223.16805232999351,626.9385198850049 238.62221858475402,615.0288612218355 250,600,C 276.9919154297018,618.8803194036744 313.2025942784151,623.7174927750762 344.28911784157015,612.8244669279412,C 375.3756414047251,601.9314410808063 400.308356147204,575.9096436633223 411.7483510467533,545.02022029468,C 418.52386581456267,526.7254792531788 420.87148147684394,506.91810215180664 419.5358329619859,487.4547727041209,C 418.2001844471278,467.9914432564352 413.25625308403,448.8788935594458 406.1289442700033,430.71831484581753,C 391.87432664194836,394.3971574185596 369.3542671543261,362.0192926224752 347.4882238472672,329.7037120045823,C 322.08396504460075,292.15904231528395 297.47667552009705,253.74868968751224 279.9976642112737,211.9221102067873,C 262.5186529024509,170.0955307260631 252.0307914692467,125.28636078776617 250,80M 250 , 80C 255.38328936782494,120.70804345272202 251.51167900488392,162.54393909561995 239.30229024434212,201.74923761840125,C 227.0929014838005,240.9545361411824 206.5293580630223,277.1266853784239 182.59600101959103,310.4931210106286,C 153.68902103455787,350.7934802641064 119.48817412577156,387.70517102006215 96.72269405806453,431.7672336715236,C 85.3399540241942,453.7982649972639 77.064843736234,477.69445825300556 74.93551530331078,502.4007139867093,C 72.80618687038756,527.1069697204131 77.07901048974999,552.5937946886694 88.87017844995582,574.4089607455354,C 103.94930087569173,602.3072623233855 131.82443962664004,623.3140118100854 163.10430291228647,628.5356319504513,C 194.38416619793287,633.7572520908171 227.96300473272368,622.804955681804 250,600,C 259.642744122192,616.4757890704864 274.24406676474325,630.0037224780019 291.40090354201897,638.3749285738488,C 308.5577403192947,646.7461346696958 328.1909949253611,649.9235380828883 347.125851369798,647.4934452596008,C 366.0607078142347,645.0633524363133 384.20612419723426,637.0562842959046 398.9457120804593,624.924561881758,C 413.6852999636844,612.7928394676114 424.9768010969159,596.6258133098397 431.8158764878769,578.8027611722855,C 439.91813498682075,557.6877759727545 441.77657603523505,534.4208077166 438.61937627896975,512.0261368670617,C 435.4621765227045,489.63146601752345 427.44166358769286,468.1079894498878 416.83353405549855,448.1340869621838,C 395.6172749911025,408.1862819867695 364.76423040634506,374.367838961089 336.8168221670028,338.8024183429542,C 307.8815057921421,301.97980177766556 281.80536022464065,262.30383883529066 265.864893827364,218.2690894268423,C 249.92442743008826,174.2343400183943 244.13945568125283,126.46301372829241 250,80M 256.2441044354778 , 520.1890359238538C 258.096604053883,546.9065866877703 255.98508443519498,573.8956318221982 250,600,C 239.23551407499346,646.9500650949434 215.76350775111888,690.9225519279134 182.74580037648025,725.9941040659614M 254.0435672010945 , 518.8539864263039C 255.4195468451274,545.9469740836192 254.06260318934258,573.1780210367285 250,600,C 238.22098835661347,677.7669853004201 203.17610357461663,751.859321223825 150.53159110321968,810.2973604162869M 256.7663094372782 , 535.3632232479397C 257.00786645421556,557.0733825522133 254.73237838420278,578.8105223840204 250,600,C 237.56896362906582,655.6606309851768 207.7903785263222,707.317505664502 165.8534545407128,745.968908142921M 241.7516401238183 , 522.3462791585545C 243.56691683985255,548.3187437922412 246.31875168759737,574.2257384283018 250,600,C 263.1054267572844,691.7576508253857 288.0483335503062,781.8178474042522 324.01535083856186,867.2437940649143M 240.40383087014544 , 530.8131011413076C 247.00704387214125,553.2298222823075 250.25295404356825,576.6323338153994 250,600,C 249.19711216498823,674.1700533724364 211.0392515848435,746.9963780410475 150.5139537184992,789.8744582725128M 259.34188419582665 , 531.5678003968502C 254.32174537717594,554.0637885266802 251.19316902715406,576.9815807804138 250,600,C 245.1768245271817,693.0479022471501 273.07647773189285,787.4702074224369 327.69691410990555,862.9538683306909M 240.20233992760475 , 530.0014637408137C 247.71238826388836,552.4727202518751 251.05172955559507,576.3303557242378 250,600,C 247.25734068433417,661.7247751820438 212.96669725485745,721.2205144085119 160.93252319046198,754.5358979547335M 252.06413453117753 , 518.215351378961C 249.55476174656772,545.3902887908279 248.86466659590727,572.7330751060452 250,600,C 253.87946119630513,693.1717297203944 279.4006697870377,785.37526370913 323.98132783493696,867.2812242143347M 244.57870901733074 , 536.4029521051372C 250.00733182248698,557.0830685448758 251.85000444886168,578.6994214852975 250,600,C 245.42135716183836,652.7175712064103 217.22985969444366,702.9383541447271 174.60978895346045,734.3013236179128M 247.745055320883 , 518.2575555175242C 252.6085663226452,545.183718167463 253.3716754736641,572.8466617371728 250,600,C 241.5234134317691,668.2650581881717 205.98036170172315,732.7945823160296 152.81393549319847,776.4443453565856M 259.7240482266231 , 530.3329993755483C 259.1994458129011,553.8275913814019 255.92881312148035,577.2597221612275 250,600,C 237.08148179257617,649.5496631927418 211.3520396253189,695.7016815018613 175.99668639016627,732.7429589205368M 257.26998278994586 , 534.8663928109227C 252.03009864673098,556.1385604981507 249.57928511877785,578.0960162770198 250,600,C 251.4584451306082,675.9320856654798 289.3653378136362,750.3515997702592 349.926951847383,796.1784434466051M 259.97875558849665 , 527.34851177674C 253.66897446214082,551.0294904256016 250.30864498188012,575.4947592155164 250,600,C 248.94606229942602,683.6786555449062 285.2691366078047,767.1369521429864 347.2255955488816,823.3919552445985M 248.3310108660758 , 518.1402598781285C 245.89733994063425,545.3786186454272 246.45811991919751,572.8834731574519 250,600,C 254.7022685881124,636.0004261808689 264.6738862950921,671.3082429065105 279.4986849075326,704.4498687142393M 257.9836171122831 , 534.0217819459409C 253.36505593902345,555.7182966319701 250.6896878725775,577.8280765951475 250,600,C 247.19391483130553,690.2093655718066 278.5525282218584,781.0719030558097 336.40055249645474,850.3482326234732M 245.40615617839822 , 519.1176242512079C 245.25391479435646,546.1389536773817 246.78916820067573,573.1696816911675 250,600,C 260.6256770781911,688.7901690505026 289.8285048664168,775.3139426372754 335.18231814993675,852.3829425920591M 258.45553582101 , 522.6610943087917C 251.08240888780531,547.6671924100048 248.2043505844954,573.9914708951615 250,600,C 254.51435846931594,665.3868303161408 290.01073210988864,727.9609371978728 343.81805753030716,765.3853776383452M 246.3837779508189 , 518.6767528140128C 244.75018528347937,545.8116738817115 245.964386037554,573.1171730225572 250,600,C 255.4425236513466,636.2548110402292 266.0308571409761,671.7332448415968 281.3488163677365,705.0407892179915M 243.29514257940434 , 520.5807758512441C 250.2423298792232,546.370967845533 252.5250731257413,573.4101256078426 250,600,C 243.99755876851847,663.2077371401056 209.65899225788226,723.1871219581963 158.1900479387687,760.3650065912152M 240.86187385233097 , 523.93863932785C 243.56108780556585,549.332492092698 246.60750944715332,574.6894385274256 250,600,C 254.53358594950134,633.8240015936865 259.685231169422,667.5651608476635 265.4514968923754,701.2009552486214M 258.20874343507967 , 533.7110884441616C 252.78883864349766,555.3635234892056 250.02538244956003,577.6795459933962 250,600,C 249.9084836493884,680.4763342422192 287.3506550192159,760.2193706600833 349.33063822848527,811.5509440792422M 247.76477614770948 , 537.7469879619373C 245.7753537064234,558.4761460074043 246.5290366491888,579.4668996899843 250,600,C 259.33503347660286,655.223048877092 288.9479997018775,706.7864050920203 331.9411918206141,742.6794881127416M 257.78474682757326 , 534.2767600583891C 254.08376432173205,556.0345417540341 251.48442068438538,577.9796723217919 250,600,C 243.38811613613203,698.0826060860982 259.2482568555184,797.6129999719597 296.0174657776272,888.7828409288918M 257.37872331378185 , 521.250596896121C 255.88595922070556,547.5790394905963 253.42416535560312,573.852527355294 250,600,C 237.8903415095223,692.4712831401 213.68321275945064,783.3511677340194 178.18989648719406,869.5938864662702M 256.79719694211684 , 520.6652802555192C 249.66260728322095,546.3881228971214 247.34500743263777,573.438410860178 250,600,C 253.96923243994968,639.7097613629636 269.1926570664248,678.2327981906872 293.4412764138745,709.9286088509045M 247.31419726908175 , 537.6325730565925C 247.46228774274024,558.4449324536131 248.35832555801687,579.2519605869452 250,600,C 257.4462098123512,694.1077297140051 280.3586121572944,786.9740001855962 317.53974794651947,873.7453893292361M 247.49905391220622 , 537.6822140373961C 245.936036324277,558.4588739896069 246.77706697315375,579.4154104861321 250,600,C 260.06816410013056,664.3044777639235 294.1817198627746,724.5566996724792 344.14162164051845,766.2753046730816M 242.95038679220056 , 520.9075424837071C 246.6780947756403,547.1246133153796 249.03225875892684,573.5369297568657 250,600,C 253.58543868185282,698.0445098992637 237.92105732406011,796.7562112803492 204.15908703507873,888.8741283982156M 259.9999356072627 , 527.9641133646244C 259.2891765955642,552.2437143540471 255.92960078947803,576.4448723829457 250,600,C 235.00232672922195,659.5777220751414 203.2514557139283,714.843065341374 159.33690191872532,757.8075522598515M 255.5152833563656 , 536.3415615743694C 253.43985916285874,557.5396184654106 251.60127839083376,578.7608637403998 250,600,C 242.48251637060147,699.7108685460837 240.19976213019714,799.8161958244694 243.16427673065934,899.7660908695184" stroke="hsl(210,80%, 90%)" fill="none" stroke-width="1"/></svg>