<svg viewBox="0 0 500 800" width="500" height="800" version="1.1" xmlns="http://www.w3.org/2000/svg">
<rect width="500" height="800" fill="hsl(210,80%, 20%)" /><path d="M 250 , 80C 243.74395951630802,160.23471999066658 207.7120325257679,235.54459926968892 160.28548914581336,300.5636066255656,C 133.1083745893894,337.8218355692017 102.86342995974414,373.18691222575313 81.1198018893931,413.85613668316853,C 70.24798785421423,434.1907489118763 61.652946065649026,455.8910059780713 57.44145192075598,478.5616061460191,C 53.22995777586294,501.23220631396686 53.522070306850296,524.8887518432218 59.71674208060419,547.0995338313212,C 65.11764091893473,566.4642703369951 75.02806193176525,584.6266532679977 88.83114298249299,599.2430030757678,C 102.63422403322075,613.8593528835379 120.30322543256693,624.8438498636928 139.6058587347675,630.4626643113177,C 158.90849203696806,636.0814787589426 179.76847565514873,636.2943632130016 199.1526702367393,630.9637226680863,C 218.53686481832992,625.6330821231711 236.37086617722474,614.7786819248857 250,600,C 275.3428358761424,616.392017136807 307.8369055384405,621.1820197715406 336.8793699037437,612.9666184028578,C 365.9218342690469,604.7512170341749 390.8539674244388,583.8326231917634 405.18706121268485,557.2709971399607,C 415.3360265553575,538.463262660065 420.37912705821594,517.0830995798694 420.8533582786218,495.7170639498649,C 421.3275894990276,474.3510283198603 417.3414997948747,453.02764254711406 410.59322476455304,432.7497442855049,C 397.0966747039076,392.19394776228245 373.20437744176803,356.04563408685556 349.99943367586604,320.1505079553895,C 326.2336463120128,283.3878273970907 303.0095013051754,246.06761808269613 285.38237507667384,205.9977821486686,C 267.7552488481726,165.9279462146414 255.5722314972072,123.41955281894212 250,80M 250 , 80C 259.4658606894894,125.0844201161716 256.54521312519915,172.56356841642398 242.58303928281512,216.46419662832233,C 228.62086544043206,260.3648248402194 203.66271859044923,299.9476150260847 175.94209036949738,336.7412860421699,C 150.96002791850117,369.900050692045 123.5731593704988,401.7761840264764 105.29317824547017,439.0515030389259,C 96.15318768295225,457.689162545152 89.45037899889711,477.67255241682335 87.17409369142133,498.3055431004811,C 84.89780838394557,518.9385337841388 87.1781884761183,540.2120680299967 94.99225200727315,559.4433495911411,C 100.88502780910166,573.9461278408686 109.9004461278567,587.2088934909565 121.44664010124748,597.7796450413533,C 132.99283407463827,608.3503965917502 147.0506286305995,616.1878446443807 162.15860649785785,620.2871602426013,C 177.26658436511616,624.386475840822 193.38583862976296,624.7298067121725 208.64081597400013,621.216823672334,C 223.8957933182373,617.7038406324956 238.24976660134183,610.3434713074694 250,600,C 262.7435942978512,611.9584337563251 278.84685510621637,620.2951109162669 295.9655899243641,623.8096879546284,C 313.0843247425118,627.3242649929899 331.15570427355806,626.0042838505017 347.61383188563514,620.1277739137088,C 364.07195949771216,614.2512639769159 378.8552688910837,603.855316989676 390.14992428044064,590.5198719964143,C 401.4445796697976,577.1844270031526 409.23180978163276,560.9821782622572 413.085138441628,543.9364986990747,C 417.5550656214832,524.1632187373633 416.7588514238019,503.3744325424164 412.03266514609913,483.6608328532201,C 407.30647886839637,463.94723316402377 398.75554997037773,445.29157629191 388.26850574299414,427.94266414127856,C 367.2944172882222,393.24483984001324 339.05122957062514,363.63153398400317 313.8840066381399,331.8437645181117,C 285.83389650108234,296.41472902532956 261.504027784279,257.225861908876 249.24487036478976,213.73174398456285,C 236.98571294530188,170.23762606025005 236.92720350412125,123.25652813653858 250,80M 250 , 80C 257.55750733561683,126.22044880691173 252.99938868819876,174.23903647853388 237.7859266506416,218.5334647723053,C 222.57246461308526,262.8278930660758 196.73664071562044,302.71499535540295 168.082825941526,339.76097629709255,C 140.6864470540496,375.18124191053266 110.45389356479416,409.0448214223551 90.57527089928756,449.16959124344214,C 80.63595956652819,469.23197615398817 73.48381832990538,490.86122191401597 71.4479319105703,513.1579563062087,C 69.41204549123525,535.4546906984015 72.66200488749588,558.4023152960636 82.1943970183145,578.6612071298421,C 89.43326089469865,594.0457358251009 100.26175858495928,607.7771316794425 113.78019430484345,618.08910380331,C 127.29863002472761,628.4010759271775 143.4755661788313,635.2380598104102 160.32074086200285,637.5456480079655,C 177.16591554517436,639.8532362055208 194.62122756221981,637.6128114175665 210.30923552853233,631.05756318085,C 225.99724349484487,624.5023149441336 239.8672712189592,613.6533029280804 250,600,C 263.105124395641,614.1502106385855 280.45311274833614,624.3163745708264 299.1995446617493,628.8489276104859,C 317.9459765751625,633.3814806501455 338.00329279782886,632.260839583113 356.16871960012435,625.780869241205,C 374.3341464024197,619.3008988992971 390.5230305425856,607.5144602580617 402.52840512333614,592.4199669668834,C 414.53377970408667,577.3254736757051 422.3356458344881,559.0239120949127 425.5535626589,540.0076622581882,C 429.18398335973666,518.5537245629077 427.0363320092875,496.32427687139034 420.79721005909926,475.47901951177204,C 414.558088108911,454.6337621521538 404.3443761467354,435.13791875163565 392.28815714889095,417.02441603752607,C 368.17571915319445,380.79741060930485 337.1373387256811,349.7570522635228 310.5608135774737,315.2970188996478,C 284.90869272337903,282.0355998256008 263.3541521244643,245.05136698931278 252.07242684985232,204.59057142174345,C 240.79070157524072,164.12977585417417 239.83986438356368,120.75690061067041 250,80M 250 , 80C 260.19405192331544,125.39924870942521 257.60570455956497,173.4715629744819 243.4215651378703,217.78657924280145,C 229.2374257161762,262.1015955111204 203.55847316176695,301.95291566782646 173.9795608365921,337.87085580440794,C 145.35519788162782,372.6296780275335 112.93764804874384,404.4966919385845 88.40821289231441,442.2569446896308,C 76.14349531409565,461.1370710651534 65.98574405810494,481.55367419977824 60.16682264554854,503.3027574637612,C 54.347901232992136,525.0518407277442 52.99754522515093,548.1640961453531 57.77593801494366,570.1652195615706,C 62.341943931547014,591.1884514534482 72.58973761553925,611.061741257008 87.68128930899118,626.3937260174357,C 102.7728410024431,641.7257107778635 122.6606380661186,652.3548563000613 143.86930702799543,655.9627712208489,C 165.07797598987247,659.5706861416362 187.45273670469948,656.0930480561032 206.49407128626666,646.0804426727407,C 225.53540586783387,636.0678372893782 241.10400836496595,619.5879049936315 250,600,C 275.58352735390497,617.7811854937552 309.49054872581985,622.8947442472828 339.2410323126072,613.6429251945978,C 368.9915158993945,604.3911061419127 393.74083286784736,581.2057967915491 406.37026686117764,552.7244901775708,C 415.76232327306815,531.5439654965676 418.7467320765044,507.7900085368577 416.4581664795005,484.7338202804496,C 414.16960088249664,461.67763202404154 406.7798302397737,439.3307249858628 396.718574237863,418.45977682650175,C 376.59606223403233,376.71788050776723 346.55962263444354,340.71572511173645 320.48841042383935,302.4065448608105,C 298.1827109364123,269.63042937434363 278.56896256826775,234.72640265993772 265.9739924453037,197.13405365635376,C 253.37902232233972,159.54170465276985 247.75107990749564,119.58232350965693 250,80M 250 , 80C 260.81261578473277,124.68307106082611 258.7176330677155,172.26207083216397 244.98221986528188,216.13493173379084,C 231.24680666284928,260.0077926354164 205.9643702445585,299.38399200560997 177.5802265172914,335.5479227157083,C 153.3652627525693,366.3999463014571 126.81853763542742,395.7427929489491 107.3453558454364,429.78698511789867,C 97.6087649504392,446.8090812023734 89.75147782557444,465.0224415411156 85.45588395551816,484.15620308110476,C 81.16029008546188,503.28996462109393 80.51381026750671,523.357385255251 84.70732091168217,542.5137791184711,C 88.50666101926866,559.8695608719571 96.30944694577808,576.3975654038171 107.70883106321666,590.025191289159,C 119.10821518065525,603.652817174501 134.08563730471417,614.3040686303445 150.79402478196113,620.3445928988109,C 167.50241225920809,626.3851171672771 185.87787307896505,627.7757211085602 203.2855827658053,624.2218796677471,C 220.69329245264552,620.6680382269338 237.06776639739525,612.182589198336 250,600,C 273.38055195038413,619.6064225741343 306.03506746616495,627.5501013499111 335.8487131409754,621.053290806499,C 365.66235881578586,614.5564802630869 391.78009816309407,593.9581865214674 406.3134356839714,567.128275672484,C 417.9972526698625,545.558848302 422.4433594223554,520.4328558770318 420.692738179242,495.9647725496941,C 418.9421169361286,471.49668922235634 411.231487776056,447.7181651457014 400.4517959559361,425.6829655615446,C 378.892412315682,381.61256639320266 346.02637879383167,344.26217708465765 318.1198309576423,303.9108240259171,C 295.4481055886149,271.12874004381734 275.79641261452895,235.9399940407866 263.5792982106658,198.00038048106566,C 251.3621838068028,160.06076692134474 246.54119366466955,119.70779293983381 250,80M 250 , 80C 235.79803958890065,166.9491890147913 193.17130699471605,246.3698179866318 145.00046135370542,320.1358452625958,C 120.38676924520057,357.827819718871 95.08487857105298,395.9232368514159 81.58474881841228,438.8681466113239,C 74.83468394208894,460.34060149128044 71.23287971242915,482.95246367553494 72.66159582312466,505.41551032289294,C 74.09031193382016,527.878556970251 80.6835893418586,550.1467201480511 92.8026702375573,569.1139965115635,C 108.97314654645733,594.4220125005756 135.2992814185751,613.2967386265835 164.7306415351661,619.2779608298066,C 194.16200165175707,625.2591830330296 226.0400260134196,618.1079988932842 250,600,C 259.03061953114945,617.0013843278842 273.3629634898063,631.1352730961426 290.48214688223993,639.9405395973355,C 307.60133027467356,648.7458060985283 327.41774891113187,652.1785844262506 346.5151819036182,649.75222681075,C 365.61261489610445,647.3258691952495 383.8878954108421,639.0751064439244 398.5335450462857,626.5809436093592,C 413.17919468172937,614.0867807747941 424.1497792170191,597.4507586985811 430.4232304563501,579.25067716776,C 438.2866163407356,556.4379926111513 438.76364447561684,531.4101458796371 433.6143265359119,507.8360936398986,C 428.46500859620704,484.2620414001601 417.9021309119332,462.11795836313337 404.80457547810795,441.852089126805,C 378.6094646104378,401.32035065413424 342.9985120170964,367.86202974862397 312.8049672975012,330.2142474201479,C 284.76422229419035,295.25075194397004 261.2309440622309,255.9779822726645 249.386213013156,212.75262232473005,C 237.54148196408173,169.52726237679568 237.49308940298735,123.0384314720196 250,80M 250 , 80C 261.92788112907215,123.95621408513409 260.8523602064574,171.22565610700173 247.75395820484516,214.84738200054676,C 234.65555620323363,258.4691078940913 209.66766277359415,297.7011663116874 180.47913901616457,332.664764321465,C 153.26906725256458,365.2584651494328 122.36381893109804,394.83961766703544 97.73838071479139,429.42755099208676,C 85.42566160663597,446.7215176546116 74.7769885258934,465.33505630148585 67.68903322006132,485.34618381453174,C 60.601077914229236,505.35731132757763 57.164260902429305,526.8036161327492 59.037520958872335,547.9501343218458,C 60.99018732916659,569.9930400970437 68.8465583698175,591.6147738261092 82.29902875738914,609.1855917194072,C 95.75149914496076,626.7564096127052 114.77543562134554,640.0875464854624 136.02779623293492,646.2551853694192,C 157.2801568445248,652.4228242533757 180.5961444869514,651.3312757492196 201.1118689933161,643.0362381394859,C 221.6275934996808,634.7412005297523 239.17781836272673,619.3024088024737 250,600,C 274.20862960467707,618.9853085630149 307.55094698993383,625.6396909706825 337.24575209200015,617.5949263054092,C 366.9405571940664,609.5501616401359 392.0788573677499,587.2302915208662 405.011720106333,559.315407498999,C 414.8862895110975,538.001684058826 417.947044171565,513.8407201706979 415.3892846864737,490.49034984750773,C 412.8315252013823,467.13997952431754 404.8570600769857,444.61390152368574 394.12772809811696,423.71740987793527,C 372.6690641403666,381.92442658641556 341.01366250495784,346.3991676173203 314.06027920939414,307.92004548363167,C 290.83285066087717,274.76016161416834 270.88853999279195,238.9126585322202 259.240065691351,200.13889960093493,C 247.59159138991026,161.36514066964975 244.2179455636041,120.07067733027854 250,80M 250 , 80C 250.4279748399211,126.46470491275747 241.04790132456426,172.9054588716355 223.39210177090055,215.88713761053634,C 205.73630221723724,258.86881634943666 179.7435581155581,297.90060350557604 151.8070298110951,335.0314848765738,C 124.58993964141044,371.2061496502514 95.2720942598709,406.463267044153 76.23664829544906,447.5367154716745,C 66.71892531323411,468.0734396854365 59.95789109492355,490.0515204632135 58.10084320775998,512.6102319810082,C 56.243795320596405,535.1689434988028 59.435222838366805,558.2964889115214 68.65736870011602,578.9676310643615,C 76.23555918328948,595.9539003217866 87.87341038481199,611.1739859477731 102.58156594004835,622.5596117297832,C 117.28972149528471,633.9452375117934 135.03072593144776,641.4260004129172 153.4831978638566,643.7645028971299,C 171.9356697962654,646.1030053813424 191.02663415167754,643.2757777413093 207.9724717502763,635.6076030975679,C 224.91830934887506,627.9394284538265 239.65581094105667,615.4583332541979 250,600,C 261.8596636077542,610.2334645682892 276.28529500404704,617.4680060426044 291.57799250130563,620.8604714023187,C 306.8706899985642,624.252936762033 322.99406977823605,623.7947579671869 338.08633282202925,619.599640069383,C 353.1785958658224,615.4045221715791 367.2013151696289,607.4904130243268 378.71041895281576,596.8642214173891,C 390.2195227360026,586.2380298104514 399.19623134664164,572.9408158826756 405.06279386085004,558.4163929259312,C 412.6461127473958,539.6416282051428 415.0001912480718,518.9396447676764 413.02080570479575,498.7882044090551,C 411.0414201615197,478.6367640504337 404.8437290978105,459.04555119496473 396.26126057690936,440.7059833226362,C 379.09632353510347,404.026847577975 352.9945364969813,372.4220913884346 328.77920251857137,339.9627065677312,C 300.83851304641087,302.509678146099 275.2284894828823,262.6238208507898 260.4232588654543,218.30433740957557,C 245.61802824802785,173.98485396836242 241.64082460768904,125.97320581481924 250,80M 250 , 80C 254.40256662659655,126.82987991988429 247.34540262851516,174.58309374401688 230.421267650603,218.46924077769728,C 213.4971326726915,262.355387811377 186.720231740559,301.7681300833823 157.27520147399795,338.4479670352231,C 130.92834246724016,371.26839492449164 102.32594927806699,402.6293329383065 81.11382426215647,438.98016812356786,C 70.50776175419966,457.15558571619823 61.86646359468225,476.5982140470205 56.95595389375278,497.06089376073993,C 52.04544419282331,517.5235734744593 50.954138313452255,539.0255070166609 55.00262407434259,559.6760307299485,C 59.18167812638736,580.9925574260557 68.93840514546088,601.3020472493323 83.6146570734594,617.3166166316693,C 98.29090900145792,633.3311860140061 117.84855259846755,644.8956213655683 139.0525865206297,649.6123732758938,C 160.256620442792,654.329125186219 182.96446670341092,652.1294146826297 202.80475977589504,643.285118557233,C 222.64505284837915,634.4408224318363 239.48352730237505,619.0069094056839 250,600,C 259.0462096330098,619.2057128060185 274.52529839775593,635.3091498129054 293.34980635880686,645.1239963800175,C 312.1743143198578,654.9388429471296 334.21526317177336,658.4026043114754 355.16661349632994,654.9770776819884,C 376.1179638208863,651.5515510525015 395.83556182214346,641.2943272769796 410.94872733842146,626.3850837955284,C 426.0618928546995,611.4758403140772 436.52231993728424,592.063407313585 441.42717124641035,571.4082445994601,C 447.0980459276987,547.5272272370202 445.41153423939693,522.2093950387834 438.4900303259243,498.66041218406514,C 431.56852641245166,475.1114293293467 419.60081403246693,453.28043956301883 405.42474615011525,433.2429519632474,C 377.07261038539184,393.1679767636973 340.45165778091285,359.6678526882131 310.0324259974387,321.13841488581147,C 283.34913156044564,287.3409692207848 261.36156175281906,249.26927018848528 250.18899145544452,207.6827434226935,C 239.01642115807027,166.09621665690176 238.73335016505894,121.56113733992979 250,80M 250 , 80C 258.37591714143224,121.16779894325452 256.10044589592087,164.3726911773557 244.04038577303012,204.6156856934777,C 231.98032565013955,244.85868020959958 210.1782827940141,281.64226927000504 184.29375256650422,314.7320675875149,C 156.35505165649528,350.44783952696014 123.58535144331438,382.34395352351225 97.70700717936329,419.5796712140017,C 84.76783504738347,438.19753005924525 73.66073613780253,458.2528455316186 66.61713690630428,479.8035892150383,C 59.57353767480604,501.354332898458 56.71318120669414,524.4444313289367 59.893620349320415,546.8928533292126,C 62.891364620280186,568.0517642297231 71.34107883694625,588.521364805414 84.80386821415082,605.1177283647858,C 98.2666575913554,621.7140919241575 116.7154537171474,634.2888388619585 137.20947300604584,640.3453357534027,C 157.70349229494448,646.4018326448464 180.1133380994716,645.8663435756957 200.24327841514963,638.6919806006952,C 220.37321873082766,631.5176176256946 238.09386200121443,617.7462632450804 250,600,C 258.57099949485405,619.085226542556 273.5550712892759,635.2189876346318 291.9469916644728,645.1912075195868,C 310.33891203966976,655.1634274045418 332.0113155374305,658.9098491429294 352.7049747313348,655.8308275957463,C 373.39863392523887,652.7518060485635 392.96936385156494,642.9024620847081 408.04520363788697,628.3963613247307,C 423.12104342420895,613.8902605647534 433.65199124362505,594.8746338512827 438.6996340472181,574.5712054056039,C 444.378728403873,551.7278524994658 443.1876611507387,527.4523620288428 437.00019435796526,504.74143647759144,C 430.81272756519184,482.03051092634 419.7974011595104,460.8463275259408 406.55076734247245,441.3887434718126,C 380.0574997083827,402.47357536355054 345.2266336190428,370.05508447891253 315.38033859425957,333.64791194218014,C 286.5005956288133,298.41976104148057 262.1639299467623,258.73373301071575 249.82663421251004,214.88338177382934,C 237.48933847825842,171.03303053694302 237.27680210466167,123.73994061437145 250,80M 250 , 80C 253.77651165539655,120.22779002857396 248.82495021020983,161.18779291989307 236.11502463718904,199.54134455197342,C 223.40509906416844,237.89489618405364 202.9069088001988,273.26524134598935 179.4231260145382,306.14455211951804,C 153.79276389009152,342.0292581406588 124.4329788752487,375.4839124827439 103.15169137904445,414.10688998782325,C 92.5110476309382,433.4183787403634 84.03207603604149,454.0742657021828 79.84199257742128,475.7214386775021,C 75.65190911880106,497.36861165282136 75.8766392761065,520.0218001445636 81.90634281190395,541.2302789321615,C 86.72271247649066,558.1710577379716 95.24054638878256,574.0990665183266 106.99514365105307,587.2145858178116,C 118.74974091332358,600.3301051172965 133.7231256598294,610.5753284053148 150.28534742659312,616.5653378745793,C 166.84756919335678,622.5553473438437 184.9493357135267,624.2611006145241 202.32553711407581,621.3879441306387,C 219.70173851462494,618.5147876467533 236.30270455107956,611.0712014107919 250,600,C 260.4727389498139,617.5003296536697 276.3313055417482,631.7239773460999 294.85696780347354,640.2527308812039,C 313.3826300651989,648.7814844163078 334.481916374906,651.5744842163612 354.60851509378125,648.2790596447117,C 374.7351138126564,644.9836350730621 393.7843998621621,635.6402905695024 408.93567984468075,621.9882389292036,C 424.0869598271994,608.3361872889047 435.297860614092,590.4824153520995 441.6380946411323,571.0983695519984,C 448.61824839273146,549.7578923021534 449.73646255092035,526.7051300676436 446.2433165406377,504.52548970541136,C 442.75017053035504,482.3458493431791 434.7697820386577,461.0316339021004 424.36986506013227,441.1323815923554,C 403.5700311030763,401.3338769728622 373.72412633290674,367.14557280656754 346.30479941997925,331.582465880556,C 318.30417786766674,295.26541472091117 292.61013697966297,256.7274194287135 275.3188431037359,214.25420235790034,C 258.02754922780935,171.78098528708745 249.0980172738108,125.84920325817781 250,80M 250 , 80C 253.06045915380653,120.15692416351186 247.77128686308203,160.8758572014191 235.03672112818563,199.08286969977814,C 222.30215539328933,237.28988219813706 202.09013710257827,272.65314437257797 178.7384792996309,305.4654141258303,C 149.0663514647244,347.1588078406462 113.88006754672355,385.35089125496313 90.5767926520789,430.91108911333845,C 78.92515520473745,453.6911880425369 70.50939309114939,478.3996107180111 68.50438035481501,503.90791302050656,C 66.49936761848063,529.416215323002 71.17849457997838,555.6914975429274 83.6576242890059,578.0290194317499,C 91.64543413888867,592.3271220659611 102.75288517280502,604.9092996995306 116.13125984903095,614.3570473760321,C 129.50963452525687,623.8047950525337 145.1339450148731,630.0804907340356 161.35326354327375,632.3552548120449,C 193.79190060007505,636.9047829680636 228.18172605930522,624.4320752862725 250,600,C 276.246767088095,616.967382274728 310.2145360744089,621.3268572422103 339.95654747433895,611.72489901902,C 369.698558874269,602.1229407958297 394.43891180254576,578.9624451838465 407.3902201805359,550.5186680940917,C 416.9131740093831,529.6042733442855 420.3346614360239,506.1539935490621 418.6585850835577,483.2348023452307,C 416.98250873109146,460.31561114139936 410.36189740917627,437.9429297539777 401.0458771985373,416.93554236734525,C 382.41383677725264,374.920767594071 353.75720611333463,338.30536926767337 328.24218253411965,300.07739781663435,C 306.31627252755834,267.2268280663571 286.4894349990636,232.74211877934079 272.6818247352905,195.7386681113638,C 258.8742144715176,158.73521744338686 251.01105896825604,119.48269522583735 250,80M 250 , 80C 255.63143640054378,120.832710197253 251.89008435650385,162.8555169082648 239.72539014981908,202.23880667491673,C 227.56069594313453,241.6220964415685 206.9517225576236,277.9402807898238 183.14585243834028,311.5900036096334,C 155.93406981311472,350.05400169849247 124.2416556700236,385.7687048286771 103.13347789793515,427.89239286479506,C 92.57938901188014,448.95423688285985 84.88782343710736,471.6694087281079 82.73547934427806,495.1291078003915,C 80.58313525144875,518.5888068726751 84.1778272194969,542.7719592453957 94.6179454176008,563.8905292174762,C 108.20040564745229,591.3655186106997 133.8574722725998,612.921845579384 163.65622383586648,620.0907139227106,C 193.45497539913313,627.2595822660372 226.47498246886678,619.6451474469679 250,600,C 259.854601976878,620.1832713469245 276.8287601603791,636.7965598878862 297.20897571950127,646.2371338190615,C 317.58919127862345,655.6777077502368 341.2045481786828,657.8741834527774 363.0210747986109,652.5340721591581,C 384.8376014185388,647.1939608655395 404.6779284900659,634.4102427819928 418.95475459509896,617.0709850483728,C 433.23158070013204,599.7317273147528 441.91181487400513,578.0337353992028 444.5382595035228,555.727247307297,C 446.9992700850116,534.8257964969191 444.2687513706229,513.4742889901519 437.87425575583023,493.42341257805344,C 431.47976014103756,473.37253616595507 421.50834340873166,454.5915515989672 409.7813022384669,437.1157476274253,C 386.32721989793384,402.16413968434125 356.258931895819,372.2472007073284 329.2245680515241,339.98496197878,C 298.99356860561846,303.9079258500983 272.4579707257535,263.9616780687541 257.6399057522022,219.28628423984463,C 242.82184077865188,174.6108904109354 239.83890149891255,125.95887227271464 250,80M 250 , 80C 246.36181529869782,125.29646685719416 234.71477496252558,169.86782489936996 216.42517308579687,211.46706480656584,C 198.13557120906842,253.06630471376127 173.0862960147806,291.3092343779693 146.85799781469473,328.41829892011316,C 120.33853751388278,365.9393136812777 92.31861651689945,403.2331552541928 75.93355855584903,446.1591170834505,C 67.7410295753195,467.6220979980821 62.668429369401395,490.4451526894919 62.84157620473866,513.4178996086583,C 63.01472304007593,536.3906465278246 68.58877198826728,559.4754234547268 80.15693073233801,579.3237176915279,C 88.5454278422251,593.7164453956565 100.0388047434661,606.3281374540844 113.77789746530877,615.749115413319,C 127.51699018715144,625.1700933725537 143.47642120545638,631.3628445581081 159.99610567272398,633.511686020313,C 193.03547460725918,637.8093689447229 227.8822084619217,624.9173288213084 250,600,C 260.93999131581825,618.9199011112964 278.23354730072646,634.0867511511833 298.41077974501707,642.4846889302146,C 318.5880121893077,650.8826267092458 341.50704343919176,652.4579501999915 362.68527203426765,647.060848975619,C 383.8635006293434,641.6637477512469 403.15452968735303,629.3714584745311 417.3448316055374,612.7497437759155,C 431.5351335237218,596.1280290772999 440.59217023521126,575.3404351354943 443.9991820563441,553.7525140104285,C 447.2227044637369,533.3272407419181 445.49034686758887,512.2664150682409 440.14097635045033,492.29225376232733,C 434.7916058333118,472.3180924564137 425.90608985863287,453.4088007370298 415.18462348758146,435.7273685648696,C 393.74169074547603,400.3645042205487 365.3830010543104,369.8152053031836 339.35364999623454,337.67793064099817,C 309.88233104568155,301.29101228649586 283.2732873657209,261.95718908427494 266.8792375240493,218.0960263339416,C 250.48518768237864,174.23486358360867 244.3413661944971,126.48167737375228 250,80M 250 , 80C 261.70850254425017,123.45147733448906 260.6315240901164,170.12967938021313 247.79072514716907,213.26010711847155,C 234.9499262042225,256.3905348567293 210.46208414333816,295.21914842995704 182.1867887783214,330.2281128019477,C 156.6831463545491,361.80536416019476 128.04080476271628,391.021790038095 105.93276577890764,425.0628416157409,C 94.87874628700132,442.08336740456343 85.55935409133956,460.3557249767625 79.766427015829,479.8064740870984,C 73.97349994031845,499.25722319743437 71.79604077344878,519.9124950049768 74.67250598878114,540.0026814879441,C 77.4364076467162,559.3066867762699 84.93319434326834,578.0005898057166 96.83757362652662,593.4462858543503,C 108.74195290978489,608.8919819029841 125.03486766772188,620.9764047379061 143.3941552865394,627.5506218529688,C 161.75344290535696,634.1248389680313 182.08481157008475,635.1287606192523 200.9705282866691,630.2693906346374,C 219.85624500325343,625.4100206500225 237.19809378468042,614.7103694651294 250,600,C 258.6024711878586,619.2315882646033 273.6947611767232,635.4872047019088 292.22691657573597,645.5079688436299,C 310.75907197474874,655.5287329853511 332.60071099462954,659.2491416141962 353.4275924990938,656.0714845344964,C 374.25447400355785,652.8938274547969 393.91947047457927,642.8751481929115 409.0132542805665,628.1770466782509,C 424.10703808655376,613.4789451635903 434.5797111598497,594.2521911706377 439.5062466459689,573.7683988991573,C 445.066492504741,550.6497343791598 443.6360142257952,526.1336946963727 437.16632423945214,503.2528709638495,C 430.6966342531091,480.3720472313263 419.36066658374284,459.0843384283087 405.81444079223013,439.5423643723557,C 378.7219892091894,400.4584162604439 343.36375333912684,367.8959001235837 313.31869325669714,331.0333134341339,C 284.8740890936448,296.1343422245139 261.08692379138785,256.7358196151824 249.1524445608957,213.32381778412676,C 237.21796533040416,169.9118159530712 237.25446206006671,123.18084019683181 250,80M 250 , 80C 238.65379974110257,163.3649024983461 198.61722614482753,240.28082838025324 148.89112086240587,308.1465611348274,C 120.25089917529849,347.2344732085705 89.00878197679987,385.0127729066153 68.20496195942171,428.7772361302841,C 57.80305195072774,450.65946774211966 50.2078461715711,474.05037720386946 47.742581583722334,498.15337001917936,C 45.27731699587358,522.2563628344892 48.095755364356535,547.0671222854651 57.37303518671384,569.4493444995497,C 64.93808988364022,587.7006787840006 76.78695102860883,604.2243441245682 91.98373245227884,616.849679371264,C 107.18051387594888,629.4750146179597 125.68967728450559,638.1284719506448 145.1684639732238,641.4327305461052,C 164.64725066194194,644.7369891415656 185.02228076085913,642.6648478502548 203.40194053222976,635.4171335609827,C 221.78160030360038,628.1694192717107 238.10040846814883,615.7715242480033 250,600,C 262.66157944784857,615.3487068242439 280.1518001439846,626.6501560047811 299.34297181618433,631.9034716376868,C 318.5341434883841,637.1567872705925 339.3194342363209,636.3354966660993 358.08198994020216,629.7124385545071,C 376.84454564408327,623.0893804429152 393.48175211160316,610.7296334836229 405.5401281570614,594.9026324272926,C 417.5985042025197,579.0756313709621 425.0585557605667,559.9039450179948 427.60191197590746,540.1699709009384,C 430.31314149822094,519.1334629607526 427.51683271586865,497.57283732639723 420.8816084146559,477.42688909076526,C 414.2463841134431,457.2809408551333 403.8760760345626,438.51340498587615 391.7774397120454,421.09191162349083,C 367.58016706700494,386.2489248987192 336.8690165627565,356.4784899859226 310.2934810293979,323.41366519467,C 282.96826792735965,289.4161044505555 259.97848675120144,251.22686059590833 248.5473790629503,209.1337354489064,C 237.11627137469978,167.0406103019046 237.3597119274933,121.74595219977121 250,80M 250 , 80C 260.44795145278624,123.50631370870516 258.8529690159567,169.72423953723813 246.20625967095697,212.6429972641708,C 233.55955032595773,255.561754991103 209.93142190035564,294.52714355583953 182.42501887226834,329.8167569645526,C 153.26339892648897,367.2299473845257 119.46609386861186,401.44212608063077 96.0901457714593,442.71817174663994,C 84.40217172287085,463.35619457964896 75.53297243315204,485.8257951857351 72.28972411202432,509.32085986204066,C 69.04647579089661,532.8159245383463 71.64992919640116,557.329336453635 81.41860968100978,578.9420550564834,C 88.50070963809267,594.6108481683776 99.30422741548551,608.6344015546656 112.90298701011305,619.1577543888618,C 126.50174660474059,629.6811072230581 142.8626069501052,636.6445616341042 159.9033589822466,638.942383986796,C 176.94411101438794,641.2402063394878 194.60236883899623,638.8524643712674 210.39088082063654,632.0414360501502,C 226.17939280227685,625.230407729033 240.043737235393,614.0192742018822 250,600,C 261.82012404006474,617.8113935766852 279.3764874900778,631.7470820733868 299.39896127078106,639.2345126852289,C 319.4214350514843,646.721943297071 341.78957019668024,647.7196833231891 362.4375721126583,642.1860506696904,C 383.08557402863613,636.6524180161919 401.88994514044055,624.6526199481901 415.91320401661056,608.5185168135871,C 429.9364628927806,592.3844136789841 439.1468056159727,572.2543552280569 442.9709884722992,551.2225531429414,C 447.2362182263908,527.7651319353752 444.88156715577,503.35497955420084 437.89944933810943,480.5582072970441,C 430.91733152044884,457.7614350398874 419.4527593820006,436.5301645853443 405.99950751266897,416.84634359691097,C 379.09300377399313,377.47870162004136 344.7297590203614,343.79013883233944 315.9321380821938,305.7839787190108,C 291.5736836833431,273.6364857026938 271.10921091579047,238.1569909121495 259.20140542465657,199.62129607839364,C 247.29359993352278,161.08560124463781 243.951729188666,119.87748773591181 250,80M 250 , 80C 250.33227679438306,119.79556955134329 243.2326287003972,159.5953238030414 229.59736849672277,196.98352305042397,C 215.96210829304837,234.37172229780646 195.7434650615929,269.0712284790265 172.78184335729304,301.576023394431,C 142.81821885709064,343.99295203492323 107.67901854782366,383.2657444413365 84.79594556446496,429.88526395108715,C 73.35440907276752,453.1950237059731 65.25276521859305,478.41441322545097 63.646254311087816,504.3310638544464,C 62.03974340358259,530.2477144834419 67.19931222007938,556.8236637940247 80.16421991157456,579.3217709515691,C 88.49310715992185,593.7749550601726 99.96580868598184,606.4438059515279 113.70516734832043,615.9039812786818,C 127.44452601065903,625.3641566058359 143.42492270129299,631.5781485293207 159.96732133682127,633.7261571550353,C 193.05211860787776,638.0221744064643 227.9442593273837,625.0320570084399 250,600,C 275.7990599317117,616.7937513960483 309.1500557769097,621.3624136092795 338.5724262109652,612.3100273297649,C 367.9947966450207,603.2576410502504 392.74680288053423,580.9552019490005 406.1722077177018,553.2535759268609,C 415.13675959604876,534.7563561705865 419.28792220994984,514.0845921662473 419.22808268678074,493.52962322141667,C 419.16824316361163,472.974654276586 414.9913762351902,452.5566263560978 408.27011541580146,433.13151420483257,C 394.8275937770221,394.2812899022992 371.7818025720074,359.6037718670719 349.31944440050756,325.17291678414574,C 324.9577658416651,287.8307366963654 301.14485405255647,249.88291183499462 283.5141791607881,208.93063352507212,C 265.8835042690202,167.97835521515015 254.27932584035284,124.38036915421738 250,80M 250 , 80C 259.9058455753019,124.64439106336161 257.44668232572593,171.82763982268568 243.88497242863914,215.50060004577279,C 230.3232625315533,259.1735602688587 205.7124147940816,298.6031977203115 178.13484505694262,335.08230238823336,C 152.69405520121984,368.7349137251805 124.55143742807448,400.8648846317344 105.6848662891146,438.59795410318395,C 96.25158071963031,457.4644888389104 89.30501904919333,477.73492363822845 86.93435116067603,498.69471713273043,C 84.56368327215871,519.6545106272324 86.909575551524,541.294036653853 94.98476257603441,560.7805541490084,C 100.96724039282789,575.2170815368485 110.06584486931229,588.390696946234 121.67308903553875,598.8537388898509,C 133.28033320176522,609.3167808334678 147.37669367837685,617.0282828530741 162.49142161697176,620.996703595705,C 177.60614955556665,624.9651243383358 193.70028031995577,625.1730221217658 208.89828029032392,621.5365182033061,C 224.09628026069208,617.9000142848463 238.36155579857402,610.4283258684497 250,600,C 259.212730978258,617.3602846786928 273.8668240743722,631.7794112619192 291.3669031326479,640.7237462934969,C 308.86698219092364,649.6680813250746 329.1192732222528,653.0921518968745 348.60257376155636,650.5124433284155,C 368.08587430085976,647.9327347599566 386.6926327929886,639.3867487495417 401.5544179073837,626.5266850087764,C 416.4162030217788,613.6666212680112 427.4873187444187,596.5994728035099 433.76664223780494,577.976261676843,C 441.00843880178735,556.4985489121696 441.90505234091677,533.1275102530738 437.8548932525271,510.8265691421102,C 433.8047341641375,488.5256280311467 424.9611419343771,467.28365136403846 413.6559749301472,447.63857661023826,C 391.04564092167885,408.348427102632 359.26525225590467,375.29859855194877 330.8453682576997,339.982125825569,C 301.4107994316328,303.40473700778205 275.3499158460299,263.4192725829827 260.3349258223335,218.93501368961307,C 245.31993579863803,174.45075479624376 241.419385923164,126.15920576405519 250,80M 250 , 80C 251.0733785737081,126.48473696086023 241.88041589003012,173.0794056185415 224.04010919841363,216.01780765019524,C 206.19980250679765,258.95620968184824 179.66998807171086,297.70803294106315 151.16573111600667,334.4434415720553,C 126.44270712951261,366.30571358809266 100.14445773170095,397.31655551842965 80.96214113741442,432.79149065772594,C 61.77982454312597,468.26642579702184 50.47045602867322,509.5736993255354 58.1949639188835,549.1560725605354,C 62.23347797321722,569.8504614957818 71.43166774242098,589.6154748833392 85.26900670040197,605.5244465575938,C 99.10634565838296,621.4334182318485 117.55388239273472,633.3569257553453 137.85401532688007,639.0553406249668,C 158.15414826102554,644.7537554945881 180.19293587352666,644.1646924092657 200.11239698197437,637.25221106612,C 220.03185809042208,630.3397297229743 237.71993276322794,617.1396405397154 250,600,C 263.07904428969783,612.121012229893 279.5576349264039,620.531403680907 297.04425004538143,624.0240572122268,C 314.53086516435894,627.5167107435466 332.96168193531474,626.0793088228221 349.7282136875048,620.0077563020992,C 366.4947454396948,613.9362037813763 381.53465277961163,603.2684424842867 393.0101064910022,589.6194755223945,C 404.48556020239283,575.9705085605024 412.37777293963074,559.4142417173894 416.2611273759914,542.01022220089,C 420.91150837873755,521.1686217090221 419.8358933653818,499.2518749316878 414.56117642507246,478.5594677316314,C 409.28645948476316,457.8670605315751 399.9347200901964,438.37450384820005 388.61675098534624,420.2664412827297,C 365.9808127756386,384.05031615178575 335.9717558109312,353.1053507341915 310.0164477278522,319.1890508114944,C 284.0732016782129,285.288512579713 262.0956762411805,247.73254816485988 250.80544372189289,206.56424533784235,C 239.51521120260585,165.39594251082497 238.98014931160114,121.2415009280939 250,80M 250 , 80C 249.57160239230723,126.23579202514938 239.54608318659749,172.26351450098528 221.5454587456455,214.85353103583702,C 203.54483430469406,257.4435475706878 177.47912081107506,296.09024660863423 150.12382693719886,333.3678522959221,C 127.51422142430752,364.1784136059425 103.97529779606863,394.70204717983665 87.48953739619368,429.17964358279096,C 71.00377699631743,463.65723998574515 62.3251200259531,503.18397544027533 70.94742601645902,540.4148871816391,C 75.27639682692603,559.107279953698 83.89436928561928,576.8627954442144 96.36870469762418,591.4414267877802,C 108.84304010962909,606.020058131346 125.15314986496514,617.3371872198763 143.27929645143652,623.629114249694,C 161.4054430379079,629.9210412795115 181.27618649862885,631.1445242965866 200.01347410607727,627.01419877206,C 218.7507617135257,622.8838732475334 236.282052351286,613.4150455880679 250,600,C 260.57328206016297,615.9395498794042 275.72887972552184,628.7994283629189 293.17197681120393,636.6481166572294,C 310.61507389688603,644.4968049515398 330.2776639932712,647.3044633035731 349.2333475922525,644.746025659798,C 368.1890311912338,642.1875880160228 386.3597935159408,634.2891534165138 401.32626687166834,622.3783088127893,C 416.2927402273959,610.4674642090649 428.0162836714608,594.6203915746808 435.5042440365744,577.0194258780986,C 444.5433260239476,555.7724421561253 447.39877505422,532.1339688393114 445.15025922334684,509.1539014544109,C 442.9017433924737,486.17383406951046 435.69714231897353,463.85946973198736 425.7521956103477,443.0211071423105,C 405.8623021930899,401.34438196295054 375.76058700919356,365.5756303236223 348.03489251065366,328.64538328411,C 320.7979469818294,292.3661432082905 295.586283527538,254.18532673160203 278.0965472089113,212.32671249601134,C 260.6068108902851,170.4680982604209 250.77354836019987,125.35896918089608 250,80M 250 , 80C 259.210806380641,121.46292065891572 257.34428564412434,165.23943425428646 245.28568582754883,205.96538315928905,C 233.22708601097364,246.69133206429143 211.03164357247556,283.81720434856607 184.80696396812056,317.2279649414963,C 157.76042202174196,351.68579441625667 126.36242522941934,382.7463010462359 101.69462612964172,418.94515642788974,C 89.36072657974948,437.0445841187158 78.81534200964353,456.5138880745252 72.14776434535712,477.3767203111364,C 65.48018668107068,498.2395525477476 62.79969790573033,520.5340006058865 65.83098409760554,542.2256041626829,C 68.6814351964034,562.6231685229254 76.65709851969237,582.3803300977717 89.38608180621077,598.5716452941481,C 102.11506509272915,614.7629604905246 119.5748726595567,627.2574997377949 139.13439660275253,633.708137412663,C 158.6939205459485,640.1587750875308 180.2417607515582,640.4978084554984 199.95348077647344,634.528403379929,C 219.66520080138872,628.5589983043596 237.4267217532701,616.3125221050329 250,600,C 271.97784562390683,623.4679473991262 305.85350777622756,635.093615740739 337.64232910027135,630.2727141420279,C 369.4311504243151,625.4518125433168 398.005626257656,604.5607181918673 413.6782458529584,576.4869003464553,C 426.1496501232157,554.1473080638327 430.75186022555135,527.8437663874761 428.62647882657,502.34717716980106,C 426.50109742758866,476.850587952126 417.9291009922388,452.1937416253157 406.1402715169483,429.48654436478785,C 382.56261256634605,384.0721498436915 347.1748596314748,346.0638826979366 317.62124520571734,304.2911989718176,C 294.5473567023398,271.6773117870651 274.76728441013495,236.4085861645696 262.6409299353233,198.34257120217464,C 250.51457546051176,160.27655623977972 246.01513829281177,119.75161437150246 250,80M 250 , 80C 240.89336301488208,161.3559697189336 202.91261817253994,236.9550974350379 154.50602982159637,302.9742374651008,C 127.0332747437521,340.442849203372 96.83970487685616,376.335244830002 75.53434830583546,417.623632041689,C 64.88167002032188,438.2678256475326 56.60960058460481,460.2890396580543 52.819054938681155,483.20833388794665,C 49.0285092927575,506.127628117839 49.84116462435812,529.9564522905899 56.58999387389585,552.1851631855292,C 62.49490600326287,571.6342527580138 72.96537140486566,589.7530220286009 87.30027227711668,604.1629383863321,C 101.63517314936767,618.5728547440634 119.80465358789183,629.1869104100743 139.47644746115904,634.3011648290253,C 159.14824133442625,639.4154192479762 180.24298468183014,638.9910099223858 199.66056508935995,632.9832945853226,C 219.07814549688976,626.9755792482594 236.74281852571906,615.4072129800315 250,600,C 262.6130643152974,616.5253011881781 280.230440533843,629.1749710652547 299.9150675341216,635.8600612397948,C 319.59969453440016,642.545151414335 341.2566102885222,643.2353468256875 361.3604263172702,637.9427527675639,C 381.46424234601807,632.6501587094403 399.91649359687267,621.4251946988435 414.12290837028524,606.2478184411503,C 428.3293231436978,591.0704421834572 438.2588871316253,572.050247426045 443.2756039228166,551.8758199640622,C 448.4360535342402,531.1233795353567 448.45954531591894,509.2482189116691 444.5428224056366,488.2255334128303,C 440.6260994953543,467.2028479139916 432.858642558472,447.02068455588847 422.985154541435,428.05207210488294,C 403.2381785073582,390.1148472028708 375.5735066005511,357.0009464565655 349.792099589739,322.876246482806,C 322.9643865473998,287.3666384087356 298.0098441940739,250.09463778908687 280.29239882289676,209.26878100474568,C 262.57495345172003,168.44292422040473 252.02377606191283,124.45855129339438 250,80M 250 , 80C 257.19409293952447,120.8188260661488 254.23519893218355,163.30918587582073 242.03331575082834,202.92036588184408,C 229.83143256947335,242.5315458878673 208.41009010564213,278.79889156177114 183.19343990150932,311.6934517066251,C 156.05520627848892,347.0946747442207 124.42590823522298,379.0784425280639 99.80670733326133,416.2755561752822,C 87.4971068822766,434.87411299889055 77.05410595059938,454.8647219891781 70.6400138139326,476.22571450465415,C 64.22592167726582,497.5867070201302 61.95744042760889,520.3551006486907 65.56702773413491,542.3642682535875,C 68.86678516135333,562.4842731471593 77.13913982928143,581.8591672854468 89.96569501562618,597.7079047129988,C 102.79225020197093,613.5566421405508 120.14970760915406,625.7599864922045 139.52307880664986,632.1141571257235,C 158.89645000414575,638.4683277592425 180.1839608568399,638.9124207770823 199.76834700417336,633.2418991760327,C 219.35273315150684,627.5713775749831 237.13035668895378,615.8137685907654 250,600,C 262.44528473807543,616.1901198223682 280.098054540167,628.3079608404041 299.67395557887164,634.1208078706686,C 319.24985661757626,639.9336549009332 340.6308255511301,639.4099328158943 359.94632703846884,632.7829806984404,C 379.2618285258074,626.1560285809867 396.39801038174306,613.4972978935906 408.73065098614313,597.2212090575986,C 421.0632915905432,580.9451202216065 428.5722047184761,561.1868240299427 430.94725280065774,540.9047078020506,C 433.4483824204245,519.5458974142887 430.3459326742011,497.72185927820976 423.37861095725424,477.3770599759851,C 416.4112892403074,457.0322606737604 405.68451487144944,438.12673912023126 393.247520164286,420.5832048922249,C 368.3735307499527,385.49613643621143 337.04896128807076,355.5093075056965 310.09926706426853,321.99018306210604,C 282.9384710527869,288.2084973058364 260.1931996115524,250.19827078168183 248.8417179209699,208.36461213292102,C 237.49023623038786,166.5309534841603 237.64136416667762,121.54726528728422 250,80M 250 , 80C 258.13416614796756,121.73656343982785 255.68793865916345,165.39572943219156 243.64184404191937,206.1755895491895,C 231.5957494246757,246.9554496661871 209.9600237408799,284.3178683201004 184.95855421535674,318.71309921413297,C 158.70274766718472,354.83395713456434 128.52390707926665,388.4806738306313 107.82798321311473,428.0503906571322,C 97.48002128003165,447.83524907038543 89.68344070474127,469.14217926048286 86.82747180952174,491.28635186346247,C 83.9715029143022,513.4305244664421 86.225083972165,536.405707322973 94.77825799766714,557.0300655600306,C 106.7397538937451,585.8729460715336 131.69534653865526,609.3953954596204 161.71568794484384,617.9842395104,C 191.73602935103236,626.5730835611796 225.78561100583002,619.7142716302619 250,600,C 259.54234034221,618.777970448337 275.2361651834065,634.3628795088083 294.07214424795774,643.7901975815677,C 312.90812331250896,653.2175156543271 334.76724511455336,656.4316150035711 355.5427064321048,652.9604998501783,C 376.31816774965597,649.4893846967857 395.87735959514,639.3859933375271 410.9969986629015,624.7209005036649,C 426.11663773066306,610.0558076698027 436.7500378442372,590.9658533869824 441.98312550097705,570.5628333423406,C 448.2004065429013,546.3225916261179 446.8462484266448,520.4676159742648 440.06878457560566,496.3779940228303,C 433.29132072456656,472.28837207139577 421.29159023025517,449.9134094164499 407.0153711382584,429.36022303446805,C 378.4629329542419,388.25385027049526 341.4002251967248,353.78531405347167 310.88588332154416,314.11352876483915,C 285.4456022105277,281.03854474428687 264.46659129014404,244.06452698244686 253.29095140213695,203.86169693205218,C 242.11531151413,163.6588668816575 240.78343609910806,120.69665122375677 250,80M 250 , 80C 240.79671717871395,160.36447337975596 204.30814661059526,235.34919523776813 157.62583352024646,301.40909715132483,C 127.85748747904083,343.53413101168456 94.49518380874842,383.86510907910184 73.76176973319816,431.09643813659494,C 63.39506269541148,454.7121026653485 56.45799315864313,480.06962255609915 55.78546431563265,505.85170802056933,C 55.112935472622176,531.6337934850395 60.936411385168476,557.7973500224607 74.09398958252422,579.9794680891015,C 91.67849800903046,609.6248660650546 122.9251767878471,631.1947422336829 157.14009216219225,635.3665672157393,C 191.35500753653736,639.5383921977958 227.29531990092167,625.9338014828722 250,600,C 272.9144845336542,620.917670598953 306.40759449215165,629.5044391539628 336.6091611390427,622.398954173838,C 366.81072778593375,615.293469193713 392.6457414294639,592.9621143368448 405.5741812185718,564.757894983195,C 415.2906038560793,543.5608967474211 418.0561576386609,519.5023302911436 415.1208841005069,496.3699769233109,C 412.18561056235285,473.2376235554782 403.7631009785804,451.04315797970736 392.5935590921432,430.5745738292295,C 370.2544753192543,389.6374055282528 337.7508204838951,355.3238923670765 310.12698467028076,317.7498307386457,C 285.08025338329406,283.6811578969011 263.8425518842731,246.26854206270534 252.63192126684783,205.4967996603994,C 241.421290649423,164.72505725809356 240.26957367008558,121.15011568390099 250,80M 250 , 80C 254.16644109900554,126.78469395479047 246.92111702596694,174.41836153055735 229.977720009334,218.2257595063747,C 213.03432299270193,262.0331574821907 186.3741723857227,301.3679943113441 157.833056808828,338.6717681351958,C 134.95496975593895,368.5738573735803 110.82583177367037,397.87442734145696 93.35782105451959,431.2272444568899,C 75.8898103353674,464.5800615723226 65.7663872917431,503.13776458335064 72.84705700942911,540.1162167463193,C 76.47671100178133,559.0719076450275 84.57712489318777,577.2337293926657 96.77134232074165,592.193464245968,C 108.96555974829552,607.1531990992704 125.23371933645026,618.8137959690279 143.43148624922796,625.2429393754065,C 161.62925316200568,631.672082781785 181.67543027448505,632.8190891555331 200.46027319992862,628.3893846712609,C 219.24511612537216,623.9596801869887 236.6851017217702,613.9716172790397 250,600,C 277.44682782030753,617.4150791689943 312.95190286011035,621.3750025418415 343.63677104954667,610.6487634965439,C 374.3216392389829,599.9225244512463 399.3280384596907,574.9948883392223 411.79808335147266,544.9763720491575,C 419.63495919827267,526.1110522117432 422.79481496146605,505.44405557684877 421.99119618265837,485.03153215458565,C 421.1875774038507,464.6190087323225 416.5042269872987,444.47243742948297 409.45601325798106,425.2985072420657,C 395.35958579934413,386.9506468672291 372.3269770535269,352.64571817180274 349.9412060410636,318.467583076363,C 326.0945367835269,282.0589785656392 302.8537083775989,245.04117905418832 285.238718894871,205.2421556664213,C 267.6237294121434,165.44313227865462 255.48716928637097,123.17570022963507 250,80M 250 , 80C 257.50840711621544,121.45740317456405 254.7874528266941,164.6424220988893 242.7794993616478,205.02684371146748,C 230.77154589660176,245.4112653240454 209.4810893690361,282.50167451271415 184.70520611087773,316.5787645319524,C 156.8195550448079,354.9330718929467 124.21671659357462,390.2740459003616 102.3455009063815,432.3491258513789,C 91.40989306277245,453.38666582689416 83.38016052889301,476.16696188919997 81.04040741435817,499.76126549184164,C 78.70065429982331,523.3555690944834 82.27357311338605,547.7423032992335 92.8891016678109,568.9431561273817,C 106.798693895709,596.7227637287432 133.33819611200386,618.215245931444 163.76655227870003,624.4840971359876,C 194.19490844539615,630.7529483405311 227.46048816067045,621.3811543298473 250,600,C 263.8361914541597,614.2155153649871 281.6768681835526,624.4879679437015 300.913847580224,629.3314888469687,C 320.1508269768955,634.1750097502359 340.71259310970345,633.5721410809965 359.66547985509914,627.7147393477574,C 378.61836660049477,621.8573376145182 395.8898502841139,610.7853090264701 409.3481914958745,596.211561297208,C 422.80653270763514,581.6378135679461 432.42713854940365,563.6452342698545 437.6481064998148,544.5072467918274,C 443.31331633861953,523.7408456215417 443.8367307350234,501.72706705111244 440.36507477624855,480.48358275623195,C 436.8934188174736,459.24009846135147 429.5176680137589,438.75823694361185 419.9841546650818,419.45926952787875,C 400.91712796772475,380.8613346964111 373.7421839876475,346.97393867541473 348.4035986645234,312.1700858117631,C 323.33771464253925,277.74080223994406 299.8990931503726,241.86763991156187 282.598170027849,202.95296185583567,C 265.29724690532566,164.03828380010958 254.0468770690007,122.3945385051031 250,80M 250 , 80C 235.8764844976003,161.75587428922262 196.80197162546517,237.0325729027302 150.7035015831254,306.0139307517694,C 123.56488161825693,346.62393046773076 94.57875300110231,386.9141136626818 78.516230899642,433.0408104257065,C 70.48496984890564,456.1041588072245 65.93632528833062,480.5749380641665 67.21144953267603,504.9633215857085,C 68.48657377702142,529.3517051072506 75.77028637006846,553.5969900366189 89.44903531331705,573.8284264656004,C 106.55921540975365,599.1350917421945 133.93041320172784,617.5480288693986 164.0489407419605,622.6529156617099,C 194.16746828219317,627.7578024540212 226.34741930437815,619.3323820775187 250,600,C 272.84537872647235,620.7353328772066 305.83355583330547,629.6420352244068 336.0505341492239,623.4131043257826,C 366.26751246514226,617.1841734271583 392.75068914712415,596.1951385098413 407.07414280699805,568.8692527247846,C 418.4422585948179,547.1814781848 422.4331719616794,522.001971757253 420.1902115734121,497.61831432529374,C 417.94725118514486,473.2346568933344 409.7166266883979,449.6729855387702 398.47109382254456,427.92139682379366,C 375.9800280908209,384.4182193938099 342.38149587686866,347.8359396817354 314.1224766213248,307.838410820965,C 290.76137206370464,274.77334068129215 270.81117825099767,238.9164731031957 259.1725497640014,200.14041868251974,C 247.53392127700536,161.36436426184383 244.18978836051565,120.06596448605646 250,80M 250 , 80C 250.0108166568939,126.31740774489741 240.31495687405996,172.52714530886516 222.43186925090922,215.25298707084642,C 204.54878162775884,257.97882883282716 178.42385268847127,296.74397054488406 150.2508471916775,333.5078677605591,C 123.19337757213584,368.8160648970798 94.03913489868597,403.0519608228065 74.02954672946967,442.78094052959216,C 64.02475264485878,462.64543038298524 56.463317104408866,483.88505371541856 53.34456850067951,505.9070261283919,C 50.22581989695016,527.9289985413652 51.6691137186881,550.7376345621824 58.84468385409697,571.7900704080139,C 65.37613451100131,590.9527213667325 76.68833318873978,608.5468612906172 91.84168403633763,621.9723220849014,C 106.99503488393546,635.3977828791857 125.9476233443545,644.5522345930565 145.9376403118373,647.7563352607956,C 165.92765727932007,650.9604359285346 186.8545494609345,648.175872819444 205.2624491127976,639.7487576632241,C 223.67034876466076,631.3216425070041 239.46970805991623,617.2910378839982 250,600,C 259.8581636997591,619.2112619058754 276.12421783032266,635.0605414028519 295.57639341918025,644.4343794859232,C 315.0285690080378,653.8082175689946 337.5350866894284,656.6478491459585 358.73487582328636,652.5460304971953,C 379.9346649571441,648.4442118484321 399.6842020673184,637.4637661182272 414.65548491513204,621.903667614743,C 429.6267677629457,606.3435691112587 439.7758868245944,586.355673297676 444.30077673938456,565.242138614767,C 449.4765767611744,541.0914000709029 447.3722206058376,515.6811328583558 440.1586939150492,492.0588528930153,C 432.9451672242608,468.43657292767483 420.8017131804885,446.5473439202443 406.5281567774339,426.3901450650348,C 377.9810439713054,386.0757473546102 341.44800898687623,352.0590369547108 311.28913219490914,312.93576430316665,C 285.93220978270324,280.0417743850296 265.0088521371877,243.27157643831885 253.7790652496547,203.28557922162156,C 242.54927836212184,163.29958200492428 241.0518154723991,120.55758967953017 250,80M 243.44512356907504 , 520.4479410108696C 250.92713775579423,546.1687950762982 253.1710284231485,573.4013637777249 250,600,C 243.8393524452943,651.6756084571971 216.58697465282398,700.5218463944734 175.84888328908505,732.9059474280748M 247.15264300242723 , 537.586060615726C 245.55402678108425,558.4030043487898 246.51260892918143,579.4150826154715 250,600,C 260.1309756632685,659.7998024362947 292.3023976104983,715.6110241573148 338.9717729615642,754.3488924989123M 242.1744874256897 , 534.2258616230456C 242.25719390001268,556.353520103699 244.8885891442724,578.4706342578032 250,600,C 260.5729427392228,644.5334483235608 281.89490504341256,686.4756092068942 311.64457692835504,721.2602633016587M 255.77011607960426 , 519.832640547405C 257.6454531963988,546.648560244912 255.69631071728085,573.7290563028855 250,600,C 237.532863737562,657.4974665306019 206.71814440386788,710.8709469187738 163.15797259670282,750.4171171019173M 259.70641121823 , 525.5946764744386C 251.36079652523023,549.365265616069 248.03180406105722,574.883941441975 250,600,C 253.41872069998757,643.626138838871 273.228272713155,685.7735699819686 304.63577558246834,716.2448089578792M 252.9269892947151 , 518.4379534790598C 256.2292076958154,545.5546341031625 255.2374746424637,573.1897804222401 250,600,C 241.65142103083747,642.7357172311249 222.39494166947586,683.2946183377746 194.55678220065673,716.7771089179511M 243.1211965068304 , 535.2582410060811C 247.6392503866666,556.5244437485442 249.9485674709946,578.2592193185341 250,600,C 250.2000477282028,684.5611497001443 214.64028652087,768.6329918500438 153.82295743318568,827.3856985140271M 259.5214966940485 , 531.0563214335575C 255.07562460277296,553.8378270629364 251.89527519991043,576.8662430783496 250,600,C 241.95563565333762,698.1896293444204 257.4632902836314,798.2285258900525 294.85773466172856,889.3744014862083M 251.80937174323526 , 518.1650534371161C 248.57508253337122,545.3003816961492 247.96821005539294,572.7482386617027 250,600,C 252.5871049261425,634.7000270335548 259.4602594448832,669.0783849809488 270.4136765761085,702.105762127457M 243.90135884162356 , 520.0749399988797C 248.15078640641516,546.4853731623314 250.19309213675052,573.2505826243583 250,600,C 249.33449181086124,692.1941028659334 221.47189462897205,784.0268521133912 170.79659310619996,861.0476890341898M 258.1070850677158 , 533.854500124248C 257.32505295375904,556.0821469927471 254.60911475934296,578.2414173101013 250,600,C 241.93678542849028,638.0646024586292 228.05146922138417,674.8902996396401 208.97547331876095,708.8024769493145M 256.60290455234394 , 520.4898967069263C 251.2125129459841,546.5985856794554 248.99013173328387,573.3598024103038 250,600,C 251.31930635120347,634.8031352561362 258.1733962976031,669.3907324780637 270.22619239560026,702.0668537155261M 252.4599732456431 , 518.3072949270743C 250.5889679060187,545.4930020424138 249.76816176158704,572.7509709645805 250,600,C 250.83477360164676,698.1148332776617 265.39726357924616,796.103130032553 293.1309822520554,890.2203877733458M 253.98581591846795 , 518.8286712269112C 248.7657738172829,545.506539632381 247.41873452558593,572.9390582065535 250,600,C 256.9486373542754,672.8466997492764 293.46215913002595,742.4412509703177 349.453255716598,789.5573026775184M 240.33352387708098 , 525.438898798361C 243.1287610572641,550.3454655363277 246.35155266348661,575.2040477174409 250,600,C 263.90242949861323,694.4851183705697 283.9934820799548,788.0591792921964 310.1017010049131,879.9236231430734M 252.3942352371499 , 518.2908477389017C 252.5044416119888,545.5437469184221 251.70577184380173,572.8003124732828 250,600,C 243.93525480315748,696.7064703774349 226.35497694862858,792.6856717365715 197.7490084216841,885.2633208307227M 254.42452827346372 , 519.0320822061461C 254.90660965558638,546.0809951383908 253.42660956011636,573.1646792417594 250,600,C 245.54924719623736,634.8558471600581 237.8106134044477,669.2911258938271 226.92029083916526,702.6998097378464M 257.2041968649853 , 534.935383733474C 251.04023176274734,555.9834068250451 248.5899218896035,578.1133506089329 250,600,C 253.69814901579832,657.4011399141125 285.3285468555366,712.3532371140025 333.1063045318136,744.3821777928562M 259.9814296768516 , 527.3908517372043C 254.10201124428835,551.1506709875778 250.7499420825751,575.5350422279465 250,600,C 247.28060677175185,688.71330472115 280.245293002253,778.018580717097 339.9514203707856,843.6891516658106M 257.0168258220409 , 520.8751031317541C 254.99369719499964,547.2768056581374 252.65453184457263,573.6542905500851 250,600,C 240.18356218935094,697.4262256153711 226.05184355682528,794.4175529540678 207.66015573497762,890.5943573718234M 253.71571434610524 , 537.2840436717062C 254.55800617955282,558.2435888877584 253.3112804497181,579.2865402942979 250,600,C 238.8376196331099,669.825410278668 203.49295033344734,735.5499180269571 151.39401826926138,783.3608784211051M 242.22122247622957 , 534.284156286701C 242.4616424295864,556.3831600965218 245.07435316787092,578.4555860041266 250,600,C 263.6781428311924,659.8271824783913 295.5994654650319,715.3550744610125 340.416418205016,757.2814873974332M 259.87636081371693 , 526.4323593915451C 251.48239597393822,549.901833931579 248.09317667983856,575.1476579425112 250,600,C 253.78852733766232,649.3772948412235 279.26627960215404,696.7019964833418 318.39934597307047,727.0511859557936M 256.36559857638383 , 535.7122729959682C 254.9213871992051,557.201416264505 252.79810926997106,578.6449160753001 250,600,C 237.9267406812288,692.1427439464113 213.21795075715497,782.6212858573141 176.78162898195694,868.110719754413M 256.6587003911546 , 535.4606775229089C 254.3643308975602,556.9659797720877 252.14474620642727,578.4792607024831 250,600,C 240.151876283948,698.8177073948048 231.88178295686004,797.7926787856289 225.19393660747937,896.874450806011M 258.5707852050583 , 533.1518580113153C 255.25863736109238,555.373050570366 252.40091264419016,577.6619754552542 250,600,C 239.3013760705192,699.5396998345851 237.6973988101228,800.0550535785612 245.21456775867185,899.88543256283M 246.3940922386049 , 518.6727587564001C 243.2520499486826,545.742659342578 244.47453282178273,573.3144016375937 250,600,C 260.7039469470546,651.6953987615148 287.8839566471969,699.8494569526761 326.6101377411428,735.728024806428M 249.79477489651939 , 537.9978939110646C 251.0132805922408,558.6401150276591 251.0818302332786,579.3501648407729 250,600,C 248.21625695379103,634.0478558812351 243.2996073284825,667.9309366157338 235.3324287682499,701.0815368388614M 254.31812326442844 , 518.9803652250658C 248.2054228809051,545.4652786845951 246.73707777854642,573.0153916924069 250,600,C 257.5293546182071,662.2683200492515 291.1997525972404,720.9551376044424 341.1554900807496,758.882161679651M 240.62604521468586 , 524.5173326769722C 246.46981063821335,549.2401026387423 249.6190302299008,574.5988226465369 250,600,C 251.319894246061,688.0040109830281 218.060485192953,776.0694759970866 158.8953133710063,841.2302810350943" stroke="hsl(210,80%, 90%)" fill="none" stroke-width="1"/></svg>