<svg viewBox="0 0 500 800" width="500" height="800" version="1.1" xmlns="http://www.w3.org/2000/svg">
<rect width="500" height="800" fill="hsl(210,80%, 20%)" /><path d="M 250 , 80C 245.4525088418423,159.24320389273709 211.82107807894442,234.18556363146683 167.7310565030744,300.1873441866817,C 142.73143782951905,337.6112166793884 115.07860281989001,373.7405873495417 96.97170883655991,414.94334886439646,C 87.91826184489098,435.5447296218253 81.4233324004455,457.42180686135816 79.56149987876522,479.8475815682603,C 77.69966735708495,502.2733562751625 80.60291829473928,525.2381818320674 89.28264528228104,545.9997841537877,C 101.72296391413936,575.7565897031733 126.64225098194751,600.3976182710579 157.13009856955279,610.9199827221239,C 187.617946157158,621.4423471731898 222.82877111839625,617.376804229478 250,600,C 260.91774872033335,615.2314766061118 276.05146443287083,627.4061107838452 293.2635805294536,634.8181399392539,C 310.47569662603627,642.2301690946626 329.7080012615699,644.8547777491548 348.28816759155586,642.4109005278264,C 366.86833392154176,639.9670233064979 384.7293089121756,632.476187988933 399.6383799232549,621.1221262351171,C 414.54745093433417,609.7680644813013 426.4690010273257,594.6151938922361 434.41735352945835,577.6440769807093,C 444.4492475535702,556.2242360411474 448.113326374611,532.0799173881643 446.41209840529956,508.4885141449577,C 444.7108704359881,484.8971109017512 437.8041263667937,461.87352222554404 427.9911365849473,440.35251585668385,C 408.3651570212478,397.31050311895547 377.9279730184294,360.30003196392033 349.87770619703304,322.20834697102464,C 323.59365062475484,286.5151405010098 299.1198273364731,249.18283885462068 281.4679120759385,208.52245945313672,C 263.81599681540416,167.862080051653 252.9038331113874,124.23148560357086 250,80M 250 , 80C 249.76937207597678,126.4556289238318 240.16394804689511,172.74527879391337 222.7835152737928,215.82774859971454,C 205.40308250069103,258.91021840551446 180.11630417673092,298.28283425281273 154.00872490207308,336.70903563110966,C 131.3923665846265,369.9967154273557 108.0606312874404,403.4369610194304 94.2205312636546,441.22612508920236,C 87.30048125176009,460.1207071240892 82.89753788452381,480.05272611642675 82.60426253668982,500.1725251216491,C 82.31098718885583,520.2923241268713 86.2245107756162,540.5799369968452 94.95820380661006,558.7076761962203,C 108.24876333278861,586.2936923350176 133.29689628316956,608.2974369848289 162.82195590924238,616.4152022564859,C 192.34701553531517,624.532967528143 225.49534271591273,618.3616184013911 250,600,C 262.054778958112,610.4884883338926 276.8143182300335,617.8398354988356 292.44641409951356,621.1509775958358,C 308.07850996899356,624.462119692836 324.54187570078705,623.723972336579 339.83462655687003,619.0917099829429,C 355.127377412953,614.4594476293067 369.2068478128411,605.9545314462346 380.55419678755027,594.7044756905813,C 391.90154576225945,583.4544199349281 400.4977970538265,569.506128540391 405.7914108711331,554.4295329030344,C 412.8807563440585,534.238563422151 414.0069803030684,512.1847013399336 410.4332819003768,491.0858210962084,C 406.85958349768526,469.9869408524832 398.7337024626304,449.8395308285591 388.2780839742138,431.1683201062428,C 367.3668469973727,393.8258986616026 337.7675893800853,362.23522642301197 311.77377933012264,328.2343718699689,C 284.83087203394285,292.9920633952639 261.60131837655985,254.18513856864922 249.8228203791215,211.41590260258192,C 238.0443223816841,168.64666663651496 237.80614566576813,122.65267256189566 250,80M 250 , 80C 258.65298925083846,121.52544954478296 256.59321713439795,165.15585224407167 244.6432768267216,205.85519019340956,C 232.69333651904546,246.5545281427473 210.8951385418346,283.83492293772537 184.8152033281888,317.2874887903392,C 154.81521952077938,355.76827586566924 119.01430937166946,389.66307270736223 91.41239004082327,429.89867947096377,C 77.61143037539108,450.0164828527635 66.0025507457161,471.85386764355786 59.30761786504936,495.31384152076,C 52.61268498438263,518.773815397962 51.00645009341831,543.9032582001408 56.52785942310329,567.6668130606769,C 61.36860253223385,588.5008533519763 71.74306923665569,608.1263071074377 86.80224473584477,623.3154895078404,C 101.86142023503385,638.5046719082432 121.56002090133066,649.1113523774374 142.60545827948337,652.9296758669195,C 163.65089565763623,656.7479993564015 185.90354113175573,653.7191334329345 205.0992000497931,644.2842668514478,C 224.29485896783046,634.849400269961 240.30666010157694,619.0664414698108 250,600,C 273.1576140903565,620.0477115335962 305.7703012667666,628.5883255273526 335.8172132646464,622.6411490978332,C 365.86412526252616,616.6939726683138 392.49452930469414,596.5753703089899 407.6576820873649,569.9621287593112,C 419.99466161094756,548.3091769780843 424.9739866416436,522.8459183787193 423.56318372148536,497.96498150476083,C 422.1523808013271,473.0840446308024 414.59844967604215,448.8243205580495 403.8544686173075,426.3383637046047,C 382.3665064998238,381.3664499976836 349.1437494913087,343.2503471804508 320.86141466671864,302.20993934506305,C 298.3680291823611,269.5698578382854 278.72820293255614,234.67545182842593 266.100442193066,197.10063353181692,C 253.47268145357594,159.52581523520792 247.8111108570222,119.57949059344679 250,80M 250 , 80C 256.836868629079,126.56811593980693 251.39454383915432,174.74166728818383 235.33103096060654,218.983002584887,C 219.26751808205984,263.22433788158867 192.61149920868942,302.80782357542574 163.71238446500962,339.95850811644124,C 140.61780429426702,369.6472882102354 116.04553953936865,398.52886864755544 98.07927955212084,431.5742434947431,C 80.1130195648714,464.6196183419305 69.43852795747756,503.0549734317172 76.280610224494,540.0410411731242,C 79.73015624605918,558.6881631824182 87.58130508527033,576.5815046381417 99.47322999046818,591.3529855738342,C 111.36515489566605,606.1244665095267 127.27883436651595,617.6790153258329 145.1192647776821,624.1081342179308,C 162.9596951888483,630.5372531100285 182.64768123402774,631.7909225026157 201.13343579874197,627.5610992016328,C 219.6191903634562,623.33127590065 236.82083286451777,613.6353980726423 250,600,C 261.0720422426852,618.0427356933973 277.8629554138398,632.5132670847574 297.3355079914927,640.8168883933276,C 316.8080605691456,649.1205097018978 338.8519737337893,651.2133104591561 359.5682982026844,646.8585049267522,C 380.2846226715793,642.5036993943484 399.55464912906564,631.7552333125687 414.4196200577599,616.683303442288,C 429.2845909864542,601.6113735720071 439.70560738959375,582.3431569434914 444.9165202417383,561.8254373340186,C 450.26578268865336,540.7629728258819 450.19571268109326,518.4964544868709 445.99030441069414,497.17612237966034,C 441.7848961402951,475.85579027244984 433.5448125744498,455.4672527866254 423.14341547541756,436.38708092495875,C 402.3406212773494,398.2267372016239 373.4275708224755,365.2392345999502 346.7512675033731,330.92680360537497,C 318.6446740947258,294.7746600609463 292.83964809214666,256.38440775871373 275.46416582696986,214.01636919249597,C 258.0886835617935,171.64833062627847 249.10520777321005,125.78381179813262 250,80M 250 , 80C 249.15200436939426,126.1092985071001 238.9754865454067,171.94474360279287 220.95709616503464,214.3961760109803,C 202.93870578466294,256.84760841916733 177.0114029669645,295.4624257880655 149.17695750621422,332.23238841109327,C 121.98055698018797,368.1594785423839 92.7302778543588,403.1220981164877 73.13847272699297,443.69993909805356,C 63.34257016330689,463.9888595888371 56.13070336088668,485.67714745652364 53.563113708678515,508.0603439462219,C 50.99552405647036,530.4435404359201 53.201125669769496,553.5198851048839 61.2796531416249,574.5517037519968,C 68.34679166054879,592.9504498355878 79.92097231246339,609.6723317128011 95.02765882021234,622.3311755403673,C 110.13434532796127,634.9900193679334 128.7329652533692,643.4973278481967 148.23347830690045,646.3588475394046,C 167.7339913604317,649.2203672306124 188.0476551607656,646.4044268823773 205.9906726939533,638.2492796674073,C 223.93369022714097,630.0941324524374 239.42794665066197,616.6340010903228 250,600,C 264.02874260843925,610.3291107072961 280.64192340854015,617.1171240269032 297.88845161017167,619.5774923261107,C 315.1349798118032,622.0378606253181 332.9731000261532,620.1640011567232 349.35854268593613,614.2467876215884,C 365.74398534571907,608.3295740864536 380.63476865176756,598.3933118866717 392.5452958636692,585.6797172450305,C 404.45582307557083,572.9661226033893 413.36918724235585,557.5241541856875 418.82160224958204,540.9782387451206,C 431.1818583721516,503.46976729591097 425.11739888665784,461.8515958911639 410.06116271986286,425.34171894859685,C 395.0049265530664,388.8318420060287 371.9483833930494,356.2852020357055 349.6576167222692,323.68484800234177,C 324.57024289366313,286.9944424788732 300.3542107490769,249.42654568188868 282.64741484659726,208.65852436663806,C 264.94061894411806,167.89050305138795 253.6106755765866,124.30039734554741 250,80M 250 , 80C 249.07159060670293,119.66435393761944 241.2337980838152,159.11162778090045 227.39939073673008,196.2967335444347,C 213.56498338964508,233.4818393079688 193.6592321854327,268.1325055315094 171.63277564552845,301.1318711251994,C 145.4911178658954,340.29650574232005 116.01181686739399,377.78949468450327 97.37803681099882,421.03342046570293,C 88.06114678279422,442.655383356307 81.6695168546301,465.7272857829845 80.61083859417626,489.2473393411965,C 79.55216033372244,512.7673928994085 84.0029803614503,536.7074824575919 94.85558594680057,557.6008946023121,C 108.83097093591303,584.5062747123822 133.8030584137341,605.7659340899252 162.99198419708802,613.9645605648366,C 192.18090998044192,622.163187039748 224.87963083112507,616.9758038773043 250,600,C 261.970271011113,617.5314961772739 279.4897830881589,631.2092507128633 299.3952761208436,638.5857060553027,C 319.30076915352834,645.962161397742 341.4799162503114,646.9987476024352 362.0223996023937,641.6464467866472,C 382.5648829544758,636.2941459708594 401.3546106850404,624.6126320052828 415.53303154597637,608.8134824021101,C 429.7114524069123,593.0143327989375 439.2457927486173,573.2266125129906 443.51265991083113,552.4315508176439,C 448.34809723351344,528.8654978737808 446.4870258121194,504.1808642072132 439.8780517752765,481.04946200944556,C 433.2690777384336,457.91805981167795 422.0620962041502,436.295780088391 408.78060714859805,416.23730671872,C 382.21762903748083,376.1203599793745 347.894829924698,341.7692147520277 319.0117427239746,303.2889796231387,C 295.02662321941176,271.3341878200203 274.6794029609518,236.3080370007952 262.3131514436525,198.31500474171256,C 249.9468999263533,160.3219724826299 245.55653447056653,119.70705593364404 250,80M 250 , 80C 261.0326211679354,122.8030184725601 259.9736816896253,168.54727699241465 247.66746269194115,211.00165361224663,C 235.36124369425735,253.45603023207838 211.9017873941841,291.9937833925639 183.99180693336058,326.2698699672287,C 155.15026583700677,361.690000803687 121.49557244386634,393.1587691079946 94.80154102792982,430.2242361635907,C 81.4545253199573,448.75696969138744 69.95642892378974,468.79219920291115 62.58062017187242,490.4070664376717,C 55.204811419955085,512.0219336724323 52.07430298513353,535.2636934433064 55.1105938056505,557.8996378321414,C 58.08253995812653,580.0558843218995 67.08043399660654,601.5018786413731 81.55354370340574,618.5389211623944,C 96.02665341020493,635.5759636834158 115.93820384293126,648.0153399836087 137.7121638738544,653.0775911646444,C 159.48612390477797,658.1398423456799 182.95042980085236,655.7385922521519 203.1729458770222,646.2106561693896,C 223.395461953192,636.6827200866272 240.2123836394625,620.0981165392952 250,600,C 261.8180922250768,610.4180419057187 276.2869251826009,617.8026581905135 291.65526364264514,621.2692233445613,C 307.0236021026893,624.735788498609 323.2528619252986,624.2751816667479 338.41751389062915,620.0047915487228,C 353.5821658559597,615.7344014306976 367.6416701106678,607.6734782360672 379.11076224723257,596.8724215029175,C 390.57985438379734,586.0713647697678 399.4393295801298,572.5737883564681 405.1130560630617,557.8764508837621,C 412.4631215828609,538.8366903813902 414.43536261864847,517.9145463382549 412.011943426411,497.6497250325607,C 409.58852423417346,477.3849037268665 402.8910860197005,457.78392521999837 393.8341905661349,439.4943492851604,C 375.72039965899955,402.9151974154796 348.7778248562702,371.6049082710117 324.082351398603,339.10448730090354,C 295.93064579007364,302.0554999683777 270.5129804788056,262.1733684260764 256.4668516902108,217.8128876228979,C 242.4207229016176,173.45240681972027 239.80909618745397,125.4014478901089 250,80M 250 , 80C 261.2218357765643,124.67257551076545 259.3348895150458,172.40460026728 245.57477599633438,216.36171433216595,C 231.81466247762398,260.31882839705077 206.2948750894045,299.69730718706506 177.47807056825746,335.6300273478195,C 152.97047552151062,366.1894377078954 126.0161611216768,395.05487811171196 105.70992859324296,428.55348550115457,C 95.55681232902455,445.3027891958757 87.1676813778385,463.2341317608478 82.19308393622946,482.1782159146587,C 77.21848649462041,501.12230006846966 75.73948897409593,521.0975411439889 79.0174175154185,540.4076454578117,C 82.15957473905593,558.9179280933091 89.72733910868335,576.736823184042 101.37026795263037,591.4659074461013,C 113.01319679657739,606.1949917081605 128.71261258707185,617.7371426528367 146.35684272596492,624.1546856460571,C 164.00107286485803,630.5722286392775 183.50927000238775,631.8138316680232 201.7985723471558,627.5705858578307,C 220.08787469192387,623.3273400476381 237.07429985343387,613.6172681175453 250,600,C 260.1298978120857,619.5949070730909 276.951591188614,635.6478127090611 296.98966180938413,644.8701192905727,C 317.0277324301543,654.0924258720843 340.13362446767087,656.4216454123497 361.6461272970019,651.5444090120519,C 383.1586301263327,646.6671726117546 402.92069514543624,634.6599694699316 417.5039626681694,618.1099386165844,C 432.0872301909025,601.5599077632371 441.453069348977,580.6381104122377 444.96756552533026,558.8614364349576,C 448.79256030744415,535.1608374997982 445.7935858390066,510.6251430172833 438.1150986508973,487.87893873018254,C 430.43661146278805,465.13273444308174 418.23066771502226,444.1190865392429 404.0823442823836,424.72388303389323,C 375.7856974170916,385.9334760231916 340.177726717926,353.0344431283364 310.5772539765578,315.22957686270274,C 284.69369831181393,282.17184940899125 263.3612643780012,245.04667386286937 252.18765499323217,204.57542170074362,C 241.0140456084634,164.10416953861787 240.0546868896509,120.79047125727871 250,80M 250 , 80C 233.30013958405527,164.33884207277438 191.6970306366839,241.37320821699802 145.88214582343954,314.12567861929824,C 123.13793980920242,350.2427000113559 100.08320182240409,386.840835435327 87.26974532604464,427.55389813108,C 80.86301707786333,447.9104294789575 77.1696704118748,469.2366806223377 77.78445175566813,490.5687358271811,C 78.39923309946144,511.90079103202453 83.41955835596444,533.2127762754773 93.3701301003605,552.0918826452923,C 107.613050874869,579.1148139125527 132.36965017453244,600.680565219228 161.51824433985743,609.8161585031469,C 190.6668385051824,618.9517517870657 223.5947650032627,615.357837452945 250,600,C 274.21113160150816,617.9474447909879 306.5294289335008,624.404007181194 335.8202783650851,617.3092339270748,C 365.11112779666934,610.2144606729557 390.6391633988932,589.8764642597753 405.31853354579187,563.5552606390925,C 415.7298877367891,544.8869274009539 420.9026591540693,523.4950115680017 421.35934103812576,502.1246020343181,C 421.81602292218224,480.7541925006345 417.674647521231,459.43708019244025 410.7079455748412,439.2289623688835,C 396.77454168205924,398.8127267217649 372.22854220737236,363.0623848789247 348.55448680784025,327.4653211114916,C 323.65706697632703,290.02876761738827 299.5281638759514,251.80136514040493 281.98051898254647,210.40743792301652,C 264.432874089142,169.0135107056286 253.3225991340514,124.83678608885603 250,80M 250 , 80C 255.97178286776682,126.65826318528444 250.18290882868516,174.65719225661965 234.14638793283498,218.87806641853535,C 218.10986703698546,263.0989405804503 191.8476139445011,302.907264583974 162.75970372735603,339.8741307384946,C 134.915103380211,375.26091536739875 104.24686294477497,408.96946003338974 83.19138577987972,448.7716355546254,C 72.66364719742737,468.6727233152442 64.71625160629374,490.1118890704925 61.6009224307276,512.4094516692201,C 58.485593255161476,534.7070142679476 60.35241502224113,557.8637169570942 68.41477336152408,578.8847766764637,C 75.24357703350005,596.6895781699623 86.52173780161257,612.8403842930005 101.24571680330767,624.9584682245022,C 115.96969580500277,637.0765521560039 134.09722365367523,645.0724920572001 153.01222464770217,647.4945269886655,C 171.92722564172905,649.9165619201308 191.5385811905352,646.7341601615823 208.6720322749092,638.3622804591116,C 225.80548335928322,629.990400756641 240.3818851736532,616.4661890855317 250,600,C 261.74908491403636,617.7214756758867 279.4747097886394,631.3989265972107 299.5894888558243,638.2900338759159,C 319.7042679230092,645.1811411546212 342.0641922623702,645.2419060440487 362.26832931017947,638.6173651088876,C 382.47246635798854,631.9928241737268 400.3812338746081,618.7696670460714 413.02879655593296,601.6778311391178,C 425.6763592372578,584.5859952321641 433.042663169685,563.789593520366 434.87151591592027,542.6059443049721,C 436.7006505840862,521.4190295804743 433.10153447173235,499.9435999623552 425.80338394781995,479.9694144193163,C 418.50523342390755,459.99522887627745 407.60424797323975,441.48134623755783 395.06604267861985,424.3050690749306,C 369.98963208937454,389.95251474967597 338.72733638101823,360.6238630809845 311.6089320213435,327.8593014068959,C 283.20928970279556,293.5467430451666 259.3362019720664,254.7183150040711 247.6078549382674,211.74928870601173,C 235.87950790446908,168.78026240795248 236.44360627470584,122.42776843428507 250,80M 250 , 80C 236.62627280967527,162.93330261475165 196.71563918497623,239.24654474032897 148.81240188639688,308.254291536375,C 120.4264921414427,349.14605131548524 89.81159989784254,389.3867889392276 72.0626977507225,435.8934805271389,C 63.18824667715508,459.1468263210999 57.788585382050364,483.93213642467146 58.34921884250377,508.81505551777,C 58.909852302957184,533.6979746108686 65.62808297429989,558.62525417388 79.04934645541049,579.5857803848622,C 96.87265096347362,607.421150864937 126.9536110794551,627.4438071185045 159.74342885806274,631.6038411803685,C 192.53324663667036,635.7638752422325 227.02271560424654,623.7596808721587 250,600,C 274.76558649738905,617.3879191224408 307.36365634410777,623.0464135620324 336.5864555942115,615.1913508661439,C 365.8092548443152,607.3362881702554 390.93116651352074,586.2918174762735 405.006142958009,559.5043382358654,C 416.10146749775845,538.3877291284647 420.5624620584536,514.0859891667304 419.3239323799932,490.2640780118147,C 418.0854027015328,466.44216685689906 411.33945562183493,443.12928554973274 401.62708057937925,421.3419686458135,C 382.20233049445875,377.76733483795766 351.8020788874198,340.19140658822784 325.2090595546873,300.5823047286897,C 303.2082973115551,267.81316250484525 283.5618540265819,233.2137995418871 270.24729309442415,196.0577409706496,C 256.93273216226646,158.90168239941212 249.88423989126673,119.46944160946029 250,80M 250 , 80C 259.3303021531609,122.16779122437421 257.54582473525915,166.65073952491062 245.51635708851416,208.12927690447123,C 233.48688944176948,249.60781428403166 211.25797649189678,287.53855229857527 184.92179495279686,321.7669425170948,C 154.75153201261423,360.9783798843051 118.92256259626446,396.0519573096595 93.36752084772594,438.4161099332264,C 80.58999997344084,459.598186245014 70.59068541775099,482.71372583627937 66.41462464314449,507.0962177716411,C 62.238563868538016,531.4787097070028 64.12674299051078,557.1360232344607 73.67599680737919,579.9561272682334,C 80.72753616165026,596.807377088219 91.91807926208021,611.9702672956116 106.24359871481788,623.3046539208169,C 120.56911816755556,634.6390405460222 137.99071029157452,642.0705378371377 156.11824320969012,644.3247290586255,C 174.2457761278057,646.5789202801133 193.001928121332,643.6312353536933 209.52656443864254,635.8450153246281,C 226.0512007559531,628.0587952955628 240.2773130889882,615.4647401203782 250,600,C 260.792850899418,612.4408515011256 274.7476491875098,622.114724362296 290.1814105660377,627.8644570796307,C 305.61517194456553,633.6141897969654 322.49004792356396,635.4252536243529 338.8011343314216,633.1429572357283,C 355.1122207392793,630.8606608471038 370.815969538164,624.4983980051863 384.2156879479847,614.9219705320814,C 397.6154063578054,605.3455430589765 408.6851195888422,592.5956466062568 416.5802620533192,578.141334375101,C 427.37647299884543,558.3757880759442 432.154863565499,535.5799164567777 431.62485825985516,513.0642755451714,C 431.0948529542113,490.54863463356514 425.4144446978961,468.344642034985 416.7531022076571,447.55483353295233,C 399.4304172271741,405.97521652887764 371.0054288838992,370.1838822646499 344.53322169604377,333.73992238455673,C 317.4868241231543,296.5054817105024 292.193044613556,257.5703952952486 275.1427192272782,214.82466336558662,C 258.09239384100107,172.07893143592509 249.21008962751515,126.01398956386907 250,80M 250 , 80C 251.84257850610402,119.95564226928006 245.71696432591028,160.20611436598261 232.58551487209166,197.98724034104643,C 219.4540654182732,235.76836631611013 199.2657986625337,270.7494305995364 176.45923573875476,303.60835834079927,C 151.06794181411286,340.1912794550136 122.21705153550047,374.69497328241056 102.05417248320381,414.3999633055656,C 91.97273295705108,434.25245831714415 84.21990027178116,455.4434956658343 80.94211249126592,477.4665083655112,C 77.66432471075068,499.48952106518806 78.99428239684195,522.349466478376 86.18692412262735,543.4213170404106,C 97.05907715002377,575.2728109163601 122.20889354954019,602.3693447031765 153.91491736431075,613.6586948810198,C 185.62094117908129,624.948045058863 222.75589344229815,619.760567589352 250,600,C 262.52562039723875,610.6339766952457 277.8364286083712,617.95568034608 293.97523364019406,621.0397683531836,C 310.114038672017,624.1238563602872 327.03519218397355,622.961349698851 342.62472241651307,617.7710535782535,C 358.2142526490525,612.580757457656 372.4259863444956,603.3881099960184 383.70464892992396,591.4397043712161,C 394.98331151535234,579.4912987464137 403.31065914214616,564.8398380103661 408.1972884190409,549.1524710865975,C 413.9981610581569,530.5301421945458 414.9546368263135,510.55196974185185 412.05930052905853,491.26315732468146,C 409.1639642318036,471.9743449075111 402.51002907622546,453.3735400189106 393.76264730342155,435.9401075152467,C 376.2678837578109,401.0732425079167 350.8987205965402,370.9055208243334 327.32943210559887,339.8208997555962,C 299.0931663634582,302.5811832776033 273.3119685447287,262.7388449118925 258.69984309119263,218.34775373187972,C 244.08771763765844,173.95666255186802 240.69361781429302,125.79819250838935 250,80M 250 , 80C 255.62431405119256,120.48409577762592 251.7431125155383,162.1864463725309 239.30125175736453,201.11965867709995,C 226.85939099919094,240.0528709816689 205.85723946690428,275.7965932477517 181.38825747422885,308.53592494100013,C 154.84282864208723,344.05352840056185 124.09195950099841,376.52485728216556 100.65184195000187,414.16420951607665,C 88.9317831744997,432.9838856330318 79.16227176245526,453.17172252465105 73.48006818099135,474.60190099584247,C 67.79786459952743,496.0320794670339 66.32112523807771,518.7344266580827 70.66673091746904,540.4750728795628,C 74.48087367321577,559.5568613363695 82.81643178007693,577.7934507876116 95.23911689302194,592.7714089347072,C 107.66180200596696,607.7493670818028 124.15028229995278,619.3744901707095 142.53782064215625,625.7432239055685,C 160.92535898435972,632.1119576404274 181.13223654438116,633.1759985745491 200.06036538568043,628.6606609084706,C 218.9884942269797,624.1453232423921 236.55642953459994,614.0688574096604 250,600,C 273.0448821483021,621.7145884418438 306.25453224381397,632.0856324362572 337.5878618110913,627.5235712073635,C 368.9211913783685,622.9615099784696 397.51480308304286,603.7353414101227 414.7569935548132,577.1779166071984,C 428.1248680397646,556.5879386696346 434.8811993562068,532.0295618314871 435.5354785067721,507.4894074206461,C 436.1897576573374,482.9492530098052 430.9386682459522,458.48301715745765 422.2466233996372,435.52445413394884,C 404.8625337070016,389.6073280869138 374.7375760280773,349.8594578302051 346.9490020972534,309.3824989801131,C 299.4722754416867,240.22769039014298 260.65218057096024,163.20431583834133 250,80M 250 , 80C 251.98005551171914,126.69317300224951 243.63668338901698,173.69181813866047 226.5606359340992,217.19562978965132,C 209.48458847918198,260.6994414406413 183.6122365302887,300.16289730155273 155.96375220247143,337.8422595469761,C 129.7536878322547,373.5613426682033 101.69862698283913,408.67931320154656 84.48385888018122,449.5017596309774,C 75.8764748288479,469.9129828456951 70.17647807629551,491.71649209629004 69.49403736852244,513.8578418295053,C 68.81159666074939,535.9991915627206 73.29772309799667,558.4500298899648 83.678896830137,578.0187887998011,C 91.41938889072158,592.6098000751514 102.39827975305185,605.5135754315672 115.76701093928754,615.2135678979325,C 129.13574212552322,624.9135603642978 144.86754050440965,631.3666698032629 161.22256492782805,633.6744833760545,C 177.57758935124642,635.982296948846 194.51003805745128,634.1305066228857 209.95704547810425,628.2821915558203,C 225.40405289875724,622.4338764887549 239.3257415499699,612.604484674882 250,600,C 273.6294771137571,619.1282377511218 305.7564428268365,627.2714626308561 335.673427351732,621.8663072149433,C 365.5904118766275,616.4611517990304 392.59914617158597,597.7439874048623 409.2207884754961,572.2888764199564,C 422.55191044583665,551.8730123853593 429.37379330719705,527.5232635938776 430.1699873742107,503.1533560791801,C 430.9661814412243,478.7834485644827 425.92872510397234,454.45028487690394 417.48086498791906,431.57759424534834,C 400.58514475580756,385.83221298221986 371.05571360365184,346.07039129612247 343.86659537088764,305.58759101260034,C 298.0025016895074,237.29898640274084 260.5539930720293,161.58101396165472 250,80M 250 , 80C 240.75697708514238,159.91682714665694 204.41818128419783,234.28940317220483 159.23157550176063,300.84992744640084,C 134.60098385932034,337.1311453984174 107.99444119628136,372.5357147364561 90.25741368750407,412.6404610377514,C 81.3888999331131,432.69283418839956 74.88691773940873,453.9194883195828 72.59808063484816,475.7256670286883,C 70.30924353028759,497.5318457377938 72.3391748153945,519.9156973858458 79.71517570172048,540.5637679036829,C 91.42797561376352,573.3520934844814 117.52019671167201,601.1396090577199 150.28317982579406,612.9231108138091,C 183.04616293991606,624.7066125698983 221.38239573447018,619.8317095146517 250,600,C 259.4222697510362,616.3081352893277 273.76600125727526,629.7273966416021 290.6589925182139,638.0557392218614,C 307.55198377915247,646.3840818021206 326.91570802768194,649.5843247055789 345.6029442341839,647.2345062362691,C 364.29018044068573,644.8846877669594 382.21038540876964,637.0147937126122 396.76309439338206,625.0584939051683,C 411.3158033779945,613.1021940977245 422.4588001999119,597.1480483040924 429.187681197296,579.5566696088524,C 437.30207815007685,558.3431231461699 438.9960025618047,534.932868483988 435.56144512733556,512.4815476617953,C 432.12688769286643,490.03022683960256 423.72738869692324,468.53505445058613 412.739188037766,448.6574932896744,C 390.7627867194427,408.9023709678432 359.15853636715354,375.50272386419914 330.84380943221163,339.98219171267533,C 301.59452284445894,303.28926414050545 275.60140354492194,263.31210406379995 260.58008265418545,218.85705240027676,C 245.55876176344992,174.40200073675393 241.57070394421527,126.16100808813498 250,80M 250 , 80C 254.24463580681356,120.20400410920615 249.50687076509607,161.26876777116524 236.72728168596058,199.62318058786718,C 223.9476926068252,237.97759340456903 203.11696814032595,273.24846899616523 178.90098356770886,305.62075607515163,C 151.65237240052792,342.04710333195953 119.97061617180023,375.23164736604554 95.70751575658397,413.7110904916276,C 83.57596554897157,432.95081205441807 73.42539655636759,453.59979489304214 67.47392456247384,475.5525026385441,C 61.52245256858009,497.5052103840461 59.89350956919738,520.7950307141745 64.28560140745853,543.112085303385,C 68.19396189706568,562.971208840139 76.91539765194081,581.9479719626887 89.9709999256585,597.4144298194598,C 103.02660219937621,612.8808876762307 120.39197361054909,624.7299677227779 139.6632395199199,630.9169200916829,C 158.93450542929074,637.1038724605877 180.01952826798734,637.5751241452165 199.5143641351874,632.1334843302612,C 219.00920000238747,626.691844515306 236.82099705338229,615.3614436397696 250,600,C 261.2579545762461,610.8740876583461 275.2874561939192,618.8537415473879 290.38600047654376,622.9794274525243,C 305.48454475916833,627.1051133576607 321.61444295412855,627.3661473747766 336.85255189712376,623.7902056129989,C 352.0906608401189,620.2142638512212 366.396253127367,612.818227511275 378.23370703044986,602.5780122432934,C 390.0711609335327,592.3377969753118 399.4193303395574,579.2950648652422 405.61496604768223,564.9214285189857,C 414.47833731354126,544.3587483713702 416.80280276446877,521.2641794351441 413.79631166011217,499.07534944595756,C 410.78982055575557,476.886519456771 402.63975257936994,455.61181598421666 391.8622168494067,435.9845928327119,C 370.3071453894692,396.7301465296877 339.00547343051863,363.8829779363708 311.80622988499204,328.3058250043113,C 284.8654649797336,293.0667672879877 261.7409629700985,254.2030439528616 249.99197528500412,211.42971942938914,C 238.24298759991058,168.6563949059169 237.9542862941437,122.69071074286883 250,80M 250 , 80C 239.434657894321,162.33011978571554 200.40186737378264,238.5421824936481 151.27762541633928,305.45020839373626,C 122.51844798333036,344.62068129833506 90.90846688740183,382.2421491960441 69.47661413144971,425.85512801703715,C 58.76068775346866,447.6616174275346 50.78238811818453,470.9888164416658 47.88965645114185,495.11320580286906,C 44.99692478409919,519.2375951640723 47.34306991175181,544.1597979665912 56.18786051516884,566.7899490427585,C 63.464929820611054,585.4089514768234 75.13562926923287,602.3608770359842 90.29053057950757,615.3974392972461,C 105.44543188978227,628.434001558508 124.0490536341966,637.4772749418867 143.7140030055571,641.070707220051,C 163.37895237691757,644.6641394982151 184.02865770724208,642.7779394927838 202.68125526168842,635.5874183859527,C 221.33385281613477,628.3968972791215 237.9203129803868,615.9280931320768 250,600,C 260.0573624234864,613.3918364486648 273.8005967674155,623.9845942488678 289.3084614949855,630.3089878147784,C 304.8163262225555,636.633381380689 322.03778021556053,638.668759270656 338.6035683826278,636.2057357650854,C 355.16935654969507,633.7427122595149 371.021502254185,626.800568761426 384.1901603891927,616.452705923698,C 397.35881852420044,606.1048430859698 407.8132744099971,592.4072362752765 414.67998230110214,577.1317609922166,C 424.0620020100392,556.2607974327072 426.6710295217757,532.6519829536766 423.7144736977299,509.9610554411099,C 420.75791787368405,487.2701279285432 412.4354354043337,465.5071560154636 401.35570702532976,445.4856917141506,C 379.19625026730995,405.4427631115092 346.82702551755267,372.2018697115662 318.4288662110798,336.3128434933616,C 289.87968779535754,300.2329623428726 265.0843061102972,260.41553903892986 252.1076651940883,216.27462601509302,C 239.13102427788047,172.1337129912565 238.07947240465396,124.43775910073205 250,80M 250 , 80C 254.60294399447952,126.79933052418784 247.82410855675928,174.5666819915661 231.212598734326,218.56011527822488,C 214.6010889118933,262.553548564883 188.16385823598884,302.1743837390869 159.03132340136807,339.0886065405766,C 131.4497461313986,374.0375903602127 101.24783401186495,407.4088775774408 80.05997316229623,446.5656065948625,C 69.46604273750836,466.1439711035736 61.28483198453205,487.1848489979478 57.632464508873035,509.1439912968618,C 53.98009703321405,531.1031335957758 54.98684914460195,553.988954415149 61.930631169776525,575.1390752154675,C 68.205867461082,594.2528672570975 79.36398067603164,611.8264937619323 94.43420529625634,625.1533075828861,C 109.50442991648102,638.4801214038399 128.44186377275952,647.4498061171718 148.3509352787387,650.3384924089315,C 168.2600067847179,653.2271787006912 189.0313113047328,649.9947616974738 207.06787241708966,641.0842005500147,C 225.1044335294465,632.1736394025555 240.30990131985513,617.6300205414358 250,600,C 262.577392768283,616.229290897458 279.90325496205804,628.7298149758709 299.26546250151,635.5625019349785,C 318.62767004096196,642.395188894086 339.9445096937145,643.5323646289713 359.9499432445357,638.9103174282553,C 379.9553767953568,634.2882702275393 398.5622064057074,623.9469712494144 413.2726357497884,609.6227274510576,C 427.98306509386936,595.2984836527007 438.76353974472863,577.0848574959822 444.839593310606,557.4720487999654,C 451.83707458401204,534.884976437733 452.62299953924133,510.594788991518 448.6101874064857,487.2916149404236,C 444.59737527373005,463.98844088932924 435.920002221735,441.65869464636205 424.8114705498659,420.78428193214495,C 402.5944072061208,379.0354565037067 371.3161632968,342.95114283352444 343.1688089511309,304.94734339697425,C 294.18128580445995,238.8057095618127 256.72992905827215,162.0317085357902 250,80M 250 , 80C 256.3688420587956,121.06175986375588 253.02718871934394,163.51708903268712 240.9367795801478,203.27199161243797,C 228.84637044095194,243.02689419218856 207.99326961988083,279.6242858538504 183.90936135569848,313.4857039428947,C 157.27041083235758,350.9394523640224 126.42023566855575,385.7917876280491 105.59774652047835,426.7654486977696,C 95.1865019464309,447.25227923263395 87.48011785603009,469.315800617284 85.00678287130664,492.16283221874653,C 82.53344788658319,515.009863820209 85.48017727459002,538.627170764333 94.99483455403254,559.5454770007287,C 107.76496975603342,587.6210651159845 132.92741331153493,610.1211084229924 162.70726159884362,618.1507807126784,C 192.48710988615224,626.1804530023645 225.9385405150204,619.2966621089647 250,600,C 260.09979458480143,615.4648329282887 274.6317772916014,627.997158605549 291.4083076981813,635.7247025667418,C 308.18483810476124,643.4522465279347 327.1418038890661,646.3461373488262 345.47073278005973,644.0620020936436,C 363.7996616710533,641.7778668384611 381.42656330683735,634.3389861534166 395.997760006119,622.9879009671488,C 410.56895670540064,611.636815780881 422.0462551814321,596.4443698463232 429.41414066655955,579.506802971677,C 439.7675694108423,555.7059591485539 441.9050008674838,528.7495451311432 437.5503696728653,503.162227166681,C 433.1957384782468,477.57490920221875 422.62385863497235,453.3459797186616 409.1727725799637,431.1481884457356,C 382.27060046991534,386.7526058998522 344.7417553306846,349.86594878847075 313.9383536514283,308.08263801953575,C 289.84309194037803,275.39859167247147 269.66924992301665,239.44507930504457 258.0994496486468,200.52248632677237,C 246.52964937427706,161.5998933485002 243.56676160582617,120.09291665998842 250,80M 250 , 80C 250.14554392641847,119.76846393618368 243.00635079349126,159.50435884821857 229.49472869326888,196.9074065194825,C 215.9831065930466,234.31045419074633 196.03671781947924,269.0961364662522 173.6596956043331,301.9719753705434,C 145.97739251454098,342.642218628548 114.14289665775718,381.0716633561231 94.11839507227627,426.0093749942723,C 84.10614427952423,448.478230813355 77.29804404289493,472.6042344998934 76.45217138703184,497.18835838515224,C 75.60629873116875,521.772482270411 80.94667981113224,546.7722663423747 93.31476934766829,568.0354977283122,C 108.55064226079926,594.2290250440236 134.77093418422788,614.0786272099955 164.41943078901474,620.3395652978494,C 194.06792739380157,626.6005033857033 226.37918945964356,618.9813067537665 250,600,C 262.8269370801577,612.7643566764261 279.3596511544517,621.7575777565056 297.04193908939334,625.604109909909,C 314.724227024335,629.4506420633122 333.4827411964787,628.1354596554829 350.49140829630625,621.9577287040257,C 367.5000753961337,615.7799977525686 382.68784377819395,604.783905056305 394.09180360846085,590.7336802747934,C 405.49576343872775,576.6834554932818 413.0971535283072,559.6639066829206 416.5079169288226,541.8924180213861,C 420.32820679911146,521.9871269937663 418.93476506305655,501.25159021325504 413.72344586057835,481.6644164059607,C 408.51212665810016,462.0772425986664 399.58318695115736,443.6167821300854 388.8039019235898,426.4522186377699,C 367.24533186845,392.123091653137 338.73085405682747,362.8085891103196 313.402237049854,331.15859601611066,C 285.22708630386006,295.9516470424013 260.9108998030493,256.83738845118467 248.7448289095274,213.41671256272502,C 236.57875801600676,169.9960366742657 236.7016988857284,123.08739447995163 250,80M 250 , 80C 260.63279806045307,124.48625541685865 258.7599917521265,171.77015242871533 245.44152877104682,215.5274587835399,C 232.12306578996765,259.28476513836404 207.44924182908466,298.8292178116849 178.79522693418784,334.4807359562371,C 149.3730552589892,371.0879999357525 115.53366838179879,404.4649663290938 91.09834120787556,444.5732042367122,C 78.88067762090532,464.6273231905225 69.19404496042073,486.43582001578864 64.66950477838698,509.4785526375745,C 60.144964596353255,532.5212852593604 60.96844652106022,556.8139451994693 68.70817866450577,578.9845459330008,C 75.07151880242826,597.2124472239877 86.11347895900897,613.8627445887389 100.81881305744923,626.3728058291209,C 115.5241471558895,638.8828670695029 133.84781018023136,647.1518455994066 152.9981407510253,649.6040532199343,C 172.14847132181922,652.0562608404618 192.02320476859313,648.6570423351807 209.2206519854073,639.8822892098929,C 226.41809920222147,631.107536084605 240.84938366282736,617.0004324602266 250,600,C 261.25519083288646,613.2223557687558 275.84211964520125,623.5845200000563 292.0299079356305,629.8666791053707,C 308.21769622605973,636.1488382106852 325.9680556169585,638.3356385773559 343.2042927646873,636.2327496721836,C 360.4405299124161,634.1298607670111 377.1180773760212,627.7499402478296 391.45525275241386,617.9542567603539,C 405.7924281288065,608.1585732728784 417.761638976512,594.9877753834323 426.44020512156004,579.9480778324087,C 439.25531442645934,557.7398737572496 444.749267112946,531.6709825134935 443.8170906233662,506.0475088666067,C 442.8849141337864,480.4240352197198 435.75589305479093,455.28465437001375 425.2598943607473,431.8909508121103,C 404.26789697264826,385.1035436962808 370.87348226661067,345.21161184032525 341.16960025568153,303.409640446082,C 293.99393007644176,237.0197990572906 257.62918748635144,161.08606782171267 250,80M 250 , 80C 260.3794625924584,123.99221920513398 258.5298082267305,170.67845551123705 245.53706007208226,213.97091547473056,C 232.54431191743467,257.2633754382234 208.47707490685627,296.4727826459798 180.82606150090356,332.2284822185592,C 152.68554743242146,368.617158180575 120.56228667327746,402.4356342824013 98.86605474849698,442.9979048127003,C 88.01793878609699,463.2790400778541 79.98740546206221,485.28400572382225 77.39395804687098,508.1374539993403,C 74.80051063167974,530.9909022748584 77.8470255064565,554.6772825547861 87.67164665710715,575.4735054527869,C 94.64875846770252,590.2422756854893 104.99701315560918,603.449833706784 117.88991208763143,613.4782842617085,C 130.78281101965368,623.506734816633 146.19296412209727,630.3079003462632 162.32071921338635,632.8948249913398,C 178.44847430467541,635.4817496364163 195.24389182831067,633.8375565744411 210.54065372007508,628.1099271319432,C 225.8374156118395,622.3822976894453 239.59130252280534,612.5879180261132 250,600,C 261.0889996451757,618.4917923003788 278.21911021876093,633.2896842105445 298.11833194156463,641.5922904542341,C 318.01755366436834,649.8948966979239 340.5595657504927,651.65371471252 361.5416923638541,646.6875634470099,C 382.5238189772153,641.7214121815 401.81335991895537,630.0962139067909 416.32159993324217,614.1455629075717,C 430.82983994752897,598.1949119083525 440.52102569624407,578.0646659669526 444.7620462989526,556.924040624772,C 448.90930008739576,536.2508237853102 447.9337105288017,514.7048501148502 443.1396429740325,494.1719856104155,C 438.34557541926324,473.6391211059808 429.82084345196876,454.1009988339516 419.32301645357,435.8150141246488,C 398.3273624567696,399.2430447060425 369.910303061021,367.60422699634506 343.7146307391206,334.55709118229214,C 314.91715414714963,298.22765064178935 288.6552249220862,259.35714219148014 271.65982462704255,216.22618721871987,C 254.66442433199956,173.09523224595995 246.92815767121124,126.25674753760853 250,80M 250 , 80C 261.2663278014495,125.04892703846035 259.3316494432835,173.18006811003536 245.3454595518004,217.46011397457363,C 231.35926966031798,261.7401598391113 205.4543059534048,301.4081667991525 175.58917819941865,336.96671167495214,C 148.5478069708768,369.16318577859636 118.20040226770158,398.71830186736196 94.20884781786874,433.24733338733296,C 82.21307059295054,450.5118491473177 71.90243544529349,469.0756036933384 65.10792649505164,488.9702467859328,C 58.31341754480979,508.86488987852715 55.12113983701599,530.1244044644725 57.1129550855358,551.0527309066989,C 59.233774512447575,573.3365252116013 67.37432734751195,595.152640679973 81.18394413395204,612.7696735707988,C 94.99356092039214,630.3867064616246 114.44464784801518,643.6076920677219 136.04777609525894,649.4703035675491,C 157.65090434250325,655.3329150673758 181.2318762431381,653.7397765507019 201.77670344714977,644.8529639149991,C 222.32153065116145,635.9661512792962 239.65828256422319,619.8523108010966 250,600,C 276.6233990853657,619.0414716554266 312.61267202875956,624.1275437104315 343.550525562598,613.4395953394005,C 374.4883790964364,602.7516469683695 399.33782884808005,576.8835396918141 410.5789733259991,546.1423670972365,C 418.3431465390718,524.9096723955445 419.9815848432725,501.67257531300965 416.7726759570122,479.2937323192904,C 413.56376707075185,456.91488932557115 405.6564662950237,435.3915634668279 395.33714309828673,415.2763632754516,C 374.6984967048043,375.04596289269114 345.07880972788047,340.2537860723269 319.3633406980003,303.0630144685312,C 296.75025238177585,270.359033769283 276.9797883597488,235.37024874318104 264.53964464009914,197.60591449764422,C 252.09950092044963,159.84158025210746 246.9469064664368,119.64316759101712 250,80M 250 , 80C 243.8664886796121,159.5808711400515 209.33243171522454,234.60576803374147 163.63527227011184,300.0466163715706,C 134.00030390792665,342.4855227201257 100.26316967910148,382.76850886081326 79.31767228553635,430.10325572635907,C 68.84492358873983,453.77062915914144 61.853576800981166,479.2294864366081 61.2983213267517,505.1044689840682,C 60.74306585252223,530.9794515315283 66.87399231129176,557.219805836175 80.48331993851738,579.2336476637131,C 97.79881660097749,607.2424233456071 127.64116606476148,627.5342591210668 160.29507253151735,631.7816503588366,C 192.9489789982732,636.0290415966065 227.35980676912692,623.9110767288939 250,600,C 262.76463768158686,610.7462177864863 278.3603065847661,618.0966047508851 294.77137561128075,621.1122282790716,C 311.18244463779547,624.127851807258 328.3613146021031,622.7997477885472 344.1398638321422,617.372542609819,C 359.9184130621813,611.9453374310908 374.24889143874407,602.4461793548564 385.55424175610665,590.1740065212263,C 396.85959207346923,577.9018336875961 405.121823857552,562.9118586665448 409.87293573377167,546.9167310397822,C 415.34601440665006,528.4910247704412 416.17247314785294,508.82544693451314 413.31237586470866,489.81805139450023,C 410.45227858156437,470.8106558544873 403.98981210745444,452.45943497211925 395.4963952553687,435.21637515489834,C 378.5095615511951,400.7302555204549 353.867918424379,370.7208367317958 330.77798854226586,339.98486261719364,C 302.6585967502985,302.55396080636365 276.7322668107545,262.77853628330735 261.5677403524939,218.48621479956853,C 246.40321389423505,174.19389331583085 242.0230330029761,126.13177432800947 250,80M 250 , 80C 245.7001975855516,125.36398819615904 233.76764674799145,169.92170812331779 215.5864346123982,211.70475792996916,C 197.40522247680522,253.4878077366198 172.8115179746987,292.11288293673266 147.79652109398637,330.2000153691229,C 124.68999311060436,365.38136660224535 101.08099411512863,400.96734041822253 87.99119623170031,440.97104401434143,C 81.4462972899842,460.97289581240227 77.69421156147301,482.01455319452515 78.40229588318252,503.04805965688695,C 79.11038020489201,524.0815661192487 84.3871700664312,545.0756369740842 94.70579880069876,563.4178200108225,C 109.46224067945235,589.648568774191 134.96572629388874,609.902480031111 164.2105249088514,617.01208702294,C 193.45532352381403,624.121694014769 225.72030449114354,617.7848571432328 250,600,C 274.2161790132772,619.0345781604974 307.6239520314613,625.6777835301907 337.33651333483397,617.559766990143,C 367.04907463820666,609.4417504500951 392.136860934953,587.005306125634 405.0235824943154,559.0290501359088,C 413.4940923662857,540.6401099038939 416.9730715223714,520.1244751590639 416.1616603984515,499.89468839954156,C 415.35024927453156,479.6649016400192 410.3533235004884,459.7385920173685 402.86108714717716,440.9298425965832,C 387.87661444055226,403.3123437550091 363.50798555951405,370.32344283017363 340.2831307080235,337.1539273299645,C 313.6777027191499,299.15630961783296 288.41507164772594,259.7443918914662 271.9081044392362,216.39479231031345,C 255.4011372307475,173.0451927291617 247.5616666524608,126.32194167729361 250,80M 250 , 80C 247.0738776860704,125.19112276346496 235.6574439916253,169.74254658049284 217.19356676158233,211.0933023904238,C 198.72968953153972,252.44405820035428 173.1258798428339,290.1822233631701 146.0898482497913,326.5120012887037,C 121.69499259229502,359.2926882586933 96.0272164874414,391.54700189940473 77.94869622159601,428.1919132210595,C 59.87017595574869,464.8368245427142 50.24563956657804,507.1974548880455 59.8815316254688,546.9067989395908,C 64.69265933491589,566.7333727869024 74.22421515387737,585.4789126836454 87.91991994711974,600.6006735128566,C 101.61562474036212,615.7224343420677 119.44853077752167,627.1192488990462 139.02400222285038,632.8673701619135,C 158.59947366817912,638.6154914247807 179.8287077260616,638.6663530730804 199.39641733433007,632.8918642605547,C 218.96412694259857,627.1173754480292 236.7829529175636,615.5418675448018 250,600,C 263.7665431383535,611.895603548992 280.7560188312415,620.0217470524999 298.65496324955774,623.2853160321544,C 316.553907667874,626.5488850118088 335.30420855101096,624.9393179087324 352.41803051018246,618.7635433237336,C 369.53185246935385,612.5877687387349 384.9518900857177,601.8805186805998 396.9184706283414,588.175627440906,C 408.88505117096514,574.4707362012124 417.3795806759821,557.8362352497065 421.970118342878,540.2308367110837,C 431.6160978963839,503.2370624176007 423.6166285061603,463.4461069568632 407.52490672807625,428.7669958344519,C 391.43318494999085,394.08788471203985 368.0738959934213,363.3885679296336 345.70226310446765,332.3870470007211,C 318.8678877878386,295.2012746379188 293.37994564972075,256.6135206683249 276.07051039796846,214.14884339276728,C 258.7610751462171,171.68416611721034 249.54168139572693,125.85471959252123 250,80M 250 , 80C 256.50432185930055,121.00630316039991 253.203691639906,163.45178085476238 241.0721701706723,203.1588241666676,C 228.94064870143887,242.86586747857262 207.96854943975654,279.3667967854861 183.7751849893673,313.1085249318424,C 158.1350364390358,348.8680375780279 128.69801823602776,382.2025377580229 107.95947941557944,421.0106937302992,C 97.59021000534993,440.4147717164387 89.55354186974058,461.2329539287068 86.08072244738524,482.95804347636613,C 82.6079030250299,504.68313302402544 83.84318223067501,527.3200594709638 91.07369103440882,548.0988884329922,C 96.42812244283706,563.4862999478117 105.04755648848942,577.7684012187938 116.42785158193782,589.427357107723,C 127.80814667538621,601.0863129966522 141.93228289618088,610.0783069352821 157.3715183202785,615.2814193070507,C 188.24998916847375,625.6876440505879 224.16011011405487,619.8511855066159 250,600,C 274.72884791567856,617.1704883935042 307.0854406442446,622.8068112331497 336.2084968259022,615.1786273373435,C 365.3315530075598,607.5504434415373 390.52472500391366,586.9630515759709 405.0081353651746,560.5703932177164,C 415.2512636156632,541.9046661761058 420.3507891374569,520.6049123493501 420.831421100816,499.31876579193704,C 421.3120530641751,478.03261923452396 417.28589718668024,456.7900955950645 410.47499389006526,436.6172762920511,C 396.85318729683314,396.2716376860197 372.7576576575343,360.43555189833705 349.40953142719997,324.8239081434598,C 324.9897597585183,287.5777411208264 301.20447339860465,249.6687010292641 283.5777356510183,208.76759685582803,C 265.9509979034324,167.86649268239245 254.33178632406623,124.32649132822303 250,80M 250 , 80C 239.31748865298914,161.55975871505706 201.13544298648992,237.2038908652967 153.0644606899617,303.95185676227527,C 123.45521143206685,345.065165982999 90.65867021459245,384.57406383791476 69.65334449156339,430.68033377991344,C 59.150681630040346,453.7334687509165 51.83798232617512,478.4520226221477 50.36535887501336,503.74202735415963,C 48.8927354238516,529.0320320861716 53.460154309967905,554.8697825048763 65.09291654303043,577.3738221867452,C 73.58149083390907,593.795305653619 85.78360420352983,608.3339700212233 100.72792538320654,619.2146077425724,C 115.67224656288325,630.0952454639215 133.3267754344579,637.2651229669093 151.65416791446611,639.6791854408972,C 169.9815603944743,642.0932479148851 188.92585642784738,639.7342350089218 206.07334964200413,632.8288393493651,C 223.2208428561609,625.9234436898083 238.5230518852353,614.4914000260699 250,600,C 261.1783684142117,618.803331836321 278.7902085876429,633.6962521206856 299.18102125523956,641.6168560942239,C 319.5718339228362,649.5374600677621 342.58768601997946,650.4321631356962 363.5820346544382,644.2873658269599,C 384.5763832888967,638.1425685182242 403.3958284704222,625.0476501882387 416.8406726570124,607.7920026098674,C 430.2855168436026,590.5363550314962 438.3309700012871,569.2963196183539 440.647803107415,547.5442279279214,C 444.91093571332743,507.5188799272278 429.8854793293843,467.5248340389263 407.9899819565038,433.74925148308574,C 386.09448458362095,399.973668927245 357.8944067798162,370.8412016519534 332.1704226101436,339.8818828508111,C 302.05911252173723,303.64233137238324 275.25285293021,263.89063702226224 259.90690329598,219.34293319342876,C 244.56095366175114,174.7952293645957 240.77818003077317,126.20556376728766 250,80M 250 , 80C 249.94597274363437,126.26976545577128 240.17624800592273,172.41804324890273 222.21756467797343,215.06050808623306,C 204.25888135002452,257.70297292356287 178.05889845334832,296.36223901665403 149.80397900402153,333.0031129307478,C 123.1482501705254,367.57016243262376 94.48754222369324,401.06769760023127 74.36002469325499,439.8012983749065,C 64.29626592803376,459.16809876224414 56.50739637591843,479.84919459445393 52.87798013932913,501.37080084280655,C 49.248563902739846,522.8924070911592 49.88343229543995,545.2640195872946 55.99099578193886,566.2175363800893,C 61.821697750425166,586.2212108208859 72.69401860359719,604.823810244425 87.7579053629222,619.219066139369,C 102.8217921222472,633.6143220343131 122.0364704048204,643.6855959050939 142.5146384181252,647.5312052713125,C 162.99280643143,651.3768146375309 184.62321145724522,648.9498203822255 203.68765717091358,640.5420271991555,C 222.75210288458197,632.1342340160855 239.14921087532372,617.7877612967595 250,600,C 272.84169847578147,620.7241369371123 305.77208996266387,629.6835171006223 336.0052415966244,623.5851908282217,C 366.2383932305849,617.4868645558211 392.81789508048627,596.7029673129704 407.4201252018245,569.5366661931973,C 417.5555639067055,550.6804793265458 422.1889984239522,529.0851120777122 421.94819800909164,507.6789233452291,C 421.70739759423105,486.2727346127461 416.72540952156413,465.08545913322706 408.927829234301,445.1485425573328,C 393.33266865977146,405.2747094055377 367.2027811025187,370.5812400623478 342.51367128970986,335.60153937446853,C 315.8687986899719,297.85090051093215 290.6711520655957,258.63783590119874 273.8778461926683,215.59082847536584,C 257.0845403197418,172.54382104953368 248.60574859287428,126.18566913529611 250,80M 247.61700595031135 , 537.7119173884022C 251.31122969026632,558.2278013614873 252.11594176188405,579.2618328992592 250,600,C 245.99546751120332,639.248085844795 231.36694020938234,677.3608855220523 208.08313130460397,709.2091628038769M 256.44667980762273 , 520.3553731642421C 257.42491858916435,547.0337819947606 255.25625584349248,573.8262302419054 250,600,C 236.45074663492963,667.4691355464548 201.90914929774823,730.5681888378961 152.37436180665665,778.3381725761094M 259.58649873006414 , 530.8458816030325C 256.84415212105375,553.9570517170049 253.64783074314107,577.0143527428459 250,600,C 235.21440623723313,693.1667247329281 212.99650123143948,785.1529171754815 183.62682909490366,874.7970733652252M 249.21999467985515 , 537.9695331736519C 249.24139950545123,558.648437883623 249.5014243574124,579.3270954991989 250,600,C 252.39695056373364,699.3869853730357 260.3129197675176,798.6406156645945 273.69927706351183,897.1511413554514M 250.91159374676246 , 518.0416368392761C 254.20679054033013,545.2430276958094 253.8994095327563,572.8786321927879 250,600,C 239.7734359096677,671.1283089832009 204.09146973519398,738.3276049454724 150.89643826744592,786.6402076392692M 241.84735284542518 , 522.2091154066927C 247.45369148002274,547.7272602276735 250.19392187007227,573.8739757655584 250,600,C 249.3583079290543,686.451634311948 215.34263587549316,772.2341851359065 156.56378300887116,835.6324761192186M 242.10150678867075 , 534.1330094562609C 247.63545314598898,555.6096225729872 250.29929480160257,577.8238890724061 250,600,C 248.9717139654609,676.190381674302 210.96314649259122,751.0343109623393 150.05078804817975,796.8133041861333M 243.99454363482118 , 535.9959048172132C 249.0173481870915,556.9018145802735 251.04620171119825,578.5246399198753 250,600,C 246.64073257935172,668.9556102725418 209.8156622626703,735.5103537640238 153.17873055686528,774.9871676249988M 256.58933459447127 , 520.4779876627259C 252.40315324534444,546.7700965715162 250.1984202040105,573.377458149491 250,600,C 249.29796143959607,694.1942936115391 274.24084463246373,788.455388339629 321.43925856537464,869.9745120428113M 257.4866371899436 , 521.3705005025905C 258.00623846002793,547.7514938006693 255.48881578852703,574.191092736949 250,600,C 235.879052909322,666.3979677896166 201.65843228990582,728.3836724166806 152.99451453753062,775.7114061709896M 242.65115833454453 , 534.7819264354655C 247.5579638433229,556.1497647429853 250.02863872412127,578.0760306043643 250,600,C 249.89294492719463,681.9544938487264 213.071035051269,763.1764420091235 151.50206592052726,817.2672227667289M 249.84656159361717 , 518.0011772365219C 247.53872902139253,545.2706415457997 247.59012923413852,572.7393635843137 250,600,C 257.6552362591282,686.5965989930039 289.6160709497353,770.9149740469429 341.2857013057377,840.8279406426487M 243.9496632375851 , 535.9619988106864C 246.98776704759945,557.1950175242914 249.00763370558,578.5736991622347 250,600,C 251.54486148684276,633.3552914441901 250.59690286061524,666.8257629540284 247.1666392277259,700.0401477255286M 259.77717859572147 , 525.9007671145474C 251.5124735658793,549.5887242547722 248.16229264500254,574.9790588829114 250,600,C 253.09930000430865,642.1979063756348 271.291126978636,683.1308199816983 300.53571131241654,713.7089698627482M 248.16276566578784 , 518.1702202465573C 244.28156207117496,545.3009785047878 244.9050468350682,573.0707735488645 250,600,C 260.33855760282785,654.6441448727992 289.5362592860279,705.536562220731 331.49140726476924,742.0418207497206M 247.3752793166044 , 537.6493959051412C 246.2548057871029,558.4530907108767 247.13507782050002,579.3640750290687 250,600,C 260.1435786570893,673.0638094124317 295.9643687259557,742.3048070535239 349.74018406695774,792.7961342121474M 252.2352623841861 , 518.2530208744533C 254.5307139085099,545.4721136319479 253.77944922102736,572.9470173210552 250,600,C 239.31719528711164,676.4666262090325 203.80316149715043,749.2631574913527 150.1128002222158,804.7484018946408M 247.67909732561344 , 537.7269425194161C 248.94477645902447,558.4623942552449 249.71870066393475,579.227860653241 250,600,C 251.34344311516676,699.2045981445755 241.4050087707048,798.5576366487004 220.43764310020194,895.5304509281149M 259.79221454889614 , 525.9720615817074C 251.98545217614935,549.7581327281885 248.64623564611352,575.0021992686529 250,600,C 253.40779491206902,662.9262972544952 288.13378526805576,723.3871486412079 340.77030336948735,758.0386841696875M 259.5612440737885 , 530.9296094895813C 258.9582566218898,554.2131800656033 255.74466152676231,577.4281787048833 250,600,C 235.90718575796305,655.3732335899371 206.2988181407258,706.7103980894132 165.42694174241961,746.6389859826492M 244.10816451654551 , 519.9200077576828C 251.16490375340967,545.9091038177967 253.17707858185054,573.2579571766913 250,600,C 243.31158209437854,656.2976185336066 212.79545335137658,709.3729690511461 167.50667761910017,743.4769802420207M 255.38321351395254 , 519.5726034706323C 257.68848475528534,546.4473249029156 255.86625218057864,573.6722197496106 250,600,C 239.11690171194167,648.8434201857184 214.08591354766062,694.4484180060141 178.72587045627938,729.8572993264094M 256.5596689203065 , 535.5478966378697C 254.26632186869222,557.0208835357929 252.0797295329255,578.5052719931745 250,600,C 240.42082875554237,699.0040662358549 233.10912547776485,798.2275147602863 228.07255559024983,897.5663219643814M 257.2100377195252 , 534.9293113714873C 256.12306078400076,556.7385555296273 253.71383839749376,578.4818203844975 250,600,C 235.89278879125456,681.7379412277253 202.670227104068,760.1145479543129 153.73965457095647,827.0914358770667M 248.756709269812 , 518.0775895992845C 253.963476060651,545.03084059738 254.38644832504303,572.9011581267345 250,600,C 243.0990628415809,642.6329893744976 224.1365765158649,683.2465415722643 195.881833814816,715.909429251831M 242.40556294174408 , 534.5057302255926C 242.75274044926775,556.5171249535852 245.30099553029189,578.4932246236939 250,600,C 264.01153401436056,664.1290972730324 297.5946601621287,723.8445651429457 345.1154671435887,769.1285259493997M 259.9989066582073 , 527.852129649838C 251.6768879999329,550.8503916131458 248.24612409392424,575.6053291231941 250,600,C 253.37894729334272,646.9977989010633 276.6662855512717,692.2402848549543 312.95098023277035,722.300745899762M 253.51064736847266 , 518.6364881025207C 247.5850397234536,545.2720278323434 246.3906676496243,572.9530496608915 250,600,C 258.0174970591695,660.0800435517486 290.5672634376137,716.5181216167979 338.5551494056365,753.5458773224012M 249.42618295005497 , 518.0164768747104C 250.32581483236683,545.3332382538974 250.517172872274,572.6733221559718 250,600,C 248.12920347001364,698.8502236435564 236.96215378070116,797.5224750873713 216.69420134097447,894.2906346127994M 240.53568929557508 , 531.2290591338822C 241.56871865522055,554.3785246739938 244.74136500198298,577.4320656149409 250,600,C 265.5440151266571,666.7086256397422 299.67578737818997,728.9841855418792 347.5446446573592,777.976324133571" stroke="hsl(210,80%, 90%)" fill="none" stroke-width="1"/></svg>