<svg viewBox="0 0 500 800" width="500" height="800" version="1.1" xmlns="http://www.w3.org/2000/svg">
<rect width="500" height="800" fill="hsl(210,80%, 20%)" /><path d="M 250 , 80C 251.3797582727158,126.61699971279003 242.52154320011954,173.39793758806314 225.11606690164032,216.6656829642261,C 207.71059060316185,259.9334283403877 181.67011005023434,299.1235846959646 154.42760085224617,336.97717221037044,C 132.55533481408202,367.3687830049866 109.87479626578063,397.5973377195945 94.41488831158165,431.7006700257395,C 78.95498035738129,465.8040023318846 71.52889012398404,504.84323213167715 81.25266513455742,541.0025217801127,C 85.87392260955274,558.1873483928871 94.2749270471915,574.4003824060546 106.02684160395984,587.7632709639876,C 117.77875616072818,601.1261595219205 132.86355904597164,611.5749651875332 149.59266294233302,617.6422025478205,C 166.32176683869437,623.7094399081077 184.6412694689446,625.3625316634904 202.1706524958495,622.2974024562014,C 219.70003552275443,619.2322732489125 236.3847189313556,611.4585517314856 250,600,C 260.760903983128,611.6972295340216 274.5547430044491,620.5787338290594 289.6541110296693,625.541728745906,C 304.75347905488957,630.5047236627526 321.11834773147353,631.53575962134 336.73309454362874,628.5689574206571,C 352.3478413557839,625.6021552199741 367.16801471248004,618.653866383819 379.545002342714,608.6822862429024,C 391.9219899729479,598.7107061019857 401.8317233297639,585.759701767468 408.5296518613966,571.3458200317651,C 417.6947746586663,551.6225585085734 420.77612916852104,529.3274362586857 418.7409717656305,507.6741534741584,C 416.7058143627399,486.0208706896311 409.7172598393234,465.0267103815236 400.03232738393353,445.5534311421202,C 380.662462473147,406.60687266330314 351.26830461986697,373.7404851103876 324.7143181668564,339.28889752056284,C 296.26839680722924,302.38268183695016 270.8208299307448,262.4226169530209 256.72136734936237,218.0104074493312,C 242.62190476798133,173.5981979456422 239.9383602954755,125.49728128734358 250,80M 250 , 80C 259.08211609581,121.60543099144331 257.2275545043535,165.46333480798492 245.2586411568693,206.33192707688914,C 233.28972780938525,247.2005193457932 211.25771483506884,284.570219135231 184.9017033634054,318.01954468997207,C 155.4855386162635,355.35261658732384 120.59047409412551,388.28279010599107 93.19183324387197,427.1207030942381,C 79.49251281873869,446.5396595883601 67.78990005182588,467.56073764156287 60.59591518192225,490.2105463189596,C 53.40193031201863,512.8603549963564 50.864160776999334,537.1887912040411 55.008687738503305,560.5894353767225,C 58.83485385181597,582.1925646589542 68.44211322201599,602.8590034176942 83.15182325498077,619.1365699636364,C 97.86153328794555,635.4141365095786 117.63358458012611,647.1372500117491 139.07134211579816,651.801721445172,C 160.50909965147042,656.4661928785946 183.45946408377804,653.9994205279694 203.34893457509196,644.7396308172556,C 223.23840506640587,635.4798411065418 239.92334861644554,619.4883513619238 250,600,C 262.6196777680898,616.2249033957294 280.3813084413634,628.3839962270357 300.0674287009017,634.2967304759399,C 319.75354896044,640.209464724844 341.2511344060789,639.8450546594391 360.7719410302752,633.4075189576427,C 380.29274765447127,626.9699832558463 397.72640887256233,614.5270198855796 410.4778072424913,598.4054319742561,C 423.22920561242023,582.2838440629325 431.2765468139129,562.6138611095311 434.2701141934817,542.2781213512842,C 439.9180930928325,503.9105770490685 427.52365154905857,464.74094702207236 408.03839814711375,431.2104680321743,C 388.55314474516723,397.6799890422759 362.60556955241407,368.463460816452 338.44045809638317,338.13170337070403,C 309.24063136773816,301.48043182980024 282.55808658171406,262.16565449437235 266.22612255064297,218.2428524726917,C 249.8941585195731,174.32005045101167 243.94493187347865,126.46807222740196 250,80M 250 , 80C 238.7118994062202,165.10516590882764 197.05610469458108,243.22595412957168 146.43391637692298,312.5635667890506,C 120.62656317633758,347.91210306250844 93.16119022169073,382.51807293617776 74.17386435509852,421.951814228776,C 64.68020142180072,441.66868487507526 57.44363580150283,462.5922282987985 54.23898580956589,484.23974183738176,C 51.03433581762896,505.887255375965 51.95604750647193,528.2652909099041 58.12817923013753,549.2602763578554,C 63.823715935839004,568.6340868350286 74.02241804782932,586.7402243941207 88.07906718283293,601.2383030898244,C 102.13571631783654,615.7363817855281 120.02245838092084,626.540621561148 139.48079456441542,631.9403274551315,C 158.93913074790999,637.3400333491151 179.8920672388439,637.2957485649803 199.29675006501154,631.7062982174731,C 218.7014328911792,626.1168478699659 236.48352560655474,615.0029527341371 250,600,C 260.6330700784474,617.4537883546307 276.61516174086665,631.5957932496954 295.2270898813244,640.0393137308604,C 313.8390180217821,648.4828342120254 334.9887262296762,651.1881274216531 355.14629682565334,647.816294850244,C 375.3038674216303,644.444462278835 394.3665770655893,635.0350804623258 409.51984343848653,621.3210210540605,C 424.67310981138377,607.6069616457951 435.87460873413045,589.6929483837831 442.173610141561,570.2502251051219,C 450.075286735922,545.8606272110164 450.26262005899537,519.3134265468963 444.6867388239661,494.2894674898071,C 439.1108575889368,469.265508432718 427.986972722347,445.73028916538163 414.33047949683373,424.0326125335499,C 387.01749304578425,380.637259269873 350.3056512790612,344.01104057775905 319.8062723664073,302.7927946216671,C 296.1053590085985,270.76230380529927 275.9876680151296,235.76997336127783 263.53935875380415,197.91861628565658,C 251.09104949247873,160.0672592100354 246.2987547530718,119.6734976975042 250,80M 250 , 80C 245.558424723432,159.21491232634423 212.27077854273452,234.27460641027966 168.21900376816868,300.260749387565,C 141.26952956187765,340.6289721717628 110.96759195082225,379.4207571766484 92.46730820984136,424.29399053745465,C 83.21716633934234,446.73060721786413 77.159519595548,470.69117504398065 76.84235348739212,494.957742546366,C 76.52518737923623,519.2243100487514 82.14766550417589,543.7532257600958 94.44594248697204,564.674967464419,C 109.63642923041621,590.5169159303463 135.30090728666056,610.2546569061898 164.48826462899922,617.0851297587107,C 193.67562197133788,623.9156026112315 225.7136791651133,617.5707657295675 250,600,C 259.3764043927481,615.5576500602359 273.37045958865724,628.2907300091417 289.73661116311877,636.1714988405982,C 306.1027627375803,644.0522676720549 324.76977130900565,647.0475809617391 342.7916220861656,644.7737451499694,C 360.8134728633254,642.4999093381997 378.1080988393247,634.9835010211773 392.2257383313977,623.5532914909472,C 406.3433778234707,612.1230819607172 417.24418103164095,596.8585945607844 423.9367791771362,579.9717190417307,C 432.67445598240306,557.9246668613184 434.1960008883388,533.3468782968205 430.0234957327888,510.001435346942,C 425.85099057723875,486.65599239706347 416.1986672760501,464.5350184599447 403.87907521030127,444.27058762331217,C 379.2398910787867,403.741725950031 344.7181960071311,370.31074319405207 315.05990310196154,333.29637186142224,C 286.6558176654596,297.8472862018952 262.4986953975829,258.25866175637134 250.18787761357183,214.53368595226755,C 237.8770598295616,170.80871014816393 237.52598534964633,123.67869849346832 250,80M 250 , 80C 241.39622907475874,160.5909022199815 204.7407717375159,235.8736008784407 157.2599925091015,301.55840885279054,C 127.29059367002458,343.0180108189146 93.58825403517264,382.38458936249526 71.43897279202321,428.49828366664934,C 60.3643321704387,451.55513081873016 52.41926304594908,476.33646164387045 50.36265795143173,501.83226994595947,C 48.3060528569144,527.3280782480485 52.34668733754662,553.5215709517662 63.64975662879699,576.4673001859583,C 71.93737887971636,593.2915389183469 84.08291063934008,608.2543847016309 99.1055216593647,619.4820669931537,C 114.12813267938931,630.7097492846765 131.99436951825498,638.1446941406983 150.57807852209186,640.6716391656347,C 169.1617875259287,643.198584190571 188.40253635077437,640.7983364888656 205.765802257437,633.7091412910407,C 223.12906816409964,626.6199460932158 238.56228076639513,614.8633196235418 250,600,C 277.3639063140401,618.8079167879448 313.85787515244454,623.4674107626147 345.1559875601603,612.3791619207187,C 376.45409996787606,601.2909130788228 401.5369024902229,575.0541185008648 413.09745905196456,543.9273673911105,C 419.95130193227436,525.4734235570584 422.356357672401,505.4945727602383 421.05887152853137,485.8517691170516,C 419.76138538466176,466.2089654738649 414.83631304288974,446.9089828468252 407.7125511033014,428.5575463611875,C 393.4650272241233,391.8546733899107 370.89413149088557,359.0812023389851 348.95111835643166,326.39180045374695,C 323.96662236742407,289.17137747535304 299.7033029288075,251.18050659548211 282.06844131935014,209.9664727898647,C 264.4335797098933,168.75243898424785 253.28407121002547,124.70793892367107 250,80M 250 , 80C 254.0741285898928,126.81452950271685 246.71535043012747,174.46460709068214 229.58884814808764,218.22396741405765,C 212.46234586604854,261.98332773743226 185.57148431527878,301.22838004079654 156.3609230363793,338.0379142146934,C 131.83076750029738,368.94945986680136 105.59474030772135,398.8342588342115 86.02801185272494,433.1037105776398,C 66.46128339772685,467.37316232106764 54.22421491052663,507.36701948100074 60.3871020792885,546.3448466006835,C 63.69018840529202,567.2355629566318 72.26398253601585,587.3759477770889 85.68833812767751,603.7197259844172,C 99.11269371933918,620.0635041917456 117.36176951294804,632.4699855949352 137.62319650158182,638.536861687784,C 157.88462349021577,644.6037377806326 180.03653481775777,644.2605459121874 200.05103321893577,637.4229832696249,C 220.06553162011377,630.5854206270624 237.82053193477407,617.2914130940726 250,600,C 275.87995110466414,617.9837254987177 310.2762570750859,622.9750491967335 340.2693571091935,613.3003294417714,C 370.26245714330105,603.6256096868093 394.9574684028565,579.7645447465519 407.26616270725134,550.75278339854,C 414.99897441398264,532.5264401133145 418.11862786621805,512.4856152781795 417.31156916629885,492.70318310471987,C 416.5045104663796,472.9207509312602 411.85573780375904,453.40937458078065 404.86829607279304,434.88448255683073,C 390.89341261085946,397.83469850892885 368.08100972550693,364.89478731742344 345.9616745513857,332.05093131320746,C 320.46247436311563,294.18848867586746 295.7786005949426,255.42950383330881 278.5035011076294,213.17616419712425,C 261.2284016203169,170.9228245609405 251.2258805977912,125.6319075808496 250,80M 250 , 80C 258.55610098549766,126.28222143327105 254.4668740731824,174.7109646058904 239.12919767971036,219.2082293276854,C 223.79152128623898,263.7054940494797 197.28948274922095,303.5716403209657 167.32183908742942,339.86476939841197,C 139.9123668901803,373.0597554182088 109.4900005746051,404.0288479880861 86.30376522164931,440.2998385059038,C 74.71064754516922,458.43533376481207 65.0434309014665,477.93881700572314 59.2305647517844,498.6633713524993,C 53.4176986021023,519.3879256992756 51.55852564657734,541.3611805521398 55.16721730633688,562.5808391321307,C 58.87133590026444,584.3616226718718 68.45293698045037,605.2372607241736 83.25529183895547,621.6388861559967,C 98.05764669746057,638.0405115878199 118.03975375969634,649.7899511871756 139.66976451443588,654.2916909522875,C 161.2997752691758,658.7934307173989 184.41248610711398,655.9697173701272 204.24786873825633,646.2393205622305,C 224.08325136939868,636.508923754334 240.48743428232783,619.9407652719226 250,600,C 260.68592390582495,616.625759463745 276.28055537350525,630.0511677527254 294.3045396349362,638.1592402000507,C 312.32852389636713,646.267312647376 332.70405587764833,649.0242894882462 352.25062704175315,646.1025771146586,C 371.79719820585785,643.1808647410712 390.4265997076608,634.6121482968041 405.55452709662893,621.8940249925784,C 420.6824544855971,609.1759016883526 432.26858264014476,592.396458624317 439.340250492788,573.9412056797141,C 447.54825794316685,552.5203956495448 449.6863173752404,528.9977683685618 446.91687090055063,506.2260171210641,C 444.1474244258609,483.45426587356644 436.60796033956154,461.43371548567916 426.4561100909793,440.86280337210377,C 406.152409593809,399.72097914494833 376.10078889984993,364.35687435601653 348.43371527801304,327.7587461003147,C 321.14643581839346,291.66301125453555 295.92851393326157,253.62531715590484 278.38744019295433,211.91430630263886,C 260.84636645264754,170.20329544937312 250.91941576737324,125.23994218620132 250,80M 250 , 80C 259.73227146239094,122.81872621056621 257.90379010829366,168.09154954458592 245.54743698816532,210.22800596517015,C 233.19108386803754,252.3644623857538 210.34748148784485,290.72654509207655 184.1007236855456,325.92978538299974,C 157.80883621560514,361.1935554561602 127.89890641560544,394.1917219343454 107.49906717343205,433.1614972146601,C 97.29914755233875,452.64638485482004 89.65709799788468,473.65469484149315 86.91104164744706,495.47574846286176,C 84.16498529700945,517.2968020842304 86.480622948723,539.9224551787242 94.99901043839871,560.1989509608401,C 101.03718191277011,574.5717367234154 110.15495361611289,587.6780094532278 121.74770794422018,598.1012782504406,C 133.34046227232747,608.5245470476535 147.38920456865438,616.2256213047021 162.45461591197358,620.2343450900722,C 192.5854385986119,628.2517926608123 226.50051059339634,620.491948149264 250,600,C 262.5005418439695,616.1776240010792 280.18375950136027,628.281953663927 299.78316080665616,634.0993872206673,C 319.38256211195204,639.9168207774076 340.7811036599216,639.4160791065701 360.1353846325639,632.8289042383024,C 379.489665605206,626.2417293700348 396.68657681878847,613.639325501363 409.1248730189998,597.4137946210213,C 421.5631692192111,581.1882637406796 429.2229185192159,561.4741204869133 431.8049758831153,541.1932910047977,C 436.6777544002675,502.9199390676261 423.4553630998184,464.227870331805 403.37504579199924,431.2828510451037,C 383.2947284841783,398.33783175840216 356.945922812342,369.7620444573878 332.60100511946024,339.83014806723696,C 302.89632062572946,303.30845800506415 276.09744546489924,263.6561205808115 260.6286814699556,219.19355805526382,C 245.15991747501351,174.73099552971678 241.10938994453193,126.22941897440424 250,80M 250 , 80C 248.07173672632658,119.89475193698311 239.11902292597495,159.39566787015937 224.10284719423012,196.40679994902683,C 209.08667146248536,233.4179320278942 187.94968056947363,267.67013240385205 164.5041778942119,300.0061469336345,C 137.71163885887216,336.95839076206994 107.67048647759927,371.8557299427669 85.88076967975942,411.9620475721166,C 74.98591128083612,432.0152063867915 66.29997140193863,453.41554862933305 61.91709029011066,475.81236695557624,C 57.53420917828268,498.20918528181943 57.5726039130098,521.6197522707715 63.45136391657377,543.6712215823538,C 68.53897198029212,562.7550475964064 78.02194993130561,580.7205865924507 91.34366610065351,595.3016719240703,C 104.6653822700014,609.88275725569 121.8016878509163,620.99739532259 140.63883305316014,626.9335667970525,C 159.47597825540393,632.869738271515 179.94241482089603,633.5877308247486 199.123831454263,628.8814130409786,C 218.30524808763,624.1750952572087 236.13078335350025,614.061329978245 250,600,C 260.5639812781204,612.1395819067529 274.31952816894636,621.4752784783349 289.4994137683006,626.8173962705367,C 304.67929936765483,632.1595140627387 321.24136633059175,633.4930173830518 337.0915440956559,630.7111090216731,C 352.94172186072,627.9292006602944 368.03286046424836,621.0484540887893 380.6367918724963,611.0430524291145,C 393.24072328074425,601.0376507694398 403.33169998977075,587.9534955609771 410.1188976428933,573.3623647846223,C 420.0041896209316,552.110944775121 422.7676458124991,527.8886414213908 419.6786821174352,504.6550417605144,C 416.5897184223712,481.42144209963794 407.87386859298846,459.1883746162272 396.34939872408927,438.77934612018805,C 373.3004589862752,397.96128912808734 339.87111803563386,364.16224520613093 311.27272758060553,327.0206315762749,C 284.3568076887757,292.0640944702211 261.49399867969856,253.3097010881339 249.90150898955542,210.74163309281323,C 238.309019299413,168.17356509749274 238.06988823376145,122.47468261582827 250,80M 250 , 80C 255.8514086363484,126.78360434035685 249.6502249248466,174.89571780610112 233.0375518071463,219.02012953010063,C 216.42487868944679,263.1445412540991 189.43619795306012,302.6051161984865 159.8699371613001,339.3308679388948,C 135.23007879307366,369.93728542684744 108.73557559031036,399.3523492617457 88.72641889973475,433.16816006653204,C 68.71726220915738,466.9839708713178 55.81421641954252,506.56491738120855 61.24632344475876,545.479794036798,C 64.18086826075822,566.5024743751582 72.4655722039431,586.8646717139338 85.72654752560082,603.439084988749,C 98.98752284725855,620.0134982635642 117.20030984665252,632.6521225315396 137.49948079988997,638.8576281916149,C 157.79865175312761,645.0631338516899 180.0566719677981,644.7602901790044 200.12834347224694,637.8543040145607,C 220.20001497669577,630.9483178501171 237.95665550070666,617.479201788335 250,600,C 262.7455029109841,616.1418457731016 280.54275539020273,628.231089881335 300.2402655415315,634.1484476747089,C 319.9377756928603,640.0658054680828 341.42755611051757,639.781639711307 361.00593937862374,633.4813271775,C 380.58432264672973,627.1810146436933 398.1449498187295,614.9283257194613 411.12261270146286,598.9725338081014,C 424.1002755841962,583.0167418967415 432.47174092200817,563.4825118347477 435.8413145453785,543.1932781623493,C 442.25513599960226,504.57369694434635 430.44585916024437,464.79944769098495 411.29696270255437,430.65374629896115,C 392.1480662448627,396.508044906937 366.33081355367085,366.6749218620422 342.18229706159775,335.8616404669563,C 313.4804538314473,299.2383567013206 287.0419975390493,260.2657218136665 270.18892482075455,216.89482536756705,C 253.33585210246082,173.52392892146818 246.0630598754956,126.363360760868 250,80M 250 , 80C 255.64140939172398,126.6385932545569 249.49377620794732,174.51918140880335 233.2491768107538,218.59975389956998,C 217.0045774135613,262.6803263903349 190.65158993156524,302.2702862476988 162.44115476555046,339.835632358615,C 139.94632861268275,369.79000651713056 116.22685877655054,399.21689080750264 99.5248453063851,432.7478389139684,C 82.82283183621799,466.27878702043415 73.93035253635189,505.09970367892134 82.6656698809902,541.527384990866,C 86.82644282510665,558.8784788137643 94.9018735132731,575.3386531856858 106.48213743293653,588.9132609477705,C 118.06240135259996,602.4878687098552 133.1292309045873,613.1055713601917 149.90104982614713,619.194789569939,C 166.67286874770696,625.2840077796861 185.08979684183896,626.8080216665383 202.6164298573277,623.4629322082592,C 220.14306287281642,620.1178427499801 236.71828272542916,611.9150524372272 250,600,C 273.0891646289996,620.797194232788 305.8409031692465,630.3208904359967 336.5104438976839,625.3196823091462,C 367.1799846261213,620.3184741822955 394.94342740695345,601.0627134940523 411.53447830577915,574.7878235552927,C 425.0797134872136,553.3365263615752 431.378269247443,527.6925288548026 431.13491370713785,502.3238015415422,C 430.89155816683274,476.95507422828183 424.3471040130961,451.9167900610016 414.3593740770525,428.59562374929635,C 394.3839142049552,381.9532911258565 361.74419068445627,342.1025863153348 333.0757996547207,300.2379288412368,C 288.1455429133536,234.62595198667833 254.53975428784835,159.3917508851785 250,80M 250 , 80C 235.26974687086087,164.77904720030818 193.38798529829177,242.15339305519842 145.94045080038387,313.9391762682444,C 123.35067994623951,348.11638717136293 100.20552300702474,382.4466734012817 85.69222122300421,420.7578149097899,C 78.43557033099295,439.91338566404426 73.46096282701946,460.03090693258713 72.2403412935636,480.4785218585837,C 71.01971976010773,500.92613678458025 73.63029724516515,521.6968628698475 80.83782664895513,540.8709702280344,C 92.9398574756947,573.0658632800065 118.87166344074555,600.2023578623297 151.23333238419067,611.851077618343,C 183.59500132763577,623.4997973743563 221.36819738446073,619.0575488388216 250,600,C 262.30736029859116,616.4840386371069 279.97446412484726,628.8944756833638 299.6500886428089,634.8998438766688,C 319.32571316077053,640.9052120699739 340.88642099076424,640.4716902034103 360.35363686519855,633.8217162630744,C 379.8208527396327,627.1717423227389 397.07561864834344,614.3801229653927 409.42888688758524,597.9304600169216,C 421.78215512682704,581.4807970684506 429.21401227878,561.5142207352748 431.43181077410503,541.0624233291029,C 433.7339614197916,519.8327585496736 430.5126261878895,498.1902826697607 423.4909308523763,478.0236181250817,C 416.46923551686314,457.85695358040283 405.7490858333041,439.12641678199117 393.3425970454876,421.7460370335461,C 368.52961946984857,386.9852775366552 337.3530094000634,357.29078627146146 310.43224898324354,324.13559187374995,C 282.83643246255525,290.149008763135 259.6873355074942,251.83665243849242 248.22946073618013,209.58343922691387,C 236.7715859648667,167.33022601533543 237.1285093888176,121.84425468836137 250,80M 250 , 80C 258.5081270282878,125.65944240103104 254.74699278996542,173.40318298917714 240.17918865817384,217.50479280877795,C 225.6113845263833,261.6064026283772 200.26303914938515,301.333154077806 172.47663280307754,338.54993158822816,C 148.15844669820015,371.1214167397259 121.83458086547444,402.732609700924 104.40162106966469,439.45273678626194,C 95.68514117175701,457.8128003289319 89.34207845840157,477.4369992386762 87.22838242586154,497.65088664767137,C 85.1146863933215,517.8647740566665 87.34695128399741,538.6597986803916 94.84919256273757,557.5485607069797,C 100.6444431522447,572.1395482802286 109.56511721622992,585.5183939643294 121.0409134893319,596.2323077056353,C 132.5167097624339,606.9462214469412 146.52899019147924,614.9537369536562 161.6335390270172,619.2356118038512,C 176.73808786255515,623.5174866540461 192.8963125075939,624.0554274169413 208.23894547049588,620.7259437447246,C 223.58157843339785,617.396460072508 238.07194466107305,610.2080038983819 250,600,C 262.71909391318167,611.6287987662562 278.65412140838686,619.7010512596447 295.5518694324439,623.0878524693252,C 312.4496174565009,626.4746536790058 330.2516472199534,625.1645394166036 346.50136885410785,619.4242556665693,C 362.75109048826226,613.6839719165349 377.39089418755367,603.5476051164559 388.66818478392725,590.5158351858839,C 399.9454753803008,577.484065255312 407.84149840652566,561.6244576592378 411.9108945612303,544.8779856231794,C 416.7703431299347,524.8802718413959 416.19031346961066,503.74727174898754 411.5327146970043,483.7015846676369,C 406.8751159243979,463.6558975862863 398.2535631729812,444.6806730246097 387.6391038975711,427.049562702776,C 366.4101853467452,391.78734205910547 337.70775137220915,361.7376925575147 312.316690367121,329.34347689180686,C 284.76044816528866,294.1868974702578 260.9997937805662,255.27883191292514 249.06962185958503,212.2323156909872,C 237.13944993860494,169.18579946904958 237.15614484464996,122.78278796032428 250,80M 250 , 80C 259.4351581924906,125.12010946036355 256.4728432391364,172.62586442119715 242.46918117134578,216.54333174939848,C 228.46551910355615,260.4607990775985 203.46541557379507,300.04802501989275 175.73835002510893,336.8726950644597,C 150.96223530896074,369.77816960183674 123.85780286651827,401.447944734996 105.69682016920083,438.4182682719281,C 96.61632882053878,456.90343004039534 89.92720547835583,476.7091852321724 87.57548938023369,497.16953616106315,C 85.22377328211155,517.629887089954 87.33438437046671,538.7373572428874 94.88910222474907,557.8967613798045,C 100.65257372070589,572.513413087056 109.5632205121344,585.9184299654905 121.0447810823811,596.644001171145,C 132.52634165262782,607.3695723767994 146.5599115248125,615.3735855175169 161.6847481201126,619.6283979436148,C 176.80958471541265,623.8832103697127 192.9864317470565,624.3702930942294 208.3262810850232,620.971303081845,C 223.6661304229899,617.5723130694607 238.13168364918337,610.2959787204882 250,600,C 261.8982348881376,616.8703568456647 278.8455949768011,630.1281129498481 298.0782603647325,637.630213697587,C 317.31092575266393,645.132314445326 338.7407705161037,646.8459969166457 358.94625287510405,642.6133362648234,C 379.1517352341043,638.3806756130011 398.0374821441008,628.2434953681831 412.9621319027466,613.9805446519003,C 427.8867816613924,599.7175939356177 438.8137626255576,581.4298955013721 444.9266231930991,561.7116331733893,C 451.6302526121502,540.0877269884005 452.58609834293605,516.8744853744818 449.04477743178495,494.5140065717055,C 445.50345652063385,472.1535277689293 437.58022969169156,450.6369049005527 427.2801843077355,430.47652218658595,C 406.6800935398189,390.15575675865 377.18632460582086,355.2084709214996 349.97589749584586,319.01840984343875,C 323.62423525473105,283.970512132752 299.20046960690024,247.16770562535012 281.55665933076943,207.02469632424692,C 263.91284905463885,166.88168702314383 252.97633362672087,123.74821910605039 250,80M 250 , 80C 257.1440575365412,120.91354606085068 254.24893362402287,163.47181297372998 242.1596030432209,203.20597831625165,C 230.0702724624191,242.9401436587732 208.8099071649318,279.41941479092145 183.46877338015236,312.32507916440983,C 153.78895768119364,350.86455661444853 118.3729470727582,384.9090174283174 90.91590148672904,425.0623912558417,C 77.18737869370636,445.1390781696026 65.58528071189758,466.8760218218198 58.75935385412401,490.22023776590424,C 51.93342699635041,513.5644537099888 50.04775569852414,538.5638632658489 55.13817697277798,562.3469098907527,C 59.65241361955503,583.4379541996005 69.71414617145543,603.4204938858718 84.56274043695998,619.0643339157145,C 99.41133470246452,634.7081739455572 119.00555283299653,645.8666389769052 140.1227587689571,650.2568663057702,C 161.23996470491784,654.6470936346351 183.74305212116508,652.2067493895091 203.3672193483774,643.2567469772586,C 222.99138657558973,634.3067445650079 239.60923577406905,618.9008598043052 250,600,C 275.8872352917353,616.5193065536046 309.1202328379714,620.9208786585763 338.471303365816,611.8903139513657,C 367.8223738936606,602.8597492441551 392.57775558546336,580.7514191621117 406.1838287061902,553.2212318344697,C 415.38325882543336,534.6073355072106 419.71552111450626,513.7498195192081 419.7725834264419,492.98678999812563,C 419.8296457383775,472.22376047704313 415.70760510804365,451.57671208259893 408.9993709619482,431.9271256838488,C 395.5829026697555,392.6279528863454 372.409435417631,357.52382551510885 349.81970099466633,322.67945003349973,C 325.7817720553935,285.6012530933531 302.2582785019636,247.9643321870156 284.6020839240945,207.45663527580803,C 266.94588934622567,166.94893836460088 255.0007077118943,123.90452867759757 250,80M 250 , 80C 237.58868111929692,160.0023936034451 200.49819886165224,234.0239762393631 156.42146037716816,301.9332167240678,C 132.28045131757517,339.12738412709456 106.68389295468795,375.97499261181287 91.05666408747183,417.4717891767452,C 83.24304965386123,438.2201874592126 78.08890828375799,460.10340931625825 77.44293922406385,482.26489224901667,C 76.7969701643697,504.4263751817751 80.77391061358915,526.8476074812914 90.14695303448215,546.9397621089357,C 103.53114218602332,575.6302540455679 128.4192572312637,599.0496124349514 158.39056995099614,609.2477132711948,C 188.36188267072853,619.4458141074383 222.70843129452868,616.0452835563825 250,600,C 260.7912486097667,612.4426862875478 274.74431687067676,622.1193930467051 290.17710221688804,627.8727073146629,C 305.6098875630993,633.6260215826206 322.48480775746503,635.4415213938116 338.79655848758387,633.1615484276151,C 355.1083092177027,630.8815754614186 370.81374488972284,624.5191880083954 384.20899381175514,614.9359320416108,C 397.6042427337874,605.3526760748263 408.66331101389045,592.5885513173841 416.5243326195519,578.1152715258703,C 428.8171058080749,555.4824949357412 433.10017469348264,528.9366921066328 430.61147937753435,503.3015356907351,C 428.122784061586,477.6663792748374 419.149744398519,452.96869217582434 406.9891683577244,430.26461238387475,C 382.6680162761112,384.8564527999336 346.6425532119275,346.9757723445065 316.7131565873373,305.0514284251845,C 293.42807360503195,272.4342714746124 273.57916590737796,237.02785267461485 261.59208023575076,198.78672567589558,C 249.60499456412376,160.54559867717637 245.45935735518145,119.81779227183686 250,80M 250 , 80C 250.28438049378335,119.84636684188288 242.90281713471413,159.68610928976557 228.80212244000475,196.9551880533967,C 214.70142774529543,234.22426681702783 193.8444645608168,268.63345166696064 170.15787000564416,300.6765329972886,C 142.1808557082947,338.5236681108477 110.02512297826854,373.46355399485515 86.02473659381957,413.94935914549103,C 74.02454340159034,434.1922617208087 64.21022605231343,455.89816455355873 58.88801131124564,478.82094299716346,C 53.565796570177845,501.7437214407681 52.869907846890364,525.9111135254533 58.44853698745199,548.7728422054264,C 63.32358510100641,568.7512319613348 73.02426614636556,587.6148037880398 86.9355874284749,602.7600106712221,C 100.84690871058424,617.9052175544043 118.9398742313915,629.2293694629593 138.73618360051512,634.7978779446271,C 158.53249296963872,640.3663864262948 179.94072744707242,640.1310991362947 199.57364428075158,634.0113991477091,C 219.20656111443077,627.8916991591235 236.97496015739137,615.913845809449 250,600,C 261.73735776008203,617.8931476498234 279.2376903067784,631.9371610964997 299.24116045545884,639.539231999707,C 319.2446306041393,647.1413029029143 341.6309500773181,648.259325225812 362.3298827530445,642.8293633389948,C 383.0288154287707,637.3994014521778 401.91645217336634,625.4859528013345 416.0378168467603,609.4074777564942,C 430.1591815201542,593.329002711654 439.48160730036557,573.2236841749091 443.41133588113087,552.1882965319859,C 447.8098608925333,528.6434952129265 445.53123276804445,504.10602326935873 438.57628792753326,481.18586982974665,C 431.6213430870221,458.2657163901346 420.1378227433611,436.91492686869026 406.64470938734394,417.12501571700534,C 379.65848267529657,377.5451934136324 345.14024923014364,343.69206412858944 316.2314570295347,305.49389009863603,C 291.92020462692767,273.37060235568737 271.48446088459855,237.9389350608654 259.5358709445218,199.4659080517589,C 247.58728100444515,160.99288104265244 244.1333604310696,119.85630626347348 250,80M 250 , 80C 234.39000647632653,163.76082770239967 193.45338825099483,240.46972071504854 146.7800054900827,311.75186081236603,C 121.10751029281917,350.9602980639213 94.36336937579593,390.3630729062305 80.02881567356343,434.98256563665586,C 72.86153882244315,457.2923120018722 69.01831945419451,480.8375932850722 70.5611654585825,504.21951507408755,C 72.10401146297048,527.6014368631029 79.1867328616573,550.7661662847875 92.15304397493966,570.2846041437571,C 108.76252118110956,595.2871700922498 135.28905275106982,613.7526035171409 164.75254172413278,619.4889660061406,C 194.21603069719575,625.2253284951404 225.99015037183293,618.014720589113 250,600,C 262.5549914183936,616.2581526000264 279.8723335270618,628.7897350788046 299.23560610266316,635.6467760327911,C 318.5988786782645,642.5038169867777 339.92604264729613,643.6584454951605 359.94259419029936,639.0440116395313,C 379.9591457333025,634.429577783902 398.57751973408585,624.0861704783208 413.2927598970783,609.7537930611883,C 428.0080000600708,595.4214156440557 438.78643350353633,577.1939840184143 444.851616023841,557.5682637392229,C 451.8722250377547,534.8509739898424 452.6046154219156,510.41676746093697 448.4918573541409,486.99777035261684,C 444.3790992863662,463.57877324429666 435.55875339865105,441.16033011872184 424.3031744726321,420.2157330224845,C 401.79201662058694,378.3265388300057 370.20920806144676,342.15613232204765 341.9135694065629,303.93554034537704,C 293.2132030865983,238.15307637866073 256.2663042384212,161.60754668792964 250,80M 250 , 80C 235.55766549801103,164.9885621480056 194.0048568190639,242.807260745006 145.83022056444435,314.2974079233959,C 119.18052726448896,353.844992386788 91.16750722198702,393.3983770747565 75.81724223363241,438.5490908527038,C 68.14210973945016,461.12444774168165 63.86787854437394,485.0363261462634 65.18659434194512,508.844211103,C 66.50531013951631,532.6520960597367 73.58525397298811,556.3003720191052 86.80233793401135,576.1463562233525,C 104.09886455430956,602.1177879784175 132.23571432168868,620.913688554838 163.08064025204627,625.6333966904576,C 193.92556618240383,630.3531048260771 226.6951713796941,620.7501822525213 250,600,C 260.1130606618397,620.0892212351525 277.3393109398593,636.5017550562234 297.88421228181454,645.6536857068717,C 318.42911362376987,654.80561635752 342.11823518865026,656.6271249445841 363.868680098476,650.9027077681732,C 385.61912500830147,645.1782905917628 405.25278447844573,632.0050733899334 419.2005052918853,614.3610406905962,C 433.14822610532485,596.7170079912589 441.38018116467924,574.8019427011136 443.5043893090632,552.411352142929,C 445.6378900847835,529.9228109653457 441.74397141770754,507.07695825406495 433.7962979143617,485.93172721394444,C 425.84862441101575,464.78649617382393 413.962278612811,445.2900274807581 400.35983117059186,427.2550688326899,C 373.15493628614524,391.1851515365535 339.46338822575643,360.5120089757392 310.7976189266298,325.5918298537307,C 282.8527974405478,291.5498977623928 259.6746838024858,252.91202685615414 248.21470099036029,210.38632895069892,C 236.7547181782352,167.86063104524376 237.13381179146253,122.12157866679178 250,80M 250 , 80C 242.6446113292136,159.22133174814104 208.27178619962856,233.60285050511607 164.4479603140371,300.007620147038,C 138.03421403508887,340.0314816330889 108.82516263001692,378.90940122573824 91.3412237381923,423.5625910509924,C 82.59925429227316,445.88918596362464 77.02085323527514,469.64701871789686 77.00258815871898,493.6240605824209,C 76.98432308216282,517.6011024469449 82.70786410103082,541.7544955296386 94.85199918876216,562.4286062277337,C 109.98171845426155,588.1853594807425 135.35952076299026,607.979335846861 164.34606935931922,615.1972817916476,C 193.33261795564817,622.4152277364342 225.29907498739175,616.798304876109 250,600,C 262.40814876936855,616.6807009960617 279.8458681670139,629.5655350054234 299.4294730410995,636.54338293573,C 319.01307791518514,643.5212308660366 340.6498444320259,644.5608720170579 360.8427884538126,639.6158792631924,C 381.03573247559916,634.6708865093269 399.68727715354845,623.7887353214619 414.18072087516003,608.884104138797,C 428.6741645967716,593.9794729561322 438.97642867173136,575.1591705598132 444.3869023361765,555.0859367314254,C 450.0845191594689,533.947381800443 450.41291638766785,511.52961964538173 446.59804823534216,489.97160204135344,C 442.7831800830165,468.41358443732514 434.9235033663379,447.7039661887218 424.8609469482935,428.26055341295387,C 404.7358341122012,389.3737278614165 376.3438104476633,355.5109651145059 349.99265195098917,320.54209590167176,C 323.4438215664305,285.3109094781745 298.782035724049,248.33449677631097 281.08882440802404,207.9237659623085,C 263.39561309199934,167.5130351483062 252.59840429537897,124.03777000159086 250,80M 250 , 80C 260.15214564414765,124.19562190423432 258.0473762605294,171.00786580750395 244.86172232856134,214.39516333879067,C 231.67606839659405,257.7824608700765 207.46708959741764,297.03075038497946 180.0613223231997,333.158896985564,C 153.8019018366021,367.77585127454927 124.39722575510143,400.53070780468346 104.70843731348936,439.2636691972633,C 94.86404309267739,458.6301498935558 87.6322160013026,479.50404362522664 85.28136194577928,501.1014082177934,C 82.93050789025598,522.6987728103602 85.62217995670052,545.0065458659167 94.39516799714559,564.8813377636155,C 100.69555861136584,579.1545764542983 110.09539664607472,592.087399133312 121.9395753858176,602.2429736908633,C 133.7837541255605,612.3985482484146 148.05161199134545,619.7366640423411 163.24014120746003,623.3044147152713,C 178.42867042357457,626.8721653882014 194.4985315812877,626.6532729386663 209.5688337077716,622.6151720942776,C 224.6391358342555,618.5770712498888 238.67354232401473,610.7299404065014 250,600,C 260.2521163515779,612.8937617563696 273.98763156147095,622.9887674323711 289.3509642671385,628.9320821717464,C 304.7142969728061,634.8753969111217 321.6581967656809,636.6487405857783 337.93013370951456,634.0837746966852,C 354.2020706533482,631.518808807592 369.74863403175755,624.6336508081378 382.7021837051032,614.4571812446558,C 395.6557333784489,604.2807116811738 405.98760777955977,590.8646584474944 412.85937663897715,575.8935604697558,C 422.2303528291097,555.4775939901406 425.0934096266988,532.36159268908 422.5484718929108,510.0423146097167,C 420.0035341591228,487.7230365303534 412.2361155541781,466.21443946737054 401.71741671945506,446.3654128696454,C 380.6800190499994,406.6673596741819 349.4425752761282,373.51732484561876 321.68528585095277,338.1897094154809,C 293.0253354102301,301.7132476144791 267.8053969549815,261.7701669330115 254.24402466292793,217.40786078983476,C 240.6826523708756,173.04555464665845 238.8730787021319,125.03461609934732 250,80M 250 , 80C 249.32585737431813,119.6851169992591 241.65631319161218,159.19466603076825 227.90938219864094,196.42885553180523,C 214.1624512056698,233.6630450328421 194.26458178350333,268.3447493916688 172.21247279025778,301.345771625452,C 146.2457360503746,340.2050415825409 116.9586672532818,377.37738745625785 98.27683086223671,420.21782708489064,C 88.93591266670752,441.6380468992108 82.45319371415493,464.48937735256237 81.19892286425458,487.8240162883688,C 79.94465201435425,511.1586552241752 84.08952556461662,534.9522816953934 94.56302256660166,555.8420981182051,C 108.23527159024934,583.1119557537871 133.10415281187053,604.8385807897979 162.38740855554337,613.3864730376094,C 191.67066429921618,621.934365285421 224.64310539408606,616.9588745137794 250,600,C 260.8978977686384,613.6169447282567 275.33937298188846,624.3712017058177 291.5048139642872,630.9182527482852,C 307.67025494668604,637.4653037907526 325.51659562511804,639.7874137858319 342.8274468880534,637.6614344678178,C 360.13829815098865,635.5354551498036 376.8636979618463,628.9759217940738 391.1110563005428,618.9161931756236,C 405.35841463923936,608.8564645571734 417.0979805902604,595.342646527655 425.3850077995294,579.9962938814747,C 437.8586846299598,556.8968833690818 442.34465049639664,529.9066265936651 440.06701492833787,503.7534670157255,C 437.7893793602791,477.60030743778583 429.02234442802717,452.3097502564719 416.996444485248,428.9740884862043,C 392.94464459966775,382.3027649456343 356.9305382683983,343.07461284927126 326.4615300866484,300.3155078634905,C 303.4988342430287,268.09049034808174 283.40428337344827,233.56821830749962 269.9136941214191,196.3695468808475,C 256.42310486939,159.17087545419542 249.49396922554465,119.56616088440083 250,80M 250 , 80C 249.6664742508602,126.30593990951122 239.83716950850572,172.43574380605952 222.02233330365428,215.17896457056108,C 204.20749709880323,257.9221853350621 178.33583455559668,296.808519202746 150.6383978992711,333.9192092124639,C 123.46687230322576,370.32525198088945 94.27496021634798,405.9098845162772 75.55131010722735,447.2996982373391,C 66.18948505266295,467.9946050978715 59.63446640116518,490.1237938532748 58.034990608867716,512.7813448133462,C 56.435514816570254,535.4388957734176 59.93769717287654,558.6099730908397 69.47884297063844,579.2228204240984,C 77.21253672153799,595.9308188121752 88.89605646161593,610.8534194234376 103.5464870956753,622.0038504198293,C 118.19691772973468,633.154281416221 135.77809200935044,640.4667251805571 154.04573535212967,642.7602891909331,C 172.31337869490883,645.0538532013092 191.1988465287646,642.3067979086497 208.02125265132082,634.8252284599005,C 224.84365877387708,627.3436590111512 239.5436291646273,615.1535981905897 250,600,C 273.67467951210097,618.8685312521151 305.9894577123139,626.342873974932 335.5830032417019,619.9605558527466,C 365.17654877108987,613.5782377305611 391.27742090948317,593.6403649851061 406.43245953672545,567.4327949752877,C 417.32107855879747,548.6031336098439 422.7796078810405,526.8492767804196 423.315324233406,505.10459514708856,C 423.8510405857715,483.35991351375753 419.59291167048184,461.6602815644163 412.4078834664029,441.12997369892867,C 398.0378270582424,400.06935796794687 372.6976918954126,363.91686155650643 348.4036147660177,327.8298763428304,C 323.2542379449441,290.4724091444923 299.00351570437215,252.21768581288285 281.473656113482,210.7354542831431,C 263.9437965225923,169.2532227534038 252.99875721970432,124.93416256146847 250,80M 250 , 80C 243.19873883274082,159.18700654591407 209.06823180563362,233.65335795626373 165.31163158305034,300.0024280034689,C 139.07542366084726,339.78495197352987 110.028989660044,378.38757521239836 92.49451634112431,422.699312540037,C 83.72727968165788,444.855181203861 78.06441149082906,468.4283605681613 77.87631507566586,492.25505934558976,C 77.68821866050266,516.0817581230183 83.15214078430233,540.122561027547 94.9837971106829,560.8048931848771,C 109.84861581178407,586.7893461941359 135.0646407160013,606.9121005384359 164.03845973107173,614.4402108517169,C 193.01227874614213,621.9683211649979 225.10965582727025,616.6320594085652 250,600,C 262.2807490812098,610.4254018221345 277.2498018666177,617.654891199265 293.0488126316018,620.8008505118624,C 308.8478233965859,623.9468098244599 325.434780576308,623.0005181634623 340.794921363435,618.1454305073802,C 356.1550621505619,613.2903428512981 370.24529404641396,604.5490225402668 381.55663163463163,593.0790860489877,C 392.8679692228493,581.6091495577086 401.38200148076476,567.4587797677648 406.57906870177055,552.2109506288693,C 412.9643256783915,533.4770564444849 414.33387923797363,513.1993863261636 411.66870838091296,493.58747254214245,C 409.0035375238523,473.9755587581214 402.4057993630989,455.03100025564027 393.6181948596824,437.29661825172667,C 376.04298585284624,401.8278542438965 350.2445130723199,371.2330775398553 326.3605216336852,339.66606715185134,C 298.19870524383595,302.44513811209765 272.55074425038293,262.57974029791296 258.10810663522864,218.19623345499556,C 243.66546902007613,173.81272661207925 240.47871527050575,125.69278496718837 250,80M 250 , 80C 246.56214444564964,124.8568186629498 234.9187228769391,169.00370794736 216.43569261118682,210.0199318541097,C 197.95266234543482,251.03615576085906 172.5446164609663,288.54052248889735 145.513412545223,324.50254476572167,C 119.4181668030024,359.2193783786847 91.63696429013964,393.14480030176344 72.28641189716743,432.0263705959771,C 62.61113570067961,451.46715574308394 55.179751592441775,472.1464422209948 51.77689773527891,493.5934858923516,C 48.374043878116055,515.0405295637084 49.095107285254116,537.2633036170096 55.08709277363292,558.1355628747266,C 60.816073408483675,578.091680813418 71.41245041221212,596.7152764381005 86.12667460946824,611.363125036797,C 100.84089880672437,626.0109736354935 119.63819238898105,636.5778365334901 139.8792446462658,641.2003537930925,C 160.12029690355052,645.8228710526947 181.70761889741343,644.4556560908042 201.16033505572403,637.1989559894046,C 220.6130512140346,629.9422558880049 237.83971528357748,616.8284086565841 250,600,C 262.2554910396575,616.4728395482587 279.35602010284293,629.2920814659774 298.59953294370365,636.4502039118028,C 317.8430457845644,643.6083263576281 339.1468349579577,645.0758212124407 359.214838185511,640.7368409330765,C 379.28284141306415,636.3978606537122 398.02585778082226,626.291826340934 412.89947720187934,612.1381360545334,C 427.77309662293635,597.9844457681329 438.7422032220069,579.8777459844889 444.9974063879439,560.3220834603337,C 452.04695783997926,538.2830472395141 453.14125040977405,514.5444813882149 449.57320422204083,491.68219061017396,C 446.0051580343076,468.81989983213305 437.8986977857541,446.82478102876746 427.3550142234433,426.22754747289036,C 406.2676470988162,385.03308036113293 376.0773819050415,349.3494872736025 348.4316947449668,312.2364551377375,C 322.96517745728255,278.04885585637544 299.43597713241957,242.15562197915304 282.1598311569386,203.1829363182856,C 264.8836851814578,164.21025065741827 253.78768216684378,122.46161691680935 250,80M 250 , 80C 236.30611533727162,163.14514083151408 195.69606133843,239.30321997253358 148.30880148769583,308.981656557229,C 124.68273068476705,343.7215356169778 100.03859958942888,378.2636117872404 83.93423403451989,417.0669599513466,C 75.88205125706409,436.46863403339995 70.0946097559,456.91537295782507 68.15682705904692,477.8320553641617,C 66.21904436219386,498.74873777049834 68.21440314337806,520.1328443199169 75.03769548194118,540.0000355237655,C 80.87552504691838,556.997882080533 90.24977146912332,572.8178333485282 102.6649816064428,585.8128169515703,C 115.08019174376227,598.8078005546124 130.5187548603446,608.9290912736909 147.46011513425924,614.9288707418514,C 181.3428356820885,626.9284296781723 221.0132094561801,621.2554496625511 250,600,C 264.34661146699386,611.0103779280171 281.4901304667111,618.343252132783 299.35967213342786,621.1241087137879,C 317.22921380014463,623.9049652947928 335.77920125423714,622.1261754655634 352.82228102938114,616.0774471297293,C 369.8653608045251,610.0287187938952 385.3557205711941,599.736351080779 397.70124926503036,586.5211475646651,C 410.04677795886664,573.3059440485512 419.2292970645551,557.2211209557031 424.75543294809023,540.0014953819762,C 431.4153579968487,519.2489445751108 432.76465696898765,496.9615873472275 429.9065148763832,475.35478308502604,C 427.04837278377875,453.7479788228245 420.0847908278398,432.81835742243516 410.8524246797422,413.0753489902314,C 392.3876923835434,373.5893321258214 365.4171162114313,338.82318221018073 340.5600234400088,303.0151271730853,C 294.24884078104634,236.30123618291276 257.6325456371673,160.85303418806853 250,80M 250 , 80C 250.93645163347196,119.8546426964505 244.29187567937387,159.82511871769788 230.97524744032825,197.40086752549436,C 217.65861920128273,234.97661633329082 197.61830134940428,269.8639626036253 174.89384846148027,302.61863749238097,C 146.0823377603708,344.1471033578998 112.4852712938049,382.9086054456868 91.04471514121163,428.67998490808895,C 80.32443706489947,451.56567463930054 72.91243143712012,476.25614358505146 71.80263921725933,501.50386660586025,C 70.69284699739853,526.7515896266691 76.139773153678,552.5115954588659 89.04082503931265,574.2427255894162,C 104.9825667765241,601.0957347292692 132.6676713320087,621.0093295221036 163.46756238237168,626.1658730123451,C 194.2674534327346,631.3224165025865 227.26632642799245,621.4103553310631 250,600,C 261.51250575783365,610.5821147168105 275.70537364318295,618.2230767480535 290.8757833246308,622.0148587566773,C 306.04619300607857,625.8066407653012 322.15702233341955,625.739542066862 337.31042784888893,621.8803657314725,C 352.4638333643583,618.021189396083 366.6201621252392,610.3872687803125 378.2820913526474,599.9700547862155,C 389.9440205800556,589.5528407921186 399.09146648997546,576.393637763855 405.0958051501677,561.9552563463412,C 413.65247580450966,541.379389200386 415.74512208488386,518.393166255178 412.6077942390627,496.3309792492914,C 409.4704663932415,474.26879224340473 401.28437860845355,453.1362051364291 390.5283446516733,433.61978499810795,C 369.0162767381021,394.58694472145214 337.9622615529129,361.8276563750603 311.0251454728612,326.32098850449205,C 284.454311579955,291.2971288130585 261.69531463556865,252.69837440364103 250.1156461024001,210.28857320024485,C 238.53597756923227,167.8787719968489 238.2117377097497,122.35229431360081 250,80M 250 , 80C 259.09910573211084,121.91375976031124 257.24662833695055,166.06894286268277 245.27972013531286,207.25571368126958,C 233.31281193367536,248.44248449985625 211.2763295923717,286.1445131272005 184.99995372288336,320.04302420858244,C 154.59545723234964,359.267122932371 118.30433342361157,393.99360263397136 91.42321537784122,435.71133052207364,C 77.98265635494256,456.57019446612594 67.07481653262603,479.3063754758596 61.666461751695174,503.52394204329346,C 56.25810697076434,527.7415086107274 56.5665940522833,553.470135797559 64.45793739134702,576.9960264754807,C 70.76126109447736,595.7876691623618 81.90130095035961,613.0149035820253 96.86270179844664,626.0154500797969,C 111.82410264653365,639.0159965775684 130.5612038841707,647.6839928550216 150.20033979477043,650.3601963717317,C 169.83947570537015,653.0363998884416 190.27415385157806,649.683597385882 207.9776460499731,640.7704560451859,C 225.6811382483681,631.8573147044899 240.56027920432388,617.428407726397 250,600,C 273.52680294729157,619.5044187631678 305.77919710102447,627.9888156321463 335.88657927578316,622.746836350165,C 365.99396145054186,617.5048570681838 393.23773399824336,598.7757822517699 409.98739652475524,573.2144518196961,C 423.27799814918814,552.9319261732566 430.13897985676863,528.7460718882504 431.03187031954536,504.5133732197295,C 431.9247607823221,480.28067455120845 427.0365876592402,456.05774968345514 418.74207814564426,433.27130524675715,C 402.15305911844786,387.69841637334525 372.93268728164793,348.03719170885427 345.8513458900453,307.80431086514,C 299.3946702541579,238.7868324387129 261.08968870366976,162.45394983829507 250,80M 250 , 80C 245.7671669285706,125.21468239950562 233.7749991990885,169.6170835719546 215.443094623703,211.16495541802763,C 197.11119004831784,252.71282726409984 172.28109759350147,291.0120270764162 147.01358673952774,328.7457954483001,C 125.5552847627493,360.79100168666446 103.73732592709833,393.08171507649735 89.9475083639285,429.0983070607539,C 76.15769080075721,465.1148990450108 71.3699048195009,505.8620091102322 84.18841266445823,542.2356234922916,C 95.4776429560022,574.269781778225 120.86658336548867,601.4814274162934 152.83025053850832,612.9687246839791,C 184.79391771152794,624.4560219516646 222.22847060568822,619.5544412542171 250,600,C 273.5946150525138,619.2428152090808 305.7592891806083,627.486552943551 335.7299573278449,622.1245712711315,C 365.7006254750815,616.7625895987118 392.7713914559407,598.0332063094019 409.42211601202075,572.5431068901233,C 422.5543189059011,552.4394077248571 429.3820644994406,528.5156462541165 430.35203637335127,504.5224674831119,C 431.3220082472619,480.52928871210725 426.61345282539537,456.52196492889215 418.5318281546098,433.9100031463728,C 402.3685788130345,388.6860795813196 373.6799670626357,349.23041367391147 346.92654276206287,309.34673054297144,C 300.2432159572222,239.7517884950319 261.4252137840675,163.01959678420496 250,80M 250 , 80C 246.9035641469484,125.32176104435243 235.50396648311548,169.99295237303915 217.17536537564874,211.55871136522904,C 198.84676426818228,253.12447035741857 173.49608026538544,291.1953641465572 146.57929201396,327.7895774784671,C 119.21063977707723,364.9981139950888 89.93767651775664,401.5090478720515 71.34015491512478,443.78966405975433,C 62.04139411380483,464.92997215360714 55.60473470306457,487.4933269596783 54.18339289519545,510.54456046698516,C 52.76205108732633,533.5957939742921 56.50188064503215,557.1189105605816 66.32506429468353,578.0206961715863,C 74.26360083363329,594.9123266979163 86.15580429103608,609.988582524862 101.01922039838736,621.2769130408425,C 115.88263650573865,632.5652435568229 133.6816766792544,640.0013262411118 152.189972958121,642.4076747345719,C 170.69826923698753,644.8140232280319 189.84883667880322,642.1692004201169 206.97811824138444,634.7573681656673,C 224.10739980396568,627.3455359112178 239.1573148727758,615.1915675112924 250,600,C 261.4624897970603,617.5976805235737 278.3865213857005,631.5794025991686 297.82464944912164,639.5308936258576,C 317.26277751254275,647.4823846525467 339.11356076911125,649.364587983565 359.65237411356003,644.9800494035811,C 380.19118745800864,640.5955108235974 399.30895663058266,629.9930896649112 414.15708979215805,615.1404813494134,C 429.00522295373344,600.2878730339157 439.54540608317063,581.3013166766989 444.97430220278744,561.0135341689954,C 451.4094212589777,536.9654969720004 450.70203369267466,511.29479489067387 444.77237998094733,487.11715941583066,C 438.84272626921995,462.9395239409874 427.86673623432466,440.2169960642881 414.56724237899084,419.1731771739978,C 387.9682546683072,377.0855393934102 352.7200828136512,341.2170347385083 323.01933516006227,301.2577931290774,C 299.3375705620411,269.3964620828862 279.02563160047333,234.73508392429036 266.05761803405863,197.21440942805617,C 253.08960446764405,159.69373493182198 247.44611404933164,119.6162600085123 250,80M 258.7545631168856 , 532.8329726496708C 258.33448444446776,555.4539253255335 255.39228915225962,578.0271261835629 250,600,C 236.26991420651052,655.9483058327422 206.33597062147155,707.820520061248 164.7650725538144,747.702704245406M 240.64788944096512 , 531.5409078061407C 245.82011105060116,554.0165101483651 248.95448169757003,576.9606539045859 250,600,C 251.5270208789614,633.6498772365308 248.5844059562257,667.4998592473077 241.27373241607285,700.3814663124692M 253.15987269279748 , 518.5123657023832C 252.6180993332896,545.6915314928858 251.564559529254,572.8604951238951 250,600,C 248.0687351240673,633.5005294061369 245.3587815078131,666.9561657368472 241.87306545518155,700.3307824104943M 241.6851709165289 , 533.555503335672C 245.7297877876136,555.5194689878439 248.5075324683903,577.7166597326446 250,600,C 256.51957397086574,697.3407341292756 238.02903882754978,796.2532010458242 196.785168012254,884.6651147552282M 244.7404430892513 , 519.4948803005134C 244.10848426330855,546.4150159208021 245.87087253581572,573.3909154581195 250,600,C 262.4242915982536,680.0651053711697 296.6964793794601,756.630416564092 348.13306453387827,819.2328272801916M 240.206871008013 , 530.023517864093C 242.9610016712735,553.4166343973375 246.22641728703627,576.749554620251 250,600,C 265.02563402111645,692.5785148166756 288.12685562882916,783.8448990750907 318.9554347014655,872.4233941840062M 258.6800350929004 , 532.965580609155C 251.73455595799783,554.5320875442126 248.77661751009435,577.3757378666918 250,600,C 253.13738555292488,658.0203115119799 285.2559006947607,713.7549889496205 333.883023414055,745.5606908299058M 240.63436353111032 , 524.4950244604843C 249.00926887347012,548.632991031867 252.22368990965043,574.5473837713998 250,600,C 245.96836423459015,646.1465771217203 223.53610578560816,690.42946244665 188.71575691328835,720.9794865285676M 256.99811643327513 , 520.8567257937046C 256.54839429265155,547.3593404168433 254.20779656503228,573.8296870493746 250,600,C 236.60212630747276,683.3278277567346 203.9983283822568,763.5079142455404 155.44208573252828,832.5392201717476M 244.69867744001886 , 536.479149669338C 244.0121006675004,557.7626314158686 245.7949413645663,579.1247643176891 250,600,C 261.81440662540956,658.6504360899702 293.26947218240525,713.167547516863 338.1328191937728,752.7495377699038M 245.9446573786721 , 518.8592015543695C 242.98218043992094,545.8926241421195 244.35680794616243,573.3966808487361 250,600,C 260.31996844177434,648.6507302016763 285.16049931105977,694.1257356124155 320.5197208325775,729.0988788967668M 259.6563197238281 , 530.5991324304867C 256.6471183093725,553.7612698605561 253.42816910755593,576.8961570284903 250,600,C 235.82793078517,695.5114089906248 218.0787294316511,790.4919887738426 196.80210088992615,884.6757552684026M 253.48442468027966 , 518.6266983059619C 250.81687401899467,545.6586656436023 249.65300762985885,572.8389491924771 250,600,C 251.2281566830452,696.1347537821105 271.6038600393761,791.9868036095891 309.58644499838573,880.3085024916686M 243.86594250162744 , 520.1023206822093C 246.3400300610578,546.6995902686741 248.38507054651834,573.3367694836675 250,600,C 256.0493669341528,699.8778396761873 256.05667933781297,800.1212764324376 250.02188393725834,899.9999976054664M 253.60076747950896 , 537.3292268467709C 253.24028207500837,558.2564601279398 252.03873504462578,579.1691910394931 250,600,C 240.97835608271433,692.1787955948887 215.40400729799478,782.7129352208899 174.86292345419474,865.9880271575822M 240.08849854942386 , 526.6725441644909C 246.46761428692824,550.5663659463305 249.80675355431433,575.2700486707713 250,600,C 250.64849384344873,682.9884406354215 214.08282796758044,765.5724291500705 152.20316294388613,820.8753122568241M 258.9088280064056 , 532.5423323912153C 252.17480250905047,554.3137099766865 249.14876525477987,577.2268715197775 250,600,C 251.41080136030178,637.7432439390348 263.6364742040018,675.0216035771514 284.8518539606502,706.2698112905692M 242.18459349424253 , 521.7614568086962C 249.12352551901506,547.1624224326093 251.77725054167658,573.7283572499978 250,600,C 245.34736508993902,668.7761006886528 208.87539642279535,734.7490608364621 153.10694641436493,775.2666992325883M 246.82790025732388 , 537.4835533015065C 247.27269585921067,558.3474387340343 248.33067098768393,579.1982476911741 250,600,C 257.645844989416,695.2759896270209 278.1892354671522,789.508601505486 310.8941147010174,879.321540547189M 248.3258724036888 , 537.8588689407695C 249.0490427221763,558.5676914525943 249.60710890065602,579.2822795240436 250,600,C 251.8958061928732,699.9686245020933 249.94398506312174,800.0101570664326 244.15030845709998,899.8287589267387M 240.00205295451164 , 527.7973799723356C 248.05114756261557,550.8911689291189 251.47093031941012,575.5879665659313 250,600,C 247.550994887137,640.6444777883108 231.26281336077088,680.3298120957033 204.4520055332943,710.9753955354985M 248.06589818050108 , 537.8111798552371C 251.26802918647527,558.3555987640075 251.9192950046582,579.2963023118198 250,600,C 243.61798279259392,668.8436923882001 207.51959572874713,734.4221908356732 152.76680091806088,776.6396704584033M 244.94893409032164 , 519.3694303098761C 251.03852662258493,545.7264717822562 252.75264249048266,573.0890406766061 250,600,C 243.16663961735497,666.8057272004132 207.68467778223237,730.1961947632544 154.31186632689042,770.9520900208446M 251.2116833222119 , 518.0736802627221C 254.21672906249125,545.2910222931041 253.80863966551632,572.8834317990232 250,600,C 239.71764640600986,673.2078030438183 203.92284427849958,742.5816010178889 150.2190161736504,793.3852236133216M 251.59123292963403 , 537.8725871869358C 253.49248639742862,558.5488712407514 252.95720537549724,579.4481527985926 250,600,C 240.648479772804,664.9907566118529 206.18921428584179,726.0425115291272 155.38239082732304,767.6347712128191M 259.4035861736548 , 531.4018475972108C 255.6135730577194,554.171644895986 252.47732251501228,577.0502561756589 250,600,C 239.2431047588527,699.6511308614904 240.97099213860912,800.6434701992164 255.130474867631,899.8683044195335M 258.464072922591 , 533.3253609794136C 258.1963342508486,555.7759028693841 255.35036257202827,578.194676441348 250,600,C 238.91705784492956,645.1683668947171 216.94916066083493,687.6261312767142 186.48095237365484,722.7644473791888M 257.0933108023637 , 520.951245368076C 255.27004828984676,547.3456613666947 252.90494724189497,573.7026472127042 250,600,C 239.39179166315137,696.0319667951226 221.57214472562012,791.266501921211 196.74061713344392,884.6370966933152M 242.6480468938222 , 521.2214466495747C 244.49364476514785,547.5327495950057 246.94516195871964,573.8015485432738 250,600,C 261.1235696387218,695.3963173391097 280.2637173214678,789.8565992020768 307.15249465396806,882.0584691231085M 244.04504312323135 , 519.9664149599431C 247.33726585824766,546.5254848025149 249.32543714965942,573.246161277295 250,600,C 252.47296194700144,698.0801493353185 237.11707997403025,796.582611421217 204.906920714022,889.2558916851347" stroke="hsl(210,80%, 90%)" fill="none" stroke-width="1"/></svg>