<svg viewBox="0 0 500 800" width="500" height="800" version="1.1" xmlns="http://www.w3.org/2000/svg">
<rect width="500" height="800" fill="hsl(210,80%, 20%)" /><path d="M 250 , 80C 264.5089850022575,125.4763003090254 264.84710654835015,175.2148211974299 251.84716829703137,221.14527015075817,C 238.84723004571336,267.07571910408586 212.690638262738,308.34447120298825 181.87760985106553,344.80214276459225,C 151.58963000550025,380.63858203700653 116.66886652610964,412.71436745666216 90.0384738736266,451.346404550574,C 76.72327754737857,470.66242309752903 65.62544449310734,491.70872104266914 59.27988398424137,514.2949311617033,C 52.93432347537539,536.8811412807374 51.50152239534344,561.0460939294818 56.85221546296711,583.8884473417054,C 61.88179253526681,605.3599418840713 72.99842301522389,625.4961229120602 89.11552294709797,640.5480601028353,C 105.23262287897205,655.5999972936104 126.28586432195175,665.3794149808995 148.23316104355476,667.532991081939,C 170.1804577651581,669.6865671829781 192.8320018722745,664.1508452759258 211.22140178287202,651.9790872132143,C 229.61080169346954,639.8073291505027 243.57854373580227,621.0970761684188 250,600,C 261.72286600271894,619.9131315663475 280.4787490479696,635.5839234565184 302.14947652907534,643.6050185523277,C 323.82020401018104,651.6261136481369 348.2206841816211,651.9375657450806 370.15578956833485,644.6705479406353,C 392.09089495504855,637.4035301361909 411.3834368820953,622.673750841642 424.649649653382,603.7537615498031,C 437.9158624246688,584.8337722579643 445.1426880565718,561.9336718017879 446.2803480151964,538.8541543476709,C 448.11466905888096,501.641589887388 434.37894915219505,465.0806137959993 414.7331580208597,433.4233464119378,C 395.08736688952365,401.76607902787646 369.93114617538447,373.9724809426198 346.2010720131257,345.2492626748884,C 315.3218463168895,307.87261001266427 286.82199049604293,267.8149227271684 269.06422746237405,222.70170298093757,C 251.30646442870676,177.58848323470755 244.34166057835503,128.1510533511052 250,80M 250 , 80C 230.23142212469486,163.48149677951844 186.80292573948722,239.3675743345481 137.00234896287128,309.22356569160445,C 107.28281800388449,350.9115828227953 75.7903785132442,392.3089593315805 57.55363876229082,440.1478829817697,C 48.435268886807286,464.0673448068687 42.893397765062204,489.55499168642876 43.419960610210666,515.1481168328153,C 43.94652345535911,540.7412419792017 50.73662403940659,566.3904017201097 64.37282212875017,588.0546447222705,C 74.09846546021268,603.5060703399225 87.24510234526143,616.8368892254997 102.75290921311056,626.4723766536554,C 118.2607160809597,636.1078640818109 136.09776500223353,642.005019782699 154.3071584378132,643.3289089536347,C 172.51655187339284,644.6527981245705 191.04899021872896,641.391926370041 207.6853401492144,633.8708524560917,C 224.3216900796998,626.3497785421423 239.02094321967115,614.5874947829628 250,600,C 261.3094323571807,620.1207157588008 279.43970848430155,636.3216405837281 300.69198564795937,645.3264825172196,C 321.9442628116172,654.331324450711 346.1644170777067,656.0807246361427 368.5339625065852,650.3930273698111,C 390.90350793546355,644.7053301034798 411.2633690263688,631.6639720048431 426.1552600775544,614.0294024380037,C 441.0471511287399,596.3948328711642 450.43619718645465,574.3442558335374 453.7722129175301,551.5053096684863,C 457.40836363802833,526.6115869621168 453.96818656351934,500.96199181053913 445.7581874945175,477.1814338370435,C 437.5481884255156,453.4008758635479 424.72283569271815,431.423443837837 409.98203469483855,411.03649192773753,C 380.50043269906234,370.26258810753694 343.8153096972509,335.1433030668438 313.9035000791135,294.68394402169054,C 291.1513051642435,263.90883429485064 272.25051059943576,230.00832894614098 260.87357151340143,193.46609298313598,C 249.49663242736716,156.92385702013098 245.63732575225188,118.02284610009232 250,80M 250 , 80C 262.9735903796144,121.50806291678441 263.80425318110235,166.60404942698557 253.1860666775464,208.77616639800635,C 242.56788017399109,250.9482833690265 220.58042079505898,289.48101074860523 194.67397726291242,324.41079056407773,C 168.26864986252843,360.0132178484851 137.59856620873984,392.83472200127983 116.71414845913482,431.9322313710973,C 106.27193958432318,451.4809860560108 98.4682683582471,472.6442815645012 95.81441509288496,494.6477039974331,C 93.16056182752283,516.6511264303649 95.84656542394856,539.4795228846066 104.99812647538246,559.664727026205,C 116.90034879944997,585.9169462923577 140.20567697373417,607.0489226702442 167.9158103445038,614.9855731743202,C 195.6259437152734,622.922223678396 226.92323107082711,617.2714981527153 250,600,C 263.17573761847433,612.0621259965881 279.8998704335994,620.1968439038038 297.52067361561194,623.12980155253,C 315.1414767976245,626.0627592012562 333.58150989809076,623.7822425217851 350.00106652457254,616.7471088671767,C 366.4206231510542,609.7119752125685 380.74845281959176,597.9733191621098 391.1268261023462,583.4342575227793,C 401.5051993851005,568.8951958834488 407.92146980716797,551.6456348400502 410.1661749098033,533.9240027382757,C 414.7521772315436,497.7181573163758 401.79394663477615,461.1621403402383 382.24296063001304,430.3456900863386,C 362.691974625248,399.5292398324384 337.1287151466635,373.0808194014486 313.6417631600379,345.1477252945014,C 282.7564993771321,308.4157994040271 255.41228926565546,267.50444335098035 242.67540165060683,221.2345223174991,C 229.93851403556192,174.96460128401912 232.12183746318976,124.53656029455074 250,80M 250 , 80C 252.71644806455026,128.42340321164716 243.92708053104246,177.33853970499504 225.39912839071619,222.1595175855694,C 206.8711762503906,266.98049546614294 178.60447816674824,307.09359105756295 148.00595408882708,344.7225080355725,C 122.05667310353283,376.6339602790889 94.3438061065526,407.44897480223636 73.4676425421821,442.8875380177172,C 52.59147897780993,478.32610123319745 39.20035505402424,519.8030768100268 45.00453890469099,560.521836832548,C 48.3402175061315,583.9230074327301 58.05438008201566,606.529791879506 73.57781469627815,624.3557424843867,C 89.10124931054065,642.1816930892675 110.39334288936924,655.0130217376952 133.52679857026416,659.8694366140212,C 156.66025425115976,664.7258514903467 181.43826645771617,661.511462871609 202.47586627329372,650.7336648037953,C 223.51346608887127,639.9558667359815 240.62672194880042,621.6998432198451 250,600,C 271.72331010023254,620.1514498760744 302.4040202522888,630.2138578782755 331.85892697319713,626.9902568047258,C 361.3138336941054,623.7666557311761 388.8618566538988,607.4324742614644 406.7562583539449,583.8152449231998,C 420.80891464501804,565.2683936788115 429.04621069193365,542.6033926144555 431.5491411675016,519.4690419870665,C 434.05207164306955,496.33469135967744 430.9821492786943,472.80130152555176 424.3750962587858,450.4896523191703,C 411.16099021896736,405.8663539063957 384.73525975253466,366.5144774129489 358.98133770864337,327.75126213061884,C 333.7878842146104,289.831629546885 308.9452087500709,251.47011641120247 289.7692472724162,210.1797890251321,C 270.59328579476175,168.88946163906212 256.92033459692027,124.99686214957654 250,80M 250 , 80C 236.66187117948493,156.36657681664357 201.21501166059522,227.31379204615163 157.09843372772636,291.0592804090004,C 125.63080189455783,336.52789227368334 90.06352370724672,380.1178560561865 69.41047747606757,431.41169778657166,C 59.08395436045895,457.0586186517824 52.841584301909194,484.6424645986944 53.93533591411907,512.2686358305964,C 55.02908752632895,539.8948070624983 63.76314995194892,567.4679127478774 80.46990321915568,589.4971211946704,C 100.01491052160877,615.2687976582604 130.65457116286774,632.6360829094841 162.92396636470923,634.843513883325,C 195.1933615665507,637.050944857166 228.20899879969596,623.9026961844318 250,600,C 264.14899321600967,609.3833468939027 280.6597413813034,615.172254992457 297.5695405444698,616.6887971842134,C 314.4793397076363,618.2053393759697 331.74627834794103,615.4451978427436 347.37071485141365,608.8030451866421,C 362.99515135488616,602.1608925305405 376.9367399479311,591.6632126107451 387.79998323127194,578.6159464861904,C 398.6632265146128,565.5686803616358 406.4342263177177,550.0213776563552 410.7487729441112,533.6010885186245,C 416.38327340087096,512.1573228908073 416.1086321318992,489.37475314292436 411.4304659082226,467.70224889256997,C 406.75229968454596,446.0297446422156 397.8015810655047,425.4468923281734 386.7893225832449,406.2033780228841,C 364.7648056187166,367.7163494123005 335.03263136508804,334.27237914548 309.8539836914269,297.77078438417794,C 287.94395684579746,266.00772341703896 269.373294731883,231.60640476523 258.54750691374363,194.56934715403446,C 247.7217190956044,157.532289542839 244.61756309936732,118.20956282645867 250,80M 250 , 80C 229.11668554600433,168.86487986826802 182.61318841925757,249.0215337684652 135.94680837294652,327.47743647794545,C 117.22472587932899,358.9531558540883 99.27092861557028,391.33732717392826 89.09231907645763,426.5173384160214,C 78.9137095373444,461.6973496581147 77.32068423462584,500.28778041660166 90.64336745135888,534.4014638156443,C 102.41747223620817,564.5499013640963 126.08280615962113,590.1940821024604 155.90756398080808,602.7655438712869,C 185.73232180199503,615.3370056401135 221.00215615739677,614.3764697536466 250,600,C 258.9782849596096,623.3703945326009 277.179817299958,643.0457919218654 299.7671163318113,653.8438873035064,C 322.35441536366454,664.6419826851475 349.0429177005403,666.444382685827 372.95632149005587,659.0326311637538,C 396.86972527957187,651.6208796416828 417.7321047656219,635.1713849989096 431.13814007568317,614.0275168880187,C 444.5441753857445,592.8836487771277 450.49493095187023,567.3628583417508 449.26398457183274,542.357464674887,C 448.1650179202919,520.0331017341986 441.5366670796073,498.1733094112005 431.4860699861916,478.20908123992865,C 421.4354728927759,458.24485306865677 408.0469590330956,440.1118279327398 393.34813609174296,423.27349331949654,C 363.9504902090316,389.59682409301234 329.5092577241476,360.5535889763878 300.6869554774469,326.3832139881739,C 272.1788722569944,292.58536239740306 249.30905546579066,253.26026164861514 239.51677112270013,210.14278551190137,C 229.72448677961003,167.02530937518756 233.1925129913616,120.89638078742988 250,80M 250 , 80C 239.4610017031006,155.47275524587542 206.10177946963088,225.9762434680831 164.77314487176426,290.0008577330819,C 140.78670953122497,327.15965296580987 114.69528160239967,363.4001851845695 97.51463828957799,404.15494734620256,C 88.9243166331647,424.5323284270198 82.71314562770154,446.0396817589731 80.73277745424318,468.0648815939586,C 78.75240928078482,490.09008142894413 81.1089493978624,512.6287430675058 88.79981410899137,533.3623362406295,C 100.24541605086,564.2182234779593 124.14249059902063,590.581636237375 154.451213216482,603.4061796722234,C 184.75993583394333,616.2307231070716 220.71983634359424,615.025298575024 250,600,C 271.078338964668,625.1273396922247 304.5581113640195,639.2423632096101 337.2780564696512,636.9874206821075,C 369.99800157528284,634.7324781546049 400.89686811810947,616.3588382800524 419.7794312147012,589.5422690658312,C 433.75300711725566,569.6973272830783 441.3757447493192,545.6971458701738 442.9392377660381,521.4765342459399,C 444.502730782757,497.25592262170596 440.1914539371239,472.87875136703633 432.30051169037745,449.9262881370513,C 416.5186271968808,404.02136167706686 387.4317177512933,364.09966220721134 359.6957224571367,324.26193239607414,C 333.9438060557673,287.27397228011506 309.01519842108723,249.49275989626568 289.786562447259,208.7308910668205,C 270.55792647343094,167.9690222373756 256.89515039549036,124.53905356994504 250,80M 250 , 80C 261.93032281464633,127.17654563647204 259.86126215507267,177.64623763583234 245.08244423476077,224.00942994967187,C 230.30362631444982,270.3726222635104 202.95897239917264,311.7829490915139 171.8550818868299,349.20629816195225,C 142.52576443699775,384.494529532468 109.63035052764937,417.26995093274616 86.11008418846875,456.6687479532909,C 74.34995101887225,476.36814646356385 65.10973132541302,497.76607855227405 60.83761433013907,520.3075081922033,C 56.56549733486512,542.8489378321325 57.428226581316615,566.5466381103591 64.88553493468507,588.2435407915248,C 71.44290945605631,607.3221023974398 83.12931151988889,624.7036982342566 98.7617546655986,637.4558507921734,C 114.39419781130832,650.20800335009 133.91519808564948,658.204720717722 154.03068200953317,659.7402922960615,C 174.1461659334169,661.2758638744008 194.72465302899016,656.3120247325418 211.86200022342652,645.6676832920593,C 228.99934741786288,635.0233418515769 242.58636989008076,618.7624295377099 250,600,C 260.2816968352189,621.7633601764104 278.9423278248311,639.4299752630152 301.22318254797057,648.5360528371342,C 323.50403727111,657.6421304112532 349.14720977511104,658.0970720703303 371.8215178905245,650.0203841682994,C 394.4958260059383,641.9436962662703 413.96195306636423,625.5029451389528 426.31178981098094,604.8428708805959,C 438.66162655559765,584.1827966222392 443.90358875871476,559.5880002973832 442.4047308017736,535.5648747554307,C 441.09848400563243,514.6288476775389 434.84271623969136,494.1620138403606 425.4753637195479,475.39299102983574,C 416.1080111994044,456.6239682193109 403.6989078163767,439.501278500755 390.02919785610857,423.59019619624826,C 362.68977793556866,391.7680315872362 330.51816079898515,364.39184857471207 302.88094491246494,332.82797143586,C 272.8180773861305,298.4938090897247 248.24124778318318,258.39440448745734 237.84212651017182,213.9594071917906,C 227.44300523716134,169.5244098961238 231.48560393499122,121.71124364322742 250,80M 250 , 80C 260.04783280884243,120.18710915876838 259.5623426828768,162.87327739811818 249.2086697311991,202.9826795764468,C 238.8549967795216,243.09208175477525 218.66134383165317,280.1176884195429 194.31664210615736,313.6333293143526,C 164.52253746007597,354.6512281311062 128.1487127327488,391.17696287486785 103.86290853580422,435.678158471287,C 91.72000643730372,457.9287562695167 82.8764955343485,482.2933927929543 80.78560562048598,507.55536724311276,C 78.69471570662344,532.8173416932713 83.681023787913,558.9281587737869 96.78256909071202,580.6281284611173,C 112.20157229408554,606.1664824788011 139.16191424672957,624.7384502043329 168.7309012357414,628.6917012919612,C 198.29988822475326,632.6449523795895 229.5162456871867,621.6879919533941 250,600,C 279.3229907133024,614.3516344055118 314.87477151219525,615.2119374260684 344.94429171095027,602.4985134380725,C 375.01381190970534,589.7850894500764 398.8940971018717,563.9512247344175 410.8221490392976,533.5616085561903,C 424.9376265774373,497.59899313442827 422.58300605448034,456.7708918674064 411.0805873143439,419.88931411875467,C 399.5781685742068,383.00773637010224 379.86667518972024,349.2931290274374 359.77065769024165,316.29757637614813,C 314.3744458003453,241.7617585395513 270.721645008145,164.77627983509967 250,80M 250 , 80C 261.37081174090105,127.19644761666547 258.8691958625514,177.47505029233605 243.9604041684272,223.67600220353452,C 229.05161247430442,269.8769541147311 201.8453342652957,311.11415745974926 171.77319643420572,349.2253966622125,C 144.38115694958347,383.94007424534215 114.33002401049515,417.32567512931075 95.29588573964399,457.2397609526622,C 85.77881660421137,477.19680386434214 79.23469849933144,498.76858925098037 78.03415191061092,520.8461084638709,C 76.8336053218904,542.9236276767614 81.16238189362139,565.4728672779464 91.7917271204961,584.8603680646686,C 99.37294942446016,598.6882144884283 110.10793253947786,610.8157714843002 123.10062870805149,619.7530034166347,C 136.09332487662513,628.6902353489692 151.3153057353488,634.3943976190374 166.99980863991934,636.0316627098903,C 182.68431154448984,637.6689278007432 198.7842225512447,635.2265261491648 213.25352995953554,628.9556879702938,C 227.72283736782637,622.6848497914227 240.52137048960577,612.6031682899932 250,600,C 262.6369767208587,618.5760153918736 281.3397259447417,632.9484563126476 302.535789639935,640.3975107702254,C 323.7318533351282,647.8465652278031 347.286410068377,648.329223552219 368.8171021958897,641.9112156842812,C 390.3477943234021,635.4932078163436 409.7200560088134,622.2518488606996 423.8709062300413,604.8014916580803,C 438.02175645126925,587.351134455461 446.92332345167335,565.8465733696422 450.1265080798216,543.6091918529116,C 453.60438103787016,519.4648490150897 450.4647976800889,494.61347005619336 442.8112630001864,471.45168475613195,C 435.15772832028387,448.28989945607054 423.12681067619695,426.76240164513376 409.2098462543374,406.7283558065293,C 381.3759174106057,366.660264129319 346.4641912221742,331.98610652386935 317.4966490857961,292.7297558515462,C 294.9076527635496,262.11750864094586 275.84602400700004,228.63888110228754 263.8827243088919,192.52445331417744,C 251.91942461078378,156.41002552606736 247.03951434823563,117.92898573433078 250,80M 250 , 80C 231.25537425862393,163.2273574824635 187.53714502893533,238.5660778040534 137.61618723330727,307.74737585826136,C 112.64400423159911,342.3542446282491 86.71572397470207,376.7268398473178 68.81365381497633,415.46649877625276,C 50.91158365524869,454.2061577051877 41.962240984309815,498.6115890780609 52.72080187071441,539.9092725189943,C 58.001850157650125,560.1810414565778 67.93712112888943,579.3010311303649 81.98002433095924,594.8455142843659,C 96.02292753302903,610.3899974383669 114.14849820530209,622.2684659550991 134.10899492779544,628.6255610038659,C 154.0694916502888,634.9826560526325 175.78666822118655,635.7739444540186 196.1284217124514,630.7692314983801,C 216.47017520371622,625.7645185427416 235.35873989183398,614.9822424660912 250,600,C 257.82836906256625,618.8287447780259 271.78914429989794,635.0467671293496 289.23530783178245,645.6031097779436,C 306.68147136366696,656.1594524265375 327.5056844444845,660.992819048928 347.82879367205265,659.3266187548115,C 368.1519028996206,657.6604184606952 387.8453492857031,649.5329794356072 403.6507814891478,636.6491405295169,C 419.4562136925925,623.7653016234266 431.3173832682773,606.248857110667 438.0641934317372,587.0060520990787,C 445.54133987858796,565.6802303205011 446.7809278598035,542.4053058991948 443.09628502165543,520.109077503464,C 439.41164218350735,497.81284910773326 430.94976908061795,476.4877512139222 419.96819034186376,456.73671777453353,C 398.00503286434827,417.23465089575126 366.64835322988,383.95037712248046 338.14659113355367,348.8727042880071,C 307.4042392261139,311.0374940042681 279.7237244605307,269.97838298046446 263.3583349137834,224.05704411715573,C 246.99294536703718,178.13570525384753 242.01184385122454,128.09142022604772 250,80M 250 , 80C 259.16837653308824,128.2118199743236 254.35456516934417,178.81347099610676 237.44543802431264,224.8842874929112,C 220.5363108792829,270.95510398971254 191.6356561478207,311.580871800136 160.71769553463574,349.6927915236328,C 139.09101409042003,376.3515468471024 116.4870795094285,402.48553612105565 99.20086911050296,432.1434105514709,C 81.9146587115769,461.80128498188594 70.34938985434339,495.84046659522585 72.84538897925852,530.0774725106769,C 74.32360079181767,550.3537402648119 80.77237431872587,570.3529606008469 92.1357142751919,587.2107970348009,C 103.49905423165794,604.0686334687549 119.76753233980673,617.6487888367695 138.55430890120024,625.4185488480208,C 157.34108546259398,633.1883088592718 178.53809434519763,635.067902251179 198.36471310687597,630.5715334185281,C 218.1913318685543,626.0751645858772 236.5287660935513,615.2262274131814 250,600,C 259.36563329533635,616.9888786531932 273.7314402307184,631.1793152473081 290.82831869929373,640.3463121135889,C 307.92519716786904,649.5133089798696 327.68137406531997,653.6194706009215 347.0225429997188,652.1173823323163,C 366.36371193411753,650.6152940637111 385.2040892191422,643.5277490924253 400.8920104006828,632.1160790166913,C 416.5799315822234,620.7044089409573 429.0693837821125,605.047827334083 437.1699721375707,587.4206451085811,C 448.8396341012987,562.0270256678356 451.2606067154644,532.902284826896 446.40376027501844,505.38087568232237,C 441.5469138345725,477.8594665377488 429.7553445806278,451.9224223110131 414.9099543382274,428.24476813666695,C 385.21917385337355,380.8894597879216 344.28345618258913,341.63329988957025 311.86454534012194,296.1021908058603,C 289.61112795210187,264.84812494586095 271.1889790252436,230.60187484051013 260.1778791028839,193.84882195062875,C 249.16677918052414,157.09576906074733 245.5523210928659,118.10838976610853 250,80M 250 , 80C 267.36945057222573,123.7909713827882 269.68660353159487,173.21456911823915 257.4555060358926,218.70904396826674,C 245.2244085401915,264.20351881829345 218.73356960389037,304.7477363447913 187.41456268617367,339.93959326534997,C 160.99776902009262,369.6230383834874 131.1815480729481,396.2529662267795 106.20265406389636,427.1561821720875,C 81.22376005484288,458.0593981173941 61.26024707198308,494.8436234371131 59.15782967922821,534.5240183795078,C 57.903924557068706,558.1898473624185 63.200273275618436,582.3488777800502 75.39212671858053,602.6713394697445,C 87.5839801615426,622.9938011594387 106.67888041162989,639.2107087298326 128.94449494086044,647.3277370739665,C 151.2101094700927,655.4447654181005 176.42219020801855,655.3023258883287 198.5082398669482,646.7087148913656,C 220.59428952587785,638.1151038944024 239.31085844592428,621.151500947705 250,600,C 273.49778720930226,617.916147927121 305.917798297021,623.3616997853777 334.04639870784433,614.3109429546835,C 362.17499911866753,605.2601861239892 385.04115320020645,582.2391981374057 395.4900965996746,554.5994813856943,C 402.307311198332,536.5664733255575 404.14856310030126,516.822614833751 401.8991396867719,497.67571198008375,C 399.64971627324246,478.52880912641643 393.41659430602255,459.9868690927203 384.9374703493223,442.67305231224066,C 367.9792224359188,408.0454187512775 342.5943469088654,378.4028884942556 318.99746489662357,347.9095722163377,C 289.5088889441172,309.80265314801625 262.65340339088124,268.65027782175383 249.08442430277248,222.41613244095538,C 235.5154452146674,176.18198706015903 235.40131531711697,125.91940546343999 250,80M 250 , 80C 235.65462923603494,158.16077905165787 197.40815022216935,230.13542817227872 150.08190440887984,293.9721221776688,C 120.99525941098834,333.20606572136745 88.97897412683929,370.6976946212816 66.22218366068229,413.9118558523286,C 54.84378842759999,435.5189364678522 45.951972288584,458.59592652647365 41.79711628642393,482.65982027639035,C 37.642260284263855,506.72371402630705 38.356686364529125,531.7896502913334 45.39061139054389,555.174639270043,C 51.624790313488944,575.9007921455877 62.853090838116394,595.1884525456236 78.27838025226855,610.3706410029372,C 93.70366966642071,625.5528294602508 113.2905147033002,636.5272133310597 134.37317211195966,641.4221041830439,C 155.45582952061912,646.316995035028 177.93933198821463,645.0883528087571 198.3214672987456,637.8077649171822,C 218.70360260927657,630.5271770256073 236.89521586251786,617.2250698858883 250,600,C 258.9825080757995,622.0226063733306 275.8997250611737,640.7051371063194 296.91375764271834,651.8447545803731,C 317.927790224263,662.9843720544268 342.84965837931327,666.4901594944303 366.1608580784904,661.7711965372172,C 389.47205777766715,657.0522335800048 410.9686260682757,644.2041016563026 426.57427357683355,626.2557198728357,C 442.1799210853914,608.3073380893688 451.85006511891044,585.4777037573001 454.94007442171056,561.8952423650907,C 458.2797064760772,536.4076996852241 454.0792098403406,510.2463984885436 444.92228054946264,486.22726819457927,C 435.7653512585847,462.20813790061493 421.8247717223444,440.2483011080543 406.0145111440359,419.9800097503064,C 374.39398998739557,379.4434270348096 335.6800188924974,344.7900593868683 304.8451834271395,303.6526698453313,C 281.04881242093273,271.90544081089195 261.9496588993624,236.27079086686513 251.97180307641278,197.87031928634138,C 241.99394725346323,159.46984770581764 241.1626054191052,118.6788609120247 250,80M 250 , 80C 245.21156719342824,155.82676965539707 213.35597246894838,227.72048975228665 170.60228119950332,290.52773430220043,C 145.64621089964396,327.1894110788277 117.63737411638105,362.054438877651 97.60199985364248,401.6204314348637,C 87.58431272227037,421.40342771347025 79.69827310260283,442.39834089605444 75.89410043633441,464.2443764070261,C 72.08992777006601,486.09041191799776 72.47416254473399,508.79964122881177 78.33484977721403,530.1859298826307,C 83.10903922822143,547.6074693091617 91.51837421874593,564.0714540090667 103.17980197250596,577.8668888934086,C 114.841229726266,591.6623237777505 129.73987186542809,602.7366855566918 146.40052728384092,609.7170495825286,C 163.0611827022537,616.6974136083654 181.44102362167098,619.555839121528 199.42717609452373,617.8821485504916,C 217.41332856737648,616.2084579794551 234.96155860669106,610.0074073247918 250,600,C 271.8234970412839,624.3890372778746 305.2039246484932,637.8960319532365 337.8593412101129,635.7248728988194,C 370.5147577717326,633.5537138444023 401.5212037683844,615.9106303882019 421.19675272097834,589.7579453278383,C 437.0655521120115,568.665181219467 445.73399820764496,542.5661483272925 447.4397427994141,516.2258004322493,C 449.1454873911832,489.88545253720616 444.13033176208216,463.3886058893282 435.1564751761933,438.5653629541242,C 417.2087620044104,388.91887708368836 384.68226311191995,346.15156839069795 354.5722283164658,302.7893755033852,C 307.4376080663768,234.9096633463343 267.27682232679365,160.81360751094206 250,80M 250 , 80C 251.40924367497578,128.33254769590047 242.10513832224555,176.83543239516098 223.82953764281925,221.60175404791806,C 205.5539369633936,266.368075700674 178.23792375274124,306.81740058352676 149.36476445522865,345.6035038512216,C 122.45253546851278,381.7554358891032 93.91777918658855,417.5486560878229 76.83414168387182,459.2545260437513,C 68.29232293250885,480.10746102171805 62.82367777902651,502.39256836245266 62.58381220026451,524.9258776906577,C 62.34394662150252,547.4591870188626 67.49258408892891,570.2056137977569 78.66571541535109,589.7751999236556,C 87.17413392126501,604.6775781274151 99.13468677117308,617.6436141311697 113.51334234509154,627.009954157364,C 127.89199791901001,636.3762941835582 144.6544952327061,642.0929381721153 161.77422120620915,643.2715153617095,C 178.89394717971214,644.4500925513037 196.31468965760826,641.0770781618774 211.72653149189037,633.5306092608126,C 227.13837332617248,625.9841403597479 240.49460865754077,614.2871129703088 250,600,C 272.0092482760173,621.9772930087669 303.86702308487804,633.6460839944732 334.8766671913016,631.2356089248001,C 365.8863112977251,628.825133855127 395.3186618467821,612.4971664028662 414.71298907746706,588.1811533880302,C 431.3014884341643,567.3830013585101 440.64536445178356,541.2447824787577 442.83151658657476,514.7313485707607,C 445.01766872136596,488.21791466276363 440.30068561557914,461.4285773148266 431.5035839048486,436.32175672277947,C 413.9093804833842,386.1081155386519 381.31602347143223,342.82221146036443 351.30972344902625,298.88375775555653,C 305.64894459279026,232.02233144170054 266.88628830471515,159.18465963664505 250,80M 250 , 80C 259.417264210764,119.88771592287196 258.66038854481525,162.06475082786352 248.31937814780898,201.72301920569464,C 237.97836775080282,241.38128758352568 218.08182692389718,278.08838845130106 193.60609727210556,310.96168163545696,C 161.46805364425455,354.126210153045 121.19626236913228,391.0132815617431 91.57779490542195,435.9440811926473,C 76.76856117353393,458.4094810081064 64.83875659673731,483.10463831626305 59.500599468785765,509.4771935787214,C 54.16244234083422,535.8497488411798 55.737036868513144,563.9267099354963 66.24964708267731,588.6954930925102,C 73.80644167392256,606.5000728095443 85.92985225052294,622.4161749016573 101.4152082990622,634.0054782217221,C 116.90056434760146,645.5947815417869 135.69817609773241,652.7670813184366 154.98940246382145,654.1659339507057,C 174.28062882991046,655.5647865829749 193.96838854979694,651.1643395904064 210.7792665477407,641.5986412712691,C 227.59014454568444,632.0329429521319 241.44333634636604,617.346230441023 250,600,C 258.4458606791781,616.4885200424974 271.8348400224321,630.4028991054132 287.9804825518001,639.4870657219933,C 304.1261250811681,648.5712323385733 322.95615074490865,652.7858311336811 341.4400344691289,651.5408820289257,C 359.923918193349,650.2959329241703 377.97459309636804,643.6135744333804 392.9600450818326,632.7213715067335,C 407.94549706729714,621.8291685800865 419.81916819062485,606.8068793586434 427.4012477056576,589.903745742901,C 438.33475421552606,565.5290974609256 440.2063541511606,537.6038107092991 434.98849208154786,511.40383057774477,C 429.77063001193517,485.2038504461905 417.80816658362085,460.7086530153008 402.9195480229298,438.52771343137897,C 373.14231090149485,394.16583426348075 332.5393774122428,358.1435036892017 300.3381245621499,315.5085475055986,C 275.15382166230285,282.16414144634706 254.99545182251745,244.50502317026354 245.5616616853398,203.79750382010928,C 236.12787154816235,163.089984469955 237.48150524015358,119.86710193810418 250,80M 250 , 80C 244.45183011881366,155.55344737356347 213.66714449412186,227.29597774389126 172.6593848930745,290.99424500103913,C 145.06308039191802,333.8602000428601 113.39191133920754,374.83178958996467 94.90046373326233,422.3408675562286,C 85.65473993027676,446.0954065393742 79.99725258578069,471.4932705572801 80.78504025570601,496.97151463983005,C 81.57282792563134,522.44975872238 89.05334468821664,547.931668667964 103.67724977341133,568.8099571754566,C 119.48765679769599,591.3821933429283 143.7115235501419,608.098557481439 170.63421470551413,613.9844318282214,C 197.55690586088633,619.8703061750039 226.73365816128685,614.7699747229917 250,600,C 261.546499846364,620.1718188033267 280.2589223316824,636.1378021692788 301.9869928042832,644.3909764721769,C 323.71506327688405,652.6441507750751 348.2693755300038,653.1215162928506 370.3684448063324,645.9204698649795,C 392.4675140826609,638.7194234371093 411.92926161269605,623.9577386460378 425.3037753105169,604.9486272548362,C 438.6782890083378,585.9395158636346 445.9520782198336,562.8979757924998 447.07238024700285,539.6822730052863,C 448.87723675751863,502.28074082417646 434.9803607277815,465.5605159954414 415.1569505239766,433.79316602082383,C 395.33354032017087,402.02581604620644 369.9837687387904,374.153570953016 346.1029745406686,345.31193811114787,C 315.1756415720701,307.95996502104384 286.6734823373112,267.8831662263611 268.9361503863864,222.74939978108074,C 251.198818435463,177.6156333358012 244.27941789449636,128.1554229412273 250,80M 250 , 80C 256.5556236443148,119.18910522885574 254.08340170362385,159.7997383050699 243.30578354934275,198.04375897398936,C 232.52816539506176,236.28777964290876 213.43570085533202,271.7973635098227 190.55081301770974,304.27880557546484,C 159.98475777378258,347.66243758735715 122.18933764090546,386.202985213385 97.17843877381084,433.0098030669633,C 84.67298934022799,456.4132119937788 75.66863638079275,482.0285296890714 73.87571632407928,508.5028805328953,C 72.0827962673658,534.9772313767193 77.86299927567663,562.2511855836701 92.20187566499138,584.5783537611081,C 108.75344860695492,610.350927751017 136.9684645348118,628.6292416746458 167.43119745021477,631.8233049556868,C 197.8939303656177,635.0173682367279 229.6117265947569,622.8582248757756 250,600,C 261.21820413868335,620.0952358489468 279.9349847015204,635.8817348002391 301.62432474614536,643.5784312572001,C 323.3136647907703,651.275127714161 347.7503460540824,650.8139533053281 369.21719974931983,642.5169176690761,C 390.68405344455743,634.2198820328255 408.9773382201034,618.2372487465865 420.6281771611218,598.3897159051375,C 432.2790161021403,578.5421830636884 437.2956825013745,555.078119756015 436.02376544826694,532.0988065606219,C 433.8705607492757,493.19755507494443 414.21399999301235,457.169111044318 389.6056313704954,426.9636173160902,C 364.99726274797655,396.758123587863 335.6140974217986,370.8123873339777 309.4975906985703,341.9009409121309,C 277.60858883525384,306.5992377177469 250.6459161458783,265.6614077579214 238.8097292840712,219.58513003461383,C 226.97354242226606,173.50885231130633 230.62164288039517,123.44649541226532 250,80M 250 , 80C 231.63114098276958,162.1211646697065 189.20397695737464,236.89934115839742 139.24527397252766,304.6151344741061,C 109.75825721858753,344.5828800861626 78.14815543741736,383.6605676574576 57.415396377316036,428.7943415758105,C 47.04901684726097,451.36122853498796 39.6058876580695,475.4430780779388 37.39340984933097,500.1782989893291,C 35.18093204059245,524.9135199007194 38.35045893833997,550.2958046311845 48.04101569857522,573.1610472773078,C 56.152933123836924,592.3014294909452 68.82950615297665,609.5600163778187 85.02671177417596,622.5910549267212,C 101.22391739537528,635.6220934756237 120.9011093694842,644.3438220900337 141.47693832574964,647.3090705384611,C 162.05276728201503,650.2743189868885 183.44426729016743,647.4543835798007 202.50729206540257,639.1623077228659,C 221.5703168406377,630.870231865931 238.2321150331156,617.1369285172275 250,600,C 276.26496274824336,610.9838084897783 306.63690811762376,611.718454777937 333.44523454943095,602.136912572613,C 360.25356098123814,592.555370367289 383.121988109094,572.8437600741156 397.4097661968141,548.2195501492712,C 408.76027993491437,528.6575558821548 414.821165956223,506.219279413914 416.05657318399943,483.6365525899219,C 417.29198041177585,461.05382576592973 413.81612141121036,438.36306383196643 407.38843136693754,416.6791854307151,C 394.53305127839,373.3114286282072 370.58394795144267,334.21057235310525 347.25408873647785,295.4582718238151,C 306.4396311150162,227.66300083168062 269.2632021604415,156.75250981145177 250,80M 250 , 80C 234.05670871137576,157.91371082523904 195.96355043647287,229.7071692231301 149.54816891498186,294.2853948869506,C 117.87694297763504,338.349916357809 82.68113411081914,380.71569203353295 60.874651423013034,430.4069982914351,C 49.97141007909694,455.2526514203936 42.71259061744027,481.94929807956566 42.09682111710847,509.0750787896331,C 41.48105161677667,536.2008594997005 47.75732591202956,563.7103377837186 61.78773490239809,586.9339200821323,C 71.4108144812045,602.8623495894861 84.60798025752304,616.6654966091397 100.29436045232595,626.6782886041267,C 115.98074064712885,636.6910805991137 134.1228538516439,642.8669397556084 152.6762085257591,644.3131615530053,C 171.2295631998743,645.7593833504022 190.1413110614914,642.4632209518854 207.0825931255588,634.7618256772299,C 224.02387518962618,627.0604304025743 238.95052714893117,614.9742337655144 250,600,C 263.4920293535618,616.7717087978089 282.36941343022136,629.1370999541593 303.1293133510978,634.8249490512314,C 323.8892132719742,640.5127981483035 346.4066054563019,639.4925486743803 366.62157611205777,632.0979537927929,C 386.8365467678135,624.7033589112057 404.6307645905911,611.0127355977659 417.3116792480047,593.6196485938078,C 429.99259390541823,576.2265615898498 437.54253670329734,555.2742176821013 439.720152609315,533.8596651291825,C 442.05656453385,510.883521446101 438.3069595717299,487.506516436504 430.478495198763,465.77918008830187,C 422.6500308257961,444.0518437400998 410.8595235669639,423.92076484539007 397.3857007652451,405.1639501282107,C 370.43805516179754,367.6503206938514 337.13642238588363,335.09349964754136 309.5662588679904,298.0349772740837,C 286.41200208214786,266.91210988222565 267.2683025334981,232.45063108389002 256.4940740428885,195.1857886391935,C 245.71984555227894,157.92094619449696 243.32449087243418,118.21243331539756 250,80M 250 , 80C 260.309525135413,120.20836167879516 260.02887507972326,163.003919506919 249.74180856926588,203.21803295008647,C 239.45474205880865,243.43214639325384 219.19988274786164,280.58455136272414 194.3611067027096,313.84163875758315,C 162.48406202399767,356.52239157900306 122.76897212050329,393.28659226395223 94.43531382403857,438.3975271510826,C 80.26848467577027,460.9529945946612 69.19315987463843,485.79225518382503 64.96703598841145,512.0903166449446,C 60.74091210218445,538.3883781060641 63.70849850411678,566.144642341885 75.567072244328,589.9946400056696,C 83.53352402061243,606.0167907646895 95.43383510418839,620.1214594175466 110.13436740517095,630.3228328013806,C 124.8348997061535,640.5242061852147 142.29444654063153,646.7571236686762 160.14774771950187,647.9543311967078,C 178.00104889837218,649.1515387247395 196.17581138190155,645.2953104064694 211.9676324980986,636.8815089658208,C 227.75945361429564,628.4677075251722 241.10822869250183,615.5277194675773 250,600,C 262.840951207659,616.9828636964116 281.429825015186,629.532343788651 301.9755940143769,635.1161653725004,C 322.5213630135678,640.6999869563498 344.87286546741507,639.2829395973823 364.61782745617745,631.317755148124,C 384.3627894449397,623.3525706988662 401.36432833044887,608.9406529498251 412.8807429567414,591.0331159499002,C 424.39715758303396,573.1255789499753 430.4233299847953,551.8933942474652 431.022943119623,530.610815659876,C 432.01112667381386,495.5363769434989 418.48098736757413,461.3633993034737 399.49924311959506,431.8526191831519,C 380.5174988716153,402.3418390628301 356.43517310359425,376.52945495860126 333.74421049297615,349.76543108682097,C 301.9832000723513,312.30327244346216 272.94452845517503,271.52351452121906 256.9019274977899,225.10358272806224,C 240.85932654040792,178.68365093490686 238.00653260940268,127.62700760188142 250,80M 250 , 80C 244.3313499811119,126.29825793440506 230.90429623157422,171.56857807940986 211.11637930113122,213.8071934017808,C 191.3284623706885,256.04580872415124 165.0491152231482,294.8774049150442 137.85563646173333,332.7743308279698,C 110.40691829912338,371.0269592518544 81.7097930045639,409.2913946592954 65.15568965978505,453.3669816951655,C 56.878637987391215,475.40477521310316 51.857671373028126,498.8391235718032 52.256033448985505,522.3766518019121,C 52.65439552494288,545.914180032021 58.632103234417386,569.5148211252687 70.74975682122238,589.6973977466251,C 79.91924479439031,604.9696525830341 92.5592782637569,618.1929585584105 107.60870632515979,627.723750367224,C 122.65813438656266,637.2545421760376 140.08301159951432,643.0451036706335 157.8574108774386,644.2249374670696,C 175.63181015536287,645.4047712635058 193.70156278756417,641.9611781237641 209.76594627862508,634.2633303381543,C 225.830329769686,626.5654825525445 239.84445760675075,614.6351028755251 250,600,C 271.66580757849147,621.1999370071246 302.88805048089904,632.1848247378804 333.0694238704316,629.3689327911097,C 363.25079725996414,626.5530408443391 391.66951271233467,610.1085069127848 410.07665660829946,586.0248692986802,C 426.7841497595206,564.1650298380698 435.31436525243447,536.5999991137555 436.03305142211116,509.0958830794003,C 436.7517375917879,481.5917670450451 429.994164698698,454.2501209724292 419.2203655718439,428.93375944443795,C 397.67276731812547,378.3010363883882 361.5040713253286,335.565087570359 330.6427378593837,290.0068859895456,C 288.09316273690337,227.19423653790315 256.4684946781999,155.59136095372682 250,80M 250 , 80C 229.95786687020262,162.67496957624104 186.99984991999295,237.90556830368553 137.81403209831387,307.31445116486907,C 107.91651598602562,349.504523132393 76.18828964501623,391.4119706481672 58.114592610949664,439.85993363764857,C 49.077744093908855,464.0839151323946 43.72980390066115,489.8970379479575 44.619653363134155,515.7364280048431,C 45.509502825607136,541.5758180617287 52.842372347138514,567.3836961725318 67.11147432365993,588.9442768549108,C 76.96595185547484,603.8343700266388 90.05993089188705,616.6104268943021 105.36138192941239,625.8132089863655,C 120.66283296693774,635.0159910784288 138.14208052298483,640.6074954425259 155.95618908523056,641.825337066183,C 191.58440620972192,644.2610203134972 228.01843729555478,628.1445076244316 250,600,C 272.82089506094036,618.1540854584703 304.6271826078681,624.3005308301645 332.62477336638466,616.1458400368526,C 360.62236412490114,607.9911492435408 383.8751985620391,585.9993853325991 395.0150445760459,559.0500272511881,C 403.1821797767054,539.2922091677851 405.15479713208975,517.2354454759059 402.09147352320446,496.0767706291688,C 399.02814991431916,474.9180957824317 391.10138806405115,454.6660906761774 380.67730008704706,436.0002967565399,C 359.8291241330299,398.668708917252 329.7001193726702,367.53921936803124 303.38277680708734,333.839199019404,C 275.4159663672525,298.02699349143177 251.57267837978267,258.0570526108791 240.98296989857005,213.8697849284537,C 230.39326141735918,169.6825172460287 233.24252806947771,122.23557369627014 250,80M 250 , 80C 260.6194829117618,120.38486014157303 260.43516821749176,163.46671305981272 250.09791418856102,203.92473482446368,C 239.76066015963056,244.38275658911445 219.30765004915776,281.68296244754816 194.64168643720961,315.3771842824807,C 164.84779161201237,356.0762673331244 128.55668617481248,392.3115751436404 104.26492928002644,436.5156708473501,C 92.11905083260588,458.6177186992242 83.24703674873041,482.82970314383476 81.07666891323301,507.9556336930639,C 78.90630107773562,533.081564242293 83.7583548611427,559.0750194671417 96.68718859805301,580.7283827326803,C 112.01918439329387,606.40659016386 139.03071968741412,625.1115161128773 168.67664964183015,629.0560400488971,C 198.32257959624616,633.0005639849169 229.61610611701823,621.8846362115369 250,600,C 279.27231161146807,614.3177589416376 314.75539436236744,615.1754737243051 344.7717001811763,602.4913169458088,C 374.7880059999851,589.8071601673124 398.63298786587785,564.0325234798951 410.55625056315654,533.7059302844599,C 424.653793810517,497.84909562666684 422.35133989551576,457.1334746612418 410.9220531557266,420.33911745925786,C 399.4927664159367,383.54476025727325 379.870776821994,349.8999231889141 359.8478890094574,316.9827957180343,C 314.377503415883,242.2306174734634 270.6109683715057,165.0331235526793 250,80M 250 , 80C 261.65259048001303,120.75639455465466 262.0185123789835,164.58147244462967 251.69162158983488,205.69378068217054,C 241.36473080068652,246.80608891971121 220.4028906316709,284.63415576824286 194.9645611736402,318.5422367575032,C 164.22736038789483,359.5134607266609 126.62388176977905,395.5453166750696 100.92233055454052,439.849345507723,C 88.07155494689009,462.0013599240682 78.46645508909116,486.36199469731 75.66810471484195,511.8182986631863,C 72.86975434059273,537.2746026290625 77.21364809511621,563.7915994187036 89.92936027925259,586.0214181329972,C 97.81159053547721,599.8012636597393 108.82021187948932,611.8191874393182 122.02924205693007,620.624595909371,C 135.2382722343708,629.4300043794238 150.6196101373306,634.9831126083717 166.4227322908151,636.4914317904631,C 182.2258544442996,637.9997509725546 198.4059049194422,635.4519016500548 212.9581661456092,629.1079762281717,C 227.51042737177616,622.7640508062885 240.39682136769892,612.6409120204648 250,600,C 264.3146322724229,615.3549327335083 283.20481254103055,626.3858674094168 303.608073689608,631.3244492755205,C 324.01133483818535,636.2630311416241 345.8333932498224,635.0881403680308 365.6348043209812,628.1177188645459,C 385.43621539213984,621.147297361061 403.1254358385667,608.4391237152809 416.34860575955094,592.1348165056498,C 429.5717756805352,575.8305092960188 438.3078906846685,556.0399015697587 442.18256172597904,535.4081401164344,C 449.32637208838264,497.3689389317455 439.8260241250786,457.73684690295426 422.91475624875363,422.92271367981624,C 406.00348837242774,388.10858045667794 382.3309156814277,357.10702805773417 359.410169421873,325.91962284074987,C 332.4932490273682,289.2947724091537 306.5421924789904,251.66129307957124 287.1886611525929,210.53537548665855,C 267.83512982619584,169.40945789374626 254.96137723941138,125.18058220684074 250,80M 250 , 80C 245.72013047774453,126.90089421113557 233.04358408911534,172.94663004163567 213.45889202341039,215.77712148900497,C 193.8741999577058,258.6076129363737 167.26208180159327,297.80960632914616 139.5560357906763,335.8935422519542,C 112.16446803875223,373.5452053827555 83.40660472468848,411.06397733318295 66.37113572456508,454.39685764789806,C 57.853401224499166,476.0632978052578 52.477884363438875,499.13499182950943 52.391601425380685,522.415433950755,C 52.30531848732251,545.6958760720005 57.66351408837118,569.151904930715 69.12051635037781,589.4182200687571,C 78.05699341930973,605.225972948705 90.66723850795296,618.9950772528714 105.86063050007708,628.9402526304456,C 121.05402249220118,638.8854280080196 138.79368406807137,644.9518957456513 156.9108247890252,646.1827026412298,C 175.02796550997903,647.4135095368081 193.4613333480008,643.7937583340114 209.73379456267,635.7344358107385,C 226.0062557773392,627.6751132874657 240.06699030941454,615.2013483613719 250,600,C 256.39064939608795,625.4846090164895 273.39506077922806,648.1228107575491 296.0703143988841,661.3945314339096,C 318.74556801854004,674.6662521102701 346.7461900727794,678.3947247904113 372.1818627665541,671.812001110792,C 397.61753546032986,665.2292774311766 420.1357903764288,648.5415575424546 434.5436176707864,626.5706629524971,C 448.95144496514393,604.5997683625395 455.25010458279434,577.7362160123819 453.7718747575458,551.5041643768196,C 451.41825979698723,509.7378922309714 430.09745395192556,471.1459034395741 403.5902630773679,438.78342788093687,C 377.08307220280807,406.42095232230054 345.54792771995074,378.54835365341233 317.67731818634803,347.3523584525995,C 285.3876666636159,311.21006265082656 258.0589142654508,269.61301587547734 244.98424062116757,222.94461060619676,C 231.90956697688557,176.2762053369162 233.356815943821,125.51803560957399 250,80M 250 , 80C 257.9545176727657,119.07796210415324 256.156570412362,160.0378760779208 245.2848823021659,198.4067159255706,C 234.41319419196992,236.7755557732204 214.49510916550167,272.1496620056729 190.26564355192428,303.8244859152141,C 161.85116049582416,340.970321553383 127.49714885060445,373.27448778942806 99.3129530271208,410.5953540492938,C 85.22085511537432,429.2557871792246 72.7574902893713,449.31519636901254 64.22588943867737,471.08698488248353,C 55.69428858798344,492.85877339595453 51.209326057628346,516.4031039733565 52.88691395282729,539.7265832808,C 54.52859912273581,562.5509075377681 62.198454142480074,585.0462272328942 75.67901948746488,603.5372863146212,C 89.1595848324497,622.0283453963481 108.43099226825089,636.32579011823 130.20118701179643,643.3758630832725,C 151.97138175534246,650.4259360483147 176.0790702203054,650.1280000966385 197.6055443551343,642.3655379030506,C 219.1320184899632,634.6030757094627 237.91089309090526,619.4293181075615 250,600,C 264.0715872380777,616.1355177734733 282.88847099427954,628.0779415196927 303.47466890623497,633.9578187927921,C 324.06086681819033,639.8376960658915 346.3266247244801,639.6307759736947 366.83776443153766,633.4941931188417,C 387.3489041385951,627.3576102639889 406.0144617677828,615.3416416645806 420.3605160039332,599.449655348505,C 434.7065702400836,583.5576690324293 444.70549171406253,563.893713537075 449.78363866065564,543.0952298229744,C 460.15853035798756,500.60295492980964 449.62237510681666,455.2614367549993 430.1239656854108,416.10733309570355,C 410.6255562640025,376.9532294364069 383.1151312393723,342.46710497807334 357.1602541119522,307.2594899405799,C 306.97386569822777,239.18199395713768 264.87610013923324,163.25815687388422 250,80M 250 , 80C 249.3401393284056,128.11145243771927 239.03992457518365,175.95539986562898 220.88562922630064,220.5151219491246,C 202.73133387741825,265.07484403261776 176.53485159351715,305.805312834799 150.4316938533894,346.22526369779007,C 129.40755187760163,378.7805121492651 108.41752064582049,412.0443502514406 97.19215156816534,449.13680011156407,C 91.57946702933658,467.68302504162665 88.54322908309818,487.1135516787593 89.49195300594724,506.46722341843434,C 90.44067692879631,525.8208951581094 95.46121095672041,545.069340497748 104.93509674191789,561.9723039958426,C 118.66657703886524,586.4715132428794 142.13735685212168,605.5789577915141 169.25517918718555,612.8857023935553,C 196.3730015222494,620.1924469955966 226.53552735974424,615.4331891905152 250,600,C 261.5268231592002,619.5368380751689 280.23393509322426,634.7212710332182 301.714636344616,642.0106583783454,C 323.1953375960077,649.3000457234726 347.2384731819927,648.633316179853 368.36259849975335,640.3672999883382,C 389.48672381751413,632.1012837968246 407.5011314142446,616.3768449320879 419.0670296617405,596.8631140779586,C 430.6329279092364,577.3493832238292 435.75566781317264,554.2799232692847 434.7237883074681,531.6195852575839,C 432.9205837170654,492.02075099753915 412.8254523573458,455.30952247618376 387.6829573324361,424.66357387817595,C 362.5404623075239,394.0176252801689 332.5291604853727,367.73189118626294 306.1252574952103,338.16581047820296,C 274.95285866618326,303.2601505086768 248.88038307436705,262.6712443187758 237.7073930157918,217.22580626592955,C 226.53440295721813,171.78036821308334 230.59492169760554,122.58598927748432 250,80M 250 , 80C 243.05795692144545,124.86174551698774 228.86166007774307,168.53235099124686 208.72972816093795,209.21986123987966,C 188.59779624413304,249.90737148851215 162.41499204069765,287.2703632459468 135.21895265401383,323.6179025658703,C 110.23312550042326,357.01149058040363 84.2761854340284,390.1148588725076 65.97602388272553,427.59188338392937,C 47.6758623314211,465.0689078953509 37.85954018881088,508.17382871225385 47.15672504972598,548.8307547236421,C 52.0645885231913,570.2930193875934 62.23882495596335,590.6287002513095 77.07020364909131,606.8997215603945,C 91.90158234221926,623.1707428694795 111.3581787079022,635.2514736001175 132.62715224589252,640.9388889199208,C 153.89612578388292,646.626304239724 176.86565657539637,645.8614519130386 197.6613943335085,638.6328130732917,C 218.4571320916206,631.4041742335447 236.97057879600385,617.7468338434923 250,600,C 277.59853822938874,612.0240514219586 309.99825543689633,612.4625462727083 337.97181547607335,601.3388299992907,C 365.94537551525036,590.2151137258732 388.998598798067,567.810812077162 402.0476568001614,540.6818753074523,C 411.7547960861118,520.5007735098324 416.1143624577024,497.93196370306674 415.85302904161983,475.53917183317304,C 415.5916956255373,453.14637996327934 410.8219360603356,430.95104484878397 403.3691892655264,409.83323274394695,C 388.4636956759053,367.5976085342682 363.49870265998584,329.7885930808531 339.9419502628445,291.69527203855995,C 299.36652056249716,226.08126702011003 264.62598855773393,155.7472349900512 250,80M 250 , 80C 242.67152479968573,124.96007216176618 228.36598331955878,168.72072126000623 208.32293769965185,209.6278228418975,C 188.27989207974508,250.53492442378854 162.3820449471664,288.2704728625017 135.41719587129856,324.98574968112973,C 107.32615703613126,363.2344438998197 77.76722328752783,401.166568374113 59.280893946178644,444.87382978176583,C 50.03772927550048,466.72746048559344 43.75971459849513,489.9962452695321 42.57918396878558,513.6948447112895,C 41.398653339076034,537.393444153047 45.45789840593764,561.5052462654934 55.655518626811656,582.9301338941222,C 64.2100480360926,600.9029380719462 77.07355832315628,616.8739246719181 93.12556198793835,628.644007159925,C 109.17756565272043,640.4140896479319 128.3756097818966,647.9080688266797 148.1844100591412,649.8607836048534,C 167.99321033638574,651.813498383027 188.3330319171506,648.201672095326 206.21614884915002,639.4612034451278,C 224.0992657811494,630.7207347949296 239.4580634529207,616.8839935224464 250,600,C 280.6692198473835,618.0678813919775 319.90639948451275,620.6112751503618 352.760539126006,606.9125565074023,C 385.6146787674992,593.2138378644428 411.0735242584405,563.9473364619575 422.1896166991773,530.1319276533878,C 435.23324567903313,490.45290837097025 429.1127386374307,446.4903479483464 413.6680922777534,407.6828264221898,C 398.22344591807445,368.875304896032 374.4934486166579,334.0250063027807 351.54635722057213,299.1252666957516,C 307.04145885935355,231.43872040392606 267.70428496140204,159.04880025062562 250,80M 250 , 80C 227.03993419825326,160.9181364900963 184.6885709757258,234.77970147542976 138.8469582879288,305.3024352627157,C 111.28019681797068,347.71113920085133 82.96889881722306,390.8297100429635 69.58437177579121,439.60756304543986,C 62.89210825506963,463.9964895466859 60.216234638736985,489.6915027101705 63.826413214080404,514.7229376983627,C 67.43659178942384,539.7543726865549 77.52621681940694,564.0242498592331 93.92260934324499,583.2794943167358,C 112.71117400829547,605.3440066846284 139.84458696606652,620.331996803518 168.6438979464964,623.5650379814432,C 197.44320892692627,626.7980791593684 227.41481572243546,618.1593590017412 250,600,C 273.3653093162618,614.5445593309187 302.52829364200693,619.4130326975727 329.3785931470494,613.3679270686594,C 356.22889265209193,607.322821439746 380.3213576693609,590.5248424930671 396.0743686227298,567.9566229913376,C 408.31681793110386,550.4177357241326 415.63717930474667,529.6405594435587 418.18117920441927,508.40337045465765,C 420.72517910409186,487.1661814657566 418.6019776203314,465.5185157301809 413.3891759676453,444.774436320152,C 402.9635726622723,403.2862775000892 380.8665445066738,365.8023223275951 358.5123975888518,329.32969365709494,C 334.6612711530414,290.41461982026254 310.37363207664214,251.61161644171415 291.25549203968336,210.16579728573214,C 272.137352002725,168.71997812975079 257.9786289947493,124.9399675494677 250,80M 250 , 80C 244.77265982214146,156.09622942909175 212.59841301151346,228.44355014127976 167.72680837104474,290.1241817499905,C 135.82691066381855,333.973869199332 98.10969058526162,373.81292572453276 71.12857549953782,420.849273285407,C 57.63801795666028,444.36744706584665 47.061458917448654,469.8153970288058 42.586696197924454,496.556304630991,C 38.11193347840025,523.2972122331762 39.97883278970422,551.3494633726602 49.97855918727117,576.5507552593563,C 57.68265529611905,595.9666039578984 70.19017716874384,613.53213651364 86.39869842631263,626.7083315707112,C 102.60721968388144,639.8845266277823 122.47148223244953,648.5781680612171 143.18895630794032,651.2454785925227,C 163.9064303834311,653.9127891238281 185.3818320220984,650.5220498441993 204.22248155740195,641.5021716506253,C 223.0631310927055,632.4822934570514 239.18624072062323,617.8715105065783 250,600,C 275.18953536582165,615.5827419455906 307.54259630214943,618.9070009970764 335.43861192420786,608.949749825055,C 363.33462754626623,598.9924986530337 386.0225175169748,576.1749715323036 397.19248211941084,548.7420272996994,C 405.80465150757175,527.5909161766048 407.8561518735586,504.0504176736658 404.6588540183444,481.4381146123472,C 401.46155616313024,458.8258115510286 393.19980707038786,437.1446510296 382.43188822940874,417.00536387374564,C 360.8960505474378,376.7267895620212 330.0525582708919,342.3049612174571 304.2401385629005,304.6237345645494,C 281.8242808170863,271.90084279791625 263.05479687382626,236.2659191335421 253.04967356482166,197.88420693068463,C 243.04455025581726,159.50249472782718 241.79622741237904,118.80665457601256 250,80M 250 , 80C 233.49195597837618,155.51933302801518 198.06721400208164,225.53806575383732 157.0626681572329,291.0690690917524,C 130.56715460054156,333.41260812015594 102.18932313939742,375.5238518539179 87.39347507848746,423.2320316163152,C 79.99555104802609,447.08612149752173 76.26245061264736,472.27812836836193 78.55826471192536,497.1473085245857,C 80.85407881120335,522.0164886808094 89.3704687190627,546.4839644561011 104.28343702819463,566.5176925223394,C 120.53178940081669,588.345343879856 144.41680493842927,604.5286195760508 170.90820805422453,610.7464069290102,C 197.3996111700198,616.9641942819695 226.14622981560518,613.0940049870261 250,600,C 263.14701694805274,611.857632265742 279.7548029511009,619.8283190356284 297.2278604014792,622.6813456597125,C 314.70091785185747,625.5343722837966 332.9647244612904,623.2585982053705 349.24604302507896,616.304019612358,C 365.52736158886745,609.3494410193457 379.7574106763754,597.7649873400417 390.1120173841445,583.4042903684677,C 400.4666240919136,569.0435933968938 406.93279571875024,551.9932286547215 409.28452532091353,534.4456685548029,C 411.73920678516356,516.1299274592017 409.7663950074582,497.3488230357561 404.5747892341788,479.61357388422516,C 399.3831834608995,461.8783247326943 391.0449930240328,445.17080086343395 381.0871892662139,429.6037209415992,C 361.17158175057375,398.469561097929 335.1389450050669,371.8168361608768 311.3703031953073,343.51455712883455,C 280.7196923249656,307.01764038036305 253.78241126008223,266.20840018671356 241.47005317717554,220.16612920331994,C 229.15769509427227,174.1238582199274 231.7835361475465,124.04140465042002 250,80M 250 , 80C 228.42467159978617,156.71438211296322 189.68131564020896,227.3062511289233 148.04182142675,295.2528753290859,C 125.66506888147838,331.7668826371325 103.02160513109291,368.6886717838864 89.81973145867424,409.42811600815014,C 83.21879462246375,429.79783812028256 79.11493870368018,451.0780784002751 79.00840057809437,472.4903785025279,C 78.90186245250857,493.90267860478065 82.87490200173944,515.4315361087706 91.57712872070003,534.9960242485852,C 104.46388021957135,563.9682292948002 128.17897928575596,588.2314408315646 157.42857485393796,600.4755491507266,C 186.67817042211996,612.7196574698886 220.90468381690349,612.6063319660886 250,600,C 258.5656561832559,619.2901055092206 273.39625207079723,635.7349506198876 291.69324877785533,646.2562883631841,C 309.99024548491343,656.7776261064805 331.64171278000754,661.3148551334104 352.63764835427156,659.1586256076034,C 373.6335839285354,657.0023960817965 393.8422706191359,648.1955696216339 409.9572553673948,634.5652393626129,C 426.0722401156537,620.934909103592 438.0387540067406,602.6104851511972 444.73532084434004,582.5946257143365,C 451.8674695803709,561.276823615858 453.0797114907076,538.1880016538606 449.61639507638404,515.9771558501313,C 446.15307866206047,493.76631004640205 438.14087403114553,472.4261982379496 427.66309996847036,452.5381997817376,C 406.70755184311497,412.76220286931033 376.5331709635981,378.7658733374957 348.6617129638747,343.48915641852534,C 318.8710433770873,305.78330630296057 291.4706362715372,265.6390898949826 273.5727780463403,221.04220885698481,C 255.6749198211442,176.44532781898744 247.26426198709123,127.9763573532968 250,80M 250 , 80C 266.5913138773749,122.67215670936929 268.8387471128211,170.59859022283777 257.3135902649017,214.90835679903853,C 245.78843341698354,259.21812337523806 220.72465962792793,298.9180399191799 191.46338655581533,334.131141921214,C 166.80041456149954,363.81063489367796 139.14207223343453,391.1374366841236 117.40076599021721,423.0192511483849,C 106.53011286860702,438.96015838051517 97.22517899120395,456.0830308051823 91.13507611217074,474.39134229468203,C 85.04497323313754,492.69965378418175 82.24676054387251,512.2196855764392 84.12803646111249,531.4224047483942,C 85.95577893667348,550.078692832024 92.26722328414849,568.3600776088596 102.9014572179325,583.7973959076417,C 113.53569115171652,599.2347142064237 128.48101541943976,611.723137602283 145.7006484600557,619.1313739351009,C 162.9202815006717,626.5396102679185 182.3314448884483,628.8071860444812 200.77300901890695,625.4446810201674,C 219.2145731493656,622.0821759958536 236.59570938040682,613.1043016067947 250,600,C 271.6419905413396,623.4626626428335 304.270535596592,636.2789413830621 336.107783952679,633.9850560337724,C 367.945032308766,631.6911706844826 398.12788311262096,614.4810017301743 417.3707777336366,589.0137031006113,C 434.02046557150777,566.9784230345354 442.6045862070202,539.3655835088032 443.4895817786036,511.76155381154274,C 444.37457735018705,484.15752411428224 437.87557512566406,456.6580547056804 427.3236891435175,431.1350577243551,C 406.21991717921435,380.08906376164964 370.33280804317116,336.8455221204895 338.97402595234473,291.3736684465745,C 295.15267921043153,227.830452352599 260.86939014183935,156.41928486831804 250,80M 250 , 80C 254.56737365098607,118.71302964859504 250.8529233338797,158.3351588570353 239.57422127679214,195.64937125054792,C 228.29551921970466,232.9635836440605 209.43610160061567,267.6724315141405 186.8517364328617,299.44515592691727,C 154.78097077077737,344.5637851874397 114.72851826319547,384.0477848854318 87.00084745832744,431.95812811356643,C 73.1370120558531,455.9132997276531 62.64062521777972,482.17208251478894 59.41824138628933,509.66157908292917,C 56.19585755479893,537.1510756510694 60.6168808514678,565.8491666390141 74.1580783388504,589.9881838049004,C 82.80289354906236,605.3987368929279 95.06911036689691,618.8114984060587 109.85783739297301,628.4816343640396,C 124.64656441904911,638.1517703220204 141.9216351965846,644.027267868195 159.55321550545992,645.1871611000515,C 177.18479581433522,646.347054331908 195.11386625699922,642.7775837337537 210.92564134410182,634.890521854162,C 226.73741643120442,627.0034599745703 240.3828370932227,614.8232302188873 250,600,C 273.4848493778272,617.4205346992637 305.43401331719525,622.7254021905612 333.3472091171061,614.0152541009293,C 361.2604049170169,605.3051060112973 384.2541567219225,583.0367804489262 395.2743190699513,555.9522977820823,C 403.5597255654428,535.5890815673015 405.3895914055249,512.8791146775679 402.0313283705374,491.1528493566878,C 398.67306533554984,469.42658403580765 390.31187214643967,448.6888716582571 379.45507392835367,429.57242669960414,C 357.7414774921701,391.3395367822828 326.75629618690306,359.3489285162877 300.2998143860507,324.23071796471453,C 274.1326751318179,289.4965793600502 252.25014086718537,250.77145614526717 242.43652033981053,208.40552155740363,C 232.62289981243663,166.03958696954032 234.99547187125137,120.81719854414311 250,80M 250 , 80C 261.7450869754507,126.80150182729074 259.606912141307,176.8094808847625 245.08802825418877,222.8261045334308,C 230.56914436707223,268.8427281820961 203.76064623853205,309.9407123193986 174.6339814400953,348.41102605700644,C 150.13329757424785,380.77137358143904 123.82787414955777,412.4504021763005 107.35008535677972,449.5443110872908,C 99.11119096038718,468.0912655427881 93.50296892898939,487.95770819426747 92.45419758226116,508.225144616062,C 91.40542623553294,528.4925810378564 95.05050256561782,549.135607266655 104.09779690133584,567.3019323119713,C 116.92594214148164,593.0599376905432 141.14169623062477,613.1924678486309 169.17081283065116,619.7043626578964,C 197.19992943067749,626.2162574671618 228.1584215622668,618.7345030020323 250,600,C 260.80033795724427,620.5525516813864 278.6587471037284,637.3067032445792 299.8479731133387,646.7972976264082,C 321.037199122949,656.2878920082371 345.39526161730254,658.4492322857046 367.9690891075157,653.0199604147401,C 390.54291659772855,647.5906885437762 411.16365895903573,634.6584511396376 426.2762341631016,617.0327667186517,C 441.3888093671675,599.4070822976659 450.9578291964185,577.2753298074695 454.457989171717,554.3231281537271,C 460.6522040359571,513.7047365219154 447.8937063288837,472.1206021990215 427.58219233545293,436.40415730546766,C 407.27067834202046,400.6877124119136 380.0711155281527,369.47634191614384 354.4969432187006,337.31761452798156,C 325.07126609511016,300.31573945732885 297.6776694173942,261.22002278605953 278.9068005178142,217.83034989399033,C 260.13593161823485,174.44067700192156 249.94771269067522,127.27585534882691 250,80M 250 , 80C 227.800482524245,156.25940033896515 189.4436401728187,226.63822287847896 148.69842505066094,294.81550766501175,C 126.09847901537839,332.6310634888863 103.33138840927627,371.0087566496408 90.98091794114819,413.2963399606099,C 84.80568270708265,434.44013161609547 81.38973680986001,456.5031158088821 82.31750610131847,478.5106758714709,C 83.24527539277693,500.51823593405965 88.61151794718833,522.4433198079163 98.92841737799134,541.9049497987809,C 112.77848533706604,568.0314909922553 135.82406357127638,589.3625654781689 163.36133002855422,600.138441000194,C 190.89859648583206,610.9143165222192 222.51643222073852,610.9121051739818 250,600,C 276.8032162528125,612.366647540815 308.6011598997006,613.3628433847384 336.1818531024692,602.843730525351,C 363.7625463052377,592.3246176659635 386.62609626807523,570.5661801952986 399.59265489860854,544.0479839863797,C 409.7025075295928,523.3721004809142 413.98307925213214,500.06868592118184 413.26906215085637,477.06452415573415,C 412.5550450495806,454.0603623902864 406.9854828870601,431.37860632462 398.65862670390493,409.922494257033,C 382.00491433759,367.01027012185085 355.07517677319686,329.02274912629406 330.6501881358821,290.00704657110344,C 290.49816587030057,225.86947905919266 258.7037224203025,155.16686553522766 250,80M 250 , 80C 242.9349092679135,124.80975831015093 228.6708544099865,168.4155879887196 208.52949952935666,209.0623070499093,C 188.38814464872706,249.70902611109867 162.24872603664812,287.0542996523387 135.20164905135522,323.47250352647774,C 110.81915894579234,356.3029086791825 85.6022650359044,388.93428552710765 67.8138650692405,425.7570251436083,C 50.02546510257531,462.5797647601088 40.43997679747341,504.7561121328635 49.19322616505198,544.7026007363395,C 53.859339945833774,565.9969627657007 63.683933227857885,586.2370059712752 78.12379620854212,602.5683509603373,C 92.56365918922636,618.8996959493994 111.59009494608851,631.2016294045171 132.5232085603002,637.2866295250764,C 153.4563221745119,643.3716296456355 176.1905824139269,643.1811119444221 196.97564864846586,636.6081754866028,C 217.76071488300482,630.0352390287835 236.49247324379016,617.1104994954261 250,600,C 262.2251186150629,609.1912564769664 276.7760715638006,615.2611491415155 291.9076050978429,617.4903673196862,C 307.03913863188524,619.719585497857 322.7137291355288,618.1021648191747 337.0930521018953,612.8898916292259,C 351.4723750682617,607.677618439277 364.5189601764059,598.8918536368179 374.8846492930469,587.6452892763173,C 385.25033840968786,576.3987249158165 392.91981017559965,562.7345915175374 397.44989896671893,548.1259975974399,C 403.45734456310606,528.7532353269208 403.91548597657635,507.8617325440592 400.05905711853217,487.9488905307643,C 396.202628260488,468.03604851746934 388.1605903170718,449.09578741061046 377.97261440307307,431.55730208948364,C 357.5966625750695,396.48033144722444 329.19477358114517,366.88927657033634 304.0514055625494,335.05557859136303,C 275.702075553603,299.16285297307246 251.37334331384352,259.1023794174311 240.59280875385966,214.65294366322797,C 229.8122741938779,170.20350790902535 232.7901073529444,122.37678443844896 250,80M 249.01603086846663 , 576.1783388577666C 249.0673463649183,584.1271047177293 249.3956013059164,592.0740795994866 250,600,C 254.02559164829083,652.790516064402 270.5084022730272,704.5905204681187 297.73014253900453,750M 249.44654975632403 , 575.1671177587588C 249.09279755743623,583.4450771254558 249.27780061144782,591.7460203575439 250,600,C 255.39557520905302,661.6657513711624 292.79404943329024,719.6508666053896 346.7450200103124,750M 250.68221094919178 , 576.7311554012676C 250.14639137065765,584.474299582434 249.91874780657454,592.2387641118096 250,600,C 250.5513648946874,652.6665536981777 265.65371762832643,705.1072301640135 293.19839221604434,750M 249.00406878259676 , 575.9098833522501C 249.38102600211218,583.937978528122 249.71301001988363,591.968185407424 250,600,C 251.7858053202574,649.9782508954753 251.82875611583015,700.018757159242 250.12874808464076,750M 250.14117618960913 , 576.9899844864883C 250.41076986050476,584.657574917922 250.3636576619865,592.3362948336669 250,600,C 247.45402828554268,653.653693077276 228.98887244075684,706.4535268231717 197.54200571828156,750M 249.1676953019439 , 576.5543184009157C 249.6543368920245,584.3602485286531 249.9319044189416,592.1792117923987 250,600,C 250.44362883751012,650.9508418464917 241.90967105533068,701.9673395828364 224.90824097838913,750M 249.13173314555465 , 575.503902560507C 249.01972116005294,583.6769169959626 249.30960933556915,591.8554268142813 250,600,C 254.71303614744087,655.5999230687964 278.72833374430036,709.3786388362602 316.9836493512612,750M 249.10249813348446 , 576.4410106570153C 249.5993222559868,584.2848153272405 249.89861598114047,592.1411306669428 250,600,C 250.65516780646215,650.7858954510946 242.97499762669045,701.6698769715711 227.35976052695162,750M 250.52057672146253 , 575.1461851037425C 250.65392932744984,583.4334286258119 250.4802450905858,591.7256086166672 250,600,C 246.94525619974692,652.6317629780904 231.27103129828777,704.488191972419 204.6607087912666,750M 249.77323239340376 , 575.0260511037028C 250.38084247565146,583.3345278262509 250.45663763665823,591.6818597312885 250,600,C 246.74860771088876,659.2275689918127 214.865275040315,716.229912459737 166.0999423948731,750M 250.89982560110207 , 575.563750200457C 250.92858162626248,583.7168470829142 250.62831442465702,591.871098680173 250,600,C 245.86005440439783,653.5610959981911 227.16553398182864,705.9264987010824 196.4497947376513,750M 250.96511620238053 , 575.7381780836091C 250.60215947097026,583.8237408517657 250.28044848935423,591.9111551188383 250,600,C 248.26719466153605,649.9784956030891 248.11014502742682,700.011611095582 249.52916293769636,750M 250.6618648173979 , 575.250376785651C 250.75714781691514,583.5046665073609 250.53631067498185,591.7626006215662 250,600,C 246.55314953986326,652.9414855276666 229.82862939126187,704.9671643671703 201.78000406242958,750M 250.78401644410033 , 576.6207400545964C 250.31410800820692,584.4049684080944 250.05264431822326,592.2017788199304 250,600,C 249.65587917964945,650.9747368819442 258.3222261468053,701.9976271603646 275.4778206012994,750M 250.91374885848478 , 576.4062794895361C 250.5038421756826,584.2663029204477 250.19922279179107,592.1318171028937 250,600,C 248.73057847184242,650.1350305719142 251.75045536055907,700.3779575427552 259.0158269157047,750M 249.04308665452697 , 575.7096263626711C 249.4031453692571,583.804729321484 249.72212196105718,591.9016595535068 250,600,C 251.71492691866013,649.9789838772535 251.86401293584404,700.0116835552489 250.44696573883706,750M 249.52258580897438 , 575.121321623C 249.17201730602736,583.413554554221 249.33155594033738,591.7273216066387 250,600,C 254.79898839587625,659.3923860024961 287.31854655571465,715.9634692734219 336.2266274911997,750M 250.6748034821441 , 576.7379974664497C 250.239784389408,584.4840039939113 250.0147397539915,592.2418016605545 250,600,C 249.902993594838,651.0588529413054 259.0081060127862,702.1214934187757 276.7468906801799,750M 250.8180604332956 , 576.5751322695487C 250.2926031400332,584.3718609308162 250.01972566361923,592.1856098073704 250,600,C 249.86993786605456,651.5245663494859 260.9060242723448,703.0490035005971 282.12869567286157,750M 249.0756441181425 , 576.3815313927785C 249.7865306282715,584.231701776891 250.0951876885643,592.1182822942061 250,600,C 249.33917180095466,654.7178043238825 228.45611949772476,708.9640917107773 192.25488975598995,750M 249.00057845762106 , 576.0340085375884C 248.94600140160375,584.0325649699151 249.27966443401968,592.0337587076123 250,600,C 255.05122421866213,655.8618411310181 279.7826959881143,709.7475717594917 318.84421389765066,750M 249.37949211777746 , 575.2157997908062C 250.03621613832178,583.4577556311227 250.24346147042837,591.7355067290665 250,600,C 248.3693534611662,655.3535938304775 225.69798940977807,709.8319843951277 187.57699938524138,750M 250.95949365544246 , 576.2817302347382C 250.5125180274639,584.1819936894733 250.19263163980065,592.0894473696475 250,600,C 248.77698371946295,650.2240164958276 252.7009148628362,700.5719126321168 261.6904521673102,750M 250.9999468100617 , 576.0103139249301C 251.00518873321025,584.0162066425827 250.67147523896423,592.0223144529394 250,600,C 245.4366708349778,654.2161542433529 224.87559033677616,706.9877924994738 191.55644629106195,750M 249.19970844874422 , 575.4003889318996C 249.55404666227133,583.5970980897338 249.82083080257746,591.7975921226518 250,600,C 251.09371607213254,650.0705782840832 248.91810167441488,700.212328906746 243.4916081787111,750M 250.9672205878413 , 576.2539376586013C 250.67603920725344,584.1705225189504 250.35362900003685,592.0859587455054 250,600,C 247.7623883345568,650.0766368991543 244.27458206143916,700.0974052283464 239.54092553067954,750M 249.65328732779017 , 575.0620286129475C 249.55261837961064,583.375817091029 249.6682413974725,591.6922235631273 250,600,C 252.04448971442923,651.1973565886857 262.364603856088,702.0552558115917 280.4380862147684,750M 249.0041088455207 , 576.0905583150786C 249.8768869184948,584.025564885023 250.20987193537078,592.0198982086399 250,600,C 249.19386471464225,630.6522242880969 240.21520336495524,661.0521092656495 224.2383415953798,687.2236318790165,C 208.26147982580437,713.3951544923834 185.32538571175405,735.2744815632102 158.42988767446417,750M 250.38524580575051 , 576.9228139948829C 250.47322792906704,584.6167926033908 250.3447449285894,592.3132452480638 250,600,C 247.68335226406907,651.6541405426685 235.48973567007832,702.8478111906612 214.27209719586048,750M 249.96539437211155 , 576.9994010458862C 249.80171820211078,584.665196254326 249.8132574277261,592.3347320152479 250,600,C 251.2416956593258,650.968185070712 260.2870795766301,701.7390366329575 276.7241447768941,750M 249.1582752811206 , 575.4600930657721C 249.4101659347542,583.6410123553377 249.69074314093626,591.8210483850987 250,600,C 251.89268200591997,650.0559780490528 254.85973765261213,700.071329790507 258.8984348106653,750M 250.8982469901204 , 575.5605089935623C 250.72061262804132,583.7108744962457 250.4211523733707,591.8585847377543 250,600,C 247.3860402078767,650.5311936773949 240.0711441133921,700.8182107412516 228.18056273293416,750M 250.90707747022626 , 575.5790362687737C 251.10434748352415,583.7276923736689 250.80122993466475,591.8884315717743 250,600,C 243.9976674867596,660.7669893542937 208.3415886693402,717.9045617044619 156.3941360715308,750M 249.50591136585018 , 575.1305884624621C 249.18194563834143,583.4205004197024 249.34702316347088,591.7294972763227 250,600,C 254.6006842973092,658.271549438 284.654385820119,714.0840355775061 330.7714463239166,750M 250.39651728438733 , 575.0819727437695C 250.67394228248781,583.387767546098 250.5415556528729,591.7072375288568 250,600,C 246.41081710876236,654.9606324384747 224.26231256942205,708.5448785976686 187.99902174547944,750M 249.34970188200765 , 576.7596791149792C 249.97666558572706,584.4877205255339 250.19383727859613,592.2489913792813 250,600,C 248.6058802397473,655.7469355651991 225.00935887393004,710.6336822982144 185.51306252327868,750M 249.07308187183068 , 576.3752636189015C 249.3497268080557,584.2513998280156 249.6587029883516,592.1264004194335 250,600,C 252.17079322127128,650.0794206018588 255.64941429609723,700.1021445580259 260.4311224970699,750M 250.32166129305034 , 575.0531451998573C 249.76034796982646,583.3546359672558 249.65291424562875,591.686796460621 250,600,C 252.32294375554352,655.6378474401677 275.8321619171672,710.1324179484667 314.71071689071334,750M 249.0090111509734 , 575.8660556044288C 248.84480914095113,583.9208741167638 249.17596977340526,591.9857603135164 250,600,C 256.31911792941463,661.4576068438207 293.46192555075686,718.9645376702442 346.8826028990814,750M 250.29787194916494 , 576.9546058358824C 249.93950713879585,584.6301412000965 249.84014117108555,592.3177663652143 250,600,C 251.0827933396213,652.0351079114452 264.2559480579693,703.7811775198697 288.1859573626534,750" stroke="hsl(210,80%, 90%)" fill="none" stroke-width="1"/></svg>